<svg xmlns="http://www.w3.org/2000/svg" width="24" height="24" viewBox="0 0 24 24">
  <path fill="none" stroke="#1E1169" stroke-width="1.5" d="M16.1776142,4.75 C17.3775878,4.75 18.4828597,5.2202074 19.2877969,6.07880971 C20.0982416,6.94332696 20.5357143,8.12687514 20.5357143,9.40457831 C20.5357143,10.7630247 19.9995233,11.9966452 18.8985635,13.3030082 C17.8149629,14.5890285 16.2541333,15.89055 14.4508788,17.4017804 C13.7951091,17.9516354 13.0907198,18.5422801 12.3599628,19.1707426 C11.1820833,18.5313078 10.4665291,17.9315151 9.83532317,17.4024541 C8.030334,15.8895358 6.47025887,14.5884439 5.38712934,13.3029828 C4.28633277,11.996672 3.75,10.7630517 3.75,9.40475393 C3.75,8.12689314 4.18729145,6.94332342 4.99768232,6.0788224 C5.80264006,5.22019819 6.9079658,4.75 8.10810006,4.75 C8.99703629,4.75 9.81065124,5.02749259 10.5271339,5.57257202 C10.9014492,5.85718102 11.2398223,6.20649418 11.5387096,6.6128071 C11.7871013,6.95047535 11.9897916,7.30245574 12.1431673,7.66538014 C12.296344,7.30230846 12.4987868,6.95041006 12.7471121,6.61266098 C13.0459196,6.20625081 13.3840935,5.85714179 13.7584428,5.57250695 C14.4749851,5.02752504 15.2885954,4.75 16.1776142,4.75 Z"/>
</svg>
