<?xml version="1.0" encoding="UTF-8"?>
<svg width="24px" height="24px" viewBox="0 0 24 24" version="1.1" xmlns="http://www.w3.org/2000/svg" xmlns:xlink="http://www.w3.org/1999/xlink">
    <title>icone/24x24/like_24_inklight</title>
    <g id="icone/24x24/like_24_inklight" stroke="none" stroke-width="1" fill="none" fill-rule="evenodd">
        <path d="M15.971714,4.75 C17.1483989,4.75 18.23163,5.21941721 19.0207391,6.07449679 C19.8195553,6.94013516 20.25,8.12536144 20.25,9.40457831 C20.25,10.7642721 19.722456,11.9996099 18.637459,13.3074673 C17.5709813,14.5932565 16.0347419,15.8945799 14.259982,17.405539 C13.614433,17.9554159 12.9210225,18.546084 12.2016499,19.174576 C11.0662671,18.5351109 10.3618653,17.935294 9.7404969,17.4062117 C7.96403113,15.8935663 6.42853411,14.5926723 5.36251978,13.3074418 C4.27768367,11.9996368 3.75,10.7642989 3.75,9.40475393 C3.75,8.125379 4.18026652,6.94013151 4.97902939,6.07450956 C5.76815898,5.21940778 6.85144347,4.75 8.02828599,4.75 C8.89918968,4.75 9.69605504,5.02668192 10.3979034,5.56910333 C10.7659775,5.85340911 11.0986375,6.20239029 11.3925367,6.60826406 C11.6454652,6.95755728 11.8494036,7.32097616 12.000324,7.69483754 C12.151029,7.3208211 12.3547084,6.95749454 12.6075691,6.60811784 C12.9013896,6.20214708 13.2338537,5.85336983 13.6019623,5.56903734 C14.3038669,5.02671474 15.1007284,4.75 15.971714,4.75 Z" id="Fill-1" stroke="#59598D" stroke-width="1.5"></path>
    </g>
</svg>