<svg height="24" viewBox="0 0 24 24" width="24" xmlns="http://www.w3.org/2000/svg"><g fill="none" fill-rule="evenodd" transform="translate(1 2)"><path d="m9.10833333 1.75-8.55 14.425c-.35899923.6247906-.36206035 1.3925545-.0080546 2.0201879s1.01264589 1.0221762 1.7330546 1.0381454h17.09999997c.7204088-.0159692 1.3790489-.410512 1.7330546-1.0381454.3540058-.6276334.3509447-1.3953973-.0080546-2.0201879l-8.55-14.425c-.3622882-.60763968-1.0175547-.97985009-1.725-.97985009-.7074452 0-1.36271172.37221041-1.72499997.97985009z" stroke="#d20019" stroke-linecap="round" stroke-linejoin="round" stroke-width="1.5"/><path d="m11.8916667 15.0916667c0 .5845013-.473832 1.0583333-1.0583334 1.0583333-.5845013 0-1.0583333-.473832-1.0583333-1.0583333 0-.5845014.473832-1.0583334 1.0583333-1.0583334.2813688-.0022421.5518647.1085405.7508288.3075046s.3097467.46946.3075046.7508288zm-1.0583334-2.0749975c-.4383868.0010727-.8026474-.3376897-.8333333-.7750025l-.125-5.15833337c-.00474567-.25409064.09525747-.49894179.2765274-.67705917.1812699-.17811738.4278376-.27380982.6818059-.26460749.5108634 0 .925.4141366.925.925l-.125 5.15833333c-.0212666.4313085-.3684924.7749173-.8.7916692z" fill="#d20019"/></g></svg>