<svg height="24" viewBox="0 0 24 24" width="24" xmlns="http://www.w3.org/2000/svg"><g fill="none" fill-rule="evenodd" transform="translate(1 1)"><path d="m12.2558333 15.7025c0 .5079372-.3059739.9658596-.7752467 1.1602387-.4692727.1943792-1.009429.0869354-1.3685949-.2722304-.35916578-.3591659-.46660955-.8993222-.27223041-1.3685949.19437911-.4692728.65230151-.7752467 1.16023871-.7752467.6935776 0 1.2558333.5622557 1.2558333 1.2558333zm-1.2558333-2.475c-.506261 0-.9166667-.4104056-.9166667-.9166667l-.14666663-6.13249997c-.02642446-.5891706.42021493-1.09265502 1.00833333-1.13666666.2917381 0 .5715274.11589252.7778175.32218254.20629.20629001.3221825.48607932.3221825.77781746l-.1283333 6.16000003c.0024471.2446994-.0930486.480219-.2652229.6541151-.1721743.173896-.4067321.2717182-.6514438.2717182z" fill="#fff"/><circle cx="11" cy="11" r="11" stroke="#fff" stroke-linecap="round" stroke-linejoin="round" stroke-width="1.5"/></g></svg>