<?xml version="1.0" encoding="UTF-8"?>
<svg width="24px" height="24px" viewBox="0 0 24 24" version="1.1" xmlns="http://www.w3.org/2000/svg" xmlns:xlink="http://www.w3.org/1999/xlink">
    <title>icone/24x24/message_info_24_white</title>
    <g id="icone/24x24/message_info_24_white" stroke="none" stroke-width="1" fill="none" fill-rule="evenodd">
        <g id="message-info" transform="translate(1.000000, 1.000000)">
            <path d="M13.0625,16.9583333 L8.9375,16.9583333 L8.9375,15.2166667 L9.955,15.2166667 L9.955,10.6333333 L8.9375,10.6333333 L8.9375,8.89166667 L12.1275,8.89166667 L12.1275,15.2166667 L13.0441667,15.2166667 L13.0625,16.9583333 Z M12.3566667,6.41666667 C12.275903,7.11493757 11.6845927,7.64179761 10.9816667,7.64179761 C10.2787406,7.64179761 9.68743032,7.11493757 9.60666667,6.41666667 C9.54546383,5.88751578 9.79334028,5.37019407 10.2440931,5.08634848 C10.694846,4.80250288 11.2684874,4.80250288 11.7192402,5.08634848 C12.1699931,5.37019407 12.4178695,5.88751578 12.3566667,6.41666667 L12.3566667,6.41666667 Z" id="Shape" fill="#FFFFFF"></path>
            <circle id="Oval" stroke="#FFFFFF" stroke-width="1.5" stroke-linecap="round" stroke-linejoin="round" cx="11" cy="11" r="11"></circle>
        </g>
    </g>
</svg>