<svg xmlns="http://www.w3.org/2000/svg" width="24" height="24" viewBox="0 0 24 24">
  <g fill="none" fill-rule="evenodd" transform="translate(1 2)">
    <path stroke="#FFF" stroke-linecap="round" stroke-linejoin="round" stroke-width="1.5" d="M9.10833333,1.75 L0.558333333,16.175 C0.1993341,16.7997906 0.196272982,17.5675545 0.550278733,18.1951879 C0.904284483,18.8228213 1.56292462,19.2173641 2.28333333,19.2333333 L19.3833333,19.2333333 C20.1037421,19.2173641 20.7623822,18.8228213 21.1163879,18.1951879 C21.4703937,17.5675545 21.4673326,16.7997906 21.1083333,16.175 L12.5583333,1.75 C12.1960451,1.14236032 11.5407786,0.770149908 10.8333333,0.770149908 C10.1258881,0.770149908 9.47062158,1.14236032 9.10833333,1.75 Z"/>
    <path fill="#FFF" d="M11.8916667,15.0916667 C11.8916667,15.676168 11.4178347,16.15 10.8333333,16.15 C10.248832,16.15 9.775,15.676168 9.775,15.0916667 C9.775,14.5071653 10.248832,14.0333333 10.8333333,14.0333333 C11.1147021,14.0310912 11.385198,14.1418738 11.5841621,14.3408379 C11.7831262,14.539802 11.8939088,14.8102979 11.8916667,15.0916667 Z M10.8333333,13.0166692 L10.8333333,13.0166692 C10.3949465,13.0177419 10.0306859,12.6789795 10,12.2416667 L9.875,7.08333333 C9.87025433,6.82924269 9.97025747,6.58439154 10.1515274,6.40627416 C10.3327973,6.22815678 10.579365,6.13246434 10.8333333,6.14166667 L10.8333333,6.14166667 C11.3441967,6.14166667 11.7583333,6.55580327 11.7583333,7.06666667 L11.7583333,7.06666667 L11.6333333,12.225 C11.6120667,12.6563085 11.2648409,12.9999173 10.8333333,13.0166692 L10.8333333,13.0166692 Z"/>
  </g>
</svg>
