<svg height="24" viewBox="0 0 24 24" width="24" xmlns="http://www.w3.org/2000/svg"><path d="m15.0023622 0c-.6094488.3692499-1.1055118.80563614-1.5519684 1.23530874.0496062-.23497721.0496062-.47666804-.0496064-.66464981l-.9992126-.38267716c.1771654.34239535.3047244.90634064.3755906 1.35615416-1.1480316-.50352258-2.423622-.78549523-3.7771654-.78549523-4.96063 0-9 3.82005795-9 8.52631578 0 4.70625762 4.03937 8.52631582 9 8.52631582 4.9677166 0 9-3.8200582 9-8.52631582 0-3.08155831-1.7362204-5.79386652-4.3299212-7.29100705.4535432-.55051802 1.580315-.91976792 2.5299212-1.20174055zm-6.0023622 1.51056775c3.656693 0 6.7464566 2.26920848 7.8094488 5.39776214-.5669292.19469539-1.303937.38267716-2.076378.32225438-.992126-.06713621-2.0480314-.50352252-2.9905512-1.93352665-.0779526-.12084537-.2338582-.18798177-.3755904-.18126815-.1133858.01342725-.2267718.07385002-.2905512.16112729-1.3181102 1.75897212-3.323622 2.40348107-5.3149606 2.48404471-1.764567.0671364-3.5007874-.34239543-4.57086622-.81906347 1.04173222-3.14869453 4.14566922-5.43133025 7.80944882-5.43133025zm2.3952756 4.59212591c.9992126 1.26887703 2.1826772 1.80596767 3.2740158 1.88653131.9070866.0671364 1.7291338-.13427261 2.3456692-.34910886.1204724.53037701.1771654 1.08089507.1771654 1.64484037 0 4.29672602-3.656693 7.77438872-8.192126 7.77438872-4.5283464 0-8.19212598-3.4776627-8.19212598-7.77438872 0-.54380444.0566929-1.08089526.17007874-1.59784503 1.21889764.51694977 2.96929124.89962712 4.81181104.83249072 2.0055118-.08056364 4.1244094-.73849983 5.6055118-2.41690851zm-5.492126 2.61831752c-.5031496.04699535-.9.45652718-.9.94662246 0 .52366336.4464566.94662246.9992126.94662246s.9992126-.4229591.9992126-.94662246c0-.63779532-.496063-.94662246-1.0984252-.94662246zm5.1023622.94662246c0 .52366336.4464568.94662246.9992126.94662246.552756 0 .9992126-.4229591.9992126-.94662246 0-.52366358-.4464566-.94662246-.9992126-.94662246-.7015748 0-.992126.54380444-.9992126.94662246zm-4.6417322 2.46390386c-.1913386.0201409-.3614174.1946954-.3614174.3759635 0 .5236634.3188976 1.047327.8362204 1.4904269.5102362.4430998 1.2614174.7854952 2.1614174.7854952.9070866 0 1.6582678-.3423954 2.168504-.7854952.5173228-.4430999.8362204-.9667635.8362204-1.4904269 0-.1946954-.1913386-.3759635-.403937-.3759635zm.5740156.7586407h4.1314962c-.092126.1745545-.2338584.3692499-.4322836.5438044-.3897638.328968-.9425196.5907998-1.6370078.5907998-.6874016 0-1.2401574-.2618318-1.6299212-.5907998-.1984252-.1745545-.3401576-.3692499-.4322836-.5438044z" fill="#1e1169" stroke="#1e1169" stroke-width=".3" transform="translate(3 3)"/></svg>