<?xml version="1.0" encoding="UTF-8"?>
<svg width="799px" height="2464px" viewBox="0 0 799 2464" version="1.1" xmlns="http://www.w3.org/2000/svg" xmlns:xlink="http://www.w3.org/1999/xlink">
    <title>Group 2</title>
    <g id="Maquettes" stroke="none" stroke-width="1" fill="none" fill-rule="evenodd">
        <g id="Desktop-I-04---A-propos" transform="translate(-588.000000, -349.000000)">
            <g id="Group-2" transform="translate(588.880701, 350.659513)">
                <path d="M384.717361,0 C382.476732,98.2968186 321.749358,158.675213 202.53524,181.135183 C23.7140639,214.825137 -65.8717709,459.678772 168.191367,568.381572 C402.254504,677.084371 553.233292,694.340487 545.794307,857.340487 C535.248654,1088.41254 168.109373,1030.38428 172.164074,1289.34049 C175.911449,1528.66907 673.287203,1365.34049 673.287203,1781.36579 C673.287203,1855.97996 662.525929,2041.02025 439.619299,2132.83192" id="Path-3" stroke="#C6C6E4" stroke-width="1.5" stroke-linecap="round" stroke-dasharray="4,6"></path>
                <g id="Abstracts" transform="translate(7.009000, 171.000000)" fill-rule="nonzero">
                    <g id="Group" transform="translate(85.709844, 1.887856)" fill="#58D8B0" opacity="0.6">
                        <g id="abstract/01" transform="translate(16.500000, 16.500000) rotate(7.000000) translate(-16.500000, -16.500000) ">
                            <path d="M15.8955197,4.96582887 C16.7641761,4.92030452 17.5110645,5.55518466 17.6186485,6.40447746 L17.6296128,6.52721328 L18.6658647,26.3000781 C18.7135569,27.210099 18.0145013,27.9864789 17.1044803,28.0341711 C16.2358239,28.0796955 15.4889355,27.4448153 15.3813515,26.5955225 L15.3703872,26.4727867 L14.3341353,6.69992193 C14.2864431,5.78990096 14.9854987,5.01352105 15.8955197,4.96582887 Z" id="Stroke-1" transform="translate(16.500000, 16.500000) rotate(3.000000) translate(-16.500000, -16.500000) "></path>
                            <path d="M26.3000781,14.3341353 C27.210099,14.2864431 27.9864789,14.9854987 28.0341711,15.8955197 C28.0796955,16.7641761 27.4448153,17.5110645 26.5955225,17.6186485 L26.4727867,17.6296128 L6.69992193,18.6658647 C5.78990096,18.7135569 5.01352105,18.0145013 4.96582887,17.1044803 C4.92030452,16.2358239 5.55518466,15.4889355 6.40447746,15.3813515 L6.52721328,15.3703872 L26.3000781,14.3341353 Z" id="Stroke-3" transform="translate(16.500000, 16.500000) rotate(3.000000) translate(-16.500000, -16.500000) "></path>
                        </g>
                    </g>
                    <g id="Group" transform="translate(61.110299, 129.340487)" fill="#FFD213" opacity="0.2">
                        <g id="abstract/01-copy-2" transform="translate(13.500000, 13.500000) rotate(-42.000000) translate(-13.500000, -13.500000) ">
                            <path d="M21.6,4.05 L5.4,4.05 C4.65441559,4.05 4.05,4.65441559 4.05,5.4 L4.05,21.6 C4.05,22.3455844 4.65441559,22.95 5.4,22.95 L21.6,22.95 C22.3455844,22.95 22.95,22.3455844 22.95,21.6 L22.95,5.4 C22.95,4.65441559 22.3455844,4.05 21.6,4.05 Z M20.25,6.75 L20.25,20.25 L6.75,20.25 L6.75,6.75 L20.25,6.75 Z" id="Stroke-1"></path>
                        </g>
                    </g>
                    <g id="Group" transform="translate(9.110299, 51.340487)" fill="#FF507B">
                        <g id="abstract/01-copy" transform="translate(12.000000, 12.000000) rotate(-120.000000) translate(-12.000000, -12.000000) ">
                            <path d="M11.0390793,-1.82894825 C11.3864378,-2.39336708 12.1255794,-2.56932922 12.6899983,-2.22197069 C16.6744767,0.23018454 16.7255598,5.97883716 12.8785462,8.49218889 L12.684546,8.61560284 C10.2158787,10.1347131 10.1725688,13.6873704 12.5108769,15.2526795 L12.6384215,15.3346113 L12.6899983,15.3646293 C16.6744767,17.8167845 16.7255598,23.5654372 12.8785462,26.0787889 L12.7212902,26.1786604 C12.1698558,26.5462833 11.4248126,26.3972747 11.0571896,25.8458402 C10.7079478,25.3219775 10.8249661,24.6233829 11.3103271,24.2396424 L11.3900098,24.1817396 L11.4322376,24.1545457 C13.9013849,22.6354185 13.9447032,19.0828936 11.6058527,17.5175239 L11.4782785,17.4355887 L11.4266182,17.4055192 C7.44284199,14.953347 7.39176794,9.20482805 11.2381776,6.69141365 L11.4322376,6.56794573 C13.9454768,5.02169119 13.9454768,1.36876929 11.4321017,-0.178029307 C10.8676829,-0.525387835 10.6917208,-1.26452942 11.0390793,-1.82894825 Z" id="Stroke-1" transform="translate(12.058580, 11.990080) rotate(-315.000000) translate(-12.058580, -11.990080) "></path>
                        </g>
                    </g>
                    <g id="Group" transform="translate(508.110299, 500.340487)" fill="#FF507B">
                        <g id="abstract/01-copy-3" transform="translate(23.000000, 23.000000) rotate(-151.000000) translate(-23.000000, -23.000000) ">
                            <path d="M11.5852004,10.7845007 C16.7645771,5.60512397 25.160451,5.60512397 30.3378865,10.7841821 C34.660562,15.1051645 34.660562,22.114281 30.3378069,26.437036 C26.6995427,30.0735193 20.8028385,30.0735193 17.165957,26.4366379 C16.2677512,25.538432 16.2677512,24.0821526 17.165957,23.1839467 C18.0641629,22.2857408 19.5204424,22.2857408 20.4186482,23.1839467 C22.2592506,25.0245491 25.24401,25.0245491 27.0855139,23.1839467 C29.6113529,20.6581077 29.6113529,16.5620416 27.0852591,14.0369371 C23.7036936,10.6543118 18.2207717,10.6543118 14.8380955,14.036988 C10.3873015,18.488898 10.3873015,25.7065098 14.8377285,30.1580529 C20.6281253,35.9472885 30.0142779,35.9472885 35.8033504,30.158216 C36.7015563,29.2600101 38.1578358,29.2600101 39.0560416,30.158216 C39.9542475,31.0564218 39.9542475,32.5127013 39.0560416,33.4109072 C31.4706117,40.9963371 19.1721517,40.9963371 11.5849966,33.4107033 C5.33833448,27.1624748 5.33833448,17.032933 11.5852004,10.7845007 Z" id="Stroke-1"></path>
                        </g>
                    </g>
                    <g id="Group" transform="translate(192.110299, 1067.340487)" fill="#24D9F4" opacity="0.5">
                        <g id="abstract/01-copy-6" transform="translate(20.000000, 20.000000) rotate(-151.000000) translate(-20.000000, -20.000000) ">
                            <path d="M6.53984489,10.2824856 C7.27978565,9.54254482 8.45526981,9.50360056 9.24105725,10.1656528 L9.36827202,10.2824856 L17.853,18.767 L25.631728,10.9895924 C26.3716687,10.2496516 27.5471529,10.2107073 28.3329403,10.8727596 L28.4601551,10.9895924 L38.35965,20.8890873 C39.1406986,21.6701359 39.1406986,22.9364658 38.35965,23.7175144 C37.6197093,24.4574552 36.4442251,24.4963994 35.6584377,23.8343472 L35.5312229,23.7175144 L27.045,15.232 L19.267767,23.0104076 C18.5278262,23.7503484 17.352342,23.7892927 16.5665546,23.1272404 L16.4393398,23.0104076 L7.954,14.525 L-0.53122292,23.0104076 C-1.27116368,23.7503484 -2.44664784,23.7892927 -3.23243528,23.1272404 L-3.35965005,23.0104076 C-4.09959081,22.2704669 -4.13853506,21.0949827 -3.4764828,20.3091953 L-3.35965005,20.1819805 L6.53984489,10.2824856 Z" id="Stroke-1" transform="translate(17.500000, 17.000000) rotate(-45.000000) translate(-17.500000, -17.000000) "></path>
                        </g>
                    </g>
                    <g id="Group" transform="translate(470.110299, 1276.340487)" fill="#FFD213">
                        <g id="abstract/01-copy-7" transform="translate(23.000000, 23.000000) rotate(-151.000000) translate(-23.000000, -23.000000) ">
                            <path d="M21.8410966,4.91330853 L8.04109664,12.9633085 C7.33449592,13.3754923 6.9,14.1319658 6.9,14.95 L6.9,31.05 C6.9,31.8680342 7.33449592,32.6245077 8.04109664,33.0366915 L21.8410966,41.0866915 C22.5572304,41.5044362 23.4427696,41.5044362 24.1589034,41.0866915 L37.9589034,33.0366915 C38.6655041,32.6245077 39.1,31.8680342 39.1,31.05 L39.1,14.95 C39.1,14.1319658 38.6655041,13.3754923 37.9589034,12.9633085 L24.1589034,4.91330853 C23.4427696,4.49556382 22.5572304,4.49556382 21.8410966,4.91330853 Z M23,9.56225 L34.5,16.2702 L34.5,29.72865 L23,36.4366 L11.5,29.72865 L11.5,16.2702 L23,9.56225 Z" id="Stroke-1"></path>
                        </g>
                    </g>
                    <g id="Group" transform="translate(755.110299, 1418.340487)" fill="#24D9F4" opacity="0.4">
                        <g id="abstract/01-copy-9" transform="translate(14.000000, 14.000000) rotate(-208.000000) translate(-14.000000, -14.000000) ">
                            <path d="M4.57789142,7.19773991 C5.09584996,6.67978137 5.91868887,6.6525204 6.46874007,7.11595698 L6.55779041,7.19773991 L12.4971,13.1369 L17.9422096,7.69271465 C18.4601681,7.17475612 19.283007,7.14749514 19.8330582,7.61093173 L19.9221086,7.69271465 L26.851755,14.6223611 C27.398489,15.1690951 27.398489,16.0555261 26.851755,16.6022601 C26.3337965,17.1202186 25.5109576,17.1474796 24.9609064,16.684043 L24.871856,16.6022601 L18.9315,10.6624 L13.4874369,16.1072853 C12.9694783,16.6252439 12.1466394,16.6525049 11.5965882,16.1890683 L11.5075379,16.1072853 L5.5678,10.1675 L-0.371856044,16.1072853 C-0.889814579,16.6252439 -1.71265349,16.6525049 -2.26270469,16.1890683 L-2.35175503,16.1072853 C-2.86971357,15.5893268 -2.89697454,14.7664879 -2.43353796,14.2164367 L-2.35175503,14.1273864 L4.57789142,7.19773991 Z" id="Stroke-1" transform="translate(12.250000, 11.900000) rotate(-45.000000) translate(-12.250000, -11.900000) "></path>
                        </g>
                    </g>
                    <g id="Group" transform="translate(499.110299, 1842.340487)" fill="#FF507B" opacity="0.4">
                        <g id="abstract/01-copy-10" transform="translate(23.000000, 23.000000) rotate(-151.000000) translate(-23.000000, -23.000000) ">
                            <path d="M22.2310991,7.33347101 L7.85609913,17.683471 C7.03928538,18.2715769 6.69974344,19.3224689 7.01802841,20.2773239 L12.7680284,37.5273239 C13.0810907,38.4665108 13.9600101,39.1 14.95,39.1 L32.2,39.1 C33.1899899,39.1 34.0689093,38.4665108 34.3819716,37.5273239 L40.1319716,20.2773239 C40.4502566,19.3224689 40.1107146,18.2715769 39.2939009,17.683471 L24.9189009,7.33347101 C24.1161768,6.75550966 23.0338232,6.75550966 22.2310991,7.33347101 Z M23.575,12.0336 L35.23255,20.42745 L30.5417,34.5 L16.60715,34.5 L11.9163,20.42745 L23.575,12.0336 Z" id="Stroke-1"></path>
                        </g>
                    </g>
                    <g id="Group" transform="translate(6.110299, 2100.340487)" fill="#FFD213" opacity="0.6">
                        <g id="abstract/01-copy-13" transform="translate(17.000000, 17.000000) rotate(-151.000000) translate(-17.000000, -17.000000) ">
                            <path d="M7.75482448,9.350633 L7.88149929,9.35911775 C8.81534777,9.45622762 9.49365844,10.2919845 9.39654857,11.225833 C8.90944981,15.9099755 12.3117217,20.1022299 16.9963087,20.5893751 C21.6794729,21.0782309 25.87199,17.6757457 26.3591178,12.9913245 C26.4562276,12.057476 27.2919845,11.3791654 28.225833,11.4762752 C29.1596814,11.5733851 29.8379921,12.409142 29.7408822,13.3429904 C29.0595069,19.8953765 23.194869,24.6548904 16.6439789,23.9710704 C10.0923123,23.2897699 5.33347043,17.4259599 6.01478408,10.874167 C6.10747986,9.98276622 6.87319904,9.32420047 7.75482448,9.350633 Z" id="Stroke-1" transform="translate(17.850000, 16.693149) rotate(-6.000000) translate(-17.850000, -16.693149) "></path>
                        </g>
                    </g>
                    <g id="Group" transform="translate(183.771438, 2249.183911)" fill="#FF507B" opacity="0.3">
                        <g id="abstract/01-copy-12" transform="translate(17.000000, 17.000000) rotate(-151.000000) translate(-17.000000, -17.000000) ">
                            <path d="M15.6386957,-2.59101002 C16.1307869,-3.39060336 17.1779042,-3.63988306 17.9774975,-3.14779181 C23.6221754,0.326094766 23.6945431,8.47001931 18.2446071,12.0306009 L17.9697735,12.2054374 C14.4724948,14.3575103 14.4111391,19.3904413 17.7237423,21.6079626 L17.9044305,21.7240326 L17.9774975,21.7665582 C23.6221754,25.2404448 23.6945431,33.3843693 18.2446071,36.9449509 L18.0218278,37.0864355 C17.2406291,37.6072347 16.1851512,37.3961391 15.664352,36.6149403 C15.1695928,35.8728015 15.3353686,34.8831258 16.0229633,34.3394933 L16.1358472,34.2574645 L16.1956699,34.2189398 C19.6936286,32.0668428 19.7549963,27.0340992 16.4416246,24.8164923 L16.2608945,24.7004174 L16.1877091,24.6578189 C10.5440262,21.1839082 10.4716713,13.0401731 15.9207517,9.47950268 L16.1956699,9.30458979 C19.7560921,7.11406252 19.7560921,1.93908982 16.1954775,-0.252208185 C15.3958841,-0.744299433 15.1466044,-1.79141668 15.6386957,-2.59101002 Z" id="Stroke-1" transform="translate(17.082989, 16.985946) rotate(-315.000000) translate(-17.082989, -16.985946) "></path>
                        </g>
                    </g>
                    <g id="Group" transform="translate(222.110299, 1899.340487)" fill="#24D9F4">
                        <g id="abstract/01-copy-11" transform="translate(17.000000, 17.000000) rotate(-151.000000) translate(-17.000000, -17.000000) ">
                            <path d="M15.9376815,4.276663 L2.76268155,28.076663 C2.13545255,29.2097218 2.95491756,30.6 4.25,30.6 L29.75,30.6 C31.024306,30.6 31.8455855,29.2498244 31.2595905,28.1182478 L18.9345905,4.31824778 C18.3104275,3.1129676 16.5950464,3.08916516 15.9376815,4.276663 Z M17.37485,8.6989 L26.9552,27.2 L7.1332,27.2 L17.37485,8.6989 Z" id="Stroke-1"></path>
                        </g>
                    </g>
                    <g id="Group" transform="translate(504.282788, 1410.764083)" fill="#58D8B0" opacity="0.4">
                        <g id="abstract/01-copy-8" transform="translate(12.000000, 12.000000) rotate(-113.000000) translate(-12.000000, -12.000000) ">
                            <path d="M12.0005099,2.4 C6.69846755,2.4 2.4,6.69846755 2.4,12.0005099 C2.4,17.3024028 6.69831805,21.6 12.0005099,21.6 C17.3027018,21.6 21.6010199,17.3024028 21.6010199,12.0005099 C21.6010199,6.69846755 17.3025523,2.4 12.0005099,2.4 Z M12.0005099,4.8 C15.9770689,4.8 19.2010199,8.02395095 19.2010199,12.0005099 C19.2010199,15.9768293 15.9773085,19.2 12.0005099,19.2 C8.02371135,19.2 4.8,15.9768293 4.8,12.0005099 C4.8,8.02395095 8.02395095,4.8 12.0005099,4.8 Z" id="Stroke-1"></path>
                        </g>
                    </g>
                    <g id="Group" transform="translate(109.034981, 721.915804)" fill="#58D8B0" opacity="0.6">
                        <g id="abstract/01-copy-4" transform="translate(15.000000, 15.000000) rotate(-120.000000) translate(-15.000000, -15.000000) ">
                            <path d="M14.4504725,4.51438989 C15.2401601,4.47300411 15.9191495,5.05016787 16.0169532,5.82225224 L16.0269207,5.93383025 L16.9689679,23.9091619 C17.0123244,24.7364537 16.3768193,25.4422536 15.5495275,25.4856101 C14.7598399,25.5269959 14.0808505,24.9498321 13.9830468,24.1777478 L13.9730793,24.0661697 L13.0310321,6.09083812 C12.9876756,5.26354633 13.6231807,4.55774641 14.4504725,4.51438989 Z" id="Stroke-1" transform="translate(15.000000, 15.000000) rotate(3.000000) translate(-15.000000, -15.000000) "></path>
                            <path d="M23.9091619,13.0310321 C24.7364537,12.9876756 25.4422536,13.6231807 25.4856101,14.4504725 C25.5269959,15.2401601 24.9498321,15.9191495 24.1777478,16.0169532 L24.0661697,16.0269207 L6.09083812,16.9689679 C5.26354633,17.0123244 4.55774641,16.3768193 4.51438989,15.5495275 C4.47300411,14.7598399 5.05016787,14.0808505 5.82225224,13.9830468 L5.93383025,13.9730793 L23.9091619,13.0310321 Z" id="Stroke-3" transform="translate(15.000000, 15.000000) rotate(3.000000) translate(-15.000000, -15.000000) "></path>
                        </g>
                    </g>
                    <g id="Group" transform="translate(570.110299, 653.340487)" fill="#24D9F4" opacity="0.3">
                        <g id="abstract/01-copy-5" transform="translate(23.000000, 23.000000) rotate(-208.000000) translate(-23.000000, -23.000000) ">
                            <path d="M21.5627456,5.78607347 L3.73774562,37.9860735 C2.88914169,39.5190354 3.99782964,41.4 5.75,41.4 L40.25,41.4 C41.9740611,41.4 43.0852039,39.5732918 42.2923871,38.0423352 L25.6173871,5.84233523 C24.7729314,4.21166205 22.4521216,4.17945875 21.5627456,5.78607347 Z M23.50715,11.7691 L36.4688,36.8 L9.6508,36.8 L23.50715,11.7691 Z" id="Stroke-1"></path>
                        </g>
                    </g>
                    <g id="Group" transform="translate(673.110299, 2236.340487)" fill="#58D8B0">
                        <g id="abstract/01-copy-14" transform="translate(23.000000, 23.000000) rotate(-151.000000) translate(-23.000000, -23.000000) ">
                            <path d="M23.0009774,4.6 C12.8387295,4.6 4.6,12.8387295 4.6,23.0009774 C4.6,33.1629388 12.8384429,41.4 23.0009774,41.4 C33.1635118,41.4 41.4019547,33.1629388 41.4019547,23.0009774 C41.4019547,12.8387295 33.1632252,4.6 23.0009774,4.6 Z M23.0009774,9.2 C30.6227154,9.2 36.8019547,15.3792393 36.8019547,23.0009774 C36.8019547,30.6222562 30.6231746,36.8 23.0009774,36.8 C15.3787801,36.8 9.2,30.6222562 9.2,23.0009774 C9.2,15.3792393 15.3792393,9.2 23.0009774,9.2 Z" id="Stroke-1"></path>
                        </g>
                    </g>
                </g>
                <g id="Group" transform="translate(247.026744, 48.827741)" fill="#FFD213" fill-rule="nonzero">
                    <g id="abstract/01-copy-7" transform="translate(25.000000, 25.000000) rotate(-151.000000) translate(-25.000000, -25.000000) ">
                        <path d="M23.7403224,5.34055275 L8.74032244,14.0905527 C7.97227817,14.5385786 7.5,15.3608323 7.5,16.25 L7.5,33.75 C7.5,34.6391677 7.97227817,35.4614214 8.74032244,35.9094473 L23.7403224,44.6594473 C24.5187287,45.1135176 25.4812713,45.1135176 26.2596776,44.6594473 L41.2596776,35.9094473 C42.0277218,35.4614214 42.5,34.6391677 42.5,33.75 L42.5,16.25 C42.5,15.3608323 42.0277218,14.5385786 41.2596776,14.0905527 L26.2596776,5.34055275 C25.4812713,4.88648242 24.5187287,4.88648242 23.7403224,5.34055275 Z M25,10.39375 L37.5,17.685 L37.5,32.31375 L25,39.605 L12.5,32.31375 L12.5,17.685 L25,10.39375 Z" id="Stroke-1"></path>
                    </g>
                </g>
                <g id="Group-14-Copy" transform="translate(32.119299, 2190.340487) rotate(-24.000000) translate(-32.119299, -2190.340487) translate(24.119299, 2129.340487)" fill-rule="nonzero">
                    <g id="Group-13" transform="translate(-0.722461, 0.843975)">
                        <rect id="Rectangle" fill="#2D415B" x="6.61011236" y="0" width="1.68539326" height="8.51890482" rx="0.842696629"></rect>
                        <polyline id="Path" fill="#59598D" points="2.22808989 11.9895698 4.41910112 5.0482399 10.6550562 5.0482399 12.6775281 11.9895698"></polyline>
                        <polygon id="Path" fill="#4B4B77" points="10.1494382 4.8904824 8.29550562 4.8904824 10.3179775 11.8318123 12.1719101 11.8318123"></polygon>
                        <path d="M6.94719101,4.41720991 L4.75617978,11.3585398 L1.89101124,11.3585398 L3.34382022,7.2915515 C3.88146067,5.58777053 5.04775281,4.41720991 6.94719101,4.41720991 Z" id="Path" fill="#E9FFFF" opacity="0.15"></path>
                        <path d="M12.6775281,11.2007823 L2.18595506,11.2007823 L0.669101124,17.3533246 L2.18595506,114.606089 C2.18595506,117.240639 3.89157303,119.450821 6.19550562,120.064498 C6.27134831,120.085007 6.34719101,120.103937 6.4247191,120.121291 L6.4247191,120.121291 C6.61522927,120.162494 6.80830127,120.192526 7.00280899,120.211213 C7.13539326,120.223833 7.27022472,120.231721 7.40730337,120.231721 L7.45280899,120.231721 C7.58988764,120.231721 7.7247191,120.224885 7.85730337,120.211213 C8.05181109,120.192526 8.24488309,120.162494 8.43539326,120.121291 L8.43539326,120.121291 C8.51292135,120.103937 8.58876404,120.085007 8.66460674,120.064498 C10.9685393,119.450821 12.6741573,117.240639 12.6741573,114.606089 L14.194382,17.3533246 L12.6775281,11.2007823 Z" id="Path" fill="#59598D"></path>
                        <path d="M8.78764045,120.121291 L8.78764045,120.121291 C8.71011236,120.103937 8.63426966,120.085007 8.55842697,120.064498 C6.25449438,119.450821 4.5488764,117.240639 4.5488764,114.606089 L3.03202247,17.3533246 L4.5488764,11.2007823 L2.69494382,11.2007823 L1.17808989,17.3533246 L2.69494382,114.606089 C2.69494382,117.240639 4.4005618,119.450821 6.70449438,120.064498 C6.78033708,120.085007 6.85617978,120.103937 6.93370787,120.121291 L6.93370787,120.121291 C7.12421803,120.162494 7.31729003,120.192526 7.51179775,120.211213 C7.64438202,120.223833 7.77921348,120.231721 7.91629213,120.231721 L7.95842697,120.231721 C8.09550562,120.231721 8.23033708,120.224885 8.36292135,120.211213 C8.53280055,120.194555 8.70158828,120.169277 8.86853933,120.135489 L8.78764045,120.121291 Z" id="Path" fill="#E9FFFF" opacity="0.15"></path>
                        <path d="M12.5089888,11.2007823 L9.98089888,11.2007823 L11.4977528,17.3533246 L9.98089888,114.606089 C9.98089888,117.229596 8.29550562,119.43189 6,120.05661 L6.02865169,120.064498 C6.10449438,120.085007 6.18033708,120.103937 6.25786517,120.121291 L6.25786517,120.121291 C6.44837533,120.162494 6.64144734,120.192526 6.83595506,120.211213 C6.96853933,120.223833 7.10337079,120.231721 7.24044944,120.231721 L7.28426966,120.231721 C7.42134831,120.231721 7.55617978,120.224885 7.68876404,120.211213 C7.88327177,120.192526 8.07634377,120.162494 8.26685393,120.121291 L8.26685393,120.121291 C8.34438202,120.103937 8.42022472,120.085007 8.49606742,120.064498 C10.8,119.450821 12.505618,117.240639 12.505618,114.606089 L14.0258427,17.3533246 L12.5089888,11.2007823 Z" id="Path" fill="#4B4B77"></path>
                        <path d="M2.8752809,11.3790482 L1.58258427,11.0209387 L2.90224719,6.82616688 C3.50854401,4.93387042 5.36583498,3.63545816 7.47640449,3.62842243 L7.52865169,3.62842243 C9.67666578,3.63194032 11.5579487,4.9771693 12.1264045,6.91608866 L13.3264045,11.0351369 L12.0252809,11.3680052 L10.8235955,7.2473794 C10.4161876,5.85843705 9.06911263,4.89437151 7.53033708,4.8904824 L7.47808989,4.8904824 C5.96571959,4.89653906 4.63516728,5.82693266 4.2,7.18269883 L2.8752809,11.3790482 Z" id="Path" fill="#2D415B"></path>
                        <rect id="Rectangle" fill="#5AD7AF" x="0.800561798" y="24.9824772" width="13.247191" height="1.57757497"></rect>
                        <path d="M7.45280899,120.864329 L6.73651685,120.864329 L6.73651685,120.815424 C6.60674157,120.79807 6.47865169,120.777562 6.35393258,120.752321 L6.35393258,120.752321 L6.27303371,120.734967 C6.18539326,120.716037 6.10449438,120.69395 6.01348315,120.670287 C3.36741573,119.965111 1.51685393,117.470965 1.51685393,114.606089 L1.42108547e-14,17.2854889 L1.65,10.5697523 L13.2134831,10.5697523 L14.8685393,17.2854889 L13.3516854,114.621864 C13.3516854,117.478853 11.4977528,119.972999 8.85337079,120.678175 C8.76910112,120.700261 8.68483146,120.722347 8.59550562,120.741278 L8.51123596,120.758631 C8.38483146,120.783872 8.25674157,120.805958 8.12865169,120.821734 L8.12865169,120.869061 L7.45280899,120.864329 Z M6.54269663,119.498149 L6.57977528,119.498149 C6.7430733,119.5335 6.90856088,119.559317 7.0752809,119.57545 C7.18483146,119.586493 7.2994382,119.591226 7.41235955,119.592803 L7.45280899,119.592803 C7.57078652,119.592803 7.68539326,119.592803 7.78988764,119.57545 C7.95661116,119.559341 8.12210034,119.533524 8.28539326,119.498149 L8.34101124,119.485528 L8.48258427,119.449244 C10.5573034,118.897093 12.0050562,116.90146 12.0050562,114.596623 L13.5219101,17.4180052 L12.141573,11.8318123 L2.72191011,11.8318123 L1.34325843,17.4211604 L2.86011236,114.599778 C2.86011236,116.914081 4.30786517,118.908136 6.38089888,119.460287 L6.54269663,119.498149 Z" id="Shape" fill="#2D415B"></path>
                        <path d="M4.80337079,75.4869622 L4.98707865,86.1135072 L5.28033708,103.059817 L5.34775281,106.959583 C5.34775281,107.264055 5.85337079,107.264055 5.85337079,106.959583 L5.66966292,96.3330378 L5.37640449,79.3867275 L5.30898876,75.4869622 C5.30898876,75.1824902 4.80337079,75.1824902 4.80337079,75.4869622 Z" id="Path" fill="#FFFFFF"></path>
                        <path d="M4.5,57.9758801 L4.7241573,70.9119948 C4.7241573,71.2164668 5.22977528,71.2164668 5.22977528,70.9119948 L5.00561798,57.9758801 C5.00561798,57.6714081 4.5,57.6714081 4.5,57.9758801 Z" id="Path" fill="#FFFFFF"></path>
                        <path d="M4.17640449,39.2043155 L4.42247191,53.4498175 L4.45786517,55.4517601 C4.45786517,55.7562321 4.96348315,55.7562321 4.96348315,55.4517601 L4.71741573,41.2062581 L4.68202247,39.2043155 C4.68202247,38.8998435 4.17640449,38.8998435 4.17640449,39.2043155 Z" id="Path" fill="#FFFFFF"></path>
                        <path d="M3.99775281,28.8696219 L4.13089888,36.5997392 C4.13089888,36.9042112 4.63651685,36.9042112 4.63651685,36.5997392 L4.50337079,28.8696219 C4.50337079,28.5651499 3.99775281,28.5651499 3.99775281,28.8696219 Z" id="Path" fill="#FFFFFF"></path>
                    </g>
                </g>
                <g id="Group-11-Copy-2" transform="translate(537.619299, 807.340487) rotate(-105.000000) translate(-537.619299, -807.340487) translate(529.119299, 742.340487)" fill-rule="nonzero">
                    <rect id="Rectangle" fill="#5AD7AF" x="5.88029177" y="0.586911752" width="10" height="128" rx="5"></rect>
                    <path d="M10.6970101,1.01796707 L10.6970101,1.01796707 C10.4676109,1.01796707 10.2385841,1.04009363 10.0120786,1.08360014 C12.1039365,1.48642701 13.6421723,3.64876246 13.6422156,6.18657172 L13.6422156,122.849362 C13.6415995,125.386919 12.1036373,127.54887 10.0120786,127.952334 C10.2385841,127.99584 10.4676109,128.017967 10.6970101,128.017967 L10.6970101,128.017967 C13.0801566,128.017967 15.0120786,125.703904 15.0120786,122.849362 L15.0120786,6.18657172 C15.0120786,3.33203019 13.0801566,1.01796707 10.6970101,1.01796707 Z" id="Path" fill="#49B08F"></path>
                    <path d="M9.892611,128.596664 L9.892611,128.596664 C10.1220102,128.596664 10.351037,128.574363 10.5775425,128.530514 C8.48568464,128.124515 6.94744878,125.945153 6.94740552,123.387361 L6.94740552,5.80596586 C6.94802157,3.24842856 8.48598386,1.06945444 10.5775425,0.662813406 C10.351037,0.618964326 10.1220102,0.596663535 9.892611,0.596663535 L9.892611,0.596663535 C7.50946448,0.596663535 5.57754251,2.92894763 5.57754251,5.80596586 L5.57754251,123.387361 C5.57754251,126.264379 7.50946448,128.596664 9.892611,128.596664 Z" id="Path" fill="#A9F9DF"></path>
                    <path d="M10.574407,129.221834 C7.53829763,129.218189 5.07792103,126.665763 5.07440701,123.516065 L5.07440701,5.92760332 C5.07440701,2.77639399 7.53684088,0.221834087 10.574407,0.221834087 C13.6119731,0.221834087 16.074407,2.77639399 16.074407,5.92760332 L16.074407,123.516065 C16.070893,126.665763 13.6105164,129.218189 10.574407,129.221834 Z M10.574407,1.21414178 C8.06620595,1.21687645 6.0335648,3.32556397 6.03092875,5.92760332 L6.03092875,123.516065 C6.03092875,126.119238 8.06511329,128.229526 10.574407,128.229526 C13.0837007,128.229526 15.1178853,126.119238 15.1178853,123.516065 L15.1178853,5.92760332 C15.1152492,3.32556397 13.0826081,1.21687645 10.574407,1.21414178 Z" id="Shape" fill="#385868"></path>
                    <path d="M5.66837431,48.205856 L5.12783377,48.205856 C2.66494231,48.205856 0.668374306,45.7642902 0.668374306,42.7524661 L0.668374306,14.6592458 C0.668374306,11.6474218 2.66494231,9.20585597 5.12783377,9.20585597 L5.66837431,9.20585597 L5.66837431,48.205856 Z M4.58729322,10.5807712 C2.95135686,10.9050377 1.74931786,12.6325802 1.74945539,14.6592458 L1.74945539,42.7524661 C1.74931786,44.7791317 2.95135686,46.5066742 4.58729322,46.8309407 L4.58729322,10.5807712 Z" id="Shape" fill="#385868"></path>
                    <rect id="Rectangle" fill="#385868" x="5.51200886" y="11.5275867" width="10" height="1"></rect>
                    <rect id="Rectangle" fill="#385868" x="5.21382926" y="43.4276323" width="10" height="1"></rect>
                </g>
            </g>
        </g>
    </g>
</svg>