<svg xmlns="http://www.w3.org/2000/svg" width="61" height="92" viewBox="0 0 61 92">
  <g fill="none" transform="rotate(32 32.017 88.02)">
    <rect width="8" height="105" x="4.622" fill="#FF507D" rx="4"/>
    <path fill="#D3325B" d="M8.54813063,0.318128832 L8.54813063,0.318128832 C8.36461128,0.318128832 8.18138981,0.33642245 8.00018543,0.372392398 C9.67367172,0.705438232 10.9042604,2.49319589 10.904295,4.59138465 L10.904295,101.044873 C10.9038022,103.142853 9.67343235,104.930293 8.00018543,105.263865 C8.18138981,105.299835 8.36461128,105.318129 8.54813063,105.318129 L8.54813063,105.318129 C10.4546479,105.318129 12.0001854,103.404927 12.0001854,101.044873 L12.0001854,4.59138465 C12.0001854,2.23133063 10.4546479,0.318128832 8.54813063,0.318128832 Z"/>
    <path fill="#FDAABF" d="M7.84825741,105.21179 L7.84825741,105.21179 C8.03177676,105.21179 8.21499823,105.193497 8.39620261,105.157527 C6.72271632,104.824481 5.49212763,103.036723 5.49209302,100.938535 L5.49209302,4.48504625 C5.49258586,2.38706643 6.7229557,0.599626722 8.39620261,0.266053998 C8.21499823,0.23008405 8.03177676,0.211790432 7.84825741,0.211790432 L7.84825741,0.211790432 C5.94174019,0.211790432 4.39620261,2.12499223 4.39620261,4.48504625 L4.39620261,100.938535 C4.39620261,103.298589 5.94174019,105.21179 7.84825741,105.21179 Z"/>
    <path fill="#621E2F" d="M8.46315365,106.188984 C5.97906416,106.185988 3.96602876,104.088646 3.96315365,101.500522 L3.96315365,4.87744522 C3.96315365,2.28807941 5.97787228,0.18898368 8.46315365,0.18898368 C10.948435,0.18898368 12.9631537,2.28807941 12.9631537,4.87744522 L12.9631537,101.500522 C12.9602785,104.088646 10.9472431,106.185988 8.46315365,106.188984 Z M8.46315365,1.0043683 C6.41098915,1.00661539 4.74791912,2.73933537 4.74576235,4.87744522 L4.74576235,101.500522 C4.74576235,103.639563 6.41009516,105.373599 8.46315365,105.373599 C10.5162121,105.373599 12.180545,103.639563 12.180545,101.500522 L12.180545,4.87744522 C12.1783882,2.73933537 10.5153182,1.00661539 8.46315365,1.0043683 Z"/>
    <path fill="#621E2F" d="M4,39.0314366 L3.56756757,39.0314366 C1.59725441,39.0314366 -9.09494702e-13,37.0281006 -9.09494702e-13,34.5568603 L-9.09494702e-13,11.5060129 C-9.09494702e-13,9.03477265 1.59725441,7.03143662 3.56756757,7.03143662 L4,7.03143662 L4,39.0314366 Z M3.13513514,8.15957221 C1.82638604,8.42563702 0.864754841,9.8431078 0.864864865,11.5060129 L0.864864865,34.5568603 C0.864754841,36.2197654 1.82638604,37.6372362 3.13513514,37.903301 L3.13513514,8.15957221 Z"/>
    <rect width="7" height="1" x="4.596" y="8.699" fill="#621E2F"/>
    <rect width="8" height="1" x="4.836" y="35.358" fill="#621E2F"/>
  </g>
</svg>
