<svg xmlns="http://www.w3.org/2000/svg" width="74" height="100" viewBox="0 0 74 100">
  <g fill="none" transform="rotate(-36 5.694 11.063)">
    <rect width="1.685" height="8.519" x="6.61" fill="#2D415B" rx=".843"/>
    <polyline fill="#59598D" points="2.228 11.99 4.419 5.048 10.655 5.048 12.678 11.99"/>
    <polygon fill="#4B4B77" points="10.149 4.89 8.296 4.89 10.318 11.832 12.172 11.832"/>
    <path fill="#E9FFFF" d="M6.94719101,4.41720991 L4.75617978,11.3585398 L1.89101124,11.3585398 L3.34382022,7.2915515 C3.88146067,5.58777053 5.04775281,4.41720991 6.94719101,4.41720991 Z" opacity=".15"/>
    <path fill="#59598D" d="M12.6775281,11.2007823 L2.18595506,11.2007823 L0.669101124,17.3533246 L2.18595506,114.606089 C2.18595506,117.240639 3.89157303,119.450821 6.19550562,120.064498 C6.27134831,120.085007 6.34719101,120.103937 6.4247191,120.121291 L6.4247191,120.121291 C6.61522927,120.162494 6.80830127,120.192526 7.00280899,120.211213 C7.13539326,120.223833 7.27022472,120.231721 7.40730337,120.231721 L7.45280899,120.231721 C7.58988764,120.231721 7.7247191,120.224885 7.85730337,120.211213 C8.05181109,120.192526 8.24488309,120.162494 8.43539326,120.121291 L8.43539326,120.121291 C8.51292135,120.103937 8.58876404,120.085007 8.66460674,120.064498 C10.9685393,119.450821 12.6741573,117.240639 12.6741573,114.606089 L14.194382,17.3533246 L12.6775281,11.2007823 Z"/>
    <path fill="#E9FFFF" d="M8.78764045,120.121291 L8.78764045,120.121291 C8.71011236,120.103937 8.63426966,120.085007 8.55842697,120.064498 C6.25449438,119.450821 4.5488764,117.240639 4.5488764,114.606089 L3.03202247,17.3533246 L4.5488764,11.2007823 L2.69494382,11.2007823 L1.17808989,17.3533246 L2.69494382,114.606089 C2.69494382,117.240639 4.4005618,119.450821 6.70449438,120.064498 C6.78033708,120.085007 6.85617978,120.103937 6.93370787,120.121291 L6.93370787,120.121291 C7.12421803,120.162494 7.31729003,120.192526 7.51179775,120.211213 C7.64438202,120.223833 7.77921348,120.231721 7.91629213,120.231721 L7.95842697,120.231721 C8.09550562,120.231721 8.23033708,120.224885 8.36292135,120.211213 C8.53280055,120.194555 8.70158828,120.169277 8.86853933,120.135489 L8.78764045,120.121291 Z" opacity=".15"/>
    <path fill="#4B4B77" d="M12.5089888,11.2007823 L9.98089888,11.2007823 L11.4977528,17.3533246 L9.98089888,114.606089 C9.98089888,117.229596 8.29550562,119.43189 6,120.05661 L6.02865169,120.064498 C6.10449438,120.085007 6.18033708,120.103937 6.25786517,120.121291 L6.25786517,120.121291 C6.44837533,120.162494 6.64144734,120.192526 6.83595506,120.211213 C6.96853933,120.223833 7.10337079,120.231721 7.24044944,120.231721 L7.28426966,120.231721 C7.42134831,120.231721 7.55617978,120.224885 7.68876404,120.211213 C7.88327177,120.192526 8.07634377,120.162494 8.26685393,120.121291 L8.26685393,120.121291 C8.34438202,120.103937 8.42022472,120.085007 8.49606742,120.064498 C10.8,119.450821 12.505618,117.240639 12.505618,114.606089 L14.0258427,17.3533246 L12.5089888,11.2007823 Z"/>
    <path fill="#2D415B" d="M2.8752809,11.3790482 L1.58258427,11.0209387 L2.90224719,6.82616688 C3.50854401,4.93387042 5.36583498,3.63545816 7.47640449,3.62842243 L7.52865169,3.62842243 C9.67666578,3.63194032 11.5579487,4.9771693 12.1264045,6.91608866 L13.3264045,11.0351369 L12.0252809,11.3680052 L10.8235955,7.2473794 C10.4161876,5.85843705 9.06911263,4.89437151 7.53033708,4.8904824 L7.47808989,4.8904824 C5.96571959,4.89653906 4.63516728,5.82693266 4.2,7.18269883 L2.8752809,11.3790482 Z"/>
    <rect width="13.247" height="1.578" x=".801" y="24.982" fill="#5AD7AF"/>
    <path fill="#2D415B" d="M7.45280899,120.864329 L6.73651685,120.864329 L6.73651685,120.815424 C6.60674157,120.79807 6.47865169,120.777562 6.35393258,120.752321 L6.35393258,120.752321 L6.27303371,120.734967 C6.18539326,120.716037 6.10449438,120.69395 6.01348315,120.670287 C3.36741573,119.965111 1.51685393,117.470965 1.51685393,114.606089 L4.54747351e-13,17.2854889 L1.65,10.5697523 L13.2134831,10.5697523 L14.8685393,17.2854889 L13.3516854,114.621864 C13.3516854,117.478853 11.4977528,119.972999 8.85337079,120.678175 C8.76910112,120.700261 8.68483146,120.722347 8.59550562,120.741278 L8.51123596,120.758631 C8.38483146,120.783872 8.25674157,120.805958 8.12865169,120.821734 L8.12865169,120.869061 L7.45280899,120.864329 Z M6.54269663,119.498149 L6.57977528,119.498149 C6.7430733,119.5335 6.90856088,119.559317 7.0752809,119.57545 C7.18483146,119.586493 7.2994382,119.591226 7.41235955,119.592803 L7.45280899,119.592803 C7.57078652,119.592803 7.68539326,119.592803 7.78988764,119.57545 C7.95661116,119.559341 8.12210034,119.533524 8.28539326,119.498149 L8.34101124,119.485528 L8.48258427,119.449244 C10.5573034,118.897093 12.0050562,116.90146 12.0050562,114.596623 L13.5219101,17.4180052 L12.141573,11.8318123 L2.72191011,11.8318123 L1.34325843,17.4211604 L2.86011236,114.599778 C2.86011236,116.914081 4.30786517,118.908136 6.38089888,119.460287 L6.54269663,119.498149 Z"/>
    <path fill="#FFF" d="M4.80337079 75.4869622L4.98707865 86.1135072 5.28033708 103.059817 5.34775281 106.959583C5.34775281 107.264055 5.85337079 107.264055 5.85337079 106.959583L5.66966292 96.3330378 5.37640449 79.3867275 5.30898876 75.4869622C5.30898876 75.1824902 4.80337079 75.1824902 4.80337079 75.4869622zM4.5 57.9758801L4.7241573 70.9119948C4.7241573 71.2164668 5.22977528 71.2164668 5.22977528 70.9119948L5.00561798 57.9758801C5.00561798 57.6714081 4.5 57.6714081 4.5 57.9758801zM4.17640449 39.2043155L4.42247191 53.4498175 4.45786517 55.4517601C4.45786517 55.7562321 4.96348315 55.7562321 4.96348315 55.4517601L4.71741573 41.2062581 4.68202247 39.2043155C4.68202247 38.8998435 4.17640449 38.8998435 4.17640449 39.2043155zM3.99775281 28.8696219L4.13089888 36.5997392C4.13089888 36.9042112 4.63651685 36.9042112 4.63651685 36.5997392L4.50337079 28.8696219C4.50337079 28.5651499 3.99775281 28.5651499 3.99775281 28.8696219z"/>
  </g>
</svg>
