<?xml version="1.0" encoding="UTF-8"?>
<svg width="363px" height="42px" viewBox="0 0 363 42" version="1.1" xmlns="http://www.w3.org/2000/svg" xmlns:xlink="http://www.w3.org/1999/xlink">
    <title>Group</title>
    <g id="Maquettes---No-Illus" stroke="none" stroke-width="1" fill="none" fill-rule="evenodd">
        <g id="Desktop-I-04---A-propos" transform="translate(-775.000000, -251.000000)" fill="#24D9F4" fill-rule="nonzero">
            <g id="Group" transform="translate(775.354494, 250.999795)">
                <g transform="translate(337.645506, 1.000205)" id="abstract/01-copy-16">
                    <g transform="translate(12.000000, 12.000000) rotate(-175.000000) translate(-12.000000, -12.000000) ">
                        <path d="M13.4106846,1.62492236 L21.4313597,7.4522839 C22.2725295,8.06342952 22.624509,9.1467111 22.3032107,10.1355655 L19.2395854,19.5644345 C18.9182872,20.5532889 17.9967928,21.2227937 16.9570498,21.2227937 L7.04295019,21.2227937 C6.00320716,21.2227937 5.08171282,20.5532889 4.76041455,19.5644345 L1.69678929,10.1355655 C1.37549102,9.1467111 1.72747054,8.06342952 2.56864032,7.4522839 L10.5893154,1.62492236 C11.4304852,1.01377674 12.5695148,1.01377674 13.4106846,1.62492236 Z M12,4.308 L4.6842,9.6228 L7.4784,18.2226 L16.521,18.2226 L19.3152,9.6228 L12,4.308 Z" id="Polygon-Copy-2"></path>
                    </g>
                </g>
                <g transform="translate(2.645506, 22.000205)" id="abstract/01-copy-8" opacity="0.4">
                    <g transform="translate(8.500000, 8.500000) rotate(-113.000000) translate(-8.500000, -8.500000) ">
                        <path d="M7.96884077,2.1383315 L1.38134077,14.0383315 C1.06772628,14.6048609 1.47745878,15.3 2.125,15.3 L14.875,15.3 C15.512153,15.3 15.9227928,14.6249122 15.6297952,14.0591239 L9.46729525,2.15912389 C9.15521377,1.5564838 8.29752321,1.54458258 7.96884077,2.1383315 Z M8.687425,4.34945 L13.4776,13.6 L3.5666,13.6 L8.687425,4.34945 Z" id="Stroke-1-Copy-2"></path>
                    </g>
                </g>
            </g>
        </g>
    </g>
</svg>