<svg xmlns="http://www.w3.org/2000/svg" width="127" height="129" viewBox="0 0 127 129">
  <g fill="none">
    <ellipse cx="63.5" cy="65" fill="#28DCF0" rx="62.5" ry="63.5"/>
    <path fill="#92CEFF" d="M6.91073374,65.0032756 C6.9109361,31.1581974 33.3420472,3.26141248 67,1.58190329 C65.9650278,1.52949435 64.9213584,1.50328988 63.8689918,1.50328988 C41.1283776,1.27130358 20.0156425,13.3227153 8.57813252,33.0639997 C-2.85937751,52.8052842 -2.85937751,77.1947158 8.57813252,96.9360003 C20.0156425,116.677285 41.1283776,128.728696 63.8689918,128.49671 C64.9170098,128.49671 65.9606792,128.470506 67,128.418097 C33.3445657,126.738713 6.91441252,98.8458211 6.91073374,65.0032756 Z"/>
    <path fill="#3D3634" d="M63.5,128.5 C28.4299184,128.5 0,99.846224 0,64.5 C0,29.153776 28.4299184,0.5 63.5,0.5 C98.5700816,0.5 127,29.153776 127,64.5 C126.960891,99.8298842 98.5538695,128.460583 63.5,128.5 Z M63.5,2.45712689 C29.4988023,2.45712689 1.93538555,30.2375784 1.93538555,64.5065021 C1.93538555,98.7754257 29.4988023,126.555877 63.5,126.555877 C97.5011977,126.555877 125.064614,98.7754257 125.064614,64.5065021 C125.029056,30.2524341 97.4864581,2.49296503 63.5,2.45712689 Z"/>
    <ellipse cx="64" cy="64" fill="#E8E8E8" rx="52" ry="52.5"/>
    <path fill="#DADADA" d="M16.1533994,70.0202828 C16.1616971,47.2337933 30.4441008,27.0313896 51.5600117,19.9377697 C72.6759225,12.8441498 95.8462021,20.4648039 109,38.8296559 C100.062519,21.2705633 82.2830963,10.3290403 62.9690243,10.5020213 C43.6549523,10.6750023 26.0645941,21.9333047 17.4275361,39.6497987 C8.79047821,57.3662927 10.5638278,78.5521329 22.0187432,94.5 C18.1534744,86.9498737 16.1403,78.5476487 16.1533994,70.0202828 Z"/>
    <path fill="#3D3634" d="M61.5 27.5C63.5 27.5 63.5 24.5 61.5 24.5 59.5 24.5 59.5 27.5 61.5 27.5zM66.5 110.5C68.5 110.5 68.5 107.5 66.5 107.5 64.5 107.5 64.5 110.5 66.5 110.5zM105.5 69.5C107.5 69.5 107.5 66.5 105.5 66.5 103.5 66.5 103.5 69.5 105.5 69.5zM21.5 68.5C23.5 68.5 23.5 65.5 21.5 65.5 19.5 65.5 19.5 68.5 21.5 68.5z"/>
    <rect width="6" height="23" x="61" y="44.5" fill="#E8E8E8" rx="3"/>
    <rect width="6" height="23" x="61" y="44.5" fill="#3D3634" rx="3"/>
    <circle cx="63" cy="67.5" r="6" fill="#E8E8E8"/>
    <circle cx="63" cy="66.5" r="6" fill="#3D3634"/>
    <path fill="#3D3634" d="M40.4036881,84.2277597 L85.8107478,54.7247004 L92.2505809,50.5429624 C94.0033184,49.407736 92.3621784,46.6241864 90.5963119,47.7722403 L45.1892522,77.2752996 L38.7494191,81.4570376 C36.9966816,82.592264 38.6378216,85.3758136 40.4036881,84.2277597 Z"/>
    <g opacity=".4" transform="translate(12 11.5)">
      <ellipse cx="52.402" cy="51.712" fill="#55E0FF" opacity=".1" rx="52.363" ry="51.627"/>
      <path fill="#FFF" d="M62.6086957.758742138L9.61956522 81.669434C6.73585482 76.752685 4.64278606 71.4108418 3.4173913 65.8405031L46.0434783.771823899C51.5331016-.128589099 57.1321158-.128589099 62.6217391.771823899L62.6086957.758742138zM77.3608696 6.49509434L19.3695652 91.245283C17.6140682 89.6805798 15.9667838 87.9978658 14.4391304 86.208805L70.7804348 3.87220126C73.0309342 4.59511454 75.2295361 5.47145445 77.3608696 6.49509434zM103.513043 39.683522L103.513043 39.683522 60.2413043 102.927296 60.2413043 102.927296C55.5358957 103.605161 50.761585 103.653551 46.0434783 103.071195L98.3282609 26.6606289C100.648961 30.7400986 102.39387 35.1228784 103.513043 39.683522L103.513043 39.683522z"/>
    </g>
    <path fill="#3D3634" d="M64.5,118.5 C35.5050506,118.5 12,94.7710917 12,65.5 C12,36.2289083 35.5050506,12.5 64.5,12.5 C93.4949494,12.5 117,36.2289083 117,65.5 C116.968162,94.7577679 93.4817512,118.467858 64.5,118.5 L64.5,118.5 Z M64.5,14.4440029 C36.5685651,14.4440029 13.9256633,37.3025514 13.9256633,65.5 C13.9256633,93.6974486 36.5685651,116.555997 64.5,116.555997 C92.4314349,116.555997 115.074337,93.6974486 115.074337,65.5 C115.046038,37.313344 92.4207403,14.4696687 64.5,14.4375229 L64.5,14.4440029 Z"/>
  </g>
</svg>
