<?xml version="1.0" encoding="UTF-8"?>
<svg width="740px" height="2467px" viewBox="0 0 740 2467" version="1.1" xmlns="http://www.w3.org/2000/svg" xmlns:xlink="http://www.w3.org/1999/xlink">
    <title>Group 2</title>
    <g id="Maquettes---No-Illus" stroke="none" stroke-width="1" fill="none" fill-rule="evenodd">
        <g id="Desktop-I-04---A-propos" transform="translate(-584.000000, -349.000000)">
            <g id="Group-2" transform="translate(584.607695, 350.659513)">
                <g id="Abstracts" transform="translate(0.000000, 112.563247)" fill-rule="nonzero">
                    <g id="Group" transform="translate(65.991851, 6.324608)" fill="#FFCE00" opacity="0.6">
                        <g id="abstract/01" transform="translate(16.500000, 16.500000) rotate(-33.000000) translate(-16.500000, -16.500000) ">
                            <path d="M16.2939262,4.15087879 L3.50642621,27.2508788 C2.89764512,28.3506124 3.69300822,29.7 4.95,29.7 L29.7,29.7 C30.9368264,29.7 31.7339507,28.3895354 31.1651908,27.2912405 L19.2026908,4.19124049 C18.5968856,3.02140973 16.9319568,2.99830737 16.2939262,4.15087879 Z M17.688825,8.44305 L26.9874,26.4 L7.7484,26.4 L17.688825,8.44305 Z" id="Stroke-1"></path>
                        </g>
                    </g>
                    <g id="Group" transform="translate(18.392305, 134.777240)" fill="#D1DF4C" opacity="0.2">
                        <g id="abstract/01-copy-2" transform="translate(13.500000, 13.500000) rotate(-42.000000) translate(-13.500000, -13.500000) ">
                            <path d="M21.6,4.05 L5.4,4.05 C4.65441559,4.05 4.05,4.65441559 4.05,5.4 L4.05,21.6 C4.05,22.3455844 4.65441559,22.95 5.4,22.95 L21.6,22.95 C22.3455844,22.95 22.95,22.3455844 22.95,21.6 L22.95,5.4 C22.95,4.65441559 22.3455844,4.05 21.6,4.05 Z M20.25,6.75 L20.25,20.25 L6.75,20.25 L6.75,6.75 L20.25,6.75 Z" id="Stroke-1-Copy"></path>
                        </g>
                    </g>
                    <g id="Group" transform="translate(4.392305, 48.777240)" fill="#24D9F4">
                        <g id="abstract/01-copy" transform="translate(12.000000, 12.000000) rotate(-120.000000) translate(-12.000000, -12.000000) ">
                            <path d="M13.4106846,1.62492236 L21.4313597,7.4522839 C22.2725295,8.06342952 22.624509,9.1467111 22.3032107,10.1355655 L19.2395854,19.5644345 C18.9182872,20.5532889 17.9967928,21.2227937 16.9570498,21.2227937 L7.04295019,21.2227937 C6.00320716,21.2227937 5.08171282,20.5532889 4.76041455,19.5644345 L1.69678929,10.1355655 C1.37549102,9.1467111 1.72747054,8.06342952 2.56864032,7.4522839 L10.5893154,1.62492236 C11.4304852,1.01377674 12.5695148,1.01377674 13.4106846,1.62492236 Z M12,4.308 L4.6842,9.6228 L7.4784,18.2226 L16.521,18.2226 L19.3152,9.6228 L12,4.308 Z" id="Polygon-Copy-2"></path>
                        </g>
                    </g>
                    <g id="Group" transform="translate(459.392305, 410.777240)" fill="#D1DF4C">
                        <g id="abstract/01-copy-3" transform="translate(23.000000, 23.000000) rotate(-151.000000) translate(-23.000000, -23.000000) ">
                            <path d="M23,4.6 C33.1620394,4.6 41.4,12.8379606 41.4,23 C41.4,33.1620394 33.1620394,41.4 23,41.4 C12.8379606,41.4 4.6,33.1620394 4.6,23 C4.6,12.8379606 12.8379606,4.6 23,4.6 Z M23,10.35 C16.0135979,10.35 10.35,16.0135979 10.35,23 C10.35,29.9864021 16.0135979,35.65 23,35.65 C29.9864021,35.65 35.65,29.9864021 35.65,23 C35.65,16.0135979 29.9864021,10.35 23,10.35 Z" id="Oval-Copy"></path>
                        </g>
                    </g>
                    <g id="Group" transform="translate(143.392305, 977.777240)" fill="#D1DF4C" opacity="0.5">
                        <g id="abstract/01-copy-6" transform="translate(20.000000, 20.000000) rotate(-151.000000) translate(-20.000000, -20.000000) ">
                            <path d="M22.351141,2.70820393 L35.7189328,12.4204732 C37.1208824,13.4390492 37.707515,15.2445185 37.1720179,16.8926091 L32.0659757,32.6073909 C31.5304786,34.2554815 29.9946547,35.3713229 28.2617497,35.3713229 L11.7382503,35.3713229 C10.0053453,35.3713229 8.46952136,34.2554815 7.93402425,32.6073909 L2.82798214,16.8926091 C2.29248503,15.2445185 2.87911757,13.4390492 4.2810672,12.4204732 L17.648859,2.70820393 C19.0508086,1.6896279 20.9491914,1.6896279 22.351141,2.70820393 Z M20,7.18 L7.807,16.038 L12.464,30.371 L27.535,30.371 L32.192,16.038 L20,7.18 Z" id="Polygon-Copy"></path>
                        </g>
                    </g>
                    <g id="Group" transform="translate(431.392305, 1158.777240)" fill="#FFCE00">
                        <g id="abstract/01-copy-7" transform="translate(23.000000, 23.000000) rotate(-151.000000) translate(-23.000000, -23.000000) ">
                            <path d="M23,4.6 C33.1620394,4.6 41.4,12.8379606 41.4,23 C41.4,33.1620394 33.1620394,41.4 23,41.4 C12.8379606,41.4 4.6,33.1620394 4.6,23 C4.6,12.8379606 12.8379606,4.6 23,4.6 Z M23,10.35 C16.0135979,10.35 10.35,16.0135979 10.35,23 C10.35,29.9864021 16.0135979,35.65 23,35.65 C29.9864021,35.65 35.65,29.9864021 35.65,23 C35.65,16.0135979 29.9864021,10.35 23,10.35 Z" id="Oval"></path>
                        </g>
                    </g>
                    <g id="Group" transform="translate(706.392305, 1328.777240)" fill="#D1DF4C" opacity="0.4">
                        <g id="abstract/01-copy-9" transform="translate(14.000000, 14.000000) rotate(-208.000000) translate(-14.000000, -14.000000) ">
                            <path d="M15.6457987,1.89574275 L25.003253,8.69433122 C25.9846177,9.40733444 26.3952605,10.6711629 26.0204125,11.8248264 L22.446183,22.8251736 C22.071335,23.9788371 20.9962583,24.759926 19.7832248,24.759926 L8.21677522,24.759926 C7.00374169,24.759926 5.92866495,23.9788371 5.55381698,22.8251736 L1.9795875,11.8248264 C1.60473952,10.6711629 2.0153823,9.40733444 2.99674704,8.69433122 L12.3542013,1.89574275 C13.335566,1.18273953 14.664434,1.18273953 15.6457987,1.89574275 Z M14,5.026 L5.4649,11.2266 L8.7248,21.2597 L19.2745,21.2597 L22.5344,11.2266 L14,5.026 Z" id="Polygon-Copy"></path>
                        </g>
                    </g>
                    <g id="Group" transform="translate(450.392305, 1752.777240)" fill="#D1DF4C" opacity="0.4">
                        <g id="abstract/01-copy-10" transform="translate(23.000000, 23.000000) rotate(-151.000000) translate(-23.000000, -23.000000) ">
                            <path d="M22.7127456,5.78607347 L4.88774562,37.9860735 C4.03914169,39.5190354 5.14782964,41.4 6.9,41.4 L41.4,41.4 C43.1240611,41.4 44.2352039,39.5732918 43.4423871,38.0423352 L26.7673871,5.84233523 C25.9229314,4.21166205 23.6021216,4.17945875 22.7127456,5.78607347 Z M24.65715,11.7691 L37.6188,36.8 L10.8008,36.8 L24.65715,11.7691 Z" id="Stroke-1-Copy"></path>
                        </g>
                    </g>
                    <g id="Group" transform="translate(173.392305, 1809.777240)" fill="#24D9F4">
                        <g id="abstract/01-copy-11" transform="translate(17.000000, 17.000000) rotate(-151.000000) translate(-17.000000, -17.000000) ">
                            <path d="M27.2,5.1 L6.8,5.1 C5.86111593,5.1 5.1,5.86111593 5.1,6.8 L5.1,27.2 C5.1,28.1388841 5.86111593,28.9 6.8,28.9 L27.2,28.9 C28.1388841,28.9 28.9,28.1388841 28.9,27.2 L28.9,6.8 C28.9,5.86111593 28.1388841,5.1 27.2,5.1 Z M25.5,8.5 L25.5,25.5 L8.5,25.5 L8.5,8.5 L25.5,8.5 Z" id="Stroke-1-Copy-2"></path>
                        </g>
                    </g>
                    <g id="Group" transform="translate(477.564794, 1302.200835)" fill="#24D9F4" opacity="0.4">
                        <g id="abstract/01-copy-8" transform="translate(12.000000, 12.000000) rotate(-113.000000) translate(-12.000000, -12.000000) ">
                            <path d="M11.2501282,3.01882094 L1.95012815,19.8188209 C1.50737827,20.6186272 2.08582416,21.6 3,21.6 L21,21.6 C21.8995101,21.6 22.4792368,20.6469349 22.0655933,19.8481749 L13.3655933,3.0481749 C12.9250077,2.1973889 11.7141504,2.18058717 11.2501282,3.01882094 Z M12.2646,6.1404 L19.0272,19.2 L5.0352,19.2 L12.2646,6.1404 Z" id="Stroke-1-Copy-2"></path>
                        </g>
                    </g>
                    <g id="Group" transform="translate(63.316987, 642.352557)" fill="#FFCE00" opacity="0.6">
                        <g id="abstract/01-copy-4" transform="translate(15.000000, 15.000000) rotate(-132.000000) translate(-15.000000, -15.000000) ">
                            <path d="M14.8126602,3.77352618 L3.18766019,24.7735262 C2.63422284,25.773284 3.3572802,26.9999966 4.5,26.9999966 L27,26.9999966 C28.1243876,26.9999966 28.8490461,25.8086686 28.3319916,24.8102186 L17.4569916,3.81021863 C16.9062596,2.74673612 15.392688,2.72573397 14.8126602,3.77352618 Z M16.08075,7.6755 L24.534,24 L7.044,24 L16.08075,7.6755 Z" id="Stroke-1"></path>
                        </g>
                    </g>
                    <g id="Group" transform="translate(521.392305, 563.777240)" fill="#24D9F4" opacity="0.3">
                        <g id="abstract/01-copy-5" transform="translate(23.000000, 23.000000) rotate(-208.000000) translate(-23.000000, -23.000000) ">
                            <path d="M36.8,6.9 L9.2,6.9 C7.92974508,6.9 6.9,7.92974508 6.9,9.2 L6.9,36.8 C6.9,38.0702549 7.92974508,39.1 9.2,39.1 L36.8,39.1 C38.0702549,39.1 39.1,38.0702549 39.1,36.8 L39.1,9.2 C39.1,7.92974508 38.0702549,6.9 36.8,6.9 Z M34.5,11.5 L34.5,34.5 L11.5,34.5 L11.5,11.5 L34.5,11.5 Z" id="Stroke-1-Copy-2"></path>
                        </g>
                    </g>
                    <g id="Group" transform="translate(624.392305, 2297.777240)" fill="#24D9F4">
                        <g id="abstract/01-copy-14" transform="translate(23.000000, 23.000000) rotate(-151.000000) translate(-23.000000, -23.000000) ">
                            <path d="M21.5627456,5.78607347 L3.73774562,37.9860735 C2.88914169,39.5190354 3.99782964,41.4 5.75,41.4 L40.25,41.4 C41.9740611,41.4 43.0852039,39.5732918 42.2923871,38.0423352 L25.6173871,5.84233523 C24.7729314,4.21166205 22.4521216,4.17945875 21.5627456,5.78607347 Z M23.50715,11.7691 L36.4688,36.8 L9.6508,36.8 L23.50715,11.7691 Z" id="Stroke-1-Copy-2"></path>
                        </g>
                    </g>
                </g>
                <path d="M388.990367,0 C386.749737,98.2968186 326.022364,158.675213 206.808246,181.135183 C27.9870699,214.825137 -61.5987649,459.678772 172.464372,568.381572 C406.52751,677.084371 557.506298,694.340487 550.067313,857.340487 C539.52166,1088.41254 172.382379,1030.38428 176.43708,1289.34049 C180.184455,1528.66907 677.560209,1365.34049 677.560209,1781.36579 C677.560209,1855.97996 666.798935,2041.02025 443.892305,2132.83192" id="Path-3" stroke="#C6C6E4" stroke-width="1.5" stroke-linecap="round" stroke-dasharray="4,6"></path>
                <g id="Group" transform="translate(251.299750, 48.827741)" fill="#D1DF4C" fill-rule="nonzero">
                    <g id="abstract/01-copy-7" transform="translate(25.000000, 25.000000) rotate(-151.000000) translate(-25.000000, -25.000000) ">
                        <path d="M25,5 C36.045695,5 45,13.954305 45,25 C45,36.045695 36.045695,45 25,45 C13.954305,45 5,36.045695 5,25 C5,13.954305 13.954305,5 25,5 Z M25,11.25 C17.4060847,11.25 11.25,17.4060847 11.25,25 C11.25,32.5939153 17.4060847,38.75 25,38.75 C32.5939153,38.75 38.75,32.5939153 38.75,25 C38.75,17.4060847 32.5939153,11.25 25,11.25 Z" id="Oval-Copy"></path>
                    </g>
                </g>
                <g id="Group" transform="translate(434.991851, 24.887856)" fill="#FFCE00" fill-rule="nonzero" opacity="0.6">
                    <g id="abstract/01-copy-15" transform="translate(16.500000, 16.500000) rotate(7.000000) translate(-16.500000, -16.500000) ">
                        <path d="M16.2939262,4.15087879 L3.50642621,27.2508788 C2.89764512,28.3506124 3.69300822,29.7 4.95,29.7 L29.7,29.7 C30.9368264,29.7 31.7339507,28.3895354 31.1651908,27.2912405 L19.2026908,4.19124049 C18.5968856,3.02140973 16.9319568,2.99830737 16.2939262,4.15087879 Z M17.688825,8.44305 L26.9874,26.4 L7.7484,26.4 L17.688825,8.44305 Z" id="Stroke-1"></path>
                    </g>
                </g>
            </g>
        </g>
    </g>
</svg>