<svg xmlns="http://www.w3.org/2000/svg" width="110" height="123" viewBox="0 0 110 123">
  <g fill="none" transform="rotate(-73 75.596 61.46)">
    <path fill="#FFD214" d="M57.9741352,-26.3760825 L80.8194995,-26.4669094 C82.4763407,-26.4734965 83.8248157,-25.1357013 83.8314029,-23.4788602 C83.8314346,-23.4708804 83.8314345,-23.4629006 83.8314025,-23.4549208 L83.3125572,106.123213 C83.3059605,107.770713 81.9720084,109.104627 80.3245084,109.111177 L57.479144,109.202004 C55.8223029,109.208591 54.4738278,107.870796 54.4672406,106.213955 C54.4672089,106.205975 54.467209,106.197995 54.467241,106.190016 L54.9860863,-23.3881184 C54.9926831,-25.0356182 56.3266351,-26.3695325 57.9741352,-26.3760825 Z" transform="rotate(-67 69.15 41.368)"/>
    <g fill="#463E3B" transform="rotate(-67 21.747 13.471)">
      <path d="M24.9628509,-3.99680289e-15 L20.6728823,-3.99680289e-15 C22.9447626,-3.99680289e-15 24.7864855,1.89564132 24.7864855,4.23403338 L24.7864855,132.64839 C24.7864855,134.986782 22.9447626,136.882423 20.6728823,136.882423 L24.9628509,136.882423 C27.2347313,136.882423 29.0764542,134.986782 29.0764542,132.64839 L29.0764542,4.23403338 C29.0764542,1.89564132 27.2347313,-3.99680289e-15 24.9628509,-3.99680289e-15 L24.9628509,-3.99680289e-15 Z" opacity=".4"/>
      <path d="M24.9628509,-2.22044605e-15 L4.11360327,-2.22044605e-15 C1.84172292,-2.22044605e-15 0,1.89564132 0,4.23403338 L0,9.14021343 C0,6.80182136 1.84172292,4.90618005 4.11360327,4.90618005 L24.9580843,4.90618005 C26.0499054,4.90487786 27.0974414,5.35038731 27.8699229,6.14456378 C28.6424044,6.93874025 29.0764542,8.01642739 29.0764542,9.14021343 L29.0764542,4.23403338 C29.0764542,1.89564132 27.2347313,-2.22044605e-15 24.9628509,-2.22044605e-15 Z" opacity=".2"/>
      <polygon points="23.833 10.303 28.6 10.303 28.6 11.775 23.833 11.775"/>
      <polygon points="23.833 14.228 28.6 14.228 28.6 15.7 23.833 15.7"/>
      <polygon points="23.833 18.153 28.6 18.153 28.6 19.625 23.833 19.625"/>
      <polygon points="19.067 22.078 28.6 22.078 28.6 23.55 19.067 23.55"/>
      <polygon points="24.31 25.09 29.076 25.09 29.076 26.562 24.31 26.562"/>
      <polygon points="24.31 29.015 29.076 29.015 29.076 30.487 24.31 30.487"/>
      <polygon points="24.31 32.94 29.076 32.94 29.076 34.412 24.31 34.412"/>
      <polygon points="19.543 36.865 29.076 36.865 29.076 38.337 19.543 38.337"/>
      <polygon points="24.786 39.882 29.553 39.882 29.553 41.354 24.786 41.354"/>
      <polygon points="24.786 43.807 29.553 43.807 29.553 45.279 24.786 45.279"/>
      <polygon points="24.786 47.732 29.553 47.732 29.553 49.204 24.786 49.204"/>
      <polygon points="20.02 51.657 29.553 51.657 29.553 53.129 20.02 53.129"/>
      <polygon points="24.31 54.67 29.076 54.67 29.076 56.141 24.31 56.141"/>
      <polygon points="24.31 58.595 29.076 58.595 29.076 60.066 24.31 60.066"/>
      <polygon points="24.31 62.519 29.076 62.519 29.076 63.991 24.31 63.991"/>
      <polygon points="19.543 66.444 29.076 66.444 29.076 67.916 19.543 67.916"/>
      <polygon points="24.31 69.457 29.076 69.457 29.076 70.929 24.31 70.929"/>
      <polygon points="24.31 73.382 29.076 73.382 29.076 74.854 24.31 74.854"/>
      <polygon points="24.31 77.307 29.076 77.307 29.076 78.779 24.31 78.779"/>
      <polygon points="19.543 81.232 29.076 81.232 29.076 82.703 19.543 82.703"/>
      <polygon points="24.786 84.244 29.553 84.244 29.553 85.716 24.786 85.716"/>
      <polygon points="24.786 88.169 29.553 88.169 29.553 89.641 24.786 89.641"/>
      <polygon points="24.786 92.094 29.553 92.094 29.553 93.566 24.786 93.566"/>
      <polygon points="20.02 96.019 29.553 96.019 29.553 97.491 20.02 97.491"/>
      <polygon points="24.786 99.036 29.553 99.036 29.553 100.508 24.786 100.508"/>
      <polygon points="24.786 102.961 29.553 102.961 29.553 104.433 24.786 104.433"/>
      <polygon points="24.786 106.886 29.553 106.886 29.553 108.358 24.786 108.358"/>
      <polygon points="20.02 110.811 29.553 110.811 29.553 112.283 20.02 112.283"/>
      <polygon points="24.786 113.823 29.553 113.823 29.553 115.295 24.786 115.295"/>
      <polygon points="24.786 117.748 29.553 117.748 29.553 119.22 24.786 119.22"/>
      <polygon points="24.786 121.673 29.553 121.673 29.553 123.145 24.786 123.145"/>
      <polygon points="20.02 125.598 29.553 125.598 29.553 127.07 20.02 127.07"/>
    </g>
    <polygon fill="#655307" points="66.554 -19.689 67.517 -19.693 66.978 114.955 66.015 114.959" transform="rotate(-67 66.766 47.633)"/>
    <polygon fill="#FFD214" points="63.688 -13.908 65.613 -13.915 65.077 119.778 63.153 119.785" transform="rotate(-67 64.383 52.935)"/>
    <polygon fill="#FFD214" points="64.641 -14.872 66.566 -14.879 66.031 118.814 64.106 118.821" transform="rotate(-67 65.336 51.971)"/>
    <polygon fill="#FFD214" points="64.641 -15.836 66.566 -15.843 66.031 117.85 64.106 117.857" transform="rotate(-67 65.336 51.007)"/>
    <ellipse cx="125.908" cy="65.195" fill="#1E1169" rx="2.406" ry="2.387" transform="rotate(-67 125.908 65.195)"/>
    <path fill="#463E3B" d="M126.348904,68.3584478 C124.769381,68.3584478 123.488925,67.063708 123.488925,65.4665656 C123.488925,63.8694231 124.769381,62.5746834 126.348904,62.5746834 C127.928427,62.5746834 129.208883,63.8694231 129.208883,65.4665656 C129.208883,67.063708 127.928427,68.3584478 126.348904,68.3584478 Z M126.348904,64.0206245 C125.559142,64.0206245 124.918914,64.6679944 124.918914,65.4665656 C124.918914,66.2651368 125.559142,66.9125067 126.348904,66.9125067 C127.138665,66.9125067 127.778893,66.2651368 127.778893,65.4665656 C127.778893,64.6679944 127.138665,64.0206245 126.348904,64.0206245 Z" transform="rotate(-67 126.349 65.467)"/>
    <ellipse cx="12.481" cy="17.912" fill="#1E1169" rx="2.279" ry="2.274" transform="rotate(-67 12.481 17.912)"/>
    <path fill="#463E3B" d="M12.9030661,21.1243721 C11.3235433,21.1243721 10.043087,19.8296323 10.043087,18.2324899 C10.043087,16.6353475 11.3235433,15.3406077 12.9030661,15.3406077 C14.4825889,15.3406077 15.7630452,16.6353475 15.7630452,18.2324899 C15.7630452,19.8296323 14.4825889,21.1243721 12.9030661,21.1243721 L12.9030661,21.1243721 Z M12.9030661,16.7865488 C12.1133047,16.7865488 11.4730766,17.4339187 11.4730766,18.2324899 C11.4730766,19.0310611 12.1133047,19.678431 12.9030661,19.678431 C13.6928275,19.678431 14.3330557,19.0310611 14.3330557,18.2324899 C14.3330557,17.4339187 13.6928275,16.7865488 12.9030661,16.7865488 L12.9030661,16.7865488 Z" transform="rotate(-67 12.903 18.232)"/>
    <path fill="#655307" d="M80.803125,110.456176 L58.2877841,110.456176 C55.9710173,110.45349 54.0935705,108.558459 54.0909091,106.219994 L54.0909091,-22.7763912 C54.0935705,-25.1148565 55.9710173,-27.0098873 58.2877841,-27.0125736 L80.8079545,-27.0125736 C83.122835,-27.0072038 84.9973453,-25.1129572 85,-22.7763912 L85,106.219994 C84.9973386,108.558459 83.1198918,110.45349 80.803125,110.456176 L80.803125,110.456176 Z M58.1078174,-25.5467888 C56.6194637,-25.5467888 55.4129146,-24.3018787 55.4129146,-22.7662094 L55.4129146,106.547636 C55.4129146,108.083305 56.6194637,109.328211 58.1078174,109.328211 L80.1927592,109.328211 C80.9074919,109.328211 81.592951,109.035259 82.0983433,108.5138 C82.6037356,107.992341 82.8876621,107.28509 82.8876621,106.547636 L82.8876621,-22.7662094 C82.8876621,-23.5045113 82.6030867,-24.212503 82.0966695,-24.7341027 C81.5902524,-25.2557024 80.9035759,-25.5467888 80.188023,-25.5467888 L58.1078174,-25.5467888 Z" transform="rotate(-67 69.545 41.722)"/>
    <path fill="#000" d="M41.3970982,36.4793434 C40.8460925,34.7145307 40.5541034,32.8849374 40.5292526,31.041454 C40.4708902,29.5491925 40.7051486,28.0573883 41.2202406,26.641104 C41.7536681,25.1912811 42.7802946,23.9456263 44.1392272,23.0993585 L44.3981502,23.4926293 C43.1337933,24.2851522 42.1801714,25.4488528 41.6865285,26.8016095 C41.1907593,28.1688021 40.9666901,29.6087756 41.0256445,31.0487587 C41.0569268,32.844218 41.3474369,34.6253165 41.8891509,36.3428618 L41.3970982,36.4793434 Z" opacity=".1" transform="rotate(-67 42.46 29.79)"/>
    <path fill="#000" d="M41.5554716,51.9031756 C41.2010374,51.9053968 40.8471957,51.8797392 40.4972644,51.8262929 L40.5754619,51.3498756 C44.2816148,51.8098073 47.7494847,49.3673615 48.570251,45.7190878 C48.7699068,44.4958974 48.7555406,43.2490681 48.5277931,42.0341926 C48.2450813,39.8201927 47.4540257,37.7052666 46.2161855,35.8539961 C44.9732208,34.0107474 43.0434184,32.7423842 40.8519084,32.3283235 L40.9301059,31.8519063 C43.2485059,32.2855529 45.2914856,33.6238527 46.6082998,35.5715348 C47.8903768,37.4861867 48.7089973,39.6746408 49.0001079,41.9656604 C49.2375692,43.233994 49.251717,44.535691 49.0419174,45.8124345 C48.374892,49.2573353 45.0219237,51.8892475 41.5554716,51.9031756 L41.5554716,51.9031756 Z" opacity=".1" transform="rotate(-67 44.843 41.878)"/>
    <path fill="#000" d="M41.4418955,49.9869348 L41.3119666,49.4860536 C43.4799422,48.9760391 45.0278841,46.8038486 44.7617311,44.6288404 C44.392827,42.4832257 42.7816838,40.6953964 40.5475468,39.9525074 L40.7473201,39.4854135 C43.1697124,40.2945045 44.9132652,42.2377742 45.3062126,44.5665086 C45.5988283,46.9971245 43.8684688,49.4207389 41.4418955,49.9869348 L41.4418955,49.9869348 Z" opacity=".1" transform="rotate(-67 42.943 44.736)"/>
    <path fill="#000" d="M84.4455341,77.8715072 C84.0838678,77.8733759 83.7240969,77.8241371 83.3765574,77.7251513 L83.5074252,77.2389845 C84.6513344,77.529882 85.8673714,77.2768181 86.8143662,76.5507921 C89.2083761,74.9046478 91.0428474,71.0947435 91.4992567,66.8192392 C91.7064573,64.5458247 91.6964271,62.2590849 91.4693072,59.9911667 C91.0866552,55.3887575 90.3046707,51.5406878 89.1276812,48.558639 C87.7523825,45.0188849 85.8089566,42.6517971 83.7676492,42.072278 L83.8985169,41.5861112 C86.0733468,42.2088078 88.1405118,44.6773896 89.5725259,48.3626123 C90.7445654,51.388389 91.5359246,55.2801296 91.9136071,59.9311232 C92.143753,62.2297022 92.1536595,64.5473661 91.9431871,66.85147 C91.4481894,71.2242571 89.546247,75.1898365 87.0468778,76.9141029 C86.2913018,77.4898196 85.3851814,77.8232912 84.4455341,77.8715072 L84.4455341,77.8715072 Z" opacity=".1" transform="rotate(-67 87.735 59.729)"/>
    <path fill="#000" d="M84.4132867,71.1513172 L84.1924579,70.7012028 C86.3300107,69.8155026 87.9209053,65.7750302 87.6595912,61.8757304 C87.4189058,58.2489263 85.7329138,54.8508847 83.4580376,53.4177427 L83.7691825,53.0101176 C86.2119757,54.5466672 87.951991,58.0138775 88.2027228,61.843836 C88.4792951,66.0007849 86.7792621,70.1755019 84.4132867,71.1513172 L84.4132867,71.1513172 Z" opacity=".1" transform="rotate(-67 85.845 62.08)"/>
    <path fill="#000" d="M74.4931492,42.2075404 C72.1735116,41.7735098 70.1294426,40.434032 68.8119278,38.4846377 C67.5291687,36.5683028 66.710114,34.3779258 66.4188511,32.084894 C66.1810703,30.8154669 66.1669164,29.512593 66.3770245,28.2347419 C67.2540112,24.3342554 70.9606206,21.7231484 74.9214788,22.2156332 L74.8432388,22.6924687 C71.1332068,22.2264719 67.6582184,24.6698034 66.8346497,28.3234627 C66.6347887,29.5477205 66.649161,30.7956614 66.8771252,32.0115939 C67.1598171,34.227581 67.9513061,36.3444023 69.1899588,38.1972205 C70.4335849,40.0420896 72.3644162,41.3115691 74.5570961,41.7259964 L74.4931492,42.2075404 Z" opacity=".1" transform="rotate(-67 70.575 32.182)"/>
    <path fill="#000" d="M74.6662016,34.5740088 C72.2388782,33.7610326 70.4957946,31.8073862 70.1125386,29.4702678 C69.8201974,27.0558458 71.5541125,24.6333704 73.9779441,24.0724624 L74.1077259,24.5731051 C71.9421819,25.0828706 70.3959715,27.2540208 70.6618202,29.427992 C71.0303047,31.572584 72.6396353,33.3595645 74.8712633,34.1021048 L74.6662016,34.5740088 Z" opacity=".1" transform="rotate(-67 72.476 29.323)"/>
    <path fill="#000" d="M118.209544,67.217118 C115.077311,66.7489653 112.082799,64.8048174 109.995224,61.9102791 C108.266905,59.5141388 107.088088,56.4333598 106.51701,52.754219 C106.172939,50.9414977 106.152308,49.0811478 106.45604,47.2563755 C107.517533,41.845385 113.284328,37.8382748 118.797352,38.6862524 L118.717317,39.1671724 C113.453076,38.3662662 107.965298,42.1848327 106.929196,47.3506153 C106.635747,49.1213217 106.656598,50.9263028 106.99082,52.6850515 C107.557305,56.2921203 108.697337,59.3057692 110.372205,61.6396437 C112.386976,64.428739 115.264651,66.2916489 118.269993,66.7506939 L118.209544,67.217118 Z" opacity=".1" transform="rotate(-67 112.52 52.895)"/>
    <path fill="#000" d="M118.553926,55.7654101 C115.562037,54.584039 113.354222,51.7874295 113.015285,48.8080556 C112.663391,45.5121532 114.762867,42.2113783 117.696177,41.4447985 L117.808024,41.9313999 C115.097801,42.6386475 113.160475,45.7049959 113.484856,48.7672256 C113.786562,51.571411 115.890707,54.2077073 118.721637,55.3264022 L118.553926,55.7654101 Z" opacity=".1" transform="rotate(-67 115.85 48.605)"/>
    <polygon fill="#655307" points="65.585 -14.894 67.51 -14.902 66.994 114.017 65.069 114.024" transform="rotate(-67 66.29 49.561)"/>
    <path fill="#000" d="M83.0716626,62.4432586 C82.0132241,61.169868 80.6888952,59.5891486 80.0779993,57.7314731 C79.6757636,56.265518 79.4951522,54.7470563 79.5420183,53.2252999 C79.5454102,52.3784498 79.509326,51.5072816 79.4088161,50.6657394 C78.7816035,45.8679403 75.5821487,41.8000171 71.0420475,40.0278734 L71.2219546,39.5719225 C75.9340404,41.4076393 79.2561021,45.6270229 79.9086752,50.6050126 C80.0090871,51.4710302 80.0253254,52.3569623 80.0416814,53.2135239 C79.9972118,54.6871673 80.1713181,56.1575746 80.5584438,57.5778183 C81.1400121,59.3475001 82.4298508,60.8940915 83.4636927,62.1333148 L83.0716626,62.4432586 Z" opacity=".1" transform="rotate(-67 77.253 51.008)"/>
    <path fill="#000" d="M23.9654278,40.2721618 C22.9069894,38.9987712 21.5826605,37.4180518 20.9717645,35.5603764 C20.5695289,34.0944213 20.3889174,32.5759596 20.4357836,31.0542031 C20.4391755,30.207353 20.4030912,29.3361848 20.3025813,28.4946427 C19.6753688,23.6968436 16.4759139,19.6289204 11.9358127,17.8567767 L12.1157199,17.4008258 C16.8278057,19.2365426 20.1498674,23.4559262 20.8024404,28.4339159 C20.9028523,29.2999334 20.9190906,30.1858655 20.9354466,31.0424272 C20.890977,32.5160705 21.0650834,33.9864779 21.4522091,35.4067215 C22.0337773,37.1764034 23.3236161,38.7229948 24.3574579,39.9622181 L23.9654278,40.2721618 Z" opacity=".1" transform="rotate(-67 18.147 28.836)"/>
    <path fill="#000" d="M34.4520179,27.7406723 C33.3935794,26.4672818 32.0692505,24.8865624 31.4583545,23.0288869 C31.0561189,21.5629318 30.8755075,20.0444701 30.9223736,18.5227137 C30.9257655,17.6758636 30.8896813,16.8046953 30.7891713,15.9631532 C30.1619588,11.1653541 26.962504,7.09743092 22.4224028,5.32528722 L22.6023099,4.86933631 C27.3143957,6.70505314 30.6364574,10.9244367 31.2890305,15.9024264 C31.3894423,16.768444 31.4056807,17.6543761 31.4220367,18.5109377 C31.3775671,19.9845811 31.5516734,21.4549884 31.9387991,22.8752321 C32.5203673,24.6449139 33.8102061,26.1915053 34.844048,27.4307286 L34.4520179,27.7406723 Z" opacity=".1" transform="rotate(-67 28.633 16.305)"/>
    <path fill="#000" d="M123.377717,82.6906737 L122.894117,82.5879397 C123.278226,80.945216 122.578321,79.2592297 121.897397,77.6683099 C121.720005,77.2456337 121.542595,76.8277147 121.384545,76.4097186 C120.877911,74.9676821 120.471465,73.4928085 120.167997,71.9952144 C119.521163,69.1435295 118.907657,66.4296678 117.018475,64.3963835 C115.654664,62.9128339 113.732058,61.9738139 112.036256,61.2051478 L112.241278,60.7714375 C113.980566,61.5589591 115.956299,62.5263105 117.382747,64.0809675 C119.358596,66.2280776 120.014958,69.1177814 120.647481,71.9171952 C120.94626,73.3937291 121.346315,74.8479503 121.844916,76.2699332 C122.002985,76.683172 122.175574,77.0963532 122.353004,77.509515 C123.067543,79.1669005 123.801138,80.9003238 123.377717,82.6906737 L123.377717,82.6906737 Z" opacity=".1" transform="rotate(-67 117.77 71.731)"/>
  </g>
</svg>
