<svg width="61" height="119" viewBox="0 0 61 119" xmlns="http://www.w3.org/2000/svg"><g transform="rotate(25 32.032 107.107)" fill="none"><rect fill="#FFD214" x="5.88" y=".587" width="10" height="128" rx="5"/><path d="M10.6970101,0.017967066 L10.6970101,0.017967066 C10.4676109,0.017967066 10.2385841,0.0402678573 10.0120786,0.0841169368 C12.1039365,0.490115668 13.6421723,2.66947738 13.6422156,5.22726939 L13.6422156,122.808665 C13.6415995,125.366202 12.1036373,127.545176 10.0120786,127.951817 C10.2385841,127.995666 10.4676109,128.017967 10.6970101,128.017967 L10.6970101,128.017967 C13.0801566,128.017967 15.0120786,125.685683 15.0120786,122.808665 L15.0120786,5.22726939 C15.0120786,2.35025116 13.0801566,0.017967066 10.6970101,0.017967066 Z" fill="#C49E00"/><path d="M9.892611,128.596664 L9.892611,128.596664 C10.1220102,128.596664 10.351037,128.574363 10.5775425,128.530514 C8.48568464,128.124515 6.94744878,125.945153 6.94740552,123.387361 L6.94740552,5.80596586 C6.94802157,3.24842856 8.48598386,1.06945444 10.5775425,0.662813406 C10.351037,0.618964326 10.1220102,0.596663535 9.892611,0.596663535 L9.892611,0.596663535 C7.50946448,0.596663535 5.57754251,2.92894763 5.57754251,5.80596586 L5.57754251,123.387361 C5.57754251,126.264379 7.50946448,128.596664 9.892611,128.596664 Z" fill="#FEE88A"/><path d="M10.574407,129.221834 C7.53829763,129.218189 5.07792103,126.665763 5.07440701,123.516065 L5.07440701,5.92760332 C5.07440701,2.77639399 7.53684088,0.221834087 10.574407,0.221834087 C13.6119731,0.221834087 16.074407,2.77639399 16.074407,5.92760332 L16.074407,123.516065 C16.070893,126.665763 13.6105164,129.218189 10.574407,129.221834 Z M10.574407,1.21414178 C8.06620595,1.21687645 6.0335648,3.32556397 6.03092875,5.92760332 L6.03092875,123.516065 C6.03092875,126.119238 8.06511329,128.229526 10.574407,128.229526 C13.0837007,128.229526 15.1178853,126.119238 15.1178853,123.516065 L15.1178853,5.92760332 C15.1152492,3.32556397 13.0826081,1.21687645 10.574407,1.21414178 Z" fill="#7D6708"/><path d="M5.66837431,48.205856 L5.12783377,48.205856 C2.66494231,48.205856 0.668374306,45.7642902 0.668374306,42.7524661 L0.668374306,14.6592458 C0.668374306,11.6474218 2.66494231,9.20585597 5.12783377,9.20585597 L5.66837431,9.20585597 L5.66837431,48.205856 Z M4.58729322,10.5807712 C2.95135686,10.9050377 1.74931786,12.6325802 1.74945539,14.6592458 L1.74945539,42.7524661 C1.74931786,44.7791317 2.95135686,46.5066742 4.58729322,46.8309407 L4.58729322,10.5807712 Z" fill="#7D6708"/><rect fill="#7D6708" x="5.422" y="11.304" width="10" height="1"/><rect fill="#7D6708" x="5.124" y="43.204" width="10" height="1"/></g></svg>