<?xml version="1.0" encoding="UTF-8"?>
<svg width="317px" height="173px" viewBox="0 0 317 173" version="1.1" xmlns="http://www.w3.org/2000/svg" xmlns:xlink="http://www.w3.org/1999/xlink">
    <title>Group 2</title>
    <g id="Maquettes" stroke="none" stroke-width="1" fill="none" fill-rule="evenodd">
        <g id="Desktop-I-04---A-propos" transform="translate(-804.000000, -215.000000)" fill-rule="nonzero">
            <g id="Group-2" transform="translate(804.354494, 215.057513)">
                <g id="Group" transform="translate(290.645506, 39.942487)" fill="#FF507B">
                    <g id="abstract/01-copy-16" transform="translate(12.000000, 12.000000) rotate(-175.000000) translate(-12.000000, -12.000000) ">
                        <path d="M11.0390793,-1.82894825 C11.3864378,-2.39336708 12.1255794,-2.56932922 12.6899983,-2.22197069 C16.6744767,0.23018454 16.7255598,5.97883716 12.8785462,8.49218889 L12.684546,8.61560284 C10.2158787,10.1347131 10.1725688,13.6873704 12.5108769,15.2526795 L12.6384215,15.3346113 L12.6899983,15.3646293 C16.6744767,17.8167845 16.7255598,23.5654372 12.8785462,26.0787889 L12.7212902,26.1786604 C12.1698558,26.5462833 11.4248126,26.3972747 11.0571896,25.8458402 C10.7079478,25.3219775 10.8249661,24.6233829 11.3103271,24.2396424 L11.3900098,24.1817396 L11.4322376,24.1545457 C13.9013849,22.6354185 13.9447032,19.0828936 11.6058527,17.5175239 L11.4782785,17.4355887 L11.4266182,17.4055192 C7.44284199,14.953347 7.39176794,9.20482805 11.2381776,6.69141365 L11.4322376,6.56794573 C13.9454768,5.02169119 13.9454768,1.36876929 11.4321017,-0.178029307 C10.8676829,-0.525387835 10.6917208,-1.26452942 11.0390793,-1.82894825 Z" id="Stroke-1" transform="translate(12.058580, 11.990080) rotate(-315.000000) translate(-12.058580, -11.990080) "></path>
                    </g>
                </g>
                <g id="Group" transform="translate(187.245052, 137.489856)" fill="#58D8B0" opacity="0.6">
                    <g id="abstract/01-copy-15" transform="translate(16.500000, 16.500000) rotate(7.000000) translate(-16.500000, -16.500000) ">
                        <path d="M15.8955197,4.96582887 C16.7641761,4.92030452 17.5110645,5.55518466 17.6186485,6.40447746 L17.6296128,6.52721328 L18.6658647,26.3000781 C18.7135569,27.210099 18.0145013,27.9864789 17.1044803,28.0341711 C16.2358239,28.0796955 15.4889355,27.4448153 15.3813515,26.5955225 L15.3703872,26.4727867 L14.3341353,6.69992193 C14.2864431,5.78990096 14.9854987,5.01352105 15.8955197,4.96582887 Z" id="Stroke-1" transform="translate(16.500000, 16.500000) rotate(3.000000) translate(-16.500000, -16.500000) "></path>
                        <path d="M26.3000781,14.3341353 C27.210099,14.2864431 27.9864789,14.9854987 28.0341711,15.8955197 C28.0796955,16.7641761 27.4448153,17.5110645 26.5955225,17.6186485 L26.4727867,17.6296128 L6.69992193,18.6658647 C5.78990096,18.7135569 5.01352105,18.0145013 4.96582887,17.1044803 C4.92030452,16.2358239 5.55518466,15.4889355 6.40447746,15.3813515 L6.52721328,15.3703872 L26.3000781,14.3341353 Z" id="Stroke-3" transform="translate(16.500000, 16.500000) rotate(3.000000) translate(-16.500000, -16.500000) "></path>
                    </g>
                </g>
                <g id="Group" transform="translate(2.645506, 71.942487)" fill="#58D8B0" opacity="0.4">
                    <g id="abstract/01-copy-8" transform="translate(8.500000, 8.500000) rotate(-113.000000) translate(-8.500000, -8.500000) ">
                        <path d="M8.5003612,1.7 C4.74474785,1.7 1.7,4.74474785 1.7,8.5003612 C1.7,12.2558687 4.74464195,15.3 8.5003612,15.3 C12.2560804,15.3 15.3007224,12.2558687 15.3007224,8.5003612 C15.3007224,4.74474785 12.2559745,1.7 8.5003612,1.7 Z M8.5003612,3.4 C11.3170905,3.4 13.6007224,5.68363192 13.6007224,8.5003612 C13.6007224,11.3169208 11.3172602,13.6 8.5003612,13.6 C5.6834622,13.6 3.4,11.3169208 3.4,8.5003612 C3.4,5.68363192 5.68363192,3.4 8.5003612,3.4 Z" id="Stroke-1"></path>
                    </g>
                </g>
                <g id="Group" transform="translate(143.645506, 0.942487)" fill="#24D9F4" opacity="0.3">
                    <g id="abstract/01-copy-5" transform="translate(14.000000, 14.000000) rotate(-274.000000) translate(-14.000000, -14.000000) ">
                        <path d="M13.1251495,3.52195776 L2.27514951,23.1219578 C1.75860798,24.055065 2.43346152,25.2 3.5,25.2 L24.5,25.2 C25.5494285,25.2 26.2257763,24.0880907 25.7431922,23.1562041 L15.5931922,3.55620405 C15.0791756,2.56362038 13.6665088,2.54401837 13.1251495,3.52195776 Z M14.3087,7.1638 L22.1984,22.4 L5.8744,22.4 L14.3087,7.1638 Z" id="Stroke-1"></path>
                    </g>
                </g>
            </g>
        </g>
    </g>
</svg>