<svg width="159" height="180" viewBox="0 0 159 180" xmlns="http://www.w3.org/2000/svg"><g transform="rotate(-10 57.867 53.146)" fill="none"><polyline fill="#5AD7AF" transform="rotate(-23 79.86 176.088)" points="75.7935988 168.486078 75.7542805 184.344412 83.9246744 184.255932 83.9653969 167.831229"/><polygon fill="#463E3B" opacity=".2" transform="rotate(-23 79.878 175.955)" points="83.7646875 172.6852 83.8377344 179.299619 75.9173697 178.734123 75.932551 172.611005"/><path d="M31.1168944,169.096761 L110.026946,168.904159 C116.532856,168.88828 121.820082,163.682297 121.836294,157.276271 L122.17251,24.4398645 C122.180259,21.3635821 120.946622,18.4163252 118.74295,16.2464568 C116.539278,14.0765884 113.546083,12.8618527 110.421835,12.8694422 L31.5117838,13.0620675 C29.2124432,13.0676793 27.3438144,14.9075951 27.3380846,17.1716344 L26.9639314,165.007504 C26.9582148,167.271543 28.8175538,169.10236 31.1168944,169.096761 L31.1168944,169.096761 Z" fill="#FF507D" transform="rotate(-23 74.568 90.983)"/><path d="M30.4221034,14.0177282 C29.0015417,14.0212652 28.1017681,14.9015464 27.3225713,16.0578134 C27.7194258,15.9391796 27.705417,15.6970454 28.1201023,15.6954504 L107.926758,15.5014856 C114.506591,15.4854937 119.827447,20.6481385 119.811221,27.0325755 L119.474772,159.421296 C119.47469,162.579426 118.137845,165.605372 115.777121,167.79092 C119.484646,165.719884 121.774221,161.885637 121.776773,157.743574 L122.11326,25.3548532 C122.129448,18.9704162 116.808592,13.8077714 110.228759,13.8237262 L30.4221034,14.0177282 Z" fill="#AC3553" opacity=".5" transform="rotate(-23 74.718 90.807)"/><path d="M38.9501936,30.5802847 L36.4594848,30.5853245 C33.7120721,30.5908837 31.4792885,32.4202973 31.4724232,34.6714342 L31.024119,181.66481 C31.0208377,182.745845 31.5417873,183.781542 32.4723803,184.544061 C33.4029733,185.306579 34.6669805,185.733458 35.9863346,185.730801 L38.4770433,185.725749 L38.9501936,30.5802847 Z" fill="#463E3B" opacity=".2" transform="rotate(-23 34.987 108.156)"/><path d="M109.462495,169.728337 L31.8979093,169.728337 C29.1765387,169.725265 26.9711992,167.522923 26.9681225,164.805252 L26.9681225,17.4249037 C26.9711992,14.7072323 29.1765387,12.5048906 31.8979093,12.501818 L109.462495,12.501818 C116.317435,12.5079659 121.872925,18.0559048 121.879081,24.9015265 L121.879081,157.328629 C121.872925,164.174251 116.317435,169.72219 109.462495,169.728337 L109.462495,169.728337 Z M31.8979093,14.1744406 C30.1002846,14.1744406 28.6430217,15.6297225 28.6430217,17.4249037 L28.6430217,164.805252 C28.6430217,166.600433 30.1002846,168.055715 31.8979093,168.055715 L109.462495,168.055715 C115.392414,168.049569 120.198028,163.250487 120.204182,157.328629 L120.204182,24.9015265 C120.198028,18.9796683 115.392414,14.1805868 109.462495,14.1744406 L31.8979093,14.1744406 Z" fill="#B22F50" transform="rotate(-23 74.424 91.115)"/><path d="M101.351308,79.3050516 L97.7289767,68.0034248 L91.896321,49.8417392 L91.7679504,49.4405309 C91.2727571,47.89742 89.6272093,47.0542277 88.0885258,47.5551633 L87.6888558,47.6862315 L31.4196914,66.1892554 L31.0200214,66.3203235 C30.2790944,66.5630387 29.6631329,67.0916045 29.3079411,67.7894853 C28.9527494,68.4873661 28.8874946,69.2972543 29.1265637,70.0405895 L33.9210476,84.9756706 L38.587161,99.5095433 L38.7155316,99.9107516 C39.2130981,101.451591 40.8579211,102.29188 42.3949702,101.790464 L99.4522254,83.0253316 C100.194183,82.7837798 100.811469,82.2556939 101.167783,81.5576781 C101.524098,80.8596622 101.590133,80.0491302 101.351308,79.3050516 L101.351308,79.3050516 Z" fill="#463E3B" opacity=".2" transform="rotate(-23 65.239 74.673)"/><path d="M38.2445481,53.1250347 L92.4620039,53.0000145 C95.7536123,52.9924243 98.4281411,55.6546471 98.4357312,58.9462555 C98.4357522,58.9553459 98.4357524,58.9644364 98.4357317,58.9735268 L98.3771009,84.803932 C98.3696537,88.0848956 95.7118227,90.7428224 92.4308594,90.750388 L38.2134036,90.8754082 C34.9217952,90.8829983 32.2472664,88.2207755 32.2396763,84.9291672 C32.2396553,84.9200767 32.2396551,84.9109863 32.2396758,84.9018958 L32.2983066,59.0714906 C32.3057538,55.7905271 34.9635848,53.1326003 38.2445481,53.1250347 Z" fill="#FFF" transform="rotate(-35.81 65.338 71.938)"/><path d="M60.6357049,101.603561 L45.9290414,104.895409 C44.1213108,105.286707 42.3332268,104.19318 41.9151691,102.440672 L35.2211988,73.5062949 C35.1944634,73.3980564 35.1758924,73.288022 35.1656342,73.1770698 C38.2999181,75.6504666 42.1461575,77.496299 45.8634004,79.0679832 C47.8806893,79.8407625 49.8186959,80.7952353 51.6522887,81.9190241 C56.307383,84.9869759 58.9948976,90.2830332 60.0245992,95.6655614 C60.3900252,97.6251686 60.5943735,99.6107835 60.6357049,101.603561 L60.6357049,101.603561 Z" fill="#59598D" opacity=".05" transform="rotate(-23 47.9 89.076)"/><path d="M39.6414678,97.7946357 C37.89244,97.7886739 36.3789108,96.5676582 35.9911133,94.8497701 L29.0984838,64.3369077 C28.6533345,62.3077575 29.9161441,60.296724 31.9270892,59.8323331 L90.0197141,46.5044229 C92.0348055,46.052764 94.0334707,47.3260985 94.4918176,49.3535663 L101.378857,79.8664287 C101.824006,81.8955789 100.561197,83.9066124 98.5502516,84.3710033 L40.4799872,97.6989135 C40.2048898,97.7621619 39.9236404,97.7946357 39.6414678,97.7946357 Z M90.8526434,48.1035409 C90.6984488,48.1035409 90.5446966,48.1201735 90.3942528,48.1542233 L32.2960378,61.4596106 C31.1800135,61.7168789 30.4803581,62.834388 30.7308015,63.9596496 L37.617841,94.4725119 C37.8732548,95.5966395 38.9827083,96.3013749 40.0998584,96.0491131 L98.2036636,82.7437258 C99.3196878,82.4864575 100.019343,81.3689484 99.7688998,80.2436868 L92.8762702,49.7251937 C92.6579679,48.7765551 91.8194126,48.1045733 90.8526434,48.1035409 L90.8526434,48.1035409 Z" fill="#C6C6DD" transform="rotate(-23 65.239 72.104)"/><path d="M96.5630225,8.13582686 C96.5655268,7.12844875 96.1561299,6.1636808 95.4255337,5.45529514 C94.6949376,4.74690948 93.7034702,4.35339996 92.6708196,4.36182314 L89.4838634,4.3698995 C87.614468,4.37364779 86.0071736,5.67771172 85.6610704,7.47148835 C85.4392497,7.95507632 85.324064,8.47830345 85.3230093,9.0071193 L84.941716,162.790528 C84.9392394,163.793998 85.345482,164.75535 86.0710863,165.463098 C86.7966907,166.170846 87.7822191,166.567015 88.8108665,166.564465 L91.9978228,166.556513 C94.3112129,166.128075 96.030899,164.211507 96.1586769,161.919293 L96.5630225,8.13582686 Z" fill="#463E3B" opacity=".2" transform="rotate(-23 90.752 85.463)"/><path d="M93.504306,2.32392193 C96.304631,2.31692928 98.5804116,4.58137255 98.5874042,7.38169752 C98.5874252,7.39009865 98.5874253,7.39849981 98.5874045,7.40690093 L98.2114795,159.383441 C98.2045081,162.201808 95.9215388,164.484831 93.1031718,164.491869 C90.3028468,164.498861 88.0270662,162.234418 88.0200736,159.434093 C88.0200526,159.425692 88.0200525,159.417291 88.0200733,159.40889 L88.3959983,7.43234973 C88.4029698,4.61398253 90.685939,2.33095963 93.504306,2.32392193 Z" fill="#D1AB0D" transform="rotate(-23 93.304 83.408)"/><polygon fill="#FFD214" transform="rotate(-23 96.366 81.867)" points="97.5844495 2.32343835 97.1899919 161.421032 95.1467353 161.426122 95.5412343 2.31180912 97.1145419 2.30788958"/><path d="M62.6867604,8.90640553 L63.7083887,8.90386038 L62.6867604,8.90640553 Z" fill="#A0830D" transform="rotate(-23 63.198 8.905)"/><path d="M94.8436107,164.590216 L91.7638671,164.590216 C89.2337886,164.587111 87.1835199,162.512891 87.1804512,159.953256 L87.1804512,5.83491044 C87.1835116,3.27747019 89.2303946,1.20415614 91.758298,1.19795063 L94.8380415,1.19795063 C97.3702947,1.19795063 99.4239535,3.27307713 99.4270266,5.83491044 L99.4270266,159.953256 C99.423958,162.512891 97.3736892,164.587111 94.8436107,164.590216 Z M91.8376494,3.00339003 C90.3073134,3.00648591 89.0674575,4.32205519 89.0645398,5.94584302 L89.0645398,159.842323 C89.0674575,161.466111 90.3073134,162.781681 91.8376494,162.784776 L94.7698284,162.784776 C96.3001644,162.781681 97.5400204,161.466111 97.5429381,159.842323 L97.5429381,5.94584302 C97.5400326,4.32424388 96.3033956,3.00957642 94.7751307,3.00339003 L91.8376494,3.00339003 Z" fill="#88700A" transform="rotate(-23 93.304 82.894)"/></g></svg>