<?xml version="1.0" encoding="UTF-8"?>
<svg width="144px" height="144px" viewBox="0 0 144 144" version="1.1" xmlns="http://www.w3.org/2000/svg" xmlns:xlink="http://www.w3.org/1999/xlink">
    <!-- Generator: Sketch 51.3 (57544) - http://www.bohemiancoding.com/sketch -->
    <title>Classea12-logo-white</title>
    <desc>Created with Sketch.</desc>
    <defs></defs>
    <g id="Symbols" stroke="none" stroke-width="1" fill="none" fill-rule="evenodd">
        <g id="logos/classea12-144-white" fill-rule="nonzero">
            <g id="Classea12-logo-white">
                <g id="Group" opacity="0.4" transform="translate(15.679083, 22.280802)">
                    <path d="M85.6614327,94.0373639 C85.4635078,94.0417679 85.2903507,93.9049738 85.2488252,93.711404 L84.3575931,89.4409169 C84.3363226,89.3355016 84.3570492,89.2259471 84.4153582,89.1355874 C84.4759422,89.045984 84.5692885,88.9837531 84.6753009,88.9622923 L88.945788,88.0710602 C89.1650873,88.0275306 89.3791584,88.1665853 89.4285387,88.3846418 L90.3197708,92.6551289 C90.3410413,92.7605443 90.3203147,92.8700987 90.2620057,92.9604585 C90.202202,93.0516196 90.1087483,93.1154054 90.002063,93.1378797 L85.7315759,94.0291117 L85.6614327,94.0373639 Z M85.2488252,89.6761032 L85.9708883,93.1502579 L89.445043,92.4240688 L88.7106017,88.949914 L85.2488252,89.6761032 Z" id="Shape" fill="#FFD213"></path>
                    <path d="M4.08893983,59.1390258 C3.9553861,59.1374642 3.83084949,59.0713521 3.75472779,58.9616046 C3.67321224,58.838416 3.66377021,58.6810488 3.72997135,58.5489971 L6.44080229,53.3088825 C6.50715308,53.1833339 6.6334019,53.1007267 6.77501433,53.0902006 C6.91870641,53.0819649 7.0563058,53.1492009 7.13810888,53.2676218 L10.3151862,57.8970774 C10.3993706,58.0187473 10.4119651,58.1761785 10.3481948,58.3096848 C10.2858081,58.438844 10.1608203,58.5263355 10.0181089,58.540745 L4.1260745,59.1390258 L4.08893983,59.1390258 Z M6.84928367,54.2867622 L4.78624642,58.2519198 L9.22590258,57.7939255 L6.84928367,54.2867622 Z" id="Shape" fill="#24D9F4"></path>
                    <path d="M56.1476218,5.27312321 C54.7552945,5.27312321 53.6265903,4.14441895 53.6265903,2.75209169 C53.6265903,1.35976443 54.7552945,0.231060172 56.1476218,0.231060172 C57.539949,0.231060172 58.6686533,1.35976443 58.6686533,2.75209169 C58.6686533,4.14441895 57.539949,5.27312321 56.1476218,5.27312321 Z M56.1476218,1.04802292 C55.4566627,1.04646021 54.8331545,1.46229274 54.5690709,2.10079627 C54.3049873,2.73929979 54.4526088,3.47406985 54.942808,3.96103152 C55.489029,4.5100159 56.336234,4.62285155 57.0070996,4.23596577 C57.6779652,3.84908 58.0046242,3.05928125 57.8030338,2.31154964 C57.6014433,1.56381803 56.9220465,1.04525461 56.1476218,1.04802292 Z" id="Shape" fill="#58D8B0"></path>
                    <path d="M73.3079656,14.5856734 C72.7727048,14.5872522 72.2415539,14.4922042 71.7400573,14.3051003 C71.5335311,14.2242823 71.4278333,13.994663 71.500745,13.7852149 C71.5799674,13.5749003 71.812937,13.4666703 72.0247564,13.5417765 C72.9493933,13.8840691 73.9721977,13.8445964 74.8677037,13.4320599 C75.7632098,13.0195234 76.4578953,12.2677928 76.7986246,11.3425788 C77.1409172,10.417942 77.1014446,9.39513757 76.6889081,8.49963152 C76.2763716,7.60412546 75.524641,6.90943991 74.5994269,6.5687106 C74.4378392,6.53900889 74.3092708,6.41627144 74.2721067,6.2562351 C74.2349425,6.09619877 74.2962655,5.92936416 74.428228,5.83149328 C74.5601905,5.7336224 74.7376423,5.72336803 74.88,5.80538682 C76.9193321,6.58160876 78.1176652,8.69917533 77.733101,10.8470827 C77.3485367,12.9949901 75.4899322,14.5652384 73.3079656,14.5856734 Z" id="Path" fill="#FFD213"></path>
                    <path d="M6.63060172,29.4560458 C6.59506997,29.4617511 6.55885553,29.4617511 6.52332378,29.4560458 L0.627163324,27.8716332 C0.411242619,27.8113162 0.282992303,27.5896263 0.338338109,27.3723782 C0.398655181,27.1564575 0.620345012,27.0282072 0.837593123,27.083553 L6.73787966,28.6720917 C6.95213556,28.7341881 7.07824121,28.9553299 7.0225788,29.1713467 C6.96724903,29.3410373 6.80908493,29.4559144 6.63060172,29.4560458 Z" id="Path" fill="#24D9F4"></path>
                    <path d="M42.8575358,96.7358166 C42.7101254,96.7483465 42.5672279,96.6812821 42.4826715,96.5598858 C42.398115,96.4384896 42.3847458,96.2812045 42.4475998,96.1472784 C42.5104539,96.0133522 42.6399821,95.9231316 42.7873926,95.9106017 L45.5601146,95.427851 L45.0773639,92.6551289 C45.0421857,92.4348959 45.1883796,92.2265696 45.4074499,92.1847564 L48.1801719,91.7020057 L47.6974212,88.9292837 C47.662243,88.7090506 47.8084369,88.5007243 48.0275072,88.4589112 C48.2477403,88.423733 48.4560665,88.5699269 48.4978797,88.7889971 L49.0548997,91.9619484 C49.0725687,92.0689886 49.0473691,92.1786809 48.9847564,92.2672779 C48.9216694,92.3546718 48.8268889,92.4139096 48.7206877,92.4323209 L45.9479656,92.9150716 L46.4348424,95.6877937 C46.4525114,95.7948338 46.4273118,95.9045261 46.3646991,95.9931232 C46.3016121,96.0805171 46.2068315,96.1397549 46.1006304,96.1581662 L42.9111748,96.7275645 L42.8575358,96.7358166 Z" id="Path" fill="#24D9F4"></path>
                    <path d="M44.1489971,16.7889971 C44.1133528,16.7930525 44.0773635,16.7930525 44.0417192,16.7889971 L40.5799427,15.8606304 C40.4394244,15.8221048 40.3296431,15.7123235 40.2911175,15.5718052 L39.3627507,12.1100287 C39.3261667,11.9703213 39.3652895,11.8216545 39.4659026,11.7180516 L42.0034384,9.18464183 C42.1104151,9.07509422 42.2692588,9.03379488 42.4160458,9.0773639 L45.8819484,10.0057307 C46.0224667,10.0442563 46.132248,10.1540376 46.1707736,10.2945559 L47.0950143,13.7563324 C47.1315983,13.8960398 47.0924755,14.0447066 46.9918625,14.1483095 L44.4543266,16.6817192 C44.3714058,16.7575659 44.261136,16.7963094 44.1489971,16.7889971 Z M41.0173066,15.1385673 L44.0252149,15.9637822 L46.2285387,13.7604585 L45.4074499,10.7277937 L42.3954155,9.9025788 L40.1920917,12.1059026 L41.0173066,15.1385673 Z" id="Shape" fill="#FFD213"></path>
                    <path d="M67.6387393,104.171003 C67.596668,104.170477 67.5549246,104.16352 67.514957,104.150372 L63.9541547,102.990946 C63.7875283,102.934671 63.6748878,102.778962 63.6735817,102.603095 L63.6735817,98.8524928 C63.6748878,98.6766251 63.7875283,98.5209162 63.9541547,98.4646418 L67.5232092,97.309341 C67.689815,97.2564854 67.8716477,97.3143412 67.9770774,97.4537536 L70.1845272,100.490544 C70.2865147,100.633787 70.2865147,100.825926 70.1845272,100.969169 L67.9770774,104.001834 C67.8983121,104.109644 67.7722469,104.172677 67.6387393,104.171003 Z M64.4781662,102.326648 L67.4860745,103.300401 L69.342808,100.746361 L67.4860745,98.1881948 L64.4781662,99.1660745 L64.4781662,102.326648 Z" id="Shape" fill="#FF507B"></path>
                    <g transform="translate(23.931232, 13.203438)" fill="#58D8B0" id="Path">
                        <path d="M5.50418338,63.9541547 L0.524011461,63.7767335 C0.416024628,63.7730196 0.313803444,63.7270941 0.239312321,63.6488252 C0.166591229,63.568978 0.128075706,63.463801 0.132034384,63.3558739 L0.309455587,58.375702 C0.309455587,58.1478252 0.494186235,57.9630946 0.722063037,57.9630946 C0.949939839,57.9630946 1.13467049,58.1478252 1.13467049,58.375702 L0.973753582,62.9473926 L5.54544413,63.1083095 C5.76522643,63.1193122 5.93769644,63.3008595 5.9374212,63.5209169 C5.94341459,63.637553 5.89969793,63.7512655 5.81711494,63.8338485 C5.73453195,63.9164315 5.62081948,63.9601481 5.50418338,63.9541547 Z"></path>
                        <path d="M77.5206877,6.05295129 C77.3922705,6.0516622 77.2717755,5.99065211 77.1947278,5.88790831 L73.4441261,0.899484241 C73.3254565,0.786285535 73.285094,0.61355248 73.3413122,0.459487793 C73.3975303,0.305423106 73.5396548,0.199279491 73.7033406,0.189112136 C73.8670264,0.178944781 74.0211939,0.26668419 74.0960458,0.41260745 L77.8548997,5.40103152 C77.9860814,5.58187173 77.9495017,5.83427149 77.7723782,5.9704298 C77.6998303,6.02485004 77.6113737,6.05385223 77.5206877,6.05295129 Z"></path>
                        <path d="M73.1470487,5.43404011 C73.0193481,5.43373317 72.8989861,5.37431394 72.8210888,5.27312321 C72.6889863,5.09334223 72.7237129,4.84111747 72.8994842,4.70372493 L77.8920344,0.948997135 C78.004085,0.82844636 78.177061,0.78601643 78.3321771,0.841032913 C78.4872932,0.896049397 78.5948775,1.03798828 78.6059285,1.20220064 C78.6169794,1.36641299 78.5293832,1.52148691 78.3830372,1.59679083 L73.3904871,5.35151862 C73.3201977,5.40424495 73.2349116,5.4331555 73.1470487,5.43404011 Z"></path>
                    </g>
                    <path d="M114.882292,74.5622923 L114.469685,74.5622923 C114.417842,73.9018736 114.031083,73.3141277 113.445068,73.0052143 C112.859054,72.6963009 112.155592,72.7093448 111.581433,73.0397708 C110.758118,73.5169357 109.746719,73.5349208 108.906961,73.0873293 C108.067202,72.6397378 107.518253,71.7900874 107.455358,70.8405731 C107.415041,70.1692861 107.028381,69.567324 106.434653,69.2515109 C105.840924,68.9356978 105.125652,68.9515263 104.546476,69.2932951 C104.419955,69.3929876 104.246988,69.409939 104.10352,69.3367065 C103.960053,69.2634739 103.872318,69.1134481 103.87884,68.9525027 C103.885361,68.7915572 103.984946,68.6491215 104.133868,68.5877364 C104.956838,68.1081048 105.969495,68.0888706 106.810085,68.5369049 C107.650674,68.9849392 108.199288,69.8363307 108.259943,70.7869341 C108.301192,71.457864 108.687661,72.0593236 109.280776,72.3756515 C109.873891,72.6919794 110.588672,72.6778532 111.168825,72.3383381 C111.991176,71.858948 113.00305,71.8392797 113.843409,72.2863508 C114.683768,72.7334219 115.232909,73.5835501 115.2949,74.5334097 L114.882292,74.5622923 Z" id="Path" fill="#FF507B"></path>
                    <path d="M110.611805,42.0281948 C109.512427,42.0263352 108.590189,41.1982757 108.470372,40.1054441 C108.415989,39.6290721 108.554021,39.1507001 108.853824,38.7765267 C109.153628,38.4023534 109.590395,38.1633409 110.067163,38.1125501 C110.289548,38.0906807 110.488929,38.2498193 110.516905,38.4715186 C110.538775,38.6939035 110.379636,38.893284 110.157937,38.9212607 C109.896213,38.94928 109.656413,39.0803469 109.49151,39.2855087 C109.326606,39.4906704 109.250169,39.7530438 109.279083,40.0146705 C109.363317,40.7500148 110.024232,41.2802196 110.760344,41.2029799 C111.231273,41.1543665 111.66268,40.9178367 111.956905,40.5469341 C112.25199,40.1785916 112.38855,39.7080553 112.336504,39.2389685 C112.1939,37.9607915 111.044701,37.0384811 109.76596,37.1759312 C108.11514,37.3637724 106.926026,38.8497037 107.104642,40.5015473 C107.126511,40.7239321 106.967373,40.9233126 106.745673,40.9512894 C106.521865,40.973027 106.321861,40.811556 106.295931,40.5881948 C106.066731,38.4903891 107.578065,36.6026049 109.675186,36.3672206 C111.399971,36.1766414 112.953035,37.4194619 113.145215,39.1440688 C113.30197,40.5681593 112.275107,41.8498916 110.851117,42.0075645 C110.768596,42.0199427 110.690201,42.0281948 110.611805,42.0281948 Z" id="Path" fill="#FF507B"></path>
                </g>
                <path d="M17.8493983,111.465903 C17.7768915,111.466191 17.7046918,111.456472 17.6348424,111.43702 L7.34441261,108.680802 C7.13605376,108.623938 6.95829221,108.487655 6.84928367,108.301203 C6.74177723,108.11367 6.7121467,107.891441 6.76676218,107.682292 L9.52710602,97.3753582 C9.6495223,96.9471934 10.0895756,96.6933867 10.52149,96.8018338 L20.8366762,99.5580516 C21.2685176,99.6786857 21.5250183,100.122065 21.4143266,100.556562 L18.6539828,110.846991 C18.5593968,111.213357 18.2277681,111.468456 17.8493983,111.465903 Z M8.54922636,107.339828 L17.2717479,109.675186 L19.607106,100.956791 L10.8887106,98.6131805 L8.54922636,107.339828 Z" id="Shape" fill="#FFD213"></path>
                <path d="M5.01730659,71.7318052 C4.74797473,71.7290778 4.49692294,71.5950808 4.34475645,71.3728367 L0.152664756,65.2249857 C0.0291894556,65.0471112 -0.016956516,64.8268014 0.024756447,64.6143266 C0.066659092,64.4029668 0.189569702,64.2163796 0.36722063,64.0944413 L6.51919771,59.9023496 C6.75531941,59.6701211 7.10740274,59.6015538 7.41341493,59.7282032 C7.71942712,59.8548526 7.9200775,60.1521799 7.92302447,60.4833519 C7.92597143,60.8145238 7.73064401,61.1153748 7.4269341,61.2474499 L1.94750716,64.9815473 L5.66097421,70.4568481 C5.82413314,70.7076771 5.83872851,71.0271757 5.69911819,71.2918357 C5.55950787,71.5564958 5.28756875,71.7248451 4.98842407,71.7318052 L5.01730659,71.7318052 Z" id="Path" fill="#58D8B0"></path>
                <path d="M134.262464,81.968596 C134.066261,81.9687136 133.876847,81.8967659 133.730201,81.7664183 C133.515031,81.5770958 133.413501,81.289689 133.462006,81.0072206 L134.980401,72.6436676 C135.037854,72.3650198 135.234794,72.1356198 135.501531,72.0366418 C135.768268,71.9376637 136.067179,71.983069 136.292493,72.1567908 L143.269685,77.7393696 C143.501001,77.9273326 143.612983,78.225425 143.562636,78.5191977 C143.507815,78.8136145 143.297789,79.0552227 143.013868,79.1504871 L134.510029,81.9273352 C134.429854,81.9526438 134.346514,81.9665339 134.262464,81.968596 Z M136.325501,74.2817192 L135.298109,79.9550716 L141.074613,78.0694556 L136.325501,74.2817192 Z" id="Shape" fill="#24D9F4"></path>
                <path d="M73.0934097,143.587393 C70.791854,143.587393 68.9260745,141.721613 68.9260745,139.420057 C68.9260745,137.118502 70.791854,135.252722 73.0934097,135.252722 C75.3949654,135.252722 77.260745,137.118502 77.260745,139.420057 C77.2562047,141.71973 75.3930822,143.582852 73.0934097,143.587393 Z M73.0934097,136.882521 C72.0646544,136.880853 71.1363461,137.499496 70.7418872,138.449624 C70.3474284,139.399752 70.5646198,140.493966 71.2920607,141.221406 C72.0195015,141.948847 73.1137154,142.166039 74.063843,141.77158 C75.0139707,141.377121 75.6326143,140.448813 75.6309456,139.420057 C75.6331374,138.745252 75.3668902,138.097275 74.8908909,137.618954 C74.4148917,137.140632 73.7682173,136.871235 73.0934097,136.870143 L73.0934097,136.882521 Z" id="Shape" fill="#58D8B0"></path>
                <path d="M47.1734097,23.1761605 C46.9180085,23.1755466 46.6772844,23.0567081 46.52149,22.8543266 L42.6058453,17.6513467 C42.3695184,17.4256622 42.2886255,17.0817833 42.3995578,16.7744107 C42.51049,16.4670381 42.7923489,16.2540781 43.1183345,16.2313349 C43.4443201,16.2085918 43.7530197,16.3803501 43.9055587,16.669341 L47.8253295,21.8681948 C48.0913498,22.2295565 48.0198686,22.7372561 47.6644126,23.0111175 C47.5227014,23.1174055 47.3505493,23.1752718 47.1734097,23.1761605 Z" id="Path" fill="#58D8B0"></path>
                <path d="M42.6140974,22.5324928 C42.2705881,22.5200639 41.9707592,22.2960062 41.8615102,21.9700955 C41.7522613,21.6441847 41.8564758,21.2846871 42.1230946,21.0677364 L47.3260745,17.1520917 C47.551759,16.9157648 47.8956379,16.8348719 48.2030105,16.9458042 C48.5103831,17.0567365 48.7233431,17.3385953 48.7460863,17.6645809 C48.7688294,17.9905666 48.5970711,18.2992662 48.3080802,18.4518052 L43.1009742,22.3715759 C42.9607184,22.4771529 42.7896444,22.5336943 42.6140974,22.5324928 Z" id="Path" fill="#58D8B0"></path>
                <path d="M108.103152,26.637937 C107.778268,26.6287814 107.489016,26.4297803 107.364327,26.1296369 C107.239638,25.8294934 107.302739,25.4841144 107.525501,25.2474499 L114.036447,18.7406304 C114.228953,18.4784279 114.557529,18.3537748 114.875509,18.4223127 C115.193488,18.4908506 115.44154,18.739791 115.508939,19.0580139 C115.576339,19.3762368 115.450511,19.7043649 115.187622,19.8959312 L108.689054,26.4068768 C108.533532,26.5607225 108.321821,26.6442141 108.103152,26.637937 Z" id="Path" fill="#24D9F4"></path>
                <path d="M128.246648,119.977994 C127.812532,119.979059 127.45182,119.643597 127.421433,119.210544 L127.177994,114.98957 L122.961146,115.233009 C122.512822,115.254272 122.129711,114.91332 122.098797,114.465559 L121.859484,110.248711 L117.63851,110.492149 C117.319046,110.563611 116.987545,110.43948 116.793589,110.175766 C116.599633,109.912052 116.579898,109.558623 116.74329,109.274955 C116.906681,108.991288 117.222303,108.831023 117.547736,108.866476 L122.577421,108.57765 C123.028941,108.549298 123.419108,108.889773 123.452149,109.340974 L123.691461,113.557822 L127.912436,113.314384 C128.359189,113.295429 128.73976,113.635747 128.770659,114.081834 L129.059484,119.111519 C129.078439,119.558272 128.738121,119.938843 128.292034,119.969742 L128.246648,119.977994 Z" id="Path" fill="#24D9F4"></path>
                <path d="M81.3909456,17.3790258 C81.0203021,17.3577011 80.7095285,17.0914914 80.6315422,16.7285183 C80.5535559,16.3655452 80.7275586,15.9951792 81.0567335,15.8234957 C81.7538035,15.4566466 82.2113064,14.7551078 82.2659351,13.9692957 C82.3205637,13.1834837 81.9645327,12.425389 81.3249284,11.965616 C80.2435527,11.1624775 79.6526939,9.85853382 79.7617781,8.51595965 C79.8708622,7.17338549 80.6644722,5.9819299 81.8613181,5.36389685 C82.564945,5.00463694 83.0316152,4.30585005 83.0938811,3.51827056 C83.156147,2.73069106 82.8050799,1.96725401 82.1666476,1.50189112 C81.8778846,1.21534673 81.8410231,0.761110814 82.0798055,0.431755817 C82.3185878,0.10240082 82.761769,-0.0038041651 83.1238968,0.181547278 C84.2207121,0.979173727 84.8248975,2.28894713 84.7197255,3.64103826 C84.6145535,4.9931294 83.8151001,6.19372119 82.6081375,6.812149 C81.9021428,7.17008951 81.4331418,7.86946916 81.3699861,8.65849475 C81.3068303,9.44752035 81.6586122,10.2125977 82.2986819,10.6782808 L82.3193123,10.6782808 C83.4006879,11.4814193 83.9915468,12.785363 83.8824626,14.1279372 C83.7733785,15.4705114 82.9797684,16.661967 81.7829226,17.28 L81.745788,17.28 C81.6368733,17.3402906 81.5153406,17.3742067 81.3909456,17.3790258 Z" id="Path" fill="#FF507B"></path>
                <path d="M41.1452149,124.161834 C39.5499215,124.16483 38.0191278,123.53232 36.8912321,122.404126 C35.9589644,121.47509 35.4349494,120.213105 35.4349494,118.896963 C35.4349494,117.58082 35.9589644,116.318836 36.8912321,115.389799 C38.5100129,113.773941 41.131477,113.773941 42.7502579,115.389799 C43.4030948,116.04083 43.770007,116.924902 43.770007,117.846877 C43.770007,118.768851 43.4030948,119.652923 42.7502579,120.303954 C41.5991834,121.45012 39.7381232,121.45012 38.5870487,120.303954 C38.3525166,119.975694 38.3897083,119.525983 38.6749802,119.240711 C38.9602521,118.955439 39.4099632,118.918247 39.7382235,119.152779 C40.2531106,119.664161 41.084196,119.664161 41.5990831,119.152779 C42.3193999,118.431171 42.3193999,117.262582 41.5990831,116.540974 C40.6164876,115.559904 39.0250024,115.559904 38.0424069,116.540974 C36.7381648,117.847326 36.7381648,119.963104 38.0424069,121.269456 C39.7564626,122.966467 42.5174629,122.966467 44.2315186,121.269456 C44.4219099,121.002977 44.7518701,120.874307 45.0723981,120.94155 C45.3929261,121.008794 45.6433554,121.259223 45.7105988,121.579751 C45.7778422,121.900279 45.6491724,122.230239 45.3826934,122.42063 C44.2556379,123.537961 42.7322492,124.16393 41.1452149,124.161834 Z" id="Path" fill="#FF507B"></path>
                <path d="M135.70659,42.147851 C135.635726,42.1477665 135.56511,42.1394588 135.49616,42.1230946 L132.034384,41.1947278 C131.753347,41.1176766 131.533785,40.898114 131.456734,40.6170774 L130.528367,37.1553009 C130.454701,36.8738799 130.53465,36.5744614 130.738797,36.3672206 L133.272206,33.8338109 C133.479447,33.6296646 133.778866,33.5497152 134.060287,33.6233811 L137.522063,34.5517479 C137.802067,34.628048 138.021408,34.8458229 138.099713,35.1252722 L139.023954,38.5911748 C139.101332,38.8713168 139.020786,39.1713901 138.813524,39.3751289 L136.280115,41.9126648 C136.126767,42.0626116 135.921064,42.1469645 135.70659,42.147851 Z M132.909112,39.7423496 L135.463152,40.4272779 L137.33639,38.5581662 L136.651461,36.0041261 L134.097421,35.3191977 L132.228309,37.1883095 L132.909112,39.7423496 Z" id="Shape" fill="#FFD213"></path>
                <path d="M20.7582808,33.895702 C20.5867501,33.8957944 20.4194537,33.8424326 20.2796562,33.7430372 L15.7079656,30.4421777 C15.4243538,30.232866 15.305002,29.8665222 15.4108883,29.5303152 L17.1562178,24.1664183 C17.2687665,23.8331655 17.5801843,23.6078846 17.9319198,23.6052722 L23.5846418,23.6052722 C23.9228819,23.6103154 24.2237886,23.8212772 24.3438395,24.1375358 L26.0891691,29.5014327 C26.1950553,29.8376396 26.0757035,30.2039834 25.7920917,30.4132951 L21.2204011,33.7141547 C21.0886502,33.8206746 20.9273053,33.8840601 20.7582808,33.895702 Z M17.1438395,29.4519198 L20.7582808,32.0761032 L24.3727221,29.4519198 L22.9946132,25.2061891 L18.5260745,25.2061891 L17.1438395,29.4519198 Z" id="Shape" fill="#FF507B"></path>
                <path d="M103.176619,132.801834 C102.836876,132.791569 102.538181,132.574043 102.42415,132.253843 C102.310119,131.933644 102.404082,131.576282 102.66086,131.353582 C103.265249,130.86283 103.648741,130.151125 103.726208,129.376449 C103.803676,128.601773 103.56871,127.828222 103.073467,127.227507 C102.582072,126.624079 101.8705,126.24131 101.096162,126.163877 C100.321825,126.086443 99.5485473,126.320727 98.9473926,126.8149 C98.7291326,127.056037 98.3895906,127.14648 98.080299,127.045866 C97.7710075,126.945252 97.5496634,126.67235 97.5150494,126.348952 C97.4804354,126.025554 97.6390085,125.711988 97.92,125.548195 C99.1818334,124.523692 100.894381,124.250193 102.412543,124.830721 C103.930705,125.41125 105.023836,126.75761 105.280165,128.362641 C105.536494,129.967672 104.917077,131.587532 103.655244,132.612034 C103.520027,132.724728 103.35232,132.791232 103.176619,132.801834 Z" id="Path" fill="#FFD213"></path>
                <g id="Group" transform="translate(28.469914, 43.736390)" fill="#FFFFFF">
                    <path d="M10.7030372,1.6504298 C11.505053,1.75964293 12.2776336,2.02605005 12.9765043,2.43438395 C13.8017192,2.88412607 14.0410315,3.6722063 13.7274499,4.82750716 C13.4138682,5.98280802 12.7000573,6.44492837 11.5901433,6.23862464 C10.6262971,6.04206856 9.63696207,6.00305253 8.66063037,6.12309456 C7.84592926,6.24228035 7.06319884,6.52282889 6.3582808,6.94830946 C5.68233556,7.35187842 5.15978897,7.9687737 4.87289398,8.70189112 C4.57169054,9.4487106 4.71610315,10.3935817 5.28550143,11.5323782 C5.70986149,12.3586814 6.47135063,12.9606491 7.37329513,13.182808 C8.30010473,13.4534768 9.27930885,13.491738 10.2244126,13.294212 C10.9258453,13.1374212 11.5901433,12.6230372 12.2173066,11.7510602 C12.7108291,10.9125748 13.779586,10.6152926 14.6351862,11.07851 C15.6199427,11.5021203 15.8289971,12.2118052 15.2623496,13.2075645 C14.9025074,13.9081008 14.4546412,14.5597946 13.9296275,15.1468195 C13.7182791,15.3390425 13.4965111,15.5194873 13.2653295,15.6873352 C12.6918654,16.101018 12.0384021,16.3905093 11.3467049,16.5373066 C10.6812012,16.6739078 10.004249,16.7471292 9.32492837,16.7559885 C8.43100939,16.7778207 7.53867309,16.669406 6.67598854,16.4341547 C5.96959003,16.2426464 5.28924535,15.9655202 4.65008596,15.6089398 C3.98181518,15.2419155 3.37600442,14.7711936 2.85524355,14.2143266 C1.85738682,13.1924551 1.09300174,11.966342 0.6147851,10.6205158 C-0.160916905,8.52997135 0.0866475645,6.68424069 1.35747851,5.08332378 C1.97255878,4.28733784 2.75046389,3.63181564 3.63919771,3.16057307 C4.46920863,2.71119371 5.34475648,2.351569 6.25100287,2.0877937 C6.98309265,1.89190031 7.72946666,1.75393839 8.48320917,1.67518625 C9.22015838,1.58789822 9.96432464,1.57959896 10.7030372,1.6504298 Z" id="Path"></path>
                    <path d="M23.9972493,2.49627507 C23.8617586,3.53514502 23.5998766,4.5535751 23.2174212,5.52893983 C21.9080802,9.36068768 21.2905444,11.447106 21.3648138,11.7881948 C21.434957,12.130659 21.7072779,12.3287106 22.1900287,12.3782235 L26.4935244,13.4840115 C27.0918052,13.566533 27.4796562,13.7728367 27.6488252,14.1070487 C27.8203299,14.5470722 27.8084418,15.0374572 27.6158166,15.4686533 C27.4412701,16.0186153 27.0903308,16.4957187 26.6173066,16.8261318 C26.111517,17.1613185 25.5037328,17.3074205 24.9008596,17.2387393 C23.8246925,17.1067347 22.7627001,16.8774879 21.7279083,16.5538109 C20.6351314,16.2766664 19.5723406,15.8924585 18.554957,15.4067622 C18.0090692,15.1414699 17.5101338,14.7888704 17.0778223,14.3628653 C16.7750326,14.0310736 16.5682197,13.6231529 16.4795415,13.182808 C16.40373,12.2975868 16.4509411,11.4061303 16.6198281,10.5338682 C16.8602651,8.93008346 17.1936634,7.34161988 17.6183381,5.7765043 C17.9109077,4.50185161 18.3254245,3.25830113 18.8561605,2.06303725 C19.1216555,1.51158213 19.5379617,1.04663533 20.0568481,0.722063037 C20.5598119,0.443933254 21.1351785,0.324544686 21.7072779,0.379598854 C22.2981595,0.416603524 22.8682129,0.611846827 23.3577077,0.94487106 C23.8521474,1.29546814 24.1009814,1.89909125 23.9972493,2.49627507 Z" id="Path"></path>
                    <path d="M37.0975358,1.08515759 C38.6461891,1.02739255 40.9719198,5.23186246 44.0747278,13.6985673 C44.2397708,14.1318052 44.2480229,14.4041261 44.1077364,14.5237822 C42.6636103,15.9348997 41.3955301,16.6610888 40.3034957,16.7023496 L40.1013181,16.7023496 C39.6887106,16.7023496 39.32149,15.9060172 38.9996562,14.2844699 C36.422235,14.7823496 34.5930086,14.9859026 33.5119771,14.8951289 C33.3180516,16.2608596 33.0704871,16.9581662 32.7692837,16.9581662 L32.5588539,16.9581662 C30.7901433,17.0241834 29.3460172,16.5991977 28.2264756,15.6832092 L28.2264756,15.4727794 C29.0716753,11.4856969 30.3730797,7.60917319 32.1049857,3.91977077 C33.0127221,2.25283668 33.837937,1.40561605 34.5806304,1.37810888 C35.4053652,1.1829892 36.2500342,1.08467527 37.0975358,1.08515759 Z M34.6218911,11.7881948 C35.7128385,11.8907327 36.8124215,11.8532942 37.8938682,11.6767908 L36.111404,7.53008596 L34.6218911,11.7881948 Z" id="Shape"></path>
                    <path d="M52.6363324,2.06303725 C54.8465135,1.988635 56.9570785,2.98401063 58.3055587,4.73673352 L58.3055587,4.89352436 C57.9287106,6.12034384 57.4404585,6.73375358 56.8408023,6.73375358 C56.3262888,6.44743434 55.8399988,6.11310997 55.3884241,5.73524355 C54.6632677,5.41298895 53.883194,5.23232555 53.0902006,5.20297994 C52.6774845,5.23162397 52.321016,5.50221594 52.1824642,5.89203438 C52.1824642,6.46143266 53.2029799,7.17524355 55.2440115,8.03346705 C57.8406877,9.40882521 59.1390258,10.9918625 59.1390258,12.7825788 L59.1390258,12.8568481 C59.1390258,14.5677937 58.2477937,16.0215473 56.4653295,17.2181089 C55.3779677,17.7809417 54.1701587,18.0712123 52.945788,18.0639542 C49.6201719,18.0639542 46.9904871,16.8137536 45.0567335,14.3133524 L44.9783381,13.9255014 L44.9783381,13.8594842 C44.9783381,13.0879083 45.5436103,12.3245845 46.6659026,11.5612607 L46.8887106,11.5612607 C48.1677937,12.9366189 49.3959885,13.624298 50.5732951,13.624298 L51.0271633,13.624298 C51.5883095,13.5211461 51.8730086,13.2653295 51.8730086,12.8568481 C51.8730086,12.2874499 51.0285387,11.6217765 49.3395989,10.8598281 C47.6093983,9.60550143 46.744298,8.40756447 46.744298,7.26601719 L46.744298,7.01432665 C46.744298,4.95679083 48.0206304,3.4026361 50.5732951,2.35186246 C51.2405676,2.14348404 51.9374898,2.04591493 52.6363324,2.06303725 Z" id="Path"></path>
                    <path d="M65.9181662,1.23782235 C68.2399568,1.07544508 70.4977835,2.04154915 71.9834957,3.83312321 L71.9834957,3.99816619 C71.631404,5.30200573 71.1404011,5.96630372 70.5104871,5.99106017 C69.9598915,5.70815742 69.4364336,5.37529897 68.9467049,4.99667622 C68.1716508,4.684161 67.3438824,4.52308931 66.5081948,4.52217765 C66.0764648,4.57088861 65.7132658,4.8679047 65.5798281,5.28137536 C65.5963324,5.88653295 66.7048711,6.6017192 68.9054441,7.4269341 C71.6919198,8.78028653 73.1181662,10.394957 73.1841834,12.2709456 L73.1841834,12.353467 C73.2502006,14.1524355 72.3672206,15.7148424 70.5352436,17.0406877 C69.4129842,17.6726482 68.1544945,18.0237229 66.8671633,18.0639542 C63.3682521,18.1932378 60.5542693,16.9787966 58.4252149,14.4206304 L58.3303152,14.0080229 L58.3303152,13.9378797 C58.302808,13.1291691 58.8653295,12.3039542 60.0178797,11.462235 L60.2530659,11.462235 C61.6504298,12.8623496 62.9680229,13.5390258 64.2058453,13.4922636 L64.6844699,13.4922636 C65.2703725,13.3643553 65.5591977,13.0796562 65.5426934,12.6670487 C65.522063,12.0687679 64.6060745,11.4003438 62.8029799,10.6659026 C60.9324928,9.40882521 59.9766189,8.18063037 59.9353582,6.98131805 L59.9353582,6.73787966 C59.8555874,4.5730659 61.1387966,2.88962751 63.7849857,1.68756447 C64.4668126,1.42249392 65.1873603,1.27057961 65.9181662,1.23782235 Z" id="Path"></path>
                    <path d="M84.3039542,6.18911175 L81.7953009,6.22212034 C81.1433811,6.19323782 80.7018911,6.3582808 80.474957,6.72137536 C80.440172,7.23444645 80.6159848,7.7395356 80.9618338,8.12011461 L84.3122063,8.33054441 C84.7447537,8.4176656 85.0617165,8.78915958 85.0796562,9.23002865 L85.0796562,10.1955301 C85.0796562,10.7566762 84.7784527,11.0991404 84.1347851,11.2270487 L81.8489398,11.5818911 C81.4517124,11.5768596 81.0557831,11.628261 80.6730086,11.7345559 C80.5120917,11.8088252 80.4006877,12.0027507 80.3429226,12.3204585 C80.2823898,12.6387058 80.3380224,12.9681091 80.4997135,13.2488252 C80.6979521,13.5697177 81.0941248,13.7075169 81.4487106,13.5789112 L85.1910602,13.40149 C85.6367039,13.2687757 86.1191649,13.3661957 86.4783954,13.6614327 C86.7682799,14.0350003 86.8974532,14.5086354 86.8373639,14.9776504 C86.8315159,16.2005452 85.9502222,17.2434963 84.7454441,17.4532951 C83.6711506,17.6387139 82.584129,17.7407946 81.4940974,17.7586246 C80.3646895,17.8350897 79.2303273,17.7894386 78.1107163,17.6224642 C77.5107518,17.5276732 76.9307052,17.3338596 76.3942693,17.0489398 C76.0082359,16.8195748 75.6927649,16.4884016 75.4824069,16.0916905 C75.1547805,15.2653333 74.9437032,14.3974165 74.8552436,13.512894 C74.6212766,11.9092749 74.4834945,10.2930904 74.4426361,8.6730086 C74.3567998,7.37406352 74.3941008,6.06990974 74.5540401,4.77799427 C74.6247025,4.21168107 74.895423,3.68926377 75.3173639,3.30498567 C75.715802,2.99897468 76.1618744,2.76060478 76.6377077,2.59942693 C77.3250327,2.37734443 78.0285859,2.20904346 78.7420057,2.09604585 C79.7712899,1.92088967 80.8101921,1.80790562 81.8530659,1.75770774 C82.6774723,1.67984433 83.5080768,1.69645642 84.3287106,1.80722063 C84.7508704,1.88535048 85.1450407,2.07318613 85.4716332,2.35186246 C85.7977371,2.66951081 86.0242681,3.07525931 86.123553,3.51954155 C86.2639071,4.04861333 86.2510287,4.60667646 86.0864183,5.1287106 C85.9268768,5.68160458 85.3327221,6.03507163 84.3039542,6.18911175 Z" id="Path"></path>
                    <path d="M17.8287679,25.9323782 C19.0005731,25.8306017 20.9260745,28.930659 23.6052722,35.2325501 C23.7414327,35.554384 23.762063,35.7648138 23.6589112,35.8555874 C22.6191404,36.9820057 21.6825215,37.5802865 20.8573066,37.6545559 L20.7046418,37.6545559 C20.3910602,37.6793123 20.0816046,37.0810315 19.7762751,35.8597135 C17.8507736,36.3383381 16.4754155,36.5625215 15.6502006,36.5322636 C15.5553009,37.5802865 15.394384,38.1125501 15.1633238,38.1331805 L15.006533,38.1331805 C13.8343806,38.2900058 12.6458373,38.0046377 11.6726648,37.3327221 L11.6726648,37.1718052 C12.1612446,34.1135608 13.0002336,31.1217206 14.1730659,28.2553582 C14.8002292,26.9570201 15.39851,26.2830946 15.9679083,26.2335817 C16.5748084,26.0631318 17.1990867,25.9620845 17.8287679,25.9323782 Z M16.3516332,34.1432665 C17.1824387,34.1786692 18.0143668,34.1079553 18.8272779,33.9328367 L17.3295129,30.8589112 L16.3516332,34.1432665 Z" id="Shape"></path>
                </g>
                <path d="M72.1444126,69.0292264 C72.80485,69.0567301 73.4618201,69.1395415 74.1084241,69.2767908 C74.832228,69.4266031 75.5282602,69.6883112 76.1714613,70.0524928 C76.6934661,70.3783446 77.0936676,70.8669964 77.3102579,71.4429799 C77.6878783,72.4383399 77.9172602,73.4837653 77.9910602,74.545788 C78.1000839,76.4422585 77.9865304,78.3449719 77.6527221,80.2150143 C77.2896275,82.5971347 76.5304298,86.5416619 75.3751289,92.048596 C74.2198281,97.5555301 73.4028653,100.683095 72.9242407,101.431289 C72.4799108,102.147571 71.815432,102.700579 71.0303725,103.00745 C70.3603154,103.203598 69.6655095,103.302261 68.9673352,103.300401 C67.999594,103.336915 67.0308071,103.264948 66.0790831,103.085845 C65.2072743,102.934382 64.3691409,102.62986 63.6034384,102.186361 C62.9481581,101.843625 62.6008434,101.106845 62.753467,100.383266 C62.8442407,99.9816619 63.8661318,96.1540401 65.8191404,88.9004011 C66.7048711,85.5582808 67.384298,82.5393696 67.8574212,79.8436676 L62.8731232,82.7525501 C60.848596,83.132149 59.2916905,82.2684241 58.2024069,80.1613754 L57.269914,78.3541547 C56.1173639,76.0930659 56.916447,74.2322063 59.6671633,72.7715759 C61.7144069,71.419708 63.9351151,70.3509921 66.2688825,69.5944986 C68.1556515,68.9464773 70.1687051,68.7528057 72.1444126,69.0292264 Z" id="Path" fill="#24D9F4"></path>
                <path d="M71.2366762,68.12149 C71.8960866,68.1449084 72.5520401,68.2277656 73.1965616,68.3690544 C73.9213282,68.5155279 74.6178734,68.7774289 75.2595989,69.1447564 C75.7824302,69.4696674 76.1828904,69.9586351 76.3983954,70.5352436 C76.7756224,71.5292926 77.0049981,72.5732992 77.0791977,73.6339255 C77.1883171,75.5317666 77.0747641,77.4358572 76.7408596,79.3072779 C76.377765,81.6866476 75.6185673,85.6311748 74.4632665,91.1408596 C73.3079656,96.6505444 72.4896275,99.7781089 72.0082521,100.523553 C71.5648349,101.240628 70.9000579,101.793884 70.114384,102.099713 C69.4440518,102.294587 68.7494302,102.393223 68.0513467,102.392665 C67.0834214,102.429366 66.1144595,102.356002 65.1630946,102.173983 C64.2919046,102.022468 63.4540128,101.719431 62.6874499,101.278625 C62.0320398,100.93415 61.6862522,100.195345 61.8416046,99.471404 C61.9296275,99.0753009 62.9515186,95.2490544 64.9072779,87.9926648 C65.7930086,84.6505444 66.4724355,81.6316332 66.9455587,78.9359312 L61.9612607,81.8448138 C59.9339828,82.2216619 58.3770774,81.357937 57.2905444,79.253639 L56.3580516,77.4464183 C55.2055014,75.1853295 56.0045845,73.3244699 58.7553009,71.8638395 C60.8031401,70.5119793 63.0236563,69.4419681 65.3570201,68.6826361 C67.245538,68.0359623 69.2599299,67.8437116 71.2366762,68.12149 Z" id="Path" fill="#FFFFFF"></path>
                <path d="M109.918625,93.4844699 C110.341949,94.4026256 110.637643,95.3743904 110.797479,96.3727221 C111.028357,97.3524363 111.081463,98.3656439 110.954269,99.3641261 C110.897894,99.7532303 110.747799,100.122804 110.516905,100.441032 L110.516905,100.519427 L110.516905,100.56894 C110.498534,100.574603 110.482567,100.586215 110.471519,100.601948 L110.434384,100.659713 C110.416012,100.665377 110.400045,100.676989 110.388997,100.692722 L110.351862,100.750487 C110.338064,100.751214 110.325349,100.758187 110.317317,100.769431 C110.309286,100.780674 110.306814,100.794964 110.310602,100.808252 C110.302739,100.816274 110.302739,100.829113 110.310602,100.837135 C109.353352,101.112206 107.755186,101.504183 105.516103,102.013066 C103.27702,102.521948 100.563438,103.015702 97.3753582,103.494327 C94.2202865,103.986705 91.2563897,104.323668 88.4836676,104.505215 C85.7109456,104.686762 83.8940974,104.487335 83.0331232,103.906934 C81.1763897,102.707622 80.9769628,100.586819 82.4348424,97.5445272 C83.8927221,94.502235 86.6723209,91.2302579 90.773639,87.728596 C94.8584527,84.2241834 96.5088825,81.6453868 95.7249284,79.9922063 C94.9409742,78.3390258 93.546361,77.614212 91.5410888,77.817765 C90.8865189,77.808324 90.2385405,77.9494958 89.6472206,78.2303725 C88.9045272,78.5494556 87.5896848,79.2508883 85.7026934,80.3346705 C83.815702,81.4184527 82.2766762,81.2396562 81.085616,79.7982808 C79.8918052,78.3569054 79.8918052,76.4754155 81.085616,74.1538109 C82.2794269,71.8322063 85.4757593,69.930086 90.6746132,68.4474499 C92.2035998,68.0939441 93.7732713,67.9482186 95.3412034,68.014212 C98.0726648,67.9206877 100.868768,69.0704871 103.729513,71.4636103 C106.590258,73.8567335 107.658911,76.7257307 106.935473,80.0706017 C106.214785,83.4099713 104.056848,86.6943266 100.461662,89.9236676 C96.8664756,93.1530086 94.6287679,95.185788 93.7485387,96.0220057 L108.565272,92.9315759 C108.648605,92.893761 108.734014,92.8606994 108.821089,92.8325501 L109.085158,92.7830372 C109.164359,92.7896963 109.242183,92.8077626 109.316218,92.8366762 L109.514269,92.9480802 C109.599119,93.0014831 109.672137,93.0716926 109.728825,93.154384 C109.808737,93.2539652 109.872761,93.3653109 109.918625,93.4844699 Z" id="Path" fill="#24D9F4"></path>
                <path d="M109.006762,92.1187393 C109.431359,93.03641 109.727108,94.0083535 109.885616,95.0069914 C110.118562,95.9864092 110.171687,96.999992 110.042407,97.9983954 C109.989169,98.3896054 109.838807,98.7612544 109.605043,99.0794269 L109.605043,99.1536963 L109.605043,99.2073352 C109.587048,99.2116192 109.571912,99.2237278 109.563782,99.2403438 L109.522521,99.2981089 C109.504526,99.3023928 109.48939,99.3145014 109.481261,99.3311175 L109.44,99.3888825 C109.411117,99.3888825 109.398739,99.413639 109.402865,99.4466476 C109.406991,99.4796562 109.402865,99.4466476 109.402865,99.4755301 C108.451117,99.7506017 106.852951,100.142579 104.608367,100.651461 C102.363782,101.160344 99.6667049,101.656848 96.5171347,102.140974 C93.3648138,102.636103 90.4009169,102.973066 87.6254441,103.151862 C84.8499713,103.330659 83.0331232,103.131232 82.1748997,102.553582 C80.3181662,101.35702 80.1201146,99.2362178 81.580745,96.1911748 C83.0413754,93.1461318 85.8140974,89.8741547 89.8989112,86.3752436 C93.9892264,82.8763324 95.6396562,80.2975358 94.8502006,78.6388539 C94.060745,76.9801719 92.6647564,76.2567335 90.662235,76.4685387 C90.0077094,76.4595392 89.35983,76.6006894 88.7683668,76.8811461 C88.0256734,77.1974785 86.7108309,77.9002865 84.8238395,78.9895702 C82.9368481,80.0788539 81.3978223,79.9000573 80.2067622,78.4531805 C79.0184527,77.0090544 79.0184527,75.1275645 80.2067622,72.8087106 C81.3950716,70.4898567 84.5900287,68.586361 89.7916332,67.0982235 C91.3218683,66.7536164 92.8912627,66.6148547 94.4582235,66.685616 C97.1896848,66.5865903 99.985788,67.7363897 102.846533,70.1350143 C105.707278,72.533639 106.771805,75.3957593 106.040115,78.7213754 C105.322178,82.060745 103.165616,85.3464756 99.5704298,88.5785673 C95.9752436,91.810659 93.730659,93.8434384 92.8366762,94.6769054 L107.661662,91.5988539 C107.743538,91.560924 107.827581,91.527858 107.913352,91.4998281 L108.177421,91.4461891 C108.257696,91.4544987 108.336668,91.4725097 108.412607,91.4998281 L108.610659,91.6112321 C108.693405,91.665842 108.764851,91.7358872 108.821089,91.8175358 C108.89824,91.9076898 108.960882,92.0093084 109.006762,92.1187393 Z" id="Path" fill="#FFFFFF"></path>
                <path d="M45.2671633,65.5550716 C46.2337372,66.1004008 47.1566128,66.7197896 48.0275072,67.4076791 C48.1108632,67.4778191 48.1253177,67.6006818 48.0605158,67.6882521 C47.8896953,68.0329546 47.6214018,68.3198995 47.2889398,68.513467 C47.1563508,68.6168811 46.9905234,68.6682435 46.8226934,68.6578797 L45.3538109,68.2452722 C44.8749546,68.1070883 44.4038982,67.9431828 43.9426934,67.7542693 C43.7116332,67.6634957 43.6291117,67.5273352 43.6868768,67.3416619 C43.9008515,66.7106398 44.2249442,66.1225233 44.6441261,65.6045845 C44.7885387,65.4230372 44.9948424,65.410659 45.2671633,65.5550716 Z" id="Path" fill="#FFFFFF"></path>
            </g>
        </g>
    </g>
</svg>