<svg xmlns="http://www.w3.org/2000/svg" width="144" height="144" viewBox="0 0 144 144">
  <g fill="none" fill-rule="evenodd">
    <polygon fill="#FF507B" points="81.223 16.178 76.896 17.494 77.514 1.702 81.223 .386"/>
    <polygon fill="#58D8B0" points="123.202 116.416 121.179 119.515 114.907 112.171 116.562 109.432"/>
    <polygon fill="#FFD213" points="11.219 111.077 7.336 108.736 19.23 98.517 22.695 100.396"/>
    <polygon fill="#24D9F4" points="111.982 35.702 108.003 33.531 119.456 22.807 122.997 24.535"/>
    <polygon fill="#24D9F4" points="1.163 67.421 .342 65.916 10.929 66.584 11.759 67.88"/>
    <g transform="translate(16.278 17.287)">
      <path fill="#FFD213" d="M117.738333,22.3588533 C117.738333,23.4490844 116.866686,24.3326627 115.791177,24.3326627 C114.715667,24.3326627 113.843632,23.4490844 113.843632,22.3588533 C113.843632,21.2686221 114.715667,20.3850438 115.791177,20.3850438 C116.866686,20.3850438 117.738333,21.2686221 117.738333,22.3588533"/>
      <path fill="#FF507B" d="M60.6181584 123.029697C60.6181584 124.483339 59.4554454 125.661574 58.0218202 125.661574 56.5878076 125.661574 55.4254821 124.483339 55.4254821 123.029697 55.4254821 121.576056 56.5878076 120.397821 58.0218202 120.397821 59.4554454 120.397821 60.6181584 121.576056 60.6181584 123.029697M5.66140461 13.3664303C5.66140461 14.3356556 4.88626261 15.1210149 3.93051253 15.1210149 2.97437487 15.1210149 2.19923288 14.3356556 2.19923288 13.3664303 2.19923288 12.3975979 2.97437487 11.6118457 3.93051253 11.6118457 4.88626261 11.6118457 5.66140461 12.3975979 5.66140461 13.3664303"/>
      <polygon fill="#58D8B0" points="29.977 3.669 27.532 7.208 23.294 .066"/>
      <polygon fill="#24D9F4" points="119.209 63.274 120.177 59.066 126.736 64.092"/>
      <polygon fill="#58D8B0" points="25.839 98.662 28.747 101.82 20.977 104.544"/>
      <g opacity=".5" transform="translate(0 11.786)">
        <polygon fill="#FF507B" points="71.776 9.991 68.86 9.952 72.254 .347 74.79 .264"/>
        <polygon fill="#24D9F4" points="79.388 89.07 77.597 90.557 74.821 82.963 76.32 81.6"/>
        <polygon fill="#FFD213" points="5.501 53.996 3.556 51.793 12.832 47.831 14.607 49.668"/>
        <polygon fill="#FFD213" points="99.924 25.347 98.864 24.245 103.601 21.976 104.565 22.891"/>
        <polygon fill="#FF507B" points=".115 20.285 .291 18.307 5.552 20.353 5.413 22.227"/>
        <path fill="#24D9F4" d="M104.140793,39.6223787 C103.933054,40.2938039 103.227288,40.6670362 102.564929,40.4564546 C101.90257,40.2450873 101.53399,39.5300528 101.742503,38.8586275 C101.950241,38.1872023 102.656008,37.8135771 103.318367,38.0249445 C103.980726,38.2355261 104.348918,38.9509534 104.140793,39.6223787"/>
        <path fill="#FF507B" d="M45.534272,86.4286676 C45.2455141,87.3601735 44.2670631,87.8778812 43.3484803,87.5851572 C42.4295951,87.2927397 41.9185993,86.3008499 42.2073573,85.3693439 C42.4958129,84.4381444 43.4745662,83.9201303 44.3934514,84.2128543 C45.3120342,84.5052717 45.8227276,85.4974681 45.534272,86.4286676"/>
        <path fill="#FFD213" d="M33.8258015,11.0224137 C33.1390257,10.8035817 32.7568807,10.0622245 32.9727578,9.36604811 C33.1882472,8.66987168 33.9199813,8.28249585 34.6071447,8.50132784 C35.2935329,8.71976694 35.6752903,9.461517 35.4598009,10.1576934 C35.2439238,10.8538699 34.5121898,11.2412457 33.8258015,11.0224137"/>
        <polygon fill="#24D9F4" points="49.462 4.641 46.969 5.821 46.87 .442"/>
        <polygon fill="#FFD213" points="97.442 61.728 98.841 59.326 101.922 63.708"/>
        <polygon fill="#FFD213" points="60.24 89.206 64.59 88.332 62.702 96.791"/>
        <polygon fill="#24D9F4" points="28.091 63.319 30.083 65.243 25.176 67.294"/>
      </g>
      <path fill="#FFF" d="M24.4249181 32.6843048C25.0938657 32.7558082 25.8155229 33.0072489 26.5906649 33.4390197 27.3654193 33.8711834 27.6026128 34.6404348 27.3037955 35.7471668 27.0042031 36.8535058 26.3263415 37.3088492 25.2702105 37.1124112 24.2136919 36.9159731 23.2839091 36.8786499 22.480862 37.0000486 21.6782025 37.1210545 20.946856 37.3854601 20.2883729 37.7924797 19.6302773 38.1994993 19.1582158 38.7636694 18.8729636 39.484597 18.5873238 40.2055246 18.7233612 41.1158185 19.2799131 42.2154787 19.6814367 43.0153744 20.3430204 43.5469358 21.2662145 43.8113414 22.1882459 44.0753541 23.0936118 44.1111058 23.9811493 43.9182037 24.6500969 43.768125 25.2822252 43.2723154 25.8771467 42.4295962 26.4720682 41.5872698 27.2402339 41.371188 28.1800936 41.7817435 29.1207284 42.192299 29.3199399 42.8778678 28.7773405 43.8376641 28.2347411 44.7982461 27.8122887 45.4209547 27.5095957 45.7065756 27.2983695 45.8994778 27.0871433 46.0743077 26.8759171 46.2314581 26.2906849 46.6459424 25.6821985 46.9185984 25.0481323 47.0506047 24.4144537 47.183004 23.7730237 47.2525431 23.1253926 47.2596148 22.2661477 47.2808301 21.424731 47.1775037 20.6003675 46.9492427 19.9383963 46.7704841 19.2958035 46.5084357 18.6722018 46.1615262 18.0489876 45.8154023 17.4800334 45.3675236 16.9661143 44.8178899 16.0080388 43.8184132 15.296846 42.6617859 14.8321483 41.3480083 14.0926629 39.3274466 14.328306 37.5461464 15.539853 36.0041077 16.1456265 35.2187484 16.8692215 34.5995757 17.7110257 34.1458038 18.5528299 33.6924248 19.3814567 33.3482654 20.1992315 33.1125397 20.8817441 32.9200304 21.5898363 32.7825238 22.3223455 32.7000198 23.0548547 32.6183016 23.7551955 32.6128013 24.4249181 32.6843048M37.0811654 33.5013299C37.0350444 34.1656834 36.7877741 35.1415876 36.3397421 36.4290425 35.094864 40.127578 34.5065312 42.1418537 34.5743562 42.4718696 34.6417935 42.8018856 34.9003034 42.990859 35.3494982 43.0380041L39.4453485 44.1078057C40.0177908 44.1852023 40.3848206 44.3851762 40.5472128 44.7065488 40.7092175 45.0283144 40.6987531 45.4663712 40.5150444 46.0222909 40.3321109 46.5778177 40.0150778 47.0139101 39.5643328 47.331354 39.1135877 47.6487979 38.5682753 47.7823757 37.9287832 47.7328734 37.2885159 47.6829781 36.281994 47.4621817 34.9092175 47.0693056 33.536441 46.6772153 32.5295316 46.3086975 31.8892643 45.9645381 31.2478343 45.6199858 30.7800361 45.2832909 30.4843194 44.9544537 30.1878276 44.6256164 29.9971427 44.2468838 29.9111019 43.818256 29.8246736 43.3892353 29.8704069 42.5363013 30.0471393 41.259454 30.2238717 39.9822139 30.5443929 38.4551045 31.0090905 36.6769473 31.4737882 34.899183 31.8640722 33.7095542 32.1783922 33.1080609 32.4923248 32.5069605 32.8744698 32.0751897 33.3236646 31.8131413 33.7728593 31.5514859 34.2945299 31.4422663 34.8882887 31.4850898 35.4820474 31.5283062 36.0079813 31.7090292 36.4649275 32.0276517 36.9222613 32.3458813 37.1272863 32.8369764 37.0811654 33.5013299M47.1882807 42.4690017C47.8440508 42.5762568 48.8827411 42.5401122 50.3043515 42.3609607L48.6091159 38.361875 47.1882807 42.4690017zM49.5555643 32.1398964C51.0271714 32.0860724 53.2417521 36.1440895 56.1989188 44.313162 56.3527845 44.7327537 56.3624738 44.9967664 56.2283742 45.1055931 54.854435 46.4696589 53.6463762 47.1709427 52.6045854 47.2110161L52.4139004 47.2125876C52.0193532 47.223981 51.6697641 46.4460863 51.3647457 44.877725 48.9114213 45.3605697 47.1700648 45.5574006 46.1410638 45.467432 45.9569676 46.7890671 45.7209369 47.4549921 45.432584 47.4671713L45.2314347 47.4699214C43.5482138 47.5300314 42.1738871 47.1198688 41.1084544 46.237862L41.1065165 46.0343522C41.875845 42.2847428 43.1063829 38.5657777 44.7973552 34.8778499 45.6612509 33.2682365 46.4526709 32.4510542 47.17084 32.4255173 47.921565 32.2396869 48.715698 32.1446109 49.5555643 32.1398964L49.5555643 32.1398964zM64.348878 33.0796953C66.6022158 33.0796953 68.401708 33.939701 69.7473545 35.6604983L69.7473545 35.810577C69.3880762 36.9958841 68.9233785 37.5883413 68.352874 37.5883413 68.2749723 37.5883413 67.8137628 37.2669686 66.968858 36.6242234 66.1375182 36.2816354 65.4084972 36.1103414 64.7817949 36.1103414 64.4294928 36.1103414 64.14114 36.3319235 63.9155737 36.774302 63.9155737 37.3239357 64.8876017 38.0134332 66.8312703 38.8412231 69.3035857 40.1762161 70.5399372 41.7041112 70.5399372 43.4249085L70.5399372 43.4995549C70.5399372 45.1488487 69.6907691 46.5522021 67.9935957 47.7084365 66.9510297 48.2513912 65.8348253 48.5224757 64.6445947 48.5224757 61.4754267 48.5224757 58.9713304 47.3155604 57.1330812 44.9025154L57.0590551 44.5277116 57.0590551 44.4636728C57.0590551 43.721137 57.5939031 42.98253 58.6651493 42.2466731L58.8763755 42.2466731C60.0945112 43.5745943 61.2638129 44.2385548 62.3838931 44.2385548L62.8171975 44.2385548C63.3520454 44.1387643 63.619857 43.892431 63.619857 43.4995549 63.619857 42.9503141 62.8171975 42.3075689 61.2111032 41.5721048 59.5627638 40.3585106 58.7387878 39.2018834 58.7387878 38.1022232L58.7387878 37.8774981C58.7387878 35.8926881 59.9538229 34.3934729 62.3838931 33.3794597 62.9609863 33.1794858 63.6159813 33.0796953 64.348878 33.0796953"/>
      <path fill="#FFF" d="M76.9937695 32.2950824C79.3641537 32.2078639 81.2896064 33.0427256 82.7693525 34.8008461L82.7751661 34.9583895C82.4422426 36.2191288 81.9756071 36.8603026 81.3756472 36.8823037 81.2938697 36.8854467 80.7966161 36.5652527 79.8831113 35.9221145 78.9959612 35.594063 78.2227571 35.4420199 77.5638864 35.4663782 77.192981 35.479736 76.8976519 35.7241049 76.6775115 36.1983064 76.6980528 36.7762271 77.7464323 37.4637603 79.8226502 38.2593344 82.4732482 39.5680046 83.8309095 41.1269369 83.8956338 42.9369171L83.8983468 43.0158852C83.9607457 44.750826 83.1204918 46.2590773 81.3787477 47.5418177 80.3028507 48.15274 79.1385874 48.4811844 77.8871206 48.5275438 74.5532349 48.6501212 71.8739566 47.4777789 69.8492857 45.01091L69.7574313 44.6196054 69.7551059 44.5516378C69.7272008 43.770993 70.2620488 42.9730617 71.3608126 42.1578438L71.5828907 42.1495934C72.9145847 43.4995156 74.1695396 44.1524757 75.3473679 44.1088664L75.8031514 44.0923657C76.3620287 43.9666453 76.6344911 43.6971323 76.6197634 43.2838267 76.5988346 42.7059059 75.730288 42.0608034 74.0133485 41.3493048 72.23401 40.1368892 71.3236057 38.9519749 71.2825232 37.7953477L71.2736091 37.5588363C71.1991955 35.4710927 72.4204317 33.8473359 74.9380929 32.6867799 75.5376652 32.4538044 76.2232783 32.3233695 76.9937695 32.2950824M94.4969409 37.0537155L92.1095035 37.0859313C91.4893899 37.0572514 91.0700381 37.2175448 90.8522232 37.5679903 90.8661757 38.1891274 91.0212041 38.6385776 91.3169208 38.9171268 92.4718824 38.9886302 93.5357648 39.0565978 94.5074053 39.1206366 94.9089288 39.1988189 95.1519359 39.4883686 95.2364263 39.988107L95.2364263 40.9196162C95.2503789 41.462571 94.9511741 41.7945513 94.3384243 41.9155571L92.1622132 42.2585379C91.5703922 42.2872179 91.1967738 42.3367203 91.042133 42.4082237 90.8874921 42.48012 90.7816853 42.6671291 90.7254875 42.9704294 90.6685145 43.2741226 90.7200615 43.5738871 90.8781904 43.8701156 91.036707 44.1663442 91.3382372 44.2720279 91.7816184 44.185988L95.3422332 44.0146941C95.9123502 43.9215824 96.32085 44.0056579 96.5677327 44.2661347 96.8142279 44.5270045 96.9281737 44.950132 96.910733 45.5355174 96.8932923 46.1212956 96.7134594 46.6312488 96.3720094 47.0669484 96.0305593 47.502648 95.5460956 47.7898404 94.9193933 47.9289185 94.2926909 48.0679967 93.2609769 48.1666086 91.8242513 48.2235756 90.387138 48.2805426 89.3131788 48.2377191 88.601986 48.0951051 87.890018 47.9524911 87.3462559 47.7666607 86.9691493 47.5383997 86.5920428 47.3097458 86.3017521 47.0025167 86.0978897 46.6171053 85.8936398 46.2316938 85.6944283 45.4015466 85.5010304 44.1270566 85.3072449 42.8525666 85.1805092 41.2963844 85.1208233 39.4577243 85.0603622 37.6194571 85.0960187 36.3665752 85.2262426 35.6986859 85.3564664 35.0315823 85.5994734 34.5569879 85.9552636 34.27451 86.3110538 33.992425 86.7296305 33.7661284 87.2121564 33.5944415 87.6946823 33.4231476 88.3620795 33.2608897 89.2143481 33.1072752 90.0662292 32.9536606 91.0545352 32.8452268 92.1781036 32.7807951 93.3008968 32.7163635 94.0849529 32.7320785 94.5287217 32.828726 94.9724905 32.9249807 95.3348694 33.1002034 95.617021 33.3536085 95.89801 33.6070136 96.1061356 33.9837817 96.2402352 34.4835201 96.3735596 34.9832585 96.3615449 35.5006763 96.2026408 36.0365593 96.0445119 36.5716565 95.4755576 36.9111015 94.4969409 37.0537155M29.8009542 64.0453243C30.3024711 64.1015056 31.0884651 64.0339309 32.1600989 63.8429931L30.7241483 60.8759929 29.8009542 64.0453243zM31.2086121 56.1206207C32.3228787 56.0231874 34.1541517 59.0149389 36.7039813 65.0966607 36.8357554 65.4086044 36.8531961 65.6085783 36.7555282 65.6961896 35.7652843 66.7836707 34.8750337 67.3619843 34.0867143 67.432702L33.9425379 67.4413452C33.6433331 67.4653107 33.3487792 66.8885686 33.058876 65.7107261 31.2159759 66.1719626 29.9028854 66.3884373 29.1192168 66.3597574 29.0293004 67.369056 28.8750471 67.8833308 28.6568446 67.9037604L28.5045292 67.9131894C27.2301958 68.0239805 26.1729021 67.7658609 25.331873 67.1384378L25.3221838 66.9836446C25.7651774 64.1105418 26.5585352 61.2425463 27.7026448 58.380444 28.2975663 57.1263835 28.8669081 56.4761736 29.4106702 56.4290285 29.9726482 56.259306 30.5718329 56.1563724 31.2086121 56.1206207L31.2086121 56.1206207z"/>
      <path fill="#28C8FA" d="M55.8158824,55.5052589 C56.3918129,55.5225454 57.0150271,55.6019064 57.6839746,55.7429489 C58.4428386,55.9126714 59.0970585,56.1629335 59.6466341,56.4933423 C60.1101691,56.7648196 60.4713852,57.2115198 60.7310578,57.8346212 C61.0387892,58.5594776 61.2546662,59.55699 61.3790765,60.8267655 C61.5077501,62.1766878 61.4000053,64.0012043 61.0558423,66.2995295 C60.7109041,68.5982475 59.9892469,72.4056096 58.8893204,77.721616 C57.7897815,83.0380152 57.0107638,86.0564822 56.5526549,86.7774099 C56.0945459,87.4979446 55.4938109,88.0051476 54.7504497,88.2970546 C54.3543522,88.447919 53.6962566,88.5418164 52.776163,88.5795325 C51.8560695,88.6168557 50.9348132,88.5477095 50.0123943,88.3709153 C49.0899753,88.1945139 48.3004932,87.9053571 47.6435603,87.5038378 C46.9866275,87.1027113 46.7172656,86.5224333 46.8366375,85.7622181 C46.9203528,85.3775924 47.8927685,81.6845571 49.7538844,74.6827195 C50.6003395,71.4560281 51.247583,68.5416733 51.6960027,65.9404407 C50.3515189,66.7356219 48.7694541,67.6714528 46.9494206,68.7483261 C45.0224176,69.1129151 43.5407337,68.2792321 42.5035937,66.2468841 L41.6145058,64.5052644 C40.5196178,62.3224448 41.2804196,60.5262153 43.897299,59.1165759 C45.859571,57.8059413 47.9536171,56.7828919 50.1813752,56.0482137 C52.2091467,55.3968251 54.0877033,55.2157092 55.8158824,55.5052589"/>
      <path fill="#FFF" d="M54.9506689,54.6280059 C55.5265994,54.6452924 56.149426,54.7242605 56.8183735,54.8656959 C57.5772376,55.0354184 58.2314574,55.2856805 58.7810331,55.6160892 C59.244568,55.8871737 59.6061717,56.3342667 59.8654567,56.9569753 C60.1731881,57.6822246 60.3890652,58.679737 60.513863,59.9495125 C60.6425366,61.2994348 60.5344043,63.1239513 60.1902412,65.4222764 C59.8456906,67.7206016 59.1240334,71.5279637 58.0241069,76.844363 C56.9241804,82.1607622 56.1451627,85.1792292 55.6870538,85.9001568 C55.2293324,86.6206916 54.6285974,87.1278946 53.8848486,87.4198016 C53.4891387,87.570666 52.8310431,87.6641705 51.9109495,87.7022795 C50.9904684,87.7396027 50.0692122,87.6704565 49.1471808,87.4936623 C48.2247618,87.316868 47.4348921,87.0277112 46.7783468,86.6265847 C46.1210264,86.2254582 45.8516646,85.6451803 45.971424,84.8845722 C46.0547518,84.5003393 47.0271674,80.8073041 48.8882833,73.8054664 C49.7347384,70.5787751 50.3823695,67.6644203 50.8304016,65.0631877 C49.4863054,65.8583689 47.903853,66.7938069 46.0838196,67.8710731 C44.1568166,68.2356621 42.6751326,67.4019791 41.6379926,65.369631 L40.7492923,63.6280113 C39.6540167,61.4451918 40.4152061,59.6489623 43.0320855,58.2393229 C44.9939699,56.9286883 47.0884036,55.9056389 49.3157741,55.1709606 C51.3439332,54.5195721 53.2221022,54.3384562 54.9506689,54.6280059"/>
      <path fill="#28C8FA" d="M91.777859,79.1045006 C92.1049689,79.7444957 92.3844076,80.669326 92.6153999,81.8797772 C92.8467798,83.0906214 92.8963889,84.0527749 92.7642272,84.7666308 C92.7320588,85.0931108 92.5929208,85.4400204 92.3475884,85.8081453 L92.3378991,85.882006 L92.3239465,85.932687 C92.3084437,85.93583 92.2948787,85.9468305 92.282864,85.9649028 L92.2460448,86.0199055 C92.2305419,86.0230485 92.2169769,86.034049 92.2049622,86.0521213 L92.168143,86.107124 C92.1375249,86.11341 92.1251226,86.1314823 92.1309362,86.1625195 C92.1158209,86.1656625 92.1096198,86.1746987 92.1127203,86.1900208 C91.2023161,86.4646412 89.6807123,86.8429809 87.5475216,87.3258256 C85.4143308,87.8078846 82.8462853,88.2875863 79.8441604,88.7649307 C76.8416478,89.2418823 74.020131,89.5675766 71.3780595,89.7416207 C68.7363755,89.9160577 67.0066462,89.7235484 66.1900341,89.1636999 C64.4219352,88.0070727 64.2328005,85.9597954 65.6214674,83.0238324 C67.0101343,80.0874765 69.650268,76.9299314 73.5426435,73.5504113 C77.4346315,70.171284 79.0116579,67.682414 78.2721724,66.0834083 C77.5326869,64.4851884 76.2033184,63.785869 74.284842,63.9862358 C73.7899138,63.9551985 73.1887912,64.0930981 72.4822492,64.3995414 C71.7753197,64.7063776 70.5234654,65.383696 68.7270738,66.4318894 C66.9306823,67.4804757 65.4652763,67.308396 64.3316311,65.9144716 C63.1975984,64.521333 63.1983735,62.7054597 64.3331814,60.4668517 C65.4683769,58.2282438 68.5108092,56.3919409 73.460866,54.9567646 C74.9731681,54.6122123 76.4540768,54.4739199 77.9032048,54.5411017 C80.5049689,54.4468114 83.1668065,55.5562935 85.8898804,57.8699408 C88.6117915,60.1835881 89.629553,62.951793 88.9427771,66.1741627 C88.2560013,69.3969253 86.2014875,72.5670424 82.7803983,75.6860857 C79.3593091,78.805129 77.2284437,80.7671522 76.3878022,81.5717624 L90.4953866,78.5882614 C90.5535222,78.5611529 90.634137,78.52933 90.7376184,78.4923996 C90.8442005,78.47197 90.9279158,78.4554693 90.9887645,78.4432901 C91.0860448,78.4566479 91.1604584,78.4739344 91.2120053,78.4955426 L91.398427,78.6031907 C91.488731,78.665658 91.5569435,78.732054 91.6022893,78.8031646 C91.6623628,78.871525 91.7208861,78.9717084 91.777859,79.1045006"/>
      <path fill="#FFF" d="M90.9126455 77.7885228C91.2397554 78.428518 91.5188065 79.3533483 91.7501864 80.5637995 91.9811788 81.7746436 92.0307878 82.7367972 91.8986261 83.450653 91.8664577 83.777133 91.7277073 84.1240426 91.4823749 84.4921675L91.472298 84.5660282 91.4583455 84.6167092C91.4432302 84.6198522 91.4292776 84.6308528 91.4172629 84.6489251L91.3804437 84.7043206C91.3653284 84.7070707 91.3513759 84.7180713 91.3393612 84.7361436L91.3025419 84.7915391C91.2719238 84.7974322 91.2599091 84.8155045 91.2657227 84.8465418 91.2502198 84.8496848 91.2440187 84.8587209 91.2471193 84.8740431 90.3371026 85.1486635 88.8151113 85.5270031 86.6819205 86.0098479 84.5487297 86.4919068 81.9806843 86.9716085 78.9789469 87.448953 75.9764343 87.9259045 73.1549175 88.2515988 70.512846 88.4256429 67.871162 88.6000799 66.1414327 88.4075706 65.324433 87.8477222 63.5563341 86.691095 63.3671995 84.6438177 64.7558664 81.7078547 66.1445332 78.7714988 68.7846669 75.6139536 72.6770424 72.2344335 76.5690304 68.8553063 78.1460568 66.3664363 77.4065713 64.7674306 76.6674734 63.1692106 75.3381049 62.4698912 73.4196285 62.670258 72.9243127 62.6392208 72.3235777 62.7771203 71.6166482 63.0835637 70.9097187 63.3903999 69.6578644 64.0677183 67.8618603 65.1159117 66.0654688 66.1644979 64.5996752 65.9924182 63.4664176 64.5984939 62.3319973 63.2053552 62.3327725 61.389482 63.4675804 59.150874 64.6027758 56.912266 67.6455957 55.0759632 72.595265 53.6407868 74.107567 53.2962345 75.5884758 53.1579421 77.0376037 53.2251239 79.6393679 53.1312266 82.3015931 54.2407086 85.0242793 56.553963 87.7461904 58.8676103 88.7639519 61.6358153 88.0775636 64.8581849 87.3904003 68.0809475 85.3358864 71.2510647 81.9151848 74.3701079 78.493708 77.4891512 76.3628426 79.4511744 75.5222011 80.2557846L89.6301731 77.2722836C89.6879211 77.2451752 89.7689235 77.2133522 89.8724049 77.1768147 89.9785994 77.1559923 90.0627023 77.1394915 90.123551 77.1273123 90.2208313 77.1406701 90.2948573 77.1579567 90.3464043 77.1795649L90.5328259 77.2872129C90.6235175 77.3496802 90.6913425 77.4160763 90.7366883 77.4871868 90.7967618 77.5555473 90.8556726 77.6557307 90.9126455 77.7885228M30.2260033 52.1506864C31.2406642 52.7419649 32.1173498 53.337958 32.8548974 53.9386655 32.9343495 54.0062402 32.9448139 54.0966017 32.885128 54.2101429 32.69173 54.5731604 32.4467852 54.8367802 32.1510685 55.0013953 31.9503067 55.1220083 31.8030297 55.1687605 31.7092376 55.1404735 31.2398891 55.0053241 30.7736412 54.8701747 30.3097187 54.7346325 29.8461838 54.5990902 29.3973765 54.441154 28.9636846 54.2600381 28.74742 54.1724268 28.6675804 54.0439563 28.7237781 53.8758053 28.96601 53.1902365 29.268703 52.6284237 29.6326321 52.1903669 29.7706074 52.0230017 29.9686562 52.0100368 30.2260033 52.1506864"/>
    </g>
  </g>
</svg>
