<svg xmlns="http://www.w3.org/2000/svg" xmlns:xlink="http://www.w3.org/1999/xlink" viewBox="0 0 368 363"><defs/><defs><path id="a" d="M.697.493h19.42v12.792H.697z"/></defs><g fill="none" fill-rule="evenodd"><path fill="#FA4678" d="M208.688 0l-9.571 3.35-1.594 40.195 11.165-3.35z"/><path fill="#46D2A0" d="M313.035 310.807l-6.465 7.03-14.683-25.452 5.353-6.32z"/><path fill="#FFC800" d="M28.066 281.745l-10.019-5.959 30.687-26.011 8.94 4.785z"/><path fill="#28C8FA" d="M288.049 89.89l-10.264-5.526 29.55-27.294 9.136 4.398zM2.119 170.627l27.337 1.166-2.14-3.297L0 166.796z"/><path fill="#FFC800" d="M344.902 99.928a5.024 5.024 0 11-10.05 0 5.024 5.024 0 0110.05 0"/><path fill="#FA4678" d="M197.523 356.169a6.7 6.7 0 11-13.4 0 6.7 6.7 0 0113.4 0M55.725 77.039a4.466 4.466 0 11-8.932 0 4.466 4.466 0 018.932 0"/><path fill="#46D2A0" d="M118.463 52.357l-6.308 9.007-10.936-18.178z"/><g transform="translate(348 192.868)"><mask id="b" fill="#fff"><use xlink:href="#a"/></mask><path fill="#28C8FA" d="M.697 11.202L3.194.493l16.923 12.792z" mask="url(#b)"/></g><path fill="#46D2A0" d="M107.786 294.146l7.504 8.038-20.049 6.932z"/><g opacity=".4"><path fill="#FA4678" d="M226.313 98.447l-7.525-.097 8.757-24.448 6.543-.212z"/><path fill="#28C8FA" d="M245.953 299.731l-4.622 3.784-7.164-19.33 3.868-3.47z"/><path fill="#FFC800" d="M55.312 210.455l-5.018-5.609 23.932-10.083 4.58 4.675zM298.938 137.534l-2.734-2.806 12.222-5.775 2.487 2.33z"/><path fill="#FA4678" d="M41.414 124.65l.455-5.035 13.572 5.209-.358 4.769z"/><path fill="#28C8FA" d="M309.818 173.87a3.244 3.244 0 11-6.189-1.944 3.244 3.244 0 016.19 1.943"/><path fill="#FA4678" d="M158.627 292.357a3.998 3.998 0 01-5.013 2.617 3.998 3.998 0 112.396-7.63 3.999 3.999 0 012.617 5.013"/><path fill="#FFC800" d="M128.394 101.073a3.363 3.363 0 112.014-6.417 3.363 3.363 0 01-2.014 6.417"/><path fill="#28C8FA" d="M168.738 84.829l-6.432 3.005-.257-13.692z"/><path fill="#FFC800" d="M292.535 230.136l3.609-6.113 7.95 11.153zM196.546 300.076l11.225-2.225-4.872 21.533z"/><path fill="#28C8FA" d="M113.598 234.185l5.139 4.898-12.661 5.221z"/></g><path fill="#46D2A0" d="M185.132 184.297c1.486.044 3.094.246 4.82.605 1.958.432 3.646 1.069 5.064 1.91 1.196.69 2.128 1.828 2.798 3.414.794 1.845 1.351 4.384 1.672 7.616.332 3.436.054 8.08-.834 13.93-.89 5.85-2.752 15.542-5.59 29.073-2.837 13.532-4.847 21.215-6.029 23.05-1.182 1.834-2.732 3.125-4.65 3.868-1.022.384-2.72.623-5.094.719a31.487 31.487 0 01-7.131-.531c-2.38-.45-4.417-1.185-6.112-2.207-1.695-1.021-2.39-2.498-2.082-4.433.216-.98 2.725-10.38 7.527-28.201 2.184-8.213 3.854-15.631 5.011-22.252l-12.247 7.147c-4.972.928-8.795-1.194-11.471-6.367l-2.294-4.433c-2.825-5.556-.862-10.128 5.89-13.716a67.029 67.029 0 0116.214-7.81c5.232-1.658 10.079-2.12 14.538-1.382m61.997 84.657c-7.747 1.214-15.027 2.043-21.844 2.486-6.816.444-11.279-.046-13.386-1.471-4.562-2.944-5.05-8.155-1.467-15.628 3.583-7.474 10.395-15.511 20.438-24.113 10.042-8.601 14.111-14.936 12.203-19.005-1.908-4.07-5.338-5.85-10.288-5.34-1.277-.077-2.828.273-4.65 1.053-1.825.78-5.055 2.505-9.69 5.173-4.635 2.669-8.416 2.23-11.34-1.317-2.927-3.546-2.925-8.168.003-13.866 2.93-5.698 10.78-10.372 23.551-14.025 3.902-.877 7.723-1.23 11.462-1.058 6.713-.24 13.581 2.585 20.607 8.473 7.023 5.889 9.65 12.935 7.877 21.137-1.772 8.203-7.073 16.272-15.9 24.21-8.827 7.94-14.325 12.934-16.494 14.982l36.4-7.594c.15-.07.358-.15.625-.243l.648-.125c.251.033.443.077.576.132l.481.274c.233.159.41.328.526.509.155.174.306.429.453.767.844 1.63 1.565 3.983 2.161 7.064.597 3.082.725 5.53.384 7.348-.083.83-.442 1.715-1.075 2.65l-.025.189-.036.129c-.04.008-.075.036-.106.082l-.095.14c-.04.008-.075.036-.106.082l-.095.14c-.079.015-.11.061-.096.14-.039.008-.055.031-.047.07-2.349.7-6.275 1.662-11.779 2.891"/><path fill="#1E1E8C" d="M104.138 126.21c1.726.182 3.588.822 5.588 1.92 1.999 1.1 2.61 3.059 1.84 5.876-.773 2.816-2.522 3.975-5.247 3.475-2.726-.5-5.125-.595-7.197-.286-2.071.308-3.958.98-5.657 2.017-1.698 1.036-2.916 2.472-3.652 4.307-.737 1.835-.386 4.152 1.05 6.95 1.036 2.037 2.743 3.39 5.125 4.063 2.379.672 4.715.763 7.005.272 1.726-.382 3.357-1.644 4.892-3.79 1.535-2.143 3.517-2.693 5.942-1.648 2.427 1.045 2.94 2.79 1.54 5.233-1.4 2.445-2.49 4.03-3.27 4.757-.545.49-1.09.936-1.635 1.336-1.51 1.055-3.08 1.749-4.716 2.085a25.91 25.91 0 01-4.961.532 22.51 22.51 0 01-6.515-.79 22.178 22.178 0 01-4.975-2.005 17.901 17.901 0 01-4.402-3.42 24.297 24.297 0 01-5.506-8.832c-1.908-5.143-1.3-9.677 1.826-13.602 1.563-2 3.43-3.575 5.602-4.73 2.172-1.154 4.31-2.03 6.42-2.63 1.76-.49 3.588-.84 5.478-1.05 1.89-.208 3.697-.222 5.425-.04m32.655 2.08c-.119 1.69-.757 4.174-1.913 7.451-3.212 9.414-4.73 14.541-4.555 15.381.174.84.841 1.321 2 1.441l10.568 2.723c1.477.197 2.424.706 2.843 1.524.418.82.391 1.934-.083 3.35-.472 1.413-1.29 2.523-2.453 3.331-1.163.808-2.57 1.148-4.22 1.022-1.652-.127-4.249-.689-7.79-1.689-3.543-.998-6.14-1.936-7.793-2.812-1.655-.877-2.862-1.734-3.625-2.57a5.983 5.983 0 01-1.479-2.893c-.223-1.092-.105-3.263.351-6.513.456-3.25 1.283-7.138 2.482-11.664 1.2-4.525 2.206-7.553 3.017-9.084.81-1.53 1.796-2.629 2.955-3.296 1.16-.666 2.505-.944 4.037-.835 1.532.11 2.89.57 4.068 1.381 1.18.81 1.71 2.06 1.59 3.751m26.078 22.826c1.692.273 4.372.181 8.04-.275l-4.374-10.179-3.666 10.454zm6.108-26.29c3.797-.138 9.511 10.191 17.141 30.984.397 1.068.422 1.74.076 2.017-3.545 3.472-6.662 5.257-9.35 5.36l-.492.003c-1.018.03-1.92-1.95-2.707-5.943-6.33 1.23-10.823 1.73-13.478 1.501-.475 3.364-1.084 5.06-1.828 5.09l-.519.007c-4.343.153-7.889-.89-10.638-3.136l-.005-.518c1.985-9.544 5.16-19.01 9.523-28.397 2.23-4.097 4.271-6.177 6.124-6.242 1.937-.473 3.986-.715 6.153-.727zm38.17 2.391c5.814 0 10.457 2.19 13.929 6.57v.381c-.927 3.017-2.126 4.525-3.598 4.525-.201 0-1.391-.818-3.571-2.454-2.145-.872-4.026-1.308-5.643-1.308-.91 0-1.653.564-2.235 1.69 0 1.4 2.508 3.154 7.523 5.261 6.379 3.398 9.569 7.287 9.569 11.667v.19c0 4.198-2.191 7.77-6.57 10.713-2.69 1.382-5.57 2.072-8.641 2.072-8.177 0-14.638-3.072-19.381-9.214l-.191-.954v-.163c0-1.89 1.38-3.77 4.144-5.643h.545c3.143 3.38 6.16 5.07 9.05 5.07h1.118c1.38-.254 2.07-.88 2.07-1.88 0-1.399-2.07-3.035-6.214-4.907-4.253-3.089-6.38-6.033-6.38-8.832v-.572c0-5.052 3.136-8.868 9.406-11.449 1.489-.509 3.179-.763 5.07-.763"/><path fill="#1E1E8C" d="M239.775 125.22c6.116-.223 11.084 1.902 14.902 6.377l.015.401c-.86 3.21-2.063 4.841-3.611 4.897-.211.008-1.494-.807-3.851-2.444-2.29-.835-4.284-1.222-5.984-1.16-.957.034-1.72.656-2.287 1.863.053 1.471 2.758 3.221 8.115 5.246 6.839 3.331 10.342 7.3 10.509 11.906l.007.201c.16 4.416-2.007 8.255-6.501 11.52-2.776 1.555-5.78 2.391-9.01 2.51-8.601.311-15.514-2.673-20.738-8.952l-.237-.996-.006-.173c-.072-1.987 1.308-4.018 4.143-6.093l.573-.02c3.436 3.435 6.674 5.097 9.713 4.986l1.176-.042c1.442-.32 2.145-1.006 2.107-2.058-.054-1.47-2.295-3.113-6.725-4.924-4.591-3.086-6.94-6.102-7.046-9.046l-.023-.602c-.192-5.314 2.959-9.447 9.455-12.4 1.547-.594 3.316-.926 5.304-.998m45.16 12.112l-6.16.082c-1.6-.073-2.681.335-3.243 1.227.036 1.581.436 2.725 1.199 3.434 2.98.182 5.725.355 8.232.518 1.036.2 1.663.936 1.88 2.208v2.371c.037 1.382-.735 2.227-2.316 2.535l-5.615.873c-1.527.073-2.491.2-2.89.381-.4.183-.672.66-.817 1.431-.147.773-.014 1.536.394 2.29.409.754 1.187 1.023 2.33.804l9.188-.436c1.47-.237 2.525-.023 3.162.64.636.664.93 1.741.885 3.231-.045 1.491-.51 2.79-1.39 3.898-.881 1.11-2.131 1.84-3.748 2.194-1.617.354-4.28.605-7.986.75-3.708.145-6.48.036-8.314-.327-1.837-.363-3.24-.836-4.213-1.417a5.986 5.986 0 01-2.248-2.345c-.527-.98-1.041-3.094-1.54-6.338-.5-3.244-.827-7.205-.981-11.885-.156-4.679-.064-7.868.272-9.568.336-1.698.963-2.906 1.88-3.625.919-.718 1.999-1.294 3.244-1.73 1.245-.437 2.967-.85 5.166-1.24 2.198-.392 4.748-.668 7.647-.832 2.897-.164 4.92-.124 6.065.122 1.145.245 2.08.691 2.808 1.336.725.645 1.262 1.604 1.608 2.876.344 1.272.313 2.59-.097 3.953-.408 1.362-1.876 2.226-4.401 2.59m-166.927 68.702c1.294.143 3.322-.029 6.087-.515l-3.705-7.552-2.382 8.067zm3.632-20.17c2.875-.249 7.6 7.366 14.179 22.846.34.794.385 1.303.133 1.526-2.555 2.768-4.852 4.24-6.886 4.42l-.372.022c-.772.061-1.532-1.407-2.28-4.405-4.755 1.174-8.143 1.725-10.165 1.652-.232 2.57-.63 3.878-1.193 3.93l-.393.024c-3.288.282-6.016-.375-8.186-1.972l-.025-.394c1.143-7.313 3.19-14.613 6.142-21.898 1.535-3.192 3.004-4.847 4.407-4.967a20.088 20.088 0 014.639-.785zm61.259-3.8c1.486.044 3.093.245 4.819.605 1.958.432 3.646 1.069 5.064 1.91 1.196.69 2.129 1.828 2.798 3.413.794 1.846 1.35 4.385 1.673 7.617.332 3.436.053 8.08-.835 13.93-.89 5.85-2.751 15.54-5.59 29.073-2.837 13.532-4.847 21.215-6.03 23.05-1.18 1.834-2.73 3.125-4.65 3.868-1.02.384-2.718.622-5.092.719a31.479 31.479 0 01-7.131-.531c-2.38-.45-4.418-1.186-6.112-2.207-1.696-1.021-2.391-2.498-2.082-4.434.215-.978 2.724-10.378 7.526-28.2 2.184-8.213 3.855-15.631 5.01-22.252-3.467 2.024-7.55 4.405-12.246 7.147-4.972.928-8.795-1.194-11.471-6.367l-2.293-4.433c-2.826-5.556-.862-10.128 5.89-13.716a67.022 67.022 0 0116.213-7.81c5.233-1.658 10.079-2.12 14.539-1.382m92.788 58.951c.844 1.629 1.564 3.983 2.16 7.064.597 3.082.725 5.531.384 7.348-.083.831-.441 1.714-1.074 2.651l-.026.188-.036.129c-.04.008-.075.036-.106.082l-.095.141c-.04.007-.075.035-.106.081l-.095.141c-.08.015-.11.061-.095.14-.04.008-.056.031-.048.07-2.348.699-6.275 1.662-11.78 2.891-5.503 1.227-12.13 2.448-19.874 3.663-7.747 1.214-15.027 2.043-21.844 2.486-6.816.444-11.28-.046-13.387-1.471-4.562-2.944-5.05-8.155-1.467-15.628 3.583-7.474 10.395-15.511 20.438-24.113 10.042-8.601 14.11-14.936 12.203-19.006-1.907-4.068-5.337-5.848-10.287-5.338-1.278-.079-2.828.272-4.652 1.052-1.824.781-5.054 2.505-9.688 5.173-4.635 2.669-8.417 2.231-11.341-1.317-2.927-3.546-2.925-8.168.003-13.866 2.929-5.698 10.78-10.372 23.55-14.025 3.903-.877 7.724-1.229 11.463-1.058 6.713-.239 13.582 2.585 20.607 8.473 7.023 5.889 9.649 12.935 7.878 21.137-1.773 8.203-7.074 16.272-15.9 24.211-8.828 7.939-14.326 12.933-16.495 14.981l36.4-7.594c.15-.069.359-.15.626-.243l.648-.126c.25.034.442.078.575.133l.48.274c.235.159.41.328.527.509.155.174.307.429.454.767m-156.582-65.257c2.618 1.505 4.88 3.022 6.783 4.551.205.172.232.402.078.691-.5.924-1.131 1.595-1.894 2.014-.518.307-.898.426-1.14.354a977.171 977.171 0 01-3.611-1.033 33.444 33.444 0 01-3.473-1.208c-.558-.223-.764-.55-.62-.978.626-1.745 1.407-3.175 2.346-4.29.356-.426.867-.459 1.53-.1"/></g></svg>