<?xml version="1.0" encoding="utf-8"?>
<!-- Generator: Adobe Illustrator 24.0.1, SVG Export Plug-In . SVG Version: 6.00 Build 0)  -->
<svg version="1.1" id="Calque_1" xmlns="http://www.w3.org/2000/svg" xmlns:xlink="http://www.w3.org/1999/xlink" x="0px" y="0px"
	 viewBox="0 0 200 150" enable-background="new 0 0 200 150" xml:space="preserve">
<rect x="0.068" y="38.851" fill="#F8E16C" width="199.932" height="76.078"/>
<path fill="#FFFFFF" d="M150.719,80.677c0.121,0.006,0.238,0.019,0.364,0.019c0.897,0,1.573-0.152,1.601-0.159l0.16-0.035
	l0.075-0.145c0.22-0.419,2.125-4.142,1.526-5.885c-0.509-1.484-2.504-1.667-3.392-1.672c0.066-0.687,0.188-2.092,0.167-3.052
	c-0.014-0.589-0.513-0.899-0.973-0.939c-0.749-0.066-1.097,0.431-1.191,0.716l-0.661,4.381c-0.279-0.361-0.67-1.318-1.181-1.417
	c-0.519-0.1-0.796,0.154-0.996,0.535c-0.112,0.213-0.118,0.419-0.118,0.453c0,0.076,0.137,1.815,0.499,3.152
	c0.369,1.36,1.633,3.289,1.701,3.372l0.043,0.054l0.059,0.034c0.463,0.259,1.008,0.427,1.613,0.521"/>
<g>
	<g>
		<path fill="#083F3F" d="M144.399,66.698h-0.002c-2.341,0-4.171-2.636-4.189-2.663l-0.585,0.402
			c0.084,0.122,2.057,2.973,4.774,2.973c1.505,0,2.916-0.877,4.192-2.607l-0.747-0.191
			C146.759,65.996,145.602,66.697,144.399,66.698z"/>
	</g>
</g>
<path fill="#083F3F" d="M154.426,74.471c-0.509-1.484-2.505-1.667-3.392-1.672c0.066-0.687,0.189-2.092,0.167-3.052
	c-0.014-0.589-0.514-0.899-0.973-0.939c-0.75-0.066-1.097,0.431-1.192,0.716l-0.66,4.381c-0.278-0.361-0.672-1.318-1.181-1.417
	c-0.52-0.1-0.796,0.154-0.995,0.535c-0.114,0.213-0.118,0.419-0.118,0.453c-0.001,0.076,0.135,1.815,0.498,3.152
	c0.368,1.36,1.635,3.289,1.701,3.372l0.043,0.054l0.06,0.034c0.461,0.259,1.007,0.427,1.612,0.521
	c-2.139,15.379-10.281,14.751-10.36,14.744l-0.071,0.708c0.034,0.004,0.152,0.014,0.333,0.014c1.664,0,8.795-0.865,10.803-15.397
	c0.122,0.006,0.237,0.019,0.363,0.019c0.898,0,1.574-0.152,1.602-0.159l0.16-0.035l0.076-0.145
	C153.12,79.937,155.024,76.214,154.426,74.471z M152.352,79.874c-0.236,0.041-0.715,0.11-1.289,0.11
	c-0.905,0-1.67-0.164-2.275-0.487c-0.251-0.319-1.228-1.957-1.526-3.057c-0.335-1.239-0.472-2.936-0.474-2.954
	c-0.026-0.196,0.065-0.296,0.13-0.313c0.189-0.046,0.232,0.073,0.286,0.143c0.236,0.301,0.592,1.052,1.027,1.77
	c0,0,0.197,0.361,0.374,0.339c0.219-0.028,0.283-0.323,0.283-0.323l0.826-5.369c0.035-0.071,0.16-0.24,0.452-0.216
	c0.055,0.004,0.322,0.038,0.326,0.247c0.029,1.237-0.201,3.34-0.204,3.362l-0.019,0.171c0,0-0.021,0.131,0.016,0.183
	c0.053,0.069,0.136,0.058,0.136,0.058l0.247-0.019c0.007-0.001,0.129-0.009,0.321-0.009c0.553,0,2.389,0.086,2.768,1.194
	C154.161,75.881,152.945,78.7,152.352,79.874z"/>
<line fill="none" stroke="#F8E16C" stroke-width="2" stroke-miterlimit="10" x1="199.999" y1="123.945" x2="0.07" y2="123.945"/>
<line fill="none" stroke="#F8E16C" stroke-width="2" stroke-miterlimit="10" x1="-0.001" y1="29.797" x2="199.932" y2="29.797"/>
<g>
	<g>
		<path fill="#083F3F" d="M44.65,73.768V52.502h4.896c5.133,0,7.698,3.544,7.698,10.632c0,3.598-0.58,6.269-1.737,8.016
			c-1.172,1.745-2.961,2.618-5.37,2.618H44.65z M50.059,72.895c2.211,0,3.317-3.253,3.317-9.761c0-6.506-1.265-9.76-3.79-9.76
			h-1.323v19.521H50.059z"/>
		<path fill="#083F3F" d="M72.111,73.768H61.095V52.502h10.72v0.912h-7.106v8.948h5.053v0.872h-5.053v9.622h7.403V73.768z"/>
		<path fill="#083F3F" d="M82.477,73.768h-3.375l-4.738-21.266h3.87l3.731,18.866l4.025-18.866h1.205L82.477,73.768z"/>
		<path fill="#083F3F" d="M91.578,55.397c1.343-2.063,3.022-3.095,5.037-3.095c2.023,0,3.71,1.032,5.051,3.095
			c1.356,2.077,2.033,4.656,2.033,7.737c0,3.254-0.651,5.873-1.954,7.856c-1.303,1.984-3.014,2.976-5.13,2.976
			c-2.12,0-3.831-0.992-5.134-2.976c-1.29-1.983-1.934-4.602-1.934-7.856C89.546,60.053,90.225,57.474,91.578,55.397z
			 M98.943,70.316c0.591-1.812,0.888-4.206,0.888-7.182c0-2.83-0.311-5.19-0.929-7.081c-0.605-1.892-1.367-2.837-2.287-2.837
			c-0.91,0-1.666,0.946-2.272,2.837c-0.617,1.892-0.928,4.252-0.928,7.081c0,2.976,0.297,5.37,0.889,7.182
			c0.58,1.825,1.35,2.739,2.312,2.739C97.573,73.055,98.35,72.141,98.943,70.316z"/>
		<path fill="#083F3F" d="M107.867,73.768V52.502h3.593c0.026,0,0.026,0.012,0,0.04c0.026,0.039,0.026,0.059,0,0.059v21.068
			c0.026,0,0.026,0.013,0,0.04c0.026,0.04,0.026,0.06,0,0.06H107.867z"/>
		<path fill="#083F3F" d="M119.536,64.524v9.245h-3.612V52.502h3.908c4.185,0,6.277,2.122,6.277,6.368
			c0,3.175-1.574,4.979-4.718,5.416l-0.671,0.08l5.844,9.403h-1.303L119.536,64.524z M119.872,63.532
			c1.75,0,2.626-1.554,2.626-4.662c0-3.663-0.902-5.495-2.704-5.495h-0.257v10.157H119.872z"/>
	</g>
</g>
<g>
	<g>
		<path fill="#083F3F" d="M89.205,92.763v10.515H85.6V82.05h10.699v0.911h-7.094v8.931h5.045v0.871H89.205z"/>
		<path fill="#083F3F" d="M96.969,103.277l5.123-21.227h3.919l5.143,21.227h-3.881l-1.538-6.475h-6.028l-1.557,6.475H96.969z
			 M105.541,95.912l-2.819-11.822l-2.816,11.822H105.541z"/>
		<path fill="#083F3F" d="M112.613,103.277V82.05h3.586c0.026,0,0.026,0.013,0,0.039c0.026,0.04,0.026,0.059,0,0.059v21.03
			c0.026,0,0.026,0.014,0,0.04c0.026,0.039,0.026,0.059,0,0.059H112.613z"/>
		<path fill="#083F3F" d="M121.461,103.277V82.961h-3.862V82.05h11.33v0.911h-3.863v20.317H121.461z"/>
	</g>
</g>
<path fill="#FFFFFF" d="M147.524,53.038c0,0,6.71,0.376,8.693,1.803c-0.092,2.633-2.254,10.851-2.254,10.851
	s-7.342-1.024-9.253-1.898C145.754,59.329,147.524,53.038,147.524,53.038z"/>
<g>
	<path fill="#FFFFFF" d="M147.14,52.173c0,0,5.707-0.91,7.689,0.514c-0.092,2.634-1.874,11.053-1.874,11.053s-3.56-0.588-8.219-0.33
		C145.778,58.945,147.14,52.173,147.14,52.173z"/>
	<g>
		<path fill="none" d="M154.389,53.691c0.035-0.303,0.061-0.579,0.074-0.816c-0.704-0.415-1.941-0.633-3.602-0.633
			c-1.468,0-2.876,0.171-3.425,0.247c-0.009,0.053-0.023,0.117-0.037,0.186l0.143,0.008
			C147.757,52.695,151.659,52.923,154.389,53.691z"/>
		<path fill="none" d="M152.676,63.339c0.266-1.275,1.227-5.985,1.625-8.941c-2.245-0.648-8.137,4.863-9.044,8.63
			c0.617-0.025,1.245-0.04,1.872-0.04C149.816,62.988,151.894,63.233,152.676,63.339z"/>
		<path fill="none" d="M153.23,64.145l-0.334-0.055c-0.023-0.004-2.409-0.391-5.767-0.391c-0.521,0-1.04,0.014-1.556,0.032
			c2.188,0.674,6.876,1.381,8.127,1.563c0.38-1.47,1.99-7.825,2.151-10.269c-0.238-0.146-0.533-0.28-0.867-0.403
			c-0.471,3.434-1.625,8.91-1.685,9.192L153.23,64.145z"/>
		<path fill="#083F3F" d="M156.422,54.552c-0.338-0.245-0.804-0.458-1.344-0.646c0.055-0.469,0.092-0.88,0.104-1.206l0.006-0.191
			l-0.154-0.111c-0.799-0.576-2.203-0.868-4.171-0.868c-1.93,0-3.701,0.279-3.777,0.291l-0.242,0.038l-0.049,0.242
			c-0.012,0.063-1.184,5.882-2.177,10.243c-0.106,0.428-0.207,0.848-0.302,1.253l-0.092,0.342c0,0,0.158,0.091,0.342,0.179
			c1.981,0.944,9.049,1.884,9.351,1.925l0.311,0.043l0.08-0.304c0.088-0.337,2.173-8.285,2.263-10.928l0.007-0.191L156.422,54.552z
			 M147.4,52.675c0.014-0.069,0.027-0.133,0.037-0.186c0.549-0.076,1.958-0.247,3.425-0.247c1.661,0,2.898,0.218,3.602,0.633
			c-0.013,0.236-0.039,0.512-0.074,0.816c-0.024,0.222-1.447,8.374-1.713,9.648c-0.782-0.107-2.86-0.351-5.546-0.351
			c-0.627,0-1.255,0.014-1.872,0.04C145.235,63.03,147.095,54.174,147.4,52.675z M153.701,65.294
			c-1.251-0.182-5.939-0.889-8.127-1.563c0.516-0.018,1.035-0.032,1.556-0.032c3.358,0,5.744,0.388,5.767,0.391l0.334,0.055
			l0.071-0.332c0.059-0.281,1.213-5.758,1.685-9.192c0.334,0.123,0.629,0.257,0.867,0.403
			C155.691,57.469,154.081,63.824,153.701,65.294z"/>
	</g>
</g>
<path fill="#083F3F" d="M152.09,56.412l-0.145-0.003c-0.118-0.003-2.899-0.07-3.601-0.206l-0.135-0.026l-0.009-0.138
	c-0.033-0.583,0.204-1.727,0.214-1.776l0.026-0.124l0.124-0.016c0.039-0.005,0.954-0.126,1.947-0.126
	c0.798,0,1.413,0.08,1.829,0.235l0.124,0.047l-0.009,0.132c-0.034,0.521-0.319,1.805-0.333,1.86L152.09,56.412z M148.552,55.877
	c0.738,0.099,2.703,0.158,3.256,0.173c0.068-0.317,0.229-1.087,0.28-1.527c-0.374-0.113-0.902-0.17-1.577-0.17
	c-0.761,0-1.49,0.075-1.775,0.107C148.682,54.74,148.56,55.428,148.552,55.877z"/>
<path fill="#083F3F" d="M136.387,90.452c-1.958-0.687-3.224-1.644-3.803-2.872c-0.251-0.532-0.348-1.063-0.323-1.579
	c0.001-0.017,0.003-0.026,0.003-0.034c0-0.001,0-0.001,0-0.002c0-0.076,0.005-0.153,0.015-0.231
	c0.096-1.588,1.474-2.911,3.064-2.974c2.355,0.037,4.262,1.97,4.262,4.346c0,0.958-0.304,1.867-0.88,2.628l0.79,0.602
	c0.706-0.936,1.079-2.053,1.079-3.23c0-2.801-2.157-5.101-4.886-5.323v-0.003c-0.017,0-0.034-0.001-0.051-0.001
	c-0.007,0-0.01,0.001-0.016,0.001c-0.121-0.008-0.243-0.019-0.364-0.019c-0.51,0-1.002,0.077-1.469,0.213
	c-1.091,0.246-1.963,0.725-2.604,1.449c-0.972,1.109-1.458,2.568-1.458,4.376c0,2.891,1.89,4.99,5.674,6.298
	c1.996,0.686,3.193,1.775,3.587,3.266c0.393,1.493,0.239,2.71-0.464,3.654c-0.587,0.79-1.358,1.312-2.31,1.524
	c-0.314,0.053-0.633,0.084-0.956,0.084l0,0c-2.204,0-4.184-1.232-5.169-3.216l-0.886,0.445c1.153,2.323,3.473,3.767,6.055,3.767l0,0
	c0.051,0,0.101-0.006,0.153-0.007c0.106,0,0.219-0.002,0.304-0.002c2.391-0.105,3.98-0.77,4.925-1.892
	c0.907-1.083,1.361-2.574,1.361-4.476C142.022,93.996,140.143,91.732,136.387,90.452z"/>
<path fill="#083F3F" d="M136.387,60.903c-1.958-0.686-3.224-1.644-3.803-2.871c-0.251-0.532-0.348-1.064-0.323-1.58
	c0.001-0.017,0.003-0.025,0.003-0.035c0-0.001,0-0.001,0-0.001c0-0.077,0.005-0.154,0.015-0.231
	c0.096-1.589,1.474-2.912,3.064-2.974c2.355,0.036,4.262,1.97,4.262,4.345c0,0.959-0.304,1.867-0.88,2.628l0.79,0.603
	c0.706-0.936,1.079-2.053,1.079-3.231c0-2.801-2.157-5.101-4.886-5.323v-0.003c-0.017,0-0.034-0.001-0.051-0.001
	c-0.007,0-0.01,0.001-0.016,0.001c-0.121-0.009-0.243-0.019-0.364-0.019c-0.51,0-1.002,0.077-1.469,0.213
	c-1.091,0.245-1.963,0.725-2.604,1.449c-0.972,1.11-1.458,2.568-1.458,4.376c0,2.891,1.89,4.991,5.674,6.298
	c1.996,0.686,3.193,1.776,3.587,3.268c0.393,1.491,0.239,2.71-0.464,3.653c-0.587,0.791-1.358,1.312-2.31,1.525
	c-0.314,0.053-0.633,0.084-0.956,0.084l0,0c-2.204,0-4.184-1.232-5.169-3.215l-0.886,0.445c1.153,2.323,3.473,3.766,6.055,3.766l0,0
	c0.051,0,0.101-0.006,0.153-0.007c0.106,0,0.219-0.001,0.304-0.001c2.391-0.106,3.98-0.77,4.925-1.892
	c0.907-1.082,1.361-2.574,1.361-4.476C142.022,64.447,140.143,62.183,136.387,60.903z"/>
</svg>
