<?xml version="1.0" encoding="UTF-8"?>
<svg width="144px" height="144px" viewBox="0 0 144 144" version="1.1" xmlns="http://www.w3.org/2000/svg" xmlns:xlink="http://www.w3.org/1999/xlink">
    <title>logos/devoirsfaits_144_deepgreen</title>
    <g id="logos/devoirsfaits_144_deepgreen" stroke="none" stroke-width="1" fill="none" fill-rule="evenodd">
        <g id="Group-3" transform="translate(8.000000, 21.000000)">
            <polygon id="Path" fill="#D1DF4C" points="10.6106261 78.9136185 118.387082 72.2094046 119.815959 94.4246208 11.7345811 101.301879"></polygon>
            <polygon id="Path" fill="#083F3F" points="8.83284834 77.1358407 116.609305 70.4316268 118.038182 92.646843 9.95680335 99.5241014"></polygon>
            <g id="Group-2">
                <path d="M121.301666,33.3329046 C121.44027,33.3396247 121.573833,33.3539051 121.718317,33.3539051 C122.744824,33.3539051 123.516804,33.1800206 123.549565,33.1716204 L123.732689,33.1312993 L123.819212,32.964975 C124.071218,32.4861626 126.249395,28.2289322 125.563937,26.2347205 C124.982642,24.5378765 122.700303,24.328711 121.684716,24.3219909 C121.761158,23.5357305 121.900602,21.9296088 121.876241,20.8325403 C121.859441,20.1588429 121.289066,19.8043537 120.763212,19.7589925 C119.90639,19.6825505 119.50822,20.2520853 119.401537,20.5771737 L118.645517,25.5879037 C118.326309,25.175453 117.879417,24.0800646 117.295602,23.9675017 C116.701707,23.8532587 116.385019,24.1439062 116.157373,24.5790375 C116.028849,24.8226438 116.022129,25.0578499 116.022129,25.0964909 C116.022129,25.1830132 116.179213,27.1721848 116.593344,28.7018645 C117.015035,30.2575848 118.460713,32.462642 118.537155,32.5575645 L118.587556,32.6188861 L118.654758,32.6575271 C119.183971,32.9540547 119.807268,33.1464197 120.498605,33.2531025" id="Path" fill="#FFFFFF" fill-rule="nonzero"></path>
                <path d="M114.074119,17.3472899 L114.072439,17.3472899 C111.395289,17.3472899 109.301955,14.3324517 109.281794,14.302211 L108.613137,14.7617029 C108.7089,14.9003065 110.966038,18.1612711 114.072439,18.1612711 C115.793643,18.1612711 117.406485,17.158285 118.866443,15.1791937 L118.012141,14.9616281 C116.773109,16.5433891 115.450074,17.3464499 114.074119,17.3472899 Z" id="Path" fill="#083F3F" fill-rule="nonzero"></path>
                <path d="M125.542096,26.2355605 C124.959961,24.5387165 122.677622,24.329551 121.663716,24.3228309 C121.739318,23.5365705 121.879601,21.9304488 121.854401,20.8333804 C121.83844,20.1596829 121.267225,19.8051937 120.741372,19.7598325 C119.883709,19.6833905 119.487219,20.2529253 119.378856,20.5780137 L118.624517,25.5887437 C118.306149,25.176293 117.856737,24.0809046 117.274602,23.9683417 C116.679866,23.8540987 116.364018,24.1447463 116.136372,24.5798775 C116.006169,24.8234839 116.001129,25.05869 116.001129,25.097331 C116.000289,25.1838532 116.155693,27.1730248 116.570664,28.7027045 C116.991514,30.2584248 118.440552,32.463482 118.515314,32.5584045 L118.564875,32.6197261 L118.634597,32.6583671 C119.161291,32.9548948 119.785427,33.1472598 120.477605,33.2539425 C118.031461,50.8414787 108.71982,50.1241001 108.629938,50.1156999 L108.548455,50.9254809 C108.587096,50.930521 108.72234,50.9422813 108.928985,50.9422813 C110.831635,50.9422813 118.987406,49.9527356 121.283186,33.3345846 C121.422629,33.3413048 121.553673,33.3555852 121.698157,33.3555852 C122.725503,33.3555852 123.499163,33.1817007 123.530244,33.1733004 L123.713369,33.1329794 L123.800731,32.9666551 C124.047697,32.4870026 126.225034,28.2297722 125.542096,26.2355605 Z M123.169035,32.4156008 C122.900228,32.462642 122.351693,32.540764 121.695636,32.540764 C120.66157,32.540764 119.786267,32.3525991 119.094089,31.9838296 C118.806802,31.6184201 117.689573,29.7460115 117.349364,28.4876589 C116.965474,27.0705421 116.80923,25.1292518 116.80671,25.1099313 C116.776469,24.8856455 116.880632,24.7714025 116.955394,24.752082 C117.171279,24.6991606 117.22084,24.8360842 117.283002,24.9150462 C117.552649,25.2586151 117.96006,26.1179574 118.456512,26.9386587 C118.456512,26.9386587 118.682478,27.3519494 118.884924,27.3267488 C119.13609,27.294828 119.209172,26.9579792 119.209172,26.9579792 L120.154196,20.81742 C120.193678,20.7359378 120.337321,20.5427328 120.66997,20.5704535 C120.732972,20.5754937 121.037899,20.6141347 121.0421,20.8527009 C121.07486,22.2672976 120.812774,24.6722799 120.809413,24.6974806 L120.787573,24.8932057 C120.787573,24.8932057 120.764052,25.0435696 120.805213,25.1023711 C120.864855,25.1821732 120.960617,25.1695728 120.960617,25.1695728 L121.242865,25.1477323 C121.251265,25.1477323 121.390709,25.136812 121.609954,25.136812 C122.242491,25.136812 124.342545,25.2350945 124.775996,26.5026874 C125.238008,27.8484023 123.847772,31.0724059 123.169035,32.4156008 Z" id="Shape" fill="#083F3F" fill-rule="nonzero"></path>
                <g id="Group" transform="translate(0.000000, 0.883703)" fill="#083F3F" fill-rule="nonzero">
                    <path d="M0,24.5487967 L0,0.227645905 L5.59874522,0.227645905 C11.4688175,0.227645905 14.4021736,4.28075103 14.4021736,12.3869613 C14.4021736,16.500548 13.7393964,19.5565472 12.415522,21.553279 C11.0756873,23.5491708 9.0293942,24.5479567 6.27412274,24.5479567 L0,24.5479567 L0,24.5487967 Z M6.18676047,23.5500108 C8.71606607,23.5500108 9.98029886,19.8295543 9.98029886,12.3869613 C9.98029886,4.94604829 8.53294132,1.22475177 5.64578644,1.22475177 L4.1329072,1.22475177 L4.1329072,23.5491708 L6.18676047,23.5491708 L6.18676047,23.5500108 Z" id="Shape"></path>
                    <polygon id="Path" points="31.4058946 24.5487967 18.8072478 24.5487967 18.8072478 0.227645905 31.0673658 0.227645905 31.0673658 1.27011294 22.940155 1.27011294 22.940155 11.5032584 28.7178249 11.5032584 28.7178249 12.5003642 22.940155 12.5003642 22.940155 23.5038096 31.4058946 23.5038096"></polygon>
                    <polygon id="Path" points="43.2602821 24.5487967 39.3995419 24.5487967 33.9814014 0.228485926 38.4074762 0.228485926 42.6747869 21.8036055 47.2772663 0.228485926 48.654902 0.228485926"></polygon>
                    <path d="M53.668152,3.53901179 C55.2037118,1.18023061 57.1240017,0 59.4281814,0 C61.7424414,0 63.6702914,1.18023061 65.2041712,3.53901179 C66.7548515,5.91375339 67.5301916,8.86390991 67.5301916,12.3869613 C67.5301916,16.1082578 66.7850922,19.1029355 65.2957336,21.3709943 C63.805535,23.6398932 61.8482842,24.7739226 59.4290214,24.7739226 C57.0047186,24.7739226 55.0474678,23.6398932 53.5572691,21.3709943 C52.0821909,19.1029355 51.3446511,16.1074178 51.3446511,12.3869613 C51.3438117,8.86390991 52.1208319,5.91375339 53.668152,3.53901179 Z M62.0910505,20.5998543 C62.767268,18.5283606 63.1057968,15.7898896 63.1057968,12.3869613 C63.1057968,9.15035734 62.7504676,6.45136733 62.0431692,4.28831123 C61.3518313,2.12525512 60.4807287,1.04330706 59.4281814,1.04330706 C58.3882344,1.04330706 57.522172,2.12525512 56.829154,4.28831123 C56.1235357,6.45136733 55.7665264,9.15119736 55.7665264,12.3869613 C55.7665264,15.7898896 56.1058952,18.5283606 56.7837928,20.5998543 C57.44657,22.6873085 58.3269129,23.7322956 59.4273414,23.7322956 C60.5244099,23.7322956 61.4123129,22.6881485 62.0910505,20.5998543 Z" id="Shape"></path>
                    <path d="M72.2964752,24.5487967 L72.2964752,0.227645905 L76.4058618,0.227645905 C76.4352625,0.227645905 76.4352625,0.241926275 76.4058618,0.273007081 C76.4352625,0.318368258 76.4352625,0.341048846 76.4058618,0.341048846 L76.4058618,24.4345538 C76.4352625,24.4345538 76.4352625,24.4496742 76.4058618,24.4799149 C76.4352625,24.5252761 76.4352625,24.5487967 76.4058618,24.5487967 L72.2964752,24.5487967 L72.2964752,24.5487967 Z" id="Path"></path>
                    <path d="M85.6419013,13.9762825 L85.6419013,24.5479567 L81.5115142,24.5479567 L81.5115142,0.227645905 L85.9804301,0.227645905 C90.7660342,0.227645905 93.1592563,2.65446885 93.1592563,7.50979479 C93.1592563,11.140369 91.3590896,13.2043025 87.7637964,13.7032754 L86.9951764,13.7948378 L93.6792298,24.5487967 L92.1890312,24.5487967 L85.6419013,13.9762825 Z M86.0249513,12.8422531 C88.0267232,12.8422531 89.0280292,11.064767 89.0280292,7.51063481 C89.0280292,3.32144615 87.9956424,1.22643181 85.9350689,1.22643181 L85.6410613,1.22643181 L85.6410613,12.8430931 L86.0249513,12.8430931 L86.0249513,12.8422531 Z" id="Shape"></path>
                </g>
                <g id="Group" transform="translate(46.832055, 34.902905)" fill="#083F3F" fill-rule="nonzero">
                    <polygon id="Path" points="4.12282694 12.2508778 4.12282694 24.2757897 0 24.2757897 0 1.19374276e-14 12.2349173 1.19374276e-14 12.2349173 1.040787 4.12282694 1.040787 4.12282694 11.2546119 9.8929366 11.2546119 9.8929366 12.2508778 4.12282694 12.2508778"></polygon>
                    <path d="M13.0018572,24.2766297 L18.8610092,0.000840021788 L23.3433655,0.000840021788 L29.225198,24.2766297 L24.7873629,24.2766297 L23.0283573,16.8718376 L16.1334585,16.8718376 L14.3534523,24.2766297 L13.0018572,24.2766297 Z M22.8040715,15.8528912 L19.5800679,2.33274051 L16.3594243,15.8528912 L22.8040715,15.8528912 Z" id="Shape"></path>
                    <path d="M30.8918013,24.2766297 L30.8918013,1.19374276e-14 L34.9936276,1.19374276e-14 C35.0230284,1.19374276e-14 35.0230284,0.0151203922 34.9936276,0.0445211548 C35.0230284,0.0907223531 35.0230284,0.11256292 34.9936276,0.11256292 L34.9936276,24.1623867 C35.0230284,24.1623867 35.0230284,24.1791871 34.9936276,24.2085879 C35.0230284,24.2539491 35.0230284,24.2766297 34.9936276,24.2766297 L30.8918013,24.2766297 L30.8918013,24.2766297 Z" id="Path"></path>
                    <polygon id="Path" points="41.0098637 24.2766297 41.0098637 1.04162702 36.5930291 1.04162702 36.5930291 0.000840021788 49.5503652 0.000840021788 49.5503652 1.04162702 45.1326906 1.04162702 45.1326906 24.2766297"></polygon>
                </g>
                <path d="M117.155319,0.779540219 C117.155319,0.779540219 120.936257,0.00840021788 125.584097,0.884542943 C126.181353,3.53649173 126.309036,2.86615434 127.590069,3.78765824 C127.485067,6.79913635 125.012883,16.1956201 125.012883,16.1956201 C125.012883,16.1956201 116.616865,15.0246297 114.430288,14.0258438 C115.623959,8.91935135 117.155319,0.779540219 117.155319,0.779540219 Z" id="Path" fill="#FFFFFF" fill-rule="nonzero"></path>
                <g id="Group" transform="translate(113.872514, 0.000000)">
                    <path d="M11.6267416,2.47218412 C11.6670626,2.12525512 11.6973034,1.80940693 11.7124238,1.53975994 C10.9076829,1.06514763 9.49224621,0.815661156 7.59379696,0.815661156 C5.91543343,0.815661156 4.30511166,1.01138623 3.67677537,1.09706846 C3.66585508,1.15839005 3.65157471,1.23147194 3.63477428,1.31043399 L3.79857853,1.31967423 C4.04218484,1.33227456 8.50354056,1.59436135 11.6267416,2.47218412 Z" id="Path"></path>
                    <path d="M9.66781076,13.5058703 C9.97189865,12.0484325 11.0706471,6.6622128 11.526779,3.2811251 C8.95883237,2.54022589 2.22101761,8.84290936 1.1835907,13.1505411 C1.889209,13.1211403 2.60658761,13.1051799 3.32480624,13.1051799 C6.39592589,13.1043399 8.77234753,13.3832271 9.66781076,13.5058703 Z" id="Path"></path>
                    <path d="M10.3011872,14.4273742 L9.9198173,14.3652126 C9.89377662,14.3610125 7.16454583,13.918321 3.32480624,13.918321 C2.72923079,13.918321 2.13617541,13.9342814 1.54564009,13.9544419 C4.048065,14.7247419 9.40908405,15.5328429 10.8396412,15.7411683 C11.2739324,14.0602847 13.1161002,6.79241618 13.300065,3.99850371 C13.0278979,3.83133938 12.6902092,3.67845541 12.3088393,3.53733175 C11.7695453,7.46443361 10.449871,13.726796 10.3818293,14.0493644 L10.3011872,14.4273742 Z" id="Path"></path>
                    <path d="M13.9502418,3.45668966 C13.5646718,3.1769624 13.030418,2.93251606 12.413842,2.71747048 C12.4768436,2.18069656 12.5188447,1.71112438 12.5322851,1.33815471 L12.5398453,1.11974904 L12.3626007,0.992905753 C11.449497,0.334328672 9.84337531,-2.9843569e-15 7.59295694,-2.9843569e-15 C5.38537968,-2.9843569e-15 3.36008715,0.319208279 3.27356491,0.33348865 L2.99635772,0.377169783 L2.94007626,0.653536951 C2.92579589,0.725778825 1.58680116,7.38043143 0.450251678,12.3676408 C0.328448519,12.8573735 0.214205556,13.337866 0.105842745,13.800718 L0,14.1913281 C0,14.1913281 0.180604684,14.2954908 0.390610131,14.3962934 C2.65614889,15.4757214 10.7388385,16.5501093 11.0840875,16.5979905 L11.4402567,16.6467118 L11.5318191,16.2981027 C11.6317817,15.9133728 14.0166036,6.82265696 14.1199262,3.80109859 L14.1274864,3.58269293 L13.9502418,3.45668966 Z M3.63393426,1.31043399 C3.65073469,1.23147194 3.66501506,1.15755002 3.67593534,1.09706846 C4.30427164,1.01054621 5.91459341,0.815661156 7.59295694,0.815661156 C9.49224621,0.815661156 10.9068429,1.06430761 11.7115838,1.53975994 C11.6964634,1.81024695 11.6662226,2.12525512 11.6259015,2.47218412 C11.5981808,2.7258707 9.97105862,12.0484325 9.66697074,13.5058703 C8.77234753,13.3832271 6.39508587,13.1043399 3.32396622,13.1043399 C2.60658761,13.1043399 1.88836898,13.1211403 1.18275068,13.1497011 C1.15755002,13.1513811 3.28532521,3.02407844 3.63393426,1.31043399 Z M10.8396412,15.7403283 C9.40908405,15.5320029 4.04722497,14.7239019 1.54564009,13.9536019 C2.13617541,13.9334414 2.72923079,13.917481 3.32480624,13.917481 C7.16370581,13.917481 9.8929366,14.3601725 9.9198173,14.3643726 L10.3011872,14.4265342 L10.3826693,14.0468443 C10.4507111,13.725116 11.7703853,7.46191354 12.3096793,3.53481168 C12.6910492,3.67593534 13.0278979,3.82881931 13.300905,3.99598365 C13.1161002,6.79241618 11.2739324,14.0594447 10.8396412,15.7403283 Z" id="Shape" fill="#083F3F" fill-rule="nonzero"></path>
                </g>
                <path d="M104.912001,44.5119145 C102.673343,43.7264942 101.225146,42.6319458 100.563208,41.2274293 C100.276761,40.6192536 100.165038,40.0119178 100.194439,39.4222225 C100.196119,39.402902 100.197799,39.3919817 100.198639,39.3827415 C100.198639,39.3819015 100.198639,39.3810614 100.198639,39.3802214 C100.198639,39.2928592 100.205359,39.2054969 100.216279,39.1172946 C100.326322,37.3003275 101.901363,35.7874482 103.72001,35.7152064 C106.41312,35.7572075 108.593817,37.9689848 108.593817,40.6856153 C108.593817,41.7810037 108.246048,42.8201106 107.588311,43.6903732 L108.492174,44.3791911 C109.299435,43.3090033 109.727006,42.0313302 109.727006,40.6856153 C109.727006,37.4826122 107.259862,34.852504 104.138341,34.5971374 L104.138341,34.5946173 C104.119021,34.5946173 104.0997,34.5929373 104.08038,34.5929373 C104.071979,34.5929373 104.068619,34.5937773 104.061899,34.5937773 C103.923296,34.584537 103.784692,34.5727767 103.646088,34.5727767 C103.063113,34.5727767 102.500299,34.660139 101.966045,34.815543 C100.718612,35.0969503 99.7215065,35.6446445 98.9881675,36.472906 C97.8768187,37.7413389 97.3207243,39.4096222 97.3207243,41.4777558 C97.3207243,44.7849216 99.4821003,47.1848639 103.809893,48.6792626 C106.093072,49.464683 107.462307,50.7095953 107.912559,52.4148395 C108.361971,54.1217638 108.186406,55.5136799 107.381665,56.5939479 C106.709648,57.4978113 105.828465,58.0942268 104.739797,58.3369931 C104.381107,58.3974747 104.016538,58.4335956 103.646088,58.4335956 L103.646088,58.4335956 C101.125183,58.4335956 98.8613242,57.0240391 97.735695,54.7559802 L96.7217887,55.2633534 C98.0397829,57.9203423 100.694252,59.5718251 103.646088,59.5718251 L103.646088,59.5718251 C103.70489,59.5718251 103.762011,59.565105 103.820813,59.5634249 C103.942616,59.5634249 104.071979,59.5609049 104.169422,59.5609049 C106.903693,59.4399417 108.7215,58.679722 109.801768,57.3970087 C110.839195,56.1588166 111.358328,54.4535724 111.358328,52.278756 C111.356648,48.5650197 109.207033,45.9752325 104.912001,44.5119145 Z" id="Path" fill="#083F3F" fill-rule="nonzero"></path>
                <path d="M104.912001,10.719518 C102.673343,9.93409767 101.225146,8.83954928 100.563208,7.43587287 C100.276761,6.82769709 100.165038,6.2186813 100.194439,5.62982602 C100.196119,5.61050552 100.197799,5.60042526 100.198639,5.590345 C100.198639,5.58950498 100.198639,5.58950498 100.198639,5.58950498 C100.198639,5.50214271 100.205359,5.41394042 100.216279,5.32573814 C100.326322,3.50793099 101.901363,1.99589177 103.72001,1.92448992 C106.41312,1.96565098 108.593817,4.17742835 108.593817,6.89321879 C108.593817,7.99028725 108.246048,9.02855418 107.588311,9.89881675 L108.492174,10.5884746 C109.299435,9.51828688 109.727006,8.24061374 109.727006,6.89321879 C109.727006,3.69021571 107.259862,1.0601075 104.138341,0.806420917 L104.138341,0.803060829 C104.119021,0.803060829 104.0997,0.801380786 104.08038,0.801380786 C104.071979,0.801380786 104.068619,0.802220808 104.061899,0.802220808 C103.923296,0.792140546 103.784692,0.780380241 103.646088,0.780380241 C103.063113,0.780380241 102.500299,0.867742507 101.966045,1.02398656 C100.718612,1.30455384 99.7215065,1.85308806 98.9881675,2.68050953 C97.8768187,3.94978245 97.3207243,5.6172257 97.3207243,7.68535934 C97.3207243,10.9925251 99.4821003,13.3924674 103.809893,14.8877061 C106.093072,15.6731265 107.462307,16.9180388 107.912559,18.6241231 C108.361971,20.3293673 108.186406,21.7229634 107.381665,22.8023914 C106.709648,23.7070949 105.828465,24.3026704 104.739797,24.5462767 C104.381107,24.6059182 104.016538,24.6420392 103.646088,24.6420392 L103.646088,24.6420392 C101.125183,24.6420392 98.8613242,23.2324826 97.735695,20.9652638 L96.7217887,21.473477 C98.0397829,24.1296259 100.694252,25.7802687 103.646088,25.7802687 L103.646088,25.7802687 C103.70489,25.7802687 103.762011,25.7735485 103.820813,25.7718685 C103.942616,25.7718685 104.071979,25.7710284 104.169422,25.7710284 C106.903693,25.6492253 108.7215,24.8906856 109.801768,23.6062923 C110.839195,22.3689402 111.358328,20.6620159 111.358328,18.4880395 C111.356648,14.7726232 109.207033,12.183676 104.912001,10.719518 Z" id="Path" fill="#083F3F" fill-rule="nonzero"></path>
                <polygon id="Path" fill="#FFFFFF" fill-rule="nonzero" points="118.824442 3.15260177 123.058152 3.22484364 122.644021 5.3744594 118.606036 5.16949408"></polygon>
                <path d="M122.869987,5.58446485 L122.704503,5.58110476 C122.569259,5.57774467 119.389777,5.50046267 118.587556,5.34589866 L118.432992,5.31565787 L118.422072,5.15773378 C118.385111,4.49075648 118.654758,3.18200253 118.666518,3.12740112 L118.695919,2.98543743 L118.837042,2.96695696 C118.882404,2.9610768 119.928231,2.82247321 121.06394,2.82247321 C121.976204,2.82247321 122.679302,2.91403558 123.154754,3.09128018 L123.296718,3.14504157 L123.285798,3.2962455 C123.246317,3.89266097 122.921228,5.36101905 122.905268,5.42234064 L122.869987,5.58446485 Z M118.824442,4.97208896 C119.668664,5.08465188 121.915722,5.15269365 122.548259,5.16949408 C122.625541,4.80660467 122.809505,3.92626184 122.867467,3.42308879 C122.439896,3.29288541 121.83592,3.22904375 121.06478,3.22904375 C120.194518,3.22904375 119.361216,3.31472598 119.034447,3.35168693 C118.973126,3.67173524 118.832842,4.45799563 118.824442,4.97208896 Z" id="Shape" fill="#083F3F" fill-rule="nonzero"></path>
            </g>
            <g id="Group" transform="translate(14.080445, 74.050441)" fill="#FFFFFF" fill-rule="nonzero">
                <polygon id="Path" points="0.847581984 20.4175696 0 7.25358814 2.01353223 7.12422478 2.86111421 20.2882062"></polygon>
                <path d="M9.85765568,12.4995242 C9.87529614,12.6633285 9.89125655,12.8346929 9.90301686,13.0152976 L10.216345,17.8781837 C10.2297853,18.0907092 10.2625462,18.2167125 10.3137875,18.2536735 C10.3734291,18.2914744 10.5347132,18.3007147 10.7968,18.2839142 L10.8925625,19.7707528 C9.84421533,19.8379545 9.18227817,19.8312344 8.905911,19.7505923 C8.5707423,19.6497897 8.36325692,19.3616622 8.28261483,18.89125 C8.12049063,19.6817105 7.71140001,20.0992013 7.05702304,20.1420424 C5.59118502,20.2361249 4.81080478,19.546467 4.71672234,18.0722287 C4.66044088,17.196086 4.78644415,16.4803875 5.09641219,15.9268131 C5.40554021,15.3732387 5.84319156,15.0767111 6.4076862,15.0397501 C6.9242996,15.0069892 7.29726927,14.7986638 7.52659522,14.4139339 C7.76432139,14.0208037 7.87016413,13.4252282 7.84412346,12.6297276 L9.85765568,12.4995242 Z M7.84412346,12.6297276 C7.84496348,12.5138046 7.84160339,12.3995616 7.8340432,12.2853187 C7.73492062,10.754799 7.52659522,9.99961937 7.20738694,10.0214599 C6.77309568,10.0483406 6.3883657,10.2054247 6.05403703,10.4893521 C5.71046812,10.7749595 5.48198219,11.1378489 5.37109931,11.5813804 L4.79400434,11.4335366 C4.93176792,10.8908825 5.21989539,10.4448309 5.65670672,10.0962219 C6.09435807,9.73837259 6.60005119,9.54180749 7.17294605,9.50568655 C8.71186596,9.40572396 9.60648917,10.4036698 9.85681566,12.4995242 L7.84412346,12.6297276 Z M7.9768469,14.5080163 C7.77524167,15.0716709 7.3829515,15.3715587 6.80249644,15.4085197 C6.63869219,15.4194399 6.60929143,16.2401412 6.71429415,17.8697835 C6.79409622,19.1054555 6.96462064,19.7144713 7.22586742,19.6976709 C7.88108442,19.6548298 8.19861265,18.9777722 8.18097219,17.6639782 L7.9768469,14.5080163 Z" id="Shape"></path>
                <path d="M22.1757352,17.4531327 C22.0194911,17.9731062 21.7691646,18.4048774 21.4213956,18.7476063 C21.0727866,19.082775 20.6897366,19.2633796 20.2722458,19.2902603 C19.1424165,19.3625022 18.235193,18.9937326 17.5497352,18.1831116 C16.8289965,17.3170492 16.4115057,15.999055 16.2972627,14.2308091 C16.1830197,12.4634033 16.4291461,11.103408 17.0339618,10.1533434 C17.6102168,9.26040019 18.4619989,8.77822769 19.5918282,8.70598581 C20.3117268,8.65894459 21.0207052,9.25452004 21.7162433,10.4927122 L21.1937497,10.7968 C20.5553332,9.69553148 20.0311596,9.15707751 19.6220689,9.18311819 C18.6568839,9.2452798 18.276354,10.8808022 18.4838394,14.0905255 C18.6888047,17.274208 19.2734599,18.8358086 20.240325,18.774487 C20.8535409,18.7350059 21.3063126,18.2125124 21.5936001,17.2078463 L22.1757352,17.4531327 Z" id="Path"></path>
                <path d="M24.1187056,9.69721152 C24.5949979,8.81098854 25.3174167,8.33721625 26.2834417,8.27589466 C27.3149885,8.20869291 28.1272896,8.64214416 28.722025,9.57372832 C29.2789594,10.4507111 29.6116081,11.7149439 29.7182908,13.3681067 C29.8325338,15.1363526 29.6359687,16.4946678 29.1302756,17.4396923 C28.6531432,18.3250753 27.9307245,18.7988476 26.9646994,18.8610092 C25.9331526,18.9273709 25.1208516,18.4939197 24.5269562,17.5623355 C23.9691817,16.6861928 23.6356931,15.42028 23.5298503,13.7662771 C23.4156073,11.9971912 23.6130125,10.642236 24.1187056,9.69721152 Z M27.5333941,13.5075504 C27.3250687,10.2827067 26.9193382,8.6900254 26.3128425,8.72950642 C25.7071868,8.76814742 25.5089416,10.4003098 25.715587,13.6251534 C25.9230724,16.8508371 26.3296429,18.4435184 26.9352986,18.4048774 C27.5417944,18.3653964 27.7408795,16.734074 27.5333941,13.5075504 Z" id="Shape"></path>
                <path d="M39.826273,17.9092645 L39.3230999,10.0861416 C39.2357377,8.7362266 39.1105744,8.06672923 38.9467702,8.07680949 C38.4881183,8.10621025 38.1327891,8.33469618 37.8816226,8.76142725 C37.627936,9.1797581 37.5237733,9.72409222 37.5666144,10.3952696 L38.052987,17.9596658 C38.0697874,17.9596658 38.0706275,17.968066 38.0555071,17.9840265 C38.0731475,18.0075471 38.0739875,18.0209874 38.0580271,18.0218274 L36.0562552,18.1503508 L35.5522421,10.3272279 C35.4648799,8.97647283 35.3405566,8.30781548 35.1767524,8.31705572 C34.6853397,8.34897655 34.3014497,8.57914252 34.0250825,9.00755363 C33.7478753,9.42840455 33.6302723,9.97357869 33.6747934,10.6447561 L34.1653662,18.2704739 L32.1518339,18.4006773 L31.4856967,8.06000906 L33.4992289,7.93148572 L33.5891112,9.33180204 C33.8705185,8.33469618 34.4694541,7.80632248 35.3867578,7.74752095 C36.4426652,7.67947919 37.1222429,8.21121298 37.4254907,9.34188231 C37.629616,8.17761211 38.206711,7.56523622 39.1567756,7.50391463 C39.7699915,7.46443361 40.2681245,7.65175847 40.6478143,8.06336914 C41.0451446,8.49010021 41.2702704,9.12011655 41.3248719,9.95425819 L41.8238448,17.7152195 C41.8406452,17.7135394 41.8414853,17.7219397 41.8255248,17.7395801 C41.8440053,17.7622607 41.8440053,17.7757011 41.8280449,17.7773811 L39.826273,17.9092645 Z" id="Path"></path>
                <path d="M51.7999436,17.1389645 L51.2967705,9.31584163 C51.2094082,7.96508659 51.083405,7.29642925 50.9204407,7.30566949 C50.4617889,7.33507025 50.1064596,7.5643962 49.8544531,7.99028725 C49.6016065,8.40945812 49.4974438,8.95379224 49.540285,9.62580967 L50.0266576,17.1893658 C50.043458,17.1885258 50.044298,17.196926 50.0283376,17.2137265 C50.0468181,17.2372471 50.0476581,17.2498474 50.0308577,17.2515275 L48.0290858,17.3800508 L47.5259127,9.55692788 C47.4385504,8.20785289 47.3133872,7.5375155 47.1495829,7.54759577 C46.6581702,7.57951659 46.2751203,7.81052259 45.9987531,8.23809368 C45.7215459,8.65810457 45.6039429,9.20327871 45.647624,9.87529614 L46.1390367,17.5010139 L44.1255045,17.6312173 L43.4593672,7.2905491 L45.4728995,7.16118574 L45.5627818,8.56150206 C45.8441891,7.5643962 46.4431246,7.03686252 47.3604284,6.97722097 C48.4163358,6.90917921 49.0959134,7.440913 49.3991613,8.57242235 C49.6032866,7.40815215 50.1803816,6.79577627 51.1304462,6.73445467 C51.7436621,6.69413363 52.240955,6.88145849 52.6214849,7.29222914 C53.0179752,7.71896021 53.243941,8.34897655 53.2977024,9.18395821 L53.7975154,16.9440795 C53.8143158,16.9432395 53.8143158,16.9516397 53.7991954,16.9684401 C53.8168359,16.9919607 53.8176759,17.0054011 53.8017155,17.0062411 L51.7999436,17.1389645 Z" id="Path"></path>
                <path d="M60.9225802,6.16996003 L61.5878774,16.5089482 L59.5751852,16.6383116 L59.5155437,15.7168077 C59.2744574,16.4308262 58.7519639,16.8147161 57.948903,16.8659575 C57.2365646,16.9121587 56.7182711,16.7029932 56.3923427,16.2384612 C56.1033752,15.8293706 55.9261306,15.1338325 55.8631289,14.1518471 L55.3733962,6.52696929 L57.3860885,6.39760594 L57.8766612,14.0216437 C57.9741037,15.537043 58.0505457,16.2930626 58.1076672,16.2888625 C58.5419584,16.2619818 58.8830073,16.116658 59.1291337,15.8528912 C59.3761001,15.5992046 59.4869829,15.2715961 59.4601022,14.8700657 L58.909888,6.29932339 L60.9225802,6.16996003 Z" id="Path"></path>
                <path d="M67.7653977,16.1116179 L67.2622246,8.28849498 C67.1748623,6.93773995 67.0488591,6.26824258 66.8858949,6.27832284 C66.4112825,6.30856363 66.043353,6.53788958 65.7829462,6.96630069 C65.5216995,7.38547156 65.4150167,7.92896566 65.4570178,8.60014307 L65.9475905,16.2275409 L63.9340583,16.3560642 L63.2696011,6.01707607 L65.2822933,5.88771271 L65.3704955,7.26282838 C65.6443427,6.28336297 66.2197576,5.76506953 67.0959003,5.70794805 C67.7091162,5.66846703 68.2064091,5.85495186 68.586099,6.26656254 C68.9834293,6.69329361 69.2085551,7.32330995 69.2631565,8.15829161 L69.7612894,15.9184129 C69.7780899,15.9175729 69.7789299,15.9259731 69.7638095,15.9427735 C69.78145,15.9662941 69.78229,15.9797345 69.7663296,15.9805745 L67.7653977,16.1116179 Z" id="Path"></path>
                <path d="M76.7015494,8.19945267 C76.7191899,8.36157688 76.7359903,8.53378134 76.7477506,8.71354601 L77.0610788,13.5764321 C77.0753591,13.7889577 77.10812,13.9149609 77.1593613,13.9536019 C77.2190029,13.9897229 77.378607,13.9998031 77.6406938,13.9821627 L77.7364563,15.4690012 C76.6889491,15.537043 76.027012,15.5303228 75.7514848,15.4496807 C75.4154761,15.3480381 75.2088307,15.0599106 75.1281886,14.5894984 C74.9652244,15.3807989 74.5561338,15.7974497 73.9017568,15.8402909 C72.4367588,15.9343733 71.6555386,15.2447154 71.5606161,13.7713172 C71.5043346,12.8960145 71.6311779,12.1803159 71.940306,11.6259015 C72.249434,11.0714872 72.6879253,10.7749595 73.25326,10.7388385 C73.7681934,10.7052377 74.1420031,10.4977523 74.371329,10.1130223 C74.6098952,9.71905209 74.7148979,9.12431666 74.6880172,8.32881603 L76.7015494,8.19945267 Z M74.6871772,8.32881603 C74.6880172,8.21373304 74.6854972,8.09865006 74.677937,7.98356707 C74.5796544,6.45304738 74.369649,5.69786779 74.0512807,5.71970835 C73.6169894,5.74742907 73.2314194,5.90367313 72.8970908,6.18928053 C72.5535219,6.47404792 72.326716,6.83693733 72.2158331,7.27962882 L71.6378981,7.132625 C71.7765017,6.58997093 72.0629491,6.14391936 72.5006005,5.79447029 C72.9382518,5.43830106 73.4431049,5.24089594 74.0159998,5.20393498 C75.5557597,5.10565243 76.4495429,6.10275829 76.6998694,8.19945267 L74.6871772,8.32881603 Z M74.8207407,10.2071047 C74.6191354,10.7699193 74.2268453,11.0698071 73.6463902,11.1076081 C73.482586,11.1176884 73.4540252,11.9383897 73.5590279,13.5680319 C73.63799,14.804544 73.8085144,15.4127198 74.0697612,15.3959193 C74.7249782,15.3547583 75.0433464,14.6768607 75.024866,13.3622266 L74.8207407,10.2071047 Z" id="Shape"></path>
                <path d="M84.4154695,4.65792081 L85.0807668,14.996909 L83.0672346,15.1262723 L83.008433,14.2047684 C82.7673468,14.918787 82.2440132,15.3035169 81.4417924,15.3539182 C80.7286139,15.4001194 80.2111605,15.190954 79.885232,14.726422 C79.5962645,14.3173314 79.4190199,13.6217933 79.3560183,12.6398078 L78.8662856,5.01493007 L80.8789778,4.88556672 L81.3695505,12.5104445 C81.4669931,14.0250038 81.543435,14.7810234 81.6005565,14.7768233 C82.0348478,14.7499426 82.3758966,14.6046188 82.622023,14.340852 C82.8689894,14.0871654 82.9790323,13.7603969 82.9538316,13.3580265 L82.4027773,4.78728417 L84.4154695,4.65792081 Z" id="Path"></path>
                <path d="M89.947853,4.78140402 L88.8919456,4.84860576 L89.406039,12.8548534 C89.4413199,13.3958275 89.4984414,13.7360363 89.5774034,13.8754799 C89.6563655,14.0132435 89.9797739,14.0980857 90.5484686,14.1266464 L90.5812295,14.6424198 L89.0473497,14.7407023 C88.3518116,14.7860635 87.90408,14.6785407 87.7058349,14.419814 C87.5462307,14.2156887 87.440388,13.7377163 87.3916667,12.9850568 L86.8775734,4.97880914 L86.2021959,5.02165025 L86.1719551,4.54451787 L86.8464926,4.50083674 L86.6734481,1.81108698 L88.5794575,0 L88.8600248,4.37147339 L89.9176122,4.30343162 L89.947853,4.78140402 Z" id="Path"></path>
                <path d="M97.7869363,12.5768062 C97.6802536,13.1009798 97.3761657,13.5352711 96.8721526,13.88052 C96.3689796,14.2333292 95.7574437,14.4340944 95.036705,14.4802956 C94.1437619,14.5374171 93.4238632,14.1560472 92.877849,13.3370259 C92.2957139,12.4625632 91.9479449,11.1395289 91.834542,9.37128307 C91.720299,7.6030372 91.9101439,6.24724204 92.3998766,5.30305755 C92.8686088,4.41767458 93.570027,3.94558234 94.5032912,3.88510077 C96.500863,3.75657744 97.6172519,5.52062319 97.852458,9.18059812 L94.032039,9.42672451 C94.2370043,12.4793637 94.5620927,13.9930829 95.0031041,13.9645222 C95.5684388,13.9275612 96.0506113,13.764597 96.4521417,13.4764695 C96.8603923,13.1791018 97.1073587,12.8128523 97.195561,12.3785549 L97.7869363,12.5768062 Z M93.9362765,1.20879135 L96.5512643,1.040787 L95.3559133,2.96695696 L93.5255058,3.08540003 L93.9362765,1.20879135 Z M95.8112051,8.88155037 C95.5902794,5.82891119 95.1643883,4.3219121 94.533532,4.36307317 C94.0017982,4.39667404 93.8245536,5.94231413 94.0051583,8.99747337 L95.8112051,8.88155037 Z" id="Shape"></path>
            </g>
        </g>
        <g id="Group-5" transform="translate(114.000000, 3.000000)">
            <circle id="Oval-Copy-4" stroke="#FFCE00" stroke-width="1.5" cx="2.5" cy="14.5" r="1.75"></circle>
            <circle id="Oval-Copy-5" fill="#FFCE00" cx="26.5" cy="24.5" r="1.5"></circle>
            <path d="M24.7552894,1.88678077 L25.1185597,5.85546758 L21.1498729,6.21873795 L20.7866026,2.25005114 L24.7552894,1.88678077 Z" id="Rectangle-Copy" stroke="#D1DF4C" stroke-width="1.5" transform="translate(22.952581, 4.052759) rotate(-29.000000) translate(-22.952581, -4.052759) "></path>
            <path d="M12.1608206,8.20126179 L14.4130618,8.20126179 C14.6892041,8.20126179 14.9130618,8.42511941 14.9130618,8.70126179 L14.9130618,10.953503 C14.9130618,11.2296453 14.6892041,11.453503 14.4130618,11.453503 L12.1608206,11.453503 C11.8846782,11.453503 11.6608206,11.2296453 11.6608206,10.953503 L11.6608206,8.70126179 C11.6608206,8.42511941 11.8846782,8.20126179 12.1608206,8.20126179 Z" id="Rectangle-Copy-2" fill="#D1DF4C" opacity="0.5" transform="translate(13.286941, 9.827382) rotate(-19.000000) translate(-13.286941, -9.827382) "></path>
            <path d="M25.1070823,15.3500606 L26.7014132,16.9517178 C26.7376115,17.0052073 26.7503887,17.0681891 26.741604,17.1280042 C26.7353432,17.1706343 26.7181303,17.2116559 26.6906383,17.2464863 L26.6906383,17.2464863 L24.1398056,17.3416778 C24.07077,17.3416778 24.00827,17.3136956 23.9630289,17.2684545 C23.9322236,17.2376491 23.9094202,17.1988417 23.8980043,17.1554177 L23.8980043,17.1554177 L25.1070823,15.3500606 Z" id="Triangle" stroke="#006154" stroke-width="0.5" opacity="0.5" transform="translate(25.321210, 16.124014) rotate(-18.000000) translate(-25.321210, -16.124014) "></path>
        </g>
        <g id="Group-5-Copy" transform="translate(14.184360, 99.825367) rotate(-75.000000) translate(-14.184360, -99.825367) translate(-0.028414, 86.911104)">
            <circle id="Oval-Copy-4" stroke="#FFCE00" stroke-width="1.5" cx="2.5" cy="14.3089145" r="1.75"></circle>
            <circle id="Oval-Copy-5" fill="#FFCE00" cx="26.9255471" cy="24.3285278" r="1.5"></circle>
            <path d="M25.2226607,1.88678077 L25.5859311,5.85546758 L21.6172443,6.21873795 L21.2539739,2.25005114 L25.2226607,1.88678077 Z" id="Rectangle-Copy" stroke="#D1DF4C" stroke-width="1.5" transform="translate(23.419952, 4.052759) rotate(-29.000000) translate(-23.419952, -4.052759) "></path>
            <path d="M12.6281919,8.20126179 L14.8804331,8.20126179 C15.1565755,8.20126179 15.3804331,8.42511941 15.3804331,8.70126179 L15.3804331,10.953503 C15.3804331,11.2296453 15.1565755,11.453503 14.8804331,11.453503 L12.6281919,11.453503 C12.3520495,11.453503 12.1281919,11.2296453 12.1281919,10.953503 L12.1281919,8.70126179 C12.1281919,8.42511941 12.3520495,8.20126179 12.6281919,8.20126179 Z" id="Rectangle-Copy-2" fill="#D1DF4C" opacity="0.5" transform="translate(13.754313, 9.827382) rotate(-19.000000) translate(-13.754313, -9.827382) "></path>
            <path d="M25.5744536,15.3500606 L27.1687845,16.9517178 C27.2049828,17.0052073 27.2177601,17.0681891 27.2089753,17.1280042 C27.2027145,17.1706343 27.1855016,17.2116559 27.1580096,17.2464863 L27.1580096,17.2464863 L24.607177,17.3416778 C24.5381414,17.3416778 24.4756414,17.3136956 24.4304003,17.2684545 C24.3995949,17.2376491 24.3767915,17.1988417 24.3653756,17.1554177 L24.3653756,17.1554177 L25.5744536,15.3500606 Z" id="Triangle" stroke="#006154" stroke-width="0.5" opacity="0.5" transform="translate(25.788581, 16.124014) rotate(-18.000000) translate(-25.788581, -16.124014) "></path>
        </g>
    </g>
</svg>