<?xml version="1.0" encoding="utf-8"?>
<!-- Generator: Adobe Illustrator 16.0.0, SVG Export Plug-In . SVG Version: 6.00 Build 0)  -->
<!DOCTYPE svg PUBLIC "-//W3C//DTD SVG 1.1//EN" "http://www.w3.org/Graphics/SVG/1.1/DTD/svg11.dtd">
<svg version="1.1" id="Calque_1" xmlns="http://www.w3.org/2000/svg" xmlns:xlink="http://www.w3.org/1999/xlink" x="0px" y="0px"
	 width="200px" height="170px" viewBox="0 0 200 170" enable-background="new 0 0 200 170" xml:space="preserve">
<rect x="35.985" y="115.017" transform="matrix(0.9979 -0.0642 0.0642 0.9979 -8.0465 6.6859)" fill="#FFFFFF" width="128.001" height="27"/>
<path fill="#FFFFFF" d="M169.135,67.736c0.165,0.008,0.324,0.025,0.496,0.025c1.222,0,2.141-0.207,2.18-0.217l0.218-0.048
	l0.103-0.198c0.3-0.57,2.893-5.638,2.077-8.012c-0.692-2.02-3.409-2.269-4.618-2.277c0.091-0.936,0.257-2.848,0.228-4.154
	c-0.02-0.802-0.699-1.224-1.325-1.278c-1.02-0.091-1.494,0.587-1.621,0.974l-0.9,5.965c-0.38-0.491-0.912-1.795-1.607-1.929
	c-0.707-0.136-1.084,0.21-1.355,0.728c-0.153,0.29-0.161,0.57-0.161,0.616c0,0.103,0.187,2.471,0.68,4.292
	c0.502,1.852,2.223,4.477,2.314,4.59l0.06,0.073l0.08,0.046c0.63,0.353,1.372,0.582,2.195,0.709"/>
<g>
	<g>
		<path fill="#083F3F" d="M160.531,48.706h-0.002c-3.187,0-5.679-3.589-5.703-3.625l-0.796,0.547
			c0.114,0.165,2.801,4.047,6.499,4.047c2.049,0,3.969-1.194,5.707-3.55l-1.017-0.259C163.744,47.749,162.169,48.705,160.531,48.706
			z"/>
	</g>
</g>
<path fill="#083F3F" d="M174.183,59.287c-0.693-2.02-3.41-2.269-4.617-2.277c0.09-0.936,0.257-2.848,0.227-4.154
	c-0.019-0.802-0.699-1.224-1.325-1.278c-1.021-0.091-1.493,0.587-1.622,0.974l-0.898,5.965c-0.379-0.491-0.914-1.795-1.607-1.929
	c-0.708-0.136-1.084,0.21-1.355,0.728c-0.155,0.29-0.161,0.57-0.161,0.616c-0.001,0.103,0.184,2.471,0.678,4.292
	c0.501,1.852,2.226,4.477,2.315,4.59l0.059,0.073l0.083,0.046c0.627,0.353,1.37,0.582,2.194,0.709
	c-2.912,20.937-13.997,20.083-14.104,20.073l-0.097,0.964c0.046,0.006,0.207,0.02,0.453,0.02c2.265,0,11.974-1.178,14.707-20.961
	c0.166,0.008,0.322,0.025,0.494,0.025c1.223,0,2.144-0.207,2.181-0.217l0.218-0.048l0.104-0.198
	C172.404,66.729,174.996,61.661,174.183,59.287z M171.358,66.644c-0.32,0.056-0.973,0.149-1.754,0.149
	c-1.231,0-2.273-0.224-3.097-0.663c-0.342-0.435-1.672-2.664-2.077-4.162c-0.457-1.687-0.643-3.998-0.646-4.021
	c-0.036-0.267,0.088-0.403,0.177-0.426c0.257-0.063,0.316,0.1,0.39,0.194c0.321,0.409,0.806,1.432,1.397,2.409
	c0,0,0.269,0.492,0.51,0.462c0.299-0.038,0.386-0.439,0.386-0.439l1.125-7.31c0.047-0.097,0.218-0.327,0.614-0.294
	c0.075,0.006,0.438,0.052,0.443,0.336c0.039,1.684-0.273,4.547-0.277,4.577l-0.026,0.233c0,0-0.028,0.179,0.021,0.249
	c0.071,0.095,0.185,0.08,0.185,0.08l0.336-0.026c0.01,0,0.176-0.013,0.437-0.013c0.753,0,3.253,0.117,3.769,1.626
	C173.821,61.207,172.166,65.045,171.358,66.644z"/>
<g>
	<g>
		<path fill="#083F3F" d="M24.732,58.331V29.378h6.665c6.988,0,10.48,4.825,10.48,14.475c0,4.897-0.789,8.535-2.365,10.912
			c-1.595,2.376-4.031,3.565-7.311,3.565H24.732z M32.097,57.142c3.011,0,4.516-4.429,4.516-13.289
			c0-8.858-1.723-13.288-5.16-13.288h-1.801v26.576H32.097z"/>
		<path fill="#083F3F" d="M62.119,58.331H47.121V29.378h14.595v1.241h-9.675v12.182h6.878v1.187h-6.878v13.099h10.078V58.331z"/>
		<path fill="#083F3F" d="M76.231,58.331h-4.596l-6.45-28.952h5.269l5.08,25.684l5.479-25.684h1.64L76.231,58.331z"/>
		<path fill="#083F3F" d="M88.621,33.32c1.828-2.808,4.114-4.213,6.857-4.213c2.755,0,5.05,1.405,6.876,4.213
			c1.846,2.827,2.769,6.339,2.769,10.533c0,4.43-0.887,7.995-2.66,10.695c-1.774,2.701-4.104,4.051-6.984,4.051
			c-2.886,0-5.216-1.35-6.99-4.051c-1.756-2.7-2.634-6.266-2.634-10.695C85.854,39.659,86.779,36.147,88.621,33.32z M98.648,53.63
			c0.805-2.466,1.208-5.726,1.208-9.777c0-3.853-0.423-7.066-1.265-9.641c-0.823-2.575-1.86-3.863-3.113-3.863
			c-1.238,0-2.269,1.288-3.094,3.863c-0.84,2.575-1.265,5.789-1.265,9.641c0,4.051,0.404,7.311,1.211,9.777
			c0.789,2.485,1.837,3.729,3.147,3.729C96.783,57.359,97.84,56.116,98.648,53.63z"/>
		<path fill="#083F3F" d="M110.797,58.331V29.378h4.892c0.035,0,0.035,0.017,0,0.054c0.035,0.054,0.035,0.081,0,0.081v28.682
			c0.035,0,0.035,0.018,0,0.054c0.035,0.054,0.035,0.082,0,0.082H110.797z"/>
		<path fill="#083F3F" d="M126.684,45.745v12.585h-4.917V29.378h5.32c5.697,0,8.546,2.889,8.546,8.669
			c0,4.322-2.143,6.779-6.423,7.373l-0.915,0.109l7.957,12.802h-1.774L126.684,45.745z M127.14,44.395
			c2.383,0,3.575-2.116,3.575-6.347c0-4.987-1.229-7.481-3.682-7.481h-0.35v13.829H127.14z"/>
	</g>
</g>
<g>
	<g>
		<path fill="#083F3F" d="M85.391,84.189v14.315h-4.908V69.605h14.565v1.239h-9.657v12.159h6.869v1.186H85.391z"/>
		<path fill="#083F3F" d="M95.961,98.505l6.975-28.899h5.336l7.002,28.899h-5.283l-2.094-8.815h-8.208l-2.119,8.815H95.961z
			 M107.63,88.477l-3.838-16.095l-3.834,16.095H107.63z"/>
		<path fill="#083F3F" d="M117.258,98.505V69.605h4.883c0.035,0,0.035,0.018,0,0.053c0.035,0.055,0.035,0.081,0,0.081v28.63
			c0.035,0,0.035,0.02,0,0.055c0.035,0.054,0.035,0.081,0,0.081H117.258z"/>
		<path fill="#083F3F" d="M129.303,98.505v-27.66h-5.258v-1.239h15.425v1.239h-5.259v27.66H129.303z"/>
	</g>
</g>
<path fill="#FFFFFF" d="M164.199,28.983c0,0,4.501-0.918,10.034,0.125c0.711,3.157,0.863,2.359,2.388,3.456
	c-0.125,3.585-3.068,14.771-3.068,14.771s-9.995-1.394-12.598-2.583C162.376,38.673,164.199,28.983,164.199,28.983z"/>
<g>
	<g>
		<path fill="none" d="M174.132,30.998c0.048-0.413,0.084-0.789,0.102-1.11c-0.958-0.565-2.643-0.862-4.903-0.862
			c-1.998,0-3.915,0.233-4.663,0.335c-0.013,0.073-0.03,0.16-0.05,0.254l0.195,0.011C165.103,29.641,170.414,29.953,174.132,30.998z
			"/>
		<path fill="none" d="M171.8,44.133c0.362-1.735,1.67-8.147,2.213-12.172c-3.057-0.882-11.078,6.621-12.313,11.749
			c0.84-0.035,1.694-0.054,2.549-0.054C167.905,43.655,170.734,43.987,171.8,44.133z"/>
		<path fill="none" d="M172.554,45.23l-0.454-0.074c-0.031-0.005-3.28-0.532-7.851-0.532c-0.709,0-1.415,0.019-2.118,0.043
			c2.979,0.917,9.361,1.879,11.064,2.127c0.517-2.001,2.71-10.653,2.929-13.979c-0.324-0.199-0.726-0.381-1.18-0.549
			c-0.642,4.675-2.213,12.13-2.294,12.514L172.554,45.23z"/>
		<path fill="#083F3F" d="M176.898,32.17c-0.459-0.333-1.095-0.624-1.829-0.88c0.075-0.639,0.125-1.198,0.141-1.642l0.009-0.26
			l-0.211-0.151c-1.087-0.784-2.999-1.182-5.678-1.182c-2.628,0-5.039,0.38-5.142,0.397l-0.33,0.052l-0.067,0.329
			c-0.017,0.086-1.611,8.008-2.964,13.945c-0.145,0.583-0.281,1.155-0.41,1.706l-0.126,0.465c0,0,0.215,0.124,0.465,0.244
			c2.697,1.285,12.319,2.564,12.73,2.621l0.424,0.058l0.109-0.415c0.119-0.458,2.958-11.28,3.081-14.877l0.009-0.26L176.898,32.17z
			 M164.617,29.615c0.02-0.094,0.037-0.182,0.05-0.254c0.748-0.103,2.665-0.335,4.663-0.335c2.261,0,3.945,0.296,4.903,0.862
			c-0.018,0.322-0.054,0.697-0.102,1.11c-0.033,0.302-1.97,11.4-2.332,13.135c-1.065-0.146-3.895-0.478-7.551-0.478
			c-0.854,0-1.709,0.02-2.549,0.054C161.669,43.711,164.202,31.655,164.617,29.615z M173.195,46.793
			c-1.703-0.248-8.086-1.21-11.064-2.127c0.703-0.024,1.409-0.043,2.118-0.043c4.57,0,7.819,0.527,7.851,0.532l0.454,0.074
			l0.097-0.452c0.081-0.383,1.652-7.839,2.294-12.514c0.454,0.168,0.855,0.35,1.18,0.549
			C175.905,36.141,173.712,44.792,173.195,46.793z"/>
	</g>
</g>
<path fill="#083F3F" d="M149.624,81.044c-2.665-0.935-4.389-2.238-5.177-3.91c-0.341-0.724-0.474-1.447-0.439-2.149
	c0.002-0.023,0.004-0.036,0.005-0.047c0-0.001,0-0.002,0-0.003c0-0.104,0.008-0.208,0.021-0.313c0.131-2.163,2.006-3.964,4.171-4.05
	c3.206,0.05,5.802,2.683,5.802,5.917c0,1.304-0.414,2.541-1.197,3.577l1.076,0.82c0.961-1.274,1.47-2.795,1.47-4.397
	c0-3.813-2.937-6.944-6.653-7.248v-0.003c-0.023,0-0.046-0.002-0.069-0.002c-0.01,0-0.014,0.001-0.022,0.001
	c-0.165-0.011-0.33-0.025-0.495-0.025c-0.694,0-1.364,0.104-2,0.289c-1.485,0.335-2.672,0.987-3.545,1.973
	c-1.323,1.51-1.985,3.496-1.985,5.958c0,3.937,2.573,6.794,7.725,8.573c2.718,0.935,4.348,2.417,4.884,4.447
	c0.535,2.032,0.326,3.689-0.632,4.975c-0.8,1.076-1.849,1.786-3.145,2.075c-0.427,0.072-0.861,0.115-1.302,0.115l0,0
	c-3.001,0-5.696-1.678-7.036-4.378l-1.207,0.604c1.569,3.163,4.729,5.129,8.243,5.129l0,0c0.07,0,0.138-0.008,0.208-0.01
	c0.145,0,0.299-0.003,0.415-0.003c3.255-0.144,5.419-1.049,6.705-2.576c1.235-1.474,1.853-3.504,1.853-6.093
	C157.296,85.869,154.737,82.786,149.624,81.044z"/>
<path fill="#083F3F" d="M149.624,40.816c-2.665-0.935-4.389-2.238-5.177-3.909c-0.341-0.724-0.474-1.449-0.439-2.15
	c0.002-0.023,0.004-0.035,0.005-0.047c0-0.001,0-0.001,0-0.001c0-0.104,0.008-0.209,0.021-0.314
	c0.131-2.164,2.006-3.964,4.171-4.049c3.206,0.049,5.802,2.682,5.802,5.915c0,1.306-0.414,2.542-1.197,3.578l1.076,0.821
	c0.961-1.274,1.47-2.795,1.47-4.399c0-3.813-2.937-6.944-6.653-7.246v-0.004c-0.023,0-0.046-0.002-0.069-0.002
	c-0.01,0-0.014,0.001-0.022,0.001c-0.165-0.012-0.33-0.026-0.495-0.026c-0.694,0-1.364,0.104-2,0.29
	c-1.485,0.334-2.672,0.987-3.545,1.972c-1.323,1.511-1.985,3.496-1.985,5.958c0,3.937,2.573,6.794,7.725,8.574
	c2.718,0.935,4.348,2.417,4.884,4.448c0.535,2.03,0.326,3.689-0.632,4.974c-0.8,1.077-1.849,1.786-3.145,2.076
	c-0.427,0.071-0.861,0.114-1.302,0.114l0,0c-3.001,0-5.696-1.678-7.036-4.377l-1.207,0.605c1.569,3.162,4.729,5.127,8.243,5.127l0,0
	c0.07,0,0.138-0.008,0.208-0.01c0.145,0,0.299-0.001,0.415-0.001c3.255-0.145,5.419-1.048,6.705-2.577
	c1.235-1.473,1.853-3.505,1.853-6.093C157.296,45.641,154.737,42.559,149.624,40.816z"/>
<polygon fill="#FFFFFF" points="166.186,31.808 171.226,31.894 170.733,34.453 165.926,34.209 "/>
<path fill="#083F3F" d="M171.002,34.703l-0.197-0.004c-0.161-0.004-3.946-0.096-4.901-0.28l-0.184-0.036l-0.013-0.188
	c-0.044-0.794,0.277-2.352,0.291-2.417l0.035-0.169l0.168-0.022c0.054-0.007,1.299-0.172,2.651-0.172
	c1.086,0,1.923,0.109,2.489,0.32l0.169,0.064l-0.013,0.18c-0.047,0.71-0.434,2.458-0.453,2.531L171.002,34.703z M166.186,33.974
	c1.005,0.134,3.68,0.215,4.433,0.235c0.092-0.432,0.311-1.48,0.38-2.079c-0.509-0.155-1.228-0.231-2.146-0.231
	c-1.036,0-2.028,0.102-2.417,0.146C166.363,32.426,166.196,33.362,166.186,33.974z"/>
<g>
	<path fill="#083F3F" d="M42.503,140.514l-1.009-15.671l2.397-0.154L44.9,140.36L42.503,140.514z"/>
	<path fill="#083F3F" d="M53.229,131.088c0.021,0.195,0.04,0.399,0.054,0.614l0.373,5.789c0.016,0.253,0.055,0.403,0.116,0.447
		c0.071,0.045,0.263,0.056,0.575,0.036l0.114,1.77c-1.248,0.08-2.036,0.072-2.365-0.024c-0.399-0.12-0.646-0.463-0.742-1.023
		c-0.193,0.941-0.68,1.438-1.459,1.489c-1.745,0.112-2.674-0.709-2.786-2.464c-0.067-1.043,0.083-1.895,0.452-2.554
		c0.368-0.659,0.889-1.012,1.561-1.056c0.615-0.039,1.059-0.287,1.332-0.745c0.283-0.468,0.409-1.177,0.378-2.124L53.229,131.088z
		 M50.832,131.243c0.001-0.138-0.003-0.274-0.012-0.41c-0.118-1.822-0.366-2.721-0.746-2.695c-0.517,0.032-0.975,0.219-1.373,0.557
		c-0.409,0.34-0.681,0.772-0.813,1.3l-0.687-0.176c0.164-0.646,0.507-1.177,1.027-1.592c0.521-0.426,1.123-0.66,1.805-0.703
		c1.832-0.119,2.897,1.069,3.195,3.564L50.832,131.243z M50.99,133.479c-0.24,0.671-0.707,1.028-1.398,1.072
		c-0.195,0.013-0.23,0.99-0.105,2.93c0.095,1.471,0.298,2.196,0.609,2.176c0.78-0.051,1.158-0.857,1.137-2.421L50.99,133.479z"/>
	<path fill="#083F3F" d="M67.893,136.985c-0.186,0.619-0.484,1.133-0.898,1.541c-0.415,0.399-0.871,0.614-1.368,0.646
		c-1.345,0.086-2.425-0.353-3.241-1.318c-0.858-1.031-1.355-2.6-1.491-4.705c-0.136-2.104,0.157-3.723,0.877-4.854
		c0.686-1.063,1.7-1.637,3.045-1.723c0.857-0.056,1.701,0.653,2.529,2.127l-0.622,0.362c-0.76-1.311-1.384-1.952-1.871-1.921
		c-1.149,0.074-1.602,2.021-1.355,5.842c0.244,3.79,0.94,5.649,2.091,5.576c0.73-0.047,1.269-0.669,1.611-1.865L67.893,136.985z"/>
	<path fill="#083F3F" d="M70.206,127.752c0.567-1.055,1.427-1.619,2.577-1.692c1.228-0.08,2.195,0.436,2.903,1.545
		c0.663,1.044,1.059,2.549,1.186,4.517c0.136,2.105-0.098,3.722-0.7,4.847c-0.568,1.054-1.428,1.618-2.578,1.692
		c-1.228,0.079-2.195-0.437-2.902-1.546c-0.664-1.043-1.061-2.55-1.187-4.519C69.369,130.49,69.604,128.877,70.206,127.752z
		 M74.271,132.288c-0.248-3.839-0.731-5.735-1.453-5.688c-0.721,0.046-0.957,1.989-0.711,5.828c0.247,3.84,0.731,5.736,1.452,5.69
		C74.281,138.071,74.518,136.129,74.271,132.288z"/>
	<path fill="#083F3F" d="M88.905,137.528l-0.599-9.313c-0.104-1.607-0.253-2.404-0.448-2.392c-0.546,0.035-0.969,0.307-1.268,0.815
		c-0.302,0.498-0.426,1.146-0.375,1.945l0.579,9.005c0.02,0,0.021,0.01,0.003,0.029c0.021,0.028,0.022,0.044,0.003,0.045
		l-2.383,0.153l-0.6-9.313c-0.104-1.608-0.252-2.404-0.447-2.393c-0.585,0.038-1.042,0.312-1.371,0.822
		c-0.33,0.501-0.47,1.15-0.417,1.949l0.584,9.078l-2.397,0.155l-0.793-12.31l2.397-0.153l0.107,1.667
		c0.335-1.187,1.048-1.816,2.14-1.886c1.257-0.081,2.066,0.552,2.427,1.898c0.243-1.386,0.93-2.115,2.061-2.188
		c0.73-0.047,1.323,0.176,1.775,0.666c0.473,0.508,0.741,1.258,0.806,2.251l0.594,9.239c0.02-0.002,0.021,0.008,0.002,0.029
		c0.022,0.027,0.022,0.043,0.003,0.045L88.905,137.528z"/>
	<path fill="#083F3F" d="M103.159,136.611l-0.599-9.313c-0.104-1.608-0.254-2.404-0.448-2.393c-0.546,0.035-0.969,0.308-1.269,0.815
		c-0.301,0.499-0.425,1.147-0.374,1.947l0.579,9.004c0.02-0.001,0.021,0.009,0.002,0.029c0.022,0.028,0.023,0.043,0.003,0.045
		l-2.383,0.153l-0.599-9.313c-0.104-1.606-0.253-2.404-0.448-2.392c-0.585,0.038-1.041,0.313-1.37,0.822
		c-0.33,0.5-0.47,1.149-0.418,1.949l0.585,9.078l-2.397,0.155l-0.793-12.31l2.397-0.154l0.107,1.667
		c0.335-1.187,1.048-1.815,2.14-1.886c1.257-0.081,2.066,0.552,2.427,1.899c0.243-1.386,0.93-2.115,2.061-2.188
		c0.73-0.048,1.322,0.175,1.775,0.664c0.472,0.508,0.741,1.258,0.805,2.252l0.595,9.238c0.02-0.001,0.02,0.009,0.002,0.029
		c0.021,0.028,0.022,0.044,0.003,0.045L103.159,136.611z"/>
	<path fill="#083F3F" d="M114.019,123.553l0.792,12.308l-2.396,0.154l-0.071-1.097c-0.287,0.85-0.909,1.307-1.865,1.368
		c-0.848,0.055-1.465-0.194-1.853-0.747c-0.344-0.487-0.555-1.315-0.63-2.484l-0.583-9.077l2.396-0.154l0.584,9.076
		c0.116,1.804,0.207,2.704,0.275,2.699c0.517-0.032,0.923-0.205,1.216-0.519c0.294-0.302,0.426-0.692,0.394-1.17l-0.655-10.203
		L114.019,123.553z"/>
	<path fill="#083F3F" d="M122.165,135.388l-0.599-9.313c-0.104-1.608-0.254-2.405-0.448-2.393c-0.565,0.036-1.003,0.309-1.313,0.819
		c-0.311,0.499-0.438,1.146-0.388,1.945l0.584,9.08l-2.397,0.153l-0.791-12.308l2.396-0.154l0.105,1.637
		c0.326-1.166,1.011-1.783,2.054-1.851c0.73-0.047,1.322,0.175,1.774,0.665c0.473,0.508,0.741,1.258,0.806,2.252l0.593,9.238
		c0.02-0.001,0.021,0.009,0.003,0.029c0.021,0.028,0.022,0.044,0.003,0.045L122.165,135.388z"/>
	<path fill="#083F3F" d="M132.803,125.969c0.021,0.193,0.041,0.398,0.055,0.612l0.373,5.789c0.017,0.253,0.056,0.403,0.117,0.449
		c0.071,0.043,0.261,0.055,0.573,0.034l0.114,1.77c-1.247,0.081-2.035,0.073-2.363-0.023c-0.4-0.121-0.646-0.464-0.742-1.024
		c-0.194,0.942-0.681,1.438-1.46,1.489c-1.744,0.112-2.674-0.709-2.787-2.463c-0.067-1.042,0.084-1.894,0.452-2.554
		s0.89-1.013,1.563-1.056c0.613-0.04,1.058-0.287,1.331-0.745c0.284-0.469,0.409-1.177,0.377-2.124L132.803,125.969z
		 M130.405,126.123c0.001-0.137-0.002-0.274-0.011-0.411c-0.117-1.822-0.367-2.721-0.746-2.695
		c-0.517,0.033-0.976,0.219-1.374,0.559c-0.409,0.339-0.679,0.771-0.811,1.298l-0.688-0.175c0.165-0.646,0.506-1.177,1.027-1.593
		c0.521-0.424,1.122-0.659,1.804-0.703c1.833-0.117,2.897,1.07,3.195,3.566L130.405,126.123z M130.564,128.359
		c-0.24,0.67-0.707,1.027-1.398,1.072c-0.195,0.012-0.229,0.989-0.104,2.929c0.094,1.472,0.297,2.196,0.608,2.176
		c0.78-0.049,1.159-0.856,1.137-2.421L130.564,128.359z"/>
	<path fill="#083F3F" d="M141.986,121.753l0.792,12.308l-2.397,0.154l-0.07-1.097c-0.287,0.85-0.91,1.308-1.865,1.368
		c-0.849,0.055-1.465-0.194-1.853-0.747c-0.344-0.487-0.555-1.315-0.63-2.484l-0.583-9.077l2.396-0.154l0.584,9.077
		c0.116,1.803,0.207,2.703,0.275,2.698c0.517-0.032,0.923-0.205,1.216-0.519c0.294-0.302,0.425-0.691,0.395-1.17l-0.656-10.203
		L141.986,121.753z"/>
	<path fill="#083F3F" d="M148.572,121.9l-1.257,0.08l0.612,9.531c0.042,0.644,0.11,1.049,0.204,1.215
		c0.094,0.164,0.479,0.265,1.156,0.299l0.039,0.614l-1.826,0.117c-0.828,0.054-1.361-0.074-1.597-0.382
		c-0.19-0.243-0.316-0.812-0.374-1.708l-0.612-9.531l-0.804,0.051l-0.036-0.568l0.803-0.052l-0.206-3.202l2.269-2.156l0.334,5.204
		l1.259-0.081L148.572,121.9z"/>
	<path fill="#083F3F" d="M157.904,131.18c-0.127,0.624-0.489,1.141-1.089,1.552c-0.599,0.42-1.327,0.659-2.185,0.714
		c-1.063,0.068-1.92-0.386-2.57-1.361c-0.693-1.041-1.107-2.616-1.242-4.721c-0.136-2.105,0.09-3.719,0.673-4.843
		c0.558-1.054,1.393-1.616,2.504-1.688c2.378-0.153,3.707,1.947,3.987,6.304l-4.548,0.293c0.244,3.634,0.631,5.436,1.156,5.402
		c0.673-0.044,1.247-0.238,1.725-0.581c0.486-0.354,0.78-0.79,0.885-1.307L157.904,131.18z M153.32,117.647l3.113-0.2l-1.423,2.293
		l-2.179,0.141L153.32,117.647z M155.552,126.781c-0.263-3.634-0.77-5.428-1.521-5.379c-0.633,0.04-0.844,1.88-0.629,5.517
		L155.552,126.781z"/>
</g>
<polyline fill="none" stroke="#466964" stroke-miterlimit="10" points="163.549,111.9 165.25,138.346 38.014,146.533 "/>
</svg>
