<?xml version="1.0" encoding="UTF-8"?>
<svg width="144px" height="144px" viewBox="0 0 144 144" version="1.1" xmlns="http://www.w3.org/2000/svg" xmlns:xlink="http://www.w3.org/1999/xlink">
    <title>logos/classea12-144-white</title>
    <g id="logos/classea12-144-white" stroke="none" stroke-width="1" fill="none" fill-rule="evenodd">
        <g id="devoirs-faits" transform="translate(0.000000, 16.000000)">
            <polygon id="Rectangle" fill="#FFFFFF" fill-rule="nonzero" transform="translate(71.111036, 94.936166) rotate(-3.681057) translate(-71.111036, -94.936166) " points="10.6312312 82.1788064 131.590841 82.1788064 131.590841 107.693525 10.6312312 107.693525"></polygon>
            <path d="M136.464375,37.4995176 C136.620304,37.5070778 136.770562,37.5231433 136.933107,37.5231433 C138.087927,37.5231433 138.956404,37.3275232 138.99326,37.3180729 L139.199275,37.2727118 L139.296613,37.0855969 C139.58012,36.5469329 142.030569,31.7575487 141.259429,29.5140605 C140.605472,27.605111 138.03784,27.3697999 136.895306,27.3622397 C136.981303,26.4776968 137.138177,24.6708099 137.110771,23.4366079 C137.091871,22.6786982 136.450199,22.2798979 135.858614,22.2288666 C134.894689,22.1428693 134.446747,22.7835959 134.326729,23.1493204 L133.476207,28.7863916 C133.117098,28.3223846 132.614345,27.0900726 131.957553,26.9634394 C131.28942,26.834916 130.933146,27.1618945 130.677044,27.6514172 C130.532456,27.9254743 130.524895,28.1900812 130.524895,28.2335523 C130.524895,28.3308898 130.701615,30.5687079 131.167512,32.2895975 C131.641914,34.0397829 133.268302,36.5204722 133.354299,36.62726 L133.411,36.6962468 L133.486602,36.7397179 C134.081968,37.0733116 134.783176,37.2897222 135.560931,37.4097403" id="Path" fill="#FFFFFF" fill-rule="nonzero"></path>
            <path d="M128.333384,19.5157012 L128.331494,19.5157012 C125.3197,19.5157012 122.964699,16.1240082 122.942019,16.0899873 L122.189779,16.6069157 C122.297512,16.7628448 124.836793,20.4314299 128.331494,20.4314299 C130.267849,20.4314299 132.082296,19.3030707 133.724748,17.0765929 L132.763659,16.8318316 C131.369747,18.6113127 129.881334,19.5147562 128.333384,19.5157012 Z" id="Path" fill="#083F3F" fill-rule="nonzero"></path>
            <path d="M141.234858,29.5150055 C140.579956,27.606056 138.012325,27.3707449 136.87168,27.3631847 C136.956732,26.4786418 137.114551,24.6717549 137.086201,23.4375529 C137.068245,22.6796433 136.425629,22.2808429 135.834043,22.2298116 C134.869173,22.1438144 134.423122,22.784541 134.301213,23.1502655 L133.452581,28.7873367 C133.094417,28.3233296 132.588829,27.0910177 131.933927,26.9643844 C131.26485,26.8358611 130.90952,27.1628395 130.653419,27.6523622 C130.50694,27.9264193 130.50127,28.1910262 130.50127,28.2344973 C130.500325,28.3318349 130.675154,30.5696529 131.141996,32.2905425 C131.615454,34.0407279 133.245621,36.5214173 133.329728,36.628205 L133.385485,36.6971918 L133.463922,36.740663 C134.056452,37.0742566 134.758605,37.2906672 135.537305,37.4106853 C132.785394,57.1966635 122.309797,56.3896126 122.20868,56.3801624 L122.117012,57.291166 C122.160484,57.2968361 122.312632,57.3100665 122.545109,57.3100665 C124.685589,57.3100665 133.860832,56.1968276 136.443584,37.5014077 C136.600458,37.5089679 136.747882,37.5250333 136.910426,37.5250333 C138.066191,37.5250333 138.936559,37.3294132 138.971525,37.319963 L139.17754,37.2746018 L139.275822,37.087487 C139.55366,36.547878 142.003163,31.7584937 141.234858,29.5150055 Z M138.565164,36.4675509 C138.262756,36.5204722 137.645655,36.6083595 136.907591,36.6083595 C135.744266,36.6083595 134.75955,36.396674 133.98085,35.9818083 C133.657652,35.5707226 132.400769,33.464263 132.018034,32.0486163 C131.586158,30.4543599 131.410383,28.2704083 131.407548,28.2486727 C131.373528,27.9963512 131.490711,27.8678278 131.574818,27.8460923 C131.817689,27.7865557 131.873445,27.9405947 131.943377,28.029427 C132.24673,28.415942 132.705067,29.3827021 133.263577,30.3059911 C133.263577,30.3059911 133.517788,30.7709431 133.745539,30.7425924 C134.028101,30.7066815 134.110318,30.3277266 134.110318,30.3277266 L135.173471,23.4195974 C135.217887,23.3279301 135.379486,23.1105744 135.753716,23.1417602 C135.824593,23.1474304 136.167637,23.1909015 136.172362,23.4592885 C136.209218,25.0507098 135.91437,27.7563149 135.91059,27.7846657 L135.88602,28.0048564 C135.88602,28.0048564 135.859559,28.1740158 135.905865,28.2401675 C135.972962,28.3299448 136.080695,28.3157694 136.080695,28.3157694 L136.398223,28.2911988 C136.407673,28.2911988 136.564547,28.2789135 136.811199,28.2789135 C137.522802,28.2789135 139.885363,28.3894814 140.372996,29.8155233 C140.892759,31.3294526 139.328744,34.9564567 138.565164,36.4675509 Z" id="Shape" fill="#083F3F" fill-rule="nonzero"></path>
            <g id="Group" transform="translate(0.000000, 0.994166)" fill="#083F3F" fill-rule="nonzero">
                <path d="M0,27.6173963 L0,0.256101643 L6.29858837,0.256101643 C12.9024197,0.256101643 16.2024453,4.81584491 16.2024453,13.9353314 C16.2024453,18.5631165 15.4568209,22.0011157 13.9674623,24.2474389 C12.4601482,26.4928172 10.1580685,27.6164513 7.05838808,27.6164513 L0,27.6164513 L0,27.6173963 Z M6.96010553,26.4937622 C9.80557433,26.4937622 11.2278362,22.3082486 11.2278362,13.9353314 C11.2278362,5.56430432 9.59955899,1.37784574 6.35150974,1.37784574 L4.6495206,1.37784574 L4.6495206,26.4928172 L6.96010553,26.4928172 L6.96010553,26.4937622 Z" id="Shape"></path>
                <polygon id="Path" points="35.3316314 27.6173963 21.1581538 27.6173963 21.1581538 0.256101643 34.9507865 0.256101643 34.9507865 1.42887706 25.8076744 1.42887706 25.8076744 12.9411657 32.307553 12.9411657 32.307553 14.0629098 25.8076744 14.0629098 25.8076744 26.4417858 35.3316314 26.4417858"></polygon>
                <polygon id="Path" points="48.6678173 27.6173963 44.3244847 27.6173963 38.2290766 0.257046667 43.2084107 0.257046667 48.0091352 24.5290562 53.1869245 0.257046667 54.7367647 0.257046667"></polygon>
                <path d="M60.376671,3.98138827 C62.1041758,1.32775944 64.2645019,0 66.8567041,0 C69.4602466,0 71.6290779,1.32775944 73.3546926,3.98138827 C75.0992079,6.65297256 75.9714655,9.97189865 75.9714655,13.9353314 C75.9714655,18.12179 75.1332288,21.4908024 73.4577003,24.0423686 C71.7812268,26.5948798 69.5793197,27.8706629 66.8576491,27.8706629 C64.1303084,27.8706629 61.9284013,26.5948798 60.2519278,24.0423686 C58.5924647,21.4908024 57.7627325,18.120845 57.7627325,13.9353314 C57.7617882,9.97189865 58.6359359,6.65297256 60.376671,3.98138827 Z M69.8524318,23.1748361 C70.6131765,20.8444057 70.9940214,17.7636257 70.9940214,13.9353314 C70.9940214,10.294152 70.594276,7.25778825 69.7985654,4.82435013 C69.0208102,2.39091201 68.0408198,1.17372044 66.8567041,1.17372044 C65.6867638,1.17372044 64.7124435,2.39091201 63.9327983,4.82435013 C63.1389777,7.25778825 62.7373422,10.295097 62.7373422,13.9353314 C62.7373422,17.7636257 63.1191322,20.8444057 63.8817669,23.1748361 C64.6273913,25.523222 65.617777,26.6988325 66.8557591,26.6988325 C68.0899611,26.6988325 69.088852,25.524167 69.8524318,23.1748361 Z" id="Shape"></path>
                <path d="M81.3335346,27.6173963 L81.3335346,0.256101643 L85.9565945,0.256101643 C85.9896704,0.256101643 85.9896704,0.272167059 85.9565945,0.307132966 C85.9896704,0.35816429 85.9896704,0.383679952 85.9565945,0.383679952 L85.9565945,27.488873 C85.9896704,27.488873 85.9896704,27.5058834 85.9565945,27.5399043 C85.9896704,27.5909356 85.9896704,27.6173963 85.9565945,27.6173963 L81.3335346,27.6173963 L81.3335346,27.6173963 Z" id="Path"></path>
                <path d="M96.347139,15.7233178 L96.347139,27.6164513 L91.7004535,27.6164513 L91.7004535,0.256101643 L96.7279839,0.256101643 C102.111789,0.256101643 104.804163,2.98627746 104.804163,8.44851913 C104.804163,12.5329151 102.778976,14.8548403 98.7342709,15.4161849 L97.8695735,15.5191925 L105.389134,27.6173963 L103.71266,27.6173963 L96.347139,15.7233178 Z M96.7780702,14.4475347 C99.0300636,14.4475347 100.156533,12.4478629 100.156533,8.44946416 C100.156533,3.73662692 98.9950977,1.37973579 96.6769526,1.37973579 L96.346194,1.37973579 L96.346194,14.4484798 L96.7780702,14.4484798 L96.7780702,14.4475347 Z" id="Shape"></path>
            </g>
            <g id="Group" transform="translate(52.686062, 39.265768)" fill="#083F3F" fill-rule="nonzero">
                <polygon id="Path" points="4.6381803 13.7822375 4.6381803 27.3102634 0 27.3102634 0 1.3429606e-14 13.764282 1.3429606e-14 13.764282 1.17088537 4.6381803 1.17088537 4.6381803 12.6614384 11.1295537 12.6614384 11.1295537 13.7822375 4.6381803 13.7822375"></polygon>
                <path d="M14.6270894,27.3112084 L21.2186354,0.000945024512 L26.2612862,0.000945024512 L32.8783478,27.3112084 L27.8857833,27.3112084 L25.906902,18.9808173 L18.1501408,18.9808173 L16.1476338,27.3112084 L14.6270894,27.3112084 Z M25.6545804,17.8345026 L22.0275763,2.62433307 L18.4043524,17.8345026 L25.6545804,17.8345026 Z" id="Shape"></path>
                <path d="M34.7532764,27.3112084 L34.7532764,1.3429606e-14 L39.3678311,1.3429606e-14 C39.400907,1.3429606e-14 39.400907,0.0170104412 39.3678311,0.0500862991 C39.400907,0.102062647 39.400907,0.126633285 39.3678311,0.126633285 L39.3678311,27.1826851 C39.400907,27.1826851 39.400907,27.2015855 39.3678311,27.2346614 C39.400907,27.2856927 39.400907,27.3112084 39.3678311,27.3112084 L34.7532764,27.3112084 L34.7532764,27.3112084 Z" id="Path"></path>
                <polygon id="Path" points="46.1360967 27.3112084 46.1360967 1.17183039 41.1671578 1.17183039 41.1671578 0.000945024512 55.7441609 0.000945024512 55.7441609 1.17183039 50.774277 1.17183039 50.774277 27.3112084"></polygon>
            </g>
            <path d="M131.799734,0.876982747 C131.799734,0.876982747 136.053289,0.00945024512 141.28211,0.995110811 C141.954022,3.97855319 142.097666,3.22442363 143.538828,4.26111552 C143.4207,7.6490284 140.639493,18.2200726 140.639493,18.2200726 C140.639493,18.2200726 131.193973,16.9027084 128.734074,15.7790743 C130.076954,10.0342703 131.799734,0.876982747 131.799734,0.876982747 Z" id="Path" fill="#FFFFFF" fill-rule="nonzero"></path>
            <g id="Group" transform="translate(128.106578, 0.000000)">
                <path d="M13.0800843,2.78120714 C13.1254454,2.39091201 13.1594663,2.0355828 13.1764768,1.73222993 C12.2711433,1.19829108 10.678777,0.917618801 8.54302158,0.917618801 C6.65486261,0.917618801 4.84325062,1.13780951 4.13637229,1.23420201 C4.12408697,1.3031888 4.10802155,1.38540593 4.08912106,1.47423824 L4.27340084,1.48463351 C4.54745795,1.49880888 9.56648313,1.79365652 13.0800843,2.78120714 Z" id="Path"></path>
                <path d="M10.8762871,15.1941041 C11.218386,13.5544866 12.454478,7.4949894 12.9676263,3.69126574 C10.0786864,2.85775412 2.49864481,9.94827303 1.33153954,14.7943587 C2.12536013,14.7612829 2.93241106,14.7433274 3.74040702,14.7433274 C7.19541663,14.7423824 9.86889097,15.0561305 10.8762871,15.1941041 Z" id="Path"></path>
                <path d="M11.5888356,16.230796 L11.1597945,16.1608642 C11.1304987,16.156139 8.06011406,15.6581111 3.74040702,15.6581111 C3.07038464,15.6581111 2.40319733,15.6760666 1.7388451,15.6987472 C4.55407312,16.5653347 10.5852196,17.4744482 12.1945963,17.7088143 C12.683174,15.8178203 14.7556127,7.6414682 14.9625731,4.49831668 C14.6563851,4.3102568 14.2764853,4.13826234 13.8474442,3.97949822 C13.2407384,8.39748781 11.7561049,15.4426455 11.6795579,15.805535 L11.5888356,16.230796 Z" id="Path"></path>
                <path d="M15.6940221,3.88877587 C15.2602558,3.5740827 14.6592202,3.29908057 13.9655722,3.05715429 C14.0364491,2.45328363 14.0837003,1.92501493 14.0988207,1.50542405 L14.1073259,1.25971767 L13.9079257,1.11701897 C12.8806841,0.376119756 11.0737972,-3.35740151e-15 8.54207656,-3.35740151e-15 C6.05855214,-3.35740151e-15 3.78009805,0.359109314 3.68276052,0.375174731 L3.37090243,0.424316006 L3.30758579,0.73522907 C3.29152037,0.816501178 1.7851513,8.30298536 0.506533138,13.9135959 C0.369504584,14.4645452 0.24098125,15.0050992 0.119073088,15.5258077 L0,15.9652441 C0,15.9652441 0.20318027,16.0824271 0.439436398,16.1958301 C2.98816751,17.4101866 12.0811934,18.6188729 12.4695984,18.6727393 L12.8702888,18.7275507 L12.9732965,18.3353656 C13.0857544,17.9025443 15.768679,7.67548908 15.884917,4.27623591 L15.8934222,4.03052954 L15.6940221,3.88877587 Z M4.08817604,1.47423824 C4.10707653,1.38540593 4.12314194,1.30224378 4.13542726,1.23420201 C4.8423056,1.13686449 6.65391759,0.917618801 8.54207656,0.917618801 C10.678777,0.917618801 12.2701983,1.19734606 13.1755317,1.73222993 C13.1585213,2.03652782 13.1245004,2.39091201 13.0791392,2.78120714 C13.0479534,3.06660454 11.217441,13.5544866 10.8753421,15.1941041 C9.86889097,15.0561305 7.19447161,14.7423824 3.73946199,14.7423824 C2.93241106,14.7423824 2.1244151,14.7612829 1.33059451,14.7934137 C1.30224378,14.7953038 3.69599086,3.40208824 4.08817604,1.47423824 Z M12.1945963,17.7078693 C10.5852196,17.4735032 4.5531281,16.5643896 1.7388451,15.6978022 C2.40319733,15.6751216 3.07038464,15.6571661 3.74040702,15.6571661 C8.05916903,15.6571661 11.1295537,16.155194 11.1597945,16.1599191 L11.5888356,16.229851 L11.680503,15.8026999 C11.7570499,15.4407555 13.2416835,8.39465274 13.8483892,3.97666314 C14.2774303,4.13542726 14.6563851,4.30742172 14.9635181,4.4954816 C14.7556127,7.6414682 12.683174,15.8168753 12.1945963,17.7078693 Z" id="Shape" fill="#083F3F" fill-rule="nonzero"></path>
            </g>
            <path d="M118.026001,50.0759038 C115.507511,49.1923059 113.878289,47.960939 113.133609,46.380858 C112.811356,45.6966603 112.685668,45.0134075 112.718744,44.3500003 C112.720634,44.3282648 112.722524,44.3159794 112.723469,44.3055842 C112.723469,44.3046392 112.723469,44.3036941 112.723469,44.3027491 C112.723469,44.2044666 112.731029,44.106184 112.743314,44.0069564 C112.867112,41.9628684 114.639033,40.2608793 116.685012,40.1796072 C119.71476,40.2268584 122.168044,42.7151079 122.168044,45.7713172 C122.168044,47.0036292 121.776804,48.1726245 121.036849,49.1516699 L122.053696,49.92659 C122.961864,48.7226287 123.442882,47.2852465 123.442882,45.7713172 C123.442882,42.1679387 120.667345,39.209067 117.155634,38.9217795 L117.155634,38.9189445 C117.133898,38.9189445 117.112163,38.9170544 117.090427,38.9170544 C117.080977,38.9170544 117.077197,38.9179994 117.069636,38.9179994 C116.913707,38.9076042 116.757778,38.8943738 116.601849,38.8943738 C115.946002,38.8943738 115.312836,38.9926564 114.7118,39.1674859 C113.308439,39.4840691 112.186695,40.1002251 111.361688,41.0320193 C110.111421,42.4590063 109.485815,44.335825 109.485815,46.6624753 C109.485815,50.3830368 111.917363,53.0829718 116.786129,54.7641704 C119.354706,55.6477684 120.895096,57.0482947 121.401629,58.9666944 C121.907217,60.8869843 121.709707,62.4528899 120.804373,63.6681914 C120.048354,64.6850378 119.057023,65.3560052 117.832271,65.6291173 C117.428746,65.697159 117.018605,65.7377951 116.601849,65.7377951 L116.601849,65.7377951 C113.765831,65.7377951 111.21899,64.1520439 109.952657,61.6004778 L108.812012,62.1712726 C110.294756,65.1603851 113.281033,67.0183033 116.601849,67.0183033 L116.601849,67.0183033 C116.668001,67.0183033 116.732263,67.0107431 116.798414,67.008853 C116.935443,67.008853 117.080977,67.006018 117.1906,67.006018 C120.266654,66.8699344 122.311687,66.0146873 123.526989,64.5716348 C124.694094,63.1786687 125.278119,61.2602689 125.278119,58.8136005 C125.276229,54.6356471 122.857912,51.7221365 118.026001,50.0759038 Z" id="Path" fill="#083F3F" fill-rule="nonzero"></path>
            <path d="M118.026001,12.0594578 C115.507511,11.1758599 113.878289,9.94449294 113.133609,8.36535698 C112.811356,7.68115923 112.685668,6.99601646 112.718744,6.33355428 C112.720634,6.31181871 112.722524,6.30047842 112.723469,6.28913812 C112.723469,6.2881931 112.723469,6.2881931 112.723469,6.2881931 C112.723469,6.18991055 112.731029,6.09068298 112.743314,5.9914554 C112.867112,3.94642236 114.639033,2.24537824 116.685012,2.16505116 C119.71476,2.21135736 122.168044,4.6996069 122.168044,7.75487114 C122.168044,8.98907315 121.776804,10.1571235 121.036849,11.1361688 L122.053696,11.912034 C122.961864,10.7080727 123.442882,9.27069046 123.442882,7.75487114 C123.442882,4.15149268 120.667345,1.19262093 117.155634,0.907223531 L117.155634,0.903443433 C117.133898,0.903443433 117.112163,0.901553384 117.090427,0.901553384 C117.080977,0.901553384 117.077197,0.902498409 117.069636,0.902498409 C116.913707,0.891158114 116.757778,0.877927771 116.601849,0.877927771 C115.946002,0.877927771 115.312836,0.97621032 114.7118,1.15198488 C113.308439,1.46762307 112.186695,2.08472407 111.361688,3.01557322 C110.111421,4.44350525 109.485815,6.31937891 109.485815,8.64602926 C109.485815,12.3665908 111.917363,15.0665258 116.786129,16.7486694 C119.354706,17.6322673 120.895096,19.0327937 121.401629,20.9521384 C121.907217,22.8705382 121.709707,24.4383339 120.804373,25.6526904 C120.048354,26.6704818 119.057023,27.3405041 117.832271,27.6145613 C117.428746,27.681658 117.018605,27.722294 116.601849,27.722294 L116.601849,27.722294 C113.765831,27.722294 111.21899,26.1365429 109.952657,23.5859218 L108.812012,24.1576616 C110.294756,27.1458291 113.281033,29.0028023 116.601849,29.0028023 L116.601849,29.0028023 C116.668001,29.0028023 116.732263,28.9952421 116.798414,28.993352 C116.935443,28.993352 117.080977,28.992407 117.1906,28.992407 C120.266654,28.8553784 122.311687,28.0020213 123.526989,26.5570788 C124.694094,25.1650577 125.278119,23.2447679 125.278119,20.7990445 C125.276229,16.6192011 122.857912,13.7066355 118.026001,12.0594578 Z" id="Path" fill="#083F3F" fill-rule="nonzero"></path>
            <polygon id="Path" fill="#FFFFFF" fill-rule="nonzero" points="133.677497 3.54667699 138.440421 3.6279491 137.974524 6.04626683 133.431791 5.81568084"></polygon>
            <path d="M138.228735,6.28252295 L138.042565,6.27874285 C137.890417,6.27496276 134.313499,6.1880205 133.411,6.01413599 L133.237116,5.98011511 L133.224831,5.8024505 C133.183249,5.05210104 133.486602,3.57975285 133.499833,3.51832626 L133.532909,3.35861711 L133.691673,3.33782657 C133.742704,3.3312114 134.919259,3.17528236 136.196933,3.17528236 C137.223229,3.17528236 138.014215,3.27829003 138.549099,3.4776902 L138.708808,3.53817177 L138.696522,3.70827618 C138.652106,4.37924359 138.286382,6.03114643 138.268426,6.10013322 L138.228735,6.28252295 Z M133.677497,5.59360008 C134.627247,5.72023337 137.155187,5.79678035 137.866791,5.81568084 C137.953733,5.40743026 138.160694,4.41704457 138.2259,3.85097488 C137.744883,3.70449609 137.06541,3.63267422 136.197878,3.63267422 C135.218832,3.63267422 134.281368,3.72906672 133.913753,3.7706478 C133.844767,4.13070214 133.686948,5.01524508 133.677497,5.59360008 Z" id="Shape" fill="#083F3F" fill-rule="nonzero"></path>
            <g id="Group" transform="translate(15.840501, 83.306746)" fill="#083F3F" fill-rule="nonzero">
                <polygon id="Path" points="0.953529732 22.9697658 0 8.16028666 2.26522375 8.01475288 3.21875349 22.824232"></polygon>
                <path d="M11.0898626,14.0619647 C11.1097082,14.2462445 11.1276636,14.4390295 11.140894,14.6422098 L11.4933881,20.1129567 C11.5085085,20.3520479 11.5453645,20.4938016 11.603011,20.5353826 C11.6701077,20.5779087 11.8515524,20.588304 12.1464,20.5694035 L12.2541328,22.2420969 C11.0747423,22.3176989 10.3300629,22.3101387 10.0191499,22.2194163 C9.64208509,22.1060134 9.40866404,21.78187 9.31794168,21.2526562 C9.13555195,22.1419243 8.67532502,22.6116015 7.93915092,22.6597977 C6.29008315,22.7656405 5.41215538,21.9897754 5.30631263,20.3312573 C5.24299599,19.3455968 5.38474967,18.5404359 5.73346371,17.9176647 C6.08123273,17.2948936 6.5735905,16.9612999 7.20864697,16.9197189 C7.78983705,16.8828629 8.20942793,16.6484968 8.46741962,16.2156756 C8.73486156,15.7734041 8.85393465,15.1033817 8.82463889,14.2084435 L11.0898626,14.0619647 Z M8.82463889,14.2084435 C8.82558391,14.0780301 8.82180382,13.9495068 8.81329859,13.8209835 C8.7017857,12.0991488 8.46741962,11.2495718 8.10831031,11.2741424 C7.61973264,11.3043832 7.18691141,11.4811028 6.81079165,11.8005211 C6.42427663,12.1218294 6.16722996,12.53008 6.04248673,13.0290529 L5.39325489,12.8627286 C5.54823891,12.2522428 5.87238231,11.7504348 6.36379506,11.3582496 C6.85615283,10.9556692 7.42505759,10.7345334 8.0695643,10.6938974 C9.80084921,10.5814395 10.8073003,11.7041286 11.0889176,14.0619647 L8.82463889,14.2084435 Z M8.97395276,16.3215183 C8.74714688,16.9556298 8.30582043,17.2930035 7.65280849,17.3345846 C7.46852871,17.3468699 7.43545286,18.2701589 7.55358092,20.1035064 C7.64335825,21.4936375 7.83519823,22.1787803 8.12910085,22.1598798 C8.86621997,22.1116835 9.22343923,21.3499938 9.20359372,19.8719754 L8.97395276,16.3215183 Z" id="Shape"></path>
                <path d="M24.9477021,19.6347743 C24.7719275,20.2197444 24.4903102,20.705487 24.0990701,21.091057 C23.7068849,21.4681218 23.2759537,21.6713021 22.8062765,21.7015429 C21.5352186,21.782815 20.5145921,21.3679492 19.7434521,20.4560006 C18.9326211,19.4816803 18.4629439,17.9989368 18.3344205,16.0096603 C18.2058972,14.0213287 18.4827894,12.491334 19.163207,11.4225113 C19.8114939,10.4179502 20.7697487,9.87550615 22.0408067,9.79423404 C22.8506927,9.74131267 23.6482934,10.411335 24.4307737,11.8043012 L23.8429684,12.1464 C23.1247498,10.9074729 22.5350545,10.3017122 22.0748276,10.331008 C20.9889944,10.4009398 20.5608983,12.2409025 20.7943194,15.8518412 C21.0249053,19.4334841 21.6826424,21.1902846 22.7703656,21.1212978 C23.4602335,21.0768817 23.9696017,20.4890764 24.2928001,19.3588271 L24.9477021,19.6347743 Z" id="Path"></path>
                <path d="M27.1335438,10.909363 C27.6693727,9.9123621 28.4820938,9.37936828 29.5688719,9.31038149 C30.729362,9.23477953 31.6432007,9.72241218 32.3122781,10.7704444 C32.9388294,11.7570499 33.3130591,13.1793118 33.4330772,15.0391201 C33.5616005,17.0283967 33.3404648,18.5565013 32.77156,19.6196539 C32.2347861,20.6157097 31.422065,21.1487035 30.3352868,21.2186354 C29.1747967,21.2932923 28.260958,20.8056596 27.5928257,19.7576275 C26.9653294,18.7719669 26.5901547,17.347815 26.4710816,15.4870617 C26.3425583,13.4968401 26.564639,11.9725155 27.1335438,10.909363 Z M30.9750684,15.1959941 C30.7407023,11.568045 30.2842555,9.77627857 29.6019478,9.82069472 C28.9205851,9.86416585 28.6975593,11.7003485 28.9300354,15.3282976 C29.1634564,18.9571917 29.6208483,20.7489582 30.302211,20.705487 C30.9845187,20.6610709 31.2084895,18.8258333 30.9750684,15.1959941 Z" id="Shape"></path>
                <path d="M44.8045571,20.1479226 L44.2384874,11.3469093 C44.1402049,9.82825492 43.9993962,9.07507038 43.8151165,9.08641068 C43.2991331,9.11948654 42.8993877,9.3765332 42.6168254,9.85660566 C42.331428,10.3272279 42.2142449,10.9396037 42.2624412,11.6946783 L42.8096104,20.2046241 C42.8285109,20.2046241 42.8294559,20.2140743 42.8124454,20.2320298 C42.832291,20.2584905 42.833236,20.2736108 42.8152805,20.2745559 L40.5632871,20.4191446 L39.9962724,11.6181313 C39.8979899,10.0985319 39.7581262,9.34629242 39.5738464,9.35668769 C39.0210071,9.39259862 38.5891309,9.65153534 38.2782178,10.1334978 C37.9663598,10.6069551 37.8340563,11.220276 37.8841426,11.9753506 L38.4360369,20.5542831 L36.1708132,20.7007619 L35.4214087,9.06751019 L37.6866325,8.92292144 L37.7877501,10.4982773 C38.1043333,9.3765332 38.7781358,8.78211279 39.8101026,8.71596107 C40.9979984,8.63941408 41.7625232,9.2376146 42.1036771,10.5096176 C42.333318,9.19981362 42.9825499,8.51089075 44.0513726,8.44190396 C44.7412405,8.39748781 45.30164,8.60822828 45.7287911,9.07129029 C46.1757877,9.55136274 46.4290543,10.2601311 46.4904808,11.1985405 L47.0518254,19.9296219 C47.0707259,19.9277319 47.0716709,19.9371821 47.0537155,19.9570276 C47.074506,19.9825433 47.074506,19.9976637 47.0565505,19.9995537 L44.8045571,20.1479226 Z" id="Path"></path>
                <path d="M58.2749365,19.2813351 L57.7088668,10.4803218 C57.6105843,8.96072242 57.4688306,8.20848291 57.2854958,8.21887818 C56.7695125,8.25195404 56.3697671,8.50994573 56.0862597,8.98907315 C55.8018074,9.46064039 55.6846243,10.0730163 55.7328206,10.8290359 L56.2799898,19.3380366 C56.2988903,19.3370916 56.2998353,19.3465418 56.2818798,19.3654423 C56.3026704,19.391903 56.3036154,19.4060783 56.2847149,19.4079684 L54.0327215,19.5525571 L53.4666518,10.7515439 C53.3683692,9.2338345 53.2275606,8.47970494 53.0432808,8.49104524 C52.4904415,8.52695617 52.0595103,8.78683791 51.7485972,9.26785538 C51.4367391,9.74036764 51.3044357,10.3536885 51.353577,11.1097082 L51.9064163,19.6886407 L49.6411926,19.8351195 L48.8917881,8.20186774 L51.1570119,8.05633396 L51.2581295,9.63168982 C51.5747127,8.50994573 52.2485152,7.91647033 53.280482,7.84937359 C54.4683778,7.77282661 55.2329026,8.37102712 55.5740565,9.64397514 C55.8036974,8.33417117 56.4529292,7.6452483 57.521752,7.57626151 C58.2116199,7.53090033 58.7710744,7.7416408 59.1991705,8.20375778 C59.645222,8.68383024 59.8994336,9.39259862 59.9599152,10.331953 L60.5222048,19.0620894 C60.5411053,19.0611444 60.5411053,19.0705946 60.5240948,19.0894951 C60.5439404,19.1159558 60.5448854,19.1310762 60.5269299,19.1320212 L58.2749365,19.2813351 Z" id="Path"></path>
                <path d="M68.5379027,6.94120504 L69.2863621,18.5725667 L67.0220834,18.7181005 L66.9549866,17.6814086 C66.6837646,18.4846794 66.0959594,18.9165556 65.1925159,18.9742021 C64.3911351,19.0261785 63.808055,18.7908674 63.4413855,18.2682688 C63.1162971,17.8080419 62.9168969,17.0255616 62.8460201,15.9208279 L62.2950708,7.34284045 L64.5593495,7.19730668 L65.1112438,15.7743491 C65.2208667,17.4791734 65.3068639,18.3296954 65.3711256,18.3249703 C65.8597032,18.2947295 66.2433832,18.1312403 66.5202754,17.8345026 C66.7981126,17.5491052 66.9228558,17.1805456 66.892615,16.7288239 L66.273624,7.08673881 L68.5379027,6.94120504 Z" id="Path"></path>
                <path d="M76.2360724,18.1255701 L75.6700027,9.32455686 C75.5717201,7.80495744 75.4299665,7.05177291 75.2466317,7.0631132 C74.7126929,7.09713408 74.2987721,7.35512577 74.0058145,7.83708827 C73.7119119,8.30865551 73.5918938,8.92008636 73.639145,9.67516095 L74.1910393,18.2559835 L71.9258156,18.4005723 L71.1783012,6.76921058 L73.4425799,6.6236768 L73.5418075,8.17068193 C73.8498855,7.06878335 74.4972273,6.48570322 75.4828878,6.42144156 C76.1727557,6.3770254 76.7322102,6.58682085 77.1593613,7.04988286 C77.6063579,7.52995531 77.8596245,8.23872369 77.9210511,9.17807806 L78.4814506,17.9082145 C78.5003511,17.9072695 78.5012961,17.9167197 78.4842857,17.9356202 C78.5041312,17.9620809 78.5050762,17.9772013 78.4871208,17.9781463 L76.2360724,18.1255701 Z" id="Path"></path>
                <path d="M86.2892431,9.22438426 C86.3090886,9.40677399 86.3279891,9.60050401 86.3412195,9.80273926 L86.6937136,15.2734862 C86.709779,15.5125774 86.746635,15.654331 86.8042815,15.6978022 C86.8713782,15.7384382 87.0509329,15.7497785 87.3457805,15.729933 L87.4535133,17.4026264 C86.2750678,17.4791734 85.5303884,17.4716132 85.2204204,17.3808908 C84.8424106,17.2665429 84.6099346,16.9423994 84.5192122,16.4131857 C84.3358775,17.3033988 83.8756505,17.772131 83.1394764,17.8203272 C81.4913537,17.92617 80.6124809,17.1503048 80.5056931,15.4927318 C80.4423765,14.5080163 80.5850752,13.7028554 80.9328442,13.0791392 C81.2806132,12.4554231 81.773916,12.1218294 82.4099175,12.0811934 C82.9892175,12.0433924 83.4097534,11.8099713 83.6677451,11.3771501 C83.9361321,10.9339336 84.0542602,10.2648562 84.0240194,9.36991803 L86.2892431,9.22438426 Z M84.0230743,9.36991803 C84.0240194,9.24044967 84.0211843,9.11098132 84.0126791,8.98151296 C83.9021112,7.2596783 83.6658551,6.41010126 83.3076908,6.4346719 C82.8191131,6.46585771 82.3853469,6.64163227 82.0092271,6.9629406 C81.6227121,7.28330391 81.3675555,7.6915545 81.2428122,8.18958242 L80.5926354,8.02420313 C80.7485644,7.41371729 81.0708178,6.91190928 81.5631755,6.51877908 C82.0555333,6.11808869 82.623493,5.89600793 83.2679998,5.85442685 C85.0002297,5.74385898 86.0057358,6.86560308 86.2873531,9.22438426 L84.0230743,9.36991803 Z M84.1733332,11.4829928 C83.9465274,12.1161593 83.5052009,12.453533 82.852189,12.4960591 C82.6679092,12.5073994 82.6357784,13.4306884 82.7539064,15.2640359 C82.8427387,16.655112 83.0345787,17.3393097 83.3284813,17.3204092 C84.0656005,17.274103 84.4237647,16.5114683 84.4029742,15.0325049 L84.1733332,11.4829928 Z" id="Shape"></path>
                <path d="M94.9674032,5.24016092 L95.7158626,16.8715226 L93.4506389,17.0170564 L93.3844872,15.9803645 C93.1132651,16.7836353 92.5245149,17.2164566 91.6220164,17.273158 C90.8196906,17.3251344 90.2375555,17.0898233 89.870886,16.5672247 C89.5457976,16.1069978 89.3463974,15.3245175 89.2755206,14.2197838 L88.7245713,5.64179633 L90.98885,5.49626256 L91.5407443,14.0742501 C91.6503672,15.7781292 91.7363644,16.6286513 91.8006261,16.6239262 C92.2892038,16.5936854 92.6728837,16.4301962 92.9497759,16.1334585 C93.2276131,15.8480611 93.3514113,15.4804465 93.3230606,15.0277798 L92.7031245,5.38569469 L94.9674032,5.24016092 Z" id="Path"></path>
                <path d="M101.191335,5.37907952 L100.003439,5.45468148 L100.581794,14.4617101 C100.621485,15.0703059 100.685747,15.4530408 100.774579,15.6099149 C100.863411,15.7648989 101.227246,15.8603464 101.867027,15.8924772 L101.903883,16.4727223 L100.178268,16.5832901 C99.3957881,16.6343215 98.89209,16.5133583 98.6690642,16.2222908 C98.4895096,15.9926498 98.3704365,15.4549309 98.3156251,14.6081889 L97.7372701,5.60116028 L96.9774704,5.64935653 L96.9434495,5.11258261 L97.7023042,5.06344133 L97.5076291,2.03747285 L99.6518897,0 L99.9675279,4.91790756 L101.157314,4.84136057 L101.191335,5.37907952 Z" id="Path"></path>
                <path d="M110.010303,14.148907 C109.890285,14.7386023 109.548186,15.22718 108.981172,15.615585 C108.415102,16.0124953 107.727124,16.2383562 106.916293,16.2903325 C105.911732,16.3545942 105.101846,15.9255531 104.48758,15.0041542 C103.832678,14.0203837 103.441438,12.53197 103.31386,10.5426935 C103.185336,8.55341685 103.398912,7.02814729 103.949861,5.96593974 C104.477185,4.96988391 105.26628,4.43878013 106.316203,4.37073837 C108.563471,4.22614962 109.819408,6.21070109 110.084015,10.3281729 L105.786044,10.6050651 C106.01663,14.0392841 106.382354,15.7422183 106.878492,15.7100875 C107.514494,15.6685064 108.056938,15.4851716 108.508659,15.1610282 C108.967941,14.8264896 109.245779,14.4144589 109.345006,13.9258812 L110.010303,14.148907 Z M105.678311,1.35989027 L108.620172,1.17088537 L107.275402,3.33782657 L105.216194,3.47107503 L105.678311,1.35989027 Z M107.787606,9.99174416 C107.539064,6.55752509 107.059937,4.86215111 106.350223,4.90845731 C105.752023,4.94625829 105.552623,6.68510339 105.755803,10.1221575 L107.787606,9.99174416 Z" id="Shape"></path>
            </g>
            <polyline id="Path" stroke="#006154" points="131.185468 79.2355802 132.792954 104.227698 12.5518156 111.964614"></polyline>
        </g>
    </g>
</svg>