<?xml version="1.0" encoding="utf-8"?>
<!-- Generator: Adobe Illustrator 16.0.0, SVG Export Plug-In . SVG Version: 6.00 Build 0)  -->
<!DOCTYPE svg PUBLIC "-//W3C//DTD SVG 1.1//EN" "http://www.w3.org/Graphics/SVG/1.1/DTD/svg11.dtd">
<svg version="1.1" id="Calque_1" xmlns="http://www.w3.org/2000/svg" xmlns:xlink="http://www.w3.org/1999/xlink" x="0px" y="0px"
	 width="150px" height="100px" viewBox="25 25 150 100" enable-background="new 25 25 150 100" xml:space="preserve">
<g>
	<path fill="#FFFFFF" d="M150.314,78.101c0.121,0.007,0.238,0.021,0.364,0.021c0.897,0,1.571-0.152,1.601-0.159l0.16-0.036
		l0.075-0.145c0.222-0.42,2.125-4.144,1.526-5.886c-0.51-1.484-2.506-1.667-3.394-1.672c0.066-0.687,0.188-2.091,0.167-3.051
		c-0.014-0.589-0.514-0.899-0.974-0.939c-0.749-0.066-1.097,0.431-1.19,0.716l-0.66,4.381c-0.279-0.361-0.67-1.318-1.182-1.417
		c-0.52-0.1-0.796,0.155-0.996,0.535c-0.111,0.213-0.117,0.419-0.117,0.453c0,0.075,0.137,1.815,0.498,3.152
		c0.369,1.36,1.633,3.289,1.701,3.371l0.043,0.055l0.059,0.033c0.463,0.26,1.009,0.428,1.613,0.521"/>
	<g>
		<g>
			<path fill="#083F3F" d="M143.994,64.122L143.994,64.122c-2.342,0-4.174-2.636-4.19-2.663l-0.584,0.402
				c0.084,0.122,2.058,2.973,4.772,2.973c1.506,0,2.916-0.877,4.192-2.607l-0.747-0.19C146.354,63.42,145.197,64.121,143.994,64.122
				z"/>
		</g>
	</g>
	<path fill="#083F3F" d="M154.022,71.895c-0.51-1.484-2.505-1.667-3.393-1.672c0.067-0.687,0.188-2.091,0.167-3.051
		c-0.014-0.589-0.514-0.899-0.973-0.939c-0.75-0.066-1.098,0.431-1.192,0.716l-0.66,4.381c-0.278-0.361-0.671-1.318-1.181-1.417
		c-0.521-0.1-0.797,0.155-0.995,0.535c-0.114,0.213-0.118,0.419-0.118,0.453c-0.001,0.075,0.134,1.815,0.497,3.152
		c0.368,1.36,1.636,3.289,1.7,3.371l0.045,0.055l0.06,0.033c0.462,0.26,1.007,0.428,1.612,0.521
		c-2.139,15.377-10.281,14.75-10.359,14.744l-0.072,0.707c0.035,0.004,0.152,0.016,0.334,0.016c1.664,0,8.795-0.865,10.803-15.396
		c0.121,0.006,0.236,0.02,0.363,0.02c0.896,0,1.574-0.152,1.602-0.159l0.16-0.036l0.076-0.145
		C152.716,77.361,154.619,73.638,154.022,71.895z M151.949,77.298c-0.236,0.041-0.715,0.11-1.289,0.11
		c-0.904,0-1.67-0.164-2.274-0.487c-0.251-0.319-1.229-1.957-1.526-3.058c-0.334-1.238-0.472-2.937-0.474-2.954
		c-0.026-0.196,0.063-0.296,0.13-0.313c0.188-0.046,0.232,0.073,0.286,0.143c0.235,0.3,0.592,1.051,1.026,1.77
		c0,0,0.197,0.361,0.375,0.339c0.219-0.028,0.283-0.323,0.283-0.323l0.825-5.369c0.034-0.071,0.159-0.24,0.451-0.216
		c0.056,0.004,0.322,0.038,0.326,0.247c0.028,1.237-0.201,3.34-0.204,3.362l-0.02,0.171c0,0-0.021,0.131,0.016,0.183
		c0.053,0.069,0.136,0.058,0.136,0.058l0.247-0.019c0.007,0,0.129-0.009,0.32-0.009c0.553,0,2.389,0.086,2.769,1.194
		C153.757,73.304,152.541,76.124,151.949,77.298z"/>
	<g>
		<g>
			<path fill="#083F3F" d="M44.245,71.192V49.925h4.896c5.133,0,7.698,3.544,7.698,10.633c0,3.598-0.58,6.269-1.737,8.016
				c-1.172,1.745-2.961,2.618-5.37,2.618H44.245z M49.655,70.319c2.211,0,3.317-3.253,3.317-9.761c0-6.506-1.265-9.76-3.791-9.76
				h-1.323v19.521H49.655z"/>
			<path fill="#083F3F" d="M71.707,71.192H60.691V49.925h10.72v0.912h-7.106v8.948h5.052v0.872h-5.052v9.622h7.402V71.192z"/>
			<path fill="#083F3F" d="M82.073,71.192h-3.375l-4.738-21.267h3.87l3.731,18.866l4.025-18.866h1.205L82.073,71.192z"/>
			<path fill="#083F3F" d="M91.174,52.821c1.343-2.063,3.022-3.094,5.037-3.094c2.023,0,3.709,1.032,5.051,3.094
				c1.355,2.077,2.033,4.656,2.033,7.737c0,3.254-0.651,5.873-1.954,7.856c-1.304,1.984-3.015,2.976-5.13,2.976
				c-2.12,0-3.832-0.992-5.135-2.976c-1.29-1.983-1.934-4.602-1.934-7.856C89.142,57.477,89.821,54.898,91.174,52.821z
				 M98.539,67.74c0.591-1.812,0.888-4.206,0.888-7.182c0-2.83-0.312-5.19-0.931-7.082c-0.604-1.892-1.366-2.837-2.287-2.837
				c-0.91,0-1.667,0.946-2.272,2.837c-0.617,1.892-0.929,4.251-0.929,7.082c0,2.976,0.297,5.37,0.889,7.182
				c0.58,1.825,1.35,2.739,2.313,2.739C97.169,70.479,97.945,69.565,98.539,67.74z"/>
			<path fill="#083F3F" d="M107.463,71.192V49.925h3.593c0.026,0,0.026,0.013,0,0.04c0.026,0.039,0.026,0.059,0,0.059v21.068
				c0.026,0,0.026,0.013,0,0.04c0.026,0.04,0.026,0.06,0,0.06H107.463z"/>
			<path fill="#083F3F" d="M119.132,61.947v9.245h-3.611V49.925h3.908c4.185,0,6.276,2.123,6.276,6.368
				c0,3.175-1.573,4.979-4.719,5.416l-0.67,0.08l5.844,9.403h-1.303L119.132,61.947z M119.468,60.955
				c1.75,0,2.625-1.554,2.625-4.662c0-3.663-0.901-5.495-2.704-5.495h-0.257v10.157H119.468z"/>
		</g>
	</g>
	<g>
		<g>
			<path fill="#083F3F" d="M88.802,90.188v10.514h-3.606V79.474h10.699v0.911h-7.093v8.932h5.045v0.871H88.802z"/>
			<path fill="#083F3F" d="M96.565,100.701l5.124-21.229h3.919l5.145,21.229h-3.881l-1.539-6.476h-6.027l-1.557,6.476H96.565z
				 M105.137,93.335l-2.818-11.821l-2.816,11.821H105.137z"/>
			<path fill="#083F3F" d="M112.209,100.701V79.474h3.586c0.025,0,0.025,0.013,0,0.039c0.025,0.04,0.025,0.06,0,0.06v21.031
				c0.025,0,0.025,0.014,0,0.038c0.025,0.04,0.025,0.06,0,0.06H112.209L112.209,100.701z"/>
			<path fill="#083F3F" d="M121.057,100.701V80.385h-3.863v-0.911h11.332v0.911h-3.863v20.316H121.057z"/>
		</g>
	</g>
	<path fill="#FFFFFF" d="M147.119,50.462c0,0,6.709,0.376,8.693,1.803c-0.093,2.633-2.254,10.851-2.254,10.851
		s-7.342-1.024-9.253-1.897C145.35,56.753,147.119,50.462,147.119,50.462z"/>
	<g>
		<path fill="#FFFFFF" d="M146.736,49.597c0,0,5.707-0.911,7.688,0.514c-0.092,2.634-1.874,11.053-1.874,11.053
			s-3.56-0.588-8.22-0.33C145.373,56.369,146.736,49.597,146.736,49.597z"/>
		<g>
			<path fill="none" d="M153.986,51.115c0.033-0.303,0.062-0.579,0.073-0.815c-0.704-0.416-1.94-0.633-3.603-0.633
				c-1.467,0-2.875,0.171-3.426,0.247c-0.009,0.053-0.021,0.117-0.035,0.187l0.144,0.008
				C147.353,50.119,151.254,50.347,153.986,51.115z"/>
			<path fill="none" d="M152.271,60.763c0.268-1.274,1.227-5.985,1.626-8.94c-2.245-0.648-8.138,4.863-9.044,8.629
				c0.617-0.025,1.245-0.04,1.872-0.04C149.41,60.412,151.49,60.656,152.271,60.763z"/>
			<path fill="none" d="M152.826,61.57l-0.334-0.055c-0.022-0.003-2.41-0.391-5.768-0.391c-0.521,0-1.04,0.014-1.556,0.032
				c2.188,0.674,6.876,1.38,8.127,1.563c0.38-1.47,1.989-7.825,2.151-10.269c-0.238-0.146-0.533-0.28-0.867-0.403
				c-0.471,3.434-1.625,8.91-1.686,9.191L152.826,61.57z"/>
			<path fill="#083F3F" d="M156.018,51.976c-0.338-0.245-0.805-0.458-1.345-0.646c0.056-0.469,0.092-0.879,0.104-1.206l0.006-0.191
				l-0.154-0.111c-0.799-0.576-2.203-0.868-4.17-0.868c-1.932,0-3.702,0.279-3.777,0.292l-0.242,0.038l-0.049,0.242
				c-0.013,0.063-1.184,5.882-2.178,10.243c-0.105,0.429-0.206,0.848-0.303,1.253l-0.092,0.341c0,0,0.157,0.091,0.342,0.179
				c1.98,0.944,9.049,1.883,9.352,1.925l0.313,0.042l0.08-0.304c0.088-0.337,2.172-8.286,2.262-10.928l0.008-0.191L156.018,51.976z
				 M146.996,50.099c0.014-0.069,0.026-0.133,0.035-0.187c0.551-0.076,1.959-0.247,3.426-0.247c1.66,0,2.897,0.218,3.603,0.633
				c-0.013,0.236-0.04,0.512-0.073,0.815c-0.024,0.222-1.447,8.374-1.715,9.648c-0.781-0.107-2.859-0.351-5.546-0.351
				c-0.627,0-1.255,0.015-1.872,0.04C144.83,60.454,146.691,51.598,146.996,50.099z M153.297,62.718
				c-1.251-0.182-5.939-0.889-8.127-1.563c0.516-0.018,1.033-0.032,1.556-0.032c3.356,0,5.744,0.388,5.767,0.391l0.334,0.055
				l0.07-0.332c0.061-0.281,1.215-5.758,1.686-9.191c0.334,0.123,0.629,0.257,0.867,0.403
				C155.287,54.893,153.677,61.248,153.297,62.718z"/>
		</g>
	</g>
	<path fill="#083F3F" d="M151.686,53.837l-0.145-0.003c-0.118-0.003-2.899-0.07-3.602-0.206l-0.135-0.026l-0.009-0.139
		c-0.033-0.583,0.202-1.727,0.213-1.775l0.026-0.124l0.123-0.016c0.039-0.005,0.953-0.126,1.946-0.126
		c0.798,0,1.413,0.08,1.829,0.235l0.124,0.047l-0.009,0.132c-0.035,0.521-0.319,1.805-0.333,1.859L151.686,53.837z M148.148,53.301
		c0.737,0.099,2.702,0.158,3.256,0.173c0.067-0.317,0.229-1.087,0.279-1.527c-0.374-0.113-0.902-0.17-1.576-0.17
		c-0.762,0-1.49,0.075-1.775,0.107C148.279,52.164,148.156,52.852,148.148,53.301z"/>
	<path fill="#083F3F" d="M135.984,87.876c-1.959-0.687-3.225-1.644-3.804-2.872c-0.251-0.532-0.349-1.063-0.323-1.579
		c0.002-0.019,0.004-0.026,0.004-0.035v-0.001c0-0.076,0.006-0.152,0.017-0.23c0.096-1.588,1.474-2.911,3.063-2.975
		c2.354,0.036,4.262,1.971,4.262,4.346c0,0.959-0.305,1.867-0.881,2.629l0.791,0.603c0.707-0.937,1.08-2.053,1.08-3.229
		c0-2.801-2.156-5.102-4.888-5.323v-0.003c-0.017,0-0.033-0.002-0.051-0.002c-0.007,0-0.011,0.002-0.017,0.002
		c-0.121-0.01-0.244-0.021-0.363-0.021c-0.512,0-1.002,0.077-1.471,0.214c-1.091,0.245-1.963,0.725-2.604,1.448
		c-0.973,1.108-1.458,2.567-1.458,4.376c0,2.893,1.89,4.99,5.674,6.299c1.996,0.687,3.192,1.773,3.587,3.267s0.239,2.71-0.464,3.653
		c-0.588,0.791-1.358,1.313-2.31,1.524c-0.314,0.053-0.633,0.084-0.957,0.084l0,0c-2.204,0-4.185-1.231-5.168-3.216l-0.887,0.443
		c1.152,2.323,3.473,3.769,6.055,3.769l0,0c0.053,0,0.102-0.006,0.152-0.009c0.105,0,0.221-0.002,0.305-0.002
		c2.392-0.104,3.98-0.771,4.926-1.892c0.908-1.083,1.361-2.575,1.361-4.476C141.617,91.42,139.738,89.154,135.984,87.876z"/>
	<path fill="#083F3F" d="M135.984,58.327c-1.959-0.687-3.225-1.645-3.804-2.872c-0.251-0.532-0.349-1.064-0.323-1.58
		c0.002-0.017,0.004-0.025,0.004-0.035v-0.001c0-0.077,0.006-0.154,0.017-0.231c0.096-1.589,1.474-2.912,3.063-2.975
		c2.354,0.036,4.262,1.97,4.262,4.345c0,0.959-0.305,1.867-0.881,2.628l0.791,0.604c0.707-0.937,1.08-2.053,1.08-3.231
		c0-2.801-2.156-5.101-4.888-5.323v-0.002c-0.017,0-0.033-0.001-0.051-0.001c-0.007,0-0.011,0.001-0.017,0.001
		c-0.121-0.009-0.244-0.019-0.363-0.019c-0.512,0-1.002,0.077-1.471,0.212c-1.091,0.245-1.963,0.725-2.604,1.449
		c-0.973,1.11-1.458,2.567-1.458,4.376c0,2.891,1.89,4.991,5.674,6.297c1.996,0.687,3.192,1.776,3.587,3.268
		c0.395,1.491,0.239,2.71-0.464,3.653c-0.588,0.791-1.358,1.312-2.31,1.525c-0.314,0.052-0.633,0.083-0.957,0.083l0,0
		c-2.204,0-4.185-1.232-5.168-3.215l-0.887,0.445c1.152,2.322,3.473,3.766,6.055,3.766l0,0c0.053,0,0.102-0.006,0.152-0.007
		c0.105,0,0.221-0.001,0.305-0.001c2.392-0.106,3.98-0.77,4.926-1.893c0.908-1.082,1.361-2.574,1.361-4.476
		C141.617,61.871,139.738,59.607,135.984,58.327z"/>
</g>
</svg>
