<svg xmlns="http://www.w3.org/2000/svg" width="216" height="72" viewBox="0 0 216 72">
  <g fill="#1E1169" fill-rule="evenodd" opacity=".9">
    <path d="M215.08593 36.1474188L215.08593 36.1474188 209.040572 36.1474188 209.040572 33.6072479 214.100389 33.6072479C214.59316 33.6072479 214.708095 33.3518632 214.708095 33.098188L214.708095 31.5744274C214.708095 31.1922051 214.59316 30.9385299 214.100389 30.9385299L209.040572 30.9385299 209.040572 28.7788718 214.708095 28.7788718C215.201196 28.7788718 215.332316 28.6520342 215.332316 28.269812L215.332316 26.6192137C215.332316 26.2373333 215.201196 26.1104957 214.708095 26.1104957L206.576389 26.1104957C206.083618 26.1104957 205.968683 26.2373333 205.968683 26.6192137L205.968683 38.4352821C205.968683 38.6892991 206.083618 38.9429744 206.576389 38.9429744L215.08593 38.9429744C215.578701 38.9429744 215.578701 38.6892991 215.578701 38.4352821L215.578701 36.7829744C215.578701 36.4028034 215.578701 36.1474188 215.08593 36.1474188L215.08593 36.1474188zM203.750884 35.1310085L203.750884 35.1310085C203.750884 34.6236581 203.619435 34.4968205 203.126664 34.4968205L201.270187 34.4968205C200.908536 34.4968205 200.777417 34.7504957 200.777417 35.1310085 200.66215 36.1474188 199.791545 36.529641 198.806004 36.529641 197.574077 36.529641 196.719985 35.766906 196.719985 34.4968205L196.719985 30.4294701C196.719985 29.2865641 197.574077 28.5251966 198.806004 28.5251966 199.791545 28.5251966 200.284646 28.7788718 200.777417 29.4130598 200.908536 29.6684444 200.908536 30.0489573 201.270187 30.0489573L203.126664 30.0489573C203.619435 30.0489573 203.750884 29.9221197 203.750884 29.5419487 203.504499 26.9997265 201.155251 25.729641 198.806004 25.729641 196.47327 25.729641 193.631251 27.1265641 193.631251 30.1757949L193.631251 34.8773333C193.631251 37.9265641 196.47327 39.1966496 198.806004 39.1966496 201.155251 39.1966496 203.750884 37.6728889 203.750884 35.1310085L203.750884 35.1310085zM190.789233 26.1104957L190.789233 26.1104957 188.94927 26.1104957C188.702884 26.1104957 188.456499 26.2373333 188.456499 26.6192137L188.456499 33.4804103 184.382224 26.7460513C184.135839 26.3641709 184.020903 26.1104957 183.528132 26.1104957L181.803435 26.1104957C181.310334 26.1104957 181.178884 26.2373333 181.178884 26.6192137L181.178884 38.4352821C181.178884 38.8161368 181.42527 38.9429744 181.803435 38.9429744L183.643068 38.9429744C184.020903 38.9429744 184.135839 38.8161368 184.135839 38.4352821L184.135839 31.5744274 188.210114 38.3084444C188.456499 38.6892991 188.571435 38.9429744 189.064206 38.9429744L190.789233 38.9429744C191.282004 38.9429744 191.413453 38.6892991 191.413453 38.4352821L191.413453 26.6192137C191.413453 26.2373333 191.167068 26.1104957 190.789233 26.1104957L190.789233 26.1104957zM172.308022 34.1145983L172.308022 34.1145983 173.655215 29.7952821 175.133527 34.1145983 172.308022 34.1145983zM179.585637 38.4352821L179.585637 38.4352821 175.379912 26.6192137C175.264976 26.2373333 175.018591 26.1104957 174.640756 26.1104957L172.800793 26.1104957C172.422958 26.1104957 172.176242 26.2373333 172.061306 26.6192137L167.872426 38.4352821C167.740646 38.6892991 167.740646 38.9429744 168.118811 38.9429744L170.090224 38.9429744C170.582994 38.9429744 170.69793 38.8161368 170.82938 38.3084444L171.437086 36.7829744 176.004132 36.7829744 176.612169 38.3084444C176.743288 38.8161368 176.858554 38.9429744 177.236059 38.9429744L179.322738 38.9429744C179.700242 38.9429744 179.700242 38.6892991 179.585637 38.4352821L179.585637 38.4352821zM165.884499 36.2742564L165.884499 36.2742564 164.783692 36.2742564 164.783692 28.7788718 165.884499 28.7788718C166.262334 28.7788718 166.37727 28.5251966 166.37727 28.269812L166.37727 26.6192137C166.37727 26.2373333 166.262334 26.1104957 165.884499 26.1104957L160.589857 26.1104957C160.220279 26.1104957 160.097086 26.2373333 160.097086 26.6192137L160.097086 28.269812C160.097086 28.5251966 160.220279 28.7788718 160.589857 28.7788718L161.700242 28.7788718 161.700242 36.2742564 160.589857 36.2742564C160.097086 36.2742564 159.973894 36.529641 159.973894 36.7829744L159.973894 38.4352821C159.973894 38.6892991 160.097086 38.9429744 160.589857 38.9429744L165.884499 38.9429744C166.37727 38.9429744 166.508719 38.6892991 166.508719 38.4352821L166.508719 36.7829744C166.508719 36.529641 166.37727 36.2742564 165.884499 36.2742564L165.884499 36.2742564zM157.877637 26.1104957L157.877637 26.1104957 149.740646 26.1104957C149.246224 26.1104957 149.123031 26.2373333 149.123031 26.6192137L149.123031 38.4352821C149.123031 38.6892991 149.246224 38.9429744 149.740646 38.9429744L151.588866 38.9429744C151.958444 38.9429744 152.083618 38.9429744 152.083618 38.3084444L152.083618 33.7340855 157.138481 33.7340855C157.508059 33.7340855 157.631251 33.6072479 157.631251 33.2250256L157.631251 31.701265C157.631251 31.3190427 157.508059 31.0653675 157.138481 31.0653675L152.083618 31.0653675 152.083618 28.7788718 157.877637 28.7788718C158.370407 28.7788718 158.4936 28.6520342 158.4936 28.269812L158.4936 26.6192137C158.4936 26.2373333 158.370407 26.1104957 157.877637 26.1104957L157.877637 26.1104957zM145.91804 26.1104957L145.91804 26.1104957 144.068499 26.1104957C143.698591 26.1104957 143.452206 26.2373333 143.452206 26.6192137L143.452206 33.4804103 139.506407 26.7460513C139.260022 26.3641709 139.136829 26.1104957 138.644059 26.1104957L136.794187 26.1104957C136.424279 26.1104957 136.301086 26.2373333 136.301086 26.6192137L136.301086 38.4352821C136.301086 38.8161368 136.424279 38.9429744 136.794187 38.9429744L138.644059 38.9429744C139.013637 38.9429744 139.260022 38.8161368 139.260022 38.4352821L139.260022 31.5744274 143.329013 38.3084444C143.575398 38.6892991 143.698591 38.9429744 144.191692 38.9429744L145.91804 38.9429744C146.287618 38.9429744 146.410811 38.6892991 146.410811 38.4352821L146.410811 26.6192137C146.410811 26.2373333 146.164426 26.1104957 145.91804 26.1104957L145.91804 26.1104957zM130.999839 34.4968205L130.999839 34.4968205C130.999839 35.766906 130.012646 36.529641 128.780719 36.529641 127.546811 36.529641 126.684462 35.766906 126.684462 34.4968205L126.684462 30.4294701C126.684462 29.1597265 127.546811 28.5251966 128.780719 28.5251966 130.012646 28.5251966 130.999839 29.1597265 130.999839 30.4294701L130.999839 34.4968205zM133.958444 30.1757949L133.958444 30.1757949C133.958444 27.1265641 131.123031 25.729641 128.780719 25.729641 126.56127 25.729641 123.725857 27.1265641 123.725857 30.1757949L123.725857 34.8773333C123.725857 37.9265641 126.56127 39.1966496 128.780719 39.1966496 131.123031 39.1966496 133.958444 37.9265641 133.958444 34.8773333L133.958444 30.1757949zM121.875985 35.1310085L121.875985 35.1310085C121.875985 34.6236581 121.6296 34.4968205 121.260022 34.4968205L119.40982 34.4968205C118.91705 34.4968205 118.91705 34.7504957 118.91705 35.1310085 118.670664 36.1474188 117.929857 36.529641 116.821123 36.529641 115.587215 36.529641 114.724866 35.766906 114.724866 34.4968205L114.724866 30.4294701C114.724866 29.2865641 115.587215 28.5251966 116.821123 28.5251966 117.929857 28.5251966 118.422628 28.7788718 118.793857 29.4130598 119.040242 29.6684444 119.040242 30.0489573 119.40982 30.0489573L121.260022 30.0489573C121.6296 30.0489573 121.875985 29.9221197 121.875985 29.5419487 121.6296 26.9997265 119.286628 25.729641 116.821123 25.729641 114.601673 25.729641 111.766261 27.1265641 111.766261 30.1757949L111.766261 34.8773333C111.766261 37.9265641 114.601673 39.1966496 116.821123 39.1966496 119.286628 39.1966496 121.875985 37.6728889 121.875985 35.1310085L121.875985 35.1310085zM98.203178 34.1145983L98.203178 34.1145983 99.6834716 29.7952821 101.038921 34.1145983 98.203178 34.1145983zM105.47749 38.4352821L105.47749 38.4352821 101.285306 26.6192137C101.162114 26.2373333 100.915728 26.1104957 100.54615 26.1104957L98.6962789 26.1104957C98.3267009 26.1104957 98.0799853 26.2373333 97.9567927 26.6192137L93.7646092 38.4352821C93.6414165 38.6892991 93.6414165 38.9429744 94.0109945 38.9429744L95.9840587 38.9429744C96.4768294 38.9429744 96.600022 38.8161368 96.7232147 38.3084444L97.3408294 36.7829744 101.902921 36.7829744 102.518884 38.3084444C102.642077 38.8161368 102.76527 38.9429744 103.258371 38.9429744L105.231105 38.9429744C105.600683 38.9429744 105.600683 38.6892991 105.47749 38.4352821L105.47749 38.4352821zM92.285967 36.1474188L92.285967 36.1474188 86.7366826 36.1474188 86.7366826 26.6192137C86.7366826 26.2373333 86.6134899 26.1104957 86.2439119 26.1104957L84.3940404 26.1104957C84.0244624 26.1104957 83.7780771 26.2373333 83.7780771 26.6192137L83.7780771 38.4352821C83.7780771 38.6892991 83.9012697 38.9429744 84.3940404 38.9429744L92.285967 38.9429744C92.6558752 38.9429744 92.7790679 38.6892991 92.7790679 38.4352821L92.7790679 36.7829744C92.7790679 36.4028034 92.6558752 36.1474188 92.285967 36.1474188L92.285967 36.1474188zM76.0109945 36.1474188L76.0109945 36.1474188 69.8457468 36.1474188 69.8457468 33.6072479 75.0234716 33.6072479C75.3933798 33.6072479 75.5182239 33.3518632 75.5182239 33.098188L75.5182239 31.5744274C75.5182239 31.1922051 75.3933798 30.9385299 75.0234716 30.9385299L69.8457468 30.9385299 69.8457468 28.7788718 75.6414165 28.7788718C76.1341872 28.7788718 76.2573798 28.6520342 76.2573798 28.269812L76.2573798 26.6192137C76.2573798 26.2373333 76.1341872 26.1104957 75.6414165 26.1104957L67.3799119 26.1104957C67.0100037 26.1104957 66.886811 26.2373333 66.886811 26.6192137L66.886811 38.4352821C66.886811 38.6892991 67.0100037 38.9429744 67.3799119 38.9429744L76.0109945 38.9429744C76.3805725 38.9429744 76.5037651 38.6892991 76.5037651 38.4352821L76.5037651 36.7829744C76.5037651 36.4028034 76.3805725 36.1474188 76.0109945 36.1474188L76.0109945 36.1474188zM61.5855633 34.2414359L61.5855633 34.2414359C61.5855633 35.5132308 60.7215633 36.2742564 59.4896367 36.2742564L57.6397651 36.2742564 57.6397651 28.7788718 59.4896367 28.7788718C60.7215633 28.7788718 61.5855633 29.5419487 61.5855633 30.6848547L61.5855633 34.2414359zM59.4896367 26.1104957L59.4896367 26.1104957 55.1739303 26.1104957C54.6811596 26.1104957 54.6811596 26.2373333 54.6811596 26.6192137L54.6811596 38.4352821C54.6811596 38.6892991 54.6811596 38.9429744 55.1739303 38.9429744L59.4896367 38.9429744C61.708756 38.9429744 64.5441688 37.6728889 64.5441688 34.4968205L64.5441688 30.4294701C64.5441688 27.3802393 61.708756 26.1104957 59.4896367 26.1104957L59.4896367 26.1104957zM124.218628 14.5478632L124.218628 14.5478632 118.176242 14.5478632 118.176242 12.0076923 123.356279 12.0076923C123.725857 12.0076923 123.84905 11.7523077 123.84905 11.3717949L123.84905 9.84666667C123.84905 9.46581197 123.725857 9.33897436 123.356279 9.33897436L118.176242 9.33897436 118.176242 7.17965812 123.972242 7.17965812C124.34182 7.17965812 124.465013 6.9242735 124.465013 6.5434188L124.465013 5.01794872C124.465013 4.63777778 124.34182 4.38410256 123.972242 4.38410256L115.710407 4.38410256C115.340829 4.38410256 115.217637 4.63777778 115.217637 5.01794872L115.217637 16.7075214C115.217637 17.0897436 115.340829 17.3434188 115.710407 17.3434188L124.218628 17.3434188C124.711398 17.3434188 124.834591 17.0897436 124.834591 16.7075214L124.834591 15.0569231C124.834591 14.8015385 124.711398 14.5478632 124.218628 14.5478632L124.218628 14.5478632zM112.751802 14.5478632L112.751802 14.5478632 107.204169 14.5478632 107.204169 5.01794872C107.204169 4.51094017 106.957783 4.38410256 106.711398 4.38410256L104.738334 4.38410256C104.491949 4.38410256 104.245563 4.51094017 104.245563 5.01794872L104.245563 16.7075214C104.245563 17.0897436 104.368756 17.3434188 104.738334 17.3434188L112.751802 17.3434188C113.12138 17.3434188 113.244572 17.0897436 113.244572 16.7075214L113.244572 15.0569231C113.244572 14.8015385 113.12138 14.5478632 112.751802 14.5478632L112.751802 14.5478632zM98.9426642 12.8955556L98.9426642 12.8955556C98.9426642 14.1673504 98.0799853 14.8015385 96.7232147 14.8015385 95.4912881 14.8015385 94.6286092 14.1673504 94.6286092 12.8955556L94.6286092 8.82991453C94.6286092 7.56017094 95.4912881 6.7974359 96.7232147 6.7974359 98.0799853 6.7974359 98.9426642 7.56017094 98.9426642 8.82991453L98.9426642 12.8955556zM101.902921 8.5765812L101.902921 8.5765812C101.902921 5.40051282 99.0658569 4.12871795 96.7232147 4.12871795 94.5037651 4.12871795 91.6683523 5.40051282 91.6683523 8.5765812L91.6683523 13.1509402C91.6683523 16.2001709 94.5037651 17.597094 96.7232147 17.597094 99.0658569 17.597094 101.902921 16.2001709 101.902921 13.1509402L101.902921 8.5765812zM89.8201321 13.531453L89.8201321 13.531453C89.8201321 13.0241026 89.5720954 12.7687179 89.2025174 12.7687179L87.3526459 12.7687179C86.9830679 12.7687179 86.8598752 13.1509402 86.8598752 13.531453 86.6134899 14.4210256 85.8743339 14.8015385 84.8871413 14.8015385 83.5316917 14.8015385 82.6690128 14.1673504 82.6690128 12.8955556L82.6690128 8.82991453C82.6690128 7.56017094 83.5316917 6.7974359 84.8871413 6.7974359 85.8743339 6.7974359 86.3671046 7.17965812 86.7366826 7.81350427 86.9830679 8.06888889 86.9830679 8.44974359 87.3526459 8.44974359L89.2025174 8.44974359C89.5720954 8.44974359 89.8201321 8.32290598 89.8201321 7.81350427 89.5720954 5.27367521 87.2294532 4.12871795 84.8871413 4.12871795 82.5441688 4.12871795 79.708756 5.40051282 79.708756 8.5765812L79.708756 13.1509402C79.708756 16.2001709 82.5441688 17.597094 84.8871413 17.597094 87.2294532 17.597094 89.8201321 15.9464957 89.8201321 13.531453L89.8201321 13.531453zM73.5451596 3.2408547L73.5451596 3.2408547C74.0379303 3.2408547 74.1611229 2.98547009 74.5307009 2.73179487L76.3805725.572136752C76.5037651.445299145 76.5037651.0630769231 76.0109945.0630769231L73.5451596.0630769231C73.1755817.0630769231 73.052389.0630769231 72.8043523.572136752L71.4489028 2.73179487C71.3257101 2.85863248 71.3257101 3.2408547 71.6952881 3.2408547L73.5451596 3.2408547zM77.366444 14.5478632L77.366444 14.5478632 71.3257101 14.5478632 71.3257101 12.0076923 76.3805725 12.0076923C76.8733431 12.0076923 76.9965358 11.7523077 76.9965358 11.3717949L76.9965358 9.84666667C76.9965358 9.46581197 76.8733431 9.33897436 76.3805725 9.33897436L71.3257101 9.33897436 71.3257101 7.17965812 76.9965358 7.17965812C77.4896367 7.17965812 77.6128294 6.9242735 77.6128294 6.5434188L77.6128294 5.01794872C77.6128294 4.63777778 77.4896367 4.38410256 76.9965358 4.38410256L68.8598752 4.38410256C68.3671046 4.38410256 68.2439119 4.63777778 68.2439119 5.01794872L68.2439119 16.7075214C68.2439119 17.0897436 68.3671046 17.3434188 68.8598752 17.3434188L77.366444 17.3434188C77.8608661 17.3434188 77.9840587 17.0897436 77.9840587 16.7075214L77.9840587 15.0569231C77.9840587 14.8015385 77.8608661 14.5478632 77.366444 14.5478632L77.366444 14.5478632zM65.7764257 5.01794872L65.7764257 5.01794872C65.7764257 4.51094017 65.653233 4.38410256 65.1604624 4.38410256L63.0642055 4.38410256C62.5714349 4.38410256 62.5714349 4.51094017 62.5714349 5.01794872L62.5714349 7.05111111C62.5714349 7.56017094 62.5714349 7.68700855 63.0642055 7.68700855L63.6818202 7.68700855 62.4482422 9.97316239 62.4482422 10.1017094C62.4482422 10.228547 62.5714349 10.228547 62.5714349 10.228547L64.0513982 10.228547C64.2977835 10.228547 64.4209761 10.1017094 64.5441688 9.97316239L65.653233 7.68700855C65.653233 7.43299145 65.7764257 7.17965812 65.7764257 6.9242735L65.7764257 5.01794872zM62.9410128 14.5478632L62.9410128 14.5478632 57.5165725 14.5478632 57.5165725 5.01794872C57.5165725 4.51094017 57.2698569 4.38410256 56.9002789 4.38410256L55.0507376 4.38410256C54.6811596 4.38410256 54.434444 4.51094017 54.434444 5.01794872L54.434444 16.7075214C54.434444 17.0897436 54.557967 17.3434188 55.0507376 17.3434188L62.9410128 17.3434188C63.4337835 17.3434188 63.4337835 17.0897436 63.4337835 16.7075214L63.4337835 15.0569231C63.4337835 14.8015385 63.4337835 14.5478632 62.9410128 14.5478632L62.9410128 14.5478632zM47.1604624 16.7075214L47.1604624 16.7075214 44.4482422 12.6418803C45.5569761 12.2613675 47.0372697 10.862735 47.0372697 8.70307692 47.0372697 7.43299145 46.6660404 6.41692308 45.9265541 5.65418803 45.1873982 4.89145299 44.2002055 4.38410256 42.1056 4.38410256L37.4203156 4.38410256C36.9258936 4.38410256 36.8027009 4.63777778 36.8027009 5.01794872L36.8027009 16.7075214C36.8027009 17.2165812 37.0490862 17.3434188 37.4203156 17.3434188L39.2685358 17.3434188C39.6397651 17.3434188 39.7629578 17.2165812 39.7629578 16.7075214L39.7629578 7.17965812 42.3519853 7.17965812C43.3375266 7.17965812 44.0766826 7.81350427 44.0766826 8.82991453 44.0766826 9.71948718 43.2143339 10.3553846 42.2287927 10.3553846L41.857233 10.3553846C41.487655 10.3553846 41.3644624 10.6090598 41.3644624 10.9912821L41.3644624 12.5150427C41.3644624 13.1509402 41.3644624 13.2777778 41.6108477 13.531453L43.5839119 16.7075214C43.8302972 17.0897436 44.0766826 17.3434188 44.5714349 17.3434188L46.7905541 17.3434188C47.1604624 17.3434188 47.283655 16.962906 47.1604624 16.7075214L47.1604624 16.7075214zM33.7205725 4.38410256L33.7205725 4.38410256 31.8710312 4.38410256C31.5011229 4.38410256 31.2547376 4.51094017 31.2547376 5.01794872L31.2547376 12.8955556C31.2547376 14.1673504 30.5155817 14.8015385 29.2820037 14.8015385 27.9265541 14.8015385 27.1857468 14.1673504 27.1857468 12.8955556L27.1857468 5.01794872C27.1857468 4.51094017 26.9390312 4.38410256 26.6926459 4.38410256L24.7199119 4.38410256C24.4735266 4.38410256 24.2271413 4.51094017 24.2271413 5.01794872L24.2271413 13.4046154C24.2271413 16.4538462 26.9390312 17.597094 29.2820037 17.597094 31.5011229 17.597094 34.3365358 16.4538462 34.3365358 13.4046154L34.3365358 5.01794872C34.3365358 4.51094017 34.0901505 4.38410256 33.7205725 4.38410256L33.7205725 4.38410256zM19.0490862 12.8955556L19.0490862 12.8955556C19.0490862 14.1673504 18.1864073 14.8015385 16.9528294 14.8015385 15.7199119 14.8015385 14.8569028 14.1673504 14.8569028 12.8955556L14.8569028 8.82991453C14.8569028 7.56017094 15.7199119 6.7974359 16.9528294 6.7974359 18.1864073 6.7974359 19.0490862 7.56017094 19.0490862 8.82991453L19.0490862 12.8955556zM22.0076917 8.5765812L22.0076917 8.5765812C22.0076917 5.40051282 19.1722789 4.12871795 16.9528294 4.12871795 14.6101872 4.12871795 11.774444 5.40051282 11.774444 8.5765812L11.774444 13.1509402C11.774444 16.2001709 14.6101872 17.597094 16.9528294 17.597094 19.1722789 17.597094 22.0076917 16.2001709 22.0076917 13.1509402L22.0076917 8.5765812zM5.11675596 10.862735L5.11675596 10.862735 3.39073761 10.862735 3.39073761 7.17965812 5.11675596 7.17965812C6.59605872 7.17965812 7.33587523 7.94034188 7.33587523 8.95675214 7.33587523 9.97316239 6.59605872 10.862735 5.11675596 10.862735L5.11675596 10.862735zM5.23994862 4.38410256L5.23994862 4.38410256.924572477 4.38410256C.43147156 4.38410256.308278899 4.63777778.308278899 5.01794872L.308278899 16.7075214C.308278899 17.2165812.55466422 17.3434188.924572477 17.3434188L2.77411376 17.3434188C3.14402202 17.3434188 3.39073761 17.2165812 3.39073761 16.7075214L3.39073761 13.531453 5.11675596 13.531453C8.4456 13.531453 10.1716183 11.6254701 10.1716183 8.95675214 10.1716183 6.29008547 8.4456 4.38410256 5.23994862 4.38410256L5.23994862 4.38410256z" transform="translate(0 13)"/>
    <path d="M0,0 L0,7.23636313 L1.53866067,8.7963178 L53.969174,8.7963178 L53.969174,5.67674422 L3.07699164,5.67674422 L3.07699164,0 L0,0 Z M54.4610707,61.9549798 L54.4610707,65.0742176 L212.916744,65.0742176 L212.916744,72 L216,72 L216,63.5145987 L214.458702,61.9549798 L54.4610707,61.9549798 Z"/>
  </g>
</svg>
