<?xml version="1.0" encoding="UTF-8"?>
<svg width="128px" height="128px" viewBox="0 0 128 128" version="1.1" xmlns="http://www.w3.org/2000/svg" xmlns:xlink="http://www.w3.org/1999/xlink">
    <title>label-devoirs-faits</title>
    <g id="label-devoirs-faits" stroke="none" stroke-width="1" fill="none" fill-rule="evenodd">
        <path d="M128,64 C128,99.3469794 99.3469794,128 64,128 C28.6543774,128 0,99.3469794 0,64 C0,28.6530206 28.6550558,0 64,0 C99.3469794,0 128,28.6530206 128,64" id="Path" fill="#FFFFFF" fill-rule="nonzero"></path>
        <path d="M0.00135683772,64.0027137 C0.00135683772,28.6523421 28.6516637,0.00203525658 64,0.00067841886 C99.346301,0.00203525658 127.998643,28.6523421 128,64.0027137 C127.998643,99.35105 99.346301,128 64,128 C28.6523421,128 0.00135683772,99.3503715 0.00135683772,64.0027137 M20.5269194,20.5282763 C9.40220698,31.6584161 2.5216829,47.0178191 2.5216829,64.0027137 C2.5216829,80.9821809 9.40220698,96.3442976 20.5269194,107.473759 C31.6557024,118.601864 47.0171407,125.478996 64,125.478996 C80.9808241,125.478996 96.344976,118.601864 107.472402,107.473759 C118.598471,96.3442976 125.477639,80.9821809 125.477639,64.0027137 C125.477639,47.0178191 118.598471,31.6584161 107.472402,20.5282763 C96.344976,9.40220698 80.9808241,2.52439658 64,2.52439658 C47.0171407,2.52439658 31.6557024,9.40220698 20.5269194,20.5282763" id="Shape" fill="#00007E" fill-rule="nonzero"></path>
        <path d="M20.195851,64.0033921 C20.195851,39.8096187 39.8096187,20.195851 64,20.195851 C88.1924165,20.195851 107.803471,39.8096187 107.803471,64.0033921 C107.803471,88.1937734 88.1924165,107.804827 64,107.806184 C39.8096187,107.804827 20.195851,88.1937734 20.195851,64.0033921 M34.0430584,34.0444152 C26.3762469,41.7125836 21.6361343,52.3006668 21.6361343,64.0033921 C21.6361343,75.7027253 26.3762469,86.2887732 34.0430584,93.95762 C41.713262,101.627145 52.2993099,106.364544 64,106.365901 C87.3952744,106.364544 106.363866,87.4000233 106.363866,64.0033921 C106.363866,52.3006668 101.623753,41.7125836 93.9569416,34.0444152 C86.2853811,26.3769253 75.7006901,21.6354559 64,21.6354559 C52.2993099,21.6354559 41.713262,26.3762469 34.0430584,34.0444152" id="Shape" fill="#00007E" fill-rule="nonzero"></path>
        <polygon id="Path" fill="#D7000F" fill-rule="nonzero" points="17.2406585 82.235899 17.7528647 83.4448414 12.892672 85.5024858 13.8512779 87.7670479 12.7529177 88.2324433 11.2821056 84.7589387"></polygon>
        <g id="’" transform="translate(18.322968, 86.496374) rotate(63.639942) translate(-18.322968, -86.496374) translate(17.610660, 84.762205)" fill="#D7000F" fill-rule="nonzero">
            <path d="M0,2.84257319 C0.244092936,2.80263071 0.429381665,2.66505106 0.555866187,2.42983423 C0.682350708,2.1946174 0.745592969,1.92389614 0.745592969,1.61767046 C0.745592969,1.58660409 0.744483455,1.55886625 0.742264429,1.53445696 C0.740045402,1.51004766 0.734497835,1.48230983 0.725621729,1.45124346 L0,1.45124346 L0,3.63797881e-12 L1.42461514,3.63797881e-12 L1.42461514,1.3380731 C1.42461514,1.90614393 1.30700672,2.38878223 1.07178989,2.78598801 C0.836573063,3.18319379 0.479309766,3.41064403 0,3.46833872 L0,2.84257319 Z" id="Path"></path>
        </g>
        <path d="M19.9902901,88.1693503 L21.9129292,91.4142277 L20.9746759,91.9698528 L19.7209578,89.8545428 L18.4014332,90.6360813 L19.4665508,92.4338913 L18.5276191,92.9901947 L17.4625015,91.1923847 L16.0310377,92.0417652 L17.2847557,94.1563967 L16.3465024,94.7127002 L14.4238634,91.4678228 L19.9902901,88.1693503 Z M21.1178223,88.9841314 L22.7236397,89.2466795 L23.4115564,90.4074541 L21.726364,90.0099007 L21.1178223,88.9841314 Z" id="Shape" fill="#D7000F" fill-rule="nonzero"></path>
        <path d="M21.7148309,98.8212048 L21.7060114,100.126483 C20.7073789,100.14073 19.7141737,99.6875457 19.0059044,98.7520061 C17.7725389,97.1238008 18.1816254,95.0620859 19.6551512,93.9447301 C21.128677,92.828731 23.2236344,92.99223 24.4576783,94.6197568 C25.1673045,95.5559749 25.3274113,96.6400882 25.0587574,97.5858041 L23.7928278,97.2465947 C23.9888909,96.6339824 23.9244411,95.9521715 23.4780415,95.3626255 C22.7412786,94.3897728 21.4570317,94.2730848 20.4699323,95.0207024 C19.4828328,95.7696768 19.2487783,97.0362848 19.9862196,98.008459 C20.4326192,98.598005 21.0716898,98.8442711 21.7148309,98.8212048 Z" id="Path" fill="#D7000F" fill-rule="nonzero"></path>
        <path d="M28.7235761,104.31097 C27.4155846,105.617605 25.317235,105.740399 23.878987,104.302829 C22.4353117,102.857119 22.5608192,100.758769 23.8681323,99.4521344 C25.1761239,98.1454996 27.2744734,98.0227058 28.7174703,99.4670596 C30.1557183,100.905308 30.0315677,103.003657 28.7235761,104.31097 Z M27.7697192,103.355756 C28.6455579,102.480596 28.7052588,101.192957 27.8490942,100.336793 C26.9868238,99.4738438 25.6985064,99.5315094 24.8226677,100.407348 C23.9461505,101.282508 23.8871281,102.570147 24.7500769,103.433775 C25.605563,104.289261 26.893202,104.231595 27.7697192,103.355756 Z" id="Shape" fill="#D7000F" fill-rule="nonzero"></path>
        <polygon id="Path" fill="#D7000F" fill-rule="nonzero" points="31.8951843 102.656985 32.9277378 103.467696 29.6672567 107.618941 31.6014289 109.137242 30.864666 110.074817 27.8986188 107.745127"></polygon>
        <polygon id="Path" fill="#D7000F" fill-rule="nonzero" points="35.6997573 105.551798 38.8808633 107.577557 38.2953878 108.497493 36.2207829 107.176612 35.3958256 108.471035 37.1583578 109.593139 36.5728823 110.512397 34.8103501 109.390292 33.9161941 110.794619 35.9907989 112.114822 35.4053235 113.03408 32.2242174 111.008321"></polygon>
        <path d="M42.1535559,109.358407 L44.497493,110.343471 C46.3889248,111.138578 47.0910883,113.04697 46.4140263,114.657536 C45.7369643,116.268781 43.8821671,117.103236 41.9900569,116.308808 L39.6467982,115.323744 L42.1535559,109.358407 Z M42.9018519,110.966259 L41.3191007,114.732841 L42.4696991,115.216553 C43.5775571,115.682627 44.7254418,115.192809 45.1698061,114.135154 C45.6175626,113.070036 45.1596298,111.916046 44.0524503,111.449972 L42.9018519,110.966259 Z" id="Shape" fill="#D7000F" fill-rule="nonzero"></path>
        <polygon id="Path" fill="#D7000F" fill-rule="nonzero" points="48.7233641 111.94861 52.3535834 112.975058 52.056436 114.024571 49.690111 113.35565 49.2728834 114.833247 51.2830385 115.401762 50.985891 116.451276 48.9757359 115.882761 48.5225521 117.483829 50.8888771 118.15275 50.5917297 119.202264 46.9621887 118.175816"></polygon>
        <polygon id="Path" fill="#D7000F" fill-rule="nonzero" points="56.065213 113.697574 57.3670988 113.865143 56.6934289 119.100501 59.1323447 119.414609 58.9803789 120.597093 55.2388988 120.115416"></polygon>
        <path d="M62.6920084,114.293225 L64.4118002,114.321041 L66.7557374,120.831148 L65.3602298,120.80876 L64.7679701,119.116783 L62.1798022,119.074043 L61.5339474,120.746346 L60.1377614,120.723958 L62.6920084,114.293225 Z M64.380593,117.991287 L63.5325694,115.546265 L62.6051708,117.962793 L64.380593,117.991287 Z" id="Shape" fill="#D7000F" fill-rule="nonzero"></path>
        <path d="M75.287533,117.744342 L76.4401666,118.356276 C75.9896965,119.247718 75.1267477,119.917318 73.9686867,120.112024 C71.9537827,120.449877 70.316758,119.130352 70.0114695,117.306762 C69.7055026,115.483172 70.8221801,113.702323 72.8370841,113.36447 C73.9951451,113.171121 75.0304122,113.531361 75.7441089,114.207745 L74.8553802,115.172456 C74.4035532,114.714523 73.7692316,114.454689 73.0399313,114.577483 C71.8370947,114.779652 71.1369664,115.862408 71.3418489,117.082884 C71.5467314,118.304716 72.561646,119.100501 73.7644827,118.898333 C74.4951398,118.776217 75.0100597,118.32439 75.287533,117.744342 Z" id="Path" fill="#D7000F" fill-rule="nonzero"></path>
        <path d="M83.410242,114.065955 C83.9651886,115.830522 83.1049535,117.748413 81.1646756,118.357633 C79.2155782,118.970245 77.4130193,117.890881 76.8573942,116.126313 C76.3038044,114.363102 77.1633611,112.445212 79.1124585,111.831922 C81.0527365,111.222023 82.8559738,112.302744 83.410242,114.065955 Z M82.122603,114.470971 C81.7508295,113.289165 80.6368657,112.641954 79.4815184,113.004908 C78.3173516,113.371254 77.7732597,114.54017 78.1450332,115.721297 C78.5168068,116.903103 79.6307705,117.550314 80.7949373,117.184647 C81.9502846,116.821692 82.4943765,115.652777 82.122603,114.470971 Z" id="Shape" fill="#D7000F" fill-rule="nonzero"></path>
        <polygon id="Path" fill="#D7000F" fill-rule="nonzero" points="83.3675016 110.570741 84.8803757 109.834657 89.5289017 112.774924 87.482112 108.568727 88.6618824 107.994106 91.4929243 113.812905 89.9807287 114.548989 85.3328811 111.608722 87.3789923 115.81424 86.1985435 116.38954"></polygon>
        <polygon id="Path" fill="#D7000F" fill-rule="nonzero" points="90.036359 107.12166 93.201183 105.070799 93.7941211 105.985986 91.7310493 107.323828 92.5648261 108.610789 94.3178604 107.475116 94.9114769 108.390981 93.1584426 109.526654 94.6563914 111.838706 93.5546392 112.553081"></polygon>
        <polygon id="Path" fill="#D7000F" fill-rule="nonzero" points="94.0302108 104.412055 95.0729406 103.613556 99.0043779 108.753257 97.9616481 109.551756"></polygon>
        <path d="M97.6204034,101.477893 L98.8788704,100.306942 L105.079619,103.378144 L104.057242,104.328609 L102.458208,103.517899 L100.562028,105.280431 L101.254015,106.934416 L100.231638,107.884881 L97.6204034,101.477893 Z M101.39784,102.97652 L99.0939292,101.800142 L100.097989,104.184784 L101.39784,102.97652 Z" id="Shape" fill="#D7000F" fill-rule="nonzero"></path>
        <polygon id="Path" fill="#D7000F" fill-rule="nonzero" points="101.190243 98.0518778 102.251969 96.7459215 107.705778 97.4535124 104.077594 94.5017119 104.905944 93.4834052 109.924886 97.5668084 108.863839 98.8720862 103.41003 98.1651738 107.038214 101.116296 106.209865 102.135281"></polygon>
        <path d="M112.040875,90.6075877 L113.25728,90.1340513 C113.63923,91.0560226 113.583599,92.1469201 112.976414,93.15098 C111.918081,94.8992654 109.851617,95.2798584 108.269544,94.3232878 C106.687472,93.3660388 106.06604,91.357919 107.123695,89.610312 C107.731558,88.6062521 108.679309,88.0560544 109.658268,87.9563268 L109.810912,89.258891 C109.168449,89.3023098 108.558551,89.6137041 108.175922,90.2466689 C107.543636,91.2907555 107.907947,92.5275131 108.968316,93.1686189 C110.028684,93.8097247 111.292579,93.5587097 111.924187,92.5146231 C112.306815,91.8809799 112.300031,91.1971337 112.040875,90.6075877 Z" id="Path" fill="#D7000F" fill-rule="nonzero"></path>
        <polygon id="Path" fill="#D7000F" fill-rule="nonzero" points="109.079576 86.4638053 110.641297 83.0303274 111.634502 83.4821544 110.616195 85.7202582 112.013738 86.3559367 112.878722 84.4543286 113.871249 84.9054772 113.006265 86.8070852 114.521174 87.4970372 115.538802 85.2589334 116.532008 85.7100819 114.970287 89.1435598"></polygon>
        <path d="M16.4916841,33.2235284 L15.9482706,31.3341319 L17.073089,29.6672567 L17.503885,31.7235443 L16.4916841,33.2235284 Z M16.229136,34.8110285 L18.9285646,30.8117494 L20.2901513,31.7303285 L18.7026511,34.0817283 L19.8417164,34.8503768 L21.17888,32.8693938 L22.5397882,33.7879729 L21.2026246,35.768956 L22.4610916,36.6190148 L24.0485918,34.267615 L25.4095,35.1861942 L22.7100713,39.1854734 L16.229136,34.8110285 Z" id="Shape" fill="#00007E" fill-rule="nonzero"></path>
        <path d="M26.0763857,33.7479462 C25.7582073,33.7364131 25.4671656,33.6285445 25.2575342,33.4440145 C24.9142542,33.1414397 24.74872,32.7873051 24.7860331,32.2554247 C24.1849539,32.3802538 23.6042274,32.2120059 23.1347615,31.7981704 C22.2969143,31.0600507 22.2046493,29.8626414 23.1788588,28.7561402 C23.4814336,28.4121819 23.8063962,28.1625237 24.1293236,28.0153068 L25.4651303,26.4983623 L26.5797725,27.4800343 L25.9970107,28.1421712 C26.0716368,28.1930526 26.1388003,28.252075 26.2066421,28.3117759 C27.0533089,29.0573582 27.1530365,30.245948 26.1557607,31.3775507 C26.0824915,31.4616746 26.0160064,31.5369791 25.940702,31.604821 C25.9474861,31.6991212 25.9834423,31.7757826 26.0417864,31.8280208 C26.1923953,31.9609909 26.3240086,31.9128232 26.4427319,31.7784962 L27.2914339,30.814463 C28.1916957,29.7920858 29.3416157,29.7032129 30.1462205,30.4121607 C31.1190731,31.2690037 31.1000774,32.8442923 29.9114875,34.1943458 C28.6564126,35.6197038 27.5173474,36.0002968 26.5946977,35.1882294 C26.1835759,34.8252753 26.0261827,34.3286727 26.0763857,33.7479462 Z M25.1645908,29.4929031 C24.8213108,29.1903283 24.4468236,29.2771659 24.159174,29.6041638 C23.8715244,29.9311617 23.8477798,30.3124331 24.1829187,30.6075453 C24.526877,30.9101201 24.9027211,30.8388861 25.1896923,30.5118882 C25.4780203,30.1848903 25.5085491,29.7947995 25.1645908,29.4929031 Z M28.8484052,33.2872998 C29.4467706,32.6082025 29.4555901,32.1251683 29.1367332,31.8443029 C28.8857182,31.6231383 28.5702535,31.6428125 28.2744628,31.9779514 L27.2554777,33.1346555 C27.215451,33.3829568 27.2846497,33.5919099 27.4861401,33.7696556 C27.813138,34.0573052 28.2581808,33.9575776 28.8484052,33.2872998 Z" id="Shape" fill="#00007E" fill-rule="nonzero"></path>
        <path d="M28.8294095,28.8504404 C28.2581808,28.2079778 28.3124543,27.2771871 29.0960281,26.3104402 L30.1028017,25.0553653 C29.8124384,24.7460063 29.3219415,24.74872 28.9298154,25.0981057 C28.5783945,25.4101784 28.4684906,25.8070534 28.5214073,26.253453 L26.8999862,26.3809958 C26.8077213,25.505157 27.1686401,24.6157499 27.9528923,23.9183353 C29.2880206,22.7304239 30.6184,22.9821173 31.4352163,23.900018 L33.7961139,26.5533142 L32.4786245,27.7263004 L32.1970807,27.4094788 C32.1930102,27.876231 31.8809375,28.4834158 31.4392868,28.8768988 C30.5885496,29.6333358 29.5580313,29.6679352 28.8294095,28.8504404 Z M30.8185336,27.5892598 C31.2439022,27.2107021 31.3327751,26.7731219 31.2771447,26.3742116 L30.9053712,25.956984 L30.2059213,26.8335012 C29.9148796,27.1964553 29.9094523,27.4257608 30.0804138,27.6177534 C30.2737632,27.8348474 30.5593776,27.8192438 30.8185336,27.5892598 Z" id="Shape" fill="#00007E" fill-rule="nonzero"></path>
        <polygon id="Path" fill="#00007E" fill-rule="nonzero" points="29.8626414 19.0710326 31.2947836 18.0215186 36.2465629 24.7785704 34.8144206 25.8280844"></polygon>
        <path d="M33.1746823,17.942822 C32.8497196,17.4340079 33.0064344,16.7250602 33.5247464,16.3939918 C34.0227058,16.0751349 34.7330104,16.2318496 35.057973,16.7399854 C35.3829356,17.2481211 35.2323267,17.9672451 34.7330104,18.2854235 C34.2146984,18.6164919 33.4989665,18.4502793 33.1746823,17.942822 Z M34.301536,19.2901619 L35.798128,18.3342697 L38.8293035,23.0777744 L37.3327114,24.0336665 L34.301536,19.2901619 Z" id="Shape" fill="#00007E" fill-rule="nonzero"></path>
        <path d="M38.3869744,18.6382013 L37.4595758,19.1307334 L36.7153503,17.7297985 L37.6427489,17.2372664 L36.9819689,15.994403 L38.5606496,15.1565558 L39.2207511,16.3994191 L40.5823378,15.6762246 L41.3265633,17.0771595 L39.9649766,17.7996756 L40.8340312,19.4373788 C41.044341,19.8322185 41.3659116,19.9394087 41.7811039,19.719601 C42.1460933,19.5255732 42.3570815,19.3505411 42.4737696,19.2128221 L43.1915367,20.5642325 C42.9880111,20.8240669 42.7132514,21.0452315 42.2492129,21.2914975 C40.898481,22.0092647 39.9059542,21.4990937 39.2567073,20.2752261 L38.3869744,18.6382013 Z" id="Path" fill="#00007E" fill-rule="nonzero"></path>
        <path d="M46.6582571,19.4489119 C44.7369749,20.2107763 43.2044267,19.3166202 42.5999555,17.7901778 C41.9988764,16.27459 42.4249234,14.5914328 44.1996672,13.8872341 C45.6840476,13.2983665 47.05174,13.8980888 47.6161845,15.3200547 C47.7559388,15.6735109 47.8353138,16.0262887 47.8577016,16.2338849 L44.47307,17.5764758 C44.9086149,18.2202953 45.4398168,18.2264011 46.0626053,17.9794566 C46.5605648,17.7813583 46.9194484,17.41162 47.0381717,17.0161018 L48.5680062,17.4787835 C48.3285243,18.3301992 47.6650307,19.0493232 46.6582571,19.4489119 Z M43.3089032,13.519531 L43.6942451,11.3723354 L45.4601694,10.6722071 L44.8767292,12.8980994 L43.3089032,13.519531 Z M44.0219214,16.408917 L45.9018201,15.6640131 C45.7410348,15.3186979 45.2980273,14.9896647 44.6854151,15.2325387 C44.1555699,15.4428485 43.9371191,15.8302257 44.0219214,16.408917 Z" id="Shape" fill="#00007E" fill-rule="nonzero"></path>
        <path d="M53.9424404,11.0690821 C54.6235729,10.9449315 55.1296734,11.0466943 55.5638615,11.308564 L55.0190911,8.30859578 L56.7782312,7.98973891 L58.2734664,16.2318496 L56.5150047,16.5513849 L56.4607312,16.2542375 C56.1473017,16.6517909 55.7083647,16.9238369 55.0272322,17.0479875 C53.2687705,17.3668444 51.9865588,16.1809682 51.6934819,14.5649745 C51.3997265,12.9496592 52.1833003,11.3886174 53.9424404,11.0690821 Z M54.9824565,15.3641519 C55.5211211,15.2664596 55.8990004,14.970669 56.1418743,14.4957758 L55.8820399,13.0670257 C55.4878786,12.7074637 55.0299458,12.5629605 54.4912813,12.6606528 C53.7219543,12.8004071 53.3583218,13.4225171 53.5062171,14.2359414 C53.6541124,15.0493656 54.2131295,15.5039062 54.9824565,15.3641519 Z" id="Shape" fill="#00007E" fill-rule="nonzero"></path>
        <path d="M62.2897061,16.2304928 C60.224599,16.3200441 59.0706086,14.9733827 58.9986962,13.3329659 C58.9281406,11.7040822 59.8826759,10.2529442 61.7897114,10.1701771 C63.3860309,10.1003 64.4816774,11.1152146 64.547484,12.6436923 C64.5637661,13.0236069 64.5237394,13.3824904 64.4769285,13.5860161 L60.8392465,13.7440877 C61.0400585,14.4950974 61.5393748,14.6748784 62.2096526,14.6457064 C62.7449251,14.6226401 63.2048931,14.3899424 63.4470886,14.0548035 L64.7394766,14.9937352 C64.2354113,15.7210002 63.3711057,16.1830035 62.2897061,16.2304928 Z M60.7958277,12.4944401 L62.8161591,12.4069241 C62.7768108,12.0283664 62.466095,11.5724689 61.8080287,11.6009625 C61.2388352,11.6253856 60.9057316,11.9198194 60.7958277,12.4944401 Z" id="Shape" fill="#00007E" fill-rule="nonzero"></path>
        <path d="M66.466731,14.1070418 C66.7414906,14.5181636 67.0969821,14.8790824 67.5990121,14.9130034 C67.921261,14.9347128 68.0888305,14.7786764 68.1037557,14.5561551 C68.1566724,13.7868281 65.5400108,13.9197982 65.6750162,11.9476345 C65.7489638,10.877768 66.7055344,10.171534 67.942292,10.2570147 C68.833056,10.3180724 69.6505507,10.8106045 70.0358926,11.3865821 L68.8059192,12.3424743 C68.5596532,12.0120843 68.2455452,11.6878001 67.8452781,11.6606634 C67.532527,11.638954 67.3778475,11.7854924 67.3642791,11.9747713 C67.3140761,12.6986442 69.9300593,12.5880619 69.7950539,14.5493709 C69.6858285,15.8180141 68.6044288,16.3933133 67.5230291,16.3180088 C66.4429863,16.2440612 65.7584617,15.7705248 65.2347223,15.0860002 L66.466731,14.1070418 Z" id="Path" fill="#00007E" fill-rule="nonzero"></path>
        <path d="M77.595514,15.8315825 L78.6891252,17.181636 C78.0147768,17.7291201 77.0975545,17.9516415 76.0887457,17.7040186 C74.1579656,17.2298038 73.3845681,15.6022769 73.7760158,14.0079926 C74.1681419,12.4130299 75.6077467,11.329595 77.5392052,11.8038097 C78.5473356,12.0514326 79.2562833,12.6742211 79.6009201,13.4720417 L78.0052789,14.1619937 C77.879093,13.8316037 77.5968708,13.5317426 77.1192639,13.4143761 C76.4137083,13.2407009 75.7631046,13.6450385 75.5656847,14.447608 C75.3655512,15.2610323 75.7583557,15.9089223 76.4964754,16.0907385 C76.9313419,16.1972503 77.331609,16.065637 77.595514,15.8315825 Z" id="Path" fill="#00007E" fill-rule="nonzero"></path>
        <path d="M82.1029289,10.4510425 L83.7582709,11.0935052 L82.6510913,13.9469349 C83.1076672,13.7881849 83.6259792,13.749515 84.2399483,13.9883185 C85.3545905,14.4211497 85.9678811,15.5575013 85.3491631,17.1504288 L84.1524322,20.2331641 L82.4869139,19.5866309 L83.6551512,16.5764864 C83.8613905,16.0459629 83.7223147,15.5724265 83.1904343,15.3661872 C82.6076725,15.1395953 82.1687355,15.4964436 81.9964171,15.6341626 L80.7270954,18.9034631 L79.071075,18.2610005 L82.1029289,10.4510425 Z" id="Path" fill="#00007E" fill-rule="nonzero"></path>
        <path d="M85.7012625,19.2087516 C86.115098,18.4557067 87.0106109,18.1945154 88.1835971,18.6103862 L89.7025769,19.1388745 C89.8972831,18.7616736 89.7303921,18.3003487 89.2697457,18.0472985 C88.8586239,17.8220635 88.4481805,17.8512355 88.0445212,18.0500122 L87.3823844,16.5649533 C88.1774913,16.1857172 89.1354188,16.2284576 90.0553547,16.7338796 C91.6218239,17.5947931 91.8294201,18.9326351 91.2371604,20.0092859 L89.5268664,23.12255 L87.9800714,22.2718128 L88.1849539,21.9000392 C87.7439817,22.0533619 87.0682765,21.9617753 86.5486077,21.676161 C85.5520103,21.1273201 85.174131,20.1673575 85.7012625,19.2087516 Z M87.5540244,20.660568 C88.0533407,20.9346492 88.4963482,20.8729131 88.8531965,20.6863479 L89.1218504,20.1965295 L88.0614817,19.8308617 C87.6232231,19.6782175 87.4047723,19.7501299 87.2813,19.9753649 C87.1415457,20.229772 87.2514496,20.4936769 87.5540244,20.660568 Z" id="Shape" fill="#00007E" fill-rule="nonzero"></path>
        <path d="M93.8714608,19.2135005 L95.3015678,20.2650498 L95.1170379,20.5167432 C95.5993937,20.4835006 96.1095646,20.581193 96.6407666,20.9719622 C97.6041214,21.6795531 97.8992336,22.9366632 96.8870327,24.3138535 L94.9284374,26.977326 L93.4888326,25.9189925 L95.3999385,23.3179346 C95.7377911,22.8586451 95.726258,22.366113 95.2676468,22.0282604 C94.7635816,21.6578437 94.2473049,21.8891845 94.0444576,21.9753437 L91.9664607,24.8009583 L90.5363537,23.749409 L93.8714608,19.2135005 Z" id="Path" fill="#00007E" fill-rule="nonzero"></path>
        <path d="M99.898534,28.9542385 L100.176007,30.6699598 C99.3184859,30.8090357 98.4114398,30.5464876 97.6597517,29.8300773 C96.2208253,28.4576359 96.3599012,26.6605044 97.4928607,25.4719145 C98.6258202,24.2833247 100.414811,24.0594465 101.853737,25.4318878 C102.604747,26.1489765 102.910714,27.0410973 102.811665,27.9047246 L101.085089,27.7100183 C101.14004,27.3599542 101.043705,26.9603655 100.688214,26.6211561 C100.163117,26.1204829 99.3971824,26.1469413 98.8273106,26.7446283 C98.2486193,27.3518132 98.2669366,28.1089286 98.8164559,28.632668 C99.1400617,28.9406702 99.5518619,29.0254725 99.898534,28.9542385 Z" id="Path" fill="#00007E" fill-rule="nonzero"></path>
        <path d="M101.452113,33.9745381 C100.137337,32.3802538 100.516574,30.647572 101.783182,29.602807 C103.04097,28.5648261 104.773652,28.452887 105.9887,29.9257343 C107.00565,31.157743 106.855041,32.6434803 105.675949,33.6170114 C105.382194,33.8592069 105.071478,34.0437368 104.880842,34.1278608 L102.562685,31.3192067 C102.083721,31.9324973 102.241114,32.4385978 102.66784,32.955553 C103.009763,33.3693885 103.471088,33.5966588 103.884923,33.5891962 L103.914774,35.1861942 C103.031472,35.2207935 102.142744,34.8096717 101.452113,33.9745381 Z M103.535537,30.5322408 L104.822498,32.0919258 C105.101328,31.8327698 105.277717,31.3103872 104.858454,30.8015731 C104.496179,30.3626361 104.059955,30.2724064 103.535537,30.5322408 Z" id="Shape" fill="#00007E" fill-rule="nonzero"></path>
        <path d="M105.644742,36.0064026 C105.481921,36.4731548 105.407974,36.9738279 105.682733,37.3958044 C105.859122,37.6664935 106.085036,37.7065202 106.271601,37.5844048 C106.918134,37.1637852 105.237012,35.1529517 106.893032,34.0749441 C107.791937,33.490147 108.93236,33.8279996 109.608065,34.8666589 C110.095848,35.6156333 110.19354,36.5654197 109.965591,37.2200939 L108.461537,36.8130426 C108.577546,36.416846 108.646745,35.9718032 108.427616,35.6353075 C108.257333,35.3727594 108.046344,35.3368032 107.887594,35.4406012 C107.279731,35.8361194 108.942536,37.8584861 107.293978,38.9310663 C106.215292,39.6081283 105.10472,39.0898163 104.513817,38.1820919 C103.922915,37.2743674 103.888994,36.4433043 104.121691,35.6122412 L105.644742,36.0064026 Z" id="Path" fill="#00007E" fill-rule="nonzero"></path>
        <g id="Group" transform="translate(41.509058, 74.277367)" fill="#00007E" fill-rule="nonzero">
            <path d="M0,0.189957281 L2.66075877,0.189957281 C4.78013929,0.189957281 6.22517146,1.72047023 6.22517146,3.51624495 C6.22517146,5.31201967 4.78013929,6.8418542 2.66075877,6.8418542 L0,6.8418542 L0,0.189957281 Z M1.69197664,1.72047023 L1.69197664,5.31269809 L2.67025663,5.31269809 C3.7157001,5.31269809 4.47552922,4.54269269 4.47552922,3.51692337 C4.47552922,2.48097777 3.7157001,1.72114865 2.67025663,1.72114865 L1.69197664,1.72114865 L1.69197664,1.72047023 Z" id="Shape"></path>
            <polygon id="Path" points="7.49449315 0.189957281 11.5996057 0.189957281 11.5996057 1.58750013 9.18511295 1.58750013 9.18511295 2.75641583 11.2190127 2.75641583 11.2190127 4.15395868 9.18511295 4.15395868 9.18511295 5.44566819 11.5996057 5.44566819 11.5996057 6.84321104 7.49449315 6.84321104"></polygon>
            <polygon id="Path" points="14.1993067 0.189957281 15.9190986 4.93210511 17.6395688 0.189957281 19.4346651 0.189957281 17.0208508 6.84253262 14.8166679 6.84253262 12.4021752 0.189957281"></polygon>
            <path d="M26.8158623,3.51692337 C26.8158623,5.4171746 25.3708301,7.03316832 23.2616259,7.03316832 C21.1422454,7.03316832 19.6978916,5.4171746 19.6978916,3.51692337 C19.6978916,1.61599372 21.1422454,1.92818237e-14 23.2616259,1.92818237e-14 C25.3708301,1.92818237e-14 26.8158623,1.61599372 26.8158623,3.51692337 Z M25.0770747,3.51692337 C25.0770747,2.39549699 24.3165672,1.58750013 23.2616259,1.58750013 C22.1978651,1.58750013 21.4373576,2.40431644 21.4373576,3.51692337 C21.4373576,4.63767133 22.1978651,5.44566819 23.2616259,5.44566819 C24.3165672,5.44566819 25.0770747,4.62817346 25.0770747,3.51692337 Z" id="Shape"></path>
            <polygon id="Path" points="28.0845055 0.189957281 29.7764822 0.189957281 29.7764822 6.84253262 28.0845055 6.84253262"></polygon>
            <path d="M31.617711,0.189957281 L33.8510659,0.189957281 C35.4100724,0.189957281 36.3693567,0.959962687 36.3693567,2.26184848 C36.3693567,3.06984534 35.9887637,3.67838706 35.3239132,4.02031016 L37.3578129,6.84253262 L35.3809004,6.84253262 L33.7085979,4.32424181 L33.3096876,4.32424181 L33.3096876,6.84253262 L31.617711,6.84253262 L31.617711,0.189957281 Z M33.3096876,1.58750013 L33.3096876,2.92737738 L33.9555424,2.92737738 C34.3829462,2.92737738 34.6298907,2.65193932 34.6298907,2.24353117 C34.6298907,1.86293819 34.3829462,1.58750013 33.9555424,1.58750013 L33.3096876,1.58750013 L33.3096876,1.58750013 Z" id="Shape"></path>
            <path d="M38.7227917,4.78013929 C39.0748911,5.24621304 39.5972736,5.55014469 40.0816647,5.55014469 C40.4717555,5.55014469 40.7092021,5.37918314 40.7092021,4.99859016 C40.7092021,3.98231871 37.7825032,4.31474395 37.7825032,2.03389974 C37.7825032,0.921971231 38.7139722,1.92818237e-14 40.0633474,1.92818237e-14 C41.1182887,1.92818237e-14 41.935105,0.456575893 42.5531446,1.14110052 L41.3265633,2.26184848 C40.9371509,1.80595101 40.5192448,1.47352576 40.0721668,1.47352576 C39.7302437,1.47352576 39.4927971,1.68247877 39.4927971,1.95791683 C39.4927971,2.94637311 42.4194961,2.61394787 42.4194961,4.94160298 C42.4005003,6.27198236 41.3557353,7.0324899 40.1006604,7.0324899 C38.8747575,7.0324899 38.1054305,6.6044076 37.4968888,5.91106353 L38.7227917,4.78013929 Z" id="Path"></path>
        </g>
        <g id="Group" transform="translate(51.168386, 85.675483)" fill="#00007E" fill-rule="nonzero">
            <polygon id="Path" points="9.64091186e-15 0.189278862 4.10579094 0.189278862 4.10579094 1.58682171 1.69197664 1.58682171 1.69197664 2.75573741 3.72519796 2.75573741 3.72519796 4.15328026 1.69197664 4.15328026 1.69197664 6.84253262 9.64091186e-15 6.84253262"></polygon>
            <path d="M6.28894283,0.189278862 L8.49380413,0.189278862 L10.9076184,6.8418542 L9.11184371,6.8418542 L8.56978704,5.2733498 L6.21295992,5.2733498 L5.67158167,6.8418542 L3.87512853,6.8418542 L6.28894283,0.189278862 Z M8.07454127,3.84867019 L7.39069506,1.89075336 L6.70617043,3.84867019 L8.07454127,3.84867019 Z" id="Shape"></path>
            <polygon id="Path" points="11.8825063 0.189278862 13.5738046 0.189278862 13.5738046 6.8418542 11.8825063 6.8418542"></polygon>
            <polygon id="Path" points="14.7596807 0.189278862 20.3281427 0.189278862 20.3281427 1.71979181 18.3899 1.71979181 18.3899 6.8418542 16.6986018 6.8418542 16.6986018 1.71979181 14.7603591 1.71979181 14.7603591 0.189278862"></polygon>
            <path d="M21.9875553,4.77946087 C22.3396546,5.24553463 22.8620372,5.54946628 23.3464282,5.54946628 C23.7365191,5.54946628 23.9739657,5.37850472 23.9739657,4.99791174 C23.9739657,3.98164029 21.0472667,4.31406553 21.0472667,2.03322132 C21.0472667,0.921292812 21.9787358,0 23.3281109,0 C24.3830522,0 25.1998686,0.455897474 25.8179081,1.1404221 L24.5913268,2.26117006 C24.2019144,1.80527259 23.7840084,1.47284735 23.3369304,1.47284735 C22.9950073,1.47284735 22.7575607,1.68180035 22.7575607,1.95723841 C22.7575607,2.94569469 25.6842596,2.61326945 25.6842596,4.94092456 C25.6652639,6.27130394 24.6204988,7.03181148 23.365424,7.03181148 C22.1395211,7.03181148 21.3701941,6.60372918 20.7616524,5.91038511 L21.9875553,4.77946087 Z" id="Path"></path>
        </g>
        <path d="M61.9796686,68.8690122 C61.7286537,68.8690122 61.5068107,68.6960153 61.4505019,68.4463572 C61.2720778,67.8188198 57.48243,64.3107158 52.7613132,64.3107158 L43.5422793,64.3107158 C43.2424181,64.3107158 42.9995442,64.0678419 42.9995442,63.7679807 L42.9995442,39.9751529 C42.9995442,39.6752918 43.2417397,39.4324178 43.5422793,39.4324178 L54.1561423,39.4324178 C58.7693906,39.4324178 62.5224037,43.185431 62.5224037,47.7986792 L62.5224037,68.3262771 C62.5224037,68.603072 62.3141291,68.8350912 62.0393695,68.8656201 C62.0190169,68.8683337 61.9986644,68.8690122 61.9796686,68.8690122 Z M44.0850144,63.2252457 L52.7613132,63.2252457 C56.4994011,63.2252457 59.8019441,65.1967309 61.4369335,66.7523453 L61.4369335,47.7986792 C61.4369335,43.7844748 58.1710252,40.517888 54.1561423,40.517888 L44.0850144,40.517888 L44.0850144,63.2252457 L44.0850144,63.2252457 Z" id="Shape" fill="#00007E" fill-rule="nonzero"></path>
        <path d="M62.1906569,68.8561222 C62.1675907,68.8561222 62.143846,68.8540869 62.1201013,68.8506948 C61.8514475,68.8140602 61.6479218,68.5969662 61.6479218,68.3262771 L61.6479218,47.7986792 C61.6479218,43.185431 65.4016134,39.4324178 70.0148616,39.4324178 L80.6280463,39.4324178 C80.927229,39.4324178 81.1707813,39.6752918 81.1707813,39.9751529 L81.1707813,63.7679807 C81.1707813,64.0671635 80.9279074,64.3107158 80.6280463,64.3107158 L71.4096908,64.3107158 C66.6865387,64.3107158 62.8948557,67.8222119 62.7198236,68.4470356 C62.654017,68.6851606 62.4328524,68.8561222 62.1906569,68.8561222 Z M70.0148616,40.517888 C65.9999788,40.517888 62.733392,43.7837964 62.733392,47.7986792 L62.733392,66.7523453 C64.3690599,65.1967309 67.6716029,63.2252457 71.4096908,63.2252457 L80.0853112,63.2252457 L80.0853112,40.517888 L70.0148616,40.517888 L70.0148616,40.517888 Z" id="Shape" fill="#00007E" fill-rule="nonzero"></path>
        <path d="M47.4024826,64.3107158 C47.1032999,64.3107158 46.8604259,64.0678419 46.8604259,63.7679807 L46.8604259,40.7288763 C46.8604259,40.4290151 47.1026215,40.1861412 47.4024826,40.1861412 C47.7023437,40.1861412 47.9458961,40.4290151 47.9458961,40.7288763 L47.9458961,63.7679807 C47.9458961,64.0671635 47.7030221,64.3107158 47.4024826,64.3107158 Z" id="Path" fill="#00007E" fill-rule="nonzero"></path>
        <path d="M66.6621156,65.0332319 C66.3629329,65.0332319 66.1193805,64.790358 66.1193805,64.4904968 L66.1193805,40.7288763 C66.1193805,40.4290151 66.3622545,40.1861412 66.6621156,40.1861412 C66.9619767,40.1861412 67.2048507,40.4290151 67.2048507,40.7288763 L67.2048507,64.4904968 C67.2048507,64.790358 66.9612983,65.0332319 66.6621156,65.0332319 Z" id="Path" fill="#00007E" fill-rule="nonzero"></path>
        <path d="M56.2354961,46.4744056 L47.4024826,46.4744056 C47.1032999,46.4744056 46.8604259,46.2315316 46.8604259,45.9316705 C46.8604259,45.6318094 47.1026215,45.3889354 47.4024826,45.3889354 L56.2354961,45.3889354 C56.5346789,45.3889354 56.7782312,45.6318094 56.7782312,45.9316705 C56.7782312,46.2315316 56.5346789,46.4744056 56.2354961,46.4744056 Z" id="Path" fill="#00007E" fill-rule="nonzero"></path>
        <path d="M56.2354961,52.2328249 L47.4024826,52.2328249 C47.1032999,52.2328249 46.8604259,51.9899509 46.8604259,51.6900898 C46.8604259,51.3902286 47.1026215,51.1473547 47.4024826,51.1473547 L56.2354961,51.1473547 C56.5346789,51.1473547 56.7782312,51.3902286 56.7782312,51.6900898 C56.7782312,51.9899509 56.5346789,52.2328249 56.2354961,52.2328249 Z" id="Path" fill="#00007E" fill-rule="nonzero"></path>
        <path d="M56.2354961,57.9898873 L47.4024826,57.9898873 C47.1032999,57.9898873 46.8604259,57.7470134 46.8604259,57.4471522 C46.8604259,57.1472911 47.1026215,56.9044171 47.4024826,56.9044171 L56.2354961,56.9044171 C56.5346789,56.9044171 56.7782312,57.1472911 56.7782312,57.4471522 C56.7782312,57.7470134 56.5346789,57.9898873 56.2354961,57.9898873 Z" id="Path" fill="#00007E" fill-rule="nonzero"></path>
        <path d="M75.8255191,46.4744056 L66.993184,46.4744056 C66.6940013,46.4744056 66.4504489,46.2315316 66.4504489,45.9316705 C66.4504489,45.6318094 66.6933229,45.3889354 66.993184,45.3889354 L75.8255191,45.3889354 C76.1247019,45.3889354 76.3682542,45.6318094 76.3682542,45.9316705 C76.3682542,46.2315316 76.1247019,46.4744056 75.8255191,46.4744056 Z" id="Path" fill="#00007E" fill-rule="nonzero"></path>
        <path d="M75.8255191,52.2328249 L66.993184,52.2328249 C66.6940013,52.2328249 66.4504489,51.9899509 66.4504489,51.6900898 C66.4504489,51.3902286 66.6933229,51.1473547 66.993184,51.1473547 L75.8255191,51.1473547 C76.1247019,51.1473547 76.3682542,51.3902286 76.3682542,51.6900898 C76.3682542,51.9899509 76.1247019,52.2328249 75.8255191,52.2328249 Z" id="Path" fill="#00007E" fill-rule="nonzero"></path>
        <path d="M75.8255191,57.9898873 L66.993184,57.9898873 C66.6940013,57.9898873 66.4504489,57.7470134 66.4504489,57.4471522 C66.4504489,57.1472911 66.6933229,56.9044171 66.993184,56.9044171 L75.8255191,56.9044171 C76.1247019,56.9044171 76.3682542,57.1472911 76.3682542,57.4471522 C76.3682542,57.7470134 76.1247019,57.9898873 75.8255191,57.9898873 Z" id="Path" fill="#00007E" fill-rule="nonzero"></path>
        <path d="M86.5336824,40.7288763 C86.5336824,44.8767292 83.1707601,48.2396515 79.0229072,48.2396515 C74.8743759,48.2396515 71.512132,44.8767292 71.512132,40.7288763 C71.512132,36.5810234 74.8743759,33.2181011 79.0229072,33.2181011" id="Path" fill="#FFFFFF" fill-rule="nonzero"></path>
        <path d="M79.0229072,48.7823866 C74.5819774,48.7823866 70.9693969,45.1698061 70.9693969,40.7288763 C70.9693969,36.2879464 74.5819774,32.675366 79.0229072,32.675366 C79.32209,32.675366 79.5656423,32.9182399 79.5656423,33.2181011 C79.5656423,33.5179622 79.3227684,33.7608362 79.0229072,33.7608362 C75.1803428,33.7608362 72.0548671,36.8869903 72.0548671,40.7288763 C72.0548671,44.5707623 75.1803428,47.6969164 79.0229072,47.6969164 C82.8654717,47.6969164 85.9909473,44.5714407 85.9909473,40.7288763 C85.9909473,40.4290151 86.2338213,40.1861412 86.5336824,40.1861412 C86.8335436,40.1861412 87.0764175,40.4290151 87.0764175,40.7288763 C87.0764175,45.1691277 83.4638371,48.7823866 79.0229072,48.7823866 Z" id="Path" fill="#D7000F" fill-rule="nonzero"></path>
        <path d="M79.4950868,43.7607301 C79.3363368,43.7607301 79.1830141,43.690853 79.079216,43.5667024 L75.7753162,39.618983 C75.5826452,39.388999 75.613174,39.0463975 75.843158,38.854405 C76.0738205,38.6624124 76.4150651,38.6922628 76.6077361,38.9222468 L79.3200547,42.1630537 C80.0425708,40.4263015 81.9529983,36.496221 85.4529612,33.5349227 C85.6815883,33.3415733 86.0235115,33.3693885 86.2175392,33.598694 C86.411567,33.8273212 86.3830734,34.1699227 86.1537679,34.3632721 C81.8566628,37.9989188 80.028324,43.3367184 80.0100067,43.3903135 C79.9469137,43.5762002 79.7888421,43.7145977 79.5961712,43.7505539 C79.5622502,43.7580165 79.5283293,43.7607301 79.4950868,43.7607301 Z" id="Path" fill="#D7000F" fill-rule="nonzero"></path>
    </g>
</svg>