<?xml version="1.0" encoding="UTF-8"?>
<svg width="128px" height="128px" viewBox="0 0 128 128" version="1.1" xmlns="http://www.w3.org/2000/svg" xmlns:xlink="http://www.w3.org/1999/xlink">
    <title>Macaron-dedoublement-classes</title>
    <g id="Symbols" stroke="none" stroke-width="1" fill="none" fill-rule="evenodd">
        <g id="Desktop/ui/sidebarre_video_accueil" transform="translate(-88.000000, -656.000000)">
            <g id="Macaron-dedoublement-classes" transform="translate(88.000000, 656.000000)">
                <path d="M128,64 C128,99.3470346 99.3469919,128 63.9999047,128 C28.6528174,128 0,99.3470346 0,64 C0,28.6527747 28.6528174,0 63.9999047,0 C99.3469919,0 128,28.6527747 128,64" id="Fill-1" fill="#FFFFFF"></path>
                <path d="M20.5259238,20.5278306 C9.40117627,31.6588706 2.52157384,47.018085 2.52157384,64.0019068 C2.52157384,80.981915 9.40117627,96.3453244 20.5259238,107.474076 C31.6546756,118.602828 47.0161781,125.478426 64,125.478426 C80.9798175,125.478426 96.3453244,118.602828 107.472169,107.474076 C118.598824,96.3453244 125.476329,80.981915 125.476329,64.0019068 C125.476329,47.018085 118.598824,31.6588706 107.472169,20.5278306 C96.3453244,9.40117627 80.9798175,2.52348065 64,2.52348065 C47.0161781,2.52348065 31.6546756,9.40117627 20.5259238,20.5278306 M0,64.0019068 C0,28.6527747 28.6508679,0.00190681627 64,0 C99.3449371,0.00190681627 127.997903,28.6527747 128,64.0019068 C127.997903,99.3510389 99.3449371,128 64,128 C28.6508679,128 0,99.3510389 0,64.0019068" id="Fill-3" fill="#293273"></path>
                <path d="M34.353337,33.7316763 C26.6859017,41.3989447 21.94605,51.9874404 21.94605,63.6916086 C21.94605,75.3892935 26.6859017,85.9758824 34.353337,93.6450576 C42.0226791,101.314423 52.6094984,106.052075 64.311633,106.054172 C87.7078936,106.052075 106.677407,87.0869785 106.677407,63.6916086 C106.677407,51.9874404 101.935458,41.3989447 94.2680223,33.7316763 C86.5965826,26.064408 76.0118608,21.3225619 64.311633,21.3225619 C52.6094984,21.3225619 42.0226791,26.064408 34.353337,33.7316763 M20.5048544,63.6916086 C20.5048544,39.495952 40.1198356,19.8834951 64.311633,19.8834951 C88.5036212,19.8834951 108.116505,39.495952 108.116505,63.6916086 C108.116505,87.8828795 88.5036212,107.493239 64.311633,107.495146 C40.1198356,107.493239 20.5048544,87.8828795 20.5048544,63.6916086" id="Fill-5" fill="#293273"></path>
                <polygon id="Fill-7" fill="#E10714" points="16.9075211 82.0194175 17.3980583 83.2733177 12.7294476 85.4027947 13.6492275 87.7525488 12.5947831 88.2330097 11.184466 84.6317261"></polygon>
                <polygon id="Fill-9" fill="#E10714" points="16.1553398 86.1328691 18.7132745 85.7475728 19.2621359 86.796723 16.6046494 86.9902913"></polygon>
                <path d="M21.3896169,88.4617649 L22.9434169,88.7350515 L23.6116505,89.9466287 L21.977965,89.5336136 L21.3896169,88.4617649 Z M20.2983408,87.6116505 L22.1615356,90.9967817 L21.2300304,91.5951061 L20.0151441,89.3871177 L18.7703698,90.1856798 L19.8016857,92.0600715 L18.8701806,92.6560075 L17.8388647,90.7816157 L16.4924349,91.6446679 L17.7073212,93.8504669 L16.777661,94.4466019 L14.9126214,91.0616698 L20.2983408,87.6116505 Z" id="Fill-11" fill="#E10714"></path>
                <path d="M22.0449539,98.7445417 L22.0368432,100.038493 C21.0497822,100.05303 20.0666823,99.6039037 19.3631208,98.6773332 C18.1416022,97.064708 18.5452541,95.0214578 20.0034938,93.9151613 C21.4617335,92.8067882 23.5377115,92.968013 24.7594188,94.5804495 C25.4609054,95.5092854 25.6199141,96.5829215 25.3548997,97.5198753 L24.1005608,97.1851546 C24.2963508,96.5768803 24.2310875,95.9012088 23.7885793,95.317477 C23.0586107,94.3539041 21.7880502,94.2376109 20.8109863,94.9806796 C19.8342995,95.7214829 19.603803,96.9769217 20.3337716,97.9403057 C20.7743935,98.5242264 21.408542,98.7690841 22.0449539,98.7445417" id="Fill-13" fill="#E10714"></path>
                <path d="M27.8649937,103.050198 C28.7309975,102.184024 28.7899875,100.910583 27.9424534,100.062878 C27.0885114,99.209143 25.8150429,99.2662472 24.9488506,100.134117 C24.0807736,101.000291 24.0238567,102.273921 24.8776102,103.127656 C25.7253328,103.975172 26.9988014,103.916183 27.8649937,103.050198 M28.8084573,103.993641 C27.516519,105.287625 25.4399945,105.409937 24.0178258,103.987611 C22.5892493,102.559253 22.7115641,100.482773 24.005387,99.188789 C25.2973253,97.8949937 27.3738498,97.7747546 28.8022379,99.2031122 C30.2266681,100.625439 30.1024686,102.701731 28.8084573,103.993641" id="Fill-15" fill="#E10714"></path>
                <polygon id="Fill-17" fill="#E10714" points="31.9117977 102.524272 32.9320388 103.339881 29.7104727 107.511164 31.6225066 109.038612 30.8936284 109.980583 27.961165 107.639441"></polygon>
                <polygon id="Fill-19" fill="#E10714" points="35.8783741 105.631068 39.1456311 107.648714 38.5281304 108.588535 36.3984672 107.273051 35.5738291 108.533107 37.3819304 109.649655 36.7665813 110.589666 34.9563285 109.47103 34.0638181 110.831883 36.1934813 112.147367 35.5779366 113.087379 32.3106796 111.069923"></polygon>
                <path d="M42.9357725,110.391099 L41.3954361,114.262808 L42.5165576,114.760306 C43.5955722,115.236658 44.7126129,114.732895 45.1459253,113.646859 C45.5810926,112.552403 45.1338682,111.364949 44.0548536,110.888596 L42.9357725,110.391099 Z M42.2077113,108.737864 L44.4900209,109.749893 C46.3312275,110.566721 47.0151414,112.529105 46.3571966,114.182339 C45.6973969,115.839881 43.8923615,116.697237 42.0493,115.882367 L39.7669903,114.870534 L42.2077113,108.737864 Z" id="Fill-21" fill="#E10714"></path>
                <polygon id="Fill-23" fill="#E10714" points="49.0488238 111.84466 52.815534 112.89966 52.4991865 114.005206 50.044923 113.318917 49.6216105 114.799639 51.70812 115.384248 51.3917725 116.492144 49.305263 115.907535 48.850118 117.50659 51.3041838 118.195229 50.9898134 119.300971 47.223301 118.248126"></polygon>
                <polygon id="Fill-25" fill="#E10714" points="56.0924555 113.708738 57.3397374 113.874141 56.6942831 119.061672 59.0291262 119.371897 58.8830958 120.543689 55.3009709 120.065985"></polygon>
                <path d="M64.6518301,117.574598 L63.7744939,115.017499 L62.8183845,117.546481 L64.6518301,117.574598 Z M62.907989,113.708738 L64.681567,113.736855 L67.1067961,120.543689 L65.6674133,120.519959 L65.0541641,118.751746 L62.3819811,118.708672 L61.7133938,120.457343 L60.2718447,120.433612 L62.907989,113.708738 Z" id="Fill-27" fill="#E10714"></path>
                <path d="M75.3222083,117.506986 L76.4271845,118.117759 C75.996273,119.008057 75.1680894,119.676066 74.0590912,119.869452 C72.1261142,120.206404 70.5565874,118.892824 70.2618784,117.073246 C69.9673522,115.253669 71.038689,113.477446 72.9700206,113.140304 C74.080847,112.945016 75.075033,113.304596 75.7591529,113.981162 L74.9070196,114.943338 C74.4740971,114.484878 73.8673109,114.225699 73.1656401,114.349299 C72.011302,114.550671 71.3412594,115.629982 71.536879,116.849246 C71.7345095,118.068319 72.7069397,118.86202 73.8634717,118.660457 C74.5633142,118.537047 75.0552882,118.086954 75.3222083,117.506986" id="Fill-29" fill="#E10714"></path>
                <path d="M82.4400218,114.019305 C82.0714781,112.844124 80.9664148,112.200099 79.8181939,112.561095 C78.6618336,112.924177 78.1236879,114.089113 78.4920423,115.264294 C78.8603967,116.439663 79.9675421,117.083499 81.1240917,116.720606 C82.2702305,116.357524 82.8104584,115.194485 82.4400218,114.019305 M83.7190408,113.615247 C84.2694902,115.371094 83.41618,117.278509 81.4882818,117.885543 C79.5543265,118.49675 77.7634728,117.42192 77.2130233,115.666454 C76.6623846,113.912694 77.5156948,112.003193 79.4519217,111.394072 C81.3777376,110.787038 83.1665091,111.861678 83.7190408,113.615247" id="Fill-31" fill="#E10714"></path>
                <polygon id="Fill-33" fill="#E10714" points="83.2621359 110.166862 84.7642971 109.404559 89.3664899 112.405177 87.3501522 108.090924 88.5244381 107.495146 91.3398058 113.524434 89.8359389 114.286737 85.2273024 111.26676 87.2519791 115.598199 86.0776931 116.194175"></polygon>
                <polygon id="Fill-35" fill="#E10714" points="90.0970874 107.054503 93.3180957 105.009709 93.9364022 105.945806 91.8364862 107.278368 92.6641252 108.530423 94.4496547 107.399321 95.0679612 108.335608 93.2845638 109.46671 94.7975732 111.755877 93.6764809 112.466019"></polygon>
                <polygon id="Fill-37" fill="#E10714" points="93.8252427 103.981017 94.8672217 103.145631 98.7961165 108.524237 97.7562326 109.359223"></polygon>
                <path d="M101.329015,102.665541 L99.0270096,101.50931 L100.030575,103.854228 L101.329015,102.665541 Z M97.5533981,101.190939 L98.8104758,100.038835 L105.009709,103.06102 L103.987463,103.996248 L102.388239,103.199099 L100.494331,104.933352 L101.184723,106.560105 L100.162478,107.495146 L97.5533981,101.190939 Z" id="Fill-39" fill="#E10714"></path>
                <polygon id="Fill-41" fill="#E10714" points="101.281553 97.7968314 102.33793 96.4854912 107.736137 97.1670279 104.15789 94.2295416 104.982763 93.2038835 109.980583 97.3120724 108.921928 98.6234126 103.513665 97.9294216 107.104246 100.879362 106.279373 101.902913"></polygon>
                <path d="M112.263906,90.2442205 L113.467999,89.7712516 C113.847593,90.6884099 113.794552,91.7733226 113.192411,92.770382 C112.145555,94.5083251 110.098465,94.8890859 108.5312,93.9393612 C106.963747,92.9894473 106.345373,90.9955178 107.39223,89.2573854 C107.992294,88.258622 108.93118,87.7097281 109.900457,87.6116505 L110.05354,88.9054042 C109.416857,88.9481948 108.812829,89.2594682 108.433235,89.8878844 C107.808632,90.9258411 108.171992,92.1540834 109.223002,92.7908306 C110.271934,93.4273885 111.525104,93.1776503 112.149707,92.139883 C112.529112,91.509384 112.520996,90.8296568 112.263906,90.2442205" id="Fill-43" fill="#E10714"></path>
                <polygon id="Fill-45" fill="#E10714" points="109.359223 86.130921 110.924215 82.6407767 111.940907 83.1121874 110.922117 85.3872817 112.285144 86.0177669 113.153461 84.0842661 114.169962 84.5554831 113.303933 86.4891776 114.776048 87.1698458 115.796745 84.8949453 116.815534 85.366356 115.252259 88.8543689"></polygon>
                <path d="M16.4354264,34.8649157 L19.0902418,30.9457511 L20.4683355,31.8684897 L18.9075848,34.1724416 L19.9731153,34.8891934 L21.2885086,32.9467922 L22.6666023,33.8695308 L21.3513967,35.811932 L22.5366962,36.6054387 L24.0974468,34.3014868 L25.4757282,35.2244121 L22.8209127,39.1456311 L16.4354264,34.8649157 Z M16.6931737,33.3102104 L16.1553398,31.4585704 L17.261419,29.8252427 L17.6877439,31.8382359 L16.6931737,33.3102104 Z" id="Fill-47" fill="#293273"></path>
                <path d="M28.9666364,33.0419253 C29.5858059,32.347461 29.594496,31.8513593 29.2634822,31.5643584 C29.0029768,31.3384671 28.6761106,31.3595529 28.3707721,31.7037588 L27.3180851,32.8876867 C27.2775972,33.1411066 27.347908,33.3543073 27.5572604,33.5358793 C27.8967667,33.8314708 28.3559594,33.7279943 28.9666364,33.0419253 M25.1506955,29.1619454 C24.794204,28.8538587 24.4076921,28.9424971 24.1084762,29.2759649 C23.8118278,29.6115803 23.7861525,30.002253 24.134349,30.3040922 C24.4908405,30.6143265 24.8795249,30.5403311 25.1763708,30.2049109 C25.4751917,29.8712478 25.5052121,29.472375 25.1506955,29.1619454 M26.0965338,33.5169412 C25.76789,33.5042507 25.4666991,33.3945265 25.2488541,33.2045592 C24.8923626,32.8962772 24.7215232,32.5352807 24.7620111,31.9886122 C24.1384965,32.1174698 23.5363122,31.9464406 23.0516417,31.5221868 C22.1824343,30.7683699 22.0864482,29.5440277 23.0943022,28.4106667 C23.4061582,28.0580655 23.7413195,27.8026932 24.0764808,27.6506022 L25.4582065,26.0970874 L26.6133971,27.101786 L26.0112128,27.7794598 C26.0860661,27.8300266 26.1563769,27.8913316 26.2268852,27.9524413 C27.1045852,28.7144582 27.2070889,29.9304052 26.1777072,31.0893424 C26.1008788,31.1738808 26.030568,31.2519763 25.9535421,31.3214813 C25.9622322,31.4187102 25.9983752,31.4966105 26.0582183,31.5516678 C26.2162201,31.6867731 26.3528917,31.6381586 26.4745531,31.4989534 L27.352253,30.5129976 C28.2832786,29.4661274 29.4748096,29.3731938 30.3076766,30.0971391 C31.358191,31.0112469 31.358191,32.5163425 30.0685014,33.9687237 C28.7701216,35.4273524 27.5914282,35.81783 26.6347274,34.9882605 C26.2099001,34.6188687 26.0453807,34.1100765 26.0965338,33.5169412" id="Fill-49" fill="#293273"></path>
                <path d="M30.6223538,27.3659877 C31.0343638,27.0041323 31.1058619,26.5758935 31.0424758,26.1798236 L30.7121508,25.8138774 L30.028863,26.6463679 C29.7349474,27.0082232 29.7228739,27.2233653 29.8920923,27.4102434 C30.0756481,27.6132989 30.3672999,27.591171 30.6223538,27.3659877 M28.6641739,28.6064486 C28.0910573,27.9712493 28.1359559,27.0563838 28.9028153,26.1054443 L29.8819052,24.895107 C29.5861031,24.6016807 29.1171209,24.589594 28.7377472,24.9233712 C28.3908211,25.2268388 28.2338649,25.6269994 28.3359241,26.049102 L26.7325937,26.1759187 C26.6409101,25.3213005 26.9957595,24.4547815 27.7709195,23.7732811 C29.0905214,22.6133358 30.4061617,22.8586016 31.2158445,23.7513392 L33.5533981,26.3347186 L32.2336075,27.4946639 L31.9625184,27.1951012 C31.974592,27.6655503 31.6972775,28.2607707 31.260743,28.6447539 C30.4184239,29.3825967 29.3923603,29.4106749 28.6641739,28.6064486" id="Fill-51" fill="#293273"></path>
                <polygon id="Fill-53" fill="#293273" points="29.8252427 18.4842791 31.2175669 17.3980583 36.038835 24.3895073 34.6465108 25.4757282"></polygon>
                <path d="M34.1770135,19.3254389 L35.612203,18.3331892 L38.5242718,23.2429308 L37.0890823,24.2330097 L34.1770135,19.3254389 Z M33.0954559,17.9300138 C32.7831481,17.4050766 32.9314394,16.6689804 33.4297056,16.3275739 C33.9062127,15.996824 34.5882431,16.1568706 34.9005509,16.6839786 C35.2130415,17.2087185 35.06859,17.9534978 34.5900716,18.2842477 C34.0938168,18.6276277 33.4059351,18.4571217 33.0954559,17.9300138 L33.0954559,17.9300138 Z" id="Fill-55" fill="#293273"></path>
                <path d="M38.274473,18.2790493 L37.3843601,18.752585 L36.6601942,17.3875048 L37.5503071,16.9137859 L36.9174396,15.7191347 L38.4327357,14.9126214 L39.0657862,16.1074559 L40.3714072,15.4119962 L41.0953901,16.7790922 L39.7877565,17.4745518 L40.6127348,19.02802 C40.8145426,19.4064453 41.1230175,19.5114515 41.5207781,19.2994234 C41.8707855,19.1132344 42.0725933,18.9448214 42.1852982,18.8119602 L42.8737864,20.1118009 C42.6778335,20.3595641 42.4147333,20.5736081 41.9697683,20.8092764 C40.6740273,21.5007044 39.7226219,21.0093928 39.0994513,19.83435 L38.274473,18.2790493 Z" id="Fill-57" fill="#293273"></path>
                <path d="M43.9600585,16.3945377 L45.7624048,15.655967 C45.6059769,15.3122951 45.2150975,15.040655 44.6451442,15.2742184 C44.1575916,15.4736305 43.9147668,15.8067037 43.9600585,16.3945377 L43.9600585,16.3945377 Z M43.2150279,13.4957998 L43.6021013,11.2846019 L45.3633424,10.5631068 L44.7808293,12.8547761 L43.2150279,13.4957998 Z M46.56072,19.5988708 C44.6430509,20.3819952 43.1143583,19.4630508 42.5072963,17.8926802 C41.9086075,16.3309457 42.3345024,14.5992397 44.1060199,13.8734267 C45.5875177,13.2665543 46.9515994,13.8840254 47.515463,15.3484091 C47.6553347,15.7113156 47.7356419,16.0742222 47.7561945,16.2883547 L44.3796735,17.6699118 C44.7520937,18.2343894 45.3117707,18.3511711 46.007323,18.0667733 C46.4948756,17.8693239 46.8199107,17.5001367 46.9394201,17.0926764 L48.4660194,17.5680467 C48.2273812,18.4465592 47.5647511,19.1872889 46.56072,19.5988708 L46.56072,19.5988708 Z" id="Fill-59" fill="#293273"></path>
                <path d="M55.020329,15.001439 C55.597499,14.8980115 55.9583284,14.5752399 56.2047053,14.0666892 L55.9542057,12.6953977 C55.531733,12.3070569 55.0796166,12.1341575 54.5150109,12.2354383 C53.7234635,12.3788707 53.3498735,13.0160227 53.5004482,13.847345 C53.6533786,14.6786673 54.2285854,15.1448713 55.020329,15.001439 M53.948442,10.6087006 C54.6041385,10.490442 55.1434194,10.5663539 55.6059406,10.7964311 L55.0542918,7.78337552 L56.8649171,7.45631068 L58.407767,15.8875973 L56.597338,16.2146622 L56.5527742,15.9678024 C56.2003864,16.3432635 55.7229451,16.6049544 55.066856,16.7232129 C53.2583901,17.0502777 51.938163,15.8370545 51.6346579,14.1849477 C51.3333124,12.532841 52.1378166,10.9357654 53.948442,10.6087006" id="Fill-61" fill="#293273"></path>
                <path d="M60.8340073,12.2656654 L62.7236942,12.1791528 C62.6854737,11.8032238 62.4086536,11.4147963 61.8108557,11.4421366 C61.3013731,11.4653758 60.9742727,11.6977683 60.8340073,12.2656654 M62.2361049,16.1509168 C60.2261904,16.2436785 59.1027683,14.8649464 59.0326356,13.1842993 C58.9643582,11.5161507 59.8931528,10.0296197 61.7505565,9.94525534 C63.3012686,9.87338941 64.3686588,10.9121254 64.4326688,12.4789197 C64.448625,12.8675424 64.41059,13.2348789 64.364577,13.4438368 L60.8239883,13.6065116 C60.9924552,14.2609211 61.4739219,14.5606879 62.2001108,14.5270984 C62.7116344,14.5038592 63.1268645,14.2673656 63.3615679,13.9252213 L64.6213592,14.8860375 C64.1278327,15.629303 63.2893943,16.1022901 62.2361049,16.1509168" id="Fill-63" fill="#293273"></path>
                <path d="M66.5007587,13.8638522 C66.7805394,14.2841694 67.1424253,14.6537047 67.6556809,14.6874942 C67.9839076,14.7107366 68.1520094,14.5734304 68.1689364,14.3433497 C68.2216628,13.5577941 65.6279519,13.758187 65.7686205,11.682578 C65.8423596,10.586472 66.8163388,9.86204993 68.0765192,9.94876965 C68.9872657,10.0100985 69.8223273,10.5145962 70.2135922,11.1017121 L68.9600269,12.1048483 C68.707485,11.7669539 68.3876245,11.4374581 67.9796272,11.4079655 C67.6621014,11.3868716 67.5041168,11.5136308 67.4916648,11.7077736 C67.4410786,12.4489927 70.0347894,12.2589516 69.8919806,14.3349512 C69.782442,15.6357469 68.6821919,16.2248159 67.5778559,16.1488385 C66.4754656,16.0750096 65.7793214,15.5914105 65.2427184,14.8902308 L66.5007587,13.8638522 Z" id="Fill-65" fill="#293273"></path>
                <path d="M77.4123183,15.3647297 L78.5781723,16.7643004 C77.8708182,17.3192457 76.9084085,17.5476957 75.850578,17.2963814 C73.8241365,16.8144857 73.0131598,15.1614694 73.4240493,13.5400368 C73.8327384,11.920542 75.3424673,10.8164642 77.3691089,11.2983599 C78.4267393,11.5496742 79.1729019,12.1825134 79.5339806,12.9932296 L77.8320098,13.7117134 C77.7021815,13.3639037 77.4187197,13.0517469 76.9300132,12.93665 C76.1904521,12.7607106 75.5069032,13.1713005 75.3012583,13.9862796 C75.0914126,14.8138535 75.5025022,15.4714947 76.2766709,15.6559598 C76.7201675,15.7605933 77.1332575,15.6141064 77.4123183,15.3647297" id="Fill-67" fill="#293273"></path>
                <path d="M82.4186737,9.94174757 L83.995511,10.593586 L82.9430148,13.4940054 C83.3769084,13.33468 83.8718268,13.2947518 84.4550132,13.5358719 C85.5174986,13.975858 86.1025012,15.1306761 85.5135029,16.7506778 L84.3745549,19.8834951 L82.7879101,19.2277802 L83.9012495,16.1680354 C84.0955844,15.6272596 83.9620926,15.1473452 83.4575483,14.9378188 C82.8997889,14.7073591 82.4855104,15.0700085 82.3184187,15.2103388 L81.1129973,18.5340752 L79.5339806,17.8822368 L82.4186737,9.94174757 Z" id="Fill-69" fill="#293273"></path>
                <path d="M87.8888967,20.5398581 C88.3867155,20.8089808 88.8338394,20.7303112 89.2013279,20.533733 L89.449169,20.0929153 L88.3929309,19.7265562 C87.9349299,19.567303 87.7208853,19.6314254 87.5948282,19.8569066 C87.456146,20.101146 87.5800666,20.3723742 87.8888967,20.5398581 M85.994544,19.0933714 C86.4208851,18.3275392 87.3386352,18.0565024 88.5399651,18.4621006 L90.0666351,18.9815878 C90.2556236,18.5966619 90.1043163,18.1434026 89.6465095,17.8970577 C89.2265782,17.669471 88.77926,17.6591349 88.3970098,17.8991632 L87.7230219,16.409035 C88.5316131,16.0283201 89.5080215,16.0696647 90.4446122,16.5767103 C92.0427598,17.4397788 92.2527255,18.782904 91.6521576,19.8632231 L89.9133854,22.9902913 L88.3150435,22.1272227 L88.5166572,21.7629692 C88.0588505,21.9367696 87.3784529,21.8768582 86.8491685,21.5891687 C85.8308058,21.0407786 85.4528287,20.068032 85.994544,19.0933714" id="Fill-71" fill="#293273"></path>
                <path d="M93.9776323,19.2621359 L95.3809628,20.270097 L95.1992433,20.5137074 C95.6717514,20.4801881 96.1704063,20.5732362 96.6914726,20.9474438 C97.6364889,21.6268055 97.9270908,22.8327687 96.9357574,24.1577896 L95.0216325,26.7184466 L93.6100844,25.7044411 L95.4799468,23.2031298 C95.8108892,22.7615173 95.7989364,22.288217 95.348653,21.9634642 C94.8539201,21.6090385 94.3511565,21.830669 94.1513211,21.9140094 L92.1199095,24.6310899 L90.7184466,23.6209309 L93.9776323,19.2621359 Z" id="Fill-73" fill="#293273"></path>
                <path d="M100.216818,28.6648442 L100.494865,30.4111257 C99.6376641,30.5491807 98.7332012,30.287372 97.979101,29.5719267 C96.5408412,28.2009107 96.6809129,26.4052421 97.8121584,25.215757 C98.9432134,24.0281788 100.729651,23.8033627 102.167911,25.1743787 C102.920106,25.889824 103.225024,26.7824145 103.128212,27.6464024 L101.370741,27.4526678 C101.434584,27.0958985 101.354162,26.6939373 101.003887,26.3619569 C100.480572,25.8631283 99.7159899,25.8877265 99.1452216,26.4878082 C98.5683549,27.093801 98.5868406,27.850434 99.1349306,28.3742422 C99.4503301,28.6751411 99.8642562,28.745122 100.216818,28.6648442" id="Fill-75" fill="#293273"></path>
                <path d="M103.730262,30.2597545 L105.004897,31.7216026 C105.285289,31.4757887 105.416937,31.0309026 105.015507,30.5698152 C104.669094,30.1731609 104.274148,30.0463432 103.730262,30.2597545 M101.507954,33.6141839 C100.1504,32.0597831 100.541417,30.3685085 101.845721,29.3478219 C103.139612,28.3329082 104.921978,28.2221057 106.175391,29.6597449 C107.224847,30.859764 107.069816,32.3095077 105.856683,33.2618506 C105.55507,33.4974223 105.234201,33.678617 105.03889,33.7611136 L102.648778,31.0208466 C102.230253,31.5342626 102.298435,32.0901374 102.786911,32.651785 C103.133324,33.0484394 103.587807,33.2436007 104.012619,33.2355932 L104.044647,34.7940909 C103.133324,34.8283559 102.219839,34.4276047 101.507954,33.6141839" id="Fill-77" fill="#293273"></path>
                <path d="M105.462063,35.7763528 C105.299296,36.2602784 105.222063,36.7804391 105.501644,37.2194175 C105.68121,37.4997934 105.890123,37.5532549 106.079922,37.4269274 C106.733308,36.990127 105.023576,35.003537 106.750106,33.8517385 C107.660289,33.2416833 108.81472,33.5927472 109.499385,34.6716796 C109.994251,35.4488515 110.092337,36.4357114 109.862763,37.1142765 L108.320047,36.705593 C108.438985,36.2945334 108.507721,35.8319924 108.286644,35.4809285 C108.113257,35.2090668 107.919211,35.1597634 107.758567,35.2668844 C107.142639,35.677944 108.839821,37.6732463 107.115415,38.8248468 C106.023542,39.5271726 104.900583,38.9897855 104.30126,38.0478729 C103.702323,37.1057623 103.666603,36.243052 103.902741,35.3803416 L105.462063,35.7763528 Z" id="Fill-79" fill="#293273"></path>
                <path d="M34.9035909,78.8136085 L34.9035909,81.4970711 L35.6856285,81.4970711 C36.5200217,81.4970711 37.1279285,80.9223156 37.1279285,80.1554305 C37.1279285,79.3803813 36.5200217,78.8136085 35.6856285,78.8136085 L34.9035909,78.8136085 Z M33.5533981,77.6699029 L35.6772904,77.6699029 C37.3691521,77.6699029 38.5242718,78.8136085 38.5242718,80.1554305 C38.5242718,81.4970711 37.3691521,82.6407767 35.6772904,82.6407767 L33.5533981,82.6407767 L33.5533981,77.6699029 Z" id="Fill-81" fill="#293273"></path>
                <path d="M40.0872236,77.4585734 L40.8996572,76.4271845 L42.1947374,76.4271845 L41.2513076,77.4585734 L40.0872236,77.4585734 Z M39.1456311,77.9165132 L42.2524272,77.9165132 L42.2524272,79.0682893 L40.4249109,79.0682893 L40.4249109,79.962706 L41.9643458,79.962706 L41.9643458,81.1166285 L40.4249109,81.1166285 L40.4249109,82.1082135 L42.2524272,82.1082135 L42.2524272,83.2621359 L39.1456311,83.2621359 L39.1456311,77.9165132 Z" id="Fill-83" fill="#293273"></path>
                <path d="M44.8453385,78.8136085 L44.8453385,81.4970711 L45.6273761,81.4970711 C46.4617693,81.4970711 47.0696761,80.9223156 47.0696761,80.1554305 C47.0696761,79.3803813 46.4617693,78.8136085 45.6273761,78.8136085 L44.8453385,78.8136085 Z M43.4951456,77.6699029 L45.6188441,77.6699029 C47.3108997,77.6699029 48.4660194,78.8136085 48.4660194,80.1554305 C48.4660194,81.4970711 47.3108997,82.6407767 45.6188441,82.6407767 L43.4951456,82.6407767 L43.4951456,77.6699029 Z" id="Fill-85" fill="#293273"></path>
                <path d="M53.3125451,80.4660194 C53.3125451,79.5743445 52.7146442,78.9331574 51.885593,78.9331574 C51.0504389,78.9331574 50.4523473,79.5828421 50.4523473,80.4660194 C50.4523473,81.3575012 51.0504389,82.0006196 51.885593,82.0006196 C52.7146442,82.0006196 53.3125451,81.3513211 53.3125451,80.4660194 M54.6796117,80.4660194 C54.6796117,81.9778304 53.5435046,83.2621359 51.885593,83.2621359 C50.2213878,83.2621359 49.0873786,81.9778304 49.0873786,80.4660194 C49.0873786,78.9542084 50.2213878,77.6699029 51.885593,77.6699029 C53.5435046,77.6699029 54.6796117,78.9542084 54.6796117,80.4660194" id="Fill-87" fill="#293273"></path>
                <path d="M58.3280248,77.6699029 L59.6504854,77.6699029 L59.6504854,80.9251751 C59.6504854,82.3694268 58.8474748,83.2621359 57.4716447,83.2621359 C56.1041715,83.2621359 55.3009709,82.3694268 55.3009709,80.9251751 L55.3009709,77.6699029 L56.6257106,77.6699029 L56.6257106,81.0581487 C56.6257106,81.6162407 56.9295935,81.9659414 57.4798116,81.9659414 C58.0241419,81.9659414 58.3280248,81.6162407 58.3280248,81.0581487 L58.3280248,77.6699029 Z" id="Fill-89" fill="#293273"></path>
                <path d="M62.1938274,80.6026767 L62.1938274,81.5677487 L62.6906907,81.5677487 C63.05624,81.5677487 63.2843115,81.377601 63.2843115,81.079316 C63.2843115,80.773229 63.05624,80.6026767 62.6906907,80.6026767 L62.1938274,80.6026767 Z M62.1938274,78.7409351 L62.1938274,79.5316446 L62.5451807,79.5316446 C62.8300365,79.5316446 62.9916105,79.3884895 62.9916105,79.1332054 C62.9916105,78.8920734 62.8300365,78.7409351 62.5451807,78.7409351 L62.1938274,78.7409351 Z M60.8932039,77.6699029 L62.5089433,77.6699029 C63.6418289,77.6699029 64.3286582,78.1799269 64.3286582,79.0628072 C64.3286582,79.4372965 64.1467241,79.7729579 63.8235762,80.006288 C64.3286582,80.2555846 64.6213592,80.659467 64.6213592,81.150077 C64.6213592,82.0877518 63.8540231,82.6407767 62.6099971,82.6407767 L60.8932039,82.6407767 L60.8932039,77.6699029 Z" id="Fill-91" fill="#293273"></path>
                <polygon id="Fill-93" fill="#293273" points="65.8640777 77.6699029 67.1453784 77.6699029 67.1453784 81.4972108 68.9708738 81.4972108 68.9708738 82.6407767 65.8640777 82.6407767"></polygon>
                <polygon id="Fill-95" fill="#293273" points="70.2135922 77.6699029 73.3203883 77.6699029 73.3203883 78.740896 71.494893 78.740896 71.494893 79.5725802 73.0324907 79.5725802 73.0324907 80.6457505 71.494893 80.6457505 71.494893 81.5676065 73.3203883 81.5676065 73.3203883 82.6407767 70.2135922 82.6407767"></polygon>
                <polygon id="Fill-97" fill="#293273" points="73.9417476 77.6699029 75.6735924 77.6699029 76.7335803 79.3746379 77.8021357 77.6699029 79.5339806 77.6699029 79.5339806 82.6407767 78.1446393 82.6407767 78.1446393 79.4882144 77.2095786 80.9360417 76.2661495 80.9360417 75.3312881 79.4882144 75.3312881 82.6407767 73.9417476 82.6407767"></polygon>
                <polygon id="Fill-99" fill="#293273" points="80.776699 77.6699029 83.8834951 77.6699029 83.8834951 78.740896 82.0579998 78.740896 82.0579998 79.5725802 83.5955975 79.5725802 83.5955975 80.6457505 82.0579998 80.6457505 82.0579998 81.5676065 83.8834951 81.5676065 83.8834951 82.6407767 80.776699 82.6407767"></polygon>
                <polygon id="Fill-101" fill="#293273" points="85.1262136 77.6699029 86.8404149 77.6699029 88.7453415 80.7379179 88.7453415 77.6699029 90.0970874 77.6699029 90.0970874 82.6407767 88.3805601 82.6407767 86.4779594 79.5725802 86.4779594 82.6407767 85.1262136 82.6407767"></polygon>
                <polygon id="Fill-103" fill="#293273" points="90.7184466 77.6699029 95.0679612 77.6699029 95.0679612 78.8136502 93.5545835 78.8136502 93.5545835 82.6407767 92.2318243 82.6407767 92.2318243 78.8136502 90.7184466 78.8136502"></polygon>
                <path d="M42.3599016,88.1340386 L42.3599016,90.8175992 L43.1419392,90.8175992 C43.9763324,90.8175992 44.5842392,90.2428226 44.5842392,89.4759096 C44.5842392,88.7028279 43.9763324,88.1340386 43.1419392,88.1340386 L42.3599016,88.1340386 Z M41.0097087,86.9902913 L43.1334072,86.9902913 C44.8254628,86.9902913 45.9805825,88.1340386 45.9805825,89.4759096 C45.9805825,90.8175992 44.8254628,91.961165 43.1334072,91.961165 L41.0097087,91.961165 L41.0097087,86.9902913 Z" id="Fill-105" fill="#293273"></path>
                <polygon id="Fill-107" fill="#293273" points="46.6019417 86.9902913 49.7087379 86.9902913 49.7087379 88.0634615 47.8812215 88.0634615 47.8812215 88.89315 49.4206565 88.89315 49.4206565 89.9661388 47.8812215 89.9661388 47.8812215 90.8899906 49.7087379 90.8899906 49.7087379 91.961165 46.6019417 91.961165"></polygon>
                <path d="M51.8620337,90.1700673 C52.1231777,90.5396007 52.5112868,90.7817088 52.8719829,90.7817088 C53.1607202,90.7817088 53.3381827,90.6461746 53.3381827,90.3432499 C53.3381827,89.5356438 51.13469,89.800727 51.13469,87.9864611 C51.13469,87.1014344 51.8268659,86.368932 52.8290601,86.368932 C53.6130332,86.368932 54.2193634,86.7320941 54.6796117,87.2769338 L53.7690342,88.166208 C53.4784935,87.8049765 53.1684752,87.5398933 52.8369954,87.5398933 C52.5814422,87.5398933 52.4059635,87.7068977 52.4059635,87.9260306 C52.4059635,88.7108546 54.6074724,88.4478951 54.6074724,90.2996164 C54.593766,91.3558949 53.8177282,91.961165 52.8856894,91.961165 C51.975112,91.961165 51.4037693,91.6209781 50.9514563,91.0697672 L51.8620337,90.1700673 Z" id="Fill-109" fill="#293273"></path>
                <path d="M61.0935417,90.0782317 L62.1359223,90.8881266 C61.6557543,91.537394 60.8850278,91.961165 59.9388698,91.961165 C58.2892846,91.961165 57.1650485,90.6753723 57.1650485,89.1640832 C57.1650485,87.6527941 58.2892846,86.368932 59.9388698,86.368932 C60.8850278,86.368932 61.6557543,86.7907724 62.1359223,87.4336688 L61.0935417,88.2497417 C60.850244,87.8887159 60.4579807,87.6298198 59.9388698,87.6298198 C59.1110525,87.6298198 58.5182151,88.2810178 58.5182151,89.1640832 C58.5182151,90.0554503 59.1110525,90.6983467 59.9388698,90.6983467 C60.4496628,90.6983467 60.850244,90.4415743 61.0935417,90.0782317" id="Fill-111" fill="#293273"></path>
                <polygon id="Fill-113" fill="#293273" points="63.3786408 86.9902913 64.6579206 86.9902913 64.6579206 90.8175992 66.4854369 90.8175992 66.4854369 91.961165 63.3786408 91.961165"></polygon>
                <path d="M70.448037,89.7247527 L69.9030092,88.2614502 L69.3599127,89.7247527 L70.448037,89.7247527 Z M69.0259817,86.9902913 L70.7800366,86.9902913 L72.6990291,91.961165 L71.272918,91.961165 L70.840488,90.7899788 L68.9674617,90.7899788 L68.5352249,91.961165 L67.1067961,91.961165 L69.0259817,86.9902913 Z" id="Fill-115" fill="#293273"></path>
                <path d="M73.6100913,90.1700673 C73.8713744,90.5396007 74.2598705,90.7817088 74.6187738,90.7817088 C74.9094692,90.7817088 75.0870262,90.6461746 75.0870262,90.3432499 C75.0870262,89.5356438 72.8823603,89.800727 72.8823603,87.9864611 C72.8823603,87.1014344 73.5750852,86.368932 74.5776325,86.368932 C75.362023,86.368932 75.968676,86.7320941 76.4271845,87.2769338 L75.5181071,88.166208 C75.2274117,87.8049765 74.9172283,87.5398933 74.5855721,87.5398933 C74.3298828,87.5398933 74.1544912,87.7068977 74.1544912,87.9260306 C74.1544912,88.7108546 76.3571722,88.4478951 76.3571722,90.2996164 C76.343278,91.3558949 75.5670075,91.961165 74.6344724,91.961165 C73.7232298,91.961165 73.1515829,91.6209781 72.6990291,91.0697672 L73.6100913,90.1700673 Z" id="Fill-117" fill="#293273"></path>
                <path d="M77.9591211,90.1700673 C78.2202651,90.5396007 78.610358,90.7817088 78.9692507,90.7817088 C79.2578076,90.7817088 79.4352701,90.6461746 79.4352701,90.3432499 C79.4352701,89.5356438 77.2317773,89.800727 77.2317773,87.9864611 C77.2317773,87.1014344 77.9241336,86.368932 78.9261475,86.368932 C79.7101205,86.368932 80.3186149,86.7320941 80.776699,87.2769338 L79.8661216,88.166208 C79.5755809,87.8049765 79.2655625,87.5398933 78.9340828,87.5398933 C78.6806937,87.5398933 78.5032312,87.7068977 78.5032312,87.9260306 C78.5032312,88.7108546 80.7047401,88.4478951 80.7047401,90.2996164 C80.6908533,91.3558949 79.9149959,91.961165 78.9829571,91.961165 C78.0721993,91.961165 77.5008567,91.6209781 77.0485437,91.0697672 L77.9591211,90.1700673 Z" id="Fill-119" fill="#293273"></path>
                <polygon id="Fill-121" fill="#293273" points="82.0194175 86.9902913 85.1262136 86.9902913 85.1262136 88.0634615 83.3007183 88.0634615 83.3007183 88.89315 84.8381322 88.89315 84.8381322 89.9661388 83.3007183 89.9661388 83.3007183 90.8899906 85.1262136 90.8899906 85.1262136 91.961165 82.0194175 91.961165"></polygon>
                <path d="M86.6587714,90.1700673 C86.9200418,90.5396007 87.3083387,90.7817088 87.667405,90.7817088 C87.9579059,90.7817088 88.1356348,90.6461746 88.1356348,90.3432499 C88.1356348,89.5356438 85.9310756,89.800727 85.9310756,87.9864611 C85.9310756,87.1014344 86.6235865,86.368932 87.6262657,86.368932 C88.4106182,86.368932 89.0172419,86.7320941 89.4757282,87.2769338 L88.5665144,88.166208 C88.2760135,87.8049765 87.9656647,87.5398933 87.6340245,87.5398933 C87.378528,87.5398933 87.2029644,87.7068977 87.2029644,87.9260306 C87.2029644,88.7108546 89.4055388,88.4478951 89.4055388,90.2996164 C89.3916453,91.3558949 88.6154124,91.961165 87.6829225,91.961165 C86.7719043,91.961165 86.2002851,91.6209781 85.7475728,91.0697672 L86.6587714,90.1700673 Z" id="Fill-123" fill="#293273"></path>
                <path d="M64.2784454,67.5431208 C66.591023,63.6905142 71.922815,63.6688882 74.2703708,67.5151458 C74.6589542,67.0669515 75.0144707,66.5669737 75.4546613,66.1723484 C77.1615229,64.6450353 79.126994,64.2244191 81.2451843,65.0053368 C83.3612721,65.7882385 84.6220178,67.4036428 85.0415655,69.7011597 C85.2357616,70.75647 85.1593064,70.831665 84.1281174,70.831665 L54.3650777,70.831665 C54.2182838,70.831665 54.0695785,70.8423789 53.9227846,70.8251177 C53.5611517,70.78008 53.4021249,70.5656054 53.4432196,70.1943918 C53.8092487,66.8824358 56.3139198,64.5613089 59.4984686,64.6599156 C61.4203602,64.7178495 62.9351282,65.6402292 64.0615039,67.2534511 C64.1255351,67.3435265 64.1855524,67.4357843 64.2474811,67.5258596 C64.2535975,67.534391 64.268124,67.5367718 64.2784454,67.5431208" id="Fill-125" fill="#FFFFFF"></path>
                <path d="M59.2539825,65.0849075 C56.4273338,65.0849075 54.2436376,66.9901994 53.9121752,69.7729673 C53.9941766,69.784603 54.0752178,69.782756 54.1614442,69.7818326 L84.1987401,69.7798009 C84.2939924,69.7798009 84.5029328,69.7798009 84.6486918,69.7690888 C84.6387056,69.6736025 84.6143165,69.5350829 84.5778287,69.3537144 C84.1864495,67.367527 83.0226822,66.0307199 81.116485,65.3785692 C79.2024142,64.7242023 77.4262287,65.0557261 75.8405477,66.3681538 C75.56881,66.5944026 75.3254943,66.8703338 75.0679675,67.1628873 C74.9462137,67.3012223 74.8246518,67.4386338 74.6988651,67.571428 L74.2162665,68.0861671 L73.8310326,67.50106 C72.8274273,65.9780824 71.1280582,65.0703168 69.2788972,65.0703168 C69.2727518,65.0703168 69.2667986,65.071425 69.2587329,65.071425 C67.4072674,65.0771504 65.7102027,65.9947047 64.718696,67.5235925 L64.4123909,67.9954829 L63.5933368,67.2836765 C62.5307749,65.8737309 61.1315656,65.1347746 59.4354611,65.0869392 C59.3745841,65.0860157 59.3148595,65.0849075 59.2539825,65.0849075 M54.0631193,70.8349515 C53.953656,70.8349515 53.8714625,70.8318117 53.7904213,70.8231311 C53.125384,70.7470376 52.749176,70.2878911 52.8252242,69.6529169 C53.2246691,66.2998174 56.0198231,63.9422126 59.467916,64.0358519 C61.3912047,64.0884894 62.9941694,64.8704791 64.2359053,66.3592885 C65.4567088,64.8889484 67.2816727,64.0260632 69.254508,64.0183061 L69.2788972,64.0183061 C71.2640231,64.0183061 73.1030059,64.8841464 74.3337955,66.3681538 C74.5751908,66.0942542 74.8306051,65.8172149 75.126732,65.5715733 C77.0045071,64.0133194 79.2045267,63.6038552 81.483475,64.3878765 C83.7484044,65.1630326 85.1902469,66.8117861 85.6524891,69.1557236 C85.7475728,69.6335242 85.8472185,70.1279471 85.5430258,70.4808952 C85.2407536,70.8329198 84.7358783,70.8329198 84.1987401,70.8329198 L54.2943364,70.8329198 C54.203117,70.8338433 54.1280291,70.8349515 54.0631193,70.8349515" id="Fill-127" fill="#E10714"></path>
                <path d="M60.4518664,45.3691447 C61.0450842,46.2974381 61.0389448,46.6788329 60.4415062,47.5567388 C59.4872159,48.9606129 58.5310071,50.364487 57.5746065,51.7642914 C57.039521,52.5499493 56.4359429,52.7449103 55.5459244,52.4452983 C54.8199424,52.2001436 54.0897396,51.9633222 53.2891258,51.6972372 L53.2891258,52.2042133 L53.2891258,60.09742 C53.2891258,60.7741633 53.1791925,60.891605 52.521703,60.891605 C49.3499446,60.8937368 46.1802966,60.8937368 43.0087301,60.891605 C42.3842398,60.891605 42.2806377,60.7826905 42.2806377,60.1540091 C42.2806377,57.4823072 42.3738796,54.8067293 42.2576151,52.1392909 C42.1001015,48.4724352 45.5558063,45.838524 49.0222551,46.5720501 C51.2272526,47.0371658 53.2912362,47.8982112 55.3799692,48.6966598 C55.4298517,48.7154582 55.4795423,48.7342566 55.5687552,48.7679775 C55.6518287,48.6526676 55.7410416,48.5373576 55.8198943,48.417978 C56.4959938,47.4162351 57.1784245,46.4189496 57.8443556,45.4111989 C58.2198172,44.8412384 58.7259325,44.6232155 59.3730618,44.7951145 L60.4518664,45.3691447 Z" id="Fill-129" fill="#FFFFFF"></path>
                <path d="M42.7644463,59.8148709 C42.8073658,59.8169435 42.8645917,59.8188277 42.9430841,59.8188277 L52.5290125,59.8188277 C52.6291579,59.8188277 52.6974038,59.815813 52.7434165,59.8118561 C52.7486365,59.7641856 52.7515364,59.6916436 52.7515364,59.5840552 L52.7515364,50.6762669 L55.7512594,51.6351411 C56.4269511,51.8540862 56.7689535,51.7415989 57.167022,51.177655 L60.056353,47.0872249 C60.5033341,46.4526232 60.5300138,46.2894506 60.1350387,45.6738794 L59.1776638,45.1813471 C58.8805141,45.1246324 58.6071442,45.2301481 58.3509807,45.6032216 C57.8732599,46.3015096 57.3874192,46.9937681 56.9015786,47.6860266 L56.3086325,48.5316598 C56.2523732,48.6132461 56.189154,48.6957744 56.1259348,48.7783028 L55.8798245,49.1095468 L55.2143794,49.0021469 L54.3347236,48.6748597 C52.5769586,48.0184012 50.759261,47.3398974 48.8905241,46.9590986 C47.3187435,46.6406673 45.657064,47.0514249 44.4383057,48.0602306 C43.2932065,49.0081764 42.6726141,50.3798808 42.7368,51.8241273 C42.818579,53.6307072 42.7980859,55.4649851 42.7777861,57.2385914 C42.7685063,58.0393804 42.7603864,58.8401693 42.7603864,59.6398278 C42.7603864,59.7165151 42.762513,59.7730414 42.7644463,59.8148709 M52.5290125,60.8932039 L42.9430841,60.8932039 C42.0062023,60.8932039 41.6580133,60.5529157 41.6580133,59.6398278 C41.6580133,58.8360241 41.6672932,58.0312783 41.6765731,57.2267208 C41.6959062,55.4679998 41.7162059,53.6486072 41.6367469,51.8710441 C41.5570945,50.0932925 42.3184318,48.4063599 43.7258811,47.2415416 C45.2027362,46.0200087 47.2124114,45.5186206 49.1161413,45.9084635 C51.0714905,46.3064085 52.9301742,47.0007397 54.7285387,47.6722719 L55.4011371,47.9219296 L55.9921498,47.0793112 C56.4758638,46.3910095 56.9597712,45.7015773 57.4343987,45.0081883 C57.9476923,44.2582729 58.7070963,43.9688584 59.5736056,44.1876151 L60.9054625,44.8561326 L60.9841482,44.9735188 C61.6965727,46.0518518 61.6925128,46.6625241 60.9648151,47.6950708 L58.0743241,51.7873852 C57.403659,52.7364615 56.5290298,53.0189044 55.4022971,52.6539331 L53.8539095,52.1574439 L53.8539095,59.5840552 C53.8539095,60.5380304 53.4945073,60.8932039 52.5290125,60.8932039" id="Fill-131" fill="#293273"></path>
                <path d="M62.7707666,32.9407913 L75.2138116,32.9407913 C76.4829894,32.9407913 77.0469844,33.5024718 77.0469844,34.7654919 C77.0490635,39.7728584 77.0490635,44.7781319 77.0469844,49.7832152 C77.0469844,50.9784987 76.472594,51.5586355 75.2935723,51.5586355 L60.496264,51.5586355 C60.3879633,51.5586355 60.2530128,51.5976411 60.1815684,51.5462679 C60.0180779,51.4248749 59.7973184,51.2747509 59.7646203,51.1059804 C59.7135886,50.8365564 59.9301899,50.6782508 60.2101083,50.6637902 C60.3288043,50.6556085 60.4492014,50.6616972 60.5678974,50.6616972 C65.4478527,50.6596042 70.325729,50.6616972 75.2056844,50.6596042 C75.996676,50.6596042 76.1497712,50.5094803 76.1497712,49.729749 L76.1497712,34.7944131 C76.1497712,34.0023142 76.0048033,33.8542832 75.224207,33.8542832 L50.2969134,33.8542832 C49.5019527,33.8542832 49.3732393,33.9859509 49.3732393,34.7841384 C49.3732393,35.2120583 49.3711603,35.6399782 49.3732393,36.0678981 C49.3732393,36.3907882 49.2178761,36.5964714 48.9012904,36.5861967 C48.6007703,36.5759221 48.472057,36.36396 48.4781052,36.0637121 C48.4843424,35.608964 48.5068342,35.1502202 48.472057,34.6975651 C48.3883272,33.5620267 49.185367,32.9099674 50.2479608,32.9326096 C51.6294083,32.9634336 53.0127459,32.9407913 54.3941934,32.9407913 L62.7707666,32.9407913 Z" id="Fill-133" fill="#293273"></path>
                <path d="M79.5464785,54.6797758 C81.9535043,54.7025549 83.9122226,56.6831912 83.8831762,59.0715548 C83.8543209,61.4599184 81.8873856,63.3951877 79.507113,63.3785341 C77.0423766,63.3618804 75.1579941,61.3957922 75.1847474,58.8709452 C75.2095896,56.5941802 77.2220054,54.6591023 79.5464785,54.6797758" id="Fill-135" fill="#FFFFFF"></path>
                <path d="M79.5103487,55.1654396 C77.4817274,55.1654396 75.6904773,56.89056 75.6700979,58.8742055 C75.6576762,59.9854747 76.0573061,61.0106336 76.7930986,61.7597732 C77.5021068,62.4822828 78.4673128,62.8844545 79.5103487,62.8916466 L79.537133,62.8916466 C81.6437783,62.8916466 83.373308,61.1809102 83.3979573,59.0660584 C83.410379,58.0500353 83.0208418,57.084551 82.299606,56.3466854 C81.5659485,55.5954076 80.5863798,55.1757417 79.5431498,55.1664115 C79.5309222,55.1664115 79.5206355,55.1654396 79.5103487,55.1654396 M79.537133,64 L79.502197,64 C78.1639513,63.9906698 76.920033,63.4705095 76.0041256,62.5355428 C75.0614339,61.5751124 74.5490381,60.2696579 74.5634007,58.8617652 C74.592126,56.2481349 76.8503549,54.0582524 79.5084078,54.0582524 L79.5514957,54.0582524 C80.8938172,54.0704984 82.1499631,54.6081528 83.0905199,55.5718877 C84.018849,56.522016 84.520958,57.7677959 84.5044604,59.0792762 C84.4716593,61.7986491 82.2462314,64 79.537133,64" id="Fill-137" fill="#E10714"></path>
                <path d="M69.5777904,63.3786408 C67.1629117,63.3703832 65.232425,61.4206896 65.2427184,58.9970203 C65.2509892,56.6127852 67.22492,54.6609858 69.6045841,54.6797458 C72.0255871,54.6983143 73.9501409,56.6437965 73.9417476,59.0653601 C73.9334905,61.4495952 71.9760187,63.386846 69.5777904,63.3786408" id="Fill-139" fill="#FFFFFF"></path>
                <path d="M69.5708702,55.1666059 C68.5612724,55.1666059 67.6051182,55.5617799 66.8765365,56.2831232 C66.1399869,57.0116586 65.7336213,57.9763654 65.729509,58.9984142 C65.725459,60.0410673 66.1215245,61.0189919 66.8458308,61.7516092 C67.570137,62.4834491 68.5406723,62.8887309 69.5790325,62.8918409 L69.5912759,62.8918409 C71.7171642,62.8918409 73.4489305,61.1779945 73.4551787,59.0641146 C73.4633117,56.894642 71.7684701,55.1829338 69.5994382,55.1666059 L69.5708702,55.1666059 Z M69.5912759,64 L69.5749513,64 C68.2409996,63.9949461 66.991586,63.4736196 66.0599187,62.530489 C65.1263079,61.5875527 64.6153874,60.3314707 64.6213592,58.9943322 C64.6256874,57.6756599 65.1509892,56.43299 66.0989811,55.4949133 C67.0366729,54.5683049 68.2678186,54.0582524 69.5687324,54.0582524 L69.6076005,54.0582524 C72.3491588,54.0788567 74.5714399,56.3262756 74.5631068,59.0681965 C74.5529776,61.7906796 72.3244776,63.9990281 69.5912759,64 L69.5912759,64 Z" id="Fill-141" fill="#E10714"></path>
                <path d="M64,59.0196828 C64.0040032,61.4226436 62.0411608,63.3847521 59.6424495,63.3786408 C57.2521386,63.3723094 55.3343532,61.4578658 55.3013241,59.0445681 C55.2703952,56.6728096 57.2746671,54.6651419 59.6588685,54.6796117 C62.0493703,54.6921329 63.9959846,56.6395016 64,59.0196828" id="Fill-143" fill="#FFFFFF"></path>
                <path d="M59.6341919,54.5452466 C58.6278774,54.5452466 57.6345564,54.9660788 56.9045954,55.7027782 C56.1695922,56.4447257 55.772225,57.4094325 55.7856063,58.4170972 C55.8152779,60.5719913 57.509664,62.2652335 59.6435007,62.2704817 L59.6537791,62.2704817 C60.6825897,62.2704817 61.6510874,61.8671437 62.3831816,61.134332 C63.1152759,60.4007427 63.5174914,59.4298158 63.5155591,58.399603 C63.5124492,56.2857231 61.7812159,54.5565207 59.6557184,54.5452466 L59.6341919,54.5452466 Z M59.6537791,63.3786408 L59.6413674,63.3786408 C56.8976138,63.3714487 54.7187849,61.1990604 54.6799985,58.4314813 C54.6635143,57.124083 55.1743318,55.8773312 56.1203334,54.9217602 C57.0562504,53.9778521 58.3360094,53.4368932 59.6341919,53.4368932 L59.6619242,53.4368932 C62.3913268,53.4522492 64.6170873,55.67712 64.6213592,58.3974649 C64.6232931,59.7244955 64.1053001,60.9753293 63.1643408,61.91846 C62.2235754,62.8604243 60.9775606,63.3786408 59.6537791,63.3786408 L59.6537791,63.3786408 Z" id="Fill-145" fill="#E10714"></path>
                <path d="M47.5350025,45.9805825 C45.3093011,45.9826277 43.4971912,44.1739449 43.4951456,41.9488185 C43.4931036,39.725739 45.3052135,37.9049612 47.5249693,37.9029126 C49.7387794,37.9008675 51.5748576,39.7316936 51.5728155,41.9387703 C51.57077,44.1579422 49.7529002,45.9766731 47.5350025,45.9805825" id="Fill-147" fill="#FFFFFF"></path>
                <path d="M47.5294318,38.363735 L47.5254517,38.363735 C45.5543276,38.3646839 43.9522207,39.9729629 43.9543035,41.9488647 C43.9554427,43.9186932 45.5602031,45.5197602 47.5315167,45.5197602 L47.5343596,45.5197602 C49.5066209,45.5167235 51.1125184,43.9095833 51.1136574,41.9388058 C51.1146033,40.9970687 50.7414164,40.1041076 50.0619472,39.4248499 C49.3784978,38.7404678 48.478983,38.363735 47.5294318,38.363735 L47.5294318,38.363735 Z M47.5315167,46.6019417 C44.9648857,46.6019417 42.8766314,44.515772 42.8737864,41.9488647 C42.8726512,40.7083984 43.3569033,39.5379646 44.2374651,38.6543032 C45.1180269,37.7706418 46.2857284,37.2826921 47.5254517,37.2815534 L47.5294318,37.2815534 C48.7682075,37.2815534 49.9379938,37.7715907 50.8253787,38.6603765 C51.708973,39.5440379 52.19531,40.7093474 52.1941748,41.9388058 C52.1913298,44.5057132 50.1019383,46.5968174 47.5364445,46.6019417 L47.5354968,46.6019417 L47.5315167,46.6019417 Z" id="Fill-149" fill="#293273"></path>
                <path d="M60.1789935,45.3592233 C60.0780952,45.3592233 59.9758961,45.3301909 59.8855893,45.2710237 C59.6423555,45.1098756 59.5776913,44.7850069 59.7395375,44.5442954 L63.6526472,38.7569296 C63.8154224,38.5143806 64.1430169,38.4533758 64.3864365,38.6123189 C64.6298562,38.773467 64.6943345,39.0983356 64.5315592,39.3390471 L60.6204935,45.126413 C60.5184803,45.2778224 60.350688,45.3592233 60.1789935,45.3592233" id="Fill-151" fill="#293273"></path>
            </g>
        </g>
    </g>
</svg>