<?xml version="1.0" encoding="utf-8"?>
<!-- Generator: Adobe Illustrator 16.0.0, SVG Export Plug-In . SVG Version: 6.00 Build 0)  -->
<!DOCTYPE svg PUBLIC "-//W3C//DTD SVG 1.1//EN" "http://www.w3.org/Graphics/SVG/1.1/DTD/svg11.dtd">
<svg version="1.1" id="Calque_1" xmlns="http://www.w3.org/2000/svg" xmlns:xlink="http://www.w3.org/1999/xlink" x="0px" y="0px"
	 width="283.465px" height="283.465px" viewBox="0 0 283.465 283.465" enable-background="new 0 0 283.465 283.465"
	 xml:space="preserve">
<g>
	<defs>
		<rect id="SVGID_1_" width="283.465" height="283.465"/>
	</defs>
	<clipPath id="SVGID_2_">
		<use xlink:href="#SVGID_1_"  overflow="visible"/>
	</clipPath>
	<path clip-path="url(#SVGID_2_)" fill="#FFFFFF" d="M236.554,147.009c0,52.102-42.235,94.337-94.337,94.337
		c-52.1,0-94.337-42.235-94.337-94.337s42.237-94.337,94.337-94.337C194.318,52.672,236.554,94.907,236.554,147.009"/>
	<path clip-path="url(#SVGID_2_)" fill="#00007E" d="M47.882,147.013c0-52.107,42.232-94.338,94.335-94.34
		c52.101,0.002,94.335,42.233,94.337,94.34c-0.002,52.104-42.236,94.333-94.337,94.333
		C90.114,241.346,47.882,199.116,47.882,147.013 M78.137,82.931c-16.398,16.406-26.54,39.046-26.54,64.082
		c0,25.028,10.142,47.672,26.54,64.077c16.405,16.403,39.047,26.54,64.08,26.54c25.03,0,47.677-10.137,64.079-26.54
		c16.4-16.405,26.54-39.049,26.54-64.077c0-25.036-10.14-47.676-26.54-64.082c-16.402-16.4-39.049-26.538-64.079-26.538
		C117.184,56.393,94.542,66.531,78.137,82.931"/>
	<path clip-path="url(#SVGID_2_)" fill="#00007E" d="M77.648,147.014c0-35.662,28.911-64.573,64.568-64.573
		c35.66,0,64.567,28.911,64.567,64.573c0,35.657-28.907,64.564-64.567,64.566C106.56,211.578,77.648,182.671,77.648,147.014
		 M98.06,102.854c-11.301,11.303-18.288,26.91-18.288,44.16c0,17.245,6.987,32.849,18.288,44.153
		c11.305,11.305,26.91,18.288,44.157,18.29c34.485-0.002,62.445-27.956,62.445-62.443c0-17.25-6.987-32.857-18.288-44.16
		c-11.308-11.302-26.91-18.29-44.157-18.291C124.97,84.563,109.365,91.551,98.06,102.854"/>
</g>
<text transform="matrix(0.3899 0.9209 -0.9209 0.3899 63.9629 176.3154)" fill="#D7000F" font-family="'Marianne-Bold'" font-size="13.6337">L</text>
<text transform="matrix(0.444 0.896 -0.896 0.444 66.6533 182.5762)" fill="#D7000F" font-family="'Marianne-Bold'" font-size="13.6337">’</text>
<text transform="matrix(0.5099 0.8602 -0.8602 0.5099 68.4248 186.292)" fill="#D7000F" font-family="'Marianne-Bold'" font-size="13.6337">É</text>
<text transform="matrix(0.604 0.797 -0.797 0.604 72.6958 193.5635)" fill="#D7000F" font-family="'Marianne-Bold'" font-size="13.6337">C</text>
<text transform="matrix(0.7068 0.7074 -0.7074 0.7068 79.2739 202.2236)" fill="#D7000F" font-family="'Marianne-Bold'" font-size="13.6337">O</text>
<text transform="matrix(0.7865 0.6176 -0.6176 0.7865 87.8989 210.626)" fill="#D7000F" font-family="'Marianne-Bold'" font-size="13.6337">L</text>
<text transform="matrix(0.8435 0.5372 -0.5372 0.8435 94.1948 215.5488)" fill="#D7000F" font-family="'Marianne-Bold'" font-size="13.6337">E</text>
<text transform="matrix(0.8814 0.4724 -0.4724 0.8814 101.334 219.9814)" fill="#D7000F" font-family="'Marianne-Bold'" font-size="13.6337"> </text>
<text transform="matrix(0.9219 0.3874 -0.3874 0.9219 105.0259 222.1172)" fill="#D7000F" font-family="'Marianne-Bold'" font-size="13.6336">D</text>
<text transform="matrix(0.9623 0.2721 -0.2721 0.9623 115.7529 226.4814)" fill="#D7000F" font-family="'Marianne-Bold'" font-size="13.6337">E</text>
<text transform="matrix(0.9801 0.1986 -0.1986 0.9801 123.8721 228.6738)" fill="#D7000F" font-family="'Marianne-Bold'" font-size="13.6337"> </text>
<text transform="matrix(0.9918 0.1277 -0.1277 0.9918 127.9111 229.5439)" fill="#D7000F" font-family="'Marianne-Bold'" font-size="13.6337">L</text>
<text transform="matrix(0.9999 0.0162 -0.0162 0.9999 136.3208 230.6172)" fill="#D7000F" font-family="'Marianne-Bold'" font-size="13.6337">A</text>
<text transform="matrix(0.997 -0.0774 0.0774 0.997 147.0732 230.5938)" fill="#D7000F" font-family="'Marianne-Bold'" font-size="13.6336"> </text>
<text transform="matrix(0.9862 -0.1654 0.1654 0.9862 151.2891 230.3848)" fill="#D7000F" font-family="'Marianne-Bold'" font-size="13.6337">C</text>
<text transform="matrix(0.954 -0.3 0.3 0.954 162.041 228.5684)" fill="#D7000F" font-family="'Marianne-Bold'" font-size="13.6337">O</text>
<text transform="matrix(0.8992 -0.4375 0.4375 0.8992 173.6768 224.8457)" fill="#D7000F" font-family="'Marianne-Bold'" font-size="13.6337">N</text>
<text transform="matrix(0.8392 -0.5438 0.5438 0.8392 184.6035 219.3389)" fill="#D7000F" font-family="'Marianne-Bold'" font-size="13.6337">F</text>
<text transform="matrix(0.7943 -0.6075 0.6075 0.7943 191.1611 215.0059)" fill="#D7000F" font-family="'Marianne-Bold'" font-size="13.6337">I</text>
<text transform="matrix(0.7324 -0.6808 0.6808 0.7324 195.4717 211.8359)" fill="#D7000F" font-family="'Marianne-Bold'" font-size="13.6336">A</text>
<text transform="matrix(0.631 -0.7758 0.7758 0.631 203.5479 204.3105)" fill="#D7000F" font-family="'Marianne-Bold'" font-size="13.6337">N</text>
<text transform="matrix(0.5177 -0.8556 0.8556 0.5177 211.249 194.6748)" fill="#D7000F" font-family="'Marianne-Bold'" font-size="13.6336">C</text>
<text transform="matrix(0.4141 -0.9103 0.9103 0.4141 216.7666 185.3477)" fill="#D7000F" font-family="'Marianne-Bold'" font-size="13.6337">E</text>
<text transform="matrix(0.5595 -0.8288 0.8288 0.5595 80.46 111.7559)" fill="#00007E" font-family="'Marianne-ExtraBold'" font-size="16.4603">É</text>
<text transform="matrix(0.6609 -0.7505 0.7505 0.6609 85.7783 103.874)" fill="#00007E" font-family="'Marianne-ExtraBold'" font-size="16.4603">g</text>
<text transform="matrix(0.747 -0.6648 0.6648 0.747 91.4629 97.3608)" fill="#00007E" font-family="'Marianne-ExtraBold'" font-size="16.4603">a</text>
<text transform="matrix(0.8066 -0.5911 0.5911 0.8066 98.332 91.376)" fill="#00007E" font-family="'Marianne-ExtraBold'" font-size="16.4603">l</text>
<text transform="matrix(0.8427 -0.5385 0.5385 0.8427 102.0068 88.6753)" fill="#00007E" font-family="'Marianne-ExtraBold'" font-size="16.4603">i</text>
<text transform="matrix(0.8832 -0.469 0.469 0.8832 105.8037 86.1807)" fill="#00007E" font-family="'Marianne-ExtraBold'" font-size="16.4603">t</text>
<text transform="matrix(0.9296 -0.3686 0.3686 0.9296 111.6641 82.9648)" fill="#00007E" font-family="'Marianne-ExtraBold'" font-size="16.4603">é</text>
<text transform="matrix(0.9602 -0.2792 0.2792 0.9602 120.2734 79.6655)" fill="#00007E" font-family="'Marianne-ExtraBold'" font-size="16.4603"> </text>
<text transform="matrix(0.9839 -0.1785 0.1785 0.9839 124.25 78.3271)" fill="#00007E" font-family="'Marianne-ExtraBold'" font-size="16.4603">d</text>
<text transform="matrix(0.9991 -0.0435 0.0435 0.9991 134.4502 76.4951)" fill="#00007E" font-family="'Marianne-ExtraBold'" font-size="16.4603">e</text>
<text transform="matrix(0.9976 0.0688 -0.0688 0.9976 143.4912 76.125)" fill="#00007E" font-family="'Marianne-ExtraBold'" font-size="16.4603">s</text>
<text transform="matrix(0.9887 0.1499 -0.1499 0.9887 150.9268 76.6953)" fill="#00007E" font-family="'Marianne-ExtraBold'" font-size="16.4603"> </text>
<text transform="matrix(0.9711 0.2386 -0.2386 0.9711 155.0781 77.21)" fill="#00007E" font-family="'Marianne-ExtraBold'" font-size="16.4603">c</text>
<text transform="matrix(0.9322 0.3618 -0.3618 0.9322 163.4346 79.2012)" fill="#00007E" font-family="'Marianne-ExtraBold'" font-size="16.4603">h</text>
<text transform="matrix(0.8763 0.4817 -0.4817 0.8763 172.5303 82.7344)" fill="#00007E" font-family="'Marianne-ExtraBold'" font-size="16.4603">a</text>
<text transform="matrix(0.8057 0.5923 -0.5923 0.8057 180.4707 87.0449)" fill="#00007E" font-family="'Marianne-ExtraBold'" font-size="16.4603">n</text>
<text transform="matrix(0.7238 0.69 -0.69 0.7238 188.3047 92.8223)" fill="#00007E" font-family="'Marianne-ExtraBold'" font-size="16.4603">c</text>
<text transform="matrix(0.6365 0.7713 -0.7713 0.6365 194.3438 98.502)" fill="#00007E" font-family="'Marianne-ExtraBold'" font-size="16.4603">e</text>
<text transform="matrix(0.5454 0.8382 -0.8382 0.5454 200.0566 105.4609)" fill="#00007E" font-family="'Marianne-ExtraBold'" font-size="16.4603">s</text>
<text transform="matrix(1 0 0 1 107.7061 172.2441)"><tspan x="0" y="0" fill="#00007E" font-family="'Marianne-ExtraBold'" font-size="14">D</tspan><tspan x="11.046" y="0" fill="#00007E" font-family="'Marianne-ExtraBold'" font-size="14">E</tspan><tspan x="19.558" y="0" fill="#00007E" font-family="'Marianne-ExtraBold'" font-size="14">V</tspan><tspan x="29.875" y="0" fill="#00007E" font-family="'Marianne-ExtraBold'" font-size="14">OIRS </tspan></text>
<text transform="matrix(1 0 0 1 121.9443 189.0439)"><tspan x="0" y="0" fill="#00007E" font-family="'Marianne-ExtraBold'" font-size="14">F</tspan><tspan x="6.986" y="0" fill="#00007E" font-family="'Marianne-ExtraBold'" font-size="14">AI</tspan><tspan x="22.722" y="0" fill="#00007E" font-family="'Marianne-ExtraBold'" font-size="14">T</tspan><tspan x="31.598" y="0" fill="#00007E" font-family="'Marianne-ExtraBold'" font-size="14">S</tspan></text>
<g>
	<defs>
		<rect id="SVGID_3_" width="283.465" height="283.465"/>
	</defs>
	<clipPath id="SVGID_4_">
		<use xlink:href="#SVGID_3_"  overflow="visible"/>
	</clipPath>
	
		<path clip-path="url(#SVGID_4_)" fill="none" stroke="#00007E" stroke-width="1.6" stroke-linecap="round" stroke-linejoin="round" stroke-miterlimit="10" d="
		M139.238,153.386L139.238,153.386c-0.316-1.415-6.347-6.719-13.588-6.719h-13.589v-35.071h15.645
		c6.369,0,11.532,5.163,11.532,11.532V153.386z"/>
	
		<path clip-path="url(#SVGID_4_)" fill="none" stroke="#00007E" stroke-width="1.6" stroke-linecap="round" stroke-linejoin="round" stroke-miterlimit="10" d="
		M139.55,153.386L139.55,153.386c0.316-1.415,6.346-6.719,13.588-6.719h13.588v-35.071h-15.644c-6.37,0-11.533,5.163-11.533,11.532
		V153.386z"/>
	
		<line clip-path="url(#SVGID_4_)" fill="none" stroke="#00007E" stroke-width="1.6" stroke-linecap="round" stroke-linejoin="round" stroke-miterlimit="10" x1="117.752" y1="112.707" x2="117.752" y2="146.667"/>
	
		<line clip-path="url(#SVGID_4_)" fill="none" stroke="#00007E" stroke-width="1.6" stroke-linecap="round" stroke-linejoin="round" stroke-miterlimit="10" x1="146.141" y1="112.707" x2="146.141" y2="147.732"/>
	
		<line clip-path="url(#SVGID_4_)" fill="none" stroke="#00007E" stroke-width="1.6" stroke-linecap="round" stroke-linejoin="round" stroke-miterlimit="10" x1="117.752" y1="120.376" x2="130.771" y2="120.376"/>
	
		<line clip-path="url(#SVGID_4_)" fill="none" stroke="#00007E" stroke-width="1.6" stroke-linecap="round" stroke-linejoin="round" stroke-miterlimit="10" x1="117.752" y1="128.864" x2="130.771" y2="128.864"/>
	
		<line clip-path="url(#SVGID_4_)" fill="none" stroke="#00007E" stroke-width="1.6" stroke-linecap="round" stroke-linejoin="round" stroke-miterlimit="10" x1="117.752" y1="137.351" x2="130.771" y2="137.351"/>
	
		<line clip-path="url(#SVGID_4_)" fill="none" stroke="#00007E" stroke-width="1.6" stroke-linecap="round" stroke-linejoin="round" stroke-miterlimit="10" x1="146.629" y1="120.376" x2="159.647" y2="120.376"/>
	
		<line clip-path="url(#SVGID_4_)" fill="none" stroke="#00007E" stroke-width="1.6" stroke-linecap="round" stroke-linejoin="round" stroke-miterlimit="10" x1="146.629" y1="128.864" x2="159.647" y2="128.864"/>
	
		<line clip-path="url(#SVGID_4_)" fill="none" stroke="#00007E" stroke-width="1.6" stroke-linecap="round" stroke-linejoin="round" stroke-miterlimit="10" x1="146.629" y1="137.351" x2="159.647" y2="137.351"/>
	<path clip-path="url(#SVGID_4_)" fill="#FFFFFF" d="M175.432,112.707c0,6.114-4.957,11.071-11.071,11.071
		c-6.115,0-11.071-4.957-11.071-11.071c0-6.114,4.956-11.071,11.071-11.071"/>
	
		<path clip-path="url(#SVGID_4_)" fill="none" stroke="#D7000F" stroke-width="1.6" stroke-linecap="round" stroke-linejoin="round" stroke-miterlimit="10" d="
		M175.432,112.707c0,6.114-4.957,11.071-11.071,11.071c-6.115,0-11.071-4.957-11.071-11.071c0-6.114,4.956-11.071,11.071-11.071"/>
	
		<path clip-path="url(#SVGID_4_)" fill="none" stroke="#D7000F" stroke-width="1.6" stroke-linecap="round" stroke-linejoin="round" stroke-miterlimit="10" d="
		M160.187,110.558l4.87,5.819c0,0,2.72-8.096,9.298-13.662"/>
</g>
</svg>
