<?xml version="1.0" encoding="utf-8"?>
<!-- Generator: Adobe Illustrator 16.0.0, SVG Export Plug-In . SVG Version: 6.00 Build 0)  -->
<!DOCTYPE svg PUBLIC "-//W3C//DTD SVG 1.1//EN" "http://www.w3.org/Graphics/SVG/1.1/DTD/svg11.dtd">
<svg version="1.1" xmlns="http://www.w3.org/2000/svg" xmlns:xlink="http://www.w3.org/1999/xlink" x="0px" y="0px"
	 width="283.465px" height="283.465px" viewBox="0 0 283.465 283.465" enable-background="new 0 0 283.465 283.465"
	 xml:space="preserve">
<g id="Calque_2">
</g>
<g id="Calque_1">
	<path fill="#FFFFFF" d="M238.289,147.467c0,52.102-42.235,94.337-94.337,94.337c-52.1,0-94.337-42.235-94.337-94.337
		S91.853,53.13,143.952,53.13C196.054,53.13,238.289,95.365,238.289,147.467"/>
	<path fill="#00007E" d="M49.617,147.471c0-52.107,42.231-94.338,94.335-94.34c52.101,0.002,94.335,42.233,94.337,94.34
		c-0.002,52.104-42.236,94.333-94.337,94.333C91.849,241.804,49.617,199.574,49.617,147.471 M79.872,83.389
		c-16.398,16.406-26.54,39.046-26.54,64.082c0,25.028,10.142,47.672,26.54,64.077c16.404,16.403,39.047,26.54,64.08,26.54
		c25.03,0,47.677-10.137,64.079-26.54c16.4-16.405,26.54-39.049,26.54-64.077c0-25.036-10.14-47.676-26.54-64.082
		c-16.402-16.4-39.049-26.538-64.079-26.538C118.919,56.851,96.276,66.989,79.872,83.389"/>
	<path fill="#00007E" d="M79.384,147.472c0-35.662,28.911-64.573,64.568-64.573c35.66,0,64.567,28.911,64.567,64.573
		c0,35.657-28.907,64.564-64.567,64.566C108.295,212.036,79.384,183.129,79.384,147.472 M99.795,103.312
		c-11.301,11.303-18.288,26.91-18.288,44.16c0,17.245,6.987,32.849,18.288,44.153c11.306,11.305,26.91,18.288,44.157,18.29
		c34.485-0.002,62.445-27.956,62.445-62.443c0-17.25-6.987-32.857-18.288-44.16c-11.308-11.302-26.91-18.29-44.157-18.291
		C126.705,85.021,111.101,92.009,99.795,103.312"/>
	<g>
		<path fill="#D7000F" d="M75.028,174.347l0.755,1.782l-7.164,3.033l1.413,3.338l-1.619,0.686l-2.168-5.12L75.028,174.347z"/>
	</g>
	
		<text transform="matrix(0.444 0.896 -0.896 0.444 68.3887 183.0342)" fill="#D7000F" font-family="'Marianne-Bold'" font-size="13.6337">’</text>
	<g>
		<path fill="#D7000F" d="M79.081,183.093l2.834,4.783l-1.383,0.819l-1.848-3.118l-1.945,1.152l1.57,2.65l-1.384,0.82l-1.57-2.65
			l-2.11,1.252l1.848,3.117l-1.383,0.82l-2.834-4.783L79.081,183.093z M80.743,184.294l2.367,0.387l1.014,1.711l-2.484-0.586
			L80.743,184.294z"/>
	</g>
	<g>
		<path fill="#D7000F" d="M81.623,198.794l-0.013,1.924c-1.472,0.021-2.936-0.647-3.98-2.026c-1.818-2.4-1.215-5.439,0.957-7.086
			c2.172-1.645,5.26-1.404,7.079,0.995c1.046,1.38,1.282,2.978,0.886,4.372l-1.866-0.5c0.289-0.903,0.194-1.908-0.464-2.777
			c-1.086-1.434-2.979-1.606-4.434-0.504c-1.455,1.104-1.8,2.971-0.713,4.404C79.733,198.465,80.675,198.828,81.623,198.794z"/>
	</g>
	<g>
		<path fill="#D7000F" d="M91.954,206.886c-1.928,1.926-5.021,2.107-7.141-0.012c-2.128-2.131-1.943-5.224-0.016-7.15
			c1.928-1.926,5.021-2.107,7.148,0.022C94.065,201.866,93.882,204.959,91.954,206.886z M90.548,205.478
			c1.291-1.29,1.379-3.188,0.117-4.45c-1.271-1.272-3.17-1.187-4.461,0.104c-1.292,1.29-1.379,3.188-0.107,4.461
			C87.358,206.854,89.256,206.769,90.548,205.478z"/>
	</g>
	<g>
		<path fill="#D7000F" d="M96.629,204.448l1.522,1.195l-4.806,6.119l2.851,2.238l-1.086,1.382l-4.372-3.434L96.629,204.448z"/>
	</g>
	<g>
		<path fill="#D7000F" d="M102.237,208.715l4.689,2.986l-0.863,1.356l-3.058-1.947l-1.216,1.908l2.598,1.654l-0.863,1.355
			l-2.598-1.654l-1.318,2.07l3.058,1.946l-0.863,1.355l-4.689-2.986L102.237,208.715z"/>
	</g>
	
		<text transform="matrix(0.8814 0.4724 -0.4724 0.8814 103.0693 220.4395)" fill="#D7000F" font-family="'Marianne-Bold'" font-size="13.6337"> </text>
	<g>
		<path fill="#D7000F" d="M111.75,214.326l3.455,1.452c2.788,1.172,3.823,3.985,2.825,6.359c-0.998,2.375-3.732,3.605-6.521,2.434
			l-3.454-1.452L111.75,214.326z M112.853,216.696l-2.333,5.552l1.696,0.713c1.633,0.687,3.325-0.035,3.98-1.594
			c0.66-1.57-0.015-3.271-1.647-3.958L112.853,216.696z"/>
	</g>
	<g>
		<path fill="#D7000F" d="M121.434,218.144l5.351,1.513l-0.438,1.547l-3.488-0.986l-0.615,2.178l2.963,0.838l-0.438,1.547
			l-2.963-0.838l-0.668,2.36l3.488,0.986l-0.438,1.547l-5.35-1.513L121.434,218.144z"/>
	</g>
	
		<text transform="matrix(0.9801 0.1986 -0.1986 0.9801 125.6074 229.1318)" fill="#D7000F" font-family="'Marianne-Bold'" font-size="13.6337"> </text>
	<g>
		<path fill="#D7000F" d="M132.256,220.722l1.919,0.247l-0.993,7.717l3.595,0.463l-0.224,1.743l-5.515-0.71L132.256,220.722z"/>
	</g>
	<g>
		<path fill="#D7000F" d="M142.024,221.6l2.535,0.041l3.455,9.596l-2.057-0.033l-0.873-2.494l-3.815-0.063l-0.952,2.465
			l-2.058-0.033L142.024,221.6z M144.513,227.051l-1.25-3.604l-1.367,3.562L144.513,227.051z"/>
	</g>
	
		<text transform="matrix(0.997 -0.0774 0.0774 0.997 148.8096 231.0508)" fill="#D7000F" font-family="'Marianne-Bold'" font-size="13.6336"> </text>
	<g>
		<path fill="#D7000F" d="M160.59,226.687l1.699,0.902c-0.664,1.314-1.936,2.301-3.643,2.588c-2.97,0.498-5.383-1.447-5.833-4.135
			c-0.451-2.688,1.195-5.313,4.165-5.811c1.707-0.285,3.233,0.246,4.285,1.243l-1.31,1.422c-0.666-0.675-1.601-1.058-2.676-0.877
			c-1.773,0.298-2.805,1.894-2.503,3.693c0.302,1.801,1.798,2.974,3.571,2.676C159.422,228.208,160.181,227.542,160.59,226.687z"/>
	</g>
	<g>
		<path fill="#D7000F" d="M172.563,221.265c0.818,2.601-0.45,5.428-3.31,6.326c-2.873,0.903-5.53-0.688-6.349-3.289
			c-0.816-2.599,0.451-5.426,3.324-6.33C169.088,217.073,171.746,218.666,172.563,221.265z M170.665,221.862
			c-0.548-1.742-2.19-2.696-3.893-2.161c-1.716,0.54-2.518,2.263-1.97,4.004c0.548,1.742,2.19,2.696,3.906,2.157
			C170.411,225.327,171.213,223.604,170.665,221.862z"/>
	</g>
	<g>
		<path fill="#D7000F" d="M172.5,216.113l2.23-1.085l6.852,4.334l-3.017-6.2l1.739-0.847l4.173,8.577l-2.229,1.085l-6.851-4.334
			l3.016,6.199l-1.74,0.848L172.5,216.113z"/>
	</g>
	<g>
		<path fill="#D7000F" d="M182.33,211.029l4.665-3.023l0.874,1.349l-3.041,1.972l1.229,1.897l2.584-1.674l0.875,1.35l-2.584,1.674
			l2.208,3.408l-1.624,1.053L182.33,211.029z"/>
	</g>
	<g>
		<path fill="#D7000F" d="M188.217,207.035l1.537-1.177l5.795,7.576l-1.537,1.177L188.217,207.035z"/>
	</g>
	<g>
		<path fill="#D7000F" d="M193.509,202.71l1.855-1.726l9.14,4.527l-1.507,1.401l-2.357-1.195l-2.795,2.598l1.02,2.438l-1.507,1.401
			L193.509,202.71z M199.077,204.919l-3.396-1.734l1.48,3.515L199.077,204.919z"/>
	</g>
	<g>
		<path fill="#D7000F" d="M198.771,197.66l1.565-1.925l8.039,1.043l-5.348-4.351l1.221-1.501l7.398,6.019l-1.564,1.924l-8.039-1.042
			l5.348,4.35l-1.221,1.502L198.771,197.66z"/>
	</g>
	<g>
		<path fill="#D7000F" d="M214.765,186.687l1.793-0.698c0.563,1.359,0.481,2.967-0.414,4.447c-1.56,2.577-4.606,3.138-6.938,1.728
			c-2.332-1.411-3.248-4.371-1.689-6.947c0.896-1.48,2.293-2.291,3.736-2.438l0.225,1.92c-0.947,0.064-1.846,0.523-2.41,1.456
			c-0.932,1.539-0.395,3.362,1.168,4.307c1.563,0.945,3.426,0.575,4.357-0.964C215.157,188.564,215.147,187.556,214.765,186.687z"/>
	</g>
	<g>
		<path fill="#D7000F" d="M210.4,180.579l2.302-5.061l1.464,0.666l-1.501,3.299l2.06,0.937l1.275-2.803l1.463,0.665l-1.275,2.803
			l2.233,1.017l1.5-3.299l1.464,0.665l-2.302,5.061L210.4,180.579z"/>
	</g>
	<g>
		<path fill="#00007E" d="M73.924,102.102l-0.801-2.785l1.658-2.457l0.635,3.031L73.924,102.102z M73.537,104.442l3.979-5.895
			l2.007,1.354l-2.34,3.466l1.679,1.133l1.971-2.92l2.006,1.354l-1.971,2.92l1.855,1.253l2.34-3.466l2.006,1.354l-3.979,5.895
			L73.537,104.442z"/>
	</g>
	<g>
		<path fill="#00007E" d="M88.052,102.875c-0.469-0.017-0.898-0.176-1.207-0.448c-0.506-0.446-0.75-0.968-0.695-1.752
			c-0.886,0.184-1.742-0.064-2.434-0.674c-1.235-1.088-1.371-2.853,0.065-4.484c0.446-0.507,0.925-0.875,1.401-1.092l1.969-2.236
			l1.643,1.447l-0.859,0.976c0.11,0.075,0.209,0.162,0.309,0.25c1.248,1.099,1.395,2.851-0.075,4.519
			c-0.108,0.124-0.206,0.235-0.317,0.335c0.01,0.139,0.063,0.252,0.149,0.329c0.222,0.196,0.416,0.125,0.591-0.073l1.251-1.421
			c1.327-1.507,3.022-1.638,4.208-0.593c1.434,1.263,1.406,3.585-0.346,5.575c-1.85,2.101-3.529,2.662-4.889,1.465
			C88.21,104.463,87.978,103.731,88.052,102.875z M86.708,96.603c-0.506-0.446-1.058-0.318-1.482,0.164
			c-0.424,0.482-0.459,1.044,0.035,1.479c0.507,0.446,1.061,0.341,1.484-0.141C87.17,97.623,87.215,97.048,86.708,96.603z
			 M92.138,102.196c0.882-1.001,0.895-1.713,0.425-2.127c-0.37-0.326-0.835-0.297-1.271,0.197l-1.502,1.705
			c-0.059,0.366,0.043,0.674,0.34,0.936C90.612,103.331,91.268,103.184,92.138,102.196z"/>
	</g>
	<g>
		<path fill="#00007E" d="M92.11,95.656c-0.842-0.947-0.762-2.319,0.393-3.744l1.484-1.85c-0.428-0.456-1.151-0.452-1.729,0.063
			c-0.518,0.46-0.68,1.045-0.602,1.703l-2.39,0.188c-0.136-1.291,0.396-2.602,1.552-3.63c1.968-1.751,3.929-1.38,5.133-0.027
			l3.48,3.911l-1.942,1.729l-0.415-0.467c-0.006,0.688-0.466,1.583-1.117,2.163C94.703,96.81,93.184,96.861,92.11,95.656z
			 M95.042,93.797c0.627-0.558,0.758-1.203,0.676-1.791l-0.548-0.615l-1.031,1.292c-0.429,0.535-0.437,0.873-0.185,1.156
			C94.239,94.159,94.66,94.136,95.042,93.797z"/>
	</g>
	<g>
		<path fill="#00007E" d="M93.633,81.241l2.111-1.547l7.299,9.96l-2.111,1.547L93.633,81.241z"/>
	</g>
	<g>
		<path fill="#00007E" d="M98.515,79.578c-0.479-0.75-0.248-1.795,0.516-2.283c0.734-0.47,1.781-0.239,2.26,0.51
			c0.479,0.749,0.257,1.809-0.479,2.278C100.048,80.571,98.993,80.326,98.515,79.578z M100.176,81.564l2.206-1.409l4.468,6.992
			l-2.206,1.409L100.176,81.564z"/>
	</g>
	<g>
		<path fill="#00007E" d="M106.198,80.603l-1.367,0.726l-1.097-2.065l1.367-0.726l-0.974-1.832l2.327-1.235l0.973,1.832l2.007-1.066
			l1.097,2.065l-2.007,1.065l1.281,2.414c0.31,0.582,0.784,0.74,1.396,0.416c0.538-0.286,0.849-0.544,1.021-0.747l1.058,1.992
			c-0.3,0.383-0.705,0.709-1.389,1.072c-1.991,1.058-3.454,0.306-4.411-1.498L106.198,80.603z"/>
	</g>
	<g>
		<path fill="#00007E" d="M118.39,81.798c-2.832,1.123-5.091-0.195-5.982-2.445c-0.886-2.234-0.258-4.715,2.358-5.753
			c2.188-0.868,4.204,0.016,5.036,2.112c0.206,0.521,0.323,1.041,0.356,1.347l-4.989,1.979c0.642,0.949,1.425,0.958,2.343,0.594
			c0.734-0.292,1.263-0.837,1.438-1.42l2.255,0.682C120.852,80.149,119.874,81.209,118.39,81.798z M113.453,73.058l0.568-3.165
			l2.603-1.032l-0.86,3.281L113.453,73.058z M114.504,77.317l2.771-1.098c-0.237-0.509-0.89-0.994-1.793-0.636
			C114.701,75.893,114.379,76.464,114.504,77.317z"/>
	</g>
	
		<text transform="matrix(0.9602 -0.2792 0.2792 0.9602 122.0088 80.124)" fill="#00007E" font-family="'Marianne-ExtraBold'" font-size="16.4603"> </text>
	<g>
		<path fill="#00007E" d="M129.127,69.446c1.004-0.183,1.75-0.033,2.39,0.353l-0.803-4.422l2.593-0.47l2.204,12.149l-2.592,0.471
			l-0.08-0.438c-0.462,0.586-1.109,0.987-2.113,1.17c-2.592,0.47-4.482-1.278-4.914-3.66
			C125.379,72.218,126.534,69.917,129.127,69.446z M130.66,75.777c0.794-0.144,1.351-0.58,1.709-1.28l-0.383-2.106
			c-0.581-0.53-1.256-0.743-2.05-0.599c-1.134,0.206-1.67,1.123-1.452,2.322C128.702,75.313,129.526,75.983,130.66,75.777z"/>
	</g>
	<g>
		<path fill="#00007E" d="M141.431,77.054c-3.044,0.132-4.745-1.853-4.851-4.271c-0.104-2.401,1.303-4.54,4.114-4.662
			c2.353-0.103,3.968,1.393,4.065,3.646c0.024,0.56-0.035,1.089-0.104,1.389l-5.362,0.233c0.296,1.107,1.032,1.372,2.02,1.329
			c0.789-0.034,1.467-0.377,1.824-0.871l1.905,1.384C144.299,76.303,143.025,76.984,141.431,77.054z M139.229,71.547l2.978-0.129
			c-0.058-0.558-0.516-1.23-1.486-1.188C139.882,70.266,139.391,70.7,139.229,71.547z"/>
	</g>
	<g>
		<path fill="#00007E" d="M147.588,73.924c0.405,0.606,0.929,1.138,1.669,1.188c0.475,0.032,0.722-0.198,0.744-0.526
			c0.078-1.134-3.779-0.938-3.58-3.845c0.109-1.577,1.519-2.618,3.342-2.492c1.313,0.09,2.518,0.816,3.086,1.665l-1.813,1.409
			c-0.363-0.487-0.826-0.965-1.416-1.005c-0.461-0.032-0.689,0.184-0.709,0.463c-0.074,1.067,3.782,0.904,3.583,3.795
			c-0.161,1.87-1.755,2.718-3.349,2.607c-1.592-0.109-2.601-0.807-3.373-1.816L147.588,73.924z"/>
	</g>
	
		<text transform="matrix(0.9887 0.1499 -0.1499 0.9887 152.6621 77.1523)" fill="#00007E" font-family="'Marianne-ExtraBold'" font-size="16.4603"> </text>
	<g>
		<path fill="#00007E" d="M163.992,76.466l1.612,1.99c-0.994,0.807-2.346,1.135-3.833,0.77c-2.846-0.699-3.986-3.098-3.409-5.448
			c0.578-2.351,2.7-3.948,5.547-3.249c1.486,0.365,2.531,1.283,3.039,2.459l-2.352,1.017c-0.186-0.487-0.602-0.929-1.306-1.102
			c-1.04-0.256-1.999,0.34-2.29,1.523c-0.295,1.199,0.284,2.154,1.372,2.422C163.013,77.005,163.603,76.811,163.992,76.466z"/>
	</g>
	<g>
		<path fill="#00007E" d="M170.636,68.535l2.44,0.947l-1.632,4.206c0.673-0.234,1.437-0.291,2.342,0.061
			c1.643,0.638,2.547,2.313,1.635,4.661l-1.764,4.544l-2.455-0.953l1.722-4.437c0.304-0.782,0.099-1.48-0.685-1.784
			c-0.859-0.334-1.506,0.192-1.76,0.395l-1.871,4.819l-2.441-0.947L170.636,68.535z"/>
	</g>
	<g>
		<path fill="#00007E" d="M175.94,81.444c0.61-1.11,1.93-1.495,3.659-0.882l2.239,0.779c0.287-0.556,0.041-1.236-0.638-1.609
			c-0.606-0.332-1.211-0.289-1.806,0.004l-0.976-2.189c1.172-0.559,2.584-0.496,3.94,0.249c2.309,1.269,2.615,3.241,1.742,4.828
			l-2.521,4.589l-2.28-1.254l0.302-0.548c-0.65,0.226-1.646,0.091-2.412-0.33C175.72,84.272,175.163,82.857,175.94,81.444z
			 M178.671,83.584c0.736,0.404,1.389,0.313,1.915,0.038l0.396-0.722l-1.563-0.539c-0.646-0.225-0.968-0.119-1.15,0.213
			C178.063,82.949,178.225,83.338,178.671,83.584z"/>
	</g>
	<g>
		<path fill="#00007E" d="M187.983,81.451l2.108,1.55l-0.272,0.371c0.711-0.049,1.463,0.095,2.246,0.671
			c1.42,1.043,1.855,2.896,0.363,4.926l-2.887,3.926l-2.122-1.56l2.817-3.834c0.498-0.677,0.481-1.403-0.195-1.901
			c-0.743-0.546-1.504-0.205-1.803-0.078l-3.063,4.165l-2.108-1.55L187.983,81.451z"/>
	</g>
	<g>
		<path fill="#00007E" d="M196.867,95.809l0.409,2.529c-1.264,0.205-2.601-0.182-3.709-1.238c-2.121-2.023-1.916-4.672-0.246-6.424
			s4.307-2.082,6.428-0.059c1.107,1.057,1.558,2.372,1.412,3.645l-2.545-0.287c0.081-0.516-0.061-1.105-0.585-1.605
			c-0.774-0.738-1.903-0.699-2.743,0.182c-0.853,0.895-0.826,2.011-0.016,2.783C195.749,95.789,196.356,95.914,196.867,95.809z"/>
	</g>
	<g>
		<path fill="#00007E" d="M199.157,103.209c-1.938-2.35-1.379-4.904,0.488-6.444c1.854-1.53,4.408-1.695,6.199,0.476
			c1.499,1.816,1.277,4.006-0.461,5.441c-0.433,0.357-0.891,0.629-1.172,0.753l-3.417-4.14c-0.706,0.904-0.474,1.65,0.155,2.412
			c0.504,0.61,1.184,0.945,1.794,0.934l0.044,2.354C201.485,105.046,200.175,104.44,199.157,103.209z M202.228,98.135l1.897,2.299
			c0.411-0.382,0.671-1.152,0.053-1.902C203.644,97.885,203.001,97.752,202.228,98.135z"/>
	</g>
	<g>
		<path fill="#00007E" d="M205.337,106.204c-0.24,0.688-0.349,1.426,0.056,2.048c0.26,0.399,0.593,0.458,0.868,0.278
			c0.953-0.62-1.525-3.584,0.916-5.173c1.325-0.862,3.006-0.364,4.002,1.167c0.719,1.104,0.863,2.504,0.527,3.469l-2.217-0.6
			c0.171-0.584,0.273-1.24-0.05-1.736c-0.251-0.387-0.562-0.44-0.796-0.287c-0.896,0.583,1.555,3.564-0.875,5.145
			c-1.59,0.998-3.227,0.234-4.098-1.104s-0.921-2.563-0.578-3.788L205.337,106.204z"/>
	</g>
	<g>
		<path fill="#00007E" d="M110.8,162.896h3.922c3.124,0,5.254,2.256,5.254,4.903s-2.13,4.902-5.254,4.902H110.8V162.896z
			 M113.294,165.152v5.295h1.442c1.541,0,2.661-1.135,2.661-2.647c0-1.527-1.12-2.647-2.661-2.647H113.294z"/>
		<path fill="#00007E" d="M121.847,162.896h6.051v2.06h-3.559v1.723h2.998v2.06h-2.998v1.904h3.559v2.06h-6.051V162.896z"/>
		<path fill="#00007E" d="M131.73,162.896l2.535,6.99l2.536-6.99h2.646l-3.558,9.806h-3.249l-3.559-9.806H131.73z"/>
		<path fill="#00007E" d="M150.327,167.8c0,2.801-2.13,5.183-5.239,5.183c-3.124,0-5.253-2.382-5.253-5.183
			c0-2.802,2.129-5.184,5.253-5.184C148.197,162.616,150.327,164.998,150.327,167.8z M147.764,167.8
			c0-1.653-1.121-2.844-2.676-2.844c-1.568,0-2.689,1.204-2.689,2.844c0,1.652,1.121,2.843,2.689,2.843
			C146.643,170.643,147.764,169.438,147.764,167.8z"/>
		<path fill="#00007E" d="M152.197,162.896h2.494v9.806h-2.494V162.896z"/>
		<path fill="#00007E" d="M157.405,162.896h3.292c2.298,0,3.712,1.135,3.712,3.054c0,1.191-0.561,2.088-1.541,2.592l2.998,4.16
			h-2.914l-2.465-3.712h-0.588v3.712h-2.494V162.896z M159.899,164.956v1.975h0.952c0.63,0,0.994-0.406,0.994-1.008
			c0-0.561-0.364-0.967-0.994-0.967H159.899z"/>
		<path fill="#00007E" d="M167.878,169.662c0.519,0.687,1.289,1.135,2.003,1.135c0.575,0,0.925-0.252,0.925-0.813
			c0-1.498-4.314-1.008-4.314-4.37c0-1.639,1.373-2.998,3.362-2.998c1.555,0,2.759,0.673,3.67,1.682l-1.808,1.652
			c-0.574-0.672-1.19-1.162-1.849-1.162c-0.504,0-0.854,0.308-0.854,0.714c0,1.457,4.314,0.967,4.314,4.398
			c-0.028,1.961-1.568,3.082-3.418,3.082c-1.807,0-2.941-0.631-3.838-1.653L167.878,169.662z"/>
	</g>
	<g>
		<path fill="#00007E" d="M125.038,179.696h6.052v2.06h-3.558v1.723h2.997v2.06h-2.997v3.964h-2.494V179.696z"/>
		<path fill="#00007E" d="M134.308,179.696h3.25l3.558,9.806h-2.647l-0.799-2.312h-3.474l-0.798,2.312h-2.648L134.308,179.696z
			 M136.94,185.09l-1.008-2.886l-1.009,2.886H136.94z"/>
		<path fill="#00007E" d="M142.553,179.696h2.493v9.806h-2.493V179.696z"/>
		<path fill="#00007E" d="M146.794,179.696h8.208v2.256h-2.857v7.55h-2.493v-7.55h-2.857V179.696z"/>
		<path fill="#00007E" d="M157.448,186.462c0.519,0.687,1.289,1.135,2.003,1.135c0.575,0,0.925-0.252,0.925-0.813
			c0-1.498-4.314-1.008-4.314-4.37c0-1.639,1.373-2.997,3.362-2.997c1.555,0,2.759,0.672,3.67,1.681l-1.808,1.652
			c-0.574-0.672-1.19-1.162-1.849-1.162c-0.504,0-0.854,0.308-0.854,0.714c0,1.457,4.314,0.967,4.314,4.398
			c-0.028,1.961-1.568,3.082-3.418,3.082c-1.807,0-2.941-0.631-3.838-1.653L157.448,186.462z"/>
	</g>
	<path fill="#00007E" d="M140.974,154.644c-0.37,0-0.697-0.255-0.78-0.623c-0.263-0.925-5.849-6.096-12.808-6.096h-13.589
		c-0.442,0-0.8-0.358-0.8-0.8v-35.071c0-0.442,0.357-0.8,0.8-0.8h15.645c6.8,0,12.332,5.532,12.332,12.332v30.258
		c0,0.408-0.307,0.75-0.712,0.795C141.032,154.643,141.002,154.644,140.974,154.644z M114.597,146.325h12.789
		c5.51,0,10.378,2.906,12.788,5.199v-27.938c0-5.917-4.814-10.732-10.732-10.732h-14.845V146.325z"/>
	<path fill="#00007E" d="M141.285,154.625c-0.034,0-0.069-0.003-0.104-0.008c-0.396-0.054-0.696-0.374-0.696-0.773v-30.258
		c0-6.8,5.533-12.332,12.333-12.332h15.644c0.441,0,0.8,0.358,0.8,0.8v35.071c0,0.441-0.358,0.8-0.8,0.8h-13.588
		c-6.962,0-12.551,5.176-12.809,6.097C141.968,154.373,141.642,154.625,141.285,154.625z M152.818,112.854
		c-5.918,0-10.733,4.814-10.733,10.732v27.938c2.411-2.293,7.279-5.199,12.789-5.199h12.788v-33.471H152.818z"/>
	<path fill="#00007E" d="M119.487,147.925c-0.441,0-0.799-0.358-0.799-0.8v-33.96c0-0.442,0.357-0.8,0.799-0.8
		c0.442,0,0.801,0.358,0.801,0.8v33.96C120.288,147.566,119.93,147.925,119.487,147.925z"/>
	<path fill="#00007E" d="M147.876,148.99c-0.441,0-0.8-0.358-0.8-0.8v-35.025c0-0.442,0.358-0.8,0.8-0.8s0.8,0.358,0.8,0.8v35.025
		C148.676,148.632,148.317,148.99,147.876,148.99z"/>
	<path fill="#00007E" d="M132.507,121.634h-13.02c-0.441,0-0.799-0.358-0.799-0.8s0.357-0.8,0.799-0.8h13.02
		c0.441,0,0.8,0.358,0.8,0.8S132.948,121.634,132.507,121.634z"/>
	<path fill="#00007E" d="M132.507,130.122h-13.02c-0.441,0-0.799-0.358-0.799-0.8s0.357-0.8,0.799-0.8h13.02
		c0.441,0,0.8,0.358,0.8,0.8S132.948,130.122,132.507,130.122z"/>
	<path fill="#00007E" d="M132.507,138.608h-13.02c-0.441,0-0.799-0.358-0.799-0.8s0.357-0.8,0.799-0.8h13.02
		c0.441,0,0.8,0.358,0.8,0.8S132.948,138.608,132.507,138.608z"/>
	<path fill="#00007E" d="M161.383,121.634h-13.019c-0.441,0-0.8-0.358-0.8-0.8s0.358-0.8,0.8-0.8h13.019c0.441,0,0.8,0.358,0.8,0.8
		S161.824,121.634,161.383,121.634z"/>
	<path fill="#00007E" d="M161.383,130.122h-13.019c-0.441,0-0.8-0.358-0.8-0.8s0.358-0.8,0.8-0.8h13.019c0.441,0,0.8,0.358,0.8,0.8
		S161.824,130.122,161.383,130.122z"/>
	<path fill="#00007E" d="M161.383,138.608h-13.019c-0.441,0-0.8-0.358-0.8-0.8s0.358-0.8,0.8-0.8h13.019c0.441,0,0.8,0.358,0.8,0.8
		S161.824,138.608,161.383,138.608z"/>
	<path fill="#FFFFFF" d="M177.167,113.165c0,6.114-4.957,11.071-11.071,11.071c-6.115,0-11.071-4.957-11.071-11.071
		c0-6.114,4.956-11.071,11.071-11.071"/>
	<path fill="#D7000F" d="M166.096,125.036c-6.546,0-11.871-5.325-11.871-11.871c0-6.546,5.325-11.871,11.871-11.871
		c0.441,0,0.8,0.358,0.8,0.8s-0.358,0.8-0.8,0.8c-5.664,0-10.271,4.608-10.271,10.271s4.607,10.271,10.271,10.271
		s10.271-4.607,10.271-10.271c0-0.442,0.358-0.8,0.8-0.8s0.8,0.358,0.8,0.8C177.967,119.71,172.642,125.036,166.096,125.036z"/>
	<path fill="#D7000F" d="M166.792,117.634c-0.234,0-0.46-0.103-0.613-0.286l-4.87-5.819c-0.284-0.339-0.239-0.844,0.1-1.127
		c0.34-0.283,0.843-0.239,1.127,0.1l3.998,4.777c1.065-2.56,3.881-8.353,9.04-12.718c0.337-0.285,0.841-0.244,1.127,0.094
		c0.286,0.337,0.244,0.842-0.094,1.127c-6.334,5.359-9.029,13.227-9.056,13.306c-0.093,0.274-0.326,0.478-0.61,0.531
		C166.891,117.63,166.841,117.634,166.792,117.634z"/>
</g>
</svg>
