<?xml version="1.0" encoding="utf-8"?>
<!-- Generator: Adobe Illustrator 16.0.0, SVG Export Plug-In . SVG Version: 6.00 Build 0)  -->
<!DOCTYPE svg PUBLIC "-//W3C//DTD SVG 1.1//EN" "http://www.w3.org/Graphics/SVG/1.1/DTD/svg11.dtd">
<svg version="1.1" id="Calque_1" xmlns="http://www.w3.org/2000/svg" xmlns:xlink="http://www.w3.org/1999/xlink" x="0px" y="0px"
	 width="124.495px" height="123.859px" viewBox="0 0 124.495 123.859" enable-background="new 0 0 124.495 123.859"
	 xml:space="preserve">
<rect fill="#FFFFFF" width="124.495" height="123.859"/>
<path fill="#000091" d="M24.187,21.299c0.123-0.121,0.244-0.252,0.367-0.383h-0.002c0.227-0.258,0.451-0.503,0.715-0.729
	c0.08-0.072,0.158-0.136,0.232-0.186c0.021-0.022,0.021-0.065,0.043-0.086c-0.107,0.043-0.172,0.128-0.279,0.171
	c-0.021,0-0.043-0.021-0.021-0.043c0.077-0.057,0.152-0.114,0.229-0.171h-0.014c-0.021,0-0.021-0.022-0.021-0.043
	c-0.278-0.043-0.492,0.15-0.686,0.322c-0.043,0.021-0.086-0.022-0.107-0.022c-0.321,0.107-0.557,0.386-0.879,0.514V20.6
	c-0.129,0.043-0.252,0.121-0.385,0.15c-0.193,0.043-0.365,0.022-0.535,0.022c-0.261,0.025-0.521,0.083-0.779,0.138
	c-0.008,0.002-0.016,0.004-0.023,0.006c-0.139,0.038-0.271,0.09-0.398,0.161c-0.006,0.003-0.01,0.006-0.016,0.008
	c-0.01,0.014-0.021,0.026-0.031,0.038c-0.045,0.05-0.086,0.096-0.146,0.128c-0.131,0.067-0.239,0.183-0.355,0.278
	c-0.008,0.007-0.021,0.01-0.033,0.011c-0.115,0.11-0.229,0.222-0.346,0.33c-0.009,0.008-0.041,0.012-0.065,0.008
	c0.001,0,0.002-0.001,0.002-0.002c0.004-0.007,0.008-0.014,0.012-0.02c0.019-0.031,0.037-0.06,0.056-0.091
	c0.021-0.033,0.041-0.066,0.063-0.099c0.028-0.044,0.06-0.088,0.091-0.131c0.008-0.01,0.006-0.021-0.001-0.028
	s-0.019-0.011-0.03-0.011c0.107-0.104,0.235-0.192,0.36-0.268v-0.004c-0.015,0.005-0.035-0.007-0.024-0.022
	c0.015-0.018,0.024-0.039,0.037-0.058c0.002-0.006,0.004-0.013,0.008-0.019c-0.006-0.006-0.012-0.011-0.017-0.017
	c-0.034,0.022-0.071,0.044-0.101,0.07c-0.053,0.047-0.092,0.141-0.17,0.14c-0.004,0-0.021,0-0.032-0.004
	c-0.009-0.002-0.017-0.005-0.022-0.008c0-0.002,0.002-0.004,0.002-0.005c0.002-0.002,0.002-0.004,0.004-0.006
	s0.002-0.003,0.004-0.005c0.002-0.007,0.006-0.013,0.01-0.019c0.003-0.006,0.007-0.012,0.01-0.018
	c0.003-0.005,0.006-0.01,0.009-0.015c0.005-0.009,0.009-0.019,0.015-0.027c0.004-0.007,0.008-0.013,0.012-0.02
	c0.009-0.016,0.018-0.031,0.027-0.047c0.004-0.008,0.008-0.015,0.013-0.023c0.008-0.013,0.016-0.026,0.022-0.039
	c0.012-0.017,0-0.032-0.016-0.038c0.04-0.052,0.089-0.095,0.146-0.128h-0.006c0.082-0.041,0.164-0.092,0.246-0.138
	c0.012-0.01,0.023-0.02,0.035-0.03c-0.122,0.041-0.232,0.096-0.341,0.168c0,0-0.028,0.011-0.036,0.02c0,0-0.025,0.009-0.053-0.02
	c-0.004-0.004-0.006-0.009-0.006-0.015c0.021-0.043,0.086-0.065,0.129-0.108c0.021,0,0.043,0,0.043,0.022
	c0.686-0.536,1.628-0.408,2.421-0.686c0.063-0.043,0.129-0.086,0.192-0.128c0.107-0.043,0.193-0.151,0.322-0.215
	c0.172-0.129,0.299-0.279,0.364-0.493c0-0.021-0.022-0.042-0.022-0.042c-0.277,0.299-0.6,0.535-0.942,0.707
	c-0.449,0.235-0.942,0.193-1.414,0.256c0.022-0.042,0.065-0.042,0.106-0.042c0-0.064,0.043-0.086,0.086-0.129h0.064
	c0.021,0,0.021-0.042,0.043-0.042c0.043,0,0.107-0.022,0.086-0.022c-0.064-0.086-0.193,0.064-0.3,0
	c0.043-0.043,0.021-0.107,0.063-0.129h0.086c0-0.042,0.043-0.085,0.043-0.085c0.322-0.193,0.621-0.343,0.922-0.514
	c-0.064,0-0.107,0.064-0.172,0.021c0.043,0,0-0.064,0.043-0.064c0.236-0.065,0.429-0.193,0.664-0.279c-0.086,0-0.149,0.064-0.235,0
	c0.043-0.021,0.063-0.064,0.129-0.064V18.8c0-0.021,0.021-0.021,0.043-0.021c-0.022,0-0.043-0.022-0.043-0.022
	c0.021-0.042,0.085-0.021,0.128-0.064c-0.021,0-0.064,0-0.064-0.021c0.064-0.086,0.172-0.107,0.279-0.128
	c-0.021-0.043-0.086,0-0.086-0.043c0-0.022,0.021-0.022,0.043-0.022h-0.043c-0.043-0.021-0.021-0.064-0.021-0.086
	c0.129-0.15,0.129-0.343,0.193-0.514c-0.021,0-0.043,0-0.043-0.021c-0.215,0.235-0.558,0.321-0.879,0.407h-0.107
	c-0.106,0.043-0.256,0.043-0.364-0.022c-0.085-0.043-0.128-0.107-0.214-0.171c-0.172-0.107-0.344-0.193-0.536-0.257
	c-0.535-0.172-1.093-0.257-1.649-0.236c0.235-0.128,0.496-0.139,0.75-0.214c0.364-0.107,0.707-0.236,1.092-0.214
	c-0.063-0.022-0.149,0-0.213,0c-0.301-0.022-0.601,0.064-0.922,0.128c-0.214,0.043-0.406,0.129-0.621,0.172
	c-0.129,0.042-0.193,0.171-0.343,0.15v-0.065c0.214-0.257,0.472-0.514,0.813-0.535c0.386-0.065,0.75,0,1.136,0.043
	c0.278,0.021,0.536,0.085,0.815,0.149c0.106,0,0.127,0.172,0.213,0.193c0.129,0.043,0.258,0,0.387,0.086
	c0-0.043-0.021-0.086,0-0.129c0.085-0.085,0.191,0.022,0.277-0.021c0.172-0.107-0.149-0.3-0.235-0.45
	c0-0.021,0.022-0.043,0.022-0.043c0.17,0.15,0.299,0.322,0.514,0.429c0.107,0.042,0.363,0.107,0.32-0.022
	c-0.106-0.235-0.32-0.428-0.492-0.643v-0.085c-0.043,0-0.043-0.022-0.064-0.043v-0.086c-0.085-0.042-0.064-0.128-0.107-0.192
	c-0.063-0.108-0.021-0.258-0.063-0.386c-0.043-0.129-0.063-0.236-0.086-0.364c-0.063-0.365-0.149-0.686-0.192-1.029
	c-0.043-0.407,0.235-0.729,0.428-1.093c0.15-0.257,0.322-0.514,0.601-0.685c0.063-0.257,0.235-0.472,0.407-0.686
	c0.171-0.209,0.455-0.336,0.662-0.429c0.299-0.134,0.568-0.217,0.568-0.217H11.296v11.339H21.71
	c0.408-0.294,0.815-0.433,1.385-0.714C23.363,21.792,23.979,21.508,24.187,21.299 M20.892,19.765c-0.043,0-0.129,0.021-0.106-0.022
	c0.021-0.107,0.171-0.107,0.257-0.15c0.043-0.021,0.107-0.064,0.15-0.043c0.042,0.065,0.107,0.043,0.15,0.086
	C21.214,19.765,21.042,19.7,20.892,19.765 M17.613,19.293c0,0-0.021-0.021-0.021-0.042c0.278-0.365,0.492-0.707,0.686-1.093
	c0.277-0.15,0.51-0.369,0.729-0.6c0.364-0.386,0.75-0.729,1.199-0.943c0.172-0.064,0.387-0.043,0.557,0.021
	c-0.063,0.086-0.17,0.065-0.256,0.129c-0.021,0-0.043,0-0.064-0.022c0.021-0.021,0.021-0.042,0.021-0.064
	c-0.215,0.236-0.515,0.343-0.687,0.621c-0.128,0.215-0.214,0.494-0.492,0.558c-0.086,0.021,0.021-0.064-0.022-0.043
	C18.599,18.222,18.128,18.715,17.613,19.293 M19.392,17.879c-0.021,0.043-0.045,0.047-0.063,0.086
	c-0.022,0.043-0.043,0.064-0.086,0.085c-0.021,0-0.043,0-0.043-0.021c0.022-0.086,0.086-0.171,0.172-0.193
	C19.392,17.836,19.392,17.858,19.392,17.879 M20.388,21.089c-0.01,0.024-0.031,0.044-0.054,0.063
	c0.027,0.005,0.046,0.017,0.028,0.033c-0.049,0.046-0.098,0.091-0.162,0.113c-0.005,0.002-0.018,0.004-0.033,0.005
	c-0.025,0.025-0.052,0.051-0.078,0.075c-0.027,0.023-0.145,0.006-0.109-0.026c0.055-0.048,0.105-0.1,0.158-0.149
	c0.031-0.028,0.063-0.054,0.09-0.086c0.015-0.017,0.027-0.034,0.047-0.047C20.291,21.057,20.404,21.047,20.388,21.089
	 M20.003,20.912c0,0.002-0.003,0.003-0.005,0.004c-0.08,0.057-0.159,0.114-0.245,0.163c-0.091,0.053-0.187,0.094-0.283,0.139
	c0-0.002,0-0.004-0.002-0.005c-0.006-0.01-0.022-0.017-0.035-0.009c-0.082,0.044-0.151,0.102-0.217,0.164
	c-0.01,0.01-0.02,0.019-0.029,0.029c0,0.001-0.002,0.002-0.002,0.002l-0.002,0.002c-0.01,0.01-0.021,0.02-0.03,0.03l-0.003,0.004
	c-0.001,0-0.001,0.001-0.001,0.002c-0.017,0.015-0.031,0.03-0.048,0.049c-0.01,0.013-0.014,0.021-0.028,0.031
	c-0.013,0.009-0.05,0.008-0.047-0.016v-0.005c-0.013,0.007-0.025,0.013-0.038,0.02c-0.012,0.005-0.021,0.012-0.033,0.018
	c-0.005-0.002-0.01-0.002-0.014-0.002c-0.006,0-0.012,0.001-0.016,0.005c-0.026,0.021-0.053,0.043-0.078,0.065
	c-0.045,0.041-0.088,0.085-0.125,0.133l-0.002,0.001l-0.004,0.006c-0.002,0.003-0.004,0.006-0.006,0.009s-0.005,0.005-0.007,0.008
	c-0.001,0.001-0.002,0.002-0.002,0.003c-0.006,0.007-0.01,0.014-0.015,0.022c0,0,0,0-0.002,0.001
	c-0.002,0.004-0.01,0.007-0.017,0.008c-0.003-0.004-0.006-0.008-0.009-0.013c-0.002-0.003-0.004-0.006-0.006-0.01
	c-0.006-0.011-0.012-0.022-0.018-0.034c0-0.001-0.002-0.001-0.002-0.001c-0.002-0.004-0.002-0.007-0.004-0.011
	c0.022-0.025,0.045-0.051,0.066-0.077c0.002-0.002,0.003-0.004,0.005-0.005c0.007-0.01,0.015-0.019,0.022-0.028
	c0.012-0.015,0.023-0.03,0.035-0.046c0.004-0.005,0.01-0.011,0.014-0.017c0.023-0.03,0.046-0.06,0.066-0.09
	c0-0.001,0.002-0.002,0.002-0.002c0.004-0.005,0.006-0.01,0.01-0.014c0.01-0.015,0.02-0.03,0.029-0.046
	c0.008-0.014,0.016-0.028,0.022-0.043c0.001-0.001,0.002-0.002,0.002-0.003c0.001-0.001,0.002-0.003,0.003-0.004
	c0.001-0.003,0.002-0.006,0.003-0.009c0.008-0.016,0.015-0.032,0.021-0.049c0-0.002,0.002-0.004,0.002-0.006
	c0.002-0.005,0.004-0.009,0.004-0.014c0.004-0.008,0.006-0.016,0.008-0.024c0-0.001,0.001-0.003,0.001-0.005
	c0.003-0.01,0.006-0.021,0.008-0.031c0.001-0.006-0.001-0.011-0.003-0.015c0.023-0.04,0.053-0.079,0.085-0.115
	c-0.003,0.002-0.007,0.003-0.01,0.005c-0.031,0.02-0.052,0.047-0.08,0.069c-0.022,0.017-0.065-0.012-0.038-0.032
	c0.02-0.014,0.033-0.03,0.049-0.044c0.001-0.002,0.001-0.003,0.002-0.004c0.035-0.035,0.069-0.079,0.109-0.109
	c0.025-0.018,0.046-0.033,0.066-0.05c0.002-0.003,0.006-0.006,0.01-0.009c0.014-0.019,0.029-0.037,0.048-0.053
	c0-0.001,0.001-0.002,0.001-0.003c0.206-0.198,0.551-0.189,0.82-0.315c0.108-0.043,0.236,0.021,0.344,0c0.064,0,0.129,0,0.193,0.043
	C20.357,20.684,20.179,20.802,20.003,20.912 M20.442,19.422c-0.021-0.021,0.064,0,0.085-0.043h-0.171
	c-0.021,0-0.021-0.021-0.021-0.043c-0.107,0.022-0.236,0.065-0.343,0.086c-0.149,0.042-0.278,0.15-0.45,0.193
	c-0.236,0.085-0.429,0.278-0.685,0.364c-0.022,0-0.022-0.021-0.022-0.043c0.022-0.064,0.107-0.086,0.15-0.15
	c0-0.021,0-0.043-0.021-0.043c0.172-0.236,0.407-0.364,0.621-0.557v-0.064c0.064-0.086,0.172-0.129,0.215-0.236
	c0.021-0.064,0.106-0.15,0.213-0.193c-0.021-0.021-0.063-0.021-0.063-0.064c-0.086,0-0.172,0.043-0.257-0.021
	c0.04-0.04,0.086-0.062,0.134-0.077c-0.019-0.003-0.035-0.012-0.049-0.03c-0.021-0.043,0.042-0.091,0.108-0.108
	c0.084-0.021,0.192-0.021,0.256-0.085c-0.149-0.022-0.321,0.043-0.471-0.043c0.106-0.279,0.278-0.514,0.535-0.643
	c0.021,0,0.064,0,0.064,0.021c0,0.108-0.064,0.193-0.172,0.215c0.172,0.043,0.344,0.043,0.515,0.128
	c-0.021,0.043-0.063,0.022-0.086,0.022c0.108,0.064,0.235,0.021,0.343,0.107c-0.064,0.064-0.128,0-0.191,0
	c0.664,0.193,1.371,0.343,1.928,0.771c-0.471,0.236-0.965,0.343-1.479,0.45c-0.064,0-0.107,0-0.172-0.021
	c0,0.021,0,0.064-0.021,0.064c-0.086,0-0.149,0-0.215,0.043C20.636,19.464,20.507,19.486,20.442,19.422"/>
<path fill="#E1000F" d="M42.479,11.298H30.28c0,0,0.023,0.004,0.115,0.054c0.1,0.053,0.229,0.121,0.309,0.163
	c0.156,0.083,0.31,0.186,0.408,0.343c0.043,0.065,0.107,0.193,0.064,0.279c-0.043,0.107-0.064,0.278-0.171,0.321
	c-0.129,0.065-0.3,0.065-0.45,0.043c-0.086,0-0.172-0.021-0.257-0.043c0.321,0.129,0.621,0.279,0.835,0.579
	c0.021,0.043,0.107,0.064,0.193,0.064c0.021,0,0.021,0.043,0.021,0.064c-0.043,0.043-0.086,0.065-0.064,0.129h0.064
	c0.107-0.043,0.085-0.257,0.235-0.193c0.106,0.064,0.149,0.214,0.086,0.322c-0.086,0.085-0.171,0.149-0.257,0.214
	c-0.021,0.042-0.021,0.107,0,0.15c0.063,0.085,0.086,0.171,0.107,0.257c0.063,0.15,0.084,0.321,0.149,0.471
	c0.086,0.322,0.171,0.643,0.149,0.964c0,0.172-0.086,0.322-0.021,0.493c0.043,0.172,0.15,0.3,0.236,0.45
	c0.086,0.129,0.172,0.214,0.236,0.343c0.127,0.214,0.363,0.429,0.256,0.686c-0.063,0.15-0.3,0.128-0.449,0.214
	c-0.129,0.107-0.021,0.279,0.043,0.385c0.106,0.193-0.129,0.322-0.279,0.386c0.043,0.065,0.129,0.043,0.15,0.086
	c0.021,0.107,0.129,0.172,0.064,0.278c-0.086,0.129-0.343,0.193-0.215,0.386c0.086,0.15,0.031,0.317-0.021,0.471
	c-0.063,0.193-0.235,0.279-0.386,0.322c-0.128,0.043-0.278,0.043-0.407,0.022c-0.043-0.022-0.086-0.043-0.129-0.043
	c-0.363-0.043-0.728-0.15-1.092-0.15c-0.107,0.021-0.215,0.042-0.3,0.085c-0.097,0.072-0.183,0.149-0.259,0.23l-0.004,0.002
	c-0.016,0.018-0.031,0.035-0.047,0.052c-0.008,0.011-0.018,0.022-0.027,0.033c-0.006,0.007-0.012,0.015-0.018,0.022
	c-0.063,0.079-0.119,0.161-0.17,0.247c-0.002,0.006-0.006,0.011-0.009,0.017c-0.006,0.01-0.011,0.02-0.016,0.03
	c-0.071,0.13-0.124,0.263-0.163,0.393c-0.145,0.49-0.082,0.911,0.02,1.014c0.029,0.028,0.709,0.238,1.182,0.448
	c0.221,0.099,0.377,0.175,0.505,0.256h11.979V11.298z"/>
<path fill="#929497" d="M31.006,15.435c0.085,0.021,0.214,0.021,0.214,0.064c-0.043,0.171-0.3,0.214-0.428,0.386h-0.064
	c-0.064,0.043-0.043,0.15-0.107,0.15c-0.064-0.022-0.129,0-0.193,0.021c0.086,0.086,0.193,0.15,0.322,0.129
	c0.021,0,0.064,0.042,0.064,0.085c0,0,0.021,0,0.043-0.021c0.021,0,0.043,0,0.043,0.021v0.086c-0.065,0.086-0.172,0.043-0.258,0.064
	c0.172,0.043,0.344,0.043,0.492,0c0.129-0.042,0-0.256,0.086-0.364c-0.043,0,0-0.064-0.043-0.064
	c0.043-0.043,0.086-0.107,0.129-0.129c0.043,0,0.107-0.021,0.129-0.064c0-0.043-0.086-0.064-0.064-0.107
	c0.129-0.086,0.236-0.215,0.193-0.343c-0.021-0.064-0.193-0.064-0.301-0.107c-0.106-0.043-0.235,0-0.363,0.022
	c-0.107,0-0.215,0.064-0.322,0.085c-0.15,0.043-0.277,0.128-0.407,0.214c0.15-0.064,0.3-0.086,0.472-0.128
	C30.771,15.435,30.88,15.403,31.006,15.435"/>
<polygon fill="#231F20" points="11.247,28.282 13.424,28.282 15.479,31.784 17.535,28.282 19.711,28.282 19.711,36.795 
	17.984,36.795 17.984,30.739 16.088,33.876 14.871,33.876 12.975,30.739 12.975,36.795 11.247,36.795 "/>
<rect x="22.211" y="28.282" fill="#231F20" width="1.727" height="8.513"/>
<polygon fill="#231F20" points="26.445,28.282 28.658,28.282 32.465,34.375 32.465,28.282 34.191,28.282 34.191,36.795 
	31.979,36.795 28.172,30.678 28.172,36.795 26.445,36.795 "/>
<rect x="36.703" y="28.282" fill="#231F20" width="1.727" height="8.513"/>
<path fill="#231F20" d="M41.424,34.46c0.512,0.657,1.191,1.046,1.885,1.046c0.682,0,1.095-0.365,1.095-0.985
	c0-1.52-3.892-1.18-3.892-4.014c0-1.349,1.106-2.468,2.725-2.468c1.277,0,2.262,0.571,2.98,1.435l-1.267,1.131
	c-0.498-0.645-1.058-1.058-1.702-1.058c-0.596,0-0.984,0.389-0.984,0.888c0,1.52,3.891,1.167,3.891,4.049
	c-0.024,1.581-1.264,2.554-2.821,2.554c-1.435,0-2.407-0.523-3.162-1.423L41.424,34.46z"/>
<polygon fill="#231F20" points="47.156,28.282 54.137,28.282 54.137,29.851 51.51,29.851 51.51,36.795 49.783,36.795 49.783,29.851 
	47.156,29.851 "/>
<path fill="#231F20" d="M55.783,28.283h4.961v1.471H57.51v1.97h2.748v1.472H57.51v2.128h3.234v1.471h-4.961V28.283z M55.929,25.911
	h1.776l1.373,1.642h-1.58L55.929,25.911z"/>
<path fill="#231F20" d="M62.877,28.282h2.602c1.874,0,3.029,0.96,3.029,2.541c0,1.022-0.499,1.788-1.362,2.201l2.675,3.771h-2.066
	l-2.262-3.442h-0.889v3.442h-1.727V28.282z M64.604,29.753v2.128h0.974c0.729,0,1.154-0.389,1.154-1.082
	c0-0.645-0.425-1.046-1.154-1.046H64.604z"/>
<polygon fill="#231F20" points="71.018,28.282 75.979,28.282 75.979,29.753 72.744,29.753 72.744,31.723 75.493,31.723 
	75.493,33.195 72.744,33.195 72.744,35.323 75.979,35.323 75.979,36.795 71.018,36.795 "/>
<path fill="#231F20" d="M11.248,40.613h3.344c2.699,0,4.524,1.958,4.524,4.257c0,2.298-1.825,4.256-4.524,4.256h-3.344V40.613z
	 M12.975,42.181v5.375h1.642c1.581,0,2.724-1.18,2.724-2.687c0-1.521-1.143-2.688-2.724-2.688H12.975z"/>
<polygon fill="#231F20" points="20.909,40.613 25.871,40.613 25.871,42.083 22.637,42.083 22.637,44.054 25.385,44.054 
	25.385,45.526 22.637,45.526 22.637,47.654 25.871,47.654 25.871,49.125 20.909,49.125 "/>
<polygon fill="#231F20" points="31.289,40.613 33.016,40.613 33.016,47.556 36.25,47.556 36.25,49.125 31.289,49.125 "/>
<polygon fill="#231F20" points="36.011,44.115 37.105,40.613 38.856,40.613 37.445,44.115 "/>
<path fill="#231F20" d="M40.318,40.613h4.961v1.471h-3.234v1.971h2.748v1.472h-2.748v2.128h3.234v1.472h-4.961V40.613z
	 M41.996,39.882l1.375-1.642h1.775l-1.582,1.642H41.996z"/>
<path fill="#231F20" d="M47.412,40.613h3.345c2.699,0,4.524,1.958,4.524,4.257c0,2.298-1.825,4.256-4.524,4.256h-3.345V40.613z
	 M49.139,42.181v5.375h1.643c1.58,0,2.724-1.18,2.724-2.687c0-1.521-1.144-2.688-2.724-2.688H49.139z"/>
<path fill="#231F20" d="M62.096,40.613h1.728v5.181c0,2.237-1.313,3.575-3.454,3.575c-2.128,0-3.441-1.338-3.441-3.575v-5.181h1.727
	v5.326c0,1.144,0.645,1.813,1.728,1.813c1.058,0,1.714-0.669,1.714-1.813V40.613z"/>
<path fill="#231F20" d="M72.207,46.583l1.362,1.047c-0.779,1.058-2.043,1.738-3.588,1.738c-2.688,0-4.524-2.068-4.524-4.5
	s1.837-4.498,4.524-4.498c1.545,0,2.809,0.692,3.588,1.725l-1.362,1.059c-0.485-0.693-1.252-1.167-2.226-1.167
	c-1.605,0-2.748,1.252-2.748,2.882c0,1.631,1.143,2.883,2.748,2.883C70.955,47.751,71.722,47.277,72.207,46.583"/>
<path fill="#231F20" d="M77.284,40.613h2.261l3.224,8.513h-1.836l-0.815-2.213h-3.405l-0.814,2.213h-1.836L77.284,40.613z
	 M79.582,45.441l-1.167-3.199l-1.168,3.199H79.582z"/>
<polygon fill="#231F20" points="82.481,40.613 89.462,40.613 89.462,42.181 86.836,42.181 86.836,49.125 85.108,49.125 
	85.108,42.181 82.481,42.181 "/>
<rect x="91.108" y="40.613" fill="#231F20" width="1.727" height="8.514"/>
<path fill="#231F20" d="M103.648,44.869c0,2.433-1.836,4.5-4.511,4.5c-2.688,0-4.524-2.067-4.524-4.5c0-2.432,1.836-4.5,4.524-4.5
	C101.813,40.369,103.648,42.437,103.648,44.869 M101.873,44.869c0-1.629-1.143-2.881-2.735-2.881c-1.606,0-2.749,1.252-2.749,2.881
	s1.143,2.883,2.749,2.883C100.73,47.751,101.873,46.498,101.873,44.869"/>
<polygon fill="#231F20" points="105.43,40.613 107.643,40.613 111.45,46.706 111.45,40.613 113.177,40.613 113.177,49.125 
	110.964,49.125 107.157,43.009 107.157,49.125 105.43,49.125 "/>
<polygon fill="#231F20" points="11.247,52.943 13.461,52.943 17.268,59.036 17.268,52.943 18.994,52.943 18.994,61.456 
	16.781,61.456 12.975,55.339 12.975,61.456 11.247,61.456 "/>
<path fill="#231F20" d="M23.658,52.943h2.262l3.223,8.513h-1.836l-0.815-2.213h-3.405l-0.814,2.213h-1.836L23.658,52.943z
	 M25.957,57.771l-1.168-3.198l-1.168,3.198H25.957z"/>
<polygon fill="#231F20" points="28.855,52.943 35.836,52.943 35.836,54.512 33.209,54.512 33.209,61.456 31.482,61.456 
	31.482,54.512 28.855,54.512 "/>
<rect x="37.482" y="52.943" fill="#231F20" width="1.727" height="8.513"/>
<path fill="#231F20" d="M50.022,57.2c0,2.432-1.836,4.5-4.511,4.5c-2.688,0-4.524-2.068-4.524-4.5c0-2.432,1.836-4.5,4.524-4.5
	C48.187,52.7,50.022,54.768,50.022,57.2 M48.247,57.2c0-1.63-1.143-2.882-2.735-2.882c-1.606,0-2.75,1.252-2.75,2.882
	c0,1.629,1.144,2.882,2.75,2.882C47.104,60.082,48.247,58.829,48.247,57.2"/>
<polygon fill="#231F20" points="51.805,52.943 54.018,52.943 57.824,59.036 57.824,52.943 59.551,52.943 59.551,61.456 
	57.338,61.456 53.531,55.339 53.531,61.456 51.805,61.456 "/>
<path fill="#231F20" d="M64.215,52.943h2.261l3.224,8.513h-1.836l-0.815-2.213h-3.405l-0.814,2.213h-1.836L64.215,52.943z
	 M66.513,57.771l-1.167-3.198l-1.168,3.198H66.513z"/>
<polygon fill="#231F20" points="71.14,52.943 72.866,52.943 72.866,59.887 76.102,59.887 76.102,61.456 71.14,61.456 "/>
<polygon fill="#231F20" points="77.747,52.943 82.709,52.943 82.709,54.414 79.474,54.414 79.474,56.384 82.223,56.384 
	82.223,57.856 79.474,57.856 79.474,59.984 82.709,59.984 82.709,61.456 77.747,61.456 "/>
<polygon fill="#231F20" points="83.99,63.402 85.097,59.766 86.836,59.766 85.425,63.402 "/>
<path fill="#231F20" d="M11.248,65.274h3.344c2.699,0,4.524,1.958,4.524,4.257c0,2.298-1.825,4.256-4.524,4.256h-3.344V65.274z
	 M12.975,66.842v5.375h1.642c1.581,0,2.724-1.18,2.724-2.687c0-1.521-1.143-2.688-2.724-2.688H12.975z"/>
<polygon fill="#231F20" points="20.909,65.274 25.871,65.274 25.871,66.745 22.637,66.745 22.637,68.715 25.385,68.715 
	25.385,70.187 22.637,70.187 22.637,72.315 25.871,72.315 25.871,73.787 20.909,73.787 "/>
<polygon fill="#231F20" points="31.289,65.274 33.016,65.274 33.016,72.218 36.25,72.218 36.25,73.787 31.289,73.787 "/>
<path fill="#231F20" d="M40.414,65.274h2.262l3.223,8.513h-1.836l-0.815-2.213h-3.405l-0.814,2.213h-1.836L40.414,65.274z
	 M42.713,70.101l-1.168-3.197l-1.168,3.197H42.713z"/>
<path fill="#231F20" d="M49.834,75.903c-0.279,0-0.512,0-0.682-0.049v-1.521c0.122,0.025,0.268,0.037,0.438,0.037
	c0.767,0,1.168-0.329,1.168-1.204v-7.893h1.727v7.807C52.484,74.965,51.609,75.903,49.834,75.903"/>
<polygon fill="#231F20" points="54.992,65.274 59.954,65.274 59.954,66.745 56.719,66.745 56.719,68.715 59.468,68.715 
	59.468,70.187 56.719,70.187 56.719,72.315 59.954,72.315 59.954,73.787 54.992,73.787 "/>
<path fill="#231F20" d="M67.06,65.274h1.728v5.181c0,2.237-1.313,3.575-3.454,3.575c-2.128,0-3.441-1.338-3.441-3.575v-5.181h1.728
	v5.327c0,1.143,0.644,1.812,1.727,1.812c1.057,0,1.714-0.669,1.714-1.812V65.274z"/>
<polygon fill="#231F20" points="71.054,65.274 73.267,65.274 77.074,71.367 77.074,65.274 78.801,65.274 78.801,73.787 
	76.588,73.787 72.781,67.669 72.781,73.787 71.054,73.787 "/>
<polygon fill="#231F20" points="81.312,65.274 86.273,65.274 86.273,66.745 83.039,66.745 83.039,68.715 85.788,68.715 
	85.788,70.187 83.039,70.187 83.039,72.315 86.273,72.315 86.273,73.787 81.312,73.787 "/>
<path fill="#231F20" d="M88.893,71.452c0.512,0.657,1.191,1.046,1.886,1.046c0.681,0,1.094-0.365,1.094-0.985
	c0-1.52-3.892-1.18-3.892-4.014c0-1.349,1.106-2.468,2.725-2.468c1.276,0,2.262,0.571,2.979,1.435l-1.266,1.131
	c-0.498-0.645-1.057-1.058-1.702-1.058c-0.596,0-0.985,0.389-0.985,0.888c0,1.521,3.892,1.167,3.892,4.05
	c-0.024,1.58-1.264,2.554-2.821,2.554c-1.435,0-2.408-0.523-3.162-1.423L88.893,71.452z"/>
<path fill="#231F20" d="M95.963,71.452c0.511,0.657,1.19,1.046,1.885,1.046c0.681,0,1.094-0.365,1.094-0.985
	c0-1.52-3.891-1.18-3.891-4.014c0-1.349,1.105-2.468,2.724-2.468c1.277,0,2.263,0.571,2.98,1.435l-1.267,1.131
	c-0.498-0.645-1.057-1.058-1.701-1.058c-0.597,0-0.985,0.389-0.985,0.888c0,1.521,3.891,1.167,3.891,4.05
	c-0.023,1.58-1.264,2.554-2.82,2.554c-1.436,0-2.408-0.523-3.162-1.423L95.963,71.452z"/>
<polygon fill="#231F20" points="102.631,65.274 107.593,65.274 107.593,66.745 104.357,66.745 104.357,68.715 107.106,68.715 
	107.106,70.187 104.357,70.187 104.357,72.315 107.593,72.315 107.593,73.787 102.631,73.787 "/>
<polygon fill="#231F20" points="11.247,77.73 16.209,77.73 16.209,79.201 12.975,79.201 12.975,81.17 15.723,81.17 15.723,82.643 
	12.975,82.643 12.975,84.771 16.209,84.771 16.209,86.243 11.247,86.243 "/>
<polygon fill="#231F20" points="17.648,77.73 24.629,77.73 24.629,79.299 22.003,79.299 22.003,86.243 20.275,86.243 20.275,79.299 
	17.648,79.299 "/>
<path fill="#231F20" d="M29.561,77.73h3.345c2.699,0,4.524,1.958,4.524,4.257c0,2.298-1.825,4.256-4.524,4.256h-3.345V77.73z
	 M31.287,79.298v5.375h1.643c1.58,0,2.724-1.18,2.724-2.687c0-1.521-1.144-2.688-2.724-2.688H31.287z"/>
<polygon fill="#231F20" points="39.223,77.73 44.184,77.73 44.184,79.201 40.949,79.201 40.949,81.17 43.698,81.17 43.698,82.643 
	40.949,82.643 40.949,84.771 44.184,84.771 44.184,86.243 39.223,86.243 "/>
<path fill="#231F20" d="M46.803,83.908c0.512,0.657,1.191,1.046,1.885,1.046c0.682,0,1.095-0.365,1.095-0.985
	c0-1.52-3.892-1.18-3.892-4.014c0-1.349,1.106-2.468,2.725-2.468c1.277,0,2.262,0.571,2.98,1.435l-1.267,1.131
	c-0.498-0.645-1.058-1.058-1.702-1.058c-0.596,0-0.984,0.389-0.984,0.888c0,1.521,3.891,1.167,3.891,4.05
	c-0.024,1.58-1.264,2.554-2.821,2.554c-1.435,0-2.407-0.523-3.162-1.423L46.803,83.908z"/>
<path fill="#231F20" d="M57.243,83.908c0.511,0.657,1.19,1.046,1.885,1.046c0.681,0,1.095-0.365,1.095-0.985
	c0-1.52-3.892-1.18-3.892-4.014c0-1.349,1.106-2.468,2.724-2.468c1.277,0,2.262,0.571,2.98,1.435l-1.266,1.131
	c-0.498-0.645-1.058-1.058-1.703-1.058c-0.596,0-0.984,0.389-0.984,0.888c0,1.521,3.891,1.167,3.891,4.05
	c-0.023,1.58-1.264,2.554-2.82,2.554c-1.436,0-2.408-0.523-3.162-1.423L57.243,83.908z"/>
<path fill="#231F20" d="M63.911,77.73h2.81c1.872,0,3.016,0.96,3.016,2.541c0,1.569-1.144,2.53-3.016,2.53h-1.083v3.441h-1.727
	V77.73z M65.638,79.201v2.128h1.155c0.73,0,1.168-0.389,1.168-1.081c0-0.646-0.438-1.047-1.168-1.047H65.638z"/>
<path fill="#231F20" d="M79.773,81.986c0,2.433-1.836,4.5-4.511,4.5c-2.688,0-4.524-2.067-4.524-4.5c0-2.432,1.836-4.5,4.524-4.5
	C77.938,77.486,79.773,79.554,79.773,81.986 M77.998,81.986c0-1.63-1.143-2.882-2.735-2.882c-1.606,0-2.749,1.252-2.749,2.882
	s1.143,2.883,2.749,2.883C76.855,84.869,77.998,83.616,77.998,81.986"/>
<path fill="#231F20" d="M81.555,77.73h2.603c1.874,0,3.028,0.96,3.028,2.541c0,1.022-0.499,1.788-1.361,2.201l2.675,3.771h-2.067
	l-2.262-3.441h-0.888v3.441h-1.728V77.73z M83.282,79.201v2.128h0.973c0.73,0,1.155-0.389,1.155-1.081
	c0-0.646-0.425-1.047-1.155-1.047H83.282z"/>
<polygon fill="#231F20" points="88.442,77.73 95.423,77.73 95.423,79.299 92.797,79.299 92.797,86.243 91.069,86.243 91.069,79.299 
	88.442,79.299 "/>
<path fill="#231F20" d="M97.373,83.908c0.512,0.657,1.191,1.046,1.885,1.046c0.682,0,1.095-0.365,1.095-0.985
	c0-1.52-3.892-1.18-3.892-4.014c0-1.349,1.106-2.468,2.725-2.468c1.276,0,2.262,0.571,2.979,1.435l-1.266,1.131
	c-0.498-0.645-1.057-1.058-1.702-1.058c-0.596,0-0.985,0.389-0.985,0.888c0,1.521,3.892,1.167,3.892,4.05
	c-0.024,1.58-1.265,2.554-2.821,2.554c-1.435,0-2.408-0.523-3.162-1.423L97.373,83.908z"/>
<path fill="#231F20" d="M39.112,109.838c0.231,0,0.433,0.176,0.325,0.62l-1.076,0.25C38.549,110.208,38.862,109.838,39.112,109.838
	 M39.707,111.573h-0.213c-0.27,0.319-0.557,0.57-0.845,0.57c-0.295,0-0.444-0.176-0.444-0.57c0-0.163,0.019-0.326,0.049-0.476
	l1.735-0.569c0.339-0.802-0.069-1.153-0.545-1.153c-0.821,0-1.753,1.371-1.753,2.573c0,0.539,0.257,0.833,0.657,0.833
	C38.818,112.781,39.307,112.324,39.707,111.573 M39.362,109.056l1.222-1.14v-0.132h-0.658l-0.75,1.271H39.362z M35.619,109.858
	h0.576l-0.915,2.498c-0.081,0.213,0.032,0.425,0.251,0.425c0.52,0,1.359-0.513,1.652-1.214h-0.162
	c-0.232,0.244-0.676,0.568-1.059,0.638l0.84-2.347h0.857l0.106-0.357h-0.833l0.32-0.901h-0.332l-0.596,0.901l-0.707,0.101V109.858z
	 M34.842,109.739c0.07-0.232-0.086-0.364-0.205-0.364c-0.502,0-1.096,0.451-1.334,1.084h0.162c0.164-0.231,0.438-0.489,0.695-0.532
	l-0.957,2.491c-0.089,0.232,0.086,0.363,0.206,0.363c0.476,0,1.032-0.457,1.271-1.083h-0.163c-0.162,0.231-0.437,0.489-0.694,0.532
	L34.842,109.739z M35.018,108.487c0.226,0,0.414-0.183,0.414-0.414c0-0.225-0.188-0.413-0.414-0.413
	c-0.23,0-0.413,0.188-0.413,0.413C34.604,108.304,34.787,108.487,35.018,108.487 M29.502,112.318
	c-0.125,0.282,0.006,0.463,0.282,0.463c0.169,0,0.244-0.043,0.313-0.225l0.662-1.76c0.308-0.376,0.939-0.776,1.19-0.776
	c0.181,0,0.156,0.15,0.037,0.376l-1.021,1.96c-0.1,0.193,0.031,0.425,0.25,0.425c0.502,0,1.097-0.45,1.334-1.083h-0.162
	c-0.163,0.231-0.438,0.489-0.695,0.532l0.877-1.771c0.112-0.226,0.169-0.438,0.169-0.607c0-0.288-0.163-0.477-0.464-0.477
	c-0.432,0-0.87,0.489-1.391,1.09v-0.463c0-0.332-0.105-0.627-0.406-0.627c-0.188,0-0.369,0.163-0.538,0.396v0.062
	c0.326-0.018,0.47,0.47,0.237,0.984L29.502,112.318z M29.489,110.139c0.119-0.407,0.058-0.765-0.256-0.765
	c-0.37,0-0.464,0.282-0.84,1.09v-0.463c0-0.332-0.106-0.627-0.406-0.627c-0.351,0-0.67,0.545-0.914,1.084h0.162
	c0.169-0.244,0.326-0.388,0.451-0.388c0.149,0,0.231,0.23,0,0.745l-0.677,1.502c-0.125,0.282,0.007,0.463,0.283,0.463
	c0.168,0,0.244-0.043,0.313-0.225l0.663-1.76c0.188-0.231,0.356-0.433,0.569-0.657H29.489z M25.646,109.838
	c0.231,0,0.433,0.176,0.325,0.62l-1.076,0.25C25.082,110.208,25.395,109.838,25.646,109.838 M26.24,111.573h-0.213
	c-0.27,0.319-0.557,0.57-0.845,0.57c-0.294,0-0.445-0.176-0.445-0.57c0-0.163,0.019-0.326,0.05-0.476l1.734-0.569
	c0.339-0.802-0.068-1.153-0.544-1.153c-0.82,0-1.753,1.371-1.753,2.573c0,0.539,0.256,0.833,0.656,0.833
	C25.352,112.781,25.84,112.324,26.24,111.573 M22.151,109.858h0.576l-0.914,2.498c-0.081,0.213,0.032,0.425,0.251,0.425
	c0.52,0,1.357-0.513,1.652-1.214h-0.162c-0.232,0.244-0.676,0.568-1.059,0.638l0.84-2.347h0.857l0.105-0.357h-0.832l0.32-0.901
	h-0.332l-0.596,0.901l-0.708,0.101V109.858z M18.99,111.803c0-0.77,0.858-1.814,1.34-1.814c0.106,0,0.207,0.013,0.295,0.038
	l-0.502,1.333c-0.287,0.351-0.731,0.775-0.938,0.775C19.065,112.135,18.99,112.036,18.99,111.803 M21.627,109.231l-0.264-0.019
	l-0.295,0.288h-0.063c-1.426,0-2.66,1.603-2.66,2.768c0,0.325,0.199,0.513,0.513,0.513c0.37,0,0.733-0.525,1.14-1.089l-0.019,0.2
	c-0.05,0.576,0.125,0.889,0.426,0.889c0.351,0,0.67-0.544,0.914-1.083h-0.163c-0.169,0.245-0.326,0.388-0.451,0.388
	c-0.131,0-0.225-0.237,0-0.744L21.627,109.231z M18.584,110.139c0.119-0.407,0.055-0.765-0.258-0.765
	c-0.369,0-0.463,0.282-0.839,1.09v-0.463c0-0.332-0.106-0.627-0.407-0.627c-0.35,0-0.668,0.545-0.914,1.084h0.164
	c0.168-0.244,0.325-0.388,0.45-0.388c0.149,0,0.231,0.23,0,0.745l-0.677,1.502c-0.125,0.282,0.007,0.463,0.281,0.463
	c0.17,0,0.244-0.043,0.313-0.225l0.664-1.76c0.188-0.231,0.356-0.433,0.57-0.657H18.584z M13.787,112.656l0.063-0.194
	c-0.832-0.157-0.938-0.157-0.606-1.063l0.337-0.934h0.922c0.412,0,0.418,0.169,0.356,0.62h0.237l0.551-1.509h-0.237
	c-0.206,0.357-0.37,0.62-0.819,0.62h-0.908l0.482-1.321c0.149-0.42,0.237-0.508,0.801-0.508h0.4c0.582,0,0.651,0.157,0.651,0.746
	h0.231l0.194-1.027h-3.456l-0.063,0.194c0.67,0.138,0.732,0.2,0.42,1.063l-0.752,2.055c-0.313,0.857-0.444,0.926-1.215,1.063
	l-0.057,0.194H13.787z"/>
<path fill="#231F20" d="M30.729,102.012c0.232,0,0.433,0.176,0.326,0.62l-1.076,0.25C30.166,102.381,30.479,102.012,30.729,102.012
	 M31.324,103.747h-0.213c-0.27,0.319-0.557,0.57-0.846,0.57c-0.295,0-0.444-0.177-0.444-0.57c0-0.163,0.019-0.326,0.05-0.476
	l1.734-0.569c0.339-0.802-0.068-1.153-0.545-1.153c-0.819,0-1.752,1.372-1.752,2.573c0,0.539,0.256,0.833,0.656,0.833
	C30.436,104.955,30.924,104.498,31.324,103.747 M30.98,101.23l1.22-1.14v-0.132h-0.657l-0.751,1.271H30.98z M27.234,102.032h0.578
	l-0.914,2.498c-0.082,0.213,0.031,0.425,0.25,0.425c0.52,0,1.357-0.513,1.652-1.214h-0.162c-0.232,0.244-0.677,0.569-1.059,0.638
	l0.839-2.347h0.858l0.105-0.357h-0.832l0.319-0.901h-0.332l-0.595,0.901l-0.709,0.101V102.032z M26.459,101.912
	c0.069-0.231-0.087-0.363-0.206-0.363c-0.501,0-1.096,0.451-1.334,1.084h0.163c0.163-0.231,0.438-0.488,0.695-0.533l-0.958,2.492
	c-0.089,0.232,0.087,0.363,0.206,0.363c0.477,0,1.033-0.457,1.271-1.083h-0.162c-0.164,0.232-0.439,0.489-0.695,0.532
	L26.459,101.912z M26.635,100.661c0.225,0,0.414-0.182,0.414-0.414c0-0.225-0.189-0.413-0.414-0.413
	c-0.231,0-0.414,0.188-0.414,0.413C26.221,100.479,26.403,100.661,26.635,100.661 M23.305,104.404l1.746-4.576l-0.057-0.069
	l-1.096,0.125v0.131l0.213,0.163c0.193,0.15,0.132,0.295-0.043,0.759l-1.365,3.594c-0.1,0.193,0.031,0.425,0.25,0.425
	c0.501,0,1.033-0.45,1.271-1.083h-0.164C23.898,104.104,23.561,104.361,23.305,104.404 M19.984,103.978
	c0-0.771,0.859-1.815,1.341-1.815c0.106,0,0.207,0.013,0.295,0.038l-0.501,1.333c-0.288,0.351-0.732,0.776-0.939,0.776
	C20.061,104.31,19.984,104.209,19.984,103.978 M22.621,101.406l-0.262-0.02l-0.295,0.288h-0.063c-1.428,0-2.66,1.603-2.66,2.768
	c0,0.324,0.199,0.513,0.512,0.513c0.369,0,0.733-0.525,1.141-1.089l-0.02,0.2c-0.049,0.575,0.125,0.889,0.426,0.889
	c0.351,0,0.67-0.544,0.914-1.083h-0.162c-0.17,0.245-0.326,0.388-0.451,0.388c-0.132,0-0.225-0.237,0-0.744L22.621,101.406z
	 M16.248,105.563c0-0.332,0.318-0.539,0.775-0.721c0.15,0.075,0.377,0.156,0.677,0.256c0.476,0.157,0.657,0.22,0.657,0.363
	c0,0.308-0.52,0.539-1.227,0.539C16.536,106,16.248,105.875,16.248,105.563 M17.544,103.54c-0.206,0-0.288-0.175-0.288-0.375
	c0-0.558,0.301-1.378,0.77-1.378c0.207,0,0.289,0.176,0.289,0.376C18.314,102.719,18.014,103.54,17.544,103.54 M18.902,105.255
	c0-0.4-0.356-0.545-0.938-0.72c-0.501-0.15-0.727-0.194-0.727-0.357c0-0.131,0.106-0.288,0.319-0.4
	c0.82-0.044,1.353-0.783,1.353-1.402c0-0.131-0.024-0.244-0.069-0.344h0.695l0.105-0.357h-1.102
	c-0.131-0.082-0.287-0.126-0.443-0.126c-0.871,0-1.435,0.765-1.435,1.384c0,0.471,0.301,0.765,0.664,0.833
	c-0.407,0.182-0.632,0.395-0.632,0.646c0,0.144,0.049,0.244,0.168,0.338c-0.938,0.275-1.309,0.588-1.309,1.033
	c0,0.432,0.57,0.613,1.246,0.613C17.944,106.395,18.902,105.776,18.902,105.255 M14.525,102.576c0.414,0,0.42,0.169,0.357,0.62
	h0.238l0.551-1.509h-0.238c-0.207,0.356-0.369,0.619-0.819,0.619h-0.908l0.457-1.258c0.149-0.42,0.237-0.501,0.802-0.501h0.4
	c0.582,0,0.65,0.156,0.65,0.738h0.232l0.193-1.026h-3.455l-0.063,0.194c0.67,0.138,0.732,0.2,0.42,1.064l-0.752,2.054
	c-0.313,0.857-0.445,0.926-1.215,1.063l-0.057,0.194h3.845l0.688-1.089H15.59c-0.438,0.413-0.988,0.807-1.759,0.807
	c-1.021,0-0.927-0.043-0.588-0.976l0.362-0.996H14.525z M15.027,99.953l1.221-0.839v-0.132H15.51l-0.677,0.971H15.027z"/>
<path fill="#231F20" d="M30.322,94.186c0.231,0,0.432,0.175,0.325,0.62l-1.077,0.251C29.759,94.556,30.072,94.186,30.322,94.186
	 M30.916,95.92h-0.213c-0.269,0.319-0.557,0.569-0.844,0.569c-0.295,0-0.445-0.175-0.445-0.569c0-0.162,0.02-0.325,0.051-0.476
	l1.734-0.57c0.338-0.801-0.069-1.151-0.545-1.151c-0.82,0-1.754,1.371-1.754,2.573c0,0.538,0.258,0.833,0.658,0.833
	C30.027,97.129,30.517,96.672,30.916,95.92 M30.572,93.404l1.221-1.14v-0.131h-0.657l-0.751,1.271H30.572z M26.984,94.205h0.457
	l-0.914,2.498c-0.08,0.213,0.032,0.427,0.252,0.427c0.519,0,1.357-0.515,1.652-1.216h-0.163c-0.231,0.244-0.676,0.57-1.058,0.64
	l0.839-2.349h0.858l0.105-0.356h-0.833l0.319-0.902h-0.332l-0.594,0.902l-0.59,0.1V94.205z M26.535,94.487
	c0.119-0.408,0.056-0.764-0.258-0.764c-0.369,0-0.463,0.281-0.839,1.089v-0.463c0-0.332-0.106-0.626-0.407-0.626
	c-0.35,0-0.67,0.544-0.914,1.083h0.164c0.168-0.244,0.326-0.388,0.451-0.388c0.149,0,0.23,0.23,0,0.744l-0.678,1.502
	c-0.125,0.282,0.007,0.465,0.282,0.465c0.169,0,0.245-0.044,0.313-0.227l0.663-1.759c0.188-0.232,0.357-0.432,0.57-0.657H26.535z
	 M22.689,94.186c0.232,0,0.434,0.175,0.326,0.62l-1.077,0.251C22.127,94.556,22.439,94.186,22.689,94.186 M23.285,95.92h-0.213
	c-0.27,0.319-0.558,0.569-0.846,0.569c-0.294,0-0.443-0.175-0.443-0.569c0-0.162,0.018-0.325,0.049-0.476l1.734-0.57
	c0.338-0.801-0.068-1.151-0.544-1.151c-0.821,0-1.754,1.371-1.754,2.573c0,0.538,0.257,0.833,0.658,0.833
	C22.396,97.129,22.885,96.672,23.285,95.92 M19.033,96.621c-0.168,0-0.412-0.155-0.412-0.293c0-0.044,0.074-0.238,0.168-0.482
	l0.283-0.745c0.299-0.356,0.758-0.739,1.014-0.739c0.156,0,0.275,0.101,0.275,0.332C20.361,95.376,19.723,96.621,19.033,96.621
	 M21.006,94.418c0-0.508-0.188-0.695-0.538-0.695c-0.438,0-0.851,0.463-1.265,1.025l1.045-2.747l-0.057-0.069l-1.095,0.126v0.131
	l0.213,0.162c0.194,0.151,0.132,0.308-0.044,0.758l-1.127,2.905c-0.081,0.213-0.182,0.463-0.182,0.532
	c0,0.301,0.406,0.583,0.777,0.583C19.584,97.129,21.006,95.595,21.006,94.418 M17.601,94.086c0.069-0.232-0.088-0.363-0.207-0.363
	c-0.501,0-1.096,0.451-1.333,1.083h0.162c0.163-0.232,0.439-0.488,0.695-0.532l-0.959,2.492c-0.086,0.23,0.089,0.363,0.207,0.363
	c0.477,0,1.033-0.457,1.271-1.083h-0.162c-0.164,0.23-0.438,0.487-0.695,0.531L17.601,94.086z M17.775,92.834
	c0.227,0,0.413-0.183,0.413-0.414c0-0.226-0.187-0.413-0.413-0.413c-0.23,0-0.412,0.188-0.412,0.413
	C17.363,92.652,17.545,92.834,17.775,92.834 M15.253,92.433h-2.279l-0.063,0.194c0.67,0.138,0.733,0.2,0.42,1.063l-0.738,2.054
	c-0.313,0.858-0.444,0.928-1.214,1.064l-0.058,0.194h3.469l0.752-1.341h-0.264c-0.426,0.471-0.927,1.06-1.697,1.06
	c-0.582,0-0.65-0.102-0.338-0.978l0.74-2.054c0.307-0.856,0.443-0.926,1.213-1.063L15.253,92.433z"/>
</svg>
