<svg xmlns="http://www.w3.org/2000/svg" width="52" height="47" viewBox="0 0 52 47">
  <path fill="#FFD213" d="M30.8624192,6.94271857 L11.3624192,18.3177186 C10.3639616,18.9001521 9.75,19.969082 9.75,21.125 L9.75,43.875 C9.75,45.030918 10.3639616,46.0998479 11.3624192,46.6822814 L30.8624192,58.0572814 C31.8743473,58.6475729 33.1256527,58.6475729 34.1375808,58.0572814 L53.6375808,46.6822814 C54.6360384,46.0998479 55.25,45.030918 55.25,43.875 L55.25,21.125 C55.25,19.969082 54.6360384,18.9001521 53.6375808,18.3177186 L34.1375808,6.94271857 C33.1256527,6.35242714 31.8743473,6.35242714 30.8624192,6.94271857 Z M32.5,13.511875 L48.75,22.9905 L48.75,42.007875 L32.5,51.4865 L16.25,42.007875 L16.25,22.9905 L32.5,13.511875 Z" transform="rotate(-151 28.116 28.906)"/>
</svg>
