<svg xmlns="http://www.w3.org/2000/svg" width="1718" height="770" viewBox="0 0 1718 770">
  <g fill="none" transform="translate(-7.89 -8.816)">
    <path fill="#FF507B" d="M11.5852004,10.7845007 C16.7645771,5.60512397 25.160451,5.60512397 30.3378865,10.7841821 C34.660562,15.1051645 34.660562,22.114281 30.3378069,26.437036 C26.6995427,30.0735193 20.8028385,30.0735193 17.165957,26.4366379 C16.2677512,25.538432 16.2677512,24.0821526 17.165957,23.1839467 C18.0641629,22.2857408 19.5204424,22.2857408 20.4186482,23.1839467 C22.2592506,25.0245491 25.24401,25.0245491 27.0855139,23.1839467 C29.6113529,20.6581077 29.6113529,16.5620416 27.0852591,14.0369371 C23.7036936,10.6543118 18.2207717,10.6543118 14.8380955,14.036988 C10.3873015,18.488898 10.3873015,25.7065098 14.8377285,30.1580529 C20.6281253,35.9472885 30.0142779,35.9472885 35.8033504,30.158216 C36.7015563,29.2600101 38.1578358,29.2600101 39.0560416,30.158216 C39.9542475,31.0564218 39.9542475,32.5127013 39.0560416,33.4109072 C31.4706117,40.9963371 19.1721517,40.9963371 11.5849966,33.4107033 C5.33833448,27.1624748 5.33833448,17.032933 11.5852004,10.7845007 Z" transform="rotate(-151 610.089 -58.334)"/>
    <path fill="#24D9F4" d="M15.6329906,3.64774197 L2.70986558,23.947742 C2.09462772,24.9141745 2.89842649,26.1 4.16875,26.1 L29.18125,26.1 C30.4311943,26.1 31.2367729,24.9483796 30.6619807,23.9832113 L18.5726057,3.68321134 C17.9603753,2.65517825 16.2777882,2.63487617 15.6329906,3.64774197 Z M17.0426838,7.41965 L26.43988,23.2 L6.99683,23.2 L17.0426838,7.41965 Z" opacity=".4" transform="rotate(163 91.507 53.48)"/>
    <path fill="#24D9F4" d="M15.6329906,3.64774197 L2.70986558,23.947742 C2.09462772,24.9141745 2.89842649,26.1 4.16875,26.1 L29.18125,26.1 C30.4311943,26.1 31.2367729,24.9483796 30.6619807,23.9832113 L18.5726057,3.68321134 C17.9603753,2.65517825 16.2777882,2.63487617 15.6329906,3.64774197 Z M17.0426838,7.41965 L26.43988,23.2 L6.99683,23.2 L17.0426838,7.41965 Z" opacity=".4" transform="rotate(163 574.849 482.51)"/>
    <path fill="#FFD213" d="M21.8410966,4.91330853 L8.04109664,12.9633085 C7.33449592,13.3754923 6.9,14.1319658 6.9,14.95 L6.9,31.05 C6.9,31.8680342 7.33449592,32.6245077 8.04109664,33.0366915 L21.8410966,41.0866915 C22.5572304,41.5044362 23.4427696,41.5044362 24.1589034,41.0866915 L37.9589034,33.0366915 C38.6655041,32.6245077 39.1,31.8680342 39.1,31.05 L39.1,14.95 C39.1,14.1319658 38.6655041,13.3754923 37.9589034,12.9633085 L24.1589034,4.91330853 C23.4427696,4.49556382 22.5572304,4.49556382 21.8410966,4.91330853 Z M23,9.56225 L34.5,16.2702 L34.5,29.72865 L23,36.4366 L11.5,29.72865 L11.5,16.2702 L23,9.56225 Z" transform="rotate(-151 662.468 98.821)"/>
    <path fill="#24D9F4" d="M4.57789142,7.19773991 C5.09584996,6.67978137 5.91868887,6.6525204 6.46874007,7.11595698 L6.55779041,7.19773991 L12.4971,13.1369 L17.9422096,7.69271465 C18.4601681,7.17475612 19.283007,7.14749514 19.8330582,7.61093173 L19.9221086,7.69271465 L26.851755,14.6223611 C27.398489,15.1690951 27.398489,16.0555261 26.851755,16.6022601 C26.3337965,17.1202186 25.5109576,17.1474796 24.9609064,16.684043 L24.871856,16.6022601 L18.9315,10.6624 L13.4874369,16.1072853 C12.9694783,16.6252439 12.1466394,16.6525049 11.5965882,16.1890683 L11.5075379,16.1072853 L5.5678,10.1675 L-0.371856044,16.1072853 C-0.889814579,16.6252439 -1.71265349,16.6525049 -2.26270469,16.1890683 L-2.35175503,16.1072853 C-2.86971357,15.5893268 -2.89697454,14.7664879 -2.43353796,14.2164367 L-2.35175503,14.1273864 L4.57789142,7.19773991 Z" opacity=".4" transform="rotate(168 74.63 178.693)"/>
    <path fill="#24D9F4" d="M4.57789142,7.19773991 C5.09584996,6.67978137 5.91868887,6.6525204 6.46874007,7.11595698 L6.55779041,7.19773991 L12.4971,13.1369 L17.9422096,7.69271465 C18.4601681,7.17475612 19.283007,7.14749514 19.8330582,7.61093173 L19.9221086,7.69271465 L26.851755,14.6223611 C27.398489,15.1690951 27.398489,16.0555261 26.851755,16.6022601 C26.3337965,17.1202186 25.5109576,17.1474796 24.9609064,16.684043 L24.871856,16.6022601 L18.9315,10.6624 L13.4874369,16.1072853 C12.9694783,16.6252439 12.1466394,16.6525049 11.5965882,16.1890683 L11.5075379,16.1072853 L5.5678,10.1675 L-0.371856044,16.1072853 C-0.889814579,16.6252439 -1.71265349,16.6525049 -2.26270469,16.1890683 L-2.35175503,16.1072853 C-2.86971357,15.5893268 -2.89697454,14.7664879 -2.43353796,14.2164367 L-2.35175503,14.1273864 L4.57789142,7.19773991 Z" opacity=".6" transform="rotate(154 170.596 438.606)"/>
    <path fill="#FF507B" d="M22.2310991,7.33347101 L7.85609913,17.683471 C7.03928538,18.2715769 6.69974344,19.3224689 7.01802841,20.2773239 L12.7680284,37.5273239 C13.0810907,38.4665108 13.9600101,39.1 14.95,39.1 L32.2,39.1 C33.1899899,39.1 34.0689093,38.4665108 34.3819716,37.5273239 L40.1319716,20.2773239 C40.4502566,19.3224689 40.1107146,18.2715769 39.2939009,17.683471 L24.9189009,7.33347101 C24.1161768,6.75550966 23.0338232,6.75550966 22.2310991,7.33347101 Z M23.575,12.0336 L35.23255,20.42745 L30.5417,34.5 L16.60715,34.5 L11.9163,20.42745 L23.575,12.0336 Z" opacity=".4" transform="rotate(-151 849.287 105.451)"/>
    <path fill="#FF507B" d="M16.431682,5.42039162 L5.80668197,13.0703916 C5.20295007,13.5050786 4.95198428,14.2818249 5.18723839,14.9875872 L9.43723839,27.7375872 C9.66863227,28.4317688 10.3182683,28.9 11.05,28.9 L23.8,28.9 C24.5317317,28.9 25.1813677,28.4317688 25.4127616,27.7375872 L29.6627616,14.9875872 C29.8980157,14.2818249 29.6470499,13.5050786 29.043318,13.0703916 L18.418318,5.42039162 C17.8250002,4.99320279 17.0249998,4.99320279 16.431682,5.42039162 Z M17.425,8.8944 L26.04145,15.09855 L22.5743,25.5 L12.27485,25.5 L8.8077,15.09855 L17.425,8.8944 Z" opacity=".6" transform="rotate(-151 297.674 273.096)"/>
    <path fill="#FF507B" d="M11.5988343,3.82615879 L4.09883433,9.22615879 C3.67267063,9.53299665 3.49551832,10.0812881 3.66158004,10.5794733 L6.66158004,19.5794733 C6.8249169,20.0694839 7.28348351,20.4 7.8,20.4 L16.8,20.4 C17.3165165,20.4 17.7750831,20.0694839 17.93842,19.5794733 L20.93842,10.5794733 C21.1044817,10.0812881 20.9273294,9.53299665 20.5011657,9.22615879 L13.0011657,3.82615879 C12.5823531,3.52461374 12.0176469,3.52461374 11.5988343,3.82615879 Z M12.3,6.2784 L18.3822,10.6578 L15.9348,18 L8.6646,18 L6.2172,10.6578 L12.3,6.2784 Z" opacity=".25" transform="rotate(-151 33.787 85.932)"/>
    <path fill="#24D9F4" d="M15.9376815,4.276663 L2.76268155,28.076663 C2.13545255,29.2097218 2.95491756,30.6 4.25,30.6 L29.75,30.6 C31.024306,30.6 31.8455855,29.2498244 31.2595905,28.1182478 L18.9345905,4.31824778 C18.3104275,3.1129676 16.5950464,3.08916516 15.9376815,4.276663 Z M17.37485,8.6989 L26.9552,27.2 L7.1332,27.2 L17.37485,8.6989 Z" transform="rotate(-151 295.365 18.708)"/>
    <path fill="#FFD213" d="M7.75482448,9.350633 L7.88149929,9.35911775 C8.81534777,9.45622762 9.49365844,10.2919845 9.39654857,11.225833 C8.90944981,15.9099755 12.3117217,20.1022299 16.9963087,20.5893751 C21.6794729,21.0782309 25.87199,17.6757457 26.3591178,12.9913245 C26.4562276,12.057476 27.2919845,11.3791654 28.225833,11.4762752 C29.1596814,11.5733851 29.8379921,12.409142 29.7408822,13.3429904 C29.0595069,19.8953765 23.194869,24.6548904 16.6439789,23.9710704 C10.0923123,23.2897699 5.33347043,17.4259599 6.01478408,10.874167 C6.10747986,9.98276622 6.87319904,9.32420047 7.75482448,9.350633 Z" opacity=".6" transform="rotate(-175 208.275 15.193)"/>
    <path fill="#58D8B0" d="M23.0009774,4.6 C12.8387295,4.6 4.6,12.8387295 4.6,23.0009774 C4.6,33.1629388 12.8384429,41.4 23.0009774,41.4 C33.1635118,41.4 41.4019547,33.1629388 41.4019547,23.0009774 C41.4019547,12.8387295 33.1632252,4.6 23.0009774,4.6 Z M23.0009774,9.2 C30.6227154,9.2 36.8019547,15.3792393 36.8019547,23.0009774 C36.8019547,30.6222562 30.6231746,36.8 23.0009774,36.8 C15.3787801,36.8 9.2,30.6222562 9.2,23.0009774 C9.2,15.3792393 15.3792393,9.2 23.0009774,9.2 Z" transform="rotate(-151 275.7 119.363)"/>
    <path fill="#FF507B" d="M15.6386957,-2.59101002 C16.1307869,-3.39060336 17.1779042,-3.63988306 17.9774975,-3.14779181 C23.6221754,0.326094766 23.6945431,8.47001931 18.2446071,12.0306009 L17.9697735,12.2054374 C14.4724948,14.3575103 14.4111391,19.3904413 17.7237423,21.6079626 L17.9044305,21.7240326 L17.9774975,21.7665582 C23.6221754,25.2404448 23.6945431,33.3843693 18.2446071,36.9449509 L18.0218278,37.0864355 C17.2406291,37.6072347 16.1851512,37.3961391 15.664352,36.6149403 C15.1695928,35.8728015 15.3353686,34.8831258 16.0229633,34.3394933 L16.1358472,34.2574645 L16.1956699,34.2189398 C19.6936286,32.0668428 19.7549963,27.0340992 16.4416246,24.8164923 L16.2608945,24.7004174 L16.1877091,24.6578189 C10.5440262,21.1839082 10.4716713,13.0401731 15.9207517,9.47950268 L16.1956699,9.30458979 C19.7560921,7.11406252 19.7560921,1.93908982 16.1954775,-0.252208185 C15.3958841,-0.744299433 15.1466044,-1.79141668 15.6386957,-2.59101002 Z" opacity=".6" transform="rotate(-120 699.987 -374.618)"/>
    <path fill="#58D8B0" d="M12.0005099,2.4 C6.69846755,2.4 2.4,6.69846755 2.4,12.0005099 C2.4,17.3024028 6.69831805,21.6 12.0005099,21.6 C17.3027018,21.6 21.6010199,17.3024028 21.6010199,12.0005099 C21.6010199,6.69846755 17.3025523,2.4 12.0005099,2.4 Z M12.0005099,4.8 C15.9770689,4.8 19.2010199,8.02395095 19.2010199,12.0005099 C19.2010199,15.9768293 15.9773085,19.2 12.0005099,19.2 C8.02371135,19.2 4.8,15.9768293 4.8,12.0005099 C4.8,8.02395095 8.02395095,4.8 12.0005099,4.8 Z" opacity=".4" transform="rotate(-113 803.585 -453.279)"/>
    <path fill="#58D8B0" d="M12.0005099,2.4 C6.69846755,2.4 2.4,6.69846755 2.4,12.0005099 C2.4,17.3024028 6.69831805,21.6 12.0005099,21.6 C17.3027018,21.6 21.6010199,17.3024028 21.6010199,12.0005099 C21.6010199,6.69846755 17.3025523,2.4 12.0005099,2.4 Z M12.0005099,4.8 C15.9770689,4.8 19.2010199,8.02395095 19.2010199,12.0005099 C19.2010199,15.9768293 15.9773085,19.2 12.0005099,19.2 C8.02371135,19.2 4.8,15.9768293 4.8,12.0005099 C4.8,8.02395095 8.02395095,4.8 12.0005099,4.8 Z" opacity=".25" transform="rotate(-113 308.057 334.175)"/>
    <path fill="#FF507B" d="M19.3183888,-3.20065944 C19.9262662,-4.18839239 21.219764,-4.49632614 22.2074969,-3.88844871 C29.1803343,0.402822946 29.2697297,10.462965 22.5374558,14.8613306 L22.1979555,15.077305 C17.8777877,17.735748 17.8019953,23.9528981 21.8940346,26.6921891 L22.1172377,26.8355697 L22.2074969,26.8881013 C29.1803343,31.1793729 29.2697297,41.239515 22.5374558,45.6378806 L22.2622579,45.8126556 C21.2972477,46.4559958 19.993422,46.1952307 19.3500819,45.2302204 C18.7389087,44.3134607 18.9436906,43.0909201 19.7930724,42.4193741 L19.9325171,42.3180444 L20.0064157,42.270455 C24.3274235,39.6119823 24.4032307,33.3950638 20.3102422,30.6556669 L20.0869873,30.5122803 L19.9965818,30.4596587 C13.0249735,26.1683572 12.9355939,16.1084491 19.6668109,11.7099739 L20.0064157,11.493905 C24.4045844,8.78795959 24.4045844,2.39534625 20.0061781,-0.311551288 C19.0184451,-0.919428711 18.7105114,-2.21292649 19.3183888,-3.20065944 Z" transform="rotate(-116 422.744 102.731)"/>
    <path fill="#FF507B" d="M15.6386957,-2.59101002 C16.1307869,-3.39060336 17.1779042,-3.63988306 17.9774975,-3.14779181 C23.6221754,0.326094766 23.6945431,8.47001931 18.2446071,12.0306009 L17.9697735,12.2054374 C14.4724948,14.3575103 14.4111391,19.3904413 17.7237423,21.6079626 L17.9044305,21.7240326 L17.9774975,21.7665582 C23.6221754,25.2404448 23.6945431,33.3843693 18.2446071,36.9449509 L18.0218278,37.0864355 C17.2406291,37.6072347 16.1851512,37.3961391 15.664352,36.6149403 C15.1695928,35.8728015 15.3353686,34.8831258 16.0229633,34.3394933 L16.1358472,34.2574645 L16.1956699,34.2189398 C19.6936286,32.0668428 19.7549963,27.0340992 16.4416246,24.8164923 L16.2608945,24.7004174 L16.1877091,24.6578189 C10.5440262,21.1839082 10.4716713,13.0401731 15.9207517,9.47950268 L16.1956699,9.30458979 C19.7560921,7.11406252 19.7560921,1.93908982 16.1954775,-0.252208185 C15.3958841,-0.744299433 15.1466044,-1.79141668 15.6386957,-2.59101002 Z" opacity=".4" transform="rotate(-83 974.693 -696.281)"/>
    <path fill="#FFD213" d="M19.2,3.6 L4.8,3.6 C4.1372583,3.6 3.6,4.1372583 3.6,4.8 L3.6,19.2 C3.6,19.8627417 4.1372583,20.4 4.8,20.4 L19.2,20.4 C19.8627417,20.4 20.4,19.8627417 20.4,19.2 L20.4,4.8 C20.4,4.1372583 19.8627417,3.6 19.2,3.6 Z M18,6 L18,18 L6,18 L6,6 L18,6 Z" opacity=".6" transform="rotate(-42 1471.954 -1414.306)"/>
    <g fill="#58D8B0" opacity=".4" transform="rotate(7 -4607.738 2183.312)">
      <path d="M15.8955197,4.96582887 C16.7641761,4.92030452 17.5110645,5.55518466 17.6186485,6.40447746 L17.6296128,6.52721328 L18.6658647,26.3000781 C18.7135569,27.210099 18.0145013,27.9864789 17.1044803,28.0341711 C16.2358239,28.0796955 15.4889355,27.4448153 15.3813515,26.5955225 L15.3703872,26.4727867 L14.3341353,6.69992193 C14.2864431,5.78990096 14.9854987,5.01352105 15.8955197,4.96582887 Z" transform="rotate(3 16.5 16.5)"/>
      <path d="M26.3000781,14.3341353 C27.210099,14.2864431 27.9864789,14.9854987 28.0341711,15.8955197 C28.0796955,16.7641761 27.4448153,17.5110645 26.5955225,17.6186485 L26.4727867,17.6296128 L6.69992193,18.6658647 C5.78990096,18.7135569 5.01352105,18.0145013 4.96582887,17.1044803 C4.92030452,16.2358239 5.55518466,15.4889355 6.40447746,15.3813515 L6.52721328,15.3703872 L26.3000781,14.3341353 Z" transform="rotate(3 16.5 16.5)"/>
    </g>
    <g fill="#58D8B0" opacity=".25" transform="rotate(7 -562.892 13981.606)">
      <path d="M15.8955197,4.96582887 C16.7641761,4.92030452 17.5110645,5.55518466 17.6186485,6.40447746 L17.6296128,6.52721328 L18.6658647,26.3000781 C18.7135569,27.210099 18.0145013,27.9864789 17.1044803,28.0341711 C16.2358239,28.0796955 15.4889355,27.4448153 15.3813515,26.5955225 L15.3703872,26.4727867 L14.3341353,6.69992193 C14.2864431,5.78990096 14.9854987,5.01352105 15.8955197,4.96582887 Z" transform="rotate(3 16.5 16.5)"/>
      <path d="M26.3000781,14.3341353 C27.210099,14.2864431 27.9864789,14.9854987 28.0341711,15.8955197 C28.0796955,16.7641761 27.4448153,17.5110645 26.5955225,17.6186485 L26.4727867,17.6296128 L6.69992193,18.6658647 C5.78990096,18.7135569 5.01352105,18.0145013 4.96582887,17.1044803 C4.92030452,16.2358239 5.55518466,15.4889355 6.40447746,15.3813515 L6.52721328,15.3703872 L26.3000781,14.3341353 Z" transform="rotate(3 16.5 16.5)"/>
    </g>
    <g transform="rotate(-64 928.124 -742.834)">
      <rect width="10" height="128" x="5.88" y=".587" fill="#FFD214" rx="5"/>
      <path fill="#C49E00" d="M10.6970101,0.017967066 L10.6970101,0.017967066 C10.4676109,0.017967066 10.2385841,0.0402678573 10.0120786,0.0841169368 C12.1039365,0.490115668 13.6421723,2.66947738 13.6422156,5.22726939 L13.6422156,122.808665 C13.6415995,125.366202 12.1036373,127.545176 10.0120786,127.951817 C10.2385841,127.995666 10.4676109,128.017967 10.6970101,128.017967 L10.6970101,128.017967 C13.0801566,128.017967 15.0120786,125.685683 15.0120786,122.808665 L15.0120786,5.22726939 C15.0120786,2.35025116 13.0801566,0.017967066 10.6970101,0.017967066 Z"/>
      <path fill="#FEE88A" d="M9.892611,128.596664 L9.892611,128.596664 C10.1220102,128.596664 10.351037,128.574363 10.5775425,128.530514 C8.48568464,128.124515 6.94744878,125.945153 6.94740552,123.387361 L6.94740552,5.80596586 C6.94802157,3.24842856 8.48598386,1.06945444 10.5775425,0.662813406 C10.351037,0.618964326 10.1220102,0.596663535 9.892611,0.596663535 L9.892611,0.596663535 C7.50946448,0.596663535 5.57754251,2.92894763 5.57754251,5.80596586 L5.57754251,123.387361 C5.57754251,126.264379 7.50946448,128.596664 9.892611,128.596664 Z"/>
      <path fill="#7D6708" d="M10.574407,129.221834 C7.53829763,129.218189 5.07792103,126.665763 5.07440701,123.516065 L5.07440701,5.92760332 C5.07440701,2.77639399 7.53684088,0.221834087 10.574407,0.221834087 C13.6119731,0.221834087 16.074407,2.77639399 16.074407,5.92760332 L16.074407,123.516065 C16.070893,126.665763 13.6105164,129.218189 10.574407,129.221834 Z M10.574407,1.21414178 C8.06620595,1.21687645 6.0335648,3.32556397 6.03092875,5.92760332 L6.03092875,123.516065 C6.03092875,126.119238 8.06511329,128.229526 10.574407,128.229526 C13.0837007,128.229526 15.1178853,126.119238 15.1178853,123.516065 L15.1178853,5.92760332 C15.1152492,3.32556397 13.0826081,1.21687645 10.574407,1.21414178 Z"/>
      <path fill="#7D6708" d="M5.66837431,48.205856 L5.12783377,48.205856 C2.66494231,48.205856 0.668374306,45.7642902 0.668374306,42.7524661 L0.668374306,14.6592458 C0.668374306,11.6474218 2.66494231,9.20585597 5.12783377,9.20585597 L5.66837431,9.20585597 L5.66837431,48.205856 Z M4.58729322,10.5807712 C2.95135686,10.9050377 1.74931786,12.6325802 1.74945539,14.6592458 L1.74945539,42.7524661 C1.74931786,44.7791317 2.95135686,46.5066742 4.58729322,46.8309407 L4.58729322,10.5807712 Z"/>
      <rect width="10" height="1" x="5.422" y="11.304" fill="#7D6708"/>
      <rect width="10" height="1" x="5.124" y="43.204" fill="#7D6708"/>
    </g>
    <g transform="rotate(-67 725.389 -38.655)">
      <path fill="#FFD214" d="M57.9741352,-26.3760825 L80.8194995,-26.4669094 C82.4763407,-26.4734965 83.8248157,-25.1357013 83.8314029,-23.4788602 C83.8314346,-23.4708804 83.8314345,-23.4629006 83.8314025,-23.4549208 L83.3125572,106.123213 C83.3059605,107.770713 81.9720084,109.104627 80.3245084,109.111177 L57.479144,109.202004 C55.8223029,109.208591 54.4738278,107.870796 54.4672406,106.213955 C54.4672089,106.205975 54.467209,106.197995 54.467241,106.190016 L54.9860863,-23.3881184 C54.9926831,-25.0356182 56.3266351,-26.3695325 57.9741352,-26.3760825 Z" transform="rotate(-67 69.15 41.368)"/>
      <g fill="#463E3B" transform="rotate(-67 21.747 13.471)">
        <path d="M24.9628509,-3.99680289e-15 L20.6728823,-3.99680289e-15 C22.9447626,-3.99680289e-15 24.7864855,1.89564132 24.7864855,4.23403338 L24.7864855,132.64839 C24.7864855,134.986782 22.9447626,136.882423 20.6728823,136.882423 L24.9628509,136.882423 C27.2347313,136.882423 29.0764542,134.986782 29.0764542,132.64839 L29.0764542,4.23403338 C29.0764542,1.89564132 27.2347313,-3.99680289e-15 24.9628509,-3.99680289e-15 L24.9628509,-3.99680289e-15 Z" opacity=".4"/>
        <path d="M24.9628509,-2.22044605e-15 L4.11360327,-2.22044605e-15 C1.84172292,-2.22044605e-15 0,1.89564132 0,4.23403338 L0,9.14021343 C0,6.80182136 1.84172292,4.90618005 4.11360327,4.90618005 L24.9580843,4.90618005 C26.0499054,4.90487786 27.0974414,5.35038731 27.8699229,6.14456378 C28.6424044,6.93874025 29.0764542,8.01642739 29.0764542,9.14021343 L29.0764542,4.23403338 C29.0764542,1.89564132 27.2347313,-2.22044605e-15 24.9628509,-2.22044605e-15 Z" opacity=".2"/>
        <polygon points="23.833 10.303 28.6 10.303 28.6 11.775 23.833 11.775"/>
        <polygon points="23.833 14.228 28.6 14.228 28.6 15.7 23.833 15.7"/>
        <polygon points="23.833 18.153 28.6 18.153 28.6 19.625 23.833 19.625"/>
        <polygon points="19.067 22.078 28.6 22.078 28.6 23.55 19.067 23.55"/>
        <polygon points="24.31 25.09 29.076 25.09 29.076 26.562 24.31 26.562"/>
        <polygon points="24.31 29.015 29.076 29.015 29.076 30.487 24.31 30.487"/>
        <polygon points="24.31 32.94 29.076 32.94 29.076 34.412 24.31 34.412"/>
        <polygon points="19.543 36.865 29.076 36.865 29.076 38.337 19.543 38.337"/>
        <polygon points="24.786 39.882 29.553 39.882 29.553 41.354 24.786 41.354"/>
        <polygon points="24.786 43.807 29.553 43.807 29.553 45.279 24.786 45.279"/>
        <polygon points="24.786 47.732 29.553 47.732 29.553 49.204 24.786 49.204"/>
        <polygon points="20.02 51.657 29.553 51.657 29.553 53.129 20.02 53.129"/>
        <polygon points="24.31 54.67 29.076 54.67 29.076 56.141 24.31 56.141"/>
        <polygon points="24.31 58.595 29.076 58.595 29.076 60.066 24.31 60.066"/>
        <polygon points="24.31 62.519 29.076 62.519 29.076 63.991 24.31 63.991"/>
        <polygon points="19.543 66.444 29.076 66.444 29.076 67.916 19.543 67.916"/>
        <polygon points="24.31 69.457 29.076 69.457 29.076 70.929 24.31 70.929"/>
        <polygon points="24.31 73.382 29.076 73.382 29.076 74.854 24.31 74.854"/>
        <polygon points="24.31 77.307 29.076 77.307 29.076 78.779 24.31 78.779"/>
        <polygon points="19.543 81.232 29.076 81.232 29.076 82.703 19.543 82.703"/>
        <polygon points="24.786 84.244 29.553 84.244 29.553 85.716 24.786 85.716"/>
        <polygon points="24.786 88.169 29.553 88.169 29.553 89.641 24.786 89.641"/>
        <polygon points="24.786 92.094 29.553 92.094 29.553 93.566 24.786 93.566"/>
        <polygon points="20.02 96.019 29.553 96.019 29.553 97.491 20.02 97.491"/>
        <polygon points="24.786 99.036 29.553 99.036 29.553 100.508 24.786 100.508"/>
        <polygon points="24.786 102.961 29.553 102.961 29.553 104.433 24.786 104.433"/>
        <polygon points="24.786 106.886 29.553 106.886 29.553 108.358 24.786 108.358"/>
        <polygon points="20.02 110.811 29.553 110.811 29.553 112.283 20.02 112.283"/>
        <polygon points="24.786 113.823 29.553 113.823 29.553 115.295 24.786 115.295"/>
        <polygon points="24.786 117.748 29.553 117.748 29.553 119.22 24.786 119.22"/>
        <polygon points="24.786 121.673 29.553 121.673 29.553 123.145 24.786 123.145"/>
        <polygon points="20.02 125.598 29.553 125.598 29.553 127.07 20.02 127.07"/>
      </g>
      <polygon fill="#655307" points="66.554 -19.689 67.517 -19.693 66.978 114.955 66.015 114.959" transform="rotate(-67 66.766 47.633)"/>
      <polygon fill="#FFD214" points="63.688 -13.908 65.613 -13.915 65.077 119.778 63.153 119.785" transform="rotate(-67 64.383 52.935)"/>
      <polygon fill="#FFD214" points="64.641 -14.872 66.566 -14.879 66.031 118.814 64.106 118.821" transform="rotate(-67 65.336 51.971)"/>
      <polygon fill="#FFD214" points="64.641 -15.836 66.566 -15.843 66.031 117.85 64.106 117.857" transform="rotate(-67 65.336 51.007)"/>
      <ellipse cx="125.908" cy="65.195" fill="#1E1169" rx="2.406" ry="2.387" transform="rotate(-67 125.908 65.195)"/>
      <path fill="#463E3B" d="M126.348904,68.3584478 C124.769381,68.3584478 123.488925,67.063708 123.488925,65.4665656 C123.488925,63.8694231 124.769381,62.5746834 126.348904,62.5746834 C127.928427,62.5746834 129.208883,63.8694231 129.208883,65.4665656 C129.208883,67.063708 127.928427,68.3584478 126.348904,68.3584478 Z M126.348904,64.0206245 C125.559142,64.0206245 124.918914,64.6679944 124.918914,65.4665656 C124.918914,66.2651368 125.559142,66.9125067 126.348904,66.9125067 C127.138665,66.9125067 127.778893,66.2651368 127.778893,65.4665656 C127.778893,64.6679944 127.138665,64.0206245 126.348904,64.0206245 Z" transform="rotate(-67 126.349 65.467)"/>
      <ellipse cx="12.481" cy="17.912" fill="#1E1169" rx="2.279" ry="2.274" transform="rotate(-67 12.481 17.912)"/>
      <path fill="#463E3B" d="M12.9030661,21.1243721 C11.3235433,21.1243721 10.043087,19.8296323 10.043087,18.2324899 C10.043087,16.6353475 11.3235433,15.3406077 12.9030661,15.3406077 C14.4825889,15.3406077 15.7630452,16.6353475 15.7630452,18.2324899 C15.7630452,19.8296323 14.4825889,21.1243721 12.9030661,21.1243721 L12.9030661,21.1243721 Z M12.9030661,16.7865488 C12.1133047,16.7865488 11.4730766,17.4339187 11.4730766,18.2324899 C11.4730766,19.0310611 12.1133047,19.678431 12.9030661,19.678431 C13.6928275,19.678431 14.3330557,19.0310611 14.3330557,18.2324899 C14.3330557,17.4339187 13.6928275,16.7865488 12.9030661,16.7865488 L12.9030661,16.7865488 Z" transform="rotate(-67 12.903 18.232)"/>
      <path fill="#655307" d="M80.803125,110.456176 L58.2877841,110.456176 C55.9710173,110.45349 54.0935705,108.558459 54.0909091,106.219994 L54.0909091,-22.7763912 C54.0935705,-25.1148565 55.9710173,-27.0098873 58.2877841,-27.0125736 L80.8079545,-27.0125736 C83.122835,-27.0072038 84.9973453,-25.1129572 85,-22.7763912 L85,106.219994 C84.9973386,108.558459 83.1198918,110.45349 80.803125,110.456176 L80.803125,110.456176 Z M58.1078174,-25.5467888 C56.6194637,-25.5467888 55.4129146,-24.3018787 55.4129146,-22.7662094 L55.4129146,106.547636 C55.4129146,108.083305 56.6194637,109.328211 58.1078174,109.328211 L80.1927592,109.328211 C80.9074919,109.328211 81.592951,109.035259 82.0983433,108.5138 C82.6037356,107.992341 82.8876621,107.28509 82.8876621,106.547636 L82.8876621,-22.7662094 C82.8876621,-23.5045113 82.6030867,-24.212503 82.0966695,-24.7341027 C81.5902524,-25.2557024 80.9035759,-25.5467888 80.188023,-25.5467888 L58.1078174,-25.5467888 Z" transform="rotate(-67 69.545 41.722)"/>
      <path fill="#000" d="M41.3970982,36.4793434 C40.8460925,34.7145307 40.5541034,32.8849374 40.5292526,31.041454 C40.4708902,29.5491925 40.7051486,28.0573883 41.2202406,26.641104 C41.7536681,25.1912811 42.7802946,23.9456263 44.1392272,23.0993585 L44.3981502,23.4926293 C43.1337933,24.2851522 42.1801714,25.4488528 41.6865285,26.8016095 C41.1907593,28.1688021 40.9666901,29.6087756 41.0256445,31.0487587 C41.0569268,32.844218 41.3474369,34.6253165 41.8891509,36.3428618 L41.3970982,36.4793434 Z" opacity=".1" transform="rotate(-67 42.46 29.79)"/>
      <path fill="#000" d="M41.5554716,51.9031756 C41.2010374,51.9053968 40.8471957,51.8797392 40.4972644,51.8262929 L40.5754619,51.3498756 C44.2816148,51.8098073 47.7494847,49.3673615 48.570251,45.7190878 C48.7699068,44.4958974 48.7555406,43.2490681 48.5277931,42.0341926 C48.2450813,39.8201927 47.4540257,37.7052666 46.2161855,35.8539961 C44.9732208,34.0107474 43.0434184,32.7423842 40.8519084,32.3283235 L40.9301059,31.8519063 C43.2485059,32.2855529 45.2914856,33.6238527 46.6082998,35.5715348 C47.8903768,37.4861867 48.7089973,39.6746408 49.0001079,41.9656604 C49.2375692,43.233994 49.251717,44.535691 49.0419174,45.8124345 C48.374892,49.2573353 45.0219237,51.8892475 41.5554716,51.9031756 L41.5554716,51.9031756 Z" opacity=".1" transform="rotate(-67 44.843 41.878)"/>
      <path fill="#000" d="M41.4418955,49.9869348 L41.3119666,49.4860536 C43.4799422,48.9760391 45.0278841,46.8038486 44.7617311,44.6288404 C44.392827,42.4832257 42.7816838,40.6953964 40.5475468,39.9525074 L40.7473201,39.4854135 C43.1697124,40.2945045 44.9132652,42.2377742 45.3062126,44.5665086 C45.5988283,46.9971245 43.8684688,49.4207389 41.4418955,49.9869348 L41.4418955,49.9869348 Z" opacity=".1" transform="rotate(-67 42.943 44.736)"/>
      <path fill="#000" d="M84.4455341,77.8715072 C84.0838678,77.8733759 83.7240969,77.8241371 83.3765574,77.7251513 L83.5074252,77.2389845 C84.6513344,77.529882 85.8673714,77.2768181 86.8143662,76.5507921 C89.2083761,74.9046478 91.0428474,71.0947435 91.4992567,66.8192392 C91.7064573,64.5458247 91.6964271,62.2590849 91.4693072,59.9911667 C91.0866552,55.3887575 90.3046707,51.5406878 89.1276812,48.558639 C87.7523825,45.0188849 85.8089566,42.6517971 83.7676492,42.072278 L83.8985169,41.5861112 C86.0733468,42.2088078 88.1405118,44.6773896 89.5725259,48.3626123 C90.7445654,51.388389 91.5359246,55.2801296 91.9136071,59.9311232 C92.143753,62.2297022 92.1536595,64.5473661 91.9431871,66.85147 C91.4481894,71.2242571 89.546247,75.1898365 87.0468778,76.9141029 C86.2913018,77.4898196 85.3851814,77.8232912 84.4455341,77.8715072 L84.4455341,77.8715072 Z" opacity=".1" transform="rotate(-67 87.735 59.729)"/>
      <path fill="#000" d="M84.4132867,71.1513172 L84.1924579,70.7012028 C86.3300107,69.8155026 87.9209053,65.7750302 87.6595912,61.8757304 C87.4189058,58.2489263 85.7329138,54.8508847 83.4580376,53.4177427 L83.7691825,53.0101176 C86.2119757,54.5466672 87.951991,58.0138775 88.2027228,61.843836 C88.4792951,66.0007849 86.7792621,70.1755019 84.4132867,71.1513172 L84.4132867,71.1513172 Z" opacity=".1" transform="rotate(-67 85.845 62.08)"/>
      <path fill="#000" d="M74.4931492,42.2075404 C72.1735116,41.7735098 70.1294426,40.434032 68.8119278,38.4846377 C67.5291687,36.5683028 66.710114,34.3779258 66.4188511,32.084894 C66.1810703,30.8154669 66.1669164,29.512593 66.3770245,28.2347419 C67.2540112,24.3342554 70.9606206,21.7231484 74.9214788,22.2156332 L74.8432388,22.6924687 C71.1332068,22.2264719 67.6582184,24.6698034 66.8346497,28.3234627 C66.6347887,29.5477205 66.649161,30.7956614 66.8771252,32.0115939 C67.1598171,34.227581 67.9513061,36.3444023 69.1899588,38.1972205 C70.4335849,40.0420896 72.3644162,41.3115691 74.5570961,41.7259964 L74.4931492,42.2075404 Z" opacity=".1" transform="rotate(-67 70.575 32.182)"/>
      <path fill="#000" d="M74.6662016,34.5740088 C72.2388782,33.7610326 70.4957946,31.8073862 70.1125386,29.4702678 C69.8201974,27.0558458 71.5541125,24.6333704 73.9779441,24.0724624 L74.1077259,24.5731051 C71.9421819,25.0828706 70.3959715,27.2540208 70.6618202,29.427992 C71.0303047,31.572584 72.6396353,33.3595645 74.8712633,34.1021048 L74.6662016,34.5740088 Z" opacity=".1" transform="rotate(-67 72.476 29.323)"/>
      <path fill="#000" d="M118.209544,67.217118 C115.077311,66.7489653 112.082799,64.8048174 109.995224,61.9102791 C108.266905,59.5141388 107.088088,56.4333598 106.51701,52.754219 C106.172939,50.9414977 106.152308,49.0811478 106.45604,47.2563755 C107.517533,41.845385 113.284328,37.8382748 118.797352,38.6862524 L118.717317,39.1671724 C113.453076,38.3662662 107.965298,42.1848327 106.929196,47.3506153 C106.635747,49.1213217 106.656598,50.9263028 106.99082,52.6850515 C107.557305,56.2921203 108.697337,59.3057692 110.372205,61.6396437 C112.386976,64.428739 115.264651,66.2916489 118.269993,66.7506939 L118.209544,67.217118 Z" opacity=".1" transform="rotate(-67 112.52 52.895)"/>
      <path fill="#000" d="M118.553926,55.7654101 C115.562037,54.584039 113.354222,51.7874295 113.015285,48.8080556 C112.663391,45.5121532 114.762867,42.2113783 117.696177,41.4447985 L117.808024,41.9313999 C115.097801,42.6386475 113.160475,45.7049959 113.484856,48.7672256 C113.786562,51.571411 115.890707,54.2077073 118.721637,55.3264022 L118.553926,55.7654101 Z" opacity=".1" transform="rotate(-67 115.85 48.605)"/>
      <polygon fill="#655307" points="65.585 -14.894 67.51 -14.902 66.994 114.017 65.069 114.024" transform="rotate(-67 66.29 49.561)"/>
      <path fill="#000" d="M83.0716626,62.4432586 C82.0132241,61.169868 80.6888952,59.5891486 80.0779993,57.7314731 C79.6757636,56.265518 79.4951522,54.7470563 79.5420183,53.2252999 C79.5454102,52.3784498 79.509326,51.5072816 79.4088161,50.6657394 C78.7816035,45.8679403 75.5821487,41.8000171 71.0420475,40.0278734 L71.2219546,39.5719225 C75.9340404,41.4076393 79.2561021,45.6270229 79.9086752,50.6050126 C80.0090871,51.4710302 80.0253254,52.3569623 80.0416814,53.2135239 C79.9972118,54.6871673 80.1713181,56.1575746 80.5584438,57.5778183 C81.1400121,59.3475001 82.4298508,60.8940915 83.4636927,62.1333148 L83.0716626,62.4432586 Z" opacity=".1" transform="rotate(-67 77.253 51.008)"/>
      <path fill="#000" d="M23.9654278,40.2721618 C22.9069894,38.9987712 21.5826605,37.4180518 20.9717645,35.5603764 C20.5695289,34.0944213 20.3889174,32.5759596 20.4357836,31.0542031 C20.4391755,30.207353 20.4030912,29.3361848 20.3025813,28.4946427 C19.6753688,23.6968436 16.4759139,19.6289204 11.9358127,17.8567767 L12.1157199,17.4008258 C16.8278057,19.2365426 20.1498674,23.4559262 20.8024404,28.4339159 C20.9028523,29.2999334 20.9190906,30.1858655 20.9354466,31.0424272 C20.890977,32.5160705 21.0650834,33.9864779 21.4522091,35.4067215 C22.0337773,37.1764034 23.3236161,38.7229948 24.3574579,39.9622181 L23.9654278,40.2721618 Z" opacity=".1" transform="rotate(-67 18.147 28.836)"/>
      <path fill="#000" d="M34.4520179,27.7406723 C33.3935794,26.4672818 32.0692505,24.8865624 31.4583545,23.0288869 C31.0561189,21.5629318 30.8755075,20.0444701 30.9223736,18.5227137 C30.9257655,17.6758636 30.8896813,16.8046953 30.7891713,15.9631532 C30.1619588,11.1653541 26.962504,7.09743092 22.4224028,5.32528722 L22.6023099,4.86933631 C27.3143957,6.70505314 30.6364574,10.9244367 31.2890305,15.9024264 C31.3894423,16.768444 31.4056807,17.6543761 31.4220367,18.5109377 C31.3775671,19.9845811 31.5516734,21.4549884 31.9387991,22.8752321 C32.5203673,24.6449139 33.8102061,26.1915053 34.844048,27.4307286 L34.4520179,27.7406723 Z" opacity=".1" transform="rotate(-67 28.633 16.305)"/>
      <path fill="#000" d="M123.377717,82.6906737 L122.894117,82.5879397 C123.278226,80.945216 122.578321,79.2592297 121.897397,77.6683099 C121.720005,77.2456337 121.542595,76.8277147 121.384545,76.4097186 C120.877911,74.9676821 120.471465,73.4928085 120.167997,71.9952144 C119.521163,69.1435295 118.907657,66.4296678 117.018475,64.3963835 C115.654664,62.9128339 113.732058,61.9738139 112.036256,61.2051478 L112.241278,60.7714375 C113.980566,61.5589591 115.956299,62.5263105 117.382747,64.0809675 C119.358596,66.2280776 120.014958,69.1177814 120.647481,71.9171952 C120.94626,73.3937291 121.346315,74.8479503 121.844916,76.2699332 C122.002985,76.683172 122.175574,77.0963532 122.353004,77.509515 C123.067543,79.1669005 123.801138,80.9003238 123.377717,82.6906737 L123.377717,82.6906737 Z" opacity=".1" transform="rotate(-67 117.77 71.731)"/>
    </g>
    <g transform="rotate(24 344.327 3113.63)">
      <rect width="8" height="105" x="4.622" fill="#FF507D" rx="4"/>
      <path fill="#D3325B" d="M8.54813063,0.318128832 L8.54813063,0.318128832 C8.36461128,0.318128832 8.18138981,0.33642245 8.00018543,0.372392398 C9.67367172,0.705438232 10.9042604,2.49319589 10.904295,4.59138465 L10.904295,101.044873 C10.9038022,103.142853 9.67343235,104.930293 8.00018543,105.263865 C8.18138981,105.299835 8.36461128,105.318129 8.54813063,105.318129 L8.54813063,105.318129 C10.4546479,105.318129 12.0001854,103.404927 12.0001854,101.044873 L12.0001854,4.59138465 C12.0001854,2.23133063 10.4546479,0.318128832 8.54813063,0.318128832 Z"/>
      <path fill="#FDAABF" d="M7.84825741,105.21179 L7.84825741,105.21179 C8.03177676,105.21179 8.21499823,105.193497 8.39620261,105.157527 C6.72271632,104.824481 5.49212763,103.036723 5.49209302,100.938535 L5.49209302,4.48504625 C5.49258586,2.38706643 6.7229557,0.599626722 8.39620261,0.266053998 C8.21499823,0.23008405 8.03177676,0.211790432 7.84825741,0.211790432 L7.84825741,0.211790432 C5.94174019,0.211790432 4.39620261,2.12499223 4.39620261,4.48504625 L4.39620261,100.938535 C4.39620261,103.298589 5.94174019,105.21179 7.84825741,105.21179 Z"/>
      <path fill="#621E2F" d="M8.46315365,106.188984 C5.97906416,106.185988 3.96602876,104.088646 3.96315365,101.500522 L3.96315365,4.87744522 C3.96315365,2.28807941 5.97787228,0.18898368 8.46315365,0.18898368 C10.948435,0.18898368 12.9631537,2.28807941 12.9631537,4.87744522 L12.9631537,101.500522 C12.9602785,104.088646 10.9472431,106.185988 8.46315365,106.188984 Z M8.46315365,1.0043683 C6.41098915,1.00661539 4.74791912,2.73933537 4.74576235,4.87744522 L4.74576235,101.500522 C4.74576235,103.639563 6.41009516,105.373599 8.46315365,105.373599 C10.5162121,105.373599 12.180545,103.639563 12.180545,101.500522 L12.180545,4.87744522 C12.1783882,2.73933537 10.5153182,1.00661539 8.46315365,1.0043683 Z"/>
      <path fill="#621E2F" d="M4,39.0314366 L3.56756757,39.0314366 C1.59725441,39.0314366 -9.09494702e-13,37.0281006 -9.09494702e-13,34.5568603 L-9.09494702e-13,11.5060129 C-9.09494702e-13,9.03477265 1.59725441,7.03143662 3.56756757,7.03143662 L4,7.03143662 L4,39.0314366 Z M3.13513514,8.15957221 C1.82638604,8.42563702 0.864754841,9.8431078 0.864864865,11.5060129 L0.864864865,34.5568603 C0.864754841,36.2197654 1.82638604,37.6372362 3.13513514,37.903301 L3.13513514,8.15957221 Z"/>
      <rect width="7" height="1" x="4.596" y="8.699" fill="#621E2F"/>
      <rect width="8" height="1" x="4.836" y="35.358" fill="#621E2F"/>
    </g>
  </g>
</svg>
