<svg xmlns="http://www.w3.org/2000/svg" width="164" height="173" viewBox="0 0 164 173">
  <g fill="none" transform="translate(-5.969 -11.625)">
    <g transform="rotate(24 -67.619 164.96)">
      <rect width="11" height="148" x="4.744" y=".1" fill="#FF507D" rx="5.5"/>
      <path fill="#D3325B" d="M10.6628752,0.200144343 L10.6628752,0.200144343 C10.433476,0.200144343 10.2044491,0.225929633 9.97794367,0.276630131 C12.0698015,0.746066165 13.6080374,3.26595314 13.6080807,6.22340016 L13.6080807,142.176889 C13.6074646,145.134041 12.0695023,147.65348 9.97794367,148.123659 C10.2044491,148.174359 10.433476,148.200144 10.6628752,148.200144 L10.6628752,148.200144 C13.0460217,148.200144 14.9779437,145.503441 14.9779437,142.176889 L14.9779437,6.22340016 C14.9779437,2.89684783 13.0460217,0.200144343 10.6628752,0.200144343 Z"/>
      <path fill="#FDAABF" d="M9.82535705,148 L9.82535705,148 C10.0547562,148 10.2837831,147.974215 10.5102886,147.923514 C8.41843068,147.454078 6.88019482,144.934191 6.88015157,141.976744 L6.88015157,6.02325581 C6.88076761,3.06610331 8.41872991,0.546664484 10.5102886,0.0764857881 C10.2837831,0.02578529 10.0547562,-9.09494702e-13 9.82535705,-9.09494702e-13 L9.82535705,-9.09494702e-13 C7.44221052,-9.09494702e-13 5.51028855,2.69670348 5.51028855,6.02325581 L5.51028855,141.976744 C5.51028855,145.303297 7.44221052,148 9.82535705,148 Z"/>
      <path fill="#621E2F" d="M10.6508528,150.013618 C7.06272349,150.009379 4.15500569,147.041442 4.15085275,143.379002 L4.15085275,6.64823301 C4.15085275,2.98403612 7.06100188,0.0136176291 10.6508528,0.0136176291 C14.2407036,0.0136176291 17.1508528,2.98403612 17.1508528,6.64823301 L17.1508528,143.379002 C17.1466998,147.041442 14.238982,150.009379 10.6508528,150.013618 Z M10.6508528,1.16746378 C7.68661514,1.17064364 5.28440287,3.62260587 5.28128754,6.64823301 L5.28128754,143.379002 C5.28128754,146.405947 7.68532382,148.859771 10.6508528,148.859771 C13.6163817,148.859771 16.020418,146.405947 16.020418,143.379002 L16.020418,6.64823301 C16.0173026,3.62260587 13.6150904,1.17064364 10.6508528,1.16746378 Z"/>
      <path fill="#621E2F" d="M5,54.6205692 L4.45945946,54.6205692 C1.99656801,54.6205692 0,51.8033779 0,48.3281964 L0,15.9129421 C0,12.4377605 1.99656801,9.62056925 4.45945946,9.62056925 L5,9.62056925 L5,54.6205692 Z M3.91891892,11.2070099 C2.28298255,11.5811636 1.08094355,13.5744818 1.08108108,15.9129421 L1.08108108,48.3281964 C1.08094355,50.6666566 2.28298255,52.6599749 3.91891892,53.0341286 L3.91891892,11.2070099 Z"/>
      <rect width="10" height="1" x="5.052" y="12.933" fill="#621E2F"/>
      <rect width="11" height="1" x="5.541" y="50.805" fill="#621E2F"/>
    </g>
    <path fill="#24D9F4" d="M9.15578285,14.3954798 C10.1916999,13.3595627 11.8373777,13.3050408 12.9374801,14.231914 L13.1155808,14.3954798 L24.9942,26.2738 L35.8844192,15.3854293 C36.9203362,14.3495122 38.5660141,14.2949903 39.6661165,15.2218635 L39.8442172,15.3854293 L53.7035101,29.2447222 C54.7969781,30.3381902 54.7969781,32.1110522 53.7035101,33.2045202 C52.667593,34.2404373 51.0219152,34.2949592 49.9218128,33.368086 L49.7437121,33.2045202 L37.863,21.3248 L26.9748737,32.2145707 C25.9389567,33.2504878 24.2932788,33.3050097 23.1931764,32.3781365 L23.0150758,32.2145707 L11.1356,20.335 L-0.743712088,32.2145707 C-1.77962916,33.2504878 -3.42530698,33.3050097 -4.52540939,32.3781365 L-4.70351006,32.2145707 C-5.73942713,31.1786536 -5.79394908,29.5329758 -4.86707592,28.4328734 L-4.70351006,28.2547727 L9.15578285,14.3954798 Z" transform="rotate(142 84.525 51.624)"/>
  </g>
</svg>
