<?xml version="1.0" encoding="UTF-8"?>
<svg width="53px" height="53px" viewBox="0 0 53 53" version="1.1" xmlns="http://www.w3.org/2000/svg" xmlns:xlink="http://www.w3.org/1999/xlink">
    <title>abstract/01 copy 29</title>
    <g id="Maquettes---No-Illus" stroke="none" stroke-width="1" fill="none" fill-rule="evenodd">
        <g id="Desktop-I-01---Accueil" transform="translate(-1575.000000, -2577.000000)" fill="#24D9F4" fill-rule="nonzero">
            <g id="Group" transform="translate(1568.524877, 2571.137291)">
                <g id="abstract/01-copy-29" transform="translate(32.500000, 32.500000) rotate(-151.000000) translate(-32.500000, -32.500000) ">
                    <path d="M32.5,6.5 C46.8594035,6.5 58.5,18.1405965 58.5,32.5 C58.5,46.8594035 46.8594035,58.5 32.5,58.5 C18.1405965,58.5 6.5,46.8594035 6.5,32.5 C6.5,18.1405965 18.1405965,6.5 32.5,6.5 Z M32.5,14.625 C22.6279101,14.625 14.625,22.6279101 14.625,32.5 C14.625,42.3720899 22.6279101,50.375 32.5,50.375 C42.3720899,50.375 50.375,42.3720899 50.375,32.5 C50.375,22.6279101 42.3720899,14.625 32.5,14.625 Z" id="Oval-Copy-2"></path>
                </g>
            </g>
        </g>
    </g>
</svg>