<svg width="36" height="42" viewBox="0 0 36 42" xmlns="http://www.w3.org/2000/svg"><path d="M14.1037223,13.1289573 C20.4090504,6.82362918 30.6301143,6.82362918 36.9330792,13.1285695 C42.1954668,18.3888959 42.1954668,26.9217333 36.9329823,32.1842177 C32.5037911,36.6112409 25.3251947,36.6112409 20.8976868,32.1837331 C19.8042188,31.0902651 19.8042188,29.3174031 20.8976868,28.2239351 C21.9911549,27.1304671 23.7640168,27.1304671 24.8574848,28.2239351 C27.0982181,30.4646684 30.7318383,30.4646684 32.9736691,28.2239351 C36.0486035,25.1490007 36.0486035,20.1624854 32.9733589,17.0884451 C28.8566705,12.9704666 22.181809,12.9704666 18.0637684,17.0885071 C12.6454105,22.5082237 12.6454105,31.2948815 18.0633217,36.7141513 C25.1125003,43.7619165 36.5391209,43.7619165 43.5866875,36.7143499 C44.6801555,35.6208818 46.4530175,35.6208818 47.5464855,36.7143499 C48.6399535,37.8078179 48.6399535,39.5806798 47.5464855,40.6741478 C38.312049,49.9085843 23.3400108,49.9085843 14.1034741,40.6738996 C6.49884197,33.0673606 6.49884197,20.7357445 14.1037223,13.1289573 Z" transform="rotate(-151 21.246 26.303)" fill="#FF507B"/></svg>