<svg xmlns="http://www.w3.org/2000/svg" width="269" height="171" viewBox="0 0 269 171">
  <g fill="none" fill-rule="evenodd" transform="translate(-1)">
    <polygon fill="#FFD214" points="-4.988 109.364 275.562 110.165 275.601 123.823 -4.949 123.022" transform="rotate(-20 135.306 116.594)"/>
    <polygon fill="#D4AC00" points="-3.754 116.249 276.796 117.05 276.815 123.606 -3.735 122.805" transform="rotate(-20 136.53 119.927)"/>
    <g transform="rotate(9 2.865 45.094)">
      <polygon fill="#FFD214" points=".107 14.241 163.12 17.448 163.313 28.33 .3 25.123" transform="rotate(10 81.71 21.286)"/>
      <polygon fill="#D5AC00" points="-.27 19.649 162.743 22.856 162.84 28.297 -.173 25.09" transform="rotate(10 81.285 23.973)"/>
    </g>
    <g transform="translate(227 30)">
      <circle cx="12.5" cy="12.5" r="12.5" fill="#28DCF0"/>
      <path fill="#00BCD1" d="M12.5,25 C20.3709693,25 25,18.8318472 25,12.5 C25,6.16815281 18.1838962,8.06034328 13.3052381,11.3564663 C8.42657999,14.6525893 4.62903069,25 12.5,25 Z"/>
    </g>
    <g transform="rotate(15 20.114 254.736)">
      <ellipse cx="8.811" cy="8.733" fill="#FF507D" rx="8.811" ry="8.733"/>
      <path fill="#DF1F51" d="M8.72778764,17.465041 C14.327905,17.465041 17.6214149,13.228626 17.6214149,8.87978227 C17.6214149,4.53093857 12.771824,5.83053415 9.30070665,8.09437965 C5.8295893,10.3582251 3.12767026,17.465041 8.72778764,17.465041 Z"/>
    </g>
    <g transform="rotate(15 -292.936 336.088)">
      <ellipse cx="11.719" cy="11.828" fill="#5AD7AF" rx="11.013" ry="10.916"/>
      <path fill="#3DB58E" d="M11.9089645,22.4343983 C19.0363866,22.4343983 23.2281264,17.1893131 23.2281264,11.8050304 C23.2281264,6.42074772 17.0559198,8.02977081 12.6381341,10.8326271 C8.22034839,13.6354835 4.78154234,22.4343983 11.9089645,22.4343983 Z"/>
    </g>
  </g>
</svg>
