<svg xmlns="http://www.w3.org/2000/svg" width="255" height="193" viewBox="0 0 255 193">
  <g fill="none" fill-rule="evenodd" transform="translate(-2 -6)">
    <path fill="#1E1169" d="M89.06472,163.843902 L127.155433,198.887138 L194.280824,136.20154 C199.200809,128.536208 199.200809,122.286542 194.280824,117.452541 C189.36084,112.61854 154.288805,78.1297449 89.06472,13.9861554 L26.5351162,68.6808138 L89.06472,163.843902 Z" opacity=".8"/>
    <rect width="13" height="117" x="232.021" y="16.073" fill="#1E1169" rx="6.5" transform="rotate(12 238.52 74.573)"/>
    <g fill-rule="nonzero" transform="rotate(13 92.772 1059.303)">
      <rect width="10" height="121" x="7.149" y="1.785" fill="#5AD7AF" rx="5"/>
      <path fill="#49B08F" d="M11.1952347,1.07837839 L11.1952347,1.07837839 C10.9199557,1.0785501 10.6451235,1.0994596 10.3733169,1.14091069 C12.8835463,1.52470636 14.7294294,3.58488423 14.7294813,6.00279699 L14.7294813,117.15396 C14.728742,119.571632 12.8831873,121.631443 10.3733169,122.015846 C10.6451235,122.057297 10.9199557,122.078207 11.1952347,122.078378 L11.1952347,122.078378 C14.0550105,122.078378 16.3733169,119.873641 16.3733169,117.15396 L16.3733169,6.00279699 C16.3733169,3.28311569 14.0550105,1.07837839 11.1952347,1.07837839 Z"/>
      <path fill="#A9F9DF" d="M11.4288767,122.009028 L11.4288767,122.009028 C11.7041558,122.008856 11.978988,121.987947 12.2507945,121.946496 C9.7405651,121.5627 7.89468206,119.502522 7.89463015,117.084609 L7.89463015,5.93344664 C7.89536941,3.51577466 9.74092416,1.45596318 12.2507945,1.07156033 C11.978988,1.03010925 11.7041558,1.00919975 11.4288767,1.00902803 L11.4288767,1.00902803 C8.5691009,1.00902803 6.25079454,3.21376534 6.25079454,5.93344664 L6.25079454,117.084609 C6.25079454,119.804291 8.5691009,122.009028 11.4288767,122.009028 Z"/>
      <path fill="#385868" d="M11.7950186,122.673113 C8.75890925,122.669665 6.29853265,120.255743 6.29501863,117.276959 L6.29501863,6.06926658 C6.29501863,3.0890531 8.7574525,0.673112731 11.7950186,0.673112731 C14.8325848,0.673112731 17.2950186,3.0890531 17.2950186,6.06926658 L17.2950186,117.276959 C17.2915046,120.255743 14.831128,122.669665 11.7950186,122.673113 Z M11.7950186,1.61157427 C9.28681757,1.61416055 7.25417642,3.60842316 7.25154037,6.06926658 L7.25154037,117.276959 C7.25154042,119.738874 9.28572491,121.734651 11.7950186,121.734651 C14.3043123,121.734651 16.3384968,119.738874 16.3384969,117.276959 L16.3384969,6.06926658 C16.3358608,3.60842316 14.3032197,1.61416055 11.7950186,1.61157427 Z"/>
      <path fill="#385868" d="M6.75122337,46.4418608 L6.10257472,46.4418608 C3.14710498,46.4418608 0.751223368,44.1255035 0.751223368,41.268132 L0.751223368,14.6155896 C0.751223368,11.7582181 3.14710498,9.44186079 6.10257472,9.44186079 L6.75122337,9.44186079 L6.75122337,46.4418608 Z M5.45392607,10.7462676 C3.49080243,11.053905 2.04835563,12.6928556 2.04852067,14.6155896 L2.04852067,41.268132 C2.04835563,43.190866 3.49080243,44.8298166 5.45392607,45.137454 L5.45392607,10.7462676 Z"/>
      <rect width="9" height="1" x="7.291" y="10.961" fill="#385868"/>
      <rect width="10" height="1" x="6.012" y="42.846" fill="#385868"/>
    </g>
    <g fill-rule="nonzero">
      <polyline fill="#5AD7AF" points="134.037 178.646 134.037 196.025 139.037 196.025 139.037 178.025" transform="rotate(-44 136.537 187.025)"/>
      <polygon fill="#463E3B" points="138.037 182.025 138.037 190.025 133.037 189.468 133.037 182.651" opacity=".2" transform="rotate(-44 135.537 186.025)"/>
      <path fill="#FF507D" d="M51.8387013,185.719479 L137.526067,185.719479 C144.590748,185.719479 150.317803,179.961733 150.317803,172.859193 L150.317803,25.5797662 C150.317803,22.1690061 148.970106,18.8979419 146.57119,16.4861703 C144.172274,14.0743987 140.918646,12.7194795 137.526067,12.7194795 L51.8387013,12.7194795 C49.3418782,12.7194795 47.3178031,14.7544015 47.3178031,17.2646049 L47.3178031,181.174354 C47.3178031,183.684558 49.3418782,185.719479 51.8387013,185.719479 L51.8387013,185.719479 Z" transform="rotate(-44 98.818 99.22)"/>
      <path fill="#AC3553" d="M137.433465,13.7194795 L51.1259446,13.7194795 C49.5896675,13.7195733 48.1572988,14.4925349 47.3178031,15.7745001 C47.7466611,15.6438249 48.1925606,15.5770778 48.6410236,15.5764258 L134.948544,15.5764258 C142.064355,15.5764258 147.83286,21.324055 147.83286,28.414115 L147.83286,175.434748 C147.841451,178.941944 146.404017,182.298737 143.856986,184.719479 C147.86085,182.429541 150.326405,178.177677 150.317781,173.577801 L150.317781,26.5571686 C150.317781,19.4671087 144.549276,13.7194795 137.433465,13.7194795 L137.433465,13.7194795 Z" opacity=".5" transform="rotate(-44 98.818 99.22)"/>
      <path fill="#463E3B" d="M69.3178031,46.7194795 L66.9823486,46.7194795 C64.4061913,46.7194795 62.3178031,48.7544015 62.3178031,51.2646049 L62.3178031,215.174354 C62.3178031,216.379796 62.8092449,217.535867 63.6840169,218.388243 C64.5587888,219.240619 65.7452342,219.719479 66.9823486,219.719479 L69.3178031,219.719479 L69.3178031,46.7194795 Z" opacity=".2" transform="rotate(-44 65.818 133.22)"/>
      <path fill="#B22F50" d="M137.581333,186.719479 L51.7716267,186.719479 C48.7609741,186.716079 46.3212069,184.278784 46.3178031,181.271182 L46.3178031,18.1677774 C46.3212069,15.1601751 48.7609741,12.7228798 51.7716267,12.7194795 L137.581333,12.7194795 C145.164953,12.7262832 151.310993,18.8660958 151.317803,26.4420327 L151.317803,172.996926 C151.310993,180.572863 145.164953,186.712676 137.581333,186.719479 L137.581333,186.719479 Z M51.7716267,14.5705433 C49.7829142,14.5705433 48.1707443,16.1810799 48.1707443,18.1677774 L48.1707443,181.271182 C48.1707443,183.257879 49.7829142,184.868416 51.7716267,184.868416 L137.581333,184.868416 C144.141602,184.861614 149.458053,179.550549 149.464862,172.996926 L149.464862,26.4420327 C149.458053,19.8884097 144.141602,14.5773452 137.581333,14.5705433 L51.7716267,14.5705433 Z" transform="rotate(-44 98.818 99.72)"/>
      <path fill="#463E3B" d="M122.159583,91.9268688 L118.133561,79.453375 L111.650984,59.4084703 L111.508305,58.9656613 C110.95793,57.2625433 109.140728,56.3281419 107.445063,56.8763511 L107.00462,57.0197962 L44.9952022,77.2705135 L44.5547592,77.4139587 C43.7382447,77.6795917 43.0603378,78.2608068 42.6705004,79.0294606 C42.2806631,79.7981143 42.2109073,80.6910875 42.4766124,81.5115015 L47.8053529,97.9952236 L52.9914147,114.036137 L53.1340934,114.478946 C53.6870797,116.179565 55.5034747,117.110763 57.1973356,116.562019 L120.075233,96.0244116 C120.892887,95.7600644 121.572256,95.1793822 121.963331,94.4105826 C122.354406,93.641783 122.425021,92.7481019 122.159583,91.9268688 L122.159583,91.9268688 Z" opacity=".2" transform="rotate(-44 82.318 86.72)"/>
      <path fill="#FFF" d="M50.7194784,62.374277 L111.767646,62.3067747 C115.059261,62.303135 117.730593,64.9685658 117.734233,68.2601809 C117.734238,68.2645039 117.734238,68.2688269 117.734233,68.2731499 L117.702111,98.2857588 C117.698594,101.57231 115.035256,104.235742 111.748705,104.239376 L50.7005368,104.306879 C47.4089217,104.310518 44.73759,101.645088 44.7339504,98.3534724 C44.7339456,98.3491494 44.7339455,98.3448265 44.7339501,98.3405035 L44.7660719,68.3278945 C44.7695894,65.0413429 47.4329268,62.377911 50.7194784,62.374277 Z" transform="rotate(-56.81 81.234 83.307)"/>
      <path fill="#59598D" d="M84.3178031,121.054002 L68.2038958,124.634228 C66.2231518,125.059642 64.2599102,123.852033 63.7968318,121.923399 L56.3796133,90.0817283 C56.3500091,89.9626095 56.3293508,89.8415379 56.3178031,89.7194795 C59.7606287,92.4484206 63.9822623,94.4890889 68.0617325,96.2278832 C70.2753785,97.0833481 72.4026015,98.1384303 74.4158164,99.3794479 C79.5275161,102.766474 82.4882225,108.59868 83.6317104,114.521448 C84.0376518,116.677714 84.2670752,118.862142 84.3178031,121.054002 L84.3178031,121.054002 Z" opacity=".05" transform="rotate(-44 70.318 107.22)"/>
      <path fill="#C6C6DD" d="M53.0565945,111.719479 C51.1255381,111.712866 49.4544897,110.358326 49.0263326,108.452579 L41.4163587,74.602987 C40.9248809,72.3519394 42.3191163,70.1209897 44.5393488,69.6058154 L108.677912,54.8204337 C110.902722,54.3193837 113.109397,55.7319636 113.615446,57.9811448 L121.219248,91.8307363 C121.710725,94.0817839 120.31649,96.3127336 118.096257,96.827908 L53.9823821,111.61329 C53.6786541,111.683454 53.3681339,111.719072 53.0565945,111.719479 Z M109.597528,56.5944297 C109.427285,56.5940179 109.257531,56.6128744 109.09143,56.6506478 L44.9466953,71.4110436 C43.7145218,71.6964454 42.9420505,72.9361595 43.2185585,74.1844739 L50.8223605,108.034065 C51.1043562,109.281122 52.3292751,110.062923 53.5626917,109.783075 L117.713599,95.0226797 C118.945772,94.7372779 119.718243,93.4975638 119.441735,92.2492494 L111.831762,58.3934114 C111.59074,57.3410346 110.664912,56.5955683 109.597528,56.5944297 L109.597528,56.5944297 Z" transform="rotate(-44 81.318 83.22)"/>
      <path fill="#463E3B" d="M119.317803,0.918512168 C119.317823,-0.199458378 118.878106,-1.27127946 118.096085,-2.05945826 C117.314064,-2.84763706 116.254312,-3.28709094 115.151649,-3.28044624 L111.748573,-3.28044624 C109.752404,-3.2814549 108.039554,-1.83866248 107.674727,0.151094807 C107.439142,0.687162297 107.31753,1.26751572 107.317804,1.854387 L107.317804,172.520521 C107.317804,173.634154 107.754143,174.702176 108.530832,175.489633 C109.307521,176.277091 110.360938,176.719479 111.459342,176.719479 L114.862419,176.719479 C117.33157,176.2504 119.162812,174.128167 119.293188,171.584646 L119.317803,0.918512168 Z" opacity=".2" transform="rotate(-44 113.318 86.72)"/>
      <rect width="11" height="180" x="109.318" y="-6.281" fill="#D1AB0D" rx="5.5" transform="rotate(-44 114.818 83.72)"/>
      <polygon fill="#FFD214" points="118.623 -6.981 118.623 170 116.623 170 116.623 -7 118.163 -7" transform="rotate(-44 117.623 81.5)"/>
      <path fill="#A0830D" d="M52.7985498,18.9788975 L53.7985498,18.9788975 L52.7985498,18.9788975 Z" transform="rotate(-44 53.299 18.979)"/>
      <path fill="#88700A" d="M116.669723,173.986155 L113.40051,173.986155 C110.714777,173.982716 108.538374,171.684971 108.535116,168.8495 L108.535116,-1.87718939 C108.538365,-4.71022855 110.711175,-7.00697033 113.394598,-7.01384457 L116.663811,-7.01384457 C119.351852,-7.01384666 121.531854,-4.71509501 121.535116,-1.87718939 L121.535116,168.8495 C121.531859,171.684971 119.355455,173.982716 116.669723,173.986155 Z M113.478831,-5.01384457 C111.854347,-5.01041506 110.538213,-3.55307533 110.535116,-1.75430231 L110.535116,168.726613 C110.538213,170.525386 111.854347,171.982726 113.478831,171.986155 L116.591401,171.986155 C118.215886,171.982726 119.532019,170.525386 119.535116,168.726613 L119.535116,-1.75430231 C119.532032,-3.55065078 118.219316,-5.00699151 116.59703,-5.01384457 L113.478831,-5.01384457 Z" transform="rotate(-44 115.035 83.486)"/>
    </g>
  </g>
</svg>
