<svg xmlns="http://www.w3.org/2000/svg" width="587" height="381" viewBox="0 0 587 381">
  <g fill="none" transform="translate(-4.594)">
    <g transform="rotate(77 -23.659 344.684)">
      <rect width="10" height="128" x="5.88" y=".587" fill="#FFD214" rx="5"/>
      <path fill="#C49E00" d="M10.6970101,0.017967066 L10.6970101,0.017967066 C10.4676109,0.0181487177 10.2385841,0.0402678573 10.0120786,0.0841169368 C12.1039365,0.490115668 13.6421723,2.66947738 13.6422156,5.22726939 L13.6422156,122.808665 C13.6415995,125.366202 12.1036373,127.545176 10.0120786,127.951817 C10.2385841,127.995666 10.4676109,128.017785 10.6970101,128.017967 L10.6970101,128.017967 C13.0801566,128.017967 15.0120786,125.685683 15.0120786,122.808665 L15.0120786,5.22726939 C15.0120786,2.35025116 13.0801566,0.017967066 10.6970101,0.017967066 Z"/>
      <path fill="#FEE88A" d="M9.892611,128.596664 L9.892611,128.596664 C10.1220102,128.596482 10.351037,128.574363 10.5775425,128.530514 C8.48568464,128.124515 6.94744878,125.945153 6.94740552,123.387361 L6.94740552,5.80596586 C6.94802157,3.24842856 8.48598386,1.06945444 10.5775425,0.662813406 C10.351037,0.618964326 10.1220102,0.596845186 9.892611,0.596663535 L9.892611,0.596663535 C7.50946448,0.596663535 5.57754251,2.92894763 5.57754251,5.80596586 L5.57754251,123.387361 C5.57754251,126.264379 7.50946448,128.596664 9.892611,128.596664 Z"/>
      <path fill="#7D6708" d="M10.574407,129.221834 C7.53829763,129.218189 5.07792103,126.665763 5.07440701,123.516065 L5.07440701,5.92760332 C5.07440701,2.77639399 7.53684088,0.221834087 10.574407,0.221834087 C13.6119731,0.221834087 16.074407,2.77639399 16.074407,5.92760332 L16.074407,123.516065 C16.070893,126.665763 13.6105164,129.218189 10.574407,129.221834 Z M10.574407,1.21414178 C8.06620595,1.21687645 6.0335648,3.32556397 6.03092875,5.92760332 L6.03092875,123.516065 C6.0309288,126.119238 8.06511329,128.229526 10.574407,128.229526 C13.0837007,128.229526 15.1178852,126.119238 15.1178853,123.516065 L15.1178853,5.92760332 C15.1152492,3.32556397 13.0826081,1.21687645 10.574407,1.21414178 Z"/>
      <path fill="#7D6708" d="M5.66837431,48.205856 L5.12783377,48.205856 C2.66494231,48.205856 0.668374306,45.7642902 0.668374306,42.7524661 L0.668374306,14.6592458 C0.668374306,11.6474218 2.66494231,9.20585597 5.12783377,9.20585597 L5.66837431,9.20585597 L5.66837431,48.205856 Z M4.58729322,10.5807712 C2.95135686,10.9050377 1.74931786,12.6325802 1.74945539,14.6592458 L1.74945539,42.7524661 C1.74931786,44.7791317 2.95135686,46.5066742 4.58729322,46.8309407 L4.58729322,10.5807712 Z"/>
      <rect width="10" height="1" x="5.422" y="11.304" fill="#7D6708"/>
      <rect width="10" height="1" x="5.124" y="43.204" fill="#7D6708"/>
    </g>
    <g transform="rotate(-2 6005.181 -1975.277)">
      <path fill="#FFD214" d="M63.4335392,-29.1423761 L89.0806104,-29.2141705 C90.7374582,-29.2188086 92.0843585,-27.879428 92.0889966,-26.2225802 C92.0890123,-26.216968 92.0890123,-26.2113557 92.0889965,-26.2057435 L91.6865588,116.860388 C91.6819167,118.510665 90.3452451,119.847318 88.6949686,119.851938 L63.0478975,119.923732 C61.3910497,119.92837 60.0441494,118.58899 60.0395113,116.932142 C60.0394956,116.92653 60.0394956,116.920917 60.0395114,116.915305 L60.441949,-26.1508266 C60.4465912,-27.801103 61.7832628,-29.1377564 63.4335392,-29.1423761 Z" transform="rotate(-67 76.064 45.355)"/>
      <g fill="#463E3B" transform="rotate(-67 23.997 14.62)">
        <path d="M27.459136,-1.84689669e-15 L22.7401705,-3.99680289e-15 C25.2392389,-1.84689669e-15 27.2651341,2.07835373 27.2651341,4.64213299 L27.2651341,145.433777 C27.2651341,147.997556 25.2392389,150.07591 22.7401705,150.07591 L27.459136,150.07591 C29.9582044,150.07591 31.9840996,147.997556 31.9840996,145.433777 L31.9840996,4.64213299 C31.9840996,2.07835373 29.9582044,-3.75792442e-15 27.459136,-3.99680289e-15 L27.459136,-1.84689669e-15 Z" opacity=".4"/>
        <path d="M27.459136,-1.02605371e-15 L4.5249636,-1.02605371e-15 C2.02589521,-1.50381065e-15 0,2.07835373 0,4.64213299 L0,10.0211979 C0,7.4574186 2.02589521,5.37906487 4.5249636,5.37906487 L27.4538927,5.37906487 C28.6548959,5.37763718 29.8071856,5.86608729 30.6569152,6.73681089 C31.5066449,7.60753449 31.9841004,8.78909509 31.9840996,10.0211979 L31.9840996,4.64213299 C31.9840996,2.07835373 29.9582044,-1.98156758e-15 27.459136,-1.02605371e-15 Z" opacity=".2"/>
        <polygon points="26.216 11.296 31.46 11.296 31.46 12.91 26.216 12.91"/>
        <polygon points="26.216 15.599 31.46 15.599 31.46 17.213 26.216 17.213"/>
        <polygon points="26.216 19.903 31.46 19.903 31.46 21.516 26.216 21.516"/>
        <polygon points="20.973 24.206 31.46 24.206 31.46 25.82 20.973 25.82"/>
        <polygon points="26.741 27.509 31.984 27.509 31.984 29.122 26.741 29.122"/>
        <polygon points="26.741 31.812 31.984 31.812 31.984 33.426 26.741 33.426"/>
        <polygon points="26.741 36.115 31.984 36.115 31.984 37.729 26.741 37.729"/>
        <polygon points="21.498 40.418 31.984 40.418 31.984 42.032 21.498 42.032"/>
        <polygon points="27.265 43.726 32.508 43.726 32.508 45.34 27.265 45.34"/>
        <polygon points="27.265 48.03 32.508 48.03 32.508 49.643 27.265 49.643"/>
        <polygon points="27.265 52.333 32.508 52.333 32.508 53.947 27.265 53.947"/>
        <polygon points="22.022 56.636 32.508 56.636 32.508 58.25 22.022 58.25"/>
        <polygon points="26.741 59.939 31.984 59.939 31.984 61.553 26.741 61.553"/>
        <polygon points="26.741 64.242 31.984 64.242 31.984 65.856 26.741 65.856"/>
        <polygon points="26.741 68.545 31.984 68.545 31.984 70.159 26.741 70.159"/>
        <polygon points="21.498 72.849 31.984 72.849 31.984 74.462 21.498 74.462"/>
        <polygon points="26.741 76.151 31.984 76.151 31.984 77.765 26.741 77.765"/>
        <polygon points="26.741 80.455 31.984 80.455 31.984 82.068 26.741 82.068"/>
        <polygon points="26.741 84.758 31.984 84.758 31.984 86.372 26.741 86.372"/>
        <polygon points="21.498 89.061 31.984 89.061 31.984 90.675 21.498 90.675"/>
        <polygon points="27.265 92.364 32.508 92.364 32.508 93.978 27.265 93.978"/>
        <polygon points="27.265 96.667 32.508 96.667 32.508 98.281 27.265 98.281"/>
        <polygon points="27.265 100.97 32.508 100.97 32.508 102.584 27.265 102.584"/>
        <polygon points="22.022 105.274 32.508 105.274 32.508 106.887 22.022 106.887"/>
        <polygon points="27.265 108.582 32.508 108.582 32.508 110.196 27.265 110.196"/>
        <polygon points="27.265 112.885 32.508 112.885 32.508 114.499 27.265 114.499"/>
        <polygon points="27.265 117.188 32.508 117.188 32.508 118.802 27.265 118.802"/>
        <polygon points="22.022 121.492 32.508 121.492 32.508 123.105 22.022 123.105"/>
        <polygon points="27.265 124.794 32.508 124.794 32.508 126.408 27.265 126.408"/>
        <polygon points="27.265 129.098 32.508 129.098 32.508 130.711 27.265 130.711"/>
        <polygon points="27.265 133.401 32.508 133.401 32.508 135.015 27.265 135.015"/>
        <polygon points="22.022 137.704 32.508 137.704 32.508 139.318 22.022 139.318"/>
      </g>
      <polygon fill="#655307" points="73.123 -21.793 74.179 -21.796 73.762 126.242 72.707 126.245" transform="rotate(-67 73.443 52.224)"/>
      <polygon fill="#FFD214" points="69.972 -15.454 72.083 -15.46 71.67 131.528 69.559 131.534" transform="rotate(-67 70.821 58.037)"/>
      <polygon fill="#FFD214" points="71.021 -16.511 73.132 -16.516 72.718 130.471 70.607 130.477" transform="rotate(-67 71.87 56.98)"/>
      <polygon fill="#FFD214" points="71.021 -17.567 73.132 -17.573 72.718 129.414 70.607 129.42" transform="rotate(-67 71.87 55.924)"/>
      <ellipse cx="138.498" cy="71.479" fill="#1E1169" rx="2.639" ry="2.625" transform="rotate(-67 138.498 71.479)"/>
      <path fill="#463E3B" d="M138.983794,74.9472138 C137.246319,74.9472138 135.837817,73.5276799 135.837817,71.776596 C135.837817,70.0255121 137.246319,68.6059782 138.983794,68.6059782 C140.721269,68.6059782 142.129771,70.0255121 142.129771,71.776596 C142.129771,73.5276799 140.721269,74.9472138 138.983794,74.9472138 Z M138.983794,70.1912871 C138.115057,70.1912871 137.410806,70.9010541 137.410806,71.776596 C137.410806,72.6521379 138.115057,73.3619049 138.983794,73.3619049 C139.852532,73.3619049 140.556783,72.6521379 140.556783,71.776596 C140.556783,70.9010541 139.852532,70.1912871 138.983794,70.1912871 Z" transform="rotate(-67 138.984 71.777)"/>
      <circle cx="13.73" cy="19.638" r="2.5" fill="#1E1169" transform="rotate(-67 13.73 19.638)"/>
      <path fill="#463E3B" d="M14.1933727,23.1604561 C12.4558976,23.1604561 11.0473957,21.7409222 11.0473957,19.9898383 C11.0473957,18.2387545 12.4558976,16.8192205 14.1933727,16.8192205 C15.9308478,16.8192205 17.3393497,18.2387545 17.3393497,19.9898383 C17.3393497,21.7409222 15.9308478,23.1604561 14.1933727,23.1604561 L14.1933727,23.1604561 Z M14.1933727,18.4045294 C13.3246352,18.4045294 12.6203842,19.1142964 12.6203842,19.9898383 C12.6203842,20.8653803 13.3246352,21.5751472 14.1933727,21.5751472 C15.0621103,21.5751472 15.7663612,20.8653803 15.7663612,19.9898383 C15.7663612,19.1142964 15.0621103,18.4045294 14.1933727,18.4045294 L14.1933727,18.4045294 Z" transform="rotate(-67 14.193 19.99)"/>
      <path fill="#655307" d="M88.8834375,121.102555 L64.1165625,121.102555 C61.5681191,121.09961 59.5029276,119.021925 59.5,116.458066 L59.5,-24.9717061 C59.5029276,-27.5355656 61.5681191,-29.6132499 64.1165625,-29.6161952 L88.88875,-29.6161952 C91.4351185,-29.6103077 93.4970799,-27.5334832 93.5,-24.9717061 L93.5,116.458066 C93.4970724,119.021925 91.4318809,121.09961 88.8834375,121.102555 L88.8834375,121.102555 Z M63.9185992,-28.0091252 C62.28141,-28.0091252 60.954206,-26.6442284 60.954206,-24.9605429 L60.954206,116.817288 C60.954206,118.500973 62.28141,119.86587 63.9185992,119.86587 L88.2120352,119.86587 C88.9982411,119.86587 89.7522461,119.544681 90.3081776,118.972961 C90.8641092,118.401241 91.1764283,117.625822 91.1764283,116.817288 L91.1764283,-24.9605429 C91.1764295,-25.7700063 90.8633953,-26.5462382 90.3063365,-27.1181126 C89.7492776,-27.6899869 88.9939335,-28.0105478 88.2068253,-28.0091252 L63.9185992,-28.0091252 Z" transform="rotate(-67 76.5 45.743)"/>
      <path fill="#000" d="M45.5513055,40.0175782 C44.9445925,38.0765418 44.6219202,36.0646192 44.592264,34.0377724 C44.5263041,32.3970323 44.7813315,30.7571754 45.344514,29.2007139 C45.9277657,27.6074023 47.0522913,26.2392039 48.5418551,25.310543 L48.8263887,25.7432605 C47.4404986,26.6129547 46.395948,27.8911434 45.8562113,29.3777876 C45.3141609,30.8803005 45.070243,32.4631854 45.1367842,34.0464489 C45.1734331,36.020504 45.4944199,37.9791072 46.0908791,39.8681634 L45.5513055,40.0175782 Z" opacity=".1" transform="rotate(-67 46.704 32.664)"/>
      <path fill="#000" d="M45.7250026,56.9277939 C45.3362135,56.9299408 44.9480379,56.9012716 44.5641157,56.8420552 L44.6492742,56.3183608 C48.7152897,56.8288499 52.5161505,54.1480156 53.4117369,50.1379947 C53.6291567,48.7934198 53.611777,47.4225769 53.3603729,46.0865881 C53.0473775,43.6520425 52.1768896,41.3257625 50.8166499,39.2887773 C49.4507992,37.260605 47.3322779,35.8635966 44.9277904,35.4055094 L45.0129489,34.881815 C47.5566521,35.3616009 49.7994127,36.8356481 51.2464074,38.9787355 C52.6552547,41.0854627 53.5560751,43.4926188 53.8783835,46.0118546 C54.1405126,47.4066304 54.157724,48.8377972 53.9292468,50.2412377 C53.2020402,54.0278605 49.5274655,56.9171526 45.7250026,56.9277939 L45.7250026,56.9277939 Z" opacity=".1" transform="rotate(-67 49.326 45.905)"/>
      <path fill="#000" d="M45.5970434,54.8231856 L45.4538684,54.2723237 C47.8313389,53.7144077 49.5265103,51.3282092 49.2317295,48.9365543 C48.8242756,46.5770826 47.0546282,44.6093624 44.602954,43.78969 L44.8214856,43.2764042 C47.47975,44.1691069 49.3948445,46.3078979 49.8289106,48.8687316 C50.1530515,51.5414482 48.2581062,54.2038371 45.5970434,54.8231856 L45.5970434,54.8231856 Z" opacity=".1" transform="rotate(-67 47.234 49.05)"/>
      <path fill="#000" d="M92.9108268,85.4181886 C92.5141041,85.4198326 92.1193939,85.3652294 91.7380362,85.2559477 L91.8809579,84.7216027 C93.1361328,85.0429165 94.4697202,84.7662667 95.5075704,83.9692698 C98.1315093,82.1625318 100.138856,77.9761243 100.633951,73.2760222 C100.858281,70.7767901 100.844306,68.2626251 100.592221,65.7688713 C100.166493,60.7082635 99.3037024,56.4764937 98.008742,53.1963555 C96.4955237,49.3027914 94.36063,46.6977746 92.1206902,46.0579696 L92.2636119,45.5236245 C94.6500735,46.2110745 96.9208333,48.9278396 98.4964538,52.9814126 C99.7860413,56.3096209 100.659172,60.5894168 101.079513,65.7034342 C101.334956,68.2309019 101.348836,70.7790661 101.120956,73.3120354 C100.58366,78.1190447 98.5025033,82.4765211 95.7630934,84.3690136 C94.9350223,85.0010019 93.9414985,85.3664588 92.9108268,85.4181886 L92.9108268,85.4181886 Z" opacity=".1" transform="rotate(-67 96.51 65.47)"/>
      <path fill="#000" d="M92.8718614,78.0413693 L92.6290409,77.5462047 C94.9726511,76.575202 96.7125101,72.1349803 96.4207958,67.8475625 C96.1520641,63.8597664 94.2982189,60.1216039 91.8009591,58.5429813 L92.1417357,58.095223 C94.8233244,59.7877554 96.7365196,63.6020355 97.0165357,67.8132023 C97.3253222,72.3839118 95.4659196,76.9715867 92.8718614,78.0413693 L92.8718614,78.0413693 Z" opacity=".1" transform="rotate(-67 94.426 68.068)"/>
      <path fill="#000" d="M81.9526637,46.3158915 C79.4076023,45.8356818 77.1636453,44.3603381 75.7158799,42.2153674 C74.3062822,40.1067889 73.404983,37.6975181 73.0825048,35.1760698 C72.820024,33.7800913 72.8028043,32.3476306 73.0316185,30.9429727 C73.9885473,26.65573 78.0510711,23.7897718 82.3965247,24.3363825 L82.3113203,24.8605367 C78.2410417,24.3433743 74.4323735,27.0251731 73.5337199,31.0411115 C73.3160765,32.3868597 73.3334644,33.7589248 73.5851075,35.0960758 C73.8980836,37.5328063 74.7690494,39.8611706 76.1301825,41.8998585 C77.4967608,43.9298131 79.6164122,45.3280502 82.0221835,45.7865421 L81.9526637,46.3158915 Z" opacity=".1" transform="rotate(-67 77.634 35.293)"/>
      <path fill="#000" d="M82.133411,37.9212841 C79.4697324,37.0243033 77.555139,34.8741043 77.131693,32.3040656 C76.8078741,29.6491537 78.7067212,26.9880216 81.3647835,26.3744833 L81.5077968,26.9250827 C79.1329933,27.4827283 77.4397199,29.8677853 77.7341655,32.2582996 C78.1411579,34.6166464 79.9088159,36.583431 82.3577373,37.4027167 L82.133411,37.9212841 Z" opacity=".1" transform="rotate(-67 79.727 32.148)"/>
      <path fill="#000" d="M130.044796,73.7533289 C126.608325,73.2345474 123.321005,71.0931646 121.027303,67.9080558 C119.12833,65.2713769 117.831237,61.8826876 117.200017,57.8369205 C116.820236,55.8434801 116.795187,53.7980949 117.12599,51.7922472 C118.283347,45.8445235 124.603951,41.4464104 130.652495,42.3858849 L130.565327,42.9145274 C124.789743,42.0271289 118.774958,46.2183108 117.645135,51.8964741 C117.325542,53.8428926 117.350761,55.8274029 117.719667,57.7614904 C118.345756,61.7280121 119.600216,65.0428449 121.440476,67.6109963 C123.654179,70.6800812 126.81323,72.7319952 130.1105,73.2405984 L130.044796,73.7533289 Z" opacity=".1" transform="rotate(-67 123.774 58.006)"/>
      <path fill="#000" d="M130.410614,61.1603265 C127.127164,59.8575807 124.701693,56.7799833 124.326027,53.5038754 C123.935737,49.8797441 126.234439,46.2534424 129.4511,45.414441 L129.574422,45.9495794 C126.602397,46.7236382 124.481258,50.0924109 124.841064,53.4595953 C125.175662,56.5430441 127.487205,59.4442508 130.594012,60.6778781 L130.410614,61.1603265 Z" opacity=".1" transform="rotate(-67 127.438 53.287)"/>
      <polygon fill="#655307" points="72.062 -16.528 74.173 -16.534 73.774 125.204 71.663 125.21" transform="rotate(-67 72.918 54.338)"/>
      <path fill="#000" d="M91.3756898,68.5044703 C90.2129936,67.1030674 88.7582328,65.3634267 88.0857032,63.3202146 C87.6425702,61.70795 87.4424767,60.0382453 87.4919076,58.3652138 C87.4945274,57.4341505 87.4538127,56.4762992 87.3424656,55.5509366 C86.6482156,50.2751897 83.1333257,45.7985597 78.1508152,43.8442773 L78.3475693,43.3432168 C83.5188188,45.3676181 87.1683976,50.0109304 87.8907008,55.4848205 C88.0019722,56.4370924 88.0209364,57.41115 88.0399914,58.3529164 C87.9931268,59.9730531 88.1860221,61.5899161 88.6125211,63.1519036 C89.2527656,65.0983332 90.6696485,66.8004071 91.8053193,68.1642129 L91.3756898,68.5044703 Z" opacity=".1" transform="rotate(-67 84.978 55.924)"/>
      <path fill="#000" d="M26.3588315,44.1964004 C25.1961354,42.7949974 23.7413746,41.0553567 23.068845,39.0121447 C22.6257119,37.3998801 22.4256185,35.7301754 22.4750494,34.0571439 C22.4776692,33.1260806 22.4369545,32.1682293 22.3256074,31.2428667 C21.6313574,25.9671198 18.1164675,21.4904898 13.133957,19.5362074 L13.3307111,19.0351469 C18.5019605,21.0595482 22.1515394,25.7028605 22.8738426,31.1767505 C22.985114,32.1290225 23.0040781,33.1030801 23.0231332,34.0448464 C22.9762686,35.6649831 23.1691639,37.2818462 23.5956628,38.8438337 C24.2359074,40.7902633 25.6527903,42.4923372 26.788461,43.856143 L26.3588315,44.1964004 Z" opacity=".1" transform="rotate(-67 19.961 31.616)"/>
      <path fill="#000" d="M37.8940806,30.4570565 C36.7313844,29.0556536 35.2766236,27.3160129 34.604094,25.2728008 C34.160961,23.6605362 33.9608675,21.9908315 34.0102984,20.3178001 C34.0129182,19.3867367 33.9722035,18.4288855 33.8608565,17.5035228 C33.1666064,12.227776 29.6517165,7.7511459 24.669206,5.79686355 L24.8659601,5.29580304 C30.0372096,7.32020432 33.6867884,11.9635166 34.4090917,17.4374067 C34.520363,18.3896786 34.5393272,19.3637362 34.5583822,20.3055026 C34.5115176,21.9256393 34.7044129,23.5425023 35.1309119,25.1044898 C35.7711564,27.0509194 37.1880393,28.7529933 38.3237101,30.1167991 L37.8940806,30.4570565 Z" opacity=".1" transform="rotate(-67 31.496 17.876)"/>
      <path fill="#000" d="M135.712867,90.702074 L135.182254,90.5884947 C135.601461,88.7829044 134.831519,86.92834 134.082519,85.1783209 C133.887382,84.7133797 133.692231,84.2536687 133.518317,83.7938983 C132.960696,82.2077953 132.512933,80.5857197 132.1781,78.9387982 C131.464856,75.8026775 130.788351,72.8181296 128.713394,70.5801829 C127.21545,68.9473241 125.105251,67.9124208 123.244062,67.0651077 L123.468395,66.5885322 C125.377309,67.4566325 127.545822,68.5227538 129.112567,70.233873 C131.28274,72.5970778 132.006485,75.7750107 132.703963,78.8536434 C133.033624,80.4774043 133.47435,82.0767652 134.023133,83.6408099 C134.197062,84.0953501 134.386919,84.5498457 134.582085,85.0043265 C135.368044,86.8274648 136.175005,88.7342276 135.712867,90.702074 L135.712867,90.702074 Z" opacity=".1" transform="rotate(-67 129.546 78.645)"/>
    </g>
    <g transform="rotate(-1 5060.118 -19242.256)">
      <ellipse cx="9.977" cy="174.916" fill="#FFF" rx="1.238" ry="1.248" transform="rotate(-.55 9.977 174.916)"/>
      <ellipse cx="10.013" cy="178.667" fill="#FFF" rx="1.238" ry="1.248" transform="rotate(-.55 10.013 178.667)"/>
      <ellipse cx="10.049" cy="182.418" fill="#FFF" rx="1.238" ry="1.248" transform="rotate(-.55 10.049 182.418)"/>
      <ellipse cx="6.493" cy="170.522" fill="#FFF" rx="1.238" ry="1.248" transform="rotate(-.55 6.493 170.522)"/>
      <ellipse cx="6.52" cy="174.273" fill="#FFF" rx="1.238" ry="1.248" transform="rotate(-.55 6.52 174.273)"/>
      <ellipse cx="6.556" cy="178.024" fill="#FFF" rx="1.238" ry="1.248" transform="rotate(-.55 6.556 178.024)"/>
      <ellipse cx="14.369" cy="181.304" fill="#FFF" rx="1.238" ry="1.248" transform="rotate(-.55 14.37 181.304)"/>
      <ellipse cx="14.405" cy="185.055" fill="#FFF" rx="1.238" ry="1.248" transform="rotate(-.55 14.405 185.055)"/>
      <path fill="#32ADAA" d="M31,227 L31,253.249679 C31,265.814334 40.8203581,276 52.9343838,276 L200.065616,276 C212.179642,276 222,265.814334 222,253.249679 L222,227"/>
      <path fill="#264575" d="M201.26639,277 L53.7423067,277 C40.6371603,276.990045 30.0143872,265.962701 30,252.353462 L30,226 L33.4787263,226 L33.4787263,252.353462 C33.4931002,263.964031 42.5531058,273.372536 53.7336098,273.387462 L201.26639,273.387462 C212.446894,273.372536 221.5069,263.964031 221.521274,252.353462 L221.521274,226 L225,226 L225,252.353462 C224.985621,265.959179 214.36814,276.985068 201.26639,277 L201.26639,277 Z"/>
      <path fill="#32ADAA" d="M216,140 L222.487601,140 C237.682279,140 250,152.049077 250,166.912367 L248.438214,185.643014 L216,193"/>
      <path fill="#32ADAA" d="M237 188.744806L237 213.55573C237 224.294504 228.476781 233 217.962857 233L216 233 216 166 237 188.744806zM28.5123989 140C13.3177205 140 1 152.218039 1 167.289755L1.57122814 185.613566 13.2740799 189.500094 13.2740799 214.448211C13.2740799 225.246366 22.0991306 234 32.9853824 234L35 234 35 140 28.5123989 140z"/>
      <path fill="#0FCBC9" d="M22.1490473 215.448211L22.1490473 190.500094 9.87496749 188.105638 9.87496749 168.289755C9.87637968 154.136907 20.7855056 142.33374 35 141.105638L35 141 28.5123989 141C13.3177206 141 1.00000016 153.218039 1.00000016 168.289755L1.00000016 183.404757C.999357279 186.136346 2.96527965 187.506083 5.66759187 188.032198L13.2894239 189.62104 13.2882191 214.686829C13.2882191 225.484984 22.1111558 234.558517 32.9974075 234.558517L35 235 35 233.785166C27.2739481 230.937332 22.1484409 223.623774 22.1490473 215.448211zM228.861988 215.44124L228.861988 190.495458 241.129663 188.101227 241.129663 168.287199C241.128252 154.135676 230.224818 142.333615 216.017741 141.105628L216.017741 141 222.501957 141C237.688707 141 250 153.216895 250 168.287199L250 181.613915C249.988925 185.383242 247.334944 187.334253 243.60981 188.071353L237.764259 189.215654 237.732325 215.450042C237.732325 226.247186 228.917721 234.66528 218.03715 234.66528L216 235 216 233.78528C223.732054 230.942394 228.863552 223.623743 228.861988 215.44124z"/>
      <path fill="#0FDAD7" d="M163,30 L155.041661,30 C126.054336,3.96178039 100.343456,30 100.343456,30 L93,30 C93,30 125.922575,-37.5 163,30 Z"/>
      <path fill="#0FCBC9" d="M155.041661,26.6138135 C126.054336,2.73273314 100.343456,26.6138135 100.343456,26.6138135 L95.0203288,26.6138135 C93.7027231,28.6709218 93,30 93,30 L100.343456,30 C100.343456,30 126.06312,6.11891965 155.041661,30 L163,30 C162.297277,28.8233002 161.594554,27.7058586 160.891831,26.6138135 L155.041661,26.6138135 Z"/>
      <path fill="#6EF9F2" d="M160.364789,30 L163,30 C125.922575,-37.5 93,30 93,30 L95.5649391,30 C103.786799,16.4040066 130.481491,-19.5566115 160.364789,30 Z"/>
      <path fill="#0FDAD7" d="M217,105 L216.99999,222.004981 C217.007725,233.407741 212.518689,244.345417 204.522625,252.40647 L204.522625,252.40647 C196.533917,260.472423 185.692957,265.003146 174.389268,264.999995 L78.6281012,264.999995 C67.3214023,265.005473 56.4768913,260.474573 48.4860553,252.40647 L48.4860553,252.40647 C40.4889362,244.349 35.9968774,233.414727 36.0000016,222.013745 L36,105"/>
      <path fill="#0FDAD7" d="M204.732557,41 L204.732557,41 C214.075151,56.7891926 219.000436,74.7655832 219,93.0735651 L219,106 L34,106 L34,93.0735651 C34.0129473,74.7615442 38.9535461,56.7848803 48.3115873,41 L48.3115873,41"/>
      <path fill="#0FCBC9" d="M74 267C69.5016721 266.658791 65.0861313 265.598086 60.9195553 263.857803 44.9413042 257.186293 34.5226978 241.491242 34.5144975 224.080052L34.5144975 108.099643 34 108.099643 34 95.1446652C34.0035326 76.8106359 38.8682462 58.8097223 48.0919991 43L63.2740353 43 62.7333769 44.0971357C51.8049724 68.4783716 46.1570117 94.9213969 46.1648136 121.669018L46.1648136 168.134909C46.1605419 203.049571 55.7975623 237.278367 74 267L74 267zM177.339558 266.178064C181.837886 265.836855 185.989061 264.667596 190.155637 262.927313 206.133888 256.255803 216.477302 241.491242 216.485503 224.080052L216.485503 108.099643 217 108.099643 217 95.1446652C216.996467 76.8106359 212.131754 58.8097223 202.908001 43L187.725965 43 188.240462 44.1410211C199.168867 68.522257 204.816827 94.9652824 204.809026 121.712903L204.809026 168.178794C204.813082 203.07601 195.525035 236.466404 177.339558 266.178064z"/>
      <path fill="#0FCBC9" d="M203,46.3240204 L199.428649,50.2760485 C180.039402,71.7497265 152.497603,84 123.608442,84 C94.7192812,84 67.1774828,71.7497265 47.7882353,50.2760485 L45,47.2041664 C46.044154,45.0987191 47.1600218,43.0306636 48.3476035,41 L200.099891,41 C201.121097,42.7487868 202.0878,44.5234603 203,46.3240204 Z"/>
      <path fill="#264575" d="M34.5023697,194 L4.36517835,188.060606 C1.83265724,187.560031 0.00531467878,185.337341 0,182.751015 L0,166.428616 C0.0192412532,150.735917 12.7112969,138.019279 28.3736593,138 L34.75555,138 L34.75555,140.62418 L28.3736593,140.62418 C14.155797,140.638645 2.63354384,152.183215 2.61910701,166.428616 L2.61910701,182.751015 C2.622168,184.082066 3.56032678,185.226862 4.86280868,185.48891 L35,191.428304 L34.5023697,194 Z"/>
      <path fill="#264575" d="M35 235L33.0777521 235C21.9949185 234.98571 13.0139964 225.816558 13 214.501441L13.0082283 189.5286 15.5404157 190 15.5404157 214.501441C15.549752 224.386093 23.3960185 232.396808 33.0777521 232.40634L35 232.40634 35 235zM216.506234 194L216 191.428304 244.38404 185.830053C246.703064 185.371285 248.376356 183.335509 248.381546 180.966573L248.381546 166.428616C248.367113 152.183215 236.847733 140.638645 222.633416 140.62418L216.253117 140.62418 216.253117 138 222.633416 138C238.291873 138.019279 250.980764 150.735917 251 166.428616L251 180.966573C250.994139 184.590149 248.436916 187.705801 244.890274 188.410497L216.506234 194z"/>
      <path fill="#264575" d="M217.922248 235L214.796553 234.945441 215.474902 232.363621 217.922248 232.40634C227.603981 232.396808 235.450248 224.386093 235.459584 214.501441L235.459584 190 238.008201 189.530194 238 214.501441C237.986004 225.816558 229.005081 234.98571 217.922248 235zM164 31L90 31 90.9782814 29.0974275C93.7309777 24.0010787 97.0349752 19.221873 100.830973 14.8455889 109.067753 5.35890875 118.020774.235926939 126.685552.00901462733 139.394476-.340081237 151.544381 9.45205776 162.847025 29.0276084L164 31zM94.3673277 28.381781L159.44051 28.381781C149.002597 11.0142618 138.040604 2.35668432 126.781634 2.62723361 110.517705 3.03742125 98.0009443 22.1853294 94.3673277 28.381781z"/>
      <path fill="#264575" d="M150.301182 31C138.749222 21.2422017 126.413192 18.2675777 113.632856 22.1535027 107.792476 23.9532783 102.401827 26.9470585 97.8120722 30.9398197L96 29.0828291C96.2613566 28.8335109 122.710641 4.3057588 152 29.031246L150.301182 31zM220 107L33 107 33 92.4600544C33.0054579 74.0163378 37.9760062 55.9076283 47.3994379 40L50.4212178 41.735077C41.3129811 57.1114452 36.5087351 74.6151868 36.5035129 92.4427036L36.5035129 103.512495 216.496487 103.512495 216.496487 92.4600544C216.485038 74.6443117 211.68101 57.1533418 202.578782 41.7871294L205.600562 40.0520523C215.023994 55.9596807 219.994542 74.0683901 220 92.5121067L220 107z"/>
      <path fill="#264575" d="M172.29689 267L75.7031103 267C51.0142642 267 31 247.078091 31 222.50317L31 106 34.5061263 106 34.5061263 222.50317C34.5061263 245.150646 52.9506443 263.510053 75.7031103 263.510053L172.29689 263.510053C195.049356 263.510053 213.493874 245.150646 213.493874 222.50317L213.493874 106 217 106 217 222.50317C217 247.078091 196.985736 267 172.29689 267zM223.601151 173.680266L242.766588 150.654903C243.544489 149.722804 242.193847 148.379238 241.407397 149.319734L222.233412 172.345097C221.455511 173.277196 222.806153 174.620762 223.592603 173.680266L223.601151 173.680266zM230.577472 161.645167L241.76159 146.85812C242.544815 145.81811 241.214175 144.305369 240.422528 145.354833L229.23841 160.14188C228.455185 161.18189 229.785825 162.694631 230.577472 161.645167z"/>
      <path fill="#6EF9F2" d="M178.530201,189 L69.4697987,189 C63.6874885,189 59,193.645123 59,199.375174 L59,201.303227 C60.6575059,197.511561 64.4274864,195.056051 68.5973154,195.052185 L177.657718,195.052185 C183.440028,195.052185 188.127517,199.697308 188.127517,205.427358 L188.127517,245 C188.702832,243.699813 188.99991,242.295558 189,240.875868 L189,199.375174 C189,196.623507 187.896935,193.984541 185.933467,192.038818 C183.969999,190.093096 181.306965,189 178.530201,189 L178.530201,189 Z"/>
      <path fill="#0FCBC9" d="M178.966443,242.608833 L69.9060403,242.608833 C64.1237301,242.608833 59.4362416,237.863334 59.4362416,232.009464 L59.4362416,195 C59.1479425,195.974383 59.0009941,196.985998 59,198.003155 L59,240.400631 C59,246.254501 63.6874885,251 69.4697987,251 L178.530201,251 C184.312511,251 189,246.254501 189,240.400631 L189,235.012618 C187.686153,239.514743 183.603552,242.605602 178.966443,242.608833 Z"/>
      <rect width="12" height="18" x="173" y="207" fill="#FFF" opacity=".35" rx="6"/>
      <path fill="#264575" d="M181.1875,253 L71.8125,253 C65.2926326,252.990307 60.0096377,247.677124 60,241.12 L60,198.88 C60.0096377,192.322876 65.2926326,187.009693 71.8125,187 L181.1875,187 C187.707367,187.009693 192.990362,192.322876 193,198.88 L193,241.12 C192.990362,247.677124 187.707367,252.990307 181.1875,253 Z M71.8125,189.64 C66.7403832,189.644851 62.6298237,193.7789 62.625,198.88 L62.625,241.12 C62.6298237,246.2211 66.7403832,250.355149 71.8125,250.36 L181.1875,250.36 C186.259617,250.355149 190.370176,246.2211 190.375,241.12 L190.375,198.88 C190.370176,193.7789 186.259617,189.644851 181.1875,189.64 L71.8125,189.64 Z"/>
      <path fill="#FFF" d="M79.2593559,205 L75.3020548,215.958909 C74.8205514,217.287962 74.9194571,218.826089 75.5648526,220.045796 C76.2102481,221.265504 77.314395,222.00098 78.498632,221.999995 L78.498632,221.999995 C79.592408,222.001948 80.6238992,221.375 81.2861845,220.3057 C81.9484697,219.2364 82.1652207,217.847984 81.871943,216.553578 L79.2593559,205 Z"/>
      <path fill="#E8EFEF" d="M81.8024431,215 C81.3163256,216.20985 79.9870223,217.02234 78.492539,217.023063 L78.492539,217.023063 C77.0113397,217.0312 75.685048,216.239035 75.1826349,215.046128 C74.8238998,215.959569 74.9998777,216.964953 75.6556031,217.748254 C76.3113284,218.531555 77.3668713,218.997293 78.492539,218.999997 L78.492539,218.999997 C79.5882184,219.00136 80.6215046,218.563669 81.2849423,217.817159 C81.94838,217.07065 82.1655082,216.101356 81.8717201,215.197693 L81.8024431,215 Z"/>
      <path fill="#264575" d="M176,203 L172.491228,203 L172.491228,201 L176,201 L176,203 Z M168.105263,203 L163.719298,203 L163.719298,201 L168.105263,201 L168.105263,203 Z M159.333333,203 L154.947368,203 L154.947368,201 L159.333333,201 L159.333333,203 Z M150.561404,203 L146.175439,203 L146.175439,201 L150.561404,201 L150.561404,203 Z M141.789474,203 L137.403509,203 L137.403509,201 L141.789474,201 L141.789474,203 Z M133.017544,203 L128.631579,203 L128.631579,201 L133.017544,201 L133.017544,203 Z M124.245614,203 L119.859649,203 L119.859649,201 L124.245614,201 L124.245614,203 Z M115.473684,203 L111.087719,203 L111.087719,201 L115.473684,201 L115.473684,203 Z M106.701754,203 L102.315789,203 L102.315789,201 L106.701754,201 L106.701754,203 Z M97.9298246,203 L93.5438596,203 L93.5438596,201 L97.9298246,201 L97.9298246,203 Z M89.1578947,203 L84.7719298,203 L84.7719298,201 L89.1578947,201 L89.1578947,203 Z M80.3859649,203 L76,203 L76,201 L80.3859649,201 L80.3859649,203 Z"/>
      <polyline fill="#DB9464" points="136 89 136 187 159 187 159 89"/>
      <polygon fill="#E4AE88" points="161 110 161 188 155 188"/>
      <polyline fill="#C68254" points="136 90 136 94 159 94 159 90"/>
      <polygon fill="#264575" points="163 187 135 187 135 88 137.703 88 137.703 184.383 160.297 184.383 160.297 88 163 88"/>
      <rect width="32" height="1" x="133" y="87" fill="#6EF9F2"/>
      <path fill="#BC754D" d="M140 178L139 178 139 173.591398 140 173.591398 140 178zM140 168.301075L139 168.301075 139 163.892473 140 163.892473 140 168.301075zM140 158.602151L139 158.602151 139 154.193548 140 154.193548 140 158.602151zM140 148.903226L139 148.903226 139 144.494624 140 144.494624 140 148.903226zM140 139.204301L139 139.204301 139 134.795699 140 134.795699 140 139.204301zM140 129.505376L139 129.505376 139 125.096774 140 125.096774 140 129.505376zM140 119.806452L139 119.806452 139 115.397849 140 115.397849 140 119.806452zM140 110.107527L139 110.107527 139 105.698925 140 105.698925 140 110.107527zM140 100.408602L139 100.408602 139 96 140 96 140 100.408602zM158 178L157 178 157 173.591398 158 173.591398 158 178zM158 168.301075L157 168.301075 157 163.892473 158 163.892473 158 168.301075zM158 158.602151L157 158.602151 157 154.193548 158 154.193548 158 158.602151zM158 148.903226L157 148.903226 157 144.494624 158 144.494624 158 148.903226zM158 139.204301L157 139.204301 157 134.795699 158 134.795699 158 139.204301zM158 129.505376L157 129.505376 157 125.096774 158 125.096774 158 129.505376zM158 119.806452L157 119.806452 157 115.397849 158 115.397849 158 119.806452zM158 110.107527L157 110.107527 157 105.698925 158 105.698925 158 110.107527zM158 100.408602L157 100.408602 157 96 158 96 158 100.408602z"/>
      <rect width="1" height="17" x="144" y="171" fill="#264575"/>
      <rect width="1" height="17" x="148" y="164" fill="#264575"/>
      <rect width="32" height="2" x="133" y="87" fill="#264575"/>
      <circle cx="149" cy="151" r="2" fill="#264575"/>
      <circle cx="149" cy="139" r="2" fill="#264575"/>
      <circle cx="149" cy="128" r="2" fill="#264575"/>
      <path fill="#FFF" d="M164,114.391425 L164,130.677732 C164,132.899378 163.167429,134.757953 160.962,135 C161.21,134.464039 160.457143,133.867566 160.457143,133.271093 L160.457143,118.713693 C160.447433,116.292313 158.438647,114.331745 155.957714,114.322268 L141.042286,114.322268 C138.561353,114.331745 136.552567,116.292313 136.542857,118.713693 L136.542857,133.271093 C136.544557,133.867046 136.674302,134.456027 136.923714,135 C134.692644,134.719135 133.016944,132.873224 133,130.677732 L133,114.391425 C133.00971,111.970044 135.018496,110.009477 137.499429,110 L159.500571,110 C161.981504,110.009477 163.99029,111.970044 164,114.391425 Z"/>
      <path fill="#E8EFEF" d="M164,114.370024 L164,130.673243 C163.983765,132.871016 162.378176,134.718843 160.240453,135 C160.47943,134.455462 160.603747,133.86587 160.605375,133.269297 L160.605375,118.696781 C160.601315,116.943695 159.578086,115.359965 158,114.664244 C158.885016,113.202582 159.591795,111.636257 160.104668,110 C162.310305,110.221989 163.993301,112.110078 164,114.370024 Z"/>
      <path fill="#264575" d="M138.258378,137 L136.727568,136.794776 C134.132973,136.449627 133,133.259328 133,130.264925 L133,112.671642 C133.004762,109.54141 135.356231,107.005136 138.258378,107 L159.741622,107 C162.643769,107.005136 164.995238,109.54141 165,112.671642 L165,130.246269 C165,133.259328 163.84973,136.449627 161.272432,136.776119 L159.741622,136.981343 L160.347027,135.535448 C160.295194,135.163995 160.211223,134.798594 160.096216,134.44403 C159.940065,133.988117 159.843994,133.510828 159.810811,133.026119 L159.810811,117.335821 C159.810811,115.233842 158.230981,113.529851 156.282162,113.529851 L141.726486,113.529851 C139.777668,113.529851 138.197838,115.233842 138.197838,117.335821 L138.197838,133.044776 C138.164655,133.529484 138.068583,134.006774 137.912432,134.462687 C137.797425,134.81725 137.713455,135.182652 137.661622,135.554104 L138.258378,137 Z M141.735135,111.636194 L156.299459,111.636194 C159.201607,111.64133 161.553076,114.177604 161.557838,117.307836 L161.557838,133.016791 C161.608243,133.311752 161.680548,133.601865 161.774054,133.884328 C161.834595,134.098881 161.895135,134.304104 161.947027,134.509328 C162.863784,133.70709 163.287568,131.878731 163.287568,130.218284 L163.287568,112.671642 C163.287568,111.662236 162.9158,110.694172 162.25405,109.980414 C161.5923,109.266657 160.694775,108.865672 159.758919,108.865672 L138.267027,108.865672 C137.331171,108.865672 136.433646,109.266657 135.771896,109.980414 C135.110146,110.694172 134.738378,111.662236 134.738378,112.671642 L134.738378,130.246269 C134.738378,131.916045 135.162162,133.735075 136.078919,134.537313 C136.130811,134.33209 136.191351,134.126866 136.251892,133.912313 C136.345398,133.62985 136.417703,133.339737 136.468108,133.044776 L136.468108,117.335821 C136.47287,114.205589 138.824339,111.669315 141.726486,111.664179 L141.735135,111.636194 Z"/>
      <path fill="#264575" d="M149,117.630435 L149,99.3695652 C149,98.6131752 148.552285,98 148,98 C147.447715,98 147,98.6131752 147,99.3695652 L147,117.630435 C147,118.386825 147.447715,119 148,119 C148.552285,119 149,118.386825 149,117.630435 Z"/>
      <polyline fill="#DB9464" points="82 89 82 187 105 187 105 89"/>
      <polygon fill="#E4AE88" points="105 110 105 188 99 188"/>
      <polyline fill="#C68254" points="82 90 82 94 105 94 105 90"/>
      <polygon fill="#264575" points="109 187 81 187 81 88 83.703 88 83.703 184.383 106.297 184.383 106.297 88 109 88"/>
      <rect width="32" height="1" x="77" y="87" fill="#6EF9F2"/>
      <path fill="#BC754D" d="M86 178L85 178 85 173.591398 86 173.591398 86 178zM86 168.301075L85 168.301075 85 163.892473 86 163.892473 86 168.301075zM86 158.602151L85 158.602151 85 154.193548 86 154.193548 86 158.602151zM86 148.903226L85 148.903226 85 144.494624 86 144.494624 86 148.903226zM86 139.204301L85 139.204301 85 134.795699 86 134.795699 86 139.204301zM86 129.505376L85 129.505376 85 125.096774 86 125.096774 86 129.505376zM86 119.806452L85 119.806452 85 115.397849 86 115.397849 86 119.806452zM86 110.107527L85 110.107527 85 105.698925 86 105.698925 86 110.107527zM86 100.408602L85 100.408602 85 96 86 96 86 100.408602zM103 178L102 178 102 173.591398 103 173.591398 103 178zM103 168.301075L102 168.301075 102 163.892473 103 163.892473 103 168.301075zM103 158.602151L102 158.602151 102 154.193548 103 154.193548 103 158.602151zM103 148.903226L102 148.903226 102 144.494624 103 144.494624 103 148.903226zM103 139.204301L102 139.204301 102 134.795699 103 134.795699 103 139.204301zM103 129.505376L102 129.505376 102 125.096774 103 125.096774 103 129.505376zM103 119.806452L102 119.806452 102 115.397849 103 115.397849 103 119.806452zM103 110.107527L102 110.107527 102 105.698925 103 105.698925 103 110.107527zM103 100.408602L102 100.408602 102 96 103 96 103 100.408602z"/>
      <rect width="1" height="17" x="89" y="171" fill="#264575"/>
      <rect width="1" height="17" x="93" y="164" fill="#264575"/>
      <rect width="32" height="2" x="77" y="87" fill="#264575"/>
      <circle cx="95" cy="151" r="2" fill="#264575"/>
      <circle cx="95" cy="139" r="2" fill="#264575"/>
      <circle cx="95" cy="128" r="2" fill="#264575"/>
      <path fill="#FFF" d="M107,114.391425 L107,130.677732 C107,132.899378 106.167429,134.757953 103.962,135 C104.21,134.464039 103.457143,133.867566 103.457143,133.271093 L103.457143,118.713693 C103.447433,116.292313 101.438647,114.331745 98.9577143,114.322268 L84.0422857,114.322268 C81.5613532,114.331745 79.5525674,116.292313 79.5428571,118.713693 L79.5428571,133.271093 C79.5445566,133.867046 79.6743018,134.456027 79.9237143,135 C77.6926438,134.719135 76.0169435,132.873224 76,130.677732 L76,114.391425 C76.0097102,111.970044 78.018496,110.009477 80.4994286,110 L102.500571,110 C104.981504,110.009477 106.99029,111.970044 107,114.391425 Z"/>
      <path fill="#E8EFEF" d="M110,114.370024 L110,130.673243 C109.983765,132.871016 108.378176,134.718843 106.240453,135 C106.47943,134.455462 106.603747,133.86587 106.605375,133.269297 L106.605375,118.696781 C106.601315,116.943695 105.578086,115.359965 104,114.664244 C104.885016,113.202582 105.591795,111.636257 106.104668,110 C108.310305,110.221989 109.993301,112.110078 110,114.370024 Z"/>
      <path fill="#264575" d="M82.2583784,137 L80.7275676,136.794776 C78.132973,136.449627 77,133.259328 77,130.264925 L77,112.671642 C77.0047615,109.54141 79.3562308,107.005136 82.2583784,107 L103.741622,107 C106.643769,107.005136 108.995238,109.54141 109,112.671642 L109,130.246269 C109,133.259328 107.84973,136.449627 105.272432,136.776119 L103.741622,136.981343 L104.347027,135.535448 C104.295194,135.163995 104.211223,134.798594 104.096216,134.44403 C103.940065,133.988117 103.843994,133.510828 103.810811,133.026119 L103.810811,117.335821 C103.810811,115.233842 102.230981,113.529851 100.282162,113.529851 L85.7264865,113.529851 C83.7776677,113.529851 82.1978378,115.233842 82.1978378,117.335821 L82.1978378,133.044776 C82.164655,133.529484 82.0685834,134.006774 81.9124324,134.462687 C81.7974252,134.81725 81.713455,135.182652 81.6616216,135.554104 L82.2583784,137 Z M85.7351351,111.636194 L100.299459,111.636194 C103.201607,111.64133 105.553076,114.177604 105.557838,117.307836 L105.557838,133.016791 C105.608243,133.311752 105.680548,133.601865 105.774054,133.884328 C105.834595,134.098881 105.895135,134.304104 105.947027,134.509328 C106.863784,133.70709 107.287568,131.878731 107.287568,130.218284 L107.287568,112.671642 C107.287568,110.569663 105.707738,108.865672 103.758919,108.865672 L82.267027,108.865672 C81.3311712,108.865672 80.4336456,109.266657 79.7718956,109.980414 C79.1101457,110.694172 78.7383784,111.662236 78.7383784,112.671642 L78.7383784,130.246269 C78.7383784,131.916045 79.1621622,133.735075 80.0789189,134.537313 C80.1308108,134.33209 80.1913514,134.126866 80.2518919,133.912313 C80.3453983,133.62985 80.4177032,133.339737 80.4681081,133.044776 L80.4681081,117.335821 C80.4728696,114.205589 82.8243389,111.669315 85.7264865,111.664179 L85.7351351,111.636194 Z"/>
      <path fill="#264575" d="M95 117.630435L95 99.3695652C95 98.6131752 94.5522847 98 94 98 93.4477153 98 93 98.6131752 93 99.3695652L93 117.630435C93 118.386825 93.4477153 119 94 119 94.5522847 119 95 118.386825 95 117.630435zM76.5105221 222.999991C74.6457895 223.003216 72.90621 222.180817 71.889458 220.815348 70.8727061 219.449879 70.7173027 217.727369 71.4766404 216.239629L77.7095373 204 81.8119527 216.906144C82.2547134 218.348498 81.905927 219.888676 80.8678485 221.075139 79.82977 222.261601 78.2200152 222.95992 76.5105221 222.965366L76.5105221 222.999991zM77.2735318 209.150339L73.3098453 216.940768C72.8221227 217.89285 72.9205858 218.996048 73.5713393 219.870594 74.2220928 220.74514 75.3362763 221.271615 76.5303406 221.268784 77.6318154 221.269399 78.6700315 220.819302 79.3355777 220.052632 80.001124 219.285962 80.2171563 218.29124 79.9192924 217.364914L77.2735318 209.150339z"/>
      <ellipse cx="43.092" cy="92.334" fill="#FFF" rx="1.238" ry="1.248" transform="rotate(-.55 43.092 92.334)"/>
      <ellipse cx="43.127" cy="96.085" fill="#FFF" rx="1.238" ry="1.248" transform="rotate(-.55 43.127 96.085)"/>
      <ellipse cx="43.163" cy="99.836" fill="#FFF" rx="1.238" ry="1.248" transform="rotate(-.55 43.163 99.836)"/>
      <ellipse cx="39.607" cy="87.941" fill="#FFF" rx="1.238" ry="1.248" transform="rotate(-.55 39.607 87.94)"/>
      <ellipse cx="39.643" cy="91.691" fill="#FFF" rx="1.238" ry="1.248" transform="rotate(-.55 39.643 91.691)"/>
      <ellipse cx="39.679" cy="95.442" fill="#FFF" rx="1.238" ry="1.248" transform="rotate(-.55 39.679 95.442)"/>
      <ellipse cx="176.441" cy="217.081" fill="#FFF" rx="1.238" ry="1.248" transform="rotate(-.55 176.44 217.08)"/>
      <ellipse cx="176.476" cy="220.831" fill="#FFF" rx="1.238" ry="1.248" transform="rotate(-.55 176.476 220.831)"/>
      <ellipse cx="176.512" cy="224.582" fill="#FFF" rx="1.238" ry="1.248" transform="rotate(-.55 176.512 224.582)"/>
      <ellipse cx="172.948" cy="212.687" fill="#FFF" rx="1.238" ry="1.248" transform="rotate(-.55 172.948 212.687)"/>
      <ellipse cx="172.983" cy="216.437" fill="#FFF" rx="1.238" ry="1.248" transform="rotate(-.55 172.983 216.437)"/>
      <ellipse cx="173.019" cy="220.188" fill="#FFF" rx="1.238" ry="1.248" transform="rotate(-.55 173.02 220.188)"/>
      <ellipse cx="239.189" cy="168.763" fill="#FFF" rx="1.238" ry="1.248" transform="rotate(-.55 239.19 168.763)"/>
      <ellipse cx="239.225" cy="172.514" fill="#FFF" rx="1.238" ry="1.248" transform="rotate(-.55 239.225 172.514)"/>
      <ellipse cx="239.261" cy="176.264" fill="#FFF" rx="1.238" ry="1.248" transform="rotate(-.55 239.26 176.264)"/>
      <ellipse cx="61.431" cy="67.972" fill="#FFF" rx="1.238" ry="1.248" transform="rotate(-.55 61.431 67.972)"/>
      <ellipse cx="61.458" cy="71.723" fill="#FFF" rx="1.238" ry="1.248" transform="rotate(-.55 61.458 71.723)"/>
      <ellipse cx="201.712" cy="67.731" fill="#32ADAA" rx="1.238" ry="1.248" transform="rotate(-.55 201.712 67.73)"/>
      <ellipse cx="201.739" cy="71.481" fill="#32ADAA" rx="1.238" ry="1.248" transform="rotate(-.55 201.74 71.481)"/>
      <ellipse cx="201.775" cy="75.232" fill="#32ADAA" rx="1.238" ry="1.248" transform="rotate(-.55 201.775 75.232)"/>
      <ellipse cx="201.708" cy="55.432" fill="#32ADAA" rx="1.238" ry="1.248" transform="rotate(-.55 201.708 55.432)"/>
      <ellipse cx="201.744" cy="59.183" fill="#32ADAA" rx="1.238" ry="1.248" transform="rotate(-.55 201.744 59.183)"/>
      <ellipse cx="201.78" cy="62.933" fill="#32ADAA" rx="1.238" ry="1.248" transform="rotate(-.55 201.78 62.934)"/>
      <ellipse cx="199.967" cy="181.942" fill="#32ADAA" rx="1.238" ry="1.248" transform="rotate(-.55 199.967 181.942)"/>
      <ellipse cx="200.003" cy="185.693" fill="#32ADAA" rx="1.238" ry="1.248" transform="rotate(-.55 200.003 185.693)"/>
      <ellipse cx="200.039" cy="189.443" fill="#32ADAA" rx="1.238" ry="1.248" transform="rotate(-.55 200.039 189.443)"/>
      <ellipse cx="196.483" cy="177.548" fill="#32ADAA" rx="1.238" ry="1.248" transform="rotate(-.55 196.483 177.548)"/>
      <ellipse cx="196.519" cy="181.299" fill="#32ADAA" rx="1.238" ry="1.248" transform="rotate(-.55 196.519 181.299)"/>
      <ellipse cx="196.555" cy="185.05" fill="#32ADAA" rx="1.238" ry="1.248" transform="rotate(-.55 196.555 185.05)"/>
      <ellipse cx="210.426" cy="202.142" fill="#32ADAA" rx="1.238" ry="1.248" transform="rotate(-.55 210.426 202.142)"/>
      <ellipse cx="210.462" cy="205.893" fill="#32ADAA" rx="1.238" ry="1.248" transform="rotate(-.55 210.462 205.893)"/>
      <ellipse cx="210.497" cy="209.644" fill="#32ADAA" rx="1.238" ry="1.248" transform="rotate(-.55 210.497 209.644)"/>
      <ellipse cx="206.942" cy="197.749" fill="#32ADAA" rx="1.238" ry="1.248" transform="rotate(-.55 206.942 197.749)"/>
      <ellipse cx="206.977" cy="201.499" fill="#32ADAA" rx="1.238" ry="1.248" transform="rotate(-.55 206.977 201.5)"/>
      <ellipse cx="207.013" cy="205.25" fill="#32ADAA" rx="1.238" ry="1.248" transform="rotate(-.55 207.013 205.25)"/>
      <ellipse cx="185.157" cy="235.532" fill="#32ADAA" rx="1.238" ry="1.248" transform="rotate(-.55 185.157 235.532)"/>
      <ellipse cx="185.193" cy="239.283" fill="#32ADAA" rx="1.238" ry="1.248" transform="rotate(-.55 185.193 239.283)"/>
      <ellipse cx="185.22" cy="243.034" fill="#32ADAA" rx="1.238" ry="1.248" transform="rotate(-.55 185.22 243.034)"/>
      <ellipse cx="181.664" cy="231.138" fill="#32ADAA" rx="1.238" ry="1.248" transform="rotate(-.55 181.664 231.138)"/>
      <ellipse cx="181.7" cy="234.889" fill="#32ADAA" rx="1.238" ry="1.248" transform="rotate(-.55 181.7 234.89)"/>
      <ellipse cx="181.735" cy="238.64" fill="#32ADAA" rx="1.238" ry="1.248" transform="rotate(-.55 181.735 238.64)"/>
      <ellipse cx="207.813" cy="87.938" fill="#32ADAA" rx="1.238" ry="1.248" transform="rotate(-.55 207.813 87.938)"/>
      <ellipse cx="207.84" cy="91.689" fill="#32ADAA" rx="1.238" ry="1.248" transform="rotate(-.55 207.84 91.69)"/>
      <ellipse cx="207.876" cy="95.44" fill="#32ADAA" rx="1.238" ry="1.248" transform="rotate(-.55 207.876 95.44)"/>
      <ellipse cx="204.32" cy="83.544" fill="#32ADAA" rx="1.238" ry="1.248" transform="rotate(-.55 204.32 83.544)"/>
      <ellipse cx="204.356" cy="87.295" fill="#32ADAA" rx="1.238" ry="1.248" transform="rotate(-.55 204.356 87.295)"/>
      <ellipse cx="204.392" cy="91.046" fill="#32ADAA" rx="1.238" ry="1.248" transform="rotate(-.55 204.392 91.046)"/>
      <ellipse cx="223.498" cy="180.177" fill="#32ADAA" rx="1.238" ry="1.248" transform="rotate(-.55 223.498 180.177)"/>
      <ellipse cx="223.534" cy="183.928" fill="#32ADAA" rx="1.238" ry="1.248" transform="rotate(-.55 223.534 183.928)"/>
      <ellipse cx="223.57" cy="187.687" fill="#32ADAA" rx="1.238" ry="1.248" transform="rotate(-.55 223.57 187.687)"/>
      <ellipse cx="220.014" cy="175.792" fill="#32ADAA" rx="1.238" ry="1.248" transform="rotate(-.55 220.014 175.792)"/>
      <ellipse cx="220.05" cy="179.543" fill="#32ADAA" rx="1.238" ry="1.248" transform="rotate(-.55 220.05 179.543)"/>
      <ellipse cx="220.085" cy="183.293" fill="#32ADAA" rx="1.238" ry="1.248" transform="rotate(-.55 220.085 183.293)"/>
      <path fill="#0FDAD7" d="M48.3803015,24.0000105 L203.56865,24.0000105 C206.506365,23.995065 209.170274,25.7323276 210.362004,28.4302812 C211.553734,31.1282347 211.04878,34.2786271 209.0743,36.4642367 L202.270147,44.0053979 C182.764387,65.6514881 155.057907,78 125.996117,78 C96.9343279,78 69.2278477,65.6514881 49.7220873,44.0053979 L42.9179348,36.4555387 C40.9544631,34.2752974 40.450007,31.1390262 41.6300094,28.448333 C42.8100118,25.7576399 45.4539737,24.015316 48.3803015,24.0000105 Z"/>
      <path fill="#0FCBC9" d="M209.067423,32.8183422 L202.264152,40.4156127 C182.760918,62.1976348 155.058026,74.6236922 126,74.6236922 C96.9419743,74.6236922 69.2390823,62.1976348 49.735848,40.4156127 L42.9325767,32.8183422 C42.2015265,32.0085351 41.6549357,31.0465042 41.3312979,30 C40.554749,32.5152382 41.165271,35.2583535 42.9325767,37.1946501 L49.735848,44.7919205 C69.2390823,66.5739426 96.9419743,79 126,79 C155.058026,79 182.760918,66.5739426 202.264152,44.7919205 L209.067423,37.1946501 C210.834729,35.2583535 211.445251,32.5152382 210.668702,30 C210.345064,31.0465042 209.798474,32.0085351 209.067423,32.8183422 L209.067423,32.8183422 Z"/>
      <path fill="#6EF9F2" d="M49.4219182,30.9478908 L204.578082,30.9478908 C207.516311,30.9199847 210.18449,32.9091207 211.354859,36 C212.380131,33.3646714 212.173447,30.3134379 210.805594,27.8913074 C209.437741,25.469177 207.09438,24.0049104 204.578082,24 L49.4219182,24 C46.9056203,24.0049104 44.5622595,25.469177 43.1944064,27.8913074 C41.8265532,30.3134379 41.6198694,33.3646714 42.6451415,36 C43.8155102,32.9091207 46.4836889,30.9199847 49.4219182,30.9478908 Z"/>
      <path fill="#264575" d="M123.500029,82 C93.6930497,81.9765212 65.2804659,69.3120526 45.2573283,47.1245295 L38.392861,39.5070387 C35.9442138,36.7934112 35.3140814,32.8859052 36.7846045,29.5340993 C38.2551276,26.1822933 41.5508799,24.0139747 45.1961944,24.0000039 L201.760196,24.0000039 C205.413428,23.9966625 208.724945,26.158537 210.206559,29.514085 C211.688173,32.869633 211.06112,36.7875137 208.607197,39.5070387 L201.74273,47.1245295 C181.719592,69.3120526 153.307008,81.9765212 123.500029,82 L123.500029,82 Z M45.1961944,27.5103683 C42.9199092,27.5040252 40.8551301,28.8504244 39.9336251,30.9419796 C39.0121201,33.0335348 39.4081579,35.4747055 40.9430194,37.1638704 L47.8162201,44.7725853 C67.178903,66.2247598 94.6526007,78.4684993 123.473829,78.4896356 C152.295057,78.4684993 179.768754,66.2247598 199.131437,44.7725853 L206.013372,37.1638704 C207.548233,35.4747055 207.944271,33.0335348 207.022766,30.9419796 C206.101261,28.8504244 204.036482,27.5040252 201.760196,27.5103683 L45.1961944,27.5103683 Z"/>
      <polygon fill="#264575" points="197.982 35.08 201.046 35.067 201.035 37.691 197.971 37.704" transform="rotate(-47.85 199.509 36.385)"/>
      <path fill="#264575" d="M129.186711,75 L129.108203,72.3284442 C131.149406,72.2661079 133.216778,72.1414353 135.214365,71.936616 L135.467335,74.6081718 C133.434855,74.8486118 131.306422,74.9376637 129.186711,75 Z M123.76095,75 C121.658686,74.9376637 119.538976,74.8040859 117.445434,74.5992666 L117.698404,71.9277108 C119.730883,72.1236249 121.806978,72.2572027 123.804566,72.319539 L123.76095,75 Z M140.910542,73.9580932 L140.526726,71.2865375 C142.550483,70.9748559 144.582962,70.5830278 146.580549,70.1288633 L147.14755,72.7380828 C145.080178,73.1922472 142.986637,73.5929806 140.910542,73.9580932 Z M112.072012,73.9580932 C109.995917,73.6286014 107.902376,73.227868 105.85245,72.7647983 L106.419451,70.1555788 C108.417038,70.6097433 110.449517,71.0015715 112.473274,71.313253 L112.072012,73.9580932 Z M100.592428,71.4023049 C98.5686711,70.8145626 96.5361915,70.1555788 94.5647736,69.4253536 L95.4370824,66.9140911 C97.3561618,67.6176008 99.3275798,68.2587742 101.298998,68.8287061 L100.592428,71.4023049 Z M152.398849,71.4023049 L151.683556,68.8287061 C153.654974,68.2587742 155.626392,67.6086957 157.545471,66.905186 L158.41778,69.4164484 C156.455085,70.1199581 154.422606,70.7789419 152.398849,71.3666841 L152.398849,71.4023049 Z M89.5053823,67.4127816 C87.5688567,66.5756941 85.6410542,65.6317444 83.7655902,64.6877947 L84.9519302,62.3012048 C86.7663326,63.2451545 88.6505197,64.1356731 90.5347068,64.9727606 L89.5053823,67.4127816 Z M163.485895,67.4127816 L162.465293,64.9549502 C164.340757,64.1445783 166.224944,63.2451545 168.04807,62.2833944 L169.23441,64.6699843 C167.350223,65.6228392 165.413697,66.5400733 163.485895,67.3771608 L163.485895,67.4127816 Z M79.002784,62.06967 C77.1883816,60.9921425 75.3827023,59.8344683 73.6468077,58.6322682 L75.1035635,56.3525406 C76.7958426,57.51912 78.5927988,58.6500786 80.3374165,59.7097957 L79.002784,62.06967 Z M173.997216,62.06967 L172.68003,59.7097957 C174.424647,58.6589838 176.169265,57.5369303 177.913883,56.3614458 L179.379362,58.5699319 C177.617298,59.7543216 175.811618,60.9119958 173.997216,61.9984285 L173.997216,62.06967 Z M69.2416481,55.3284442 C67.5755382,54.0282871 65.9268745,52.6568884 64.3479955,51.2320587 L66.0926132,49.2194866 C67.6278768,50.5997905 69.232925,51.9355684 70.8554195,53.2001048 L69.2416481,55.3284442 Z M183.767075,55.3284442 L182.179473,53.20901 C183.801967,51.9444735 185.407016,50.5997905 186.942279,49.2194866 L188.686897,51.2231535 C187.081849,52.5856469 185.433185,54.0104767 183.767075,55.3106338 L183.767075,55.3284442 Z M60.3615442,47.465165 C59.0443578,46.1382923 57.7446177,44.7936092 56.497216,43.3509691 L56,42.7899424 L57.9365256,41.0089052 L58.4250186,41.5610267 C59.6375278,42.9324254 60.9023756,44.2325825 62.1846696,45.5594552 L60.3615442,47.465165 Z M192.638456,47.465165 L190.806607,45.5594552 C192.080178,44.2771084 193.336303,42.9413305 194.548812,41.5788371 L195.063474,41 L197,42.7810372 L196.485338,43.3598743 C195.237936,44.7490833 193.946919,46.1293871 192.638456,47.4384494 L192.638456,47.465165 Z"/>
      <polygon fill="#264575" points="50.026 34.858 52.65 34.848 52.638 37.912 50.014 37.922" transform="rotate(-42.17 51.332 36.385)"/>
      <rect width="32" height="18" x="112" y="36" fill="#FFF" rx="4.31"/>
      <path fill="#E8EFEF" d="M144,38 L112,38 C112.513815,36.8129618 113.97746,36.0072448 115.633149,36 L140.38453,36 C142.035505,36.0088324 143.492917,36.8150411 144,38 L144,38 Z"/>
      <path fill="#264575" d="M140.014134,56 L115.985866,56 C113.234207,55.9950809 111.004724,53.6734605 111,50.8080851 L111,40.1919149 C111.004724,37.3265395 113.234207,35.0049191 115.985866,35 L140.014134,35 C142.765793,35.0049191 144.995276,37.3265395 145,40.1919149 L145,50.8080851 C144.995276,53.6734605 142.765793,55.9950809 140.014134,56 L140.014134,56 Z M115.985866,37.6808511 C114.656036,37.685753 113.579165,38.8071282 113.574457,40.1919149 L113.574457,50.8080851 C113.579165,52.1928718 114.656036,53.314247 115.985866,53.3191489 L140.014134,53.3191489 C141.343964,53.314247 142.420835,52.1928718 142.425543,50.8080851 L142.425543,40.1919149 C142.420835,38.8071282 141.343964,37.685753 140.014134,37.6808511 L115.985866,37.6808511 Z"/>
      <rect width="11" height="18" x="79" y="34" fill="#FFF" opacity=".35" rx="5.5"/>
      <ellipse cx="67.296" cy="37.65" fill="#FFF" rx="1.248" ry="1.238" transform="rotate(-89.46 67.296 37.65)"/>
      <ellipse cx="63.574" cy="37.614" fill="#FFF" rx="1.248" ry="1.238" transform="rotate(-89.46 63.574 37.614)"/>
      <ellipse cx="59.852" cy="37.587" fill="#FFF" rx="1.248" ry="1.238" transform="rotate(-89.46 59.852 37.587)"/>
      <ellipse cx="71.721" cy="34.227" fill="#FFF" rx="1.248" ry="1.238" transform="rotate(-89.46 71.721 34.227)"/>
      <ellipse cx="68" cy="34.191" fill="#FFF" rx="1.248" ry="1.238" transform="rotate(-89.46 68 34.19)"/>
      <ellipse cx="64.269" cy="34.155" fill="#FFF" rx="1.248" ry="1.238" transform="rotate(-89.46 64.27 34.155)"/>
      <ellipse cx="101.283" cy="38.529" fill="#FFF" rx="1.248" ry="1.238" transform="rotate(-89.46 101.283 38.53)"/>
      <ellipse cx="97.562" cy="38.494" fill="#FFF" rx="1.248" ry="1.238" transform="rotate(-89.46 97.562 38.494)"/>
      <ellipse cx="93.84" cy="38.467" fill="#FFF" rx="1.248" ry="1.238" transform="rotate(-89.46 93.84 38.467)"/>
      <ellipse cx="105.709" cy="35.106" fill="#FFF" rx="1.248" ry="1.238" transform="rotate(-89.46 105.709 35.106)"/>
      <ellipse cx="101.987" cy="35.07" fill="#FFF" rx="1.248" ry="1.238" transform="rotate(-89.46 101.987 35.07)"/>
      <ellipse cx="98.257" cy="35.026" fill="#FFF" rx="1.248" ry="1.238" transform="rotate(-89.46 98.257 35.026)"/>
    </g>
    <g transform="translate(51.594)">
      <ellipse cx="63.5" cy="65" fill="#28DCF0" rx="62.5" ry="63.5"/>
      <path fill="#92CEFF" d="M6.91073374,65.0032756 C6.9109361,31.1581974 33.3420472,3.26141248 67,1.58190329 C65.9650278,1.52949435 64.9213584,1.50328988 63.8689918,1.50328988 C41.1283776,1.27130358 20.0156425,13.3227153 8.57813252,33.0639997 C-2.85937751,52.8052842 -2.85937751,77.1947158 8.57813252,96.9360003 C20.0156425,116.677285 41.1283776,128.728696 63.8689918,128.49671 C64.9170098,128.49671 65.9606792,128.470506 67,128.418097 C33.3445657,126.738713 6.91441252,98.8458211 6.91073374,65.0032756 Z"/>
      <path fill="#3D3634" d="M63.5,128.5 C28.4299184,128.5 4.29484632e-15,99.846224 0,64.5 C-4.29484632e-15,29.153776 28.4299184,0.5 63.5,0.5 C98.5700816,0.5 127,29.153776 127,64.5 C126.960891,99.8298842 98.5538695,128.460583 63.5,128.5 Z M63.5,2.45712689 C29.4988023,2.45712689 1.93538555,30.2375784 1.93538555,64.5065021 C1.93538555,98.7754257 29.4988023,126.555877 63.5,126.555877 C97.5011977,126.555877 125.064614,98.7754257 125.064614,64.5065021 C125.029056,30.2524341 97.4864581,2.49296503 63.5,2.45712689 Z"/>
      <ellipse cx="64" cy="64" fill="#E8E8E8" rx="52" ry="52.5"/>
      <path fill="#DADADA" d="M16.1533994,70.0202828 C16.1616971,47.2337933 30.4441008,27.0313896 51.5600117,19.9377697 C72.6759225,12.8441498 95.8462021,20.4648039 109,38.8296559 C100.062519,21.2705633 82.2830963,10.3290403 62.9690243,10.5020213 C43.6549523,10.6750023 26.0645941,21.9333047 17.4275361,39.6497987 C8.79047821,57.3662927 10.5638278,78.5521329 22.0187432,94.5 C18.1534744,86.9498737 16.1403,78.5476487 16.1533994,70.0202828 Z"/>
      <path fill="#3D3634" d="M61.5 27.5C63.5 27.5 63.5 24.5 61.5 24.5 59.5 24.5 59.5 27.5 61.5 27.5zM66.5 110.5C68.5 110.5 68.5 107.5 66.5 107.5 64.5 107.5 64.5 110.5 66.5 110.5zM105.5 69.5C107.5 69.5 107.5 66.5 105.5 66.5 103.5 66.5 103.5 69.5 105.5 69.5zM21.5 68.5C23.5 68.5 23.5 65.5 21.5 65.5 19.5 65.5 19.5 68.5 21.5 68.5z"/>
      <rect width="6" height="23" x="61" y="44.5" fill="#E8E8E8" rx="3"/>
      <rect width="6" height="23" x="61" y="44.5" fill="#3D3634" rx="3"/>
      <circle cx="63" cy="67.5" r="6" fill="#E8E8E8"/>
      <circle cx="63" cy="66.5" r="6" fill="#3D3634"/>
      <path fill="#3D3634" d="M40.4036881,84.2277597 L85.8107478,54.7247004 L92.2505809,50.5429624 C94.0033184,49.407736 92.3621784,46.6241864 90.5963119,47.7722403 L45.1892522,77.2752996 L38.7494191,81.4570376 C36.9966816,82.592264 38.6378216,85.3758136 40.4036881,84.2277597 Z"/>
      <g opacity=".4" transform="translate(12 11.5)">
        <ellipse cx="52.402" cy="51.712" fill="#55E0FF" opacity=".1" rx="52.363" ry="51.627"/>
        <path fill="#FFF" d="M62.6086957.758742138L9.61956522 81.669434C6.73585482 76.752685 4.64278606 71.4108418 3.4173913 65.8405031L46.0434783.771823899C51.5331016-.128589099 57.1321158-.128589099 62.6217391.771823899L62.6086957.758742138zM77.3608696 6.49509434L19.3695652 91.245283C17.6140682 89.6805798 15.9667838 87.9978658 14.4391304 86.208805L70.7804348 3.87220126C73.0309342 4.59511454 75.2295361 5.47145445 77.3608696 6.49509434zM103.513043 39.683522L103.513043 39.683522 60.2413043 102.927296 60.2413043 102.927296C55.5358957 103.605161 50.761585 103.653551 46.0434783 103.071195L98.3282609 26.6606289C100.648961 30.7400986 102.39387 35.1228784 103.513043 39.683522L103.513043 39.683522z"/>
      </g>
      <path fill="#3D3634" d="M64.5,118.5 C35.5050506,118.5 12,94.7710917 12,65.5 C12,36.2289083 35.5050506,12.5 64.5,12.5 C93.4949494,12.5 117,36.2289083 117,65.5 C116.968162,94.7577679 93.4817512,118.467858 64.5,118.5 L64.5,118.5 Z M64.5,14.4440029 C36.5685651,14.4440029 13.9256633,37.3025514 13.9256633,65.5 C13.9256633,93.6974486 36.5685651,116.555997 64.5,116.555997 C92.4314349,116.555997 115.074337,93.6974486 115.074337,65.5 C115.046038,37.313344 92.4207403,14.4696687 64.5,14.4375229 L64.5,14.4440029 Z"/>
    </g>
    <g transform="rotate(-3 3352.613 76.435)">
      <polyline fill="#5AD7AF" points="85.968 191.133 85.922 209.122 95.189 209.021 95.237 190.389" transform="rotate(-23 90.58 199.756)"/>
      <polygon fill="#463E3B" points="95.009 195.895 95.091 203.399 86.107 202.758 86.125 195.812" opacity=".2" transform="rotate(-23 90.6 199.605)"/>
      <path fill="#FF507D" d="M35.2875085,191.825549 L124.791699,191.601958 C132.171066,191.583524 138.16847,185.677613 138.187274,178.410736 L138.577208,27.7236115 C138.586238,24.2339344 137.18717,20.8907021 134.687783,18.4293875 C132.188396,15.9680728 128.793427,14.590294 125.249729,14.5991465 L35.7455391,14.822737 C33.1374984,14.8292521 31.0178761,16.916539 31.0112302,19.4848226 L30.5772667,187.187057 C30.5706208,189.75534 32.6794679,191.832064 35.2875085,191.825549 L35.2875085,191.825549 Z" transform="rotate(-23 84.577 103.212)"/>
      <path fill="#AC3553" d="M34.5080372,15.9052407 C32.8967567,15.9093452 31.8761262,16.9079779 30.9922427,18.2196759 C31.442385,18.0850742 31.4265112,17.8104026 31.8968704,17.8085664 L122.41804,17.5833577 C129.881254,17.5647899 135.91613,23.4208511 135.897312,30.6632365 L135.507101,180.842515 C135.506804,184.425038 133.990283,187.857701 131.312477,190.337098 C135.517893,187.987514 138.115105,183.637868 138.118268,178.939189 L138.508479,28.7599107 C138.527297,21.5175253 132.492421,15.6614641 125.029207,15.6800319 L34.5080372,15.9052407 Z" opacity=".5" transform="rotate(-23 84.75 103.009)"/>
      <path fill="#463E3B" d="M44.1834772,34.692379 L41.3583762,34.6982576 C38.2421072,34.7047421 35.709441,36.7801391 35.7015078,39.3337866 L35.1834955,206.080317 C35.1796859,207.306622 35.7705087,208.481464 36.8259897,209.34639 C37.8814707,210.211317 39.3151504,210.695478 40.8116356,210.692364 L43.6367366,210.686485 L44.1834772,34.692379 Z" opacity=".2" transform="rotate(-23 39.683 122.692)"/>
      <path fill="#B22F50" d="M124.155447,192.541286 L36.1795079,192.541286 C33.0928526,192.5378 30.5914944,190.039445 30.5880047,186.956495 L30.5880047,19.7669607 C30.5914944,16.6840108 33.0928526,14.1856555 36.1795079,14.1821699 L124.155447,14.1821699 C131.930513,14.1891441 138.231707,20.4827737 138.23869,28.2485059 L138.23869,178.47495 C138.231707,186.240682 131.930513,192.534312 124.155447,192.541286 L124.155447,192.541286 Z M36.1795079,16.0796073 C34.1405912,16.0796073 32.4877226,17.7304917 32.4877226,19.7669607 L32.4877226,186.956495 C32.4877226,188.992964 34.1405912,190.643849 36.1795079,190.643849 L124.155447,190.643849 C130.881328,190.636876 136.331991,185.192757 136.338972,178.47495 L136.338972,28.2485059 C136.331991,21.5306989 130.881328,16.0865796 124.155447,16.0796073 L36.1795079,16.0796073 Z" transform="rotate(-23 84.413 103.362)"/>
      <path fill="#463E3B" d="M114.956204,89.9618618 L110.848288,77.1417454 L104.233743,56.5398519 L104.088164,56.0847371 C103.526588,54.3342934 101.660171,53.3778989 99.914878,53.9462506 L99.4615415,54.0949577 L35.6367186,75.0880888 L35.1833821,75.236796 C34.3429657,75.5121755 33.6442735,76.1118106 33.2413499,76.9034964 C32.8384264,77.6951822 32.7643581,78.6139083 33.0354754,79.4571182 L38.4726772,96.3988801 L43.7642999,112.885527 L43.9098789,113.340642 C44.4741467,115.088508 46.339742,116.04161 48.0831813,115.472713 L112.801918,94.1822002 C113.643503,93.9081403 114.343697,93.3090496 114.747894,92.5172105 C115.152091,91.7253714 115.227045,90.805915 114.956204,89.9618618 L114.956204,89.9618618 Z" opacity=".2" transform="rotate(-23 73.996 84.71)"/>
      <path fill="#FFF" d="M42.5663862,60.2567436 L105.693466,60.1063637 C108.985074,60.0985225 111.659805,62.7605413 111.667647,66.0521491 C111.667669,66.0615394 111.667669,66.0709297 111.667647,66.0803201 L111.59513,97.0107636 C111.587439,100.291376 108.929956,102.948958 105.649344,102.956773 L42.5222649,103.107153 C39.2306571,103.114995 36.5559253,100.452976 36.5480841,97.161368 C36.5480617,97.1519777 36.5480615,97.1425873 36.5480836,97.133197 L36.6206003,66.2027535 C36.6282917,62.9221415 39.2857745,60.2645586 42.5663862,60.2567436 Z" transform="rotate(-35.81 74.108 81.607)"/>
      <path fill="#59598D" d="M68.7744506,115.2587 L52.0931197,118.993864 C50.0426655,119.437862 48.0145919,118.197502 47.5405213,116.209517 L39.9497247,83.3873422 C39.9194069,83.2645603 39.8983498,83.1397406 39.8867215,83.0138791 C43.4416406,85.8194502 47.8041398,87.913078 52.020342,89.6957256 C54.3084133,90.5722209 56.5065464,91.6548309 58.5862367,92.9295168 C63.866105,96.4094411 66.9140901,102.417014 68.0816858,108.522785 C68.4960452,110.745703 68.7276996,112.998133 68.7744506,115.2587 L68.7744506,115.2587 Z" opacity=".05" transform="rotate(-23 54.33 101.049)"/>
      <path fill="#C6C6DD" d="M44.9624702,110.939076 C42.9786736,110.932313 41.2619861,109.547182 40.8221352,107.598395 L33.0043205,72.9843415 C32.4994196,70.682456 33.9317339,68.4011224 36.2126046,67.8743133 L102.102897,52.7550174 C104.388471,52.2426516 106.655413,53.6871333 107.175283,55.9871102 L114.986757,90.6011638 C115.491658,92.9030492 114.059344,95.1843829 111.778473,95.711192 L45.9135426,110.830488 C45.6015193,110.902237 45.2825183,110.938659 44.9624702,110.939076 Z M103.047629,54.5690774 C102.872737,54.5686563 102.698347,54.5879387 102.52771,54.6265652 L36.6310764,69.720311 C35.3652502,70.0121584 34.5716814,71.2798702 34.8557414,72.5563767 L42.6672156,107.17043 C42.9569131,108.44565 44.2152866,109.245108 45.4823898,108.95894 L111.385363,93.8651943 C112.65119,93.5733469 113.444758,92.305635 113.160698,91.0291286 L105.342884,56.4086875 C105.095279,55.3325437 104.144166,54.5702417 103.047629,54.5690774 L103.047629,54.5690774 Z" transform="rotate(-23 73.996 81.795)"/>
      <path fill="#463E3B" d="M109.529667,9.23110483 C109.532586,8.08835401 109.068287,6.9939661 108.239651,6.19043423 C107.411014,5.38690237 106.286462,4.94057695 105.115171,4.95035422 L101.500347,4.95956753 C99.3799747,4.96394083 97.5568072,6.44335054 97.1641212,8.47819923 C96.9124885,9.02678666 96.7818045,9.62033307 96.7805738,10.2202118 L96.3381237,184.669222 C96.3352366,185.807539 96.7959572,186.898053 97.6189322,187.700862 C98.4419071,188.503671 99.5597227,188.953013 100.726472,188.95004 L104.341296,188.940826 C106.9653,188.454665 108.915988,186.280434 109.06107,183.680182 L109.529667,9.23110483 Z" opacity=".2" transform="rotate(-23 102.934 96.95)"/>
      <path fill="#D1AB0D" d="M106.061055,2.62375154 L106.061055,2.62375154 C109.244729,2.61563713 111.832185,5.18993692 111.840299,8.37361106 C111.840324,8.38338202 111.840324,8.39315302 111.840299,8.40292398 L111.403041,180.804809 C111.394913,184.009469 108.799066,186.605349 105.594407,186.613516 L105.594407,186.613516 C102.410733,186.621631 99.8232767,184.047331 99.8151623,180.863657 C99.8151374,180.853886 99.8151373,180.844115 99.8151621,180.834344 L100.25242,8.43245867 C100.260548,5.22779932 102.856395,2.63191944 106.061055,2.62375154 Z" transform="rotate(-23 105.828 94.619)"/>
      <polygon fill="#FFD214" points="110.688 2.638 110.23 183.115 107.913 183.121 108.371 2.625 110.155 2.62" transform="rotate(-23 109.3 92.87)"/>
      <path fill="#A0830D" d="M71.1010765,10.1035362 L72.2598644,10.1005827 L71.1010765,10.1035362 Z" transform="rotate(-23 71.68 10.102)"/>
      <path fill="#88700A" d="M107.574297,186.712557 L104.081165,186.712557 C101.211478,186.709035 98.8860057,184.356022 98.8825252,181.45235 L98.8825252,6.61917259 C98.8859964,3.71799037 101.207629,1.36600509 104.074848,1.3589655 L107.56798,1.3589655 C110.440133,1.35896336 112.769451,3.71300686 112.772936,6.61917259 L112.772936,181.45235 C112.769456,184.356022 110.443983,186.709035 107.574297,186.712557 Z M104.164851,3.40707148 C102.4291,3.41058348 101.022821,4.90297659 101.019512,6.74501547 L101.019512,181.326507 C101.022821,183.168546 102.4291,184.660939 104.164851,184.664451 L107.490611,184.664451 C109.226361,184.660939 110.632641,183.168546 110.63595,181.326507 L110.63595,6.74501547 C110.632654,4.90545946 109.230026,3.41408938 107.496625,3.40707148 L104.164851,3.40707148 Z" transform="rotate(-23 105.828 94.036)"/>
    </g>
    <g transform="rotate(28 -99.13 767.755)">
      <rect width="1.685" height="8.519" x="6.61" fill="#2D415B" rx=".843"/>
      <polyline fill="#59598D" points="2.228 11.99 4.419 5.048 10.655 5.048 12.678 11.99"/>
      <polygon fill="#4B4B77" points="10.149 4.89 8.296 4.89 10.318 11.832 12.172 11.832"/>
      <path fill="#E9FFFF" d="M6.94719101,4.41720991 L4.75617978,11.3585398 L1.89101124,11.3585398 L3.34382022,7.2915515 C3.88146067,5.58777053 5.04775281,4.41720991 6.94719101,4.41720991 Z" opacity=".15"/>
      <path fill="#59598D" d="M12.6775281,11.2007823 L2.18595506,11.2007823 L0.669101124,17.3533246 L2.18595506,114.606089 C2.18595506,117.240639 3.89157303,119.450821 6.19550562,120.064498 C6.27134831,120.085007 6.34719101,120.103937 6.4247191,120.121291 L6.4247191,120.121291 C6.61522927,120.162494 6.80830127,120.192526 7.00280899,120.211213 C7.13539326,120.223833 7.27022472,120.230669 7.40730337,120.231721 L7.45280899,120.231721 C7.58988764,120.231721 7.7247191,120.224885 7.85730337,120.211213 C8.05181109,120.192526 8.24488309,120.162494 8.43539326,120.121291 L8.43539326,120.121291 C8.51292135,120.103937 8.58876404,120.085007 8.66460674,120.064498 C10.9685393,119.450821 12.6741573,117.240639 12.6741573,114.606089 L14.194382,17.3533246 L12.6775281,11.2007823 Z"/>
      <path fill="#E9FFFF" d="M8.78764045,120.121291 L8.78764045,120.121291 C8.71011236,120.103937 8.63426966,120.085007 8.55842697,120.064498 C6.25449438,119.450821 4.5488764,117.240639 4.5488764,114.606089 L3.03202247,17.3533246 L4.5488764,11.2007823 L2.69494382,11.2007823 L1.17808989,17.3533246 L2.69494382,114.606089 C2.69494382,117.240639 4.4005618,119.450821 6.70449438,120.064498 C6.78033708,120.085007 6.85617978,120.103937 6.93370787,120.121291 L6.93370787,120.121291 C7.12421803,120.162494 7.31729003,120.192526 7.51179775,120.211213 C7.64438202,120.223833 7.77921348,120.230669 7.91629213,120.231721 L7.95842697,120.231721 C8.09550562,120.231721 8.23033708,120.224885 8.36292135,120.211213 C8.53280055,120.194555 8.70158828,120.169277 8.86853933,120.135489 L8.78764045,120.121291 Z" opacity=".15"/>
      <path fill="#4B4B77" d="M12.5089888,11.2007823 L9.98089888,11.2007823 L11.4977528,17.3533246 L9.98089888,114.606089 C9.98089888,117.229596 8.29550562,119.43189 6,120.05661 L6.02865169,120.064498 C6.10449438,120.085007 6.18033708,120.103937 6.25786517,120.121291 L6.25786517,120.121291 C6.44837533,120.162494 6.64144734,120.192526 6.83595506,120.211213 C6.96853933,120.223833 7.10337079,120.230669 7.24044944,120.231721 L7.28426966,120.231721 C7.42134831,120.231721 7.55617978,120.224885 7.68876404,120.211213 C7.88327177,120.192526 8.07634377,120.162494 8.26685393,120.121291 L8.26685393,120.121291 C8.34438202,120.103937 8.42022472,120.085007 8.49606742,120.064498 C10.8,119.450821 12.505618,117.240639 12.505618,114.606089 L14.0258427,17.3533246 L12.5089888,11.2007823 Z"/>
      <path fill="#2D415B" d="M2.8752809,11.3790482 L1.58258427,11.0209387 L2.90224719,6.82616688 C3.50854401,4.93387042 5.36583498,3.63545816 7.47640449,3.62842243 L7.52865169,3.62842243 C9.67666578,3.63194032 11.5579487,4.9771693 12.1264045,6.91608866 L13.3264045,11.0351369 L12.0252809,11.3680052 L10.8235955,7.2473794 C10.4161876,5.85843705 9.06911263,4.89437151 7.53033708,4.8904824 L7.47808989,4.8904824 C5.96571959,4.89653906 4.63516728,5.82693266 4.2,7.18269883 L2.8752809,11.3790482 Z"/>
      <rect width="13.247" height="1.578" x=".801" y="24.982" fill="#5AD7AF"/>
      <path fill="#2D415B" d="M7.45280899,120.864329 L6.73651685,120.864329 L6.73651685,120.815424 C6.60674157,120.79807 6.47865169,120.777562 6.35393258,120.752321 L6.35393258,120.752321 L6.27303371,120.734967 C6.18539326,120.716037 6.10449438,120.69395 6.01348315,120.670287 C3.36741573,119.965111 1.51685393,117.470965 1.51685393,114.606089 L1.42108547e-14,17.2854889 L1.65,10.5697523 L13.2134831,10.5697523 L14.8685393,17.2854889 L13.3516854,114.621864 C13.3516854,117.478853 11.4977528,119.972999 8.85337079,120.678175 C8.76910112,120.700261 8.68483146,120.722347 8.59550562,120.741278 L8.51123596,120.758631 C8.38483146,120.783872 8.25674157,120.805958 8.12865169,120.821734 L8.12865169,120.869061 L7.45280899,120.864329 Z M6.54269663,119.498149 L6.57977528,119.498149 C6.7430733,119.5335 6.90856088,119.559317 7.0752809,119.57545 C7.18483146,119.586493 7.2994382,119.591226 7.41235955,119.592803 L7.45280899,119.592803 C7.57078652,119.592803 7.68539326,119.592803 7.78988764,119.57545 C7.95661116,119.559341 8.12210034,119.533524 8.28539326,119.498149 L8.34101124,119.485528 L8.48258427,119.449244 C10.5573034,118.897093 12.0050562,116.90146 12.0050562,114.596623 L13.5219101,17.4180052 L12.141573,11.8318123 L2.72191011,11.8318123 L1.34325843,17.4211604 L2.86011236,114.599778 C2.86011236,116.914081 4.30786517,118.908136 6.38089888,119.460287 L6.54269663,119.498149 Z"/>
      <path fill="#FFF" d="M4.80337079 75.4869622L4.98707865 86.1135072 5.28033708 103.059817 5.34775281 106.959583C5.34775281 107.264055 5.85337079 107.264055 5.85337079 106.959583L5.66966292 96.3330378 5.37640449 79.3867275 5.30898876 75.4869622C5.30898876 75.1824902 4.80337079 75.1824902 4.80337079 75.4869622zM4.5 57.9758801L4.7241573 70.9119948C4.7241573 71.2164668 5.22977528 71.2164668 5.22977528 70.9119948L5.00561798 57.9758801C5.00561798 57.6714081 4.5 57.6714081 4.5 57.9758801zM4.17640449 39.2043155L4.42247191 53.4498175 4.45786517 55.4517601C4.45786517 55.7562321 4.96348315 55.7562321 4.96348315 55.4517601L4.71741573 41.2062581 4.68202247 39.2043155C4.68202247 38.8998435 4.17640449 38.8998435 4.17640449 39.2043155zM3.99775281 28.8696219L4.13089888 36.5997392C4.13089888 36.9042112 4.63651685 36.9042112 4.63651685 36.5997392L4.50337079 28.8696219C4.50337079 28.5651499 3.99775281 28.5651499 3.99775281 28.8696219z"/>
    </g>
    <g transform="rotate(32 -23.776 581.422)">
      <rect width="10" height="128" x="5.88" y=".587" fill="#FF507D" rx="5"/>
      <path fill="#D3325B" d="M10.6970101,1.01796707 L10.6970101,1.01796707 C10.4676109,1.0181473 10.2385841,1.04009363 10.0120786,1.08360014 C12.1039365,1.48642701 13.6421723,3.64876246 13.6422156,6.18657172 L13.6422156,122.849362 C13.6415995,125.386919 12.1036373,127.54887 10.0120786,127.952334 C10.2385841,127.99584 10.4676109,128.017787 10.6970101,128.017967 L10.6970101,128.017967 C13.0801566,128.017967 15.0120786,125.703904 15.0120786,122.849362 L15.0120786,6.18657172 C15.0120786,3.33203019 13.0801566,1.01796707 10.6970101,1.01796707 Z"/>
      <path fill="#FDAABF" d="M9.892611,128.596664 L9.892611,128.596664 C10.1220102,128.596482 10.351037,128.574363 10.5775425,128.530514 C8.48568464,128.124515 6.94744878,125.945153 6.94740552,123.387361 L6.94740552,5.80596586 C6.94802157,3.24842856 8.48598386,1.06945444 10.5775425,0.662813406 C10.351037,0.618964326 10.1220102,0.596845186 9.892611,0.596663535 L9.892611,0.596663535 C7.50946448,0.596663535 5.57754251,2.92894763 5.57754251,5.80596586 L5.57754251,123.387361 C5.57754251,126.264379 7.50946448,128.596664 9.892611,128.596664 Z"/>
      <path fill="#621E2F" d="M10.574407,129.221834 C7.53829763,129.218189 5.07792103,126.665763 5.07440701,123.516065 L5.07440701,5.92760332 C5.07440701,2.77639399 7.53684088,0.221834087 10.574407,0.221834087 C13.6119731,0.221834087 16.074407,2.77639399 16.074407,5.92760332 L16.074407,123.516065 C16.070893,126.665763 13.6105164,129.218189 10.574407,129.221834 Z M10.574407,1.21414178 C8.06620595,1.21687645 6.0335648,3.32556397 6.03092875,5.92760332 L6.03092875,123.516065 C6.0309288,126.119238 8.06511329,128.229526 10.574407,128.229526 C13.0837007,128.229526 15.1178852,126.119238 15.1178853,123.516065 L15.1178853,5.92760332 C15.1152492,3.32556397 13.0826081,1.21687645 10.574407,1.21414178 Z"/>
      <path fill="#621E2F" d="M5.66837431,48.205856 L5.12783377,48.205856 C2.66494231,48.205856 0.668374306,45.7642902 0.668374306,42.7524661 L0.668374306,14.6592458 C0.668374306,11.6474218 2.66494231,9.20585597 5.12783377,9.20585597 L5.66837431,9.20585597 L5.66837431,48.205856 Z M4.58729322,10.5807712 C2.95135686,10.9050377 1.74931786,12.6325802 1.74945539,14.6592458 L1.74945539,42.7524661 C1.74931786,44.7791317 2.95135686,46.5066742 4.58729322,46.8309407 L4.58729322,10.5807712 Z"/>
      <rect width="9" height="1" x="5.512" y="11.528" fill="#621E2F"/>
      <rect width="10" height="1" x="5.646" y="43.701" fill="#621E2F"/>
    </g>
    <g transform="rotate(-12 680.676 -1052.88)">
      <rect width="10" height="128" x="5.88" y=".587" fill="#5AD7AF" rx="5"/>
      <path fill="#49B08F" d="M10.6970101,1.01796707 L10.6970101,1.01796707 C10.4676109,1.0181473 10.2385841,1.04009363 10.0120786,1.08360014 C12.1039365,1.48642701 13.6421723,3.64876246 13.6422156,6.18657172 L13.6422156,122.849362 C13.6415995,125.386919 12.1036373,127.54887 10.0120786,127.952334 C10.2385841,127.99584 10.4676109,128.017787 10.6970101,128.017967 L10.6970101,128.017967 C13.0801566,128.017967 15.0120786,125.703904 15.0120786,122.849362 L15.0120786,6.18657172 C15.0120786,3.33203019 13.0801566,1.01796707 10.6970101,1.01796707 Z"/>
      <path fill="#A9F9DF" d="M9.892611,128.596664 L9.892611,128.596664 C10.1220102,128.596482 10.351037,128.574363 10.5775425,128.530514 C8.48568464,128.124515 6.94744878,125.945153 6.94740552,123.387361 L6.94740552,5.80596586 C6.94802157,3.24842856 8.48598386,1.06945444 10.5775425,0.662813406 C10.351037,0.618964326 10.1220102,0.596845186 9.892611,0.596663535 L9.892611,0.596663535 C7.50946448,0.596663535 5.57754251,2.92894763 5.57754251,5.80596586 L5.57754251,123.387361 C5.57754251,126.264379 7.50946448,128.596664 9.892611,128.596664 Z"/>
      <path fill="#385868" d="M10.574407,129.221834 C7.53829763,129.218189 5.07792103,126.665763 5.07440701,123.516065 L5.07440701,5.92760332 C5.07440701,2.77639399 7.53684088,0.221834087 10.574407,0.221834087 C13.6119731,0.221834087 16.074407,2.77639399 16.074407,5.92760332 L16.074407,123.516065 C16.070893,126.665763 13.6105164,129.218189 10.574407,129.221834 Z M10.574407,1.21414178 C8.06620595,1.21687645 6.0335648,3.32556397 6.03092875,5.92760332 L6.03092875,123.516065 C6.0309288,126.119238 8.06511329,128.229526 10.574407,128.229526 C13.0837007,128.229526 15.1178852,126.119238 15.1178853,123.516065 L15.1178853,5.92760332 C15.1152492,3.32556397 13.0826081,1.21687645 10.574407,1.21414178 Z"/>
      <path fill="#385868" d="M5.66837431,48.205856 L5.12783377,48.205856 C2.66494231,48.205856 0.668374306,45.7642902 0.668374306,42.7524661 L0.668374306,14.6592458 C0.668374306,11.6474218 2.66494231,9.20585597 5.12783377,9.20585597 L5.66837431,9.20585597 L5.66837431,48.205856 Z M4.58729322,10.5807712 C2.95135686,10.9050377 1.74931786,12.6325802 1.74945539,14.6592458 L1.74945539,42.7524661 C1.74931786,44.7791317 2.95135686,46.5066742 4.58729322,46.8309407 L4.58729322,10.5807712 Z"/>
      <rect width="10" height="1" x="5.512" y="11.528" fill="#385868"/>
      <rect width="10" height="1" x="5.214" y="43.428" fill="#385868"/>
    </g>
  </g>
</svg>
