<svg height="40" viewBox="0 0 40 40" width="40" xmlns="http://www.w3.org/2000/svg"><path d="m31.5555556 7h-23.11111116c-.79774463 0-1.44444444.64669981-1.44444444 1.44444444v23.11111116c0 .7977446.64669981 1.4444444 1.44444444 1.4444444h12.44388886v-10.0533333h-3.3763889v-3.9361111h3.3763889v-2.8888889c0-3.3583334 2.0511111-5.1891667 5.0555556-5.1891667 1.0107683-.0029539 2.0209538.0488814 3.0261111.1552778v3.4955555h-2.0727778c-1.6286111 0-1.9463889.7763889-1.9463889 1.9138889v2.5061111h3.8963889l-.5055555 3.9361111h-3.3908334v10.0605556h6.6047223c.7977446 0 1.4444444-.6466998 1.4444444-1.4444444v-23.11111116c0-.79774463-.6466998-1.44444444-1.4444444-1.44444444z" fill="#1e1169"/></svg>