<?xml version="1.0" encoding="UTF-8"?>
<svg width="40px" height="40px" viewBox="0 0 40 40" version="1.1" xmlns="http://www.w3.org/2000/svg" xmlns:xlink="http://www.w3.org/1999/xlink">
    <title>icone/40x40/message_40_purple</title>
    <g id="icone/40x40/message_40_purple" stroke="none" stroke-width="1" fill="none" fill-rule="evenodd">
        <g id="noun_Mail_2392580" transform="translate(8.000000, 11.000000)" fill="#1E1169" fill-rule="nonzero">
            <path d="M21.5234373,0 L2.47656267,0 C1.10942298,0.00154963213 0.00151519586,1.13463714 0,2.53284818 L0,15.4671518 C0.00151519586,16.8653629 1.10942298,17.9984504 2.47656267,18 L21.5234373,18 C22.890577,17.9984504 23.9984848,16.8653629 24,15.4671518 L24,2.53284818 C23.9984848,1.13463714 22.890577,0.00154963213 21.5234373,0 Z M22.6666667,2.53284818 L22.6666667,15.4671518 C22.6654467,15.5296366 22.6592852,15.591918 22.6482427,15.6533864 L16.1428053,9.00010091 L22.6482667,2.34661364 C22.6593012,2.40808268 22.6654546,2.47036407 22.6666667,2.53284818 Z M21.5234373,1.36363636 C21.5845382,1.36487603 21.6454409,1.37116928 21.7055493,1.38245455 L13.0673173,10.2171518 C12.477416,10.8188026 11.5227147,10.8188026 10.9328133,10.2171518 L2.29445067,1.38245455 C2.35455923,1.37117006 2.41546184,1.36487681 2.47656267,1.36363636 L21.5234373,1.36363636 Z M1.35175733,15.6533864 C1.34071477,15.591918 1.33455334,15.5296366 1.33333333,15.4671518 L1.33333333,2.53284818 C1.3345454,2.47036407 1.34069881,2.40808268 1.35173333,2.34661364 L7.85724267,9.00004909 L1.35175733,15.6533864 Z M2.47656267,16.6363636 C2.41546184,16.6351232 2.35455923,16.6288299 2.29445067,16.6175455 L8.799952,9.96418364 L9.98997333,11.1812864 C11.1008664,12.3148069 12.8992643,12.3148069 14.0101573,11.1812864 L15.2001147,9.96418364 L21.7055493,16.6175455 C21.6454408,16.6288299 21.5845382,16.6351232 21.5234373,16.6363636 L2.47656267,16.6363636 Z" id="Shape"></path>
        </g>
    </g>
</svg>