<svg height="40" viewBox="0 0 40 40" width="40" xmlns="http://www.w3.org/2000/svg"><path d="m21.5234373 0h-19.04687463c-1.36713969.00154963-2.47504747 1.13463714-2.47656267 2.53284818v12.93430362c.0015152 1.3982111 1.10942298 2.5312986 2.47656267 2.5328482h19.04687463c1.3671397-.0015496 2.4750475-1.1346371 2.4765627-2.5328482v-12.93430362c-.0015152-1.39821104-1.109423-2.53129855-2.4765627-2.53284818zm1.1432294 2.53284818v12.93430362c-.00122.0624848-.0073815.1247662-.018424.1862346l-6.5054374-6.65328549 6.5054614-6.65348727c.0110345.06146904.0171879.12375043.0184.18623454zm-1.1432294-1.16921182c.0611009.00123967.1220036.00753292.182112.01881819l-8.638232 8.83469725c-.5899013.6016508-1.5446026.6016508-2.134504 0l-8.63836263-8.83469725c.06010856-.01128449.12101117-.01757774.182112-.01881819zm-20.17167997 14.28975004c-.01104256-.0614684-.01720399-.1237498-.018424-.1862346v-12.93430362c.00121207-.06248411.00736548-.1247655.0184-.18623454l6.50550934 6.65343545zm1.12480534.9829772c-.06110083-.0012404-.12200344-.0075337-.182112-.0188181l6.50550133-6.65336186 1.19002133 1.21710276c1.11089307 1.1335205 2.90929097 1.1335205 4.02018397 0l1.1899574-1.21710276 6.5054346 6.65336186c-.0601085.0112844-.1210111.0175777-.182112.0188181z" fill="#1e1169" transform="translate(8 11)"/></svg>