<svg height="40" viewBox="0 0 40 40" width="40" xmlns="http://www.w3.org/2000/svg"><path d="m8.17648 20.136941c9.81136 0 15.17776-7.7478867 15.17776-14.46681919 0-.22006536 0-.43913944-.0156-.65722223 1.0439846-.71976157 1.9451697-1.61095833 2.66136-2.63186274-.9735658.41118694-2.0063376.68084321-3.06384.79996732 1.1135737-.63543173 1.9470085-1.63485566 2.3452-2.81227669-1.0471162.59224873-2.1926881 1.0096361-3.38728 1.23415033-1.6535139-1.67587278-4.2809319-2.08604853-6.4089488-1.00052426-2.1280168 1.08552428-3.2274052 3.39678397-2.6816912 5.63775737-4.28906843-.20494871-8.28518519-2.13589959-10.99384-5.31229847-1.41583233 2.32322081-.6926526 5.29530733 1.65152 6.78733115-.84890915-.02398162-1.67930945-.24225709-2.42112-.63640523v.06443356c.00069486 2.42031547 1.79062155 4.50493138 4.2796 4.98418298-.78533562.2041454-1.60931619.2339873-2.40864.0872331.69882585 2.0712144 2.70147754 3.4901017 4.98368 3.5309586-1.88891556 1.4149925-4.22233811 2.1831354-6.6248 2.1808279-.42442029-.0007766-.84842777-.0252703-1.26984-.0733551 2.43946139 1.4921587 5.27790994 2.283641 8.17648 2.2799564" fill="#1e1169" transform="translate(7 10)"/></svg>