<svg height="40" viewBox="0 0 40 40" width="40" xmlns="http://www.w3.org/2000/svg" xmlns:xlink="http://www.w3.org/1999/xlink"><mask id="a" fill="#fff"><path d="m0 0h25.991v25.992h-25.991z" fill="#fff" fill-rule="evenodd"/></mask><path d="m18.9501527 15.5759886c-.3233556-.1610024-1.9130787-.9395202-2.2095035-1.0469786-.2964249-.1073967-.5119953-.1610642-.7275657.1610024-.2155704.32219-.8352267 1.0471021-1.0239284 1.2619572-.1885775.2146698-.3772172.241658-.7005107.0805321-.3234177-.1611259-1.3653413-.5009169-2.6004344-1.5974252-.9613174-.8533064-1.6102625-1.9071402-1.79890212-2.2293919-.18857757-.3221283-.02004296-.4962851.14185202-.6567934.1454511-.1442043.3233556-.3759192.4850024-.5637862.1617088-.1879288.2155704-.3222518.3233556-.5368599.1077852-.2148551.0539236-.4027838-.0269308-.56384795-.0808544-.16106413-.7275656-1.7452114-.9969976-2.38965321-.2624821-.62739667-.52905967-.54241805-.72756563-.5524228-.18839141-.00932542-.40421003-.01130166-.61971838-.01130166-.21557041 0-.56591886.08053206-.86228162.40266033-.29642482.32225178-1.13177566 1.10083135-1.13177566 2.68485509 0 1.5840855 1.15870644 3.1143183 1.32041527 3.3291117.16164678.2148551 2.28011932 3.4654109 5.52391412 4.8594679.7714988.3315772 1.3738424.5296342 1.8433938.6778527.7746634.2450547 1.4795799.2104703 2.0366873.1275915.6212697-.0923896 1.9131408-.7785178 2.1826349-1.5302328.2694319-.7518385.2694319-1.3961568.1885775-1.5303563-.0807923-.1342613-.2963627-.2148551-.6197184-.375981m-5.9000763 8.017696h-.0043437c-1.9300811-.0007411-3.823179-.5167886-5.47470645-1.4921901l-.39273031-.2320237-4.07107876 1.0628503 1.08660144-3.9503943-.25571838-.4050071c-1.07673508-1.7044513-1.64538425-3.6743373-1.64457842-5.6971496.00235885-5.90243233 4.82768582-10.70446559 10.76083618-10.70446559 2.873031.00098813 5.5737422 1.11602376 7.6045967 3.13951544 2.0307923 2.02342993 3.1485441 4.71316385 3.14749 7.57353445-.0024208 5.9029264-4.8277478 10.7053302-10.7563683 10.7053302m9.1544821-19.8164466c-2.4433174-2.43455106-5.6926349-3.77586698-9.1546062-3.77722565-7.13312175 0-12.9386301 5.77749644-12.94148452 12.87889315-.00093079 2.2700902.59495943 4.4858337 1.72747971 6.4391686l-1.83594749 6.6742185 6.86040095-1.7910974c1.89024344 1.0261046 4.01845825 1.5669787 6.18440095 1.5677198h.0052745.000062c7.1323771 0 12.9384439-5.778114 12.9412993-12.879696.0013022-3.44144893-1.3435618-6.67749168-3.7868792-9.111981" fill="#1e1169" fill-rule="evenodd" mask="url(#a)" transform="translate(7 7)"/></svg>