<?xml version="1.0" encoding="UTF-8"?>
<svg width="32px" height="32px" viewBox="0 0 32 32" version="1.1" xmlns="http://www.w3.org/2000/svg" xmlns:xlink="http://www.w3.org/1999/xlink">
    <title>icone/32x32/devoirsfaits_32_deepgreen</title>
    <g id="icone/32x32/devoirsfaits_32_deepgreen" stroke="none" stroke-width="1" fill="none" fill-rule="evenodd">
        <g id="Group-2" transform="translate(2.000000, 3.000000)">
            <path d="M14.1572976,1.02098161 C14.1572976,1.02098161 19.1092784,0.011001957 25.1966612,1.15850607 C25.9789003,4.63182388 26.1461301,3.75386771 27.8239285,4.96078239 C27.686404,8.90498396 24.4485281,21.211773 24.4485281,21.211773 C24.4485281,21.211773 13.4520721,19.6781002 10.5882627,18.3699675 C12.1516408,11.6818779 14.1572976,1.02098161 14.1572976,1.02098161 Z" id="Path" fill="#FFFFFF" fill-rule="nonzero"></path>
            <g id="Group" transform="translate(9.857733, 0.000000)">
                <path d="M15.2278086,3.23787593 C15.280618,2.78349511 15.3202251,2.36982153 15.3400286,2.01665871 C14.2860411,1.39504814 12.4322114,1.06829002 9.94576909,1.06829002 C7.74757809,1.06829002 5.63850294,1.32463562 4.81555656,1.43685558 C4.80125402,1.51716986 4.78255069,1.61288689 4.76054678,1.71630529 L4.97508494,1.72840744 C5.29414169,1.74491037 11.137281,2.08817143 15.2278086,3.23787593 Z" id="Path"></path>
                <path d="M12.6621523,17.6889464 C13.0604231,15.7801069 14.4994791,8.72565206 15.0968853,4.29736439 C11.7335871,3.32699178 2.90891742,11.5817601 1.55017574,17.2235636 C2.47434012,17.1850568 3.41390724,17.164153 4.35457456,17.164153 C8.37689003,17.1630529 11.4893437,17.5283178 12.6621523,17.6889464 Z" id="Path"></path>
                <path d="M13.4916998,18.8958611 L12.992211,18.8144466 C12.9581049,18.8089456 9.38356909,18.2291425 4.35457456,18.2291425 C3.57453582,18.2291425 2.79779765,18.2500462 2.02436008,18.2764509 C5.30184306,19.2853304 12.323292,20.3437186 14.1969253,20.6165671 C14.7657264,18.4150756 17.1784556,8.8961824 17.4193985,5.23693151 C17.062935,5.01799257 16.6206564,4.81775695 16.1211675,4.63292407 C15.4148419,9.77633895 13.6864345,17.9782979 13.5973186,18.400773 L13.4916998,18.8958611 Z" id="Path"></path>
                <path d="M18.2709499,4.52730529 C17.7659601,4.16094012 17.0662356,3.84078317 16.258692,3.55913308 C16.3412067,2.85610803 16.3962165,2.24109863 16.4138196,1.75261174 L16.4237213,1.46656086 L16.1915801,1.30043131 C14.9956673,0.437877887 12.8920932,-3.9086803e-15 9.94466889,-3.9086803e-15 C7.05335461,-3.9086803e-15 4.40078278,0.418074364 4.28746263,0.436777691 L3.92439805,0.493987867 L3.85068493,0.855952251 C3.83198161,0.950569081 2.07826967,9.66631938 0.589704893,16.1981812 C0.430176517,16.8395953 0.280549902,17.4689073 0.138624658,18.0751151 L0,18.5867061 C0,18.5867061 0.236542075,18.7231303 0.511590999,18.8551538 C3.47881879,20.2689053 14.0649018,21.6760556 14.5170822,21.7387668 L14.9835652,21.8025781 L15.1034865,21.3459969 C15.2344098,20.8421073 18.3578654,8.93578944 18.4931894,4.97838552 L18.5030912,4.69233464 L18.2709499,4.52730529 Z M4.75944658,1.71630529 C4.78145049,1.61288689 4.80015382,1.51606967 4.81445636,1.43685558 C5.63740274,1.32353542 7.74647789,1.06829002 9.94466889,1.06829002 C12.4322114,1.06829002 14.2849409,1.39394795 15.3389284,2.01665871 C15.3191249,2.37092172 15.2795178,2.78349511 15.2267084,3.23787593 C15.190402,3.57013503 13.0593229,15.7801069 12.6610521,17.6889464 C11.4893437,17.5283178 8.37578983,17.1630529 4.35347437,17.1630529 C3.41390724,17.1630529 2.47323992,17.1850568 1.54907554,17.2224634 C1.51606967,17.2246638 4.30286537,3.9607045 4.75944658,1.71630529 Z M14.1969253,20.6154669 C12.323292,20.3426184 5.30074286,19.2842302 2.02436008,18.2753507 C2.79779765,18.248946 3.57453582,18.2280423 4.35457456,18.2280423 C9.38246889,18.2280423 12.9570047,18.8078454 12.992211,18.8133464 L13.4916998,18.8947609 L13.5984188,18.3974724 C13.6875347,17.9760975 15.4159421,9.77303836 16.1222677,4.62962349 C16.6217566,4.81445636 17.062935,5.01469198 17.4204986,5.23363092 C17.1784556,8.8961824 14.7657264,18.4139754 14.1969253,20.6154669 Z" id="Shape" fill="#083F3F" fill-rule="nonzero"></path>
            </g>
            <polygon id="Path" fill="#FFFFFF" fill-rule="nonzero" points="16.3433864 4.12903445 21.8883727 4.22365128 21.3459762 7.03905206 16.0573355 6.77060431"></polygon>
            <path d="M21.6419289,7.31410099 L21.4251903,7.3097002 C21.2480588,7.30529942 17.0838181,7.20408142 16.0331312,7.00164541 L15.8306952,6.96203836 L15.8163927,6.75520157 C15.7679841,5.88164619 16.1211469,4.1675413 16.1365496,4.09602858 L16.1750565,3.9100955 L16.3598894,3.8858912 C16.4192999,3.87818983 17.7890436,3.69665754 19.2765081,3.69665754 C20.4713207,3.69665754 21.3921845,3.81657887 22.0148952,4.04872016 L22.2008283,4.11913268 L22.1865258,4.31716791 C22.1348166,5.09830685 21.7090408,7.02144893 21.6881371,7.10176322 L21.6419289,7.31410099 Z M16.3433864,6.51205832 C17.4490831,6.65948455 20.3921066,6.7486004 21.2205539,6.77060431 C21.3217719,6.29531977 21.5627148,5.14231468 21.6386283,4.48329746 C21.0786287,4.31276713 20.287588,4.22915225 19.2776083,4.22915225 C18.1378056,4.22915225 17.0464115,4.34137222 16.6184353,4.38978083 C16.5381211,4.80895539 16.3543884,5.83873856 16.3433864,6.51205832 Z" id="Shape" fill="#083F3F" fill-rule="nonzero"></path>
            <g id="Group-10" transform="translate(10.845481, 16.150946) rotate(47.000000) translate(-10.845481, -16.150946) translate(4.496127, 7.242491)" fill-rule="nonzero">
                <path d="M6.94235039,17.7872055 C7.12388268,17.7960071 7.29881379,17.8147104 7.48804745,17.8147104 C8.83248659,17.8147104 9.84356644,17.5869699 9.88647407,17.575968 L10.1263167,17.5231586 L10.2396369,17.3053198 C10.5696956,16.6782083 13.422503,11.1024165 12.5247433,8.49055191 C11.7634079,6.2681566 8.77417622,5.99420788 7.44403963,5.98540631 C7.54415743,4.95562314 7.72678992,2.85204897 7.69488425,1.41519339 C7.67288033,0.532836442 6.92584745,0.0685538584 6.23712495,0.00914329085 C5.11492534,-0.0909745175 4.59343258,0.654958164 4.45370773,1.0807339 L3.4635316,7.64340122 C3.04545724,7.10320514 2.46015312,5.66854995 1.69551712,5.52112373 C0.91767876,5.37149711 0.502904982,5.75216482 0.204751949,6.32206619 C0.0364220073,6.64112294 0.0276204417,6.94917774 0.0276204417,6.99978674 C0.0276204417,7.1131069 0.233357037,9.71837031 0.775753515,11.7218267 C1.32805175,13.7593891 3.22148855,16.6474028 3.32160635,16.7717249 L3.3876181,16.8520392 L3.47563375,16.9026482 C4.16875704,17.2910173 4.98510225,17.5429621 5.8905633,17.6826869" id="Path" fill="#FFFFFF"></path>
                <path d="M12.4961383,8.4916521 C11.7337026,6.2692568 8.74447094,5.99530807 7.41653473,5.98650651 C7.51555235,4.95672333 7.69928503,2.85314916 7.66627916,1.41629359 C7.64537544,0.533936638 6.89724237,0.0696540541 6.20851986,0.0102434865 C5.08522005,-0.0898743218 4.56592769,0.65605836 4.42400244,1.08183409 L3.43602671,7.64450142 C3.01905254,7.10430533 2.43044784,5.66965015 1.66801222,5.52222392 C0.889073671,5.37259731 0.47540009,5.75326502 0.177247056,6.32316639 C0.00671672351,6.64222314 3.5792925e-06,6.95027794 3.5792925e-06,7.00088694 C-0.000984646359,7.11420709 0.202551557,9.7194705 0.746048231,11.7229269 C1.29724627,13.7604893 3.19508385,16.648503 3.29300127,16.7728251 L3.35791281,16.8531394 L3.44922906,16.9037484 C4.13905176,17.2921175 4.95649716,17.5440623 5.86305841,17.6837871 C5.8905633,17.6837871 6.91814608,17.8169108 6.91814608,17.7894059 C7.10077857,17.7982075 7.2724091,17.8169108 7.46164276,17.8169108 C8.80718209,17.8169108 9.82046233,17.5891703 9.86116957,17.5781684 L10.1010122,17.525359 L10.2154326,17.3075202 C10.5388901,16.6793085 13.3905974,11.1035167 12.4961383,8.4916521 Z M9.38808542,16.5857918 C9.0360228,16.6474028 8.31759501,16.749721 7.45834217,16.749721 C6.10400127,16.749721 4.95759735,16.5032772 4.0510361,16.0202913 C3.67476917,15.5417061 2.2115089,13.0893699 1.76592964,11.4412768 C1.26314021,9.58524663 1.05850381,7.04269437 1.05520322,7.01738987 C1.01559618,6.72363762 1.15202044,6.57401101 1.24993786,6.54870651 C1.53268815,6.47939418 1.5975997,6.65872608 1.67901418,6.76214447 C2.032177,7.21212451 2.56577191,8.33762471 3.21598757,9.4125159 C3.21598757,9.4125159 3.51194021,9.95381218 3.77708737,9.92080631 C4.10604589,9.87899888 4.20176291,9.4378204 4.20176291,9.4378204 L5.43948307,1.39538987 C5.49119227,1.28867088 5.67932573,1.03562587 6.11500323,1.07193233 C6.1975179,1.07853351 6.59688894,1.12914251 6.60238992,1.44159809 C6.64529755,3.29432764 6.30203649,6.44418792 6.29763571,6.47719379 L6.26903062,6.73353938 C6.26903062,6.73353938 6.23822514,6.93047441 6.29213473,7.00748811 C6.37024863,7.1120067 6.49567094,7.09550377 6.49567094,7.09550377 L6.86533669,7.06689868 C6.87633865,7.06689868 7.05897113,7.05259613 7.34612221,7.05259613 C8.17456957,7.05259613 10.9250588,7.18131903 11.4927598,8.84151434 C12.0978674,10.6040278 10.2770435,14.8265789 9.38808542,16.5857918 Z" id="Shape" fill="#083F3F"></path>
            </g>
        </g>
    </g>
</svg>