<svg xmlns="http://www.w3.org/2000/svg" width="24" height="19" viewBox="0 0 24 19">
  <path fill="#1E1169" d="M4.1999997,0 C1.88361,0 0,1.883598 0,4.199988 L0,13.799985 C0,16.116405 1.88361,18.000015 4.1999997,18.000015 L19.7999997,18.000015 C22.11639,18.000015 24,16.116405 24,13.799985 L24,4.199988 C24,1.883598 22.11639,0 19.7999997,0 L4.1999997,0 Z M4.2,1.199988 L19.7999997,1.199988 C21.4723497,1.199988 22.7999985,2.527638 22.7999985,4.199988 L22.7999985,13.799985 C22.7999985,15.472365 21.4723497,16.800015 19.7999997,16.800015 L4.2,16.800015 C2.5276497,16.800015 1.2,15.472365 1.2,13.799985 L1.2,4.199988 C1.2,2.527638 2.5276497,1.199988 4.2,1.199988 Z M9.2624997,4.499988 C8.94587103,4.51984539 8.69940939,4.78273782 8.69998907,5.099988 L8.69998907,12.899985 C8.69818498,13.2073273 8.92888779,13.4663546 9.23439,13.499985 C9.35397608,13.5133789 9.47482682,13.490509 9.5812497,13.434345 L16.7812497,9.534345 C16.9770119,9.43013023 17.0993325,9.22643864 17.0993325,9.004665 C17.0993325,8.78289136 16.9770119,8.57919977 16.7812497,8.474985 L9.5812497,4.574988 C9.48400766,4.52092035 9.37364816,4.49495341 9.2624997,4.499988 L9.2624997,4.499988 Z M9.8999997,6.112488 L15.2437497,8.999985 L9.8999997,11.896845 L9.8999997,6.112488 Z" transform="translate(0 .3)"/>
</svg>
