<svg height="32" viewBox="0 0 32 32" width="32" xmlns="http://www.w3.org/2000/svg"><path d="m21.3756522 8.02956522-9.5817392-7.56782609c-.4930434-.38869565-1.1817391-.38869565-1.6747826 0l-9.5817391 7.56782609c-.33913043.26869565-.39652173.75913043-.12782608 1.09826087.26869565.33913043.75913043.39652174 1.09826087.12782608l1.12956521-.89217391v8.29304344c0 .7330435.59478261 1.3278261 1.32782609 1.3278261h4.64347826c.43304348 0 .7826087-.3495652.7826087-.7826087 0-.4330434-.34956522-.7826087-.7826087-.7826087h-4.40608695v-9.05217388c0-.07565217-.01304348-.14608695-.03391305-.21391304l6.78782605-5.35826087 6.7852174 5.36086956c-.0182608.06782609-.033913.13826087-.033913.21391305v9.05478258l-3.6208696.0078261v-4.9069565c0-.746087-.6052174-1.3513044-1.3513043-1.3513044h-3.5556522c-.3626087 0-.70173913.1408696-.9573913.3991305-.25565218.2582608-.39391305.5973913-.39391305.9626087l.02347826 2.8043478c.0026087.4304348.35217392.7747826.7826087.7747826h.00782609c.43304347-.0026087.78-.3573913.7747826-.7904348l-.02086956-2.5852174h3.12521736v4.9069566c0 .3626087.1408696.7017391.3965218.9573913.2556521.2556521.5947826.393913.9547826.393913h.0026087l4.0486956-.0104348c.7434783-.0026087 1.3486957-.6078261 1.3486957-1.3513043v-8.26956524l1.1295652.89217391c.1434783.11478261.3156522.16956522.4852174.16956522.2321739 0 .4591304-.10173913.6156522-.29739131.2686956-.34173913.2113043-.83217391-.1278261-1.10086956z" fill="#1e1169" transform="translate(5 7)"/></svg>