<?xml version="1.0" encoding="UTF-8"?>
<svg width="32px" height="32px" viewBox="0 0 32 32" version="1.1" xmlns="http://www.w3.org/2000/svg" xmlns:xlink="http://www.w3.org/1999/xlink">
    <title>icone/32x32/alaune_32_bicolore</title>
    <g id="icone/32x32/alaune_32_bicolore" stroke="none" stroke-width="1" fill="none" fill-rule="evenodd">
        <g id="Group-6" transform="translate(2.666683, 0.716787)">
            <g id="Group-5" transform="translate(0.000000, 4.184513)">
                <path d="M26.581014,8.86437676 L23.5978959,0.908094956 C23.3306552,0.194737394 22.5113988,-0.175981085 21.7714119,0.0821178801 C21.1388744,0.302677008 20.7668457,0.912221319 20.8392266,1.53042093 L19.1978437,2.10247572 C18.9921816,2.17418386 18.8857237,2.39318302 18.9599311,2.59150004 C19.0343473,2.79006868 19.2614575,2.89267421 19.4671196,2.82091576 L21.0716076,2.26149166 L23.7408313,9.38137983 L16.8460107,11.7851875 C15.9874066,10.3824757 14.1860237,9.71848355 12.5409357,10.2920983 C11.7883721,10.5543236 11.1825012,11.0359004 10.7721686,11.6348269 L9.32768062,7.78286711 C9.06696307,7.08702143 9.44186196,6.31609607 10.1636884,6.0642873 L16.8460107,3.78086931 C17.0518815,3.70911086 17.1582873,3.49016202 17.0836624,3.29179467 C17.0095071,3.09347765 16.7821881,2.99087211 16.576526,3.06263057 L9.89420378,5.34604855 C8.76162713,5.74112263 8.17349928,6.95080113 8.58284044,8.04272733 L8.719618,8.40775948 L2.68120965,10.5126071 C2.35098134,9.92389591 1.61365583,9.63968008 0.941561898,9.87377569 C0.201783685,10.1318747 -0.182247626,10.9218719 0.0849930787,11.6352294 L1.38983326,15.115263 C1.59956581,15.6748884 2.14855472,16.0232138 2.73276868,16.0232138 C2.89318616,16.0232138 3.05689132,15.9970969 3.21631728,15.9414413 C3.57467344,15.8164427 3.86106614,15.5644327 4.02294481,15.2316566 C4.15419073,14.9615811 4.19072041,14.6647346 4.13034207,14.3775498 L10.1685417,12.2727022 L10.3033362,12.6322493 C10.1139559,13.2969963 10.1270022,14.0221794 10.3879285,14.7185786 C10.6706682,15.472445 11.2031144,16.0947709 11.9059455,16.5022744 L9.951451,20.5833983 L8.27703483,20.5833983 C7.44838512,20.5833983 6.7744647,21.2332501 6.7744647,22.0321039 C6.7744647,22.831159 7.44859386,23.4812121 8.27703483,23.4812121 L8.59343404,23.4812121 C8.81193372,23.4812121 8.98952015,23.3102196 8.98952015,23.0992719 C8.98952015,22.8881732 8.81193372,22.7173821 8.59343404,22.7173821 L8.27703483,22.7173821 C7.8852801,22.7173821 7.56642817,22.410119 7.56642817,22.0321039 C7.56642817,21.6544914 7.8852801,21.3472786 8.27703483,21.3472786 L10.2024099,21.3472786 C10.2032449,21.3472786 10.2040277,21.3474799 10.2048626,21.3474799 L17.3146865,21.3474799 C17.3155215,21.3474799 17.3163042,21.3472786 17.3171392,21.3472786 L19.2422534,21.3472786 C19.6340603,21.3472786 19.9524947,21.6544914 19.9524947,22.0321039 C19.9524947,22.410119 19.6340603,22.7173821 19.2422534,22.7173821 L10.8443929,22.7173821 C10.6256845,22.7173821 10.4483068,22.8881732 10.4483068,23.0992719 C10.4483068,23.3102196 10.6256845,23.4812121 10.8443929,23.4812121 L19.2422534,23.4812121 C20.0709031,23.4812121 20.7450322,22.831159 20.7450322,22.0321039 C20.7450322,21.2332501 20.0706943,20.5833983 19.2422534,20.5833983 L17.5678894,20.5833983 L15.6133427,16.5022744 C17.0123773,15.6882739 17.6875502,14.0274631 17.1713858,12.4840021 L24.0467935,10.0870382 C24.3115815,10.4758724 24.7645495,10.7078042 25.24074,10.7078042 C25.4013662,10.7078042 25.5648626,10.6812848 25.7242364,10.6258305 C26.0826447,10.5008319 26.3690374,10.2490231 26.5308639,9.91624704 C26.6927426,9.58347097 26.7104856,9.20998481 26.581014,8.86437676 Z M3.30560626,14.9072842 C3.23385153,15.0553301 3.10641513,15.167547 2.94704135,15.2230013 C2.6180133,15.3375834 2.25355146,15.1728811 2.13488218,14.8558053 L0.830042002,11.3757718 C0.711216171,11.0584947 0.882018519,10.7070494 1.21083783,10.5922157 C1.28196633,10.5676588 1.35455603,10.5558836 1.42589327,10.5558836 C1.68582804,10.5558836 1.92979412,10.7109745 2.02336229,10.9598143 L3.32799373,14.4396465 C3.38571063,14.5933787 3.37777847,14.75949 3.30560626,14.9072842 Z M3.87578238,13.6541783 L2.96556712,11.2259647 L8.98889393,9.12624983 L9.89926575,11.5544634 L3.87578238,13.6541783 Z M10.8241451,20.5835996 L12.6251627,16.8226714 C12.9930687,16.9419837 13.3746995,17.0021179 13.7573218,17.0021179 C14.1393179,17.0021179 14.522149,16.9417824 14.8937602,16.8220676 L16.695404,20.5833983 L10.8241451,20.5833983 L10.8241451,20.5835996 Z M14.7092853,16.0761017 C14.0129252,16.3188526 13.2607269,16.2874016 12.5888417,15.9882403 C12.5888417,15.9882403 12.588633,15.988039 12.5884764,15.988039 C12.5882677,15.988039 12.588059,15.9878378 12.5876415,15.9876365 C12.5829448,15.9856739 12.5782481,15.9839127 12.5737602,15.9817489 C11.8984308,15.6762974 11.3867543,15.1353413 11.1329774,14.4589197 C10.6095071,13.0622968 11.3619141,11.5153133 12.810055,11.0103371 C13.1225404,10.9014413 13.4423838,10.8499624 13.7569044,10.8499624 C14.9004921,10.8499624 15.9758215,11.5324226 16.3863629,12.6277203 C16.9098333,14.0241419 16.1574262,15.5713267 14.7092853,16.0761017 Z M25.8135254,9.59192498 C25.7417706,9.73992051 25.6143864,9.85198649 25.4549605,9.90739045 C25.1259846,10.0219725 24.7614706,9.85727024 24.6426447,9.54019448 L21.6597354,1.58371139 C21.5408574,1.26643435 21.7119207,0.915190287 22.0406878,0.800557914 C22.1116597,0.77559845 22.1841973,0.764024506 22.2555867,0.764024506 C22.5154693,0.764024506 22.7596963,0.919115364 22.8530557,1.16775389 L25.8357563,9.1242873 C25.8934732,9.27776787 25.8856976,9.44408042 25.8135254,9.59192498 Z" id="Fill-1" stroke="#1E1169" stroke-width="0.5" fill="#1E1169"></path>
                <path d="M13.1174262,11.8302252 C12.6430622,11.9955314 12.2635188,12.3293139 12.0492984,12.7700295 C11.8350257,13.2103426 11.8118033,13.7049023 11.9832318,14.162526 C12.1546604,14.6200994 12.5008052,14.9859367 12.957635,15.1925065 C13.2124556,15.3076924 13.484967,15.3657131 13.7583656,15.3657131 C13.9750387,15.3657131 14.1921294,15.3293306 14.4019141,15.2562135 C14.876226,15.0909074 15.2558215,14.7571249 15.470042,14.3166105 C15.6841059,13.8762974 15.7075371,13.3817377 15.5361085,12.9239127 C15.1818228,11.9794285 14.0969435,11.4885926 13.1174262,11.8302252 Z M14.7524947,13.9922884 C14.628346,14.2480223 14.4082286,14.4418104 14.1323773,14.5377735 C13.8569957,14.6338875 13.5591744,14.6207033 13.2939689,14.5005859 C13.0287635,14.3809213 12.8277459,14.1686149 12.7282807,13.9026658 C12.6286069,13.637069 12.6422794,13.3498842 12.7666369,13.0941503 C12.8909422,12.8384165 13.1113205,12.6446284 13.3869109,12.5486653 C13.5094419,12.5058417 13.6349996,12.4855621 13.7585221,12.4855621 C14.2076284,12.4855621 14.6300159,12.7537254 14.7910596,13.1837729 C14.8907335,13.4493698 14.8770609,13.7365546 14.7524947,13.9922884 Z" id="Fill-3" stroke="#1E1169" stroke-width="0.5" fill="#1E1169"></path>
                <path d="M0.963792818,5.96696552 L0.793564507,6.92367785 C0.742788252,7.20970524 0.862449047,7.4935185 1.10584109,7.6641587 C1.34944187,7.8347989 1.66646731,7.85699068 1.93287305,7.72172649 L2.82388414,7.27004072 L3.71473868,7.72172649 C3.83048558,7.780502 3.95609549,7.80963815 4.08081826,7.80963815 C4.24290567,7.80963815 4.40415811,7.76047404 4.54150971,7.6641587 C4.7851105,7.4935185 4.90498003,7.20990653 4.85383848,6.92367785 L4.68381891,5.96696552 L5.40460169,5.28958783 C5.62007462,5.08694315 5.69610854,4.7895431 5.60316659,4.51337871 C5.51022465,4.23736529 5.26725009,4.03985341 4.96942883,3.99813689 L3.973421,3.85839409 L3.52796764,2.98818442 C3.39468649,2.72792163 3.12499308,2.56593672 2.82388414,2.56593672 C2.52282739,2.56593672 2.25292524,2.72772034 2.11980065,2.98798313 L1.67419073,3.85839409 L0.678182903,3.9979356 C0.380152896,4.03985341 0.137387077,4.23716401 0.0444451335,4.51337871 C-0.0487577367,4.78934181 0.0274849247,5.08674187 0.243166595,5.28943686 L0.963792818,5.96696552 Z M1.7918163,4.61402171 C2.04762843,4.57804184 2.268633,4.42335355 2.3829709,4.19982546 L2.82388414,3.33867365 L3.26464083,4.19982546 C3.37918747,4.42335355 3.59993111,4.57804184 3.85579543,4.61402171 L4.8413662,4.75200326 L4.1280981,5.4224869 C3.94304918,5.59644832 3.85861343,5.84709971 3.90244905,6.09256798 L4.07064213,7.03926633 L3.18918095,6.59226046 C3.07484305,6.53429009 2.94949406,6.50520427 2.82388414,6.50520427 C2.69832641,6.50520427 2.57276868,6.53429009 2.4583786,6.59226046 L1.5769696,7.03906504 L1.7451105,6.09241701 C1.78894611,5.84689842 1.70456255,5.59624704 1.5192527,5.4224869 L0.80619334,4.75180197 L1.7918163,4.61402171 Z" id="Fill-4" fill="#28DCF0"></path>
            </g>
            <path d="M24.2220838,19.2445737 L23.2258672,19.1047805 L22.7802573,18.2345709 C22.6473414,17.9741571 22.3772827,17.8125748 22.0763825,17.8125748 C21.7753258,17.8125748 21.5054236,17.9741571 21.372299,18.2345709 L20.9266891,19.1047805 L19.93089,19.2445737 C19.63286,19.2860386 19.3898854,19.4836008 19.2968913,19.7599665 C19.2039494,20.0359295 19.2799833,20.3333296 19.495665,20.5360246 L20.2162912,21.2134023 L20.0462716,22.1700643 C19.9952866,22.4560917 20.1149474,22.7399553 20.3585482,22.9105451 C20.4961607,23.0068605 20.6572044,23.0560246 20.8192397,23.0560246 C20.9440146,23.0560246 21.0695723,23.0269388 21.1855802,22.9681633 L22.0763825,22.5164272 L22.9673936,22.9681633 C23.2338515,23.1031758 23.5508248,23.0811854 23.7942168,22.9103439 C24.0376089,22.7399553 24.1574784,22.4560917 24.1064934,22.1700643 L23.9363173,21.2134023 L24.6571001,20.5358233 C24.872573,20.3333296 24.9488156,20.0359295 24.855665,19.7597652 C24.762723,19.4836008 24.519905,19.2862399 24.2220838,19.2445737 Z M23.3808052,20.6690746 C23.1954954,20.8428348 23.1111118,21.0932849 23.1549474,21.339206 L23.3233492,22.2858541 L22.4418881,21.8388482 C22.3273414,21.7808778 22.2019402,21.751792 22.0763825,21.751792 C21.9508248,21.751792 21.8254236,21.7808778 21.7110857,21.8388482 L20.829468,22.2856528 L20.9976089,21.339206 C21.0414445,21.0932849 20.9570609,20.8428348 20.7721686,20.6690746 L20.0589004,19.9983897 L21.0445234,19.8604082 C21.3003355,19.8246296 21.5210792,19.66974 21.635678,19.4462119 L22.0763825,18.5848588 L22.5172958,19.4462119 C22.6316858,19.66974 22.852847,19.8246296 23.1084504,19.8604082 L24.0940733,19.9983897 L23.3808052,20.6690746 Z" id="Fill-6" fill="#28DCF0"></path>
            <path d="M10.1557041,3.40123008 L9.98552798,4.35774112 C9.93475172,4.64391949 10.0542038,4.92758177 10.2978046,5.09837294 C10.4356258,5.19473861 10.5964608,5.24366344 10.7587048,5.24366344 C10.8836884,5.24366344 11.0088287,5.21476656 11.1248365,5.15578977 L12.0158476,4.70425496 L12.90665,5.15578977 C13.1733166,5.29105396 13.4900811,5.26881185 13.7334732,5.09837294 C13.977074,4.92758177 14.0969435,4.64391949 14.0457498,4.35774112 L13.8757824,3.40123008 L14.5965652,2.72344982 C14.8122468,2.52080514 14.888072,2.22340509 14.7951301,1.94739167 C14.7021359,1.67142857 14.4591614,1.47386637 14.1613401,1.43199888 L13.1653323,1.29265865 L12.7199311,0.422046408 C12.5865978,0.161783618 12.3169044,-4.4408921e-16 12.0158476,-4.4408921e-16 C11.7147387,-4.4408921e-16 11.44468,0.161783618 11.3115554,0.422046408 L10.8661542,1.29265865 L9.87014637,1.43199888 C9.57211637,1.47386637 9.32914181,1.67122729 9.23614768,1.94739167 C9.14320573,2.22340509 9.2194484,2.52080514 9.43471258,2.72344982 L10.1557041,3.40123008 Z M10.9837798,2.04803467 C11.2395919,2.01205479 11.4605443,1.85736651 11.5749344,1.63388873 L12.0158476,0.77273693 L12.4563434,1.63388873 C12.5709422,1.85736651 12.7918946,2.01205479 13.0477067,2.04803467 L14.0333297,2.1862175 L13.3200616,2.85655018 C13.1351692,3.0305116 13.0507856,3.28091138 13.0942038,3.52663126 L13.2626056,4.47332961 L12.3811444,4.02632373 C12.2667543,3.96850433 12.1411966,3.93941851 12.0158476,3.93941851 C11.8902899,3.93941851 11.76468,3.96850433 11.6503421,4.02632373 L10.7688809,4.47332961 L10.937074,3.52663126 C10.9807008,3.28111266 10.8963173,3.0305116 10.7112162,2.85655018 L9.99815681,2.1862175 L10.9837798,2.04803467 Z" id="Fill-7" fill="#28DCF0"></path>
        </g>
    </g>
</svg>