<?xml version="1.0" encoding="UTF-8"?>
<svg width="32px" height="32px" viewBox="0 0 32 32" version="1.1" xmlns="http://www.w3.org/2000/svg" xmlns:xlink="http://www.w3.org/1999/xlink">
    <title>icone/32x32/alaune_32_bicolore</title>
    <g id="icone/32x32/alaune_32_bicolore" stroke="none" stroke-width="1" fill="none" fill-rule="evenodd">
        <g id="003-telescope-1" transform="translate(2.666667, 2.666667)" stroke-width="0.5">
            <g id="Group-6">
                <g id="Group-5" transform="translate(0.000000, 2.214146)">
                    <path d="M26.5810307,8.88486441 L23.5979126,0.928582611 C23.3306719,0.215225049 22.5114155,-0.15549343 21.7714286,0.102605535 C21.1388911,0.323164663 20.7668624,0.932708974 20.8392433,1.55090858 L19.1978604,2.12296338 C18.9921983,2.19467151 18.8857404,2.41367067 18.9599478,2.6119877 C19.034364,2.81055633 19.2614742,2.91316187 19.4671363,2.84140341 L21.0716243,2.28197931 L23.740848,9.40186749 L16.8460274,11.8056751 C15.9874234,10.4029634 14.1860404,9.7389712 12.5409524,10.312586 C11.7883888,10.5748113 11.1825179,11.056388 10.7721853,11.6553145 L9.32769733,7.80335477 C9.06697978,7.10750909 9.44187867,6.33658373 10.1637052,6.08477495 L16.8460274,3.80135697 C17.0518982,3.72959851 17.158304,3.51064967 17.0836791,3.31228233 C17.0095238,3.1139653 16.7822048,3.01135977 16.5765427,3.08311822 L9.89422048,5.3665362 C8.76164384,5.76161029 8.17351598,6.97128879 8.58285714,8.06321498 L8.7196347,8.42824713 L2.68122635,10.5330948 C2.35099804,9.94438356 1.61367254,9.66016774 0.941578604,9.89426335 C0.201800391,10.1523623 -0.18223092,10.9423595 0.0850097847,11.6557171 L1.38984997,15.1357506 C1.59958252,15.695376 2.14857143,16.0437014 2.73278539,16.0437014 C2.89320287,16.0437014 3.05690802,16.0175846 3.21633399,15.961929 C3.57469015,15.8369304 3.86108284,15.5849203 4.02296151,15.2521443 C4.15420744,14.9820688 4.19073712,14.6852223 4.13035877,14.3980375 L10.1685584,12.2931898 L10.3033529,12.6527369 C10.1139726,13.3174839 10.1270189,14.042667 10.3879452,14.7390663 C10.6706849,15.4929326 11.2031311,16.1152586 11.9059622,16.5227621 L9.95146771,20.6038859 L8.27705153,20.6038859 C7.44840183,20.6038859 6.77448141,21.2537378 6.77448141,22.0525916 C6.77448141,22.8516466 7.44861057,23.5016997 8.27705153,23.5016997 L8.59345075,23.5016997 C8.81195042,23.5016997 8.98953686,23.3307073 8.98953686,23.1197596 C8.98953686,22.9086609 8.81195042,22.7378697 8.59345075,22.7378697 L8.27705153,22.7378697 C7.8852968,22.7378697 7.56644488,22.4306067 7.56644488,22.0525916 C7.56644488,21.674979 7.8852968,21.3677663 8.27705153,21.3677663 L10.2024266,21.3677663 C10.2032616,21.3677663 10.2040444,21.3679676 10.2048793,21.3679676 L17.3147032,21.3679676 C17.3155382,21.3679676 17.3163209,21.3677663 17.3171559,21.3677663 L19.2422701,21.3677663 C19.634077,21.3677663 19.9525114,21.674979 19.9525114,22.0525916 C19.9525114,22.4306067 19.634077,22.7378697 19.2422701,22.7378697 L10.8444097,22.7378697 C10.6257012,22.7378697 10.4483235,22.9086609 10.4483235,23.1197596 C10.4483235,23.3307073 10.6257012,23.5016997 10.8444097,23.5016997 L19.2422701,23.5016997 C20.0709198,23.5016997 20.7450489,22.8516466 20.7450489,22.0525916 C20.7450489,21.2537378 20.070711,20.6038859 19.2422701,20.6038859 L17.5679061,20.6038859 L15.6133594,16.5227621 C17.012394,15.7087615 17.6875669,14.0479508 17.1714025,12.5044898 L24.0468102,10.1075259 C24.3115982,10.4963601 24.7645662,10.7282919 25.2407567,10.7282919 C25.4013829,10.7282919 25.5648793,10.7017724 25.7242531,10.6463181 C26.0826614,10.5213195 26.3690541,10.2695108 26.5308806,9.93673469 C26.6927593,9.60395862 26.7105023,9.23047246 26.5810307,8.88486441 Z M3.30562296,14.9277719 C3.23386823,15.0758177 3.10643183,15.1880347 2.94705806,15.243489 C2.61803001,15.358071 2.25356817,15.1933687 2.13489889,14.876293 L0.830058708,11.3962594 C0.711232877,11.0789824 0.882035225,10.727537 1.21085453,10.6127034 C1.28198304,10.5881465 1.35457273,10.5763713 1.42590998,10.5763713 C1.68584475,10.5763713 1.92981083,10.7314621 2.023379,10.9803019 L3.32801044,14.4601342 C3.38572733,14.6138664 3.37779517,14.7799776 3.30562296,14.9277719 Z M3.87579909,13.6746659 L2.96558382,11.2464523 L8.98891063,9.14673749 L9.89928245,11.5749511 L3.87579909,13.6746659 Z M10.8241618,20.6040872 L12.6251794,16.8431591 C12.9930855,16.9624713 13.3747162,17.0226055 13.7573386,17.0226055 C14.1393346,17.0226055 14.5221657,16.9622701 14.8937769,16.8425552 L16.6954207,20.6038859 L10.8241618,20.6038859 L10.8241618,20.6040872 Z M14.709302,16.0965893 C14.0129419,16.3393402 13.2607436,16.3078893 12.5888584,16.008728 C12.5888584,16.008728 12.5886497,16.0085267 12.5884932,16.0085267 C12.5882844,16.0085267 12.5880757,16.0083254 12.5876582,16.0081241 C12.5829615,16.0061616 12.5782648,16.0044003 12.5737769,16.0022365 C11.8984475,15.696785 11.386771,15.1558289 11.1329941,14.4794073 C10.6095238,13.0827845 11.3619309,11.535801 12.8100718,11.0308247 C13.1225571,10.921929 13.4424005,10.8704501 13.7569211,10.8704501 C14.9005088,10.8704501 15.9758382,11.5529103 16.3863796,12.648208 C16.90985,14.0446296 16.1574429,15.5918144 14.709302,16.0965893 Z M25.8135421,9.61241264 C25.7417873,9.76040816 25.6144031,9.87247414 25.4549772,9.92787811 C25.1260013,10.0424602 24.7614873,9.8777579 24.6426614,9.56068214 L21.6597521,1.60419905 C21.5408741,1.286922 21.7119374,0.935677942 22.0407045,0.821045569 C22.1116765,0.796086106 22.184214,0.784512161 22.2556034,0.784512161 C22.515486,0.784512161 22.759713,0.939603019 22.8530724,1.18824154 L25.835773,9.14477495 C25.8934899,9.29825552 25.8857143,9.46456807 25.8135421,9.61241264 Z" id="Fill-1" stroke="#1E1169" fill="#1E1169"></path>
                    <path d="M13.1174429,11.8507129 C12.6430789,12.016019 12.2635356,12.3498015 12.0493151,12.7905172 C11.8350424,13.2308303 11.81182,13.72539 11.9832485,14.1830137 C12.1546771,14.6405871 12.5008219,15.0064244 12.9576517,15.2129941 C13.2124723,15.32818 13.4849837,15.3862007 13.7583823,15.3862007 C13.9750554,15.3862007 14.1921461,15.3498183 14.4019309,15.2767011 C14.8762427,15.111395 15.2558382,14.7776125 15.4700587,14.3370981 C15.6841226,13.896785 15.7075538,13.4022253 15.5361252,12.9444003 C15.1818395,11.9999161 14.0969602,11.5090802 13.1174429,11.8507129 Z M14.7525114,14.0127761 C14.6283627,14.2685099 14.4082453,14.462298 14.132394,14.5582611 C13.8570124,14.6543752 13.5591911,14.6411909 13.2939856,14.5210735 C13.0287802,14.401409 12.8277626,14.1891026 12.7282975,13.9231535 C12.6286236,13.6575566 12.6422962,13.3703718 12.7666536,13.114638 C12.8909589,12.8589041 13.1113372,12.665116 13.3869276,12.5691529 C13.5094586,12.5263293 13.6350163,12.5060498 13.7585388,12.5060498 C14.2076451,12.5060498 14.6300326,12.774213 14.7910763,13.2042606 C14.8907502,13.4698574 14.8770776,13.7570422 14.7525114,14.0127761 Z" id="Fill-3" stroke="#1E1169" fill="#1E1169"></path>
                    <path d="M0.963809524,5.98745317 L0.793581213,6.9441655 C0.742804958,7.2301929 0.862465753,7.51400615 1.1058578,7.68464635 C1.34945858,7.85528655 1.66648402,7.87747833 1.93288976,7.74221415 L2.82390085,7.29052838 L3.71475538,7.74221415 C3.83050228,7.80098966 3.9561122,7.8301258 4.08083496,7.8301258 C4.24292237,7.8301258 4.40417482,7.7809617 4.54152642,7.68464635 C4.7851272,7.51400615 4.90499674,7.23039419 4.85385519,6.9441655 L4.68383562,5.98745317 L5.4046184,5.31007548 C5.62009132,5.10743081 5.69612524,4.81003075 5.6031833,4.53386637 C5.51024136,4.25785295 5.2672668,4.06034107 4.96944553,4.01862455 L3.9734377,3.87888174 L3.52798434,3.00867207 C3.3947032,2.74840928 3.12500978,2.58642438 2.82390085,2.58642438 C2.5228441,2.58642438 2.25294194,2.748208 2.11981735,3.00847079 L1.67420744,3.87888174 L0.678199609,4.01842326 C0.380169602,4.06034107 0.137403783,4.25765166 0.0444618395,4.53386637 C-0.0487410307,4.80982947 0.0275016308,5.10722952 0.243183301,5.30992452 L0.963809524,5.98745317 Z M1.79183301,4.63450937 C2.04764514,4.59852949 2.26864971,4.44384121 2.38298761,4.22031311 L2.82390085,3.35916131 L3.26465753,4.22031311 C3.37920417,4.44384121 3.59994781,4.59852949 3.85581213,4.63450937 L4.84138291,4.77249091 L4.12811481,5.44297456 C3.94306588,5.61693598 3.85863014,5.86758736 3.90246575,6.11305563 L4.07065884,7.05975398 L3.18919765,6.61274811 C3.07485975,6.55477775 2.94951076,6.52569192 2.82390085,6.52569192 C2.69834312,6.52569192 2.57278539,6.55477775 2.4583953,6.61274811 L1.5769863,7.0595527 L1.7451272,6.11290467 C1.78896282,5.86738608 1.70457926,5.61673469 1.51926941,5.44297456 L0.806210046,4.77228963 L1.79183301,4.63450937 Z" id="Fill-4" stroke="#28DCF0" fill="#28DCF0"></path>
                </g>
                <path d="M24.2221005,17.2946939 L23.2258839,17.1549008 L22.780274,16.2846911 C22.6473581,16.0242773 22.3772994,15.862695 22.0763992,15.862695 C21.7753425,15.862695 21.5054403,16.0242773 21.3723157,16.2846911 L20.9267058,17.1549008 L19.9309067,17.2946939 C19.6328767,17.3361588 19.3899022,17.533721 19.296908,17.8100867 C19.2039661,18.0860498 19.28,18.3834498 19.4956817,18.5861448 L20.2163079,19.2635225 L20.0462883,20.2201845 C19.9953033,20.5062119 20.1149641,20.7900755 20.3585649,20.9606654 C20.4961774,21.0569807 20.6572211,21.1061448 20.8192564,21.1061448 C20.9440313,21.1061448 21.069589,21.077059 21.1855969,21.0182835 L22.0763992,20.5665474 L22.9674103,21.0182835 C23.2338682,21.1532961 23.5508415,21.1313056 23.7942335,20.9604641 C24.0376256,20.7900755 24.1574951,20.5062119 24.1065101,20.2201845 L23.936334,19.2635225 L24.6571168,18.5859435 C24.8725897,18.3834498 24.9488324,18.0860498 24.8556817,17.8098854 C24.7627397,17.533721 24.5199217,17.3363601 24.2221005,17.2946939 Z M23.3808219,18.7191949 C23.1955121,18.892955 23.1111285,19.1434051 23.1549641,19.3893263 L23.3233659,20.3359743 L22.4419048,19.8889684 C22.3273581,19.830998 22.2019569,19.8019122 22.0763992,19.8019122 C21.9508415,19.8019122 21.8254403,19.830998 21.7111024,19.8889684 L20.8294847,20.335773 L20.9976256,19.3893263 C21.0414612,19.1434051 20.9570776,18.892955 20.7721853,18.7191949 L20.0589172,18.0485099 L21.0445401,17.9105284 C21.3003523,17.8747498 21.5210959,17.7198602 21.6356947,17.4963321 L22.0763992,16.634979 L22.5173125,17.4963321 C22.6317025,17.7198602 22.8528637,17.8747498 23.1084671,17.9105284 L24.09409,18.0485099 L23.3808219,18.7191949 Z" id="Fill-6" stroke="#28DCF0" fill="#28DCF0"></path>
                <path d="M10.1557208,3.45135029 L9.98554468,4.40786134 C9.93476843,4.6940397 10.0542205,4.97770198 10.2978213,5.14849315 C10.4356425,5.24485882 10.5964775,5.29378365 10.7587215,5.29378365 C10.8837052,5.29378365 11.0088454,5.26488678 11.1248532,5.20590998 L12.0158643,4.75437517 L12.9066667,5.20590998 C13.1733333,5.34117417 13.4900978,5.31893207 13.7334899,5.14849315 C13.9770907,4.97770198 14.0969602,4.6940397 14.0457665,4.40786134 L13.8757991,3.45135029 L14.5965819,2.77357003 C14.8122635,2.57092536 14.8880887,2.2735253 14.7951468,1.99751188 C14.7021526,1.72154878 14.4591781,1.52398658 14.1613568,1.48211909 L13.165349,1.34277886 L12.7199478,0.47216662 C12.5866145,0.21190383 12.3169211,0.0501202125 12.0158643,0.0501202125 C11.7147554,0.0501202125 11.4446967,0.21190383 11.3115721,0.47216662 L10.8661709,1.34277886 L9.87016308,1.48211909 C9.57213307,1.52398658 9.32915851,1.7213475 9.23616438,1.99751188 C9.14322244,2.2735253 9.2194651,2.57092536 9.43472929,2.77357003 L10.1557208,3.45135029 Z M10.9837965,2.09815488 C11.2396086,2.06217501 11.460561,1.90748672 11.5749511,1.68400895 L12.0158643,0.822857143 L12.4563601,1.68400895 C12.5709589,1.90748672 12.7919113,2.06217501 13.0477234,2.09815488 L14.0333464,2.23633771 L13.3200783,2.90667039 C13.1351859,3.08063181 13.0508023,3.33103159 13.0942205,3.57675147 L13.2626223,4.52344982 L12.3811611,4.07644395 C12.266771,4.01862455 12.1412133,3.98953872 12.0158643,3.98953872 C11.8903066,3.98953872 11.7646967,4.01862455 11.6503588,4.07644395 L10.7688976,4.52344982 L10.9370907,3.57675147 C10.9807175,3.33123288 10.896334,3.08063181 10.7112329,2.90667039 L9.99817352,2.23633771 L10.9837965,2.09815488 Z" id="Fill-7" stroke="#28DCF0" fill="#28DCF0"></path>
            </g>
        </g>
    </g>
</svg>