<svg xmlns="http://www.w3.org/2000/svg" width="32" height="32" viewBox="0 0 32 32">
  <path fill="#1E1169" d="M1.69013333,18.377337 C0.373333333,19.6928036 0.113333333,22.560537 0.0874666667,22.882937 L0,24 L1.1168,23.9120036 C1.44026667,23.8858703 4.31306667,23.6216036 5.62213333,22.313337 C6.49146667,21.443737 6.9576,20.3938703 6.98213333,19.4490703 L7.38373333,19.1354703 C9.32266667,17.6272036 12.3445333,14.8632036 15.4658667,11.7442703 C17.8290667,9.38133696 20.0394667,6.94773696 21.6904,4.89200363 C23.7512,2.32427029 24.4829333,1.12213696 23.684,0.322936959 C22.8752,-0.486663041 21.6730667,0.245070293 19.1048,2.30347029 C17.0453333,3.95467029 14.6106667,6.16373696 12.2490667,8.52373696 C9.124,11.6472036 6.35893333,14.666937 4.852,16.602137 L4.5248,17.019737 C3.58853333,17.0520036 2.54986667,17.5170703 1.69013333,18.377337 Z M8.0496,14.627737 L9.36053333,15.9392036 C8.4,16.796537 7.5344,17.533337 6.81226667,18.1018703 L5.88426667,17.173337 C6.45413333,16.452537 7.1904,15.587737 8.0496,14.627737 Z M14.6416,10.919737 C12.9717333,12.588537 11.3341333,14.151737 9.88026667,15.4704036 L8.5184,14.1080036 C9.8376,12.6554703 11.4016,11.0186703 13.0725333,9.34827029 C15.4048,7.01733696 17.8058667,4.83840363 19.8333333,3.21307029 C21.7997333,1.63733696 22.5477333,1.26133696 22.8189333,1.17760363 C22.7352,1.44880363 22.3594667,2.19627029 20.7818667,4.16240363 C19.1565333,6.18613696 16.9762667,8.58613696 14.6416,10.919737 Z M2.5136,19.202137 C3.53093333,18.184537 4.872,17.8704036 5.50186667,18.500537 C6.13146667,19.130137 5.81573333,20.4714703 4.79813333,21.4888036 C4.03946667,22.2466703 2.28586667,22.6128036 1.27386667,22.726137 C1.37813333,21.8234703 1.73306667,19.9818703 2.5136,19.202137 Z" transform="translate(4 4)"/>
</svg>
