<svg xmlns="http://www.w3.org/2000/svg" width="32" height="32" viewBox="0 0 32 32">
  <path fill="#FFF" d="M1.69013333,18.3773333 C0.373333333,19.6928 0.113333333,22.5605333 0.0874666667,22.8829333 L0,23.9999964 L1.1168,23.912 C1.44026667,23.8858667 4.31306667,23.6216 5.62213333,22.3133333 C6.49146667,21.4437333 6.9576,20.3938667 6.98213333,19.4490667 L7.38373333,19.1354667 C9.32266667,17.6272 12.3445333,14.8632 15.4658667,11.7442667 C17.8290667,9.38133333 20.0394667,6.94773333 21.6904,4.892 C23.7512,2.32426667 24.4829333,1.12213333 23.684,0.322933333 C22.8752,-0.486666667 21.6730667,0.245066667 19.1048,2.30346667 C17.0453333,3.95466667 14.6106667,6.16373333 12.2490667,8.52373333 C9.124,11.6472 6.35893333,14.6669333 4.852,16.6021333 L4.5248,17.0197333 C3.58853333,17.052 2.54986667,17.5170667 1.69013333,18.3773333 Z M8.0496,14.6277333 L9.36053333,15.9392 C8.4,16.7965333 7.5344,17.5333333 6.81226667,18.1018667 L5.88426667,17.1733333 C6.45413333,16.4525333 7.1904,15.5877333 8.0496,14.6277333 Z M14.6416,10.9197333 C12.9717333,12.5885333 11.3341333,14.1517333 9.88026667,15.4704 L8.5184,14.108 C9.8376,12.6554667 11.4016,11.0186667 13.0725333,9.34826667 C15.4048,7.01733333 17.8058667,4.8384 19.8333333,3.21306667 C21.7997333,1.63733333 22.5477333,1.26133333 22.8189333,1.1776 C22.7352,1.4488 22.3594667,2.19626667 20.7818667,4.1624 C19.1565333,6.18613333 16.9762667,8.58613333 14.6416,10.9197333 Z M2.5136,19.2021333 C3.53093333,18.1845333 4.872,17.8704 5.50186667,18.5005333 C6.13146667,19.1301333 5.81573333,20.4714667 4.79813333,21.4888 C4.03946667,22.2466667 2.28586667,22.6128 1.27386667,22.7261333 C1.37813333,21.8234667 1.73306667,19.9818667 2.5136,19.2021333 Z" transform="translate(4 4)"/>
</svg>
