<svg height="32" viewBox="0 0 32 32" width="32" xmlns="http://www.w3.org/2000/svg"><path d="m1.69013333 18.3773333c-1.3168 1.3154667-1.5768 4.1832-1.60266666 4.5056l-.08746667 1.1170631 1.1168-.0879964c.32346667-.0261333 3.19626667-.2904 4.50533333-1.5986667.86933334-.8696 1.33546667-1.9194666 1.36-2.8642666l.4016-.3136c1.93893334-1.5082667 4.96079997-4.2722667 8.08213337-7.3912 2.3632-2.36293337 4.5736-4.79653337 6.2245333-6.8522667 2.0608-2.56773333 2.7925333-3.76986667 1.9936-4.56906667-.8088-.8096-2.0109333-.07786666-4.5792 1.98053334-2.0594667 1.6512-4.4941333 3.86026666-6.8557333 6.22026666-3.1250667 3.12346667-5.89013337 6.14319997-7.3970667 8.07839997l-.3272.4176c-.93626667.0322667-1.97493333.4973334-2.83466667 1.3576zm6.35946667-3.7496 1.31093333 1.3114667c-.96053333.8573333-1.82613333 1.5941333-2.54826666 2.1626667l-.928-.9285334c.56986666-.7208 1.30613333-1.5856 2.16533333-2.5456zm6.592-3.708c-1.6698667 1.6688-3.3074667 3.232-4.76133333 4.5506667l-1.36186667-1.3624c1.3192-1.4525333 2.8832-3.0893333 4.5541333-4.75973333 2.3322667-2.33093334 4.7333334-4.50986667 6.7608-6.1352 1.9664-1.57573334 2.7144-1.95173334 2.9856-2.03546667-.0837333.2712-.4594666 1.01866667-2.0370666 2.9848-1.6253334 2.02373333-3.8056 4.42373333-6.1402667 6.7573333zm-12.128 8.2824c1.01733333-1.0176 2.3584-1.3317333 2.98826667-.7016.6296.6296.31386666 1.9709334-.70373334 2.9882667-.75866666.7578667-2.51226666 1.124-3.52426666 1.2373333.10426666-.9026666.4592-2.7442666 1.23973333-3.524z" fill="#fff" transform="translate(4 4)"/></svg>