<svg height="32" viewBox="0 0 32 32" width="32" xmlns="http://www.w3.org/2000/svg"><g fill="#fff" fill-rule="evenodd" stroke="#fff" stroke-width=".1" transform="translate(2 2)"><path d="m20.4548326 22.0985481h1.6884918c.1818015 0 .3485452-.1008414.4328297-.2617837.0845452-.1611377.0726163-.3557155-.0310282-.5051851l-4.3544355-6.2898489c-.0913897-.1318697-.2416415-.2105482-.4020623-.2105482-.1604207 0-.3106725.0786785-.4018014.2105482l-1.2863645 1.8580385v-7.62256001h1.6881659c.1818015 0 .3486104-.10084148.4331556-.26204445.0842844-.16094222.0722904-.35571555-.0310933-.50518518l-4.3544356-6.28984889c-.0913896-.13186963-.2416415-.21061333-.4020622-.21061333s-.3106074.0787437-.4018015.21061333l-4.35443554 6.28984889c-.10357926.14946963-.11557334.34424296-.03128889.50518518.08454518.16120297.25128889.26204445.43315555.26204445h1.68842668v3.02622221l-1.28636446-1.8582341c-.09145481-.131674-.24170666-.2106133-.40206222-.2106133-.16042074 0-.31067259.0786785-.40206222.2106133l-4.35443556 6.2898489c-.1033837.1494697-.11537777.344243-.03109333.5051852.08454519.1611378.25135408.2619793.43315556.2619793h1.68816592v7.2472889h-5.65095111c-.27000588 0-.48888889.218883-.48888889.4888888 0 .2700059.21888301.4888889.48888889.4888889h25.34318222c.2700059 0 .4888889-.218883.4888889-.4888889 0-.2700058-.218883-.4888888-.4888889-.4888888h-5.6509511zm-9.6865837-5.0852266v7.7364385h-3.37691853v-7.7364385c0-.2698667-.2186963-.4888889-.48888889-.4888889h-1.24412444l3.42150518-4.9418193 3.42143998 4.9418193h-1.2441244c-.2701926 0-.4888889.2190222-.4888889.4888889zm4.3544355 7.7364385h-3.3766577v-7.2475496h1.6881659c.1818015 0 .3488711-.1008415.4331555-.2619793.0842845-.1609422.0722904-.3554548-.0310933-.5051852l-2.0902281-3.0191822v-4.9275437c0-.26993185-.2190223-.48888889-.4888889-.48888889h-1.2441245l3.4211793-4.94214518 3.4215052 4.94214518h-1.2441245c-.2699318 0-.4888889.21895704-.4888889.48888889v9.5238815l-2.0902933 3.0193778c-.1036444.1494696-.1155733.3440474-.0310281.5051851.0842844.1609423.2510281.2617837.4328296.2617837h1.6884918zm4.3543704-3.1401007v3.1401007h-3.3765926v-3.1401007c0-.2699319-.2190222-.4888889-.4888889-.4888889h-1.2441244l3.4211792-4.9418193 3.42144 4.9418193h-1.2441244c-.2698667 0-.4888889.218957-.4888889.4888889zm1.0426252-9.187526h.2317333v.2316682c0 .2700059.218883.4888889.4888889.4888889s.4888889-.218883.4888889-.4888889v-.2316682h.2316682c.2700058 0 .4888888-.218883.4888888-.4888889 0-.2700058-.218883-.4888888-.4888888-.4888888h-.2316682v-.2319941c0-.2700059-.218883-.4888889-.4888889-.4888889s-.4888889.218883-.4888889.4888889v.2319941h-.2317333c-.2700059 0-.4888889.218883-.4888889.4888888 0 .2700059.218883.4888889.4888889.4888889zm-1.3118341-9.56929182c.2700059 0 .4888889-.21888301.4888889-.48888889v-.23166815h.2319941c.2700059 0 .4888889-.21888301.4888889-.48888888 0-.27000588-.218883-.48888889-.4888889-.48888889h-.2319941v-.23173334c0-.27000587-.218883-.48888889-.4888889-.48888889s-.4888889.21888302-.4888889.48888889v.23173334h-.2316681c-.2700059 0-.4888889.21888301-.4888889.48888889 0 .27000587.218883.48888888.4888889.48888888h.2316681v.23166815c0 .27000588.218883.48888889.4888889.48888889zm-11.85373034 2.54865185c.27000587 0 .48888888-.21888301.48888888-.48888889v-.23173333h.23166815c.27000588 0 .48888889-.21888301.48888889-.48888889s-.21888301-.48888889-.48888889-.48888889h-.23166815v-.23199407c0-.27000588-.21888301-.48888889-.48888888-.48888889-.27000588 0-.48888889.21888301-.48888889.48888889v.23199407h-.23199408c-.27000588 0-.48888889.21888301-.48888889.48888889s.21888301.48888889.48888889.48888889h.23199408v.23173333c0 .27000588.21888301.48888889.48888889.48888889zm-4.87063112 6.28984887c.27000588 0 .48888889-.218883.48888889-.4888889v-.231994h.23166815c.27000588 0 .48888889-.2188831.48888889-.4888889 0-.2700059-.21888301-.48888892-.48888889-.48888892h-.23166815v-.23166815c0-.27000587-.21888301-.48888889-.48888889-.48888889-.27000587 0-.48888888.21888302-.48888888.48888889v.23166815h-.23199408c-.27000588 0-.48888889.21888302-.48888889.48888892 0 .2700058.21888301.4888889.48888889.4888889h.23199408v.231994c0 .2700059.21888301.4888889.48888888.4888889z"/><path d="m3.24158222 21.8515615c.27000588 0 .48888889-.218883.48888889-.4888889v-.2317333h.23173333c.27000588 0 .48888889-.2188831.48888889-.4888889 0-.2700059-.21888301-.4888889-.48888889-.4888889h-.23173333v-.2316682c0-.2700058-.21888301-.4888889-.48888889-.4888889s-.48888889.2188831-.48888889.4888889v.2316682h-.23199407c-.27000588 0-.48888889.218883-.48888889.4888889 0 .2700058.21888301.4888889.48888889.4888889h.23199407v.2317333c0 .2700059.21888301.4888889.48888889.4888889zm21.11633778-4.8109334v-.2316681c0-.2700059-.218883-.4888889-.4888889-.4888889s-.4888889.218883-.4888889.4888889v.2316681h-.2317333c-.2700059 0-.4888889.2188831-.4888889.4888889 0 .2700059.218883.4888889.4888889.4888889h.2317333v.2317334c0 .2700058.218883.4888888.4888889.4888888s.4888889-.218883.4888889-.4888888v-.2317334h.2316681c.2700059 0 .4888889-.218883.4888889-.4888889 0-.2700058-.218883-.4888889-.4888889-.4888889z"/></g></svg>