<svg xmlns="http://www.w3.org/2000/svg" width="32" height="32" viewBox="0 0 32 32">
  <g fill="#FFF" fill-rule="evenodd" stroke="#FFF" stroke-width=".1" transform="translate(3 3)">
    <path d="M20.4548326 22.0985481L22.1433244 22.0985481C22.3251259 22.0985481 22.4918696 21.9977067 22.5761541 21.8367644 22.6606993 21.6756267 22.6487704 21.4810489 22.5451259 21.3315793L18.1906904 15.0417304C18.0993007 14.9098607 17.9490489 14.8311822 17.7886281 14.8311822 17.6282074 14.8311822 17.4779556 14.9098607 17.3868267 15.0417304L16.1004622 16.8997689 16.1004622 9.27720889 17.7886281 9.27720889C17.9704296 9.27720889 18.1372385 9.17636741 18.2217837 9.01516444 18.3060681 8.85422222 18.2940741 8.65944889 18.1906904 8.50997926L13.8362548 2.22013037C13.7448652 2.08826074 13.5946133 2.00951704 13.4341926 2.00951704 13.2737719 2.00951704 13.1235852 2.08826074 13.0323911 2.22013037L8.67795556 8.50997926C8.5743763 8.65944889 8.56238222 8.85422222 8.64666667 9.01516444 8.73121185 9.17636741 8.89795556 9.27720889 9.07982222 9.27720889L10.7682489 9.27720889 10.7682489 12.3034311 9.48188444 10.445197C9.39042963 10.313523 9.24017778 10.2345837 9.07982222 10.2345837 8.91940148 10.2345837 8.76914963 10.3132622 8.67776 10.445197L4.32332444 16.7350459C4.21994074 16.8845156 4.20794667 17.0792889 4.29223111 17.2402311 4.3767763 17.4013689 4.54358519 17.5022104 4.72538667 17.5022104L6.41355259 17.5022104 6.41355259 24.7494993.762601481 24.7494993C.492595604 24.7494993.273712593 24.9683823.273712593 25.2383881.273712593 25.508394.492595604 25.727277.762601481 25.727277L26.1057837 25.727277C26.3757896 25.727277 26.5946726 25.508394 26.5946726 25.2383881 26.5946726 24.9683823 26.3757896 24.7494993 26.1057837 24.7494993L20.4548326 24.7494993 20.4548326 24.7494993 20.4548326 22.0985481zM10.7682489 17.0133215L10.7682489 24.74976 7.39133037 24.74976 7.39133037 17.0133215C7.39133037 16.7434548 7.17263407 16.5244326 6.90244148 16.5244326L5.65831704 16.5244326 9.07982222 11.5826133 12.5012622 16.5244326 11.2571378 16.5244326C10.9869452 16.5244326 10.7682489 16.7434548 10.7682489 17.0133215zM15.1226844 24.74976L11.7460267 24.74976 11.7460267 17.5022104 13.4341926 17.5022104C13.6159941 17.5022104 13.7830637 17.4013689 13.8673481 17.2402311 13.9516326 17.0792889 13.9396385 16.8847763 13.8362548 16.7350459L11.7460267 13.7158637 11.7460267 8.78832C11.7460267 8.51838815 11.5270044 8.29943111 11.2571378 8.29943111L10.0130133 8.29943111 13.4341926 3.35728593 16.8556978 8.29943111 15.6115733 8.29943111C15.3416415 8.29943111 15.1226844 8.51838815 15.1226844 8.78832L15.1226844 18.3122015 13.0323911 21.3315793C12.9287467 21.4810489 12.9168178 21.6756267 13.001363 21.8367644 13.0856474 21.9977067 13.2523911 22.0985481 13.4341926 22.0985481L15.1226844 22.0985481 15.1226844 24.74976zM19.4770548 21.6096593L19.4770548 24.74976 16.1004622 24.74976 16.1004622 21.6096593C16.1004622 21.3397274 15.88144 21.1207704 15.6115733 21.1207704L14.3674489 21.1207704 17.7886281 16.1789511 21.2100681 21.1207704 19.9659437 21.1207704C19.696077 21.1207704 19.4770548 21.3397274 19.4770548 21.6096593zM20.51968 12.4221333L20.7514133 12.4221333 20.7514133 12.4221333 20.7514133 12.6538015C20.7514133 12.9238074 20.9702963 13.1426904 21.2403022 13.1426904 21.5103081 13.1426904 21.7291911 12.9238074 21.7291911 12.6538015L21.7291911 12.4221333 21.7291911 12.4221333 21.9608593 12.4221333C22.2308651 12.4221333 22.4497481 12.2032503 22.4497481 11.9332444 22.4497481 11.6632386 22.2308651 11.4443556 21.9608593 11.4443556L21.7291911 11.4443556 21.7291911 11.4443556 21.7291911 11.2123615C21.7291911 10.9423556 21.5103081 10.7234726 21.2403022 10.7234726 20.9702963 10.7234726 20.7514133 10.9423556 20.7514133 11.2123615L20.7514133 11.4443556 20.7514133 11.4443556 20.51968 11.4443556C20.2496741 11.4443556 20.0307911 11.6632386 20.0307911 11.9332444 20.0307911 12.2032503 20.2496741 12.4221333 20.51968 12.4221333zM19.2078459 2.85284148C19.4778518 2.85284148 19.6967348 2.63395847 19.6967348 2.36395259L19.6967348 2.13228444 19.6967348 2.13228444 19.9287289 2.13228444C20.1987348 2.13228444 20.4176178 1.91340143 20.4176178 1.64339556 20.4176178 1.37338968 20.1987348 1.15450667 19.9287289 1.15450667L19.6967348 1.15450667 19.6967348 1.15450667 19.6967348.922773333C19.6967348.652767456 19.4778518.433884444 19.2078459.433884444 18.93784.433884444 18.718957.652767456 18.718957.922773333L18.718957 1.15450667 18.718957 1.15450667 18.4872889 1.15450667C18.217283 1.15450667 17.9984 1.37338968 17.9984 1.64339556 17.9984 1.91340143 18.217283 2.13228444 18.4872889 2.13228444L18.718957 2.13228444 18.718957 2.13228444 18.718957 2.36395259C18.718957 2.63395847 18.93784 2.85284148 19.2078459 2.85284148zM7.35411556 5.40149333C7.62412143 5.40149333 7.84300444 5.18261032 7.84300444 4.91260444L7.84300444 4.68087111 7.84300444 4.68087111 8.07467259 4.68087111C8.34467847 4.68087111 8.56356148 4.4619881 8.56356148 4.19198222 8.56356148 3.92197634 8.34467847 3.70309333 8.07467259 3.70309333L7.84300444 3.70309333 7.84300444 3.70309333 7.84300444 3.47109926C7.84300444 3.20109338 7.62412143 2.98221037 7.35411556 2.98221037 7.08410968 2.98221037 6.86522667 3.20109338 6.86522667 3.47109926L6.86522667 3.70309333 6.86522667 3.70309333 6.63323259 3.70309333C6.36322671 3.70309333 6.1443437 3.92197634 6.1443437 4.19198222 6.1443437 4.4619881 6.36322671 4.68087111 6.63323259 4.68087111L6.86522667 4.68087111 6.86522667 4.68087111 6.86522667 4.91260444C6.86522667 5.18261032 7.08410968 5.40149333 7.35411556 5.40149333zM2.48348444 11.6913422C2.75349032 11.6913422 2.97237333 11.4724592 2.97237333 11.2024533L2.97237333 10.9704593 2.97237333 10.9704593 3.20404148 10.9704593C3.47404736 10.9704593 3.69293037 10.7515762 3.69293037 10.4815704 3.69293037 10.2115645 3.47404736 9.99268148 3.20404148 9.99268148L2.97237333 9.99268148 2.97237333 9.99268148 2.97237333 9.76101333C2.97237333 9.49100746 2.75349032 9.27212444 2.48348444 9.27212444 2.21347857 9.27212444 1.99459556 9.49100746 1.99459556 9.76101333L1.99459556 9.99268148 1.99459556 9.99268148 1.76260148 9.99268148C1.4925956 9.99268148 1.27371259 10.2115645 1.27371259 10.4815704 1.27371259 10.7515762 1.4925956 10.9704593 1.76260148 10.9704593L1.99459556 10.9704593 1.99459556 10.9704593 1.99459556 11.2024533C1.99459556 11.4724592 2.21347857 11.6913422 2.48348444 11.6913422z"/>
    <path d="M3.24158222 21.8515615C3.5115881 21.8515615 3.73047111 21.6326785 3.73047111 21.3626726L3.73047111 21.1309393 3.73047111 21.1309393 3.96220444 21.1309393C4.23221032 21.1309393 4.45109333 20.9120562 4.45109333 20.6420504 4.45109333 20.3720445 4.23221032 20.1531615 3.96220444 20.1531615L3.73047111 20.1531615 3.73047111 20.1531615 3.73047111 19.9214933C3.73047111 19.6514875 3.5115881 19.4326044 3.24158222 19.4326044 2.97157634 19.4326044 2.75269333 19.6514875 2.75269333 19.9214933L2.75269333 20.1531615 2.75269333 20.1531615 2.52069926 20.1531615C2.25069338 20.1531615 2.03181037 20.3720445 2.03181037 20.6420504 2.03181037 20.9120562 2.25069338 21.1309393 2.52069926 21.1309393L2.75269333 21.1309393 2.75269333 21.1309393 2.75269333 21.3626726C2.75269333 21.6326785 2.97157634 21.8515615 3.24158222 21.8515615zM24.35792 17.0406281L24.35792 16.80896C24.35792 16.5389541 24.139037 16.3200711 23.8690311 16.3200711 23.5990252 16.3200711 23.3801422 16.5389541 23.3801422 16.80896L23.3801422 17.0406281 23.3801422 17.0406281 23.1484089 17.0406281C22.878403 17.0406281 22.65952 17.2595112 22.65952 17.529517 22.65952 17.7995229 22.878403 18.0184059 23.1484089 18.0184059L23.3801422 18.0184059 23.3801422 18.0184059 23.3801422 18.2501393C23.3801422 18.5201451 23.5990252 18.7390281 23.8690311 18.7390281 24.139037 18.7390281 24.35792 18.5201451 24.35792 18.2501393L24.35792 18.0184059 24.35792 18.0184059 24.5895881 18.0184059C24.859594 18.0184059 25.078477 17.7995229 25.078477 17.529517 25.078477 17.2595112 24.859594 17.0406281 24.5895881 17.0406281L24.35792 17.0406281 24.35792 17.0406281z"/>
  </g>
</svg>
