<svg xmlns="http://www.w3.org/2000/svg" width="32" height="32" viewBox="0 0 32 32">
  <g fill="#1E1169" fill-rule="evenodd" stroke="#1E1169" stroke-width=".1" transform="translate(3 3)">
    <path d="M20.18112 21.6646637L21.8696119 21.6646637C22.0514133 21.6646637 22.218157 21.5638222 22.3024415 21.40288 22.3869867 21.2417422 22.3750578 21.0471644 22.2714133 20.8976948L17.9169778 14.6078459C17.8255881 14.4759763 17.6753363 14.3972978 17.5149156 14.3972978 17.3544948 14.3972978 17.204243 14.4759763 17.1131141 14.6078459L15.8267496 16.4658844 15.8267496 8.84332444 17.5149156 8.84332444C17.696717 8.84332444 17.8635259 8.74248296 17.9480711 8.58128 18.0323556 8.42033778 18.0203615 8.22556444 17.9169778 8.07609481L13.5625422 1.78624593C13.4711526 1.6543763 13.3209007 1.57563259 13.16048 1.57563259 13.0000593 1.57563259 12.8498726 1.6543763 12.7586785 1.78624593L8.40424296 8.07609481C8.3006637 8.22556444 8.28866963 8.42033778 8.37295407 8.58128 8.45749926 8.74248296 8.62424296 8.84332444 8.80610963 8.84332444L10.4945363 8.84332444 10.4945363 11.8695467 9.20817185 10.0113126C9.11671704 9.87963852 8.96646519 9.80069926 8.80610963 9.80069926 8.64568889 9.80069926 8.49543704 9.87937778 8.40404741 10.0113126L4.04961185 16.3011615C3.94622815 16.4506311 3.93423407 16.6454044 4.01851852 16.8063467 4.1030637 16.9674844 4.26987259 17.0683259 4.45167407 17.0683259L6.13984 17.0683259 6.13984 24.3156148.488888889 24.3156148C.218883011 24.3156148-3.30661834e-17 24.5344978 0 24.8045037 3.30661834e-17 25.0745096.218883011 25.2933926.488888889 25.2933926L25.8320711 25.2933926C26.102077 25.2933926 26.32096 25.0745096 26.32096 24.8045037 26.32096 24.5344978 26.102077 24.3156148 25.8320711 24.3156148L20.18112 24.3156148 20.18112 24.3156148 20.18112 21.6646637zM10.4945363 16.579437L10.4945363 24.3158756 7.11761778 24.3158756 7.11761778 16.579437C7.11761778 16.3095704 6.89892148 16.0905481 6.62872889 16.0905481L5.38460444 16.0905481 8.80610963 11.1487289 12.2275496 16.0905481 10.9834252 16.0905481C10.7132326 16.0905481 10.4945363 16.3095704 10.4945363 16.579437zM14.8489719 24.3158756L11.4723141 24.3158756 11.4723141 17.0683259 13.16048 17.0683259C13.3422815 17.0683259 13.5093511 16.9674844 13.5936356 16.8063467 13.67792 16.6454044 13.6659259 16.4508919 13.5625422 16.3011615L11.4723141 13.2819793 11.4723141 8.35443556C11.4723141 8.0845037 11.2532919 7.86554667 10.9834252 7.86554667L9.73930074 7.86554667 13.16048 2.92340148 16.5819852 7.86554667 15.3378607 7.86554667C15.0679289 7.86554667 14.8489719 8.0845037 14.8489719 8.35443556L14.8489719 17.878317 12.7586785 20.8976948C12.6550341 21.0471644 12.6431052 21.2417422 12.7276504 21.40288 12.8119348 21.5638222 12.9786785 21.6646637 13.16048 21.6646637L14.8489719 21.6646637 14.8489719 24.3158756zM19.2033422 21.1757748L19.2033422 24.3158756 15.8267496 24.3158756 15.8267496 21.1757748C15.8267496 20.905843 15.6077274 20.6868859 15.3378607 20.6868859L14.0937363 20.6868859 17.5149156 15.7450667 20.9363556 20.6868859 19.6922311 20.6868859C19.4223644 20.6868859 19.2033422 20.905843 19.2033422 21.1757748zM20.2459674 11.9882489L20.4777007 11.9882489 20.4777007 11.9882489 20.4777007 12.219917C20.4777007 12.4899229 20.6965838 12.7088059 20.9665896 12.7088059 21.2365955 12.7088059 21.4554785 12.4899229 21.4554785 12.219917L21.4554785 11.9882489 21.4554785 11.9882489 21.6871467 11.9882489C21.9571525 11.9882489 22.1760356 11.7693659 22.1760356 11.49936 22.1760356 11.2293541 21.9571525 11.0104711 21.6871467 11.0104711L21.4554785 11.0104711 21.4554785 11.0104711 21.4554785 10.778477C21.4554785 10.5084712 21.2365955 10.2895881 20.9665896 10.2895881 20.6965838 10.2895881 20.4777007 10.5084712 20.4777007 10.778477L20.4777007 11.0104711 20.4777007 11.0104711 20.2459674 11.0104711C19.9759615 11.0104711 19.7570785 11.2293541 19.7570785 11.49936 19.7570785 11.7693659 19.9759615 11.9882489 20.2459674 11.9882489zM18.9341333 2.41895704C19.2041392 2.41895704 19.4230222 2.20007403 19.4230222 1.93006815L19.4230222 1.6984 19.4230222 1.6984 19.6550163 1.6984C19.9250222 1.6984 20.1439052 1.47951699 20.1439052 1.20951111 20.1439052.939505233 19.9250222.720622222 19.6550163.720622222L19.4230222.720622222 19.4230222.720622222 19.4230222.488888889C19.4230222.218883011 19.2041392-4.95992751e-17 18.9341333 0 18.6641275 4.95992751e-17 18.4452444.218883011 18.4452444.488888889L18.4452444.720622222 18.4452444.720622222 18.2135763.720622222C17.9435704.720622222 17.7246874.939505233 17.7246874 1.20951111 17.7246874 1.47951699 17.9435704 1.6984 18.2135763 1.6984L18.4452444 1.6984 18.4452444 1.6984 18.4452444 1.93006815C18.4452444 2.20007403 18.6641275 2.41895704 18.9341333 2.41895704zM7.08040296 4.96760889C7.35040884 4.96760889 7.56929185 4.74872588 7.56929185 4.47872L7.56929185 4.24698667 7.56929185 4.24698667 7.80096 4.24698667C8.07096588 4.24698667 8.28984889 4.02810366 8.28984889 3.75809778 8.28984889 3.4880919 8.07096588 3.26920889 7.80096 3.26920889L7.56929185 3.26920889 7.56929185 3.26920889 7.56929185 3.03721481C7.56929185 2.76720894 7.35040884 2.54832593 7.08040296 2.54832593 6.81039709 2.54832593 6.59151407 2.76720894 6.59151407 3.03721481L6.59151407 3.26920889 6.59151407 3.26920889 6.35952 3.26920889C6.08951412 3.26920889 5.87063111 3.4880919 5.87063111 3.75809778 5.87063111 4.02810366 6.08951412 4.24698667 6.35952 4.24698667L6.59151407 4.24698667 6.59151407 4.24698667 6.59151407 4.47872C6.59151407 4.74872588 6.81039709 4.96760889 7.08040296 4.96760889zM2.20977185 11.2574578C2.47977773 11.2574578 2.69866074 11.0385748 2.69866074 10.7685689L2.69866074 10.5365748 2.69866074 10.5365748 2.93032889 10.5365748C3.20033477 10.5365748 3.41921778 10.3176918 3.41921778 10.0476859 3.41921778 9.77768005 3.20033477 9.55879704 2.93032889 9.55879704L2.69866074 9.55879704 2.69866074 9.55879704 2.69866074 9.32712889C2.69866074 9.05712301 2.47977773 8.83824 2.20977185 8.83824 1.93976597 8.83824 1.72088296 9.05712301 1.72088296 9.32712889L1.72088296 9.55879704 1.72088296 9.55879704 1.48888889 9.55879704C1.21888301 9.55879704 1 9.77768005 1 10.0476859 1 10.3176918 1.21888301 10.5365748 1.48888889 10.5365748L1.72088296 10.5365748 1.72088296 10.5365748 1.72088296 10.7685689C1.72088296 11.0385748 1.93976597 11.2574578 2.20977185 11.2574578z"/>
    <path d="M2.96786963 21.417677C3.23787551 21.417677 3.45675852 21.198794 3.45675852 20.9287881L3.45675852 20.6970548 3.45675852 20.6970548 3.68849185 20.6970548C3.95849773 20.6970548 4.17738074 20.4781718 4.17738074 20.2081659 4.17738074 19.93816 3.95849773 19.719277 3.68849185 19.719277L3.45675852 19.719277 3.45675852 19.719277 3.45675852 19.4876089C3.45675852 19.217603 3.23787551 18.99872 2.96786963 18.99872 2.69786375 18.99872 2.47898074 19.217603 2.47898074 19.4876089L2.47898074 19.719277 2.47898074 19.719277 2.24698667 19.719277C1.97698079 19.719277 1.75809778 19.93816 1.75809778 20.2081659 1.75809778 20.4781718 1.97698079 20.6970548 2.24698667 20.6970548L2.47898074 20.6970548 2.47898074 20.6970548 2.47898074 20.9287881C2.47898074 21.198794 2.69786375 21.417677 2.96786963 21.417677zM24.0842074 16.6067437L24.0842074 16.3750756C24.0842074 16.1050697 23.8653244 15.8861867 23.5953185 15.8861867 23.3253126 15.8861867 23.1064296 16.1050697 23.1064296 16.3750756L23.1064296 16.6067437 23.1064296 16.6067437 22.8746963 16.6067437C22.6046904 16.6067437 22.3858074 16.8256267 22.3858074 17.0956326 22.3858074 17.3656385 22.6046904 17.5845215 22.8746963 17.5845215L23.1064296 17.5845215 23.1064296 17.5845215 23.1064296 17.8162548C23.1064296 18.0862607 23.3253126 18.3051437 23.5953185 18.3051437 23.8653244 18.3051437 24.0842074 18.0862607 24.0842074 17.8162548L24.0842074 17.5845215 24.0842074 17.5845215 24.3158756 17.5845215C24.5858814 17.5845215 24.8047644 17.3656385 24.8047644 17.0956326 24.8047644 16.8256267 24.5858814 16.6067437 24.3158756 16.6067437L24.0842074 16.6067437 24.0842074 16.6067437z"/>
  </g>
</svg>
