<?xml version="1.0" encoding="UTF-8"?>
<svg width="32px" height="32px" viewBox="0 0 32 32" version="1.1" xmlns="http://www.w3.org/2000/svg" xmlns:xlink="http://www.w3.org/1999/xlink">
    <title>icone/32x32/challenge_32_white</title>
    <g id="icone/32x32/challenge_32_white" stroke="none" stroke-width="1" fill="none" fill-rule="evenodd">
        <g id="002-trendy" transform="translate(3.000000, 3.000000)" fill="#FFFFFF" stroke="#FFFFFF" stroke-width="0.1">
            <path d="M20.4548326,22.0985481 L22.1433244,22.0985481 C22.3251259,22.0985481 22.4918696,21.9977067 22.5761541,21.8367644 C22.6606993,21.6756267 22.6487704,21.4810489 22.5451259,21.3315793 L18.1906904,15.0417304 C18.0993007,14.9098607 17.9490489,14.8311822 17.7886281,14.8311822 C17.6282074,14.8311822 17.4779556,14.9098607 17.3868267,15.0417304 L16.1004622,16.8997689 L16.1004622,9.27720889 L17.7886281,9.27720889 C17.9704296,9.27720889 18.1372385,9.17636741 18.2217837,9.01516444 C18.3060681,8.85422222 18.2940741,8.65944889 18.1906904,8.50997926 L13.8362548,2.22013037 C13.7448652,2.08826074 13.5946133,2.00951704 13.4341926,2.00951704 C13.2737719,2.00951704 13.1235852,2.08826074 13.0323911,2.22013037 L8.67795556,8.50997926 C8.5743763,8.65944889 8.56238222,8.85422222 8.64666667,9.01516444 C8.73121185,9.17636741 8.89795556,9.27720889 9.07982222,9.27720889 L10.7682489,9.27720889 L10.7682489,12.3034311 L9.48188444,10.445197 C9.39042963,10.313523 9.24017778,10.2345837 9.07982222,10.2345837 C8.91940148,10.2345837 8.76914963,10.3132622 8.67776,10.445197 L4.32332444,16.7350459 C4.21994074,16.8845156 4.20794667,17.0792889 4.29223111,17.2402311 C4.3767763,17.4013689 4.54358519,17.5022104 4.72538667,17.5022104 L6.41355259,17.5022104 L6.41355259,24.7494993 L0.762601481,24.7494993 C0.492595604,24.7494993 0.273712593,24.9683823 0.273712593,25.2383881 C0.273712593,25.508394 0.492595604,25.727277 0.762601481,25.727277 L26.1057837,25.727277 C26.3757896,25.727277 26.5946726,25.508394 26.5946726,25.2383881 C26.5946726,24.9683823 26.3757896,24.7494993 26.1057837,24.7494993 L20.4548326,24.7494993 L20.4548326,24.7494993 L20.4548326,22.0985481 Z M10.7682489,17.0133215 L10.7682489,24.74976 L7.39133037,24.74976 L7.39133037,17.0133215 C7.39133037,16.7434548 7.17263407,16.5244326 6.90244148,16.5244326 L5.65831704,16.5244326 L9.07982222,11.5826133 L12.5012622,16.5244326 L11.2571378,16.5244326 C10.9869452,16.5244326 10.7682489,16.7434548 10.7682489,17.0133215 Z M15.1226844,24.74976 L11.7460267,24.74976 L11.7460267,17.5022104 L13.4341926,17.5022104 C13.6159941,17.5022104 13.7830637,17.4013689 13.8673481,17.2402311 C13.9516326,17.0792889 13.9396385,16.8847763 13.8362548,16.7350459 L11.7460267,13.7158637 L11.7460267,8.78832 C11.7460267,8.51838815 11.5270044,8.29943111 11.2571378,8.29943111 L10.0130133,8.29943111 L13.4341926,3.35728593 L16.8556978,8.29943111 L15.6115733,8.29943111 C15.3416415,8.29943111 15.1226844,8.51838815 15.1226844,8.78832 L15.1226844,18.3122015 L13.0323911,21.3315793 C12.9287467,21.4810489 12.9168178,21.6756267 13.001363,21.8367644 C13.0856474,21.9977067 13.2523911,22.0985481 13.4341926,22.0985481 L15.1226844,22.0985481 L15.1226844,24.74976 Z M19.4770548,21.6096593 L19.4770548,24.74976 L16.1004622,24.74976 L16.1004622,21.6096593 C16.1004622,21.3397274 15.88144,21.1207704 15.6115733,21.1207704 L14.3674489,21.1207704 L17.7886281,16.1789511 L21.2100681,21.1207704 L19.9659437,21.1207704 C19.696077,21.1207704 19.4770548,21.3397274 19.4770548,21.6096593 Z" id="Fill-1"></path>
            <path d="M20.51968,12.4221333 L20.7514133,12.4221333 L20.7514133,12.4221333 L20.7514133,12.6538015 C20.7514133,12.9238074 20.9702963,13.1426904 21.2403022,13.1426904 C21.5103081,13.1426904 21.7291911,12.9238074 21.7291911,12.6538015 L21.7291911,12.4221333 L21.7291911,12.4221333 L21.9608593,12.4221333 C22.2308651,12.4221333 22.4497481,12.2032503 22.4497481,11.9332444 C22.4497481,11.6632386 22.2308651,11.4443556 21.9608593,11.4443556 L21.7291911,11.4443556 L21.7291911,11.4443556 L21.7291911,11.2123615 C21.7291911,10.9423556 21.5103081,10.7234726 21.2403022,10.7234726 C20.9702963,10.7234726 20.7514133,10.9423556 20.7514133,11.2123615 L20.7514133,11.4443556 L20.7514133,11.4443556 L20.51968,11.4443556 C20.2496741,11.4443556 20.0307911,11.6632386 20.0307911,11.9332444 C20.0307911,12.2032503 20.2496741,12.4221333 20.51968,12.4221333 Z" id="Fill-2"></path>
            <path d="M19.2078459,2.85284148 C19.4778518,2.85284148 19.6967348,2.63395847 19.6967348,2.36395259 L19.6967348,2.13228444 L19.6967348,2.13228444 L19.9287289,2.13228444 C20.1987348,2.13228444 20.4176178,1.91340143 20.4176178,1.64339556 C20.4176178,1.37338968 20.1987348,1.15450667 19.9287289,1.15450667 L19.6967348,1.15450667 L19.6967348,1.15450667 L19.6967348,0.922773333 C19.6967348,0.652767456 19.4778518,0.433884444 19.2078459,0.433884444 C18.93784,0.433884444 18.718957,0.652767456 18.718957,0.922773333 L18.718957,1.15450667 L18.718957,1.15450667 L18.4872889,1.15450667 C18.217283,1.15450667 17.9984,1.37338968 17.9984,1.64339556 C17.9984,1.91340143 18.217283,2.13228444 18.4872889,2.13228444 L18.718957,2.13228444 L18.718957,2.13228444 L18.718957,2.36395259 C18.718957,2.63395847 18.93784,2.85284148 19.2078459,2.85284148 Z" id="Fill-3"></path>
            <path d="M7.35411556,5.40149333 C7.62412143,5.40149333 7.84300444,5.18261032 7.84300444,4.91260444 L7.84300444,4.68087111 L7.84300444,4.68087111 L8.07467259,4.68087111 C8.34467847,4.68087111 8.56356148,4.4619881 8.56356148,4.19198222 C8.56356148,3.92197634 8.34467847,3.70309333 8.07467259,3.70309333 L7.84300444,3.70309333 L7.84300444,3.70309333 L7.84300444,3.47109926 C7.84300444,3.20109338 7.62412143,2.98221037 7.35411556,2.98221037 C7.08410968,2.98221037 6.86522667,3.20109338 6.86522667,3.47109926 L6.86522667,3.70309333 L6.86522667,3.70309333 L6.63323259,3.70309333 C6.36322671,3.70309333 6.1443437,3.92197634 6.1443437,4.19198222 C6.1443437,4.4619881 6.36322671,4.68087111 6.63323259,4.68087111 L6.86522667,4.68087111 L6.86522667,4.68087111 L6.86522667,4.91260444 C6.86522667,5.18261032 7.08410968,5.40149333 7.35411556,5.40149333 Z" id="Fill-4"></path>
            <path d="M2.48348444,11.6913422 C2.75349032,11.6913422 2.97237333,11.4724592 2.97237333,11.2024533 L2.97237333,10.9704593 L2.97237333,10.9704593 L3.20404148,10.9704593 C3.47404736,10.9704593 3.69293037,10.7515762 3.69293037,10.4815704 C3.69293037,10.2115645 3.47404736,9.99268148 3.20404148,9.99268148 L2.97237333,9.99268148 L2.97237333,9.99268148 L2.97237333,9.76101333 C2.97237333,9.49100746 2.75349032,9.27212444 2.48348444,9.27212444 C2.21347857,9.27212444 1.99459556,9.49100746 1.99459556,9.76101333 L1.99459556,9.99268148 L1.99459556,9.99268148 L1.76260148,9.99268148 C1.4925956,9.99268148 1.27371259,10.2115645 1.27371259,10.4815704 C1.27371259,10.7515762 1.4925956,10.9704593 1.76260148,10.9704593 L1.99459556,10.9704593 L1.99459556,10.9704593 L1.99459556,11.2024533 C1.99459556,11.4724592 2.21347857,11.6913422 2.48348444,11.6913422 Z" id="Fill-5"></path>
            <path d="M3.24158222,21.8515615 C3.5115881,21.8515615 3.73047111,21.6326785 3.73047111,21.3626726 L3.73047111,21.1309393 L3.73047111,21.1309393 L3.96220444,21.1309393 C4.23221032,21.1309393 4.45109333,20.9120562 4.45109333,20.6420504 C4.45109333,20.3720445 4.23221032,20.1531615 3.96220444,20.1531615 L3.73047111,20.1531615 L3.73047111,20.1531615 L3.73047111,19.9214933 C3.73047111,19.6514875 3.5115881,19.4326044 3.24158222,19.4326044 C2.97157634,19.4326044 2.75269333,19.6514875 2.75269333,19.9214933 L2.75269333,20.1531615 L2.75269333,20.1531615 L2.52069926,20.1531615 C2.25069338,20.1531615 2.03181037,20.3720445 2.03181037,20.6420504 C2.03181037,20.9120562 2.25069338,21.1309393 2.52069926,21.1309393 L2.75269333,21.1309393 L2.75269333,21.1309393 L2.75269333,21.3626726 C2.75269333,21.6326785 2.97157634,21.8515615 3.24158222,21.8515615 Z" id="Fill-6"></path>
            <path d="M24.35792,17.0406281 L24.35792,16.80896 C24.35792,16.5389541 24.139037,16.3200711 23.8690311,16.3200711 C23.5990252,16.3200711 23.3801422,16.5389541 23.3801422,16.80896 L23.3801422,17.0406281 L23.3801422,17.0406281 L23.1484089,17.0406281 C22.878403,17.0406281 22.65952,17.2595112 22.65952,17.529517 C22.65952,17.7995229 22.878403,18.0184059 23.1484089,18.0184059 L23.3801422,18.0184059 L23.3801422,18.0184059 L23.3801422,18.2501393 C23.3801422,18.5201451 23.5990252,18.7390281 23.8690311,18.7390281 C24.139037,18.7390281 24.35792,18.5201451 24.35792,18.2501393 L24.35792,18.0184059 L24.35792,18.0184059 L24.5895881,18.0184059 C24.859594,18.0184059 25.078477,17.7995229 25.078477,17.529517 C25.078477,17.2595112 24.859594,17.0406281 24.5895881,17.0406281 L24.35792,17.0406281 L24.35792,17.0406281 Z" id="Fill-7"></path>
        </g>
    </g>
</svg>