<svg xmlns="http://www.w3.org/2000/svg" width="32" height="32" viewBox="0 0 32 32">
  <g fill="#FFF" transform="translate(4 6.875)">
    <path d="M4.35657895,14.0641232 C4.03135526,14.0641232 3.73019408,13.8625071 3.63014474,13.5490436 C3.50755263,13.1644929 3.73323355,12.7576213 4.13444408,12.6399512 C7.53004276,11.645457 10.9684474,11.3409705 14.6059375,11.7163017 L11.5363224,4.20894994 C10.7868388,2.37645058 4.74436513,3.38016431 2.75857566,3.70939795 C2.58380592,3.7385122 2.42372697,3.76495764 2.281125,3.78800642 C1.86902303,3.85302824 1.47515789,3.5871181 1.40575658,3.19067908 C1.33635526,2.79424005 1.61548026,2.41866624 2.02935526,2.3521887 L2.49895395,2.27503594 C5.50144737,1.77645443 11.7495921,0.738774069 12.9514507,3.67810013 L16.4896513,12.3308549 C16.5886875,12.5729884 16.5451217,12.8473902 16.3756711,13.0504621 C16.2064737,13.253534 15.9387467,13.3568896 15.6682336,13.315887 C11.7779605,12.7515558 8.15085526,12.9856829 4.57947368,14.0320976 C4.50500658,14.0536906 4.43028618,14.0641232 4.35657895,14.0641232 Z"/>
    <path d="M11.8782632,16.6744583 C11.6024309,16.6744583 11.3420493,16.5301001 11.2078059,16.2886945 C11.0434211,15.9929422 11.1107961,15.6280436 11.3714309,15.4043492 L15.2751283,12.054027 C15.5871809,11.7859332 16.0679243,11.8111656 16.3480625,12.1103145 C16.6279474,12.409706 16.6018586,12.8699538 16.2892993,13.1380475 L14.4443388,14.7213774 C15.7333289,14.5471772 17.0296645,14.4688113 18.324227,14.4833684 C19.5863684,14.4984108 20.8842237,14.6054056 22.197023,14.8016842 L19.5073421,7.16089217 C19.2900197,6.54415533 18.1378059,5.57756226 12.8709046,6.03368549 C12.4555099,6.06886521 12.0834276,5.7748113 12.0454342,5.37424775 C12.0079474,4.97392683 12.3159474,4.61994608 12.733875,4.58355327 C15.8455362,4.31521694 20.0825625,4.23976252 20.9475461,6.69554942 L24.0470493,15.5016393 C24.1339276,15.7478973 24.0766842,16.0198729 23.8973553,16.2149384 C23.717773,16.4097612 23.4437138,16.4983171 23.1772533,16.4476098 C21.5215,16.129294 19.8819572,15.9580051 18.3047237,15.9390809 C16.1849441,15.9114223 14.1459638,16.1462773 12.0651908,16.6518947 C12.0028816,16.6669371 11.9400658,16.6744583 11.8782632,16.6744583 Z"/>
    <path d="M11.8782632 16.6747009C11.5821678 16.6747009 11.3010164 16.5077792 11.1781711 16.2302234L9.57814145 12.608896C9.41451645 12.2389024 9.59511184 11.8116508 9.98188487 11.6549191 10.3668849 11.4989153 10.8139408 11.670932 10.9778191 12.0416534L12.5778487 15.6629807C12.7414737 16.0329743 12.5608783 16.4602259 12.1741053 16.6169576 12.0778553 16.6557766 11.9772993 16.6747009 11.8782632 16.6747009zM5.80412829 19.8248626C5.46421382 19.8248626 5.15469408 19.6048074 5.06781579 19.2746033L.252023026.97581258C.149440789.586166881.396144737.190455712.803180921.092195122 1.21072368-.00558023107 1.62333224.230245186 1.72591447.620133504L6.54170724 18.9189243C6.64428947 19.30857 6.39758553 19.7042811 5.99054934 19.8027843 5.92798684 19.8175841 5.86542434 19.8248626 5.80412829 19.8248626z"/>
  </g>
</svg>
