<svg xmlns="http://www.w3.org/2000/svg" width="32" height="32" viewBox="0 0 32 32">
  <g fill="#1E1169" transform="translate(4.229 6.945)">
    <path d="M4.12778864,13.9940223 C3.80256495,13.9940223 3.50140377,13.7924061 3.40135443,13.4789427 C3.27876232,13.094392 3.50444324,12.6875203 3.90565377,12.5698503 C7.30125245,11.575356 10.7396571,11.2708695 14.3771472,11.6462007 L11.3075321,4.13884897 C10.5580485,2.30634962 4.51557482,3.31006335 2.52978535,3.63929698 C2.35501561,3.66841123 2.19493666,3.69485668 2.05233469,3.71790546 C1.64023271,3.78292728 1.24636758,3.51701714 1.17696627,3.12057811 C1.10756495,2.72413909 1.38668995,2.34856528 1.80056495,2.28208774 L2.27016364,2.20493498 C5.27265706,1.70635347 11.5208018,0.668673108 12.7226603,3.60799917 L16.260861,12.260754 C16.3598972,12.5028875 16.3163314,12.7772893 16.1468807,12.9803612 C15.9776834,13.1834331 15.7099564,13.2867886 15.4394432,13.2457861 C11.5491702,12.6814549 7.92206495,12.915582 4.35068337,13.9619966 C4.27621627,13.9835897 4.20149587,13.9940223 4.12778864,13.9940223 Z"/>
    <path d="M11.6494728,16.6043573 C11.3736406,16.6043573 11.113259,16.4599992 10.9790156,16.2185935 C10.8146307,15.9228413 10.8820057,15.5579427 11.1426406,15.3342482 L15.046338,11.983926 C15.3583906,11.7158323 15.839134,11.7410646 16.1192722,12.0402135 C16.3991571,12.3396051 16.3730682,12.7998528 16.060509,13.0679465 L14.2155485,14.6512764 C15.5045386,14.4770762 16.8008742,14.3987103 18.0954367,14.4132675 C19.3575781,14.4283098 20.6554334,14.5353047 21.9682327,14.7315832 L19.2785518,7.09079121 C19.0612294,6.47405437 17.9090156,5.5074613 12.6421143,5.96358453 C12.2267196,5.99876425 11.8546373,5.70471034 11.8166439,5.30414679 C11.7791571,4.90382587 12.0871571,4.54984512 12.5050847,4.51345231 C15.6167459,4.24511598 19.8537722,4.16966155 20.7187557,6.62544846 L23.818259,15.4315383 C23.9051373,15.6777963 23.8478939,15.949772 23.668565,16.1448374 C23.4889827,16.3396603 23.2149235,16.4282161 22.948463,16.3775088 C21.2927097,16.059193 19.6531669,15.8879042 18.0759334,15.8689799 C15.9561538,15.8413214 13.9171735,16.0761763 11.8364005,16.5817938 C11.7740913,16.5968361 11.7112755,16.6043573 11.6494728,16.6043573 Z"/>
    <path d="M11.6494728 16.6045999C11.3533775 16.6045999 11.0722261 16.4376782 10.9493807 16.1601224L9.34935114 12.5387951C9.18572614 12.1688015 9.36632153 11.7415499 9.75309456 11.5848182 10.1380946 11.4288143 10.5851505 11.600831 10.7490288 11.9715524L12.3490584 15.5928798C12.5126834 15.9628734 12.332088 16.390125 11.945315 16.5468567 11.849065 16.5856757 11.748509 16.6045999 11.6494728 16.6045999zM5.57533798 19.7547617C5.2354235 19.7547617 4.92590377 19.5347065 4.83902548 19.2045024L.0232327149.905711619C-.0793495219.516065919.167354425.120354751.57439061.0220941608.981933373-.0756811922 1.39454193.160144225 1.49712416.550032543L6.31291693 18.8488233C6.41549916 19.238469 6.16879521 19.6341802 5.76175903 19.7326834 5.69919653 19.7474831 5.63663403 19.7547617 5.57533798 19.7547617z"/>
  </g>
</svg>
