<svg xmlns="http://www.w3.org/2000/svg" width="32" height="32" viewBox="0 0 32 32">
  <path fill="#FFF" d="M0.494318182,0.0987763636 C0.21321513,0.125269506 -0.00121747263,0.361884792 -1.21113853e-16,0.644230909 L1.21116394e-16,2.82604909 C3.01038009e-05,3.12728285 0.244220789,3.37147353 0.545454545,3.37150364 L1.09090909,3.37150364 L1.09090909,14.8260491 L0.545454545,14.8260491 C0.528418463,14.8252497 0.511354265,14.8252497 0.494318182,14.8260491 C0.21321513,14.8525422 -0.00121747263,15.0891575 -1.21113853e-16,15.3715036 L1.21116394e-16,17.5533218 C3.01038009e-05,17.8545556 0.244220789,18.0987463 0.545454545,18.0987764 L23.4545455,18.0987764 C23.7557792,18.0987463 23.9999699,17.8545556 24,17.5533218 L24,15.3715036 C23.9999699,15.0702699 23.7557792,14.8260792 23.4545455,14.8260491 L22.9090909,14.8260491 L22.9090909,5.00786727 C22.9124748,4.85077844 22.8479589,4.69985909 22.7320656,4.59375961 C22.6161723,4.48766014 22.4601578,4.43668539 22.3039773,4.45389 C22.0229612,4.48477092 21.8121015,4.72522493 21.8181818,5.00786727 L21.8181818,14.8260491 L20.1818182,14.8260491 L20.1818182,12.0987764 C20.1817881,11.7975426 19.9375974,11.5533519 19.6363636,11.5533218 L14.1818182,11.5533218 C14.1647821,11.5525225 14.1477179,11.5525225 14.1306818,11.5533218 C13.8495788,11.579815 13.6351462,11.8164303 13.6363636,12.0987764 L13.6363636,14.8260491 L2.18181818,14.8260491 L2.18181818,3.37150364 L23.4545455,3.37150364 C23.7557792,3.37147353 23.9999699,3.12728285 24,2.82604909 L24,0.644230909 C23.9999699,0.342997152 23.7557792,0.0988064674 23.4545455,0.0987763636 L0.545454545,0.0987763636 C0.528418463,0.0979769985 0.511354265,0.0979769985 0.494318182,0.0987763636 Z M1.09090909,1.18968545 L22.9090909,1.18968545 L22.9090909,2.28059455 L1.09090909,2.28059455 L1.09090909,1.18968545 Z M14.7272727,12.6442309 L19.0909091,12.6442309 L19.0909091,14.8260491 L14.7272727,14.8260491 L14.7272727,12.6442309 Z M1.09090909,15.9169582 L22.9090909,15.9169582 L22.9090909,17.0078673 L1.09090909,17.0078673 L1.09090909,15.9169582 Z" transform="translate(4 7.174)"/>
</svg>
