<svg xmlns="http://www.w3.org/2000/svg" width="32" height="32" viewBox="0 0 32 32">
  <path fill="#1E1169" d="M0.49432334,0.000599523815 C0.213220288,0.0270926661 -0.00121231426,0.263707952 0,0.546054069 L0,2.72787225 C0,3.02910601 0.244225947,3.27329669 0.545459704,3.2733268 L1.09091425,3.2733268 L1.09091425,14.7278723 L0.545459704,14.7278723 C0.528423621,14.7270729 0.511359423,14.7270729 0.49432334,14.7278723 C0.213220288,14.7543654 -0.00121231426,14.9909807 0,15.2733268 L0,17.455145 C0,17.7563787 0.244225947,18.0005995 0.545459704,18.0005995 L23.4545506,18.0005995 C23.7557844,18.0005995 24,17.7563787 24,17.455145 L24,15.2733268 C24,14.972093 23.7557844,14.7279024 23.4545506,14.7278723 L22.9090961,14.7278723 L22.9090961,4.90969043 C22.91248,4.7526016 22.847964,4.60168225 22.7320707,4.49558277 C22.6161775,4.3894833 22.4601629,4.33850855 22.3039824,4.35571316 C22.0229664,4.38659408 21.8121067,4.62704809 21.818187,4.90969043 L21.818187,14.7278723 L20.1818233,14.7278723 L20.1818233,12.0005995 C20.1817932,11.6993658 19.9376025,11.4551751 19.6363688,11.455145 L14.1818233,11.455145 C14.1647873,11.4543456 14.1477231,11.4543456 14.130687,11.455145 C13.8495839,11.4816381 13.6351513,11.7182534 13.6363688,12.0005995 L13.6363688,14.7278723 L2.18182334,14.7278723 L2.18182334,3.2733268 L23.4545506,3.2733268 C23.7557844,3.27329669 24,3.02910601 24,2.72787225 L24,0.546054069 C24,0.244820312 23.7557844,0.000629627616 23.4545506,0.000599523815 L0.545459704,0.000599523815 C0.528423621,-0.000199841272 0.511359423,-0.000199841272 0.49432334,0.000599523815 Z M1.09091425,1.09150861 L22.9090961,1.09150861 L22.9090961,2.18241771 L1.09091425,2.18241771 L1.09091425,1.09150861 Z M14.7272779,12.5460541 L19.0909142,12.5460541 L19.0909142,14.7278723 L14.7272779,14.7278723 L14.7272779,12.5460541 Z M1.09091425,15.8187813 L22.9090961,15.8187813 L22.9090961,16.9096904 L1.09091425,16.9096904 L1.09091425,15.8187813 Z" transform="translate(4 7.272)"/>
</svg>
