<svg xmlns="http://www.w3.org/2000/svg" width="32" height="32" viewBox="0 0 32 32">
  <path fill="#FFF" fill-rule="evenodd" d="M6.29401661.595621275C6.54084397.602875451 6.80776966.636013848 7.09446146.6953662 7.4196889.766589022 7.70006883.871609712 7.93560126 1.0102634 8.13425909 1.12402208 8.28923212 1.31164146 8.40035426 1.57295667 8.53223913 1.87730234 8.62475787 2.29590129 8.67824267 2.82875352 8.73338848 3.39523875 8.68704606 4.16088409 8.53954762 5.12535981 8.39188306 6.08983553 8.08260141 7.68756788 7.61120434 9.91855685 7.13980727 12.1495458 6.80594254 13.4162239 6.60961014 13.7187561 6.41344385 14.0211233 6.15598597 14.2339674 5.83723651 14.3564641 5.66764651 14.4197733 5.38560556 14.4590118 4.99127975 14.4750039 4.59678784 14.4906664 4.20196373 14.4616497 3.80680741 14.3874592 3.41148499 14.3132688 3.07296941 14.1919262 2.79159286 14.0235963 2.50988411 13.8552665 2.39444332 13.611757 2.4457688 13.2925732 2.4814807 13.1313326 2.89823026 11.5815768 3.69585137 8.64330561 4.05861783 7.28924765 4.33617403 6.06625946 4.52818778 4.97467078 3.95214654 5.3083629 3.27395266 5.70091276 2.49393834 6.15297984 1.66807991 6.30597702 1.03307251 5.95612787.588583938 5.10326755L.207712381 4.37240928C-.261691466 3.45640464.0645325804 2.70262977 1.18605232 2.11108466 2.02685992 1.5610862 2.92447435 1.13177086 3.87906172.82346836 4.74827274.550117805 5.55320233.474113821 6.29401661.595621275M21.7062923 10.3147668C21.8464823 10.5833362 21.9660756 10.9714346 22.0652384 11.4793918 22.1642351 11.9875139 22.1854962 12.3912748 22.1288554 12.6908393 22.115069 12.8278443 22.0556045 12.9734224 21.950462 13.1279034L21.9461434 13.1588985 21.9401637 13.1801664C21.9336857 13.1814854 21.9277061 13.1861017 21.9225569 13.1936856L21.9067772 13.2169319C21.9002993 13.218086 21.8943196 13.2227023 21.8891704 13.2302862L21.8733908 13.2535325C21.8602687 13.2560056 21.8551196 13.2635895 21.8576111 13.276614 21.850967 13.2779329 21.8483094 13.2817249 21.8496382 13.2881547 21.459631 13.4033972 20.8073491 13.5621648 19.8931244 13.7647871 18.9788998 13.9670797 17.8783089 14.1683831 16.59185 14.3686973 15.305059 14.5688466 14.0958374 14.7055219 12.9635211 14.7785582 11.8313708 14.8517595 11.0900582 14.7709743 10.7399155 14.5360379 9.98215885 14.0506676 9.90110115 13.1915423 10.4962441 11.9594864 11.0913871 10.7272656 12.2228729 9.40222436 13.8910338 7.98403288 15.5590287 6.56600626 16.2348971 5.52156974 15.9179748 4.85055842 15.6012186 4.17987684 15.0314892 3.88641244 14.209285 3.97049493 13.9970068 3.95747039 13.739549 4.01533893 13.4365792 4.1439357 13.1336094 4.27269733 12.5971004 4.55692915 11.8273844 4.99679602 11.0575023 5.43682777 10.429305 5.36461574 9.94362322 4.77966533 9.45744309 4.19504467 9.45777529 3.43302641 9.94412153 2.49361057 10.4306339 1.55419473 11.7346995.783603363 13.8559864.181341857 14.5041158.0367529328 15.138791-.0212804782 15.7598458.00691188908 16.8748876-.032491478 18.0158413.433094751 19.1827068 1.40383544 20.3492401 2.374741 20.7854236 3.53639843 20.4912572 4.88864285 20.1967586 6.24105214 19.3162527 7.57136916 17.8502377 8.88025339 16.3838905 10.1891376 15.4706625 11.0124866 15.1103876 11.3501356L21.1566613 10.0981307C21.1814104 10.0867548 21.2161257 10.0734005 21.2604749 10.0580678 21.3059868 10.0493299 21.3420309 10.0424054 21.3681089 10.0372945 21.4098005 10.0429 21.4415259 10.0501542 21.4636175 10.0592219L21.5435125 10.1043957C21.5823803 10.1306096 21.6114481 10.1584722 21.6308821 10.1883133 21.6566279 10.2170003 21.6818753 10.2590415 21.7062923 10.3147668" transform="translate(5 9)"/>
</svg>
