<?xml version="1.0" encoding="UTF-8"?>
<svg width="32px" height="32px" viewBox="0 0 32 32" version="1.1" xmlns="http://www.w3.org/2000/svg" xmlns:xlink="http://www.w3.org/1999/xlink">
    <title>icone/32x32/coinmath_32_bicolore</title>
    <g id="icone/32x32/coinmath_32_bicolore" stroke="none" stroke-width="1" fill="none" fill-rule="evenodd">
        <g id="noun_Ruler_2376504" transform="translate(2.666667, 1.666667)" fill="#1E1169" fill-rule="nonzero" stroke="#1E1169" stroke-width="0.4">
            <g id="Group-2" transform="translate(0.373064, 0.373064)">
                <path d="M18.7148807,7.383777 C18.577534,7.31510364 18.4058506,7.34944032 18.3028405,7.45245035 L7.48678703,18.3028405 C7.383777,18.4058506 7.34944032,18.577534 7.41811367,18.7148807 C7.48678703,18.8522274 7.62413374,18.9552374 7.76148045,18.9552374 L18.577534,18.9552374 C18.783554,18.9552374 18.9552374,18.783554 18.9552374,18.577534 L18.9552374,7.72714377 C18.9552374,7.58979706 18.8522274,7.45245035 18.7148807,7.383777 Z M18.1998305,18.1998305 L8.65423408,18.1998305 L18.1998305,8.65423408 L18.1998305,18.1998305 Z" id="Shape"></path>
                <path d="M21.7365083,0.0357279435 C21.5991616,-0.0329454121 21.4274782,0.0013912657 21.3244682,0.104401299 L0.104401299,21.3244682 C0.0013912657,21.4274782 -0.0329454121,21.5991616 0.0357279435,21.7365083 C0.104401299,21.873855 0.24174801,21.9768651 0.379094722,21.9768651 L21.5991616,21.9768651 C21.8051817,21.9768651 21.9768651,21.8051817 21.9768651,21.5991616 L21.9768651,0.379094722 C21.9768651,0.24174801 21.873855,0.104401299 21.7365083,0.0357279435 Z M18.9552374,21.2214582 L18.9552374,20.0883478 C18.9552374,19.8823277 18.783554,19.7106443 18.577534,19.7106443 C18.3715139,19.7106443 18.1998305,19.8823277 18.1998305,20.0883478 L18.1998305,21.2214582 L16.6890167,21.2214582 L16.6890167,20.0883478 C16.6890167,19.8823277 16.5173333,19.7106443 16.3113132,19.7106443 C16.1052932,19.7106443 15.9336098,19.8823277 15.9336098,20.0883478 L15.9336098,21.2214582 L14.4227959,21.2214582 L14.4227959,20.0883478 C14.4227959,19.8823277 14.2511126,19.7106443 14.0450925,19.7106443 C13.8390724,19.7106443 13.667389,19.8823277 13.667389,20.0883478 L13.667389,21.2214582 L12.1565752,21.2214582 L12.1565752,20.0883478 C12.1565752,19.8823277 11.9848918,19.7106443 11.7788718,19.7106443 C11.5728517,19.7106443 11.4011683,19.8823277 11.4011683,20.0883478 L11.4011683,21.2214582 L9.89035448,21.2214582 L9.89035448,20.0883478 C9.89035448,19.8823277 9.71867109,19.7106443 9.51265102,19.7106443 C9.30663095,19.7106443 9.13494756,19.8823277 9.13494756,20.0883478 L9.13494756,21.2214582 L7.62413374,21.2214582 L7.62413374,20.0883478 C7.62413374,19.8823277 7.45245035,19.7106443 7.24643028,19.7106443 C7.04041022,19.7106443 6.86872683,19.8823277 6.86872683,20.0883478 L6.86872683,21.2214582 L5.357913,21.2214582 L5.357913,20.0883478 C5.357913,19.8823277 5.18622962,19.7106443 4.98020955,19.7106443 C4.77418948,19.7106443 4.60250609,19.8823277 4.60250609,20.0883478 L4.60250609,21.2214582 L1.30618502,21.2214582 L21.2214582,1.30618502 L21.2214582,4.56816942 L20.0883478,4.56816942 C19.8823277,4.56816942 19.7106443,4.7398528 19.7106443,4.94587287 C19.7106443,5.15189294 19.8823277,5.32357633 20.0883478,5.32357633 L21.2214582,5.32357633 L21.2214582,6.83439015 L20.0883478,6.83439015 C19.8823277,6.83439015 19.7106443,7.00607354 19.7106443,7.21209361 C19.7106443,7.41811367 19.8823277,7.58979706 20.0883478,7.58979706 L21.2214582,7.58979706 L21.2214582,9.10061089 L20.0883478,9.10061089 C19.8823277,9.10061089 19.7106443,9.27229428 19.7106443,9.47831434 C19.7106443,9.68433441 19.8823277,9.8560178 20.0883478,9.8560178 L21.2214582,9.8560178 L21.2214582,11.3668316 L20.0883478,11.3668316 C19.8823277,11.3668316 19.7106443,11.538515 19.7106443,11.7445351 C19.7106443,11.9505551 19.8823277,12.1222385 20.0883478,12.1222385 L21.2214582,12.1222385 L21.2214582,13.6330524 L20.0883478,13.6330524 C19.8823277,13.6330524 19.7106443,13.8047357 19.7106443,14.0107558 C19.7106443,14.2167759 19.8823277,14.3884593 20.0883478,14.3884593 L21.2214582,14.3884593 L21.2214582,15.8992731 L20.0883478,15.8992731 C19.8823277,15.8992731 19.7106443,16.0709565 19.7106443,16.2769765 C19.7106443,16.4829966 19.8823277,16.65468 20.0883478,16.65468 L21.2214582,16.65468 L21.2214582,18.1998305 L20.0883478,18.1998305 C19.8823277,18.1998305 19.7106443,18.3715139 19.7106443,18.577534 C19.7106443,18.783554 19.8823277,18.9552374 20.0883478,18.9552374 L21.2214582,18.9552374 L21.2214582,21.2214582 L18.9552374,21.2214582 Z" id="Shape"></path>
            </g>
        </g>
        <path d="M30,15.3334143 C30,14.5970173 29.4030189,14 28.6666667,14 C27.9303144,14 27.3333333,14.5970173 27.3333333,15.3334143 C27.3333333,16.0698112 27.9303144,16.6666667 28.6666667,16.6666667 C29.4030189,16.6666667 30,16.0698112 30,15.3334143 Z" id="Stroke-1" stroke="#28DCF0" stroke-linecap="round" stroke-linejoin="round"></path>
        <g id="Group-8" transform="translate(14.500000, 29.472222) rotate(-19.000000) translate(-14.500000, -29.472222) translate(13.222222, 28.194444)" stroke="#28DCF0" stroke-linecap="round" stroke-linejoin="round">
            <line x1="1.27777778" y1="-4.54747074e-13" x2="1.27777778" y2="2.55555556" id="Stroke-1"></line>
            <line x1="2.55555556" y1="1.27777778" x2="1.8189894e-12" y2="1.27777778" id="Stroke-3"></line>
        </g>
        <path d="M4.72169032,6.77251988 C4.8165144,6.66792704 5.01828985,6.63531938 5.17236839,6.69968863 C6.26007601,7.15409918 6.27402098,8.21938592 5.22383938,8.68513684 L5.17088001,8.70800676 C4.49696792,8.98951412 4.4851449,9.64785946 5.12347074,9.93792796 L5.15828866,9.95311079 L5.17236839,9.95867346 C6.26007601,10.413084 6.27402098,11.4783707 5.22383938,11.9441217 L5.18091067,11.9626289 C5.03037669,12.0307534 4.82699018,12.0031405 4.72663419,11.9009538 C4.631296,11.8038764 4.66324035,11.6744194 4.79573721,11.6033082 L4.81748949,11.5925782 L4.82901709,11.5875389 C5.50306021,11.3060283 5.51488553,10.6477075 4.87641162,10.3576278 L4.84158563,10.3424444 L4.82748307,10.3368722 C3.73996718,9.88245844 3.72602467,8.81719649 4.77604141,8.35143395 L4.82901709,8.32855403 C5.5150967,8.04201655 5.5150967,7.3650911 4.82898002,7.0784528 C4.67490147,7.01408355 4.62686623,6.87711272 4.72169032,6.77251988 Z" id="Stroke-1" stroke="#28DCF0" stroke-width="0.5" fill="#28DCF0" fill-rule="nonzero" transform="translate(5.000000, 9.333333) rotate(-241.000000) translate(-5.000000, -9.333333) "></path>
    </g>
</svg>