<?xml version="1.0" encoding="UTF-8"?>
<svg width="32px" height="32px" viewBox="0 0 32 32" version="1.1" xmlns="http://www.w3.org/2000/svg" xmlns:xlink="http://www.w3.org/1999/xlink">
    <title>icone/32x32/coinlecture_32_bicolore</title>
    <g id="icone/32x32/coinlecture_32_bicolore" stroke="none" stroke-width="1" fill="none" fill-rule="evenodd">
        <g id="noun_Book_1195058" transform="translate(5.333333, 8.666667)" fill="#1E1169" fill-rule="nonzero">
            <path d="M0.848571314,17.872093 L6.4204073,17.872093 C7.37301436,17.874152 8.27951881,18.2971633 8.91224369,19.0348837 L8.99081511,19.1209302 C9.09239148,19.2295841 9.2019738,19.3298867 9.31857017,19.4209302 C9.36571302,19.455814 9.41061097,19.4906977 9.45326403,19.5186047 C9.55617149,19.5893052 9.6634041,19.6530053 9.77428439,19.7093023 L9.83040683,19.7372093 C9.88877417,19.7674419 9.94938641,19.7930233 10.0099986,19.8162791 C10.0872019,19.8461691 10.1658843,19.8717867 10.2457129,19.8930233 C10.2995904,19.9093023 10.3714272,19.9302326 10.4567333,19.9465116 C10.5782314,19.9714965 10.7012415,19.9878139 10.8248965,19.9953488 L11,20 C11.1854848,19.9996214 11.3704757,19.9801458 11.5522433,19.9418605 C11.6240801,19.927907 11.6846923,19.9116279 11.7161209,19.9 C11.8089797,19.8760301 11.9004245,19.8465236 11.9899984,19.8116279 L12.0169372,19.8116279 L12.1583657,19.7488372 L12.1987739,19.727907 L12.2122432,19.727907 C12.3319997,19.6682287 12.4475267,19.5998407 12.5579575,19.5232558 L12.6746922,19.4395349 C12.7990054,19.3358557 12.9146536,19.2214967 13.0204064,19.0976744 L13.0473452,19.0697674 L13.094488,19.0162791 C13.7204419,18.2849771 14.6204103,17.868826 15.5638754,17.8744186 L21.1514257,17.8744186 C21.3768703,17.8744194 21.5930487,17.7814842 21.7522513,17.6161234 C21.911454,17.4507625 22.0005934,17.2265697 22,16.9930233 L22,3.19302326 C21.9938554,2.71207347 21.61573,2.32553931 21.1514257,2.3255814 L19.4767321,2.3255814 L19.4767321,0.586046512 C19.4779291,0.431046579 19.4193291,0.281968698 19.3139491,0.171927887 C19.2085691,0.0618870764 19.0651348,0 18.9155076,0 L15.4224469,0 C13.7811228,0.00326829422 12.2015601,0.648664882 11,1.80697674 C9.79843691,0.648664882 8.2188742,0.00326829422 6.57755013,0 L3.08448938,0 C2.77453369,0 2.52326497,0.260299564 2.52326497,0.581395349 L2.52326497,2.3255814 L0.848571314,2.3255814 C0.384266988,2.32553931 0.00614158986,2.71207347 0,3.19302326 L0,16.9930233 C0,17.2261671 0.0894027925,17.4497619 0.248540784,17.6146194 C0.407678775,17.779477 0.623516209,17.872093 0.848571314,17.872093 Z M15.4224469,1.1627907 L18.3542832,1.1627907 L18.3542832,14.0837209 L15.4224469,14.0837209 C14.0320888,14.0846699 12.678698,14.5476669 11.5612229,15.4046512 L11.5612229,2.86744186 C12.5719029,1.78030995 13.965484,1.1650725 15.4224469,1.1627907 Z M3.64571379,1.1627907 L6.57755013,1.1627907 C8.03385139,1.16385441 9.42733556,1.77737051 10.4387741,2.8627907 C10.4387741,2.8627907 10.4387741,2.8627907 10.4387741,2.8627907 L10.4387741,15.4046512 C9.32129907,14.5476669 7.96790821,14.0846699 6.57755013,14.0837209 L3.64571379,14.0837209 L3.64571379,1.1627907 Z M1.12244883,3.48837209 L2.52326497,3.48837209 L2.52326497,14.6744186 C2.52326497,14.9955144 2.77453369,15.255814 3.08448938,15.255814 L6.57755013,15.255814 C8.1065489,15.257616 9.56236135,15.9342894 10.5802027,17.1162791 C10.6866823,17.2398458 10.8389837,17.3104965 10.9988761,17.3104965 C11.1587685,17.3104965 11.3110698,17.2398458 11.4175495,17.1162791 C12.4353908,15.9342894 13.8912032,15.257616 15.420202,15.255814 L18.9155076,15.255814 C19.2254633,15.255814 19.4767321,14.9955144 19.4767321,14.6744186 L19.4767321,3.48837209 L20.8775482,3.48837209 L20.8775482,16.7209302 L15.5795897,16.7209302 C14.3086805,16.7123205 13.0963211,17.2737165 12.2548963,18.2604651 L12.2369371,18.2813953 L12.216733,18.3023256 C12.1474225,18.3739603 12.0723183,18.4393152 11.9922433,18.4976744 L11.9248963,18.5465116 C11.8603036,18.5915696 11.7927975,18.6319749 11.7228556,18.6674419 L11.7093862,18.6674419 L11.6757127,18.6837209 L11.5859168,18.7232558 C11.5308252,18.7443977 11.4746109,18.7622563 11.4175495,18.7767442 L11.3210189,18.8 C11.2154195,18.82309 11.1079127,18.8355511 10.9999985,18.8372093 L10.901223,18.8372093 C10.8258139,18.8324605 10.750808,18.8223592 10.6767333,18.8069767 C10.6295904,18.8069767 10.5914271,18.7860465 10.5465292,18.772093 C10.4993854,18.7600278 10.4529202,18.7452767 10.4073455,18.727907 L10.30857,18.6837209 L10.265917,18.6627907 C10.1976641,18.6285851 10.1316698,18.5897407 10.068366,18.5465116 L9.98979457,18.4906977 C9.91786283,18.4342409 9.85030938,18.3720352 9.78775378,18.3046512 L9.74510072,18.2581395 C8.90004071,17.2753793 7.6908731,16.7120781 6.4204073,16.7093023 L1.12244883,16.7093023 L1.12244883,3.48837209 Z" id="Shape"></path>
            <path d="M5.23027914,3.969093 L6.16587583,3.969093 C6.99009522,3.97083293 7.80299196,4.19050082 8.542066,4.61120739 C8.81828711,4.75177102 9.14150468,4.61637204 9.27507613,4.30414232 C9.40864758,3.99191261 9.30512383,3.61376666 9.04029942,3.44656268 C8.14376154,2.93497529 7.15716197,2.66812573 6.15685803,2.66666667 L5.23027914,2.66666667 C4.91900456,2.66666667 4.66666667,2.95764278 4.66666667,3.31658001 C4.66666667,3.67551724 4.91900456,3.96649335 5.23027914,3.96649335 L5.23027914,3.969093 Z" id="Path"></path>
            <path d="M5.23027914,6.63575967 L6.16587583,6.63575967 C6.99009522,6.63749959 7.80299196,6.85716749 8.542066,7.27787405 C8.81828711,7.41843769 9.14150468,7.28303871 9.27507613,6.97080899 C9.40864758,6.65857928 9.30512383,6.28043333 9.04029942,6.11322934 C8.14376154,5.60164195 7.15716197,5.33479239 6.15685803,5.33333333 L5.23027914,5.33333333 C4.91900456,5.33333333 4.66666667,5.62430945 4.66666667,5.98324668 C4.66666667,6.3421839 4.91900456,6.63316002 5.23027914,6.63316002 L5.23027914,6.63575967 Z" id="Path"></path>
            <path d="M5.23027914,9.30242634 L6.16587583,9.30242634 C6.99009522,9.30416626 7.80299196,9.52383415 8.542066,9.94454072 C8.81828711,10.0851044 9.14150468,9.94970537 9.27507613,9.63747566 C9.40864758,9.32524594 9.30512383,8.94709999 9.04029942,8.77989601 C8.14376154,8.26830862 7.15716197,8.00145906 6.15685803,8 L5.23027914,8 C4.91900456,8 4.66666667,8.29097611 4.66666667,8.64991334 C4.66666667,9.00885057 4.91900456,9.29982668 5.23027914,9.29982668 L5.23027914,9.30242634 Z" id="Path"></path>
            <path d="M8.50665769,12.5877714 C8.68664998,12.70108 8.90619239,12.6917685 9.07843418,12.5635205 C9.25067597,12.4352726 9.34786821,12.2087495 9.33156174,11.9735636 C9.31525527,11.7383777 9.18807716,11.5324185 9.00033891,11.4371632 C8.11201963,10.9316545 7.1344164,10.6680162 6.14324262,10.6666667 L5.22512958,10.6666667 C4.91669903,10.6666667 4.66666667,10.9541359 4.66666667,11.3087471 C4.66666667,11.6633584 4.91669903,11.9508276 5.22512958,11.9508276 L6.15217803,11.9508276 C6.96904227,11.9533453 7.77452078,12.1712468 8.50665769,12.5877714 Z" id="Path"></path>
            <path d="M13.2343766,4.66666667 C13.3196969,4.66635666 13.4038133,4.64334041 13.4802246,4.59939676 C14.2163558,4.17893394 15.026212,3.96026737 15.8470704,3.96033261 L16.7745879,3.96033261 C17.0831745,3.96033261 17.3333333,3.67073872 17.3333333,3.31350656 C17.3333333,2.95627439 17.0831745,2.66666667 16.7745879,2.66666667 L15.8470704,2.66666667 C15.0845336,2.66498012 14.3277936,2.82003786 13.6120885,3.12463335 C13.3958447,3.21680394 13.1839697,3.32216856 12.9773537,3.44028446 C12.7448449,3.57367982 12.6222718,3.8748321 12.6814393,4.16732263 C12.7406067,4.45981316 12.9659402,4.66666667 13.2254367,4.66666667 L13.2343766,4.66666667 Z" id="Path"></path>
            <path d="M13.2343766,7.33333333 C13.3196969,7.33302332 13.4038133,7.31000708 13.4802246,7.26606342 C14.2163558,6.84560061 15.026212,6.62693403 15.8470704,6.62699928 L16.7745879,6.62699928 C17.0831745,6.62699928 17.3333333,6.33740539 17.3333333,5.98017322 C17.3333333,5.62294106 17.0831745,5.33333333 16.7745879,5.33333333 L15.8470704,5.33333333 C15.0845336,5.33164678 14.3277936,5.48670453 13.6120885,5.79130002 C13.3958447,5.88347061 13.1839697,5.98883523 12.9773537,6.10695113 C12.7448449,6.24034649 12.6222718,6.54149876 12.6814393,6.83398929 C12.7406067,7.12647982 12.9659402,7.33333333 13.2254367,7.33333333 L13.2343766,7.33333333 Z" id="Path"></path>
            <path d="M13.2343766,10 C13.3196969,9.99968999 13.4038133,9.97667374 13.4802246,9.93273009 C14.2163558,9.51226727 15.026212,9.2936007 15.8470704,9.29366595 L16.7745879,9.29366595 C17.0831745,9.29366595 17.3333333,9.00407206 17.3333333,8.64683989 C17.3333333,8.28960772 17.0831745,8 16.7745879,8 L15.8470704,8 C15.0845336,7.99831345 14.3277936,8.15337119 13.6120885,8.45796668 C13.3958447,8.55013728 13.1839697,8.6555019 12.9773537,8.7736178 C12.7448449,8.90701316 12.6222718,9.20816543 12.6814393,9.50065596 C12.7406067,9.79314649 12.9659402,10 13.2254367,10 L13.2343766,10 Z" id="Path"></path>
            <path d="M13.2343766,12.6640794 C13.3196969,12.6637694 13.4038133,12.6407531 13.4802246,12.5968095 C14.2165679,12.1773297 15.0263972,11.9595558 15.8470704,11.9603333 L16.7745879,11.9603333 C17.0831745,11.9603333 17.3333333,11.6707396 17.3333333,11.3135078 C17.3333333,10.956276 17.0831745,10.6666667 16.7745879,10.6666667 L15.8470704,10.6666667 C15.0845253,10.6648722 14.3277687,10.8199332 13.6120885,11.1246348 C13.3958447,11.2168053 13.1839697,11.3221698 12.9773537,11.4402856 C12.7448449,11.5736808 12.6222718,11.8748328 12.6814393,12.1673231 C12.7406067,12.4598133 12.9659402,12.6666667 13.2254367,12.6666667 L13.2343766,12.6640794 Z" id="Path"></path>
        </g>
        <g id="noun_Book_1195058" transform="translate(5.333333, 8.666667)" fill="#1E1169" fill-rule="nonzero">
            <path d="M0.848571314,17.872093 L6.4204073,17.872093 C7.37301436,17.874152 8.27951881,18.2971633 8.91224369,19.0348837 L8.99081511,19.1209302 C9.09239148,19.2295841 9.2019738,19.3298867 9.31857017,19.4209302 C9.36571302,19.455814 9.41061097,19.4906977 9.45326403,19.5186047 C9.55617149,19.5893052 9.6634041,19.6530053 9.77428439,19.7093023 L9.83040683,19.7372093 C9.88877417,19.7674419 9.94938641,19.7930233 10.0099986,19.8162791 C10.0872019,19.8461691 10.1658843,19.8717867 10.2457129,19.8930233 C10.2995904,19.9093023 10.3714272,19.9302326 10.4567333,19.9465116 C10.5782314,19.9714965 10.7012415,19.9878139 10.8248965,19.9953488 L11,20 C11.1854848,19.9996214 11.3704757,19.9801458 11.5522433,19.9418605 C11.6240801,19.927907 11.6846923,19.9116279 11.7161209,19.9 C11.8089797,19.8760301 11.9004245,19.8465236 11.9899984,19.8116279 L12.0169372,19.8116279 L12.1583657,19.7488372 L12.1987739,19.727907 L12.2122432,19.727907 C12.3319997,19.6682287 12.4475267,19.5998407 12.5579575,19.5232558 L12.6746922,19.4395349 C12.7990054,19.3358557 12.9146536,19.2214967 13.0204064,19.0976744 L13.0473452,19.0697674 L13.094488,19.0162791 C13.7204419,18.2849771 14.6204103,17.868826 15.5638754,17.8744186 L21.1514257,17.8744186 C21.3768703,17.8744194 21.5930487,17.7814842 21.7522513,17.6161234 C21.911454,17.4507625 22.0005934,17.2265697 22,16.9930233 L22,3.19302326 C21.9938554,2.71207347 21.61573,2.32553931 21.1514257,2.3255814 L19.4767321,2.3255814 L19.4767321,0.586046512 C19.4779291,0.431046579 19.4193291,0.281968698 19.3139491,0.171927887 C19.2085691,0.0618870764 19.0651348,0 18.9155076,0 L15.4224469,0 C13.7811228,0.00326829422 12.2015601,0.648664882 11,1.80697674 C9.79843691,0.648664882 8.2188742,0.00326829422 6.57755013,0 L3.08448938,0 C2.77453369,0 2.52326497,0.260299564 2.52326497,0.581395349 L2.52326497,2.3255814 L0.848571314,2.3255814 C0.384266988,2.32553931 0.00614158986,2.71207347 0,3.19302326 L0,16.9930233 C0,17.2261671 0.0894027925,17.4497619 0.248540784,17.6146194 C0.407678775,17.779477 0.623516209,17.872093 0.848571314,17.872093 Z M15.4224469,1.1627907 L18.3542832,1.1627907 L18.3542832,14.0837209 L15.4224469,14.0837209 C14.0320888,14.0846699 12.678698,14.5476669 11.5612229,15.4046512 L11.5612229,2.86744186 C12.5719029,1.78030995 13.965484,1.1650725 15.4224469,1.1627907 Z M3.64571379,1.1627907 L6.57755013,1.1627907 C8.03385139,1.16385441 9.42733556,1.77737051 10.4387741,2.8627907 C10.4387741,2.8627907 10.4387741,2.8627907 10.4387741,2.8627907 L10.4387741,15.4046512 C9.32129907,14.5476669 7.96790821,14.0846699 6.57755013,14.0837209 L3.64571379,14.0837209 L3.64571379,1.1627907 Z M1.12244883,3.48837209 L2.52326497,3.48837209 L2.52326497,14.6744186 C2.52326497,14.9955144 2.77453369,15.255814 3.08448938,15.255814 L6.57755013,15.255814 C8.1065489,15.257616 9.56236135,15.9342894 10.5802027,17.1162791 C10.6866823,17.2398458 10.8389837,17.3104965 10.9988761,17.3104965 C11.1587685,17.3104965 11.3110698,17.2398458 11.4175495,17.1162791 C12.4353908,15.9342894 13.8912032,15.257616 15.420202,15.255814 L18.9155076,15.255814 C19.2254633,15.255814 19.4767321,14.9955144 19.4767321,14.6744186 L19.4767321,3.48837209 L20.8775482,3.48837209 L20.8775482,16.7209302 L15.5795897,16.7209302 C14.3086805,16.7123205 13.0963211,17.2737165 12.2548963,18.2604651 L12.2369371,18.2813953 L12.216733,18.3023256 C12.1474225,18.3739603 12.0723183,18.4393152 11.9922433,18.4976744 L11.9248963,18.5465116 C11.8603036,18.5915696 11.7927975,18.6319749 11.7228556,18.6674419 L11.7093862,18.6674419 L11.6757127,18.6837209 L11.5859168,18.7232558 C11.5308252,18.7443977 11.4746109,18.7622563 11.4175495,18.7767442 L11.3210189,18.8 C11.2154195,18.82309 11.1079127,18.8355511 10.9999985,18.8372093 L10.901223,18.8372093 C10.8258139,18.8324605 10.750808,18.8223592 10.6767333,18.8069767 C10.6295904,18.8069767 10.5914271,18.7860465 10.5465292,18.772093 C10.4993854,18.7600278 10.4529202,18.7452767 10.4073455,18.727907 L10.30857,18.6837209 L10.265917,18.6627907 C10.1976641,18.6285851 10.1316698,18.5897407 10.068366,18.5465116 L9.98979457,18.4906977 C9.91786283,18.4342409 9.85030938,18.3720352 9.78775378,18.3046512 L9.74510072,18.2581395 C8.90004071,17.2753793 7.6908731,16.7120781 6.4204073,16.7093023 L1.12244883,16.7093023 L1.12244883,3.48837209 Z" id="Shape"></path>
            <path d="M5.23027914,3.969093 L6.16587583,3.969093 C6.99009522,3.97083293 7.80299196,4.19050082 8.542066,4.61120739 C8.81828711,4.75177102 9.14150468,4.61637204 9.27507613,4.30414232 C9.40864758,3.99191261 9.30512383,3.61376666 9.04029942,3.44656268 C8.14376154,2.93497529 7.15716197,2.66812573 6.15685803,2.66666667 L5.23027914,2.66666667 C4.91900456,2.66666667 4.66666667,2.95764278 4.66666667,3.31658001 C4.66666667,3.67551724 4.91900456,3.96649335 5.23027914,3.96649335 L5.23027914,3.969093 Z" id="Path"></path>
            <path d="M5.23027914,6.63575967 L6.16587583,6.63575967 C6.99009522,6.63749959 7.80299196,6.85716749 8.542066,7.27787405 C8.81828711,7.41843769 9.14150468,7.28303871 9.27507613,6.97080899 C9.40864758,6.65857928 9.30512383,6.28043333 9.04029942,6.11322934 C8.14376154,5.60164195 7.15716197,5.33479239 6.15685803,5.33333333 L5.23027914,5.33333333 C4.91900456,5.33333333 4.66666667,5.62430945 4.66666667,5.98324668 C4.66666667,6.3421839 4.91900456,6.63316002 5.23027914,6.63316002 L5.23027914,6.63575967 Z" id="Path"></path>
            <path d="M5.23027914,9.30242634 L6.16587583,9.30242634 C6.99009522,9.30416626 7.80299196,9.52383415 8.542066,9.94454072 C8.81828711,10.0851044 9.14150468,9.94970537 9.27507613,9.63747566 C9.40864758,9.32524594 9.30512383,8.94709999 9.04029942,8.77989601 C8.14376154,8.26830862 7.15716197,8.00145906 6.15685803,8 L5.23027914,8 C4.91900456,8 4.66666667,8.29097611 4.66666667,8.64991334 C4.66666667,9.00885057 4.91900456,9.29982668 5.23027914,9.29982668 L5.23027914,9.30242634 Z" id="Path"></path>
            <path d="M8.50665769,12.5877714 C8.68664998,12.70108 8.90619239,12.6917685 9.07843418,12.5635205 C9.25067597,12.4352726 9.34786821,12.2087495 9.33156174,11.9735636 C9.31525527,11.7383777 9.18807716,11.5324185 9.00033891,11.4371632 C8.11201963,10.9316545 7.1344164,10.6680162 6.14324262,10.6666667 L5.22512958,10.6666667 C4.91669903,10.6666667 4.66666667,10.9541359 4.66666667,11.3087471 C4.66666667,11.6633584 4.91669903,11.9508276 5.22512958,11.9508276 L6.15217803,11.9508276 C6.96904227,11.9533453 7.77452078,12.1712468 8.50665769,12.5877714 Z" id="Path"></path>
            <path d="M13.2343766,4.66666667 C13.3196969,4.66635666 13.4038133,4.64334041 13.4802246,4.59939676 C14.2163558,4.17893394 15.026212,3.96026737 15.8470704,3.96033261 L16.7745879,3.96033261 C17.0831745,3.96033261 17.3333333,3.67073872 17.3333333,3.31350656 C17.3333333,2.95627439 17.0831745,2.66666667 16.7745879,2.66666667 L15.8470704,2.66666667 C15.0845336,2.66498012 14.3277936,2.82003786 13.6120885,3.12463335 C13.3958447,3.21680394 13.1839697,3.32216856 12.9773537,3.44028446 C12.7448449,3.57367982 12.6222718,3.8748321 12.6814393,4.16732263 C12.7406067,4.45981316 12.9659402,4.66666667 13.2254367,4.66666667 L13.2343766,4.66666667 Z" id="Path"></path>
            <path d="M13.2343766,7.33333333 C13.3196969,7.33302332 13.4038133,7.31000708 13.4802246,7.26606342 C14.2163558,6.84560061 15.026212,6.62693403 15.8470704,6.62699928 L16.7745879,6.62699928 C17.0831745,6.62699928 17.3333333,6.33740539 17.3333333,5.98017322 C17.3333333,5.62294106 17.0831745,5.33333333 16.7745879,5.33333333 L15.8470704,5.33333333 C15.0845336,5.33164678 14.3277936,5.48670453 13.6120885,5.79130002 C13.3958447,5.88347061 13.1839697,5.98883523 12.9773537,6.10695113 C12.7448449,6.24034649 12.6222718,6.54149876 12.6814393,6.83398929 C12.7406067,7.12647982 12.9659402,7.33333333 13.2254367,7.33333333 L13.2343766,7.33333333 Z" id="Path"></path>
            <path d="M13.2343766,10 C13.3196969,9.99968999 13.4038133,9.97667374 13.4802246,9.93273009 C14.2163558,9.51226727 15.026212,9.2936007 15.8470704,9.29366595 L16.7745879,9.29366595 C17.0831745,9.29366595 17.3333333,9.00407206 17.3333333,8.64683989 C17.3333333,8.28960772 17.0831745,8 16.7745879,8 L15.8470704,8 C15.0845336,7.99831345 14.3277936,8.15337119 13.6120885,8.45796668 C13.3958447,8.55013728 13.1839697,8.6555019 12.9773537,8.7736178 C12.7448449,8.90701316 12.6222718,9.20816543 12.6814393,9.50065596 C12.7406067,9.79314649 12.9659402,10 13.2254367,10 L13.2343766,10 Z" id="Path"></path>
            <path d="M13.2343766,12.6640794 C13.3196969,12.6637694 13.4038133,12.6407531 13.4802246,12.5968095 C14.2165679,12.1773297 15.0263972,11.9595558 15.8470704,11.9603333 L16.7745879,11.9603333 C17.0831745,11.9603333 17.3333333,11.6707396 17.3333333,11.3135078 C17.3333333,10.956276 17.0831745,10.6666667 16.7745879,10.6666667 L15.8470704,10.6666667 C15.0845253,10.6648722 14.3277687,10.8199332 13.6120885,11.1246348 C13.3958447,11.2168053 13.1839697,11.3221698 12.9773537,11.4402856 C12.7448449,11.5736808 12.6222718,11.8748328 12.6814393,12.1673231 C12.7406067,12.4598133 12.9659402,12.6666667 13.2254367,12.6666667 L13.2343766,12.6640794 Z" id="Path"></path>
        </g>
        <path d="M30,6.00008094 C30,5.26368401 29.4030189,4.66666667 28.6666667,4.66666667 C27.9303144,4.66666667 27.3333333,5.26368401 27.3333333,6.00008094 C27.3333333,6.73647787 27.9303144,7.33333333 28.6666667,7.33333333 C29.4030189,7.33333333 30,6.73647787 30,6.00008094 Z" id="Stroke-1" stroke="#28DCF0" stroke-linecap="round" stroke-linejoin="round"></path>
        <path d="M8,30.0000809 C8,29.263684 7.4030189,28.6666667 6.66666667,28.6666667 C5.93031443,28.6666667 5.33333333,29.263684 5.33333333,30.0000809 C5.33333333,30.7364779 5.93031443,31.3333333 6.66666667,31.3333333 C7.4030189,31.3333333 8,30.7364779 8,30.0000809 Z" id="Stroke-1-Copy" stroke="#28DCF0" stroke-linecap="round" stroke-linejoin="round"></path>
        <path d="M4.05502365,3.43918655 C4.14984773,3.33459371 4.35162318,3.30198605 4.50570173,3.36635529 C5.59340934,3.82076585 5.60735431,4.88605258 4.55717271,5.35180351 L4.50421334,5.37467343 C3.83030125,5.65618079 3.81847823,6.31452612 4.45680408,6.60459462 L4.49162199,6.61977746 L4.50570173,6.62534012 C5.59340934,7.07975068 5.60735431,8.14503741 4.55717271,8.61078834 L4.51424401,8.62929559 C4.36371002,8.69742004 4.16032351,8.66980715 4.05996752,8.56762046 C3.96462933,8.47054311 3.99657369,8.34108606 4.12907054,8.26997484 L4.15082282,8.25924485 L4.16235043,8.25420552 C4.83639355,7.97269502 4.84821887,7.31437421 4.20974495,7.0242945 L4.17491896,7.00911102 L4.16081641,7.00353883 C3.07330052,6.54912511 3.059358,5.48386315 4.10937475,5.01810062 L4.16235043,4.99522069 C4.84843003,4.70868321 4.84843003,4.03175776 4.16231335,3.74511946 C4.0082348,3.68075022 3.96019957,3.54377939 4.05502365,3.43918655 Z" id="Stroke-1" stroke="#28DCF0" stroke-width="0.5" fill="#28DCF0" fill-rule="nonzero" transform="translate(4.333333, 6.000000) rotate(-315.000000) translate(-4.333333, -6.000000) "></path>
    </g>
</svg>