<?xml version="1.0" encoding="UTF-8"?>
<svg width="32px" height="32px" viewBox="0 0 32 32" version="1.1" xmlns="http://www.w3.org/2000/svg" xmlns:xlink="http://www.w3.org/1999/xlink">
    <title>icone/32x32/coinlecture_32_bicolore</title>
    <g id="icone/32x32/coinlecture_32_bicolore" stroke="none" stroke-width="1" fill="none" fill-rule="evenodd">
        <g id="noun_Book_1195058" transform="translate(5.333333, 8.666667)" fill="#1E1169" fill-rule="nonzero">
            <path d="M0.848571314,17.872093 L6.4204073,17.872093 C7.37301436,17.874152 8.27951881,18.2971633 8.91224369,19.0348837 L8.99081511,19.1209302 C9.09239148,19.2295841 9.2019738,19.3298867 9.31857017,19.4209302 C9.36571302,19.455814 9.41061097,19.4906977 9.45326403,19.5186047 C9.55617149,19.5893052 9.6634041,19.6530053 9.77428439,19.7093023 L9.83040683,19.7372093 C9.88877417,19.7674419 9.94938641,19.7930233 10.0099986,19.8162791 C10.0872019,19.8461691 10.1658843,19.8717867 10.2457129,19.8930233 C10.2995904,19.9093023 10.3714272,19.9302326 10.4567333,19.9465116 C10.5782314,19.9714965 10.7012415,19.9878139 10.8248965,19.9953488 L11,20 C11.1854848,19.9996214 11.3704757,19.9801458 11.5522433,19.9418605 C11.6240801,19.927907 11.6846923,19.9116279 11.7161209,19.9 C11.8089797,19.8760301 11.9004245,19.8465236 11.9899984,19.8116279 L12.0169372,19.8116279 L12.1583657,19.7488372 L12.1987739,19.727907 L12.2122432,19.727907 C12.3319997,19.6682287 12.4475267,19.5998407 12.5579575,19.5232558 L12.6746922,19.4395349 C12.7990054,19.3358557 12.9146536,19.2214967 13.0204064,19.0976744 L13.0473452,19.0697674 L13.094488,19.0162791 C13.7204419,18.2849771 14.6204103,17.868826 15.5638754,17.8744186 L21.1514257,17.8744186 C21.3768703,17.8744194 21.5930487,17.7814842 21.7522513,17.6161234 C21.911454,17.4507625 22.0005934,17.2265697 22,16.9930233 L22,3.19302326 C21.9938554,2.71207347 21.61573,2.32553931 21.1514257,2.3255814 L19.4767321,2.3255814 L19.4767321,0.586046512 C19.4779291,0.431046579 19.4193291,0.281968698 19.3139491,0.171927887 C19.2085691,0.0618870764 19.0651348,0 18.9155076,0 L15.4224469,0 C13.7811228,0.00326829422 12.2015601,0.648664882 11,1.80697674 C9.79843691,0.648664882 8.2188742,0.00326829422 6.57755013,0 L3.08448938,0 C2.77453369,0 2.52326497,0.260299564 2.52326497,0.581395349 L2.52326497,2.3255814 L0.848571314,2.3255814 C0.384266988,2.32553931 0.00614158986,2.71207347 0,3.19302326 L0,16.9930233 C0,17.2261671 0.0894027925,17.4497619 0.248540784,17.6146194 C0.407678775,17.779477 0.623516209,17.872093 0.848571314,17.872093 Z M15.4224469,1.1627907 L18.3542832,1.1627907 L18.3542832,14.0837209 L15.4224469,14.0837209 C14.0320888,14.0846699 12.678698,14.5476669 11.5612229,15.4046512 L11.5612229,2.86744186 C12.5719029,1.78030995 13.965484,1.1650725 15.4224469,1.1627907 Z M3.64571379,1.1627907 L6.57755013,1.1627907 C8.03385139,1.16385441 9.42733556,1.77737051 10.4387741,2.8627907 C10.4387741,2.8627907 10.4387741,2.8627907 10.4387741,2.8627907 L10.4387741,15.4046512 C9.32129907,14.5476669 7.96790821,14.0846699 6.57755013,14.0837209 L3.64571379,14.0837209 L3.64571379,1.1627907 Z M1.12244883,3.48837209 L2.52326497,3.48837209 L2.52326497,14.6744186 C2.52326497,14.9955144 2.77453369,15.255814 3.08448938,15.255814 L6.57755013,15.255814 C8.1065489,15.257616 9.56236135,15.9342894 10.5802027,17.1162791 C10.6866823,17.2398458 10.8389837,17.3104965 10.9988761,17.3104965 C11.1587685,17.3104965 11.3110698,17.2398458 11.4175495,17.1162791 C12.4353908,15.9342894 13.8912032,15.257616 15.420202,15.255814 L18.9155076,15.255814 C19.2254633,15.255814 19.4767321,14.9955144 19.4767321,14.6744186 L19.4767321,3.48837209 L20.8775482,3.48837209 L20.8775482,16.7209302 L15.5795897,16.7209302 C14.3086805,16.7123205 13.0963211,17.2737165 12.2548963,18.2604651 L12.2369371,18.2813953 L12.216733,18.3023256 C12.1474225,18.3739603 12.0723183,18.4393152 11.9922433,18.4976744 L11.9248963,18.5465116 C11.8603036,18.5915696 11.7927975,18.6319749 11.7228556,18.6674419 L11.7093862,18.6674419 L11.6757127,18.6837209 L11.5859168,18.7232558 C11.5308252,18.7443977 11.4746109,18.7622563 11.4175495,18.7767442 L11.3210189,18.8 C11.2154195,18.82309 11.1079127,18.8355511 10.9999985,18.8372093 L10.901223,18.8372093 C10.8258139,18.8324605 10.750808,18.8223592 10.6767333,18.8069767 C10.6295904,18.8069767 10.5914271,18.7860465 10.5465292,18.772093 C10.4993854,18.7600278 10.4529202,18.7452767 10.4073455,18.727907 L10.30857,18.6837209 L10.265917,18.6627907 C10.1976641,18.6285851 10.1316698,18.5897407 10.068366,18.5465116 L9.98979457,18.4906977 C9.91786283,18.4342409 9.85030938,18.3720352 9.78775378,18.3046512 L9.74510072,18.2581395 C8.90004071,17.2753793 7.6908731,16.7120781 6.4204073,16.7093023 L1.12244883,16.7093023 L1.12244883,3.48837209 Z" id="Shape"></path>
            <path d="M5.23027914,3.969093 L6.16587583,3.969093 C6.99009522,3.97083293 7.80299196,4.19050082 8.542066,4.61120739 C8.81828711,4.75177102 9.14150468,4.61637204 9.27507613,4.30414232 C9.40864758,3.99191261 9.30512383,3.61376666 9.04029942,3.44656268 C8.14376154,2.93497529 7.15716197,2.66812573 6.15685803,2.66666667 L5.23027914,2.66666667 C4.91900456,2.66666667 4.66666667,2.95764278 4.66666667,3.31658001 C4.66666667,3.67551724 4.91900456,3.96649335 5.23027914,3.96649335 L5.23027914,3.969093 Z" id="Path"></path>
            <path d="M5.23027914,6.63575967 L6.16587583,6.63575967 C6.99009522,6.63749959 7.80299196,6.85716749 8.542066,7.27787405 C8.81828711,7.41843769 9.14150468,7.28303871 9.27507613,6.97080899 C9.40864758,6.65857928 9.30512383,6.28043333 9.04029942,6.11322934 C8.14376154,5.60164195 7.15716197,5.33479239 6.15685803,5.33333333 L5.23027914,5.33333333 C4.91900456,5.33333333 4.66666667,5.62430945 4.66666667,5.98324668 C4.66666667,6.3421839 4.91900456,6.63316002 5.23027914,6.63316002 L5.23027914,6.63575967 Z" id="Path"></path>
            <path d="M5.23027914,9.30242634 L6.16587583,9.30242634 C6.99009522,9.30416626 7.80299196,9.52383415 8.542066,9.94454072 C8.81828711,10.0851044 9.14150468,9.94970537 9.27507613,9.63747566 C9.40864758,9.32524594 9.30512383,8.94709999 9.04029942,8.77989601 C8.14376154,8.26830862 7.15716197,8.00145906 6.15685803,8 L5.23027914,8 C4.91900456,8 4.66666667,8.29097611 4.66666667,8.64991334 C4.66666667,9.00885057 4.91900456,9.29982668 5.23027914,9.29982668 L5.23027914,9.30242634 Z" id="Path"></path>
            <path d="M8.50665769,12.5877714 C8.68664998,12.70108 8.90619239,12.6917685 9.07843418,12.5635205 C9.25067597,12.4352726 9.34786821,12.2087495 9.33156174,11.9735636 C9.31525527,11.7383777 9.18807716,11.5324185 9.00033891,11.4371632 C8.11201963,10.9316545 7.1344164,10.6680162 6.14324262,10.6666667 L5.22512958,10.6666667 C4.91669903,10.6666667 4.66666667,10.9541359 4.66666667,11.3087471 C4.66666667,11.6633584 4.91669903,11.9508276 5.22512958,11.9508276 L6.15217803,11.9508276 C6.96904227,11.9533453 7.77452078,12.1712468 8.50665769,12.5877714 Z" id="Path"></path>
            <path d="M13.2343766,4.66666667 C13.3196969,4.66635666 13.4038133,4.64334041 13.4802246,4.59939676 C14.2163558,4.17893394 15.026212,3.96026737 15.8470704,3.96033261 L16.7745879,3.96033261 C17.0831745,3.96033261 17.3333333,3.67073872 17.3333333,3.31350656 C17.3333333,2.95627439 17.0831745,2.66666667 16.7745879,2.66666667 L15.8470704,2.66666667 C15.0845336,2.66498012 14.3277936,2.82003786 13.6120885,3.12463335 C13.3958447,3.21680394 13.1839697,3.32216856 12.9773537,3.44028446 C12.7448449,3.57367982 12.6222718,3.8748321 12.6814393,4.16732263 C12.7406067,4.45981316 12.9659402,4.66666667 13.2254367,4.66666667 L13.2343766,4.66666667 Z" id="Path"></path>
            <path d="M13.2343766,7.33333333 C13.3196969,7.33302332 13.4038133,7.31000708 13.4802246,7.26606342 C14.2163558,6.84560061 15.026212,6.62693403 15.8470704,6.62699928 L16.7745879,6.62699928 C17.0831745,6.62699928 17.3333333,6.33740539 17.3333333,5.98017322 C17.3333333,5.62294106 17.0831745,5.33333333 16.7745879,5.33333333 L15.8470704,5.33333333 C15.0845336,5.33164678 14.3277936,5.48670453 13.6120885,5.79130002 C13.3958447,5.88347061 13.1839697,5.98883523 12.9773537,6.10695113 C12.7448449,6.24034649 12.6222718,6.54149876 12.6814393,6.83398929 C12.7406067,7.12647982 12.9659402,7.33333333 13.2254367,7.33333333 L13.2343766,7.33333333 Z" id="Path"></path>
            <path d="M13.2343766,10 C13.3196969,9.99968999 13.4038133,9.97667374 13.4802246,9.93273009 C14.2163558,9.51226727 15.026212,9.2936007 15.8470704,9.29366595 L16.7745879,9.29366595 C17.0831745,9.29366595 17.3333333,9.00407206 17.3333333,8.64683989 C17.3333333,8.28960772 17.0831745,8 16.7745879,8 L15.8470704,8 C15.0845336,7.99831345 14.3277936,8.15337119 13.6120885,8.45796668 C13.3958447,8.55013728 13.1839697,8.6555019 12.9773537,8.7736178 C12.7448449,8.90701316 12.6222718,9.20816543 12.6814393,9.50065596 C12.7406067,9.79314649 12.9659402,10 13.2254367,10 L13.2343766,10 Z" id="Path"></path>
            <path d="M13.2343766,12.6640794 C13.3196969,12.6637694 13.4038133,12.6407531 13.4802246,12.5968095 C14.2165679,12.1773297 15.0263972,11.9595558 15.8470704,11.9603333 L16.7745879,11.9603333 C17.0831745,11.9603333 17.3333333,11.6707396 17.3333333,11.3135078 C17.3333333,10.956276 17.0831745,10.6666667 16.7745879,10.6666667 L15.8470704,10.6666667 C15.0845253,10.6648722 14.3277687,10.8199332 13.6120885,11.1246348 C13.3958447,11.2168053 13.1839697,11.3221698 12.9773537,11.4402856 C12.7448449,11.5736808 12.6222718,11.8748328 12.6814393,12.1673231 C12.7406067,12.4598133 12.9659402,12.6666667 13.2254367,12.6666667 L13.2343766,12.6640794 Z" id="Path"></path>
        </g>
        <path d="M27.0653841,6.73194771 C27.1394586,7.11691855 27.3369875,7.30940108 27.6579767,7.30940108 L27.7459397,7.30940108 C28.1811271,7.2012632 28.3987175,6.9763398 28.3987175,6.63462411 L28.3987175,6.55352111 C28.3153837,6.16855027 28.1456323,5.97606774 27.8894582,5.97606774 L27.7459397,5.97606774 C27.4558148,5.97606774 27.2289652,6.1880148 27.0653841,6.61191527 L27.0653841,6.73194771 Z M27.0864772,5.61527565 C27.1426566,5.58581534 27.2011761,5.55635547 27.2620371,5.52689516 C27.4633469,5.44903576 27.6751872,5.41010665 27.8975643,5.41010665 C28.6864178,5.41010665 29.2294779,5.8299098 29.5267609,6.6695287 C29.5525099,6.86312504 29.5653841,6.97886024 29.5653841,7.01673779 C29.5653841,7.48389417 29.3348177,7.89107166 28.8736778,8.23828248 C28.499148,8.44450467 28.1983582,8.54761422 27.9712995,8.54761422 L27.7430715,8.54761422 C27.4926047,8.54761422 27.2374601,8.4729124 26.97763,8.32350653 C26.9074056,8.5781278 26.7248251,8.6991237 26.4298828,8.68649785 L26.1208973,8.67387207 C25.7370042,8.65914191 25.5520828,8.44345357 25.5661277,8.02680059 C25.5825134,7.4796805 25.6152843,6.71951063 25.6644413,5.74626817 C25.7135983,4.77302571 25.8774527,4.20329286 26.1560092,4.03705253 C26.3690231,4.00548791 26.5837893,4.01969177 26.8003144,4.07966455 C27.0168395,4.13963733 27.1227596,4.27378496 27.118078,4.48211145 C27.1063739,4.88403428 27.0958404,5.26175191 27.0864772,5.61527565 Z" id="b" fill="#28DCF0" fill-rule="nonzero" transform="translate(27.565384, 6.354059) rotate(-330.000000) translate(-27.565384, -6.354059) "></path>
        <path d="M3.79632538,6.68434353 C4.00596185,6.705611 4.23230507,6.78308418 4.47536184,6.9167654 C4.71841861,7.05044663 4.78829638,7.30489287 4.68499726,7.68011176 C4.58169813,8.05533065 4.3644694,8.21255564 4.03330455,8.15179144 C3.7021397,8.09102725 3.41123549,8.07963414 3.16058319,8.11761176 C2.9099309,8.15558938 2.72460289,8.22015036 2.60459361,8.31129665 C2.48458433,8.40244294 2.37976767,8.55890839 2.29014048,8.78069769 C2.2005133,9.002487 2.24228806,9.28351717 2.41546601,9.62379665 C2.57649112,9.79393639 2.74586876,9.90558892 2.92360403,9.95875759 C3.10133929,10.0119263 3.32996114,10.0081286 3.60947642,9.94736436 C3.81911289,9.90179122 4.0082386,9.77874557 4.17685923,9.57822374 C4.34547987,9.3777019 4.59384978,9.3442821 4.92197642,9.47796332 C5.25010306,9.61164454 5.32909533,9.82659465 5.15895559,10.1228201 C4.98881585,10.4190455 4.85665571,10.6112094 4.76247121,10.6993175 C4.6956306,10.7600817 4.62879099,10.8132496 4.56195038,10.8588227 C4.3796578,10.9894657 4.18977255,11.0745343 3.99228892,11.114031 C3.7948053,11.1535278 3.59428647,11.1747949 3.39072642,11.1778331 C3.12336397,11.1839095 2.86056278,11.1520088 2.60231496,11.08213 C2.39571671,11.0274422 2.19443834,10.9469309 1.99847382,10.8405935 C1.8025093,10.7342562 1.62553624,10.5960197 1.46754934,10.42588 C1.16676659,10.1159826 0.943461527,9.75899833 0.797627464,9.35491644 C0.566723532,8.73208347 0.641158551,8.18217577 1.02093476,7.70517686 C1.20930375,7.4651583 1.43488743,7.27527305 1.69769257,7.1355154 C1.9604977,6.99575776 2.21950119,6.88942202 2.4747108,6.81650499 C2.69042368,6.75574079 2.91220966,6.71244696 3.14007538,6.68662217 C3.3679411,6.66079739 3.58668892,6.66003785 3.79632538,6.68434353 Z" id="c" fill="#28DCF0" fill-rule="nonzero" transform="translate(2.956384, 8.922614) rotate(-24.000000) translate(-2.956384, -8.922614) "></path>
        <path d="M14.4291595,3.97340137 C14.5020765,4.35013936 14.6949999,4.53850554 15.0079355,4.53850554 L15.0899668,4.53850554 C15.5153161,4.43520641 15.7279876,4.21493951 15.7279876,3.87769824 L15.7279876,3.80022429 C15.645956,3.42044808 15.480376,3.23056283 15.2312428,3.23056283 L15.0899668,3.23056283 C14.8104515,3.23056283 14.5901846,3.43867707 14.4291595,3.85491179 L14.4291595,3.97340137 Z M17.3686126,3.07561491 C17.4384914,3.5465374 17.4817853,4.0501131 17.4984954,4.5863571 C17.5152056,5.1226011 17.3807668,5.41882209 17.0951751,5.47502897 C16.8095834,5.53123585 16.552099,5.54566713 16.3227142,5.51832324 C16.0933294,5.49097936 15.9117991,5.35578106 15.7781178,5.11272429 C15.258584,5.32843717 14.8909661,5.43629199 14.6752532,5.43629199 L14.4473887,5.43629199 C14.0007718,5.43629199 13.6012533,5.22058235 13.248821,4.78915658 C13.0452609,4.50356487 12.9434824,4.17848132 12.9434824,3.81389616 C12.9799409,3.39462323 13.1523567,3.06953968 13.460735,2.83863574 C13.7691133,2.60773181 14.1579983,2.47557167 14.6274017,2.44215137 C15.0968051,2.40873106 15.4970832,2.48316608 15.828248,2.66545866 C15.8495155,2.46493682 15.7629278,2.29176147 15.5684824,2.14592741 C15.374037,2.00009335 15.132503,1.94388731 14.843873,1.97730762 C14.5552431,2.01072792 14.2711748,2.09503698 13.9916595,2.23023731 C13.7121442,2.36543763 13.4637743,2.31758655 13.2465423,2.08668262 C13.0293103,1.85577869 13.0771614,1.61956143 13.390097,1.37802376 C13.7030326,1.1364861 14.1709099,0.989894682 14.7937428,0.938245119 C15.4165758,0.886595555 15.9117965,0.943561131 16.2794199,1.10914356 C16.6470433,1.27472598 16.9030086,1.52613406 17.0473236,1.86337533 C17.1916385,2.2006166 17.2987338,2.60469242 17.3686126,3.07561491 Z" id="a" fill="#28DCF0" fill-rule="nonzero" transform="translate(15.221682, 3.225786) rotate(-39.000000) translate(-15.221682, -3.225786) "></path>
    </g>
</svg>