<?xml version="1.0" encoding="UTF-8"?>
<svg width="32px" height="32px" viewBox="0 0 32 32" version="1.1" xmlns="http://www.w3.org/2000/svg" xmlns:xlink="http://www.w3.org/1999/xlink">
    <title>icone/32x32/coinmath_32_bicolore</title>
    <g id="icone/32x32/coinmath_32_bicolore" stroke="none" stroke-width="1" fill="none" fill-rule="evenodd">
        <g id="noun_Ruler_2376504" transform="translate(2.666667, 6.666667)" fill="#1E1169" fill-rule="nonzero" stroke="#1E1169" stroke-width="0.4">
            <g id="Group-2" transform="translate(0.373064, 0.373064)">
                <path d="M18.7148807,7.383777 C18.577534,7.31510364 18.4058506,7.34944032 18.3028405,7.45245035 L7.48678703,18.3028405 C7.383777,18.4058506 7.34944032,18.577534 7.41811367,18.7148807 C7.48678703,18.8522274 7.62413374,18.9552374 7.76148045,18.9552374 L18.577534,18.9552374 C18.783554,18.9552374 18.9552374,18.783554 18.9552374,18.577534 L18.9552374,7.72714377 C18.9552374,7.58979706 18.8522274,7.45245035 18.7148807,7.383777 Z M18.1998305,18.1998305 L8.65423408,18.1998305 L18.1998305,8.65423408 L18.1998305,18.1998305 Z" id="Shape"></path>
                <path d="M21.7365083,0.0357279435 C21.5991616,-0.0329454121 21.4274782,0.0013912657 21.3244682,0.104401299 L0.104401299,21.3244682 C0.0013912657,21.4274782 -0.0329454121,21.5991616 0.0357279435,21.7365083 C0.104401299,21.873855 0.24174801,21.9768651 0.379094722,21.9768651 L21.5991616,21.9768651 C21.8051817,21.9768651 21.9768651,21.8051817 21.9768651,21.5991616 L21.9768651,0.379094722 C21.9768651,0.24174801 21.873855,0.104401299 21.7365083,0.0357279435 Z M18.9552374,21.2214582 L18.9552374,20.0883478 C18.9552374,19.8823277 18.783554,19.7106443 18.577534,19.7106443 C18.3715139,19.7106443 18.1998305,19.8823277 18.1998305,20.0883478 L18.1998305,21.2214582 L16.6890167,21.2214582 L16.6890167,20.0883478 C16.6890167,19.8823277 16.5173333,19.7106443 16.3113132,19.7106443 C16.1052932,19.7106443 15.9336098,19.8823277 15.9336098,20.0883478 L15.9336098,21.2214582 L14.4227959,21.2214582 L14.4227959,20.0883478 C14.4227959,19.8823277 14.2511126,19.7106443 14.0450925,19.7106443 C13.8390724,19.7106443 13.667389,19.8823277 13.667389,20.0883478 L13.667389,21.2214582 L12.1565752,21.2214582 L12.1565752,20.0883478 C12.1565752,19.8823277 11.9848918,19.7106443 11.7788718,19.7106443 C11.5728517,19.7106443 11.4011683,19.8823277 11.4011683,20.0883478 L11.4011683,21.2214582 L9.89035448,21.2214582 L9.89035448,20.0883478 C9.89035448,19.8823277 9.71867109,19.7106443 9.51265102,19.7106443 C9.30663095,19.7106443 9.13494756,19.8823277 9.13494756,20.0883478 L9.13494756,21.2214582 L7.62413374,21.2214582 L7.62413374,20.0883478 C7.62413374,19.8823277 7.45245035,19.7106443 7.24643028,19.7106443 C7.04041022,19.7106443 6.86872683,19.8823277 6.86872683,20.0883478 L6.86872683,21.2214582 L5.357913,21.2214582 L5.357913,20.0883478 C5.357913,19.8823277 5.18622962,19.7106443 4.98020955,19.7106443 C4.77418948,19.7106443 4.60250609,19.8823277 4.60250609,20.0883478 L4.60250609,21.2214582 L1.30618502,21.2214582 L21.2214582,1.30618502 L21.2214582,4.56816942 L20.0883478,4.56816942 C19.8823277,4.56816942 19.7106443,4.7398528 19.7106443,4.94587287 C19.7106443,5.15189294 19.8823277,5.32357633 20.0883478,5.32357633 L21.2214582,5.32357633 L21.2214582,6.83439015 L20.0883478,6.83439015 C19.8823277,6.83439015 19.7106443,7.00607354 19.7106443,7.21209361 C19.7106443,7.41811367 19.8823277,7.58979706 20.0883478,7.58979706 L21.2214582,7.58979706 L21.2214582,9.10061089 L20.0883478,9.10061089 C19.8823277,9.10061089 19.7106443,9.27229428 19.7106443,9.47831434 C19.7106443,9.68433441 19.8823277,9.8560178 20.0883478,9.8560178 L21.2214582,9.8560178 L21.2214582,11.3668316 L20.0883478,11.3668316 C19.8823277,11.3668316 19.7106443,11.538515 19.7106443,11.7445351 C19.7106443,11.9505551 19.8823277,12.1222385 20.0883478,12.1222385 L21.2214582,12.1222385 L21.2214582,13.6330524 L20.0883478,13.6330524 C19.8823277,13.6330524 19.7106443,13.8047357 19.7106443,14.0107558 C19.7106443,14.2167759 19.8823277,14.3884593 20.0883478,14.3884593 L21.2214582,14.3884593 L21.2214582,15.8992731 L20.0883478,15.8992731 C19.8823277,15.8992731 19.7106443,16.0709565 19.7106443,16.2769765 C19.7106443,16.4829966 19.8823277,16.65468 20.0883478,16.65468 L21.2214582,16.65468 L21.2214582,18.1998305 L20.0883478,18.1998305 C19.8823277,18.1998305 19.7106443,18.3715139 19.7106443,18.577534 C19.7106443,18.783554 19.8823277,18.9552374 20.0883478,18.9552374 L21.2214582,18.9552374 L21.2214582,21.2214582 L18.9552374,21.2214582 Z" id="Shape"></path>
            </g>
        </g>
        <path d="M8.74674479,19.4342448 C8.80447077,19.9203583 8.68598238,20.3669685 8.39127604,20.7740885 C8.0935315,21.1933615 7.71376099,21.4242619 7.25195312,21.4667969 C6.79318347,21.5214846 6.3845504,21.3817291 6.02604167,21.047526 C5.66449472,20.713323 5.45638048,20.2894991 5.40169271,19.7760417 C5.34396673,19.2747371 5.46397421,18.828127 5.76171875,18.4361979 C6.05642508,18.0473071 6.44531008,17.824002 6.92838542,17.766276 C7.45399568,17.7085501 7.90668213,17.9394505 8.28645833,18.4589844 C8.56293541,18.829646 8.7163627,19.1547295 8.74674479,19.4342448 Z M5.86653646,16.6861979 L5.5703125,17.4427083 L5.27408854,18.1946615 L4.97786458,18.9511719 L4.68619792,19.6985677 L4.38541667,20.4596354 L4.08919271,21.2161458 C4.01019926,21.4136295 3.95703139,21.5913621 3.9296875,21.749349 C3.90234361,21.9073359 3.7853743,21.9680991 3.57877604,21.9316406 L3.50585937,21.9134115 L3.44205729,21.8997396 C3.21722978,21.8572046 3.15039017,21.744033 3.24153646,21.5602214 C3.33268275,21.3764097 3.40711777,21.188803 3.46484375,20.9973958 L4.39453125,17.5338542 L4.63606771,16.6679687 L4.86848958,15.8020833 C4.94444482,15.5195298 4.98621958,15.290908 4.9938151,15.1162109 C5.00141063,14.9415139 5.12521581,14.9650597 5.36523438,15.186849 L5.49739583,15.3098958 L5.63411458,15.4375 L5.76171875,15.5605469 L5.89388021,15.6790365 C6.10047846,15.8734819 6.17415394,16.0200733 6.11490885,16.1188151 C6.05566377,16.2175569 5.9728738,16.4066826 5.86653646,16.6861979 Z M4.07096354,16.9414062 C4.12565132,17.430558 4.00564383,17.8817254 3.7109375,18.2949219 C3.41623117,18.7050802 3.03494158,18.9359806 2.56705729,18.9876302 C2.11740227,19.0392798 1.71028828,18.8995242 1.34570312,18.5683594 C0.990232598,18.2341563 0.782118359,17.8072943 0.721354167,17.2877604 C0.669704603,16.7925322 0.789712083,16.3504794 1.08138021,15.9615885 C1.37304833,15.5726977 1.75889517,15.3509117 2.23893229,15.296224 C2.77061898,15.2354598 3.22634359,15.4587648 3.60611979,15.9661458 C3.88563508,16.345922 4.04058145,16.6710056 4.07096354,16.9414062 Z M7.96744792,19.7076823 C7.95225687,19.5740011 7.90972257,19.4570318 7.83984375,19.3567708 C7.70312432,19.1987839 7.52083447,19.1319443 7.29296875,19.15625 C7.06814124,19.1805557 6.89192772,19.2549907 6.76432292,19.3795573 C6.63064169,19.5041239 6.57443566,19.6484367 6.59570312,19.8125 C6.61697059,19.9826397 6.71571092,20.117838 6.89192708,20.218099 C7.07725787,20.3244363 7.24283781,20.3654515 7.38867187,20.3411458 C7.5861555,20.3168402 7.7380637,20.2408861 7.84440104,20.1132812 C7.94162375,19.9917529 7.98263896,19.8565546 7.96744792,19.7076823 Z M2.86783854,17.0507812 C2.83745645,16.7955716 2.76150234,16.5950528 2.63997396,16.4492187 C2.51844557,16.3033847 2.36653737,16.2411023 2.18424479,16.2623698 C1.97157012,16.2897137 1.80143293,16.388454 1.67382812,16.5585937 C1.5401469,16.7348099 1.48697903,16.9307715 1.51432292,17.1464844 C1.53862859,17.3804265 1.64192617,17.5687927 1.82421875,17.7115885 C2.01562596,17.8726137 2.18576314,17.9379342 2.33463542,17.9075521 C2.52908083,17.8710936 2.67339363,17.767796 2.76757812,17.5976562 C2.85264799,17.4396693 2.8860678,17.2573795 2.86783854,17.0507812 Z" id="%" fill="#28DCF0" fill-rule="nonzero"></path>
        <path d="M27.8424479,20.2552083 C28.0946193,20.6835959 28.3908403,21.1074198 28.7311198,21.5266927 C28.995444,21.0436174 29.2111537,20.574221 29.3782552,20.1184896 C29.4450958,19.9453116 29.6759963,19.8731552 30.0709635,19.9020182 C30.4659308,19.9308812 30.654297,20.1458313 30.6360677,20.546875 C30.6391059,20.6835944 30.6163197,20.841579 30.5677083,21.0208333 C30.5130206,21.2243934 30.4173184,21.4750419 30.280599,21.7727865 C30.1438795,22.070531 29.9874141,22.3743474 29.8111979,22.6842448 C30.0603311,22.9121105 30.3049033,23.106553 30.5449219,23.2675781 C30.5965714,23.3040366 30.6504989,23.3404946 30.7067057,23.3769531 C30.7629126,23.4134116 30.8122828,23.4544269 30.8548177,23.5 C30.9307729,23.5911463 30.9398874,23.6921652 30.8821615,23.8030599 C30.8244355,23.9139545 30.7393669,24.0180117 30.6269531,24.1152344 C30.5145394,24.2124571 30.3937723,24.2975257 30.2646484,24.3704427 C30.1355245,24.4433597 30.0375437,24.484375 29.9707031,24.4934896 C29.8461365,24.5177953 29.7230909,24.5003258 29.6015625,24.4410807 C29.4800341,24.3818356 29.3706602,24.3187937 29.2734375,24.2519531 C29.1519091,24.163845 29.0455734,24.0772574 28.9544271,23.9921875 C28.8450515,24.1289069 28.7554257,24.2322045 28.6855469,24.3020833 C28.600477,24.3871532 28.5032558,24.4691836 28.3938802,24.5481771 C28.2845047,24.6271705 28.1675353,24.6666667 28.0429688,24.6666667 C27.9730899,24.6666667 27.8675137,24.6431209 27.726237,24.5960286 C27.5849602,24.5489364 27.4505215,24.4858945 27.3229167,24.406901 C27.1953119,24.3279076 27.0935334,24.2398008 27.0175781,24.1425781 C26.9416229,24.0453554 26.9340275,23.9481342 26.9947917,23.8509115 C27.028212,23.7962237 27.0699867,23.746094 27.1201172,23.7005208 C27.1702476,23.6549477 27.2180987,23.6093752 27.2636719,23.5638021 C27.4611555,23.3693567 27.6662316,23.1323799 27.8789063,22.8528646 C27.6480023,22.5824639 27.4391285,22.3120673 27.2522786,22.0416667 C27.0654288,21.771266 26.9264327,21.5418846 26.8352865,21.3535156 C26.8049044,21.2836368 26.7745227,21.2107209 26.7441406,21.1347656 C26.7137585,21.0588104 26.6940105,20.9798181 26.6848958,20.8977865 C26.6393227,20.4481314 26.7973072,20.1891279 27.1588542,20.1207682 C27.5204011,20.0524085 27.7482634,20.0972214 27.8424479,20.2552083 Z" id="x" fill="#28DCF0" fill-rule="nonzero"></path>
        <path d="M13.8821615,3.81315104 C13.8669704,3.74934864 13.859375,3.69618077 13.859375,3.65364583 C13.8563368,3.60807269 13.8624131,3.56553839 13.8776042,3.52604167 C13.8806424,3.49262136 13.9034286,3.45768247 13.9459635,3.42122396 C13.9763456,3.39388007 14.0249563,3.3665366 14.0917969,3.33919271 C14.3348536,3.25108463 14.6128457,3.23589381 14.9257813,3.29361979 C15.0594625,3.31792547 15.1749127,3.4166658 15.2721354,3.58984375 C15.3298614,3.69618109 15.3754339,3.81011224 15.4088542,3.93164062 C15.4483509,4.05924543 15.4817707,4.18532924 15.5091146,4.30989583 C15.5273438,4.3949657 15.548611,4.52256859 15.5729167,4.69270833 C15.5759549,4.73220506 15.5797526,4.76942257 15.5843099,4.80436198 C15.5888672,4.83930139 15.594184,4.87348074 15.6002604,4.90690104 C15.8949668,4.87348074 16.1608061,4.86132808 16.3977865,4.87044271 C16.6165376,4.88563376 16.8033846,4.92816805 16.9583333,4.99804687 C17.0646707,5.04969644 17.1588538,5.15299402 17.2408854,5.30794271 C17.3168407,5.45681498 17.3669704,5.61783768 17.391276,5.79101562 C17.4186199,5.98242283 17.4155818,6.1373692 17.3821615,6.25585937 C17.3487412,6.39561702 17.2834206,6.4730902 17.1861979,6.48828125 C17.158854,6.49131946 17.1102434,6.49283854 17.0403646,6.49283854 C17.0069443,6.49283854 16.9507382,6.48980038 16.8717448,6.48372396 C16.6955286,6.46853291 16.5064029,6.46625429 16.304362,6.47688802 C16.102321,6.48752175 15.8995236,6.50954844 15.6959635,6.54296875 C15.6959635,6.75868163 15.6914063,6.97363174 15.6822917,7.18782552 C15.673177,7.4020193 15.6503908,7.61393124 15.6139323,7.82356771 C15.5592445,8.05750985 15.4908858,8.23828061 15.4088542,8.36588542 C15.3359371,8.46614633 15.2174487,8.54361952 15.0533854,8.59830729 C14.8953985,8.64388044 14.7267804,8.66666667 14.547526,8.66666667 C14.3561188,8.66666667 14.2057297,8.64388044 14.0963542,8.59830729 C13.9657112,8.54665773 13.8973525,8.46918454 13.891276,8.36588542 C13.891276,8.32638869 13.8958333,8.27929715 13.9049479,8.22460937 C13.9140625,8.19118907 13.9277343,8.13498303 13.9459635,8.05598958 C13.9915367,7.87369701 14.0219183,7.67317818 14.0371094,7.45442708 C14.0523004,7.23567599 14.062934,7.01389001 14.0690104,6.7890625 C13.555553,6.883247 13.092233,7.00781173 12.6790365,7.16276042 C12.6243487,7.18706609 12.574219,7.20225691 12.5286458,7.20833333 C12.4709199,7.22352438 12.4283856,7.22504346 12.4010417,7.21289062 C12.3615449,7.20985242 12.3220488,7.19162343 12.2825521,7.15820312 C12.2491318,7.13085924 12.2172311,7.08528678 12.186849,7.02148437 C12.0622824,6.80273328 12.0045572,6.5308176 12.0136719,6.20572917 C12.0167101,6.06900973 12.0972214,5.94292592 12.2552083,5.82747396 C12.3402782,5.76367156 12.4466139,5.69987011 12.5742188,5.63606771 C12.6592886,5.59657098 12.7792961,5.54644128 12.9342448,5.48567708 C13.0162765,5.4583332 13.137803,5.41731798 13.2988281,5.36263021 C13.4082037,5.33224811 13.5312493,5.29882831 13.6679688,5.26236979 C13.7226565,5.24717874 13.7803816,5.23274746 13.8411458,5.21907552 C13.90191,5.20540358 13.9596351,5.1909723 14.0143229,5.17578125 C14.0234375,5.17274304 14.0340711,5.17122396 14.046224,5.17122396 C14.0249565,4.66991937 13.9702695,4.21723292 13.8821615,3.81315104 Z" id="+" fill="#28DCF0" fill-rule="nonzero"></path>
    </g>
</svg>