<?xml version="1.0" encoding="UTF-8"?>
<svg width="32px" height="32px" viewBox="0 0 32 32" version="1.1" xmlns="http://www.w3.org/2000/svg" xmlns:xlink="http://www.w3.org/1999/xlink">
    <title>icone/32x32/communication_deepgreen</title>
    <g id="icone/32x32/communication_deepgreen" stroke="none" stroke-width="1" fill="none" fill-rule="evenodd">
        <g id="comments-alt" transform="translate(4.000000, 5.000000)" fill="#0B554B" fill-rule="nonzero">
            <path d="M21.3333333,6.66666667 L17.3333333,6.66666667 L17.3333333,2.66666667 C17.3333333,1.19583333 16.1375,0 14.6666667,0 L2.66666667,0 C1.19583333,0 0,1.19583333 0,2.66666667 L0,9.33333333 C0,10.8041667 1.19583333,12 2.66666667,12 L4,12 L4,14.1666667 C4,14.4625 4.24166667,14.6666667 4.5,14.6666667 C4.6,14.6666667 4.70416667,14.6375 4.79583333,14.5666667 L8,12.7541667 L8,16 C8,17.4708333 9.19583333,18.6666667 10.6666667,18.6666667 L14.6666667,18.6666667 L19.2041667,21.2333333 C19.2958333,21.3 19.4,21.3333333 19.5,21.3333333 C19.7583333,21.3333333 20,21.1291667 20,20.8333333 L20,18.6666667 L21.3333333,18.6666667 C22.8041667,18.6666667 24,17.4708333 24,16 L24,9.33333333 C24,7.8625 22.8041667,6.66666667 21.3333333,6.66666667 Z M2.66666667,10.6666667 C1.93333333,10.6666667 1.33333333,10.0666667 1.33333333,9.33333333 L1.33333333,2.66666667 C1.33333333,1.93333333 1.93333333,1.33333333 2.66666667,1.33333333 L14.6666667,1.33333333 C15.4,1.33333333 16,1.93333333 16,2.66666667 L16,9.33333333 C16,10.0666667 15.4,10.6666667 14.6666667,10.6666667 L8.98333333,10.6666667 L8.67916667,10.8416667 L5.33333333,12.7333333 L5.33333333,10.6666667 L2.66666667,10.6666667 Z M22.6666667,16 C22.6666667,16.7333333 22.0666667,17.3333333 21.3333333,17.3333333 L18.6666667,17.3333333 L18.6666667,19.4 L15.325,17.5083333 L15.0208333,17.3333333 L10.6666667,17.3333333 C9.93333333,17.3333333 9.33333333,16.7333333 9.33333333,16 L9.33333333,12 L14.6666667,12 C16.1375,12 17.3333333,10.8041667 17.3333333,9.33333333 L17.3333333,8 L21.3333333,8 C22.0666667,8 22.6666667,8.6 22.6666667,9.33333333 L22.6666667,16 Z" id="Shape"></path>
        </g>
    </g>
</svg>