<?xml version="1.0" encoding="utf-8"?>
<!-- Generator: Adobe Illustrator 16.0.0, SVG Export Plug-In . SVG Version: 6.00 Build 0)  -->
<!DOCTYPE svg PUBLIC "-//W3C//DTD SVG 1.1//EN" "http://www.w3.org/Graphics/SVG/1.1/DTD/svg11.dtd">
<svg version="1.1" id="Calque_1" xmlns="http://www.w3.org/2000/svg" xmlns:xlink="http://www.w3.org/1999/xlink" x="0px" y="0px"
	 width="32px" height="32px" viewBox="0 0 32 32" enable-background="new 0 0 32 32" xml:space="preserve">
<path fill="#FFFFFF" d="M21.678,14.461h-10.49V7.817c0-1.93,1.57-3.5,3.5-3.5h1.75c1.93,0,3.5,1.57,3.5,3.5v4.714h1V7.817
	c0-2.481-2.019-4.5-4.5-4.5h-1.75c-2.481,0-4.5,2.019-4.5,4.5v6.644h-0.74c-1.289,0-2.338,1.049-2.338,2.338v10.464
	c0,1.289,1.049,2.338,2.338,2.338h12.23c1.289,0,2.338-1.049,2.338-2.338V16.799C24.016,15.51,22.967,14.461,21.678,14.461z
	 M23.016,27.263c0,0.737-0.601,1.338-1.338,1.338H9.447c-0.737,0-1.338-0.601-1.338-1.338V16.799c0-0.738,0.601-1.338,1.338-1.338
	h12.23c0.737,0,1.338,0.6,1.338,1.338V27.263z"/>
</svg>
