<?xml version="1.0" encoding="UTF-8"?>
<svg width="32px" height="32px" viewBox="0 0 32 32" version="1.1" xmlns="http://www.w3.org/2000/svg" xmlns:xlink="http://www.w3.org/1999/xlink">
    <title>icone/32x32/coordonateur_deepgreen</title>
    <g id="icone/32x32/coordonateur_deepgreen" stroke="none" stroke-width="1" fill="none" fill-rule="evenodd">
        <g id="location-arrow" transform="translate(6.000000, 6.000000)" fill="#0B554B" fill-rule="nonzero" stroke="#0B554B" stroke-width="0.2">
            <path d="M18.0427145,0 C17.8188863,0 17.5899801,0.04296875 17.3634176,0.1375 L1.12240197,7.63320312 C-0.751426152,8.5078125 -0.126816777,11.25625 1.87201135,11.25625 L8.74349572,11.25625 L8.74349572,18.1277344 C8.74349572,19.3 9.68919885,20 10.647402,20 C11.3231832,20 12.0048238,19.6523437 12.3665426,18.8773437 L19.8626363,2.6359375 C20.3927145,1.36289062 19.3020895,0 18.0427145,0 Z M18.7282613,2.1125 L11.2341207,18.3492188 C11.109902,18.615625 10.9122457,18.7507813 10.6470113,18.7507813 C10.4204488,18.7507813 9.99232385,18.6207031 9.99232385,18.128125 L9.99232385,10.0070312 L1.87201135,10.0070312 C1.42474572,10.0070312 1.30013635,9.66210937 1.26693322,9.51367187 C1.22396447,9.32109375 1.21732385,8.96757812 1.64583947,8.76757812 L17.844277,1.290625 C17.9110738,1.26289063 17.9759176,1.24960938 18.0431051,1.24960938 C18.2548238,1.24960938 18.4919332,1.3921875 18.6333395,1.60429688 C18.7188863,1.7328125 18.8020895,1.9328125 18.7282613,2.1125 Z" id="Shape"></path>
        </g>
    </g>
</svg>