<?xml version="1.0" encoding="utf-8"?>
<!-- Generator: Adobe Illustrator 16.0.0, SVG Export Plug-In . SVG Version: 6.00 Build 0)  -->
<!DOCTYPE svg PUBLIC "-//W3C//DTD SVG 1.1//EN" "http://www.w3.org/Graphics/SVG/1.1/DTD/svg11.dtd">
<svg version="1.1" id="Calque_1" xmlns="http://www.w3.org/2000/svg" xmlns:xlink="http://www.w3.org/1999/xlink" x="0px" y="0px"
	 width="32px" height="32px" viewBox="0 0 32 32" enable-background="new 0 0 32 32" xml:space="preserve">
<path fill="#FFFFFF" d="M28.91,26.243"/>
<path fill="#FFFFFF" d="M26.106,6.167h-2.575c-0.127-1.914-1.423-3.427-3.016-3.427c-1.594,0-2.89,1.514-3.018,3.427h-3.473
	c-0.128-1.914-1.424-3.427-3.017-3.427c-1.594,0-2.89,1.514-3.017,3.427H5.799c-1.064,0-1.931,0.866-1.931,1.93L3.867,27.561
	c0,1.064,0.865,1.93,1.93,1.93h20.308c1.064,0,1.931-0.865,1.931-1.93l0.001-19.464C28.036,7.032,27.171,6.167,26.106,6.167z
	 M20.516,3.739c1.048,0,1.904,1.066,2.019,2.427h-4.038C18.61,4.805,19.467,3.739,20.516,3.739z M11.009,3.739
	c1.048,0,1.904,1.066,2.019,2.427H8.989C9.104,4.805,9.96,3.739,11.009,3.739z M5.799,7.167h2.226
	c0.268,1.724,1.502,3.032,2.984,3.032v-1c-0.944,0-1.733-0.866-1.966-2.032h8.488c0.268,1.724,1.502,3.032,2.984,3.032v-1
	c-0.944,0-1.733-0.866-1.966-2.032h7.557c0.513,0,0.93,0.417,0.93,0.93v3.653H4.868V8.097C4.868,7.584,5.286,7.167,5.799,7.167z
	 M26.104,28.49H5.797c-0.513,0-0.93-0.417-0.93-0.93L4.868,12.75h22.168l-0.001,14.811C27.035,28.073,26.617,28.49,26.104,28.49z"/>
<rect x="8.118" y="17.328" fill="#FFFFFF" width="15.667" height="1"/>
<rect x="8.118" y="22.25" fill="#FFFFFF" width="15.667" height="1"/>
</svg>
