<svg height="32" viewBox="0 0 32 32" width="32" xmlns="http://www.w3.org/2000/svg"><g fill="#fff" fill-rule="evenodd" stroke="#fff" stroke-width=".1" transform="translate(3.5 4.3)"><path d="m24.8430402 8.61148397-2.788068-7.71147313c-.2497673-.6914081-1.0154569-1.05071986-1.7070601-.8005624-.5911793.2137727-.938883.8045618-.8712347 1.40373988l-1.5340617.55445311c-.192215.06950173-.2917122.28176245-.2223568.47397742.0695505.19245883.2818112.29190727.4740262.22235676l1.4995791-.54221105 2.4946976 6.9008147-6.4440054 2.32984434c-.8024646-1.3595514-2.4860648-2.00311305-4.0235894-1.44714797-.7033575.25415687-1.2696137.72091587-1.6531169 1.30141377l-1.35004068-3.73343786c-.24367063-.67443504.10671564-1.42163962.78134578-1.66570043l6.6834328-2.4592502c.19241-.0695505.2918585-.28176246.2221129-.47402619-.0693067-.19221497-.2817625-.29166341-.4739774-.2221129l-6.68343282 2.45925019c-1.05852356.38291796-1.6081969 1.55537559-1.22562035 2.61370405l.12783441.35380039-5.64358934 2.04008305c-.30863646-.57059697-.99775222-.84606769-1.62590155-.61917502-.6914081.25015746-1.05032967 1.01584702-.8005624 1.70725512l1.21952371 3.3729556c.19601927.5424062.70911275.8800139 1.25512811.8800139.14992864 0 .30293-.0253133.45193196-.0792564.33492518-.1211525.6025922-.3654084.75388649-.6879452.12266446-.2617655.15680566-.5494782.10037513-.8278266l5.64339425-2.0400831.12598104.3484841c-.17699775.6442933-.16480446 1.3471631.07906126 2.0221346.2642529.7306705.7618853 1.333848 1.418762 1.7288129l-1.82670058 3.9555508h-1.56493512c-.77446876 0-1.40432515.6298564-1.40432515 1.4041301 0 .7744687.63005148 1.4045202 1.40432515 1.4045202h.29571158c.20421315 0 .37018817-.1657311.37018817-.3701881 0-.2046034-.16597502-.3701394-.37018817-.3701394h-.29571158c-.36614 0-.66414391-.2978089-.66414391-.6641927 0-.3659937.29800391-.6637537.66414391-.6637537h1.79948517l6.64724313.000195 1.8015336-.000195c.3661888 0 .6638025.29776.6638025.6637537 0 .3663838-.2976137.6641927-.6638025.6641927h-7.1947352c-.2044083 0-.3701882.165536-.3701882.3701394 0 .204457.1657799.3701881.3701882.3701881h7.1947352c.7744688 0 1.4045203-.6300515 1.4045203-1.4045202 0-.7742737-.6302466-1.4041301-1.4045203-1.4041301h-1.5648863l-1.8267494-3.9555508c1.3075593-.7889544 1.9385862-2.3986632 1.456171-3.8946331l6.4258618-2.32321124c.247475.37687014.6708259.60166554 1.1158808.60166554.1501238 0 .30293-.0257035.4518832-.0794515.334974-.1211525.602641-.36521328.7538865-.68775009.1512943-.3225368.1678772-.68453108.046871-1.01950504zm-21.75355412 5.85697183c-.06706308.1434906-.1861671.2522547-.33512028.3060027-.30751468.1110565-.64814632-.048578-.75905645-.3558976l-1.21952371-3.3729556c-.11105645-.3075147.04857805-.6481463.35589764-.7594466.06647779-.0238013.13432124-.0352142.20099412-.0352142.24293904 0 .47095349.1503188.55840374.391502l1.21932861 3.3727605c.0539431.1490019.04652958.3100021-.02092367.4532488zm.53289537-1.2145488-.85070119-2.3534994 5.62949391-2.03510819.85084751 2.35349929zm6.49404665 6.7162083 1.6832588-3.6452073c.3438507.1156411.7005287.1739251 1.0581334.1739251.3570194 0 .7148192-.058479 1.0621327-.1745104l1.6838441 3.6455975h-5.487369zm3.6311119-4.3688057c-.6508289.2352817-1.353845.2047985-1.9817992-.0851579 0 0-.0001951-.0001951-.0003414-.0001951-.0001951 0-.0003902-.000195-.0007804-.0003901-.0043896-.0019022-.0087792-.0036093-.0129737-.0057065-.6311732-.296053-1.1093939-.8203643-1.3465777-1.4759729-.48924342-1.3536499.2139678-2.8530339 1.5674225-3.3424724.2920536-.1055451.5909842-.15544.88494-.15544 1.0688147 0 2.0738341.6614614 2.4575324 1.7230577.4892434 1.3534547-.2139678 2.8530338-1.5674225 3.3422772zm10.3781936-6.28466351c-.0670631.14344182-.1861184.25205962-.3351203.30575885-.3074659.11105645-.6481463-.04857805-.7592028-.35589764l-2.7878729-7.71166822c-.1111053-.30751468.0487731-.64795123.3560439-.75905645.0663315-.02419148.1341262-.0354093.2008478-.0354093.2428903 0 .4711486.15031883.5584038.39130693l2.7876778 7.711717c.0539431.14875809.0466759.30995333-.0207773.45324883z"/><path d="m12.259764 11.4860756c-.4433479.1602197-.798075.483732-.9982888.9108872-.2002625.426765-.2219665.9061075-.0617468 1.3496505.1602198.4434942.4837321.7980749.9106922.9982887.2381593.1116417.4928526.1678772.7483751.1678772.2025061 0 .4054024-.035263.6014704-.1061304.4432992-.1602198.798075-.483732.9982888-.9106922.2000674-.426765.2219666-.9061074.0617468-1.3498455-.3311209-.9154232-1.3450658-1.3911564-2.2605377-1.0600355zm1.5281601 2.0955381c-.1160313.2478651-.3217564.4356905-.5795712.5287009-.2573759.0931567-.5357243.0803782-.7835894-.0360433-.2478651-.1159826-.4357393-.3217565-.5287009-.5795225-.0931567-.2574247-.0803781-.535773.0358483-.7836382.1161776-.2478651.3221466-.4356905.5797176-.5287008.1145193-.041506.2318675-.0611616.3473135-.0611616.4197417 0 .8145116.2599121.9650255.6767274.0931567.2574247.0803781.535773-.0360434.7836381z"/></g></svg>