<?xml version="1.0" encoding="UTF-8"?>
<svg width="32px" height="32px" viewBox="0 0 32 32" version="1.1" xmlns="http://www.w3.org/2000/svg" xmlns:xlink="http://www.w3.org/1999/xlink">
    <title>icone/32x32/laptop_deepgreen</title>
    <g id="icone/32x32/laptop_deepgreen" stroke="none" stroke-width="1" fill="none" fill-rule="evenodd">
        <g id="laptop" transform="translate(4.000000, 7.000000)" fill="#0B554B" fill-rule="nonzero">
            <path d="M23.4,12.6 L21.6,12.6 L21.6,2.4 C21.6,1.07625 20.523,0 19.2,0 L4.8,0 C3.477,0 2.4,1.07625 2.4,2.4 L2.4,12.6 L0.6,12.6 C0.2685,12.6 0,12.8685 0,13.2 L0,15 C0,16.654125 1.3455,18 3,18 L21,18 C22.6545,18 24,16.654125 24,15 L24,13.2 C24,12.8685 23.7315,12.6 23.4,12.6 Z M3.6,2.4 C3.6,1.737375 4.137375,1.2 4.8,1.2 L19.2,1.2 C19.862625,1.2 20.4,1.737375 20.4,2.4 L20.4,12.6 L14.667375,12.6 C14.515125,12.6 14.404125,12.717375 14.370375,12.865875 C14.24925,13.400625 13.771125,13.8 13.2,13.8 L10.8,13.8 C10.228875,13.8 9.75075,13.400625 9.629625,12.865875 C9.595875,12.717375 9.484875,12.6 9.332625,12.6 L3.6,12.6 L3.6,2.4 Z M22.8,15 C22.8,15.992625 21.992625,16.8 21,16.8 L3,16.8 C2.007375,16.8 1.2,15.992625 1.2,15 L1.2,13.8 L8.503125,13.8 C8.75025,14.49825 9.417375,15 10.2,15 L13.8,15 C14.583,15 15.24975,14.49825 15.496875,13.8 L22.8,13.8 L22.8,15 Z" id="Shape"></path>
        </g>
    </g>
</svg>