<svg xmlns="http://www.w3.org/2000/svg" width="32" height="32" viewBox="0 0 32 32">
  <path fill="#1E1169" fill-rule="evenodd" stroke="#1E1169" stroke-width=".5" d="M11.8468233,2.52729905 L12.3268233,1.82329905 C12.4372233,1.62703238 12.4660233,1.40089905 12.4084233,1.20036571 C12.3508233,0.999832381 12.2116233,0.824899048 11.9860233,0.701165714 C11.7604233,0.598765714 11.5108233,0.573165714 11.2852233,0.624365714 C11.0596233,0.675565714 10.8340233,0.799299048 10.7236233,0.999832381 L10.2724233,1.69956571 L11.8468233,2.52729905 Z M1.46442334,14.7299657 L0.902823336,17.208899 L1.18122334,17.3326324 L1.43562334,17.4819657 L3.57642334,15.8051657 L1.46442334,14.7299657 Z M1.12842334,18.0067657 L0.619623336,18.783299 C0.538023336,18.9326324 0.341223336,18.9582324 0.168423336,18.8814324 C0.000423335934,18.808899 -0.0523766641,18.6339657 0.0580233359,18.4846324 L0.538023336,17.708099 L0.365223336,17.6099657 C0.254823336,17.5587657 0.168423336,17.4350324 0.197223336,17.3070324 L0.902823336,14.2307657 L0.902823336,14.2051657 L0.902823336,14.1795657 L0.931623336,14.1795657 L0.931623336,14.1582324 L0.931623336,14.1326324 L0.955623336,14.1326324 L9.14922334,1.47343238 C9.23082334,1.34969905 9.45642334,1.29849905 9.59562334,1.37529905 L9.68202334,1.42649905 L10.1332233,0.701165714 C10.3540233,0.376899048 10.7236233,0.150765714 11.1172233,0.0483657143 C11.5108233,-0.049767619 11.9332233,0.00143238095 12.3268233,0.201965714 C12.6916233,0.376899048 12.9460233,0.701165714 13.0564233,1.05103238 C13.1668233,1.40089905 13.1140233,1.77636571 12.8884233,2.12623238 L12.4372233,2.82596571 L12.5236233,2.87716571 L13.9588233,3.60249905 C14.1268233,3.70063238 14.1844233,3.87556571 14.0692233,4.02916571 L12.4084233,6.60196571 C12.3268233,6.72569905 12.1012233,6.77689905 11.9572233,6.70436571 C11.7892233,6.62756571 11.7364233,6.45263238 11.8180233,6.30329905 L13.3396233,3.97796571 L12.4660233,3.52569905 L4.42122334,15.9075657 C4.39242334,15.9331657 4.36362334,15.9843657 4.33482334,16.0099657 L1.71882334,18.0579657 C1.60362334,18.1347657 1.43562334,18.1603657 1.32522334,18.1091657 L1.12842334,18.0067657 Z M5.34762334,18.9838324 C5.17962334,18.9838324 5.04042334,18.834499 5.04042334,18.6851657 C5.04042334,18.5102324 5.17962334,18.3822324 5.34762334,18.3822324 L15.4228233,18.3822324 C15.5908233,18.3822324 15.7300233,18.5102324 15.7300233,18.6851657 C15.7300233,18.834499 15.5908233,18.9838324 15.4228233,18.9838324 L5.34762334,18.9838324 Z M4.02762334,15.3571657 L11.8756233,3.22703238 L11.8180233,3.20143238 L9.56682334,2.04943238 L1.69002334,14.1582324 L4.02762334,15.3571657 Z" transform="translate(8.001 6)"/>
</svg>
