<svg height="32" viewBox="0 0 32 32" width="32" xmlns="http://www.w3.org/2000/svg"><path d="m11.84784 2.52714667.48-.704c.1104-.19626667.1392-.4224.0816-.62293334-.0576-.20053333-.1968-.37546666-.4224-.4992-.2256-.1024-.4752-.128-.7008-.0768s-.4512.17493334-.5616.37546667l-.4512.69973333zm-10.3824 12.20266663-.5616 2.4789334.2784.1237333.2544.1493333 2.1408-1.6768zm-.336 3.2768-.5088.7765334c-.0816.1493333-.2784.1749333-.4512.0981333-.168-.0725333-.2208-.2474667-.1104-.3968l.48-.7765333-.1728-.0981334c-.1104-.0512-.1968-.1749333-.168-.3029333l.7056-3.0762667v-.0256-.0256h.0288v-.0213333-.0256h.024l8.1936-12.6592c.0816-.12373333.3072-.17493333.4464-.09813333l.0864.0512.4512-.72533334c.2208-.32426666.5904-.5504.984-.6528.3936-.09813333.816-.04693333 1.2096.1536.3648.17493334.6192.4992.7296.84906667s.0576.72533333-.168 1.0752l-.4512.69973333.0864.0512 1.4352.72533334c.168.09813333.2256.27306666.1104.42666666l-1.6608 2.5728c-.0816.12373334-.3072.17493334-.4512.1024-.168-.0768-.2208-.25173333-.1392-.40106666l1.5216-2.32533334-.8736-.45226666-8.0448 12.38186663c-.0288.0256-.0576.0768-.0864.1024l-2.616 2.048c-.1152.0768-.2832.1024-.3936.0512zm4.2192.9770667c-.168 0-.3072-.1493333-.3072-.2986667 0-.1749333.1392-.3029333.3072-.3029333h10.0752c.168 0 .3072.128.3072.3029333 0 .1493334-.1392.2986667-.3072.2986667zm-1.32-3.6266667 7.848-12.1301333-.0576-.0256-2.2512-1.152-7.8768 12.1088z" fill="#fff" fill-rule="evenodd" stroke="#fff" stroke-width=".5" transform="translate(8 6)"/></svg>