<svg height="32" viewBox="0 0 32 32" width="32" xmlns="http://www.w3.org/2000/svg"><g fill="#fff" transform="translate(4 6.875)"><path d="m4.35657895 14.0641232c-.32522369 0-.62638487-.2016161-.72643421-.5150796-.12259211-.3845507.10308881-.7914223.50429934-.9090924 3.39559868-.9944942 6.83400332-1.2989807 10.47149342-.9236495l-3.0696151-7.50735176c-.7494836-1.83249936-6.79195727-.82878563-8.77774674-.49955199-.17476974.02911425-.33484869.05555969-.47745066.07860847-.41210197.06502182-.80596711-.20088832-.87536842-.59732734-.06940132-.39643903.20972368-.77201284.62359868-.83849038l.46959869-.07715276c3.00249342-.49858151 9.25063815-1.53626187 10.45249675 1.40306419l3.5382006 8.65275477c.0990362.2421335.0554704.5165353-.1139802.7196072-.1691974.2030719-.4369244.3064275-.7074375.2654249-3.8902731-.5643312-7.51737834-.3302041-11.08875992.7162106-.0744671.021593-.1491875.0320256-.22289473.0320256z"/><path d="m11.8782632 16.6744583c-.2758323 0-.5362139-.1443582-.6704573-.3857638-.1643848-.2957523-.0970098-.6606509.163625-.8843453l3.9036974-3.3503222c.3120526-.2680938.792796-.2428614 1.0729342.0562875.2798849.2993915.2537961.7596393-.0587632 1.027733l-1.8449605 1.5833299c1.2889901-.1742002 2.5853257-.2525661 3.8798882-.238009 1.2621414.0150424 2.5599967.1220372 3.872796.3183158l-2.6896809-7.64079203c-.2173224-.61673684-1.3695362-1.58332991-6.6364375-1.12720668-.4153947.03517972-.787477-.25887419-.8254704-.65943774-.0374868-.40032092.2705132-.75430167.6884408-.79069448 3.1116612-.26833633 7.3486875-.34379075 8.2136711 2.11199615l3.0995032 8.80608988c.0868783.246258.0296349.5182336-.149694.7132991-.1795823.1948228-.4536415.2833787-.720102.2326714-1.6557533-.3183158-3.2952961-.4896047-4.8725296-.5085289-2.1197796-.0276586-4.1587599.2071964-6.2395329.7128138-.0623092.0150424-.125125.0225636-.1869276.0225636z"/><path d="m11.8782632 16.6747009c-.2960954 0-.5772468-.1669217-.7000921-.4444775l-1.60002965-3.6213274c-.163625-.3699936.01697039-.7972452.40374342-.9539769.38500003-.1560038.83205593.0160129.99593423.3867343l1.6000296 3.6213273c.163625.3699936-.0169704.7972452-.4037434.9539769-.09625.038819-.196806.0577433-.2958421.0577433zm-6.07413491 3.1501617c-.33991447 0-.64943421-.2200552-.7363125-.5502593l-4.81579276-18.29879072c-.10258224-.3896457.14412171-.78535687.55115789-.88361746.40754276-.09777535.82015132.13805007.92273355.52793838l4.81579277 18.2987908c.10258223.3896457-.14412171.7853568-.5511579.88386-.0625625.0147998-.125125.0220783-.18642105.0220783z"/></g></svg>