<svg xmlns="http://www.w3.org/2000/svg" width="32" height="32" viewBox="0 0 32 32">
  <path fill="#1E1169" stroke="#1E1169" stroke-width=".5" d="M24.9655172,8.06896552 L22.8965517,8.06896552 L22.8965517,7.72413793 C22.8965517,6.77192285 22.1246289,6 21.1724138,6 C20.2201987,6 19.4482759,6.77192285 19.4482759,7.72413793 L19.4482759,8.06896552 L13.2413793,8.06896552 L13.2413793,7.72413793 C13.2413793,6.77192285 12.4694565,6 11.5172414,6 C10.5650263,6 9.79310345,6.77192285 9.79310345,7.72413793 L9.79310345,8.06896552 L7.72413793,8.06896552 C6.77239547,8.07010556 6.00114004,8.84136098 6,9.79310345 L6,24.2758621 C6.00114004,25.2276045 6.77239547,25.99886 7.72413793,26 L24.9655172,26 C25.9172597,25.99886 26.6885151,25.2276045 26.6896552,24.2758621 L26.6896552,9.79310345 C26.6885151,8.84136098 25.9172597,8.07010556 24.9655172,8.06896552 Z M20.137931,7.72413793 C20.137931,7.15280888 20.6010847,6.68965517 21.1724138,6.68965517 C21.7437428,6.68965517 22.2068966,7.15280888 22.2068966,7.72413793 L22.2068966,9.10344828 C22.2068966,9.67477733 21.7437428,10.137931 21.1724138,10.137931 C20.6010847,10.137931 20.137931,9.67477733 20.137931,9.10344828 L20.137931,7.72413793 Z M10.4827586,7.72413793 C10.4827586,7.15280888 10.9459123,6.68965517 11.5172414,6.68965517 C12.0885704,6.68965517 12.5517241,7.15280888 12.5517241,7.72413793 L12.5517241,9.10344828 C12.5517241,9.67477733 12.0885704,10.137931 11.5172414,10.137931 C10.9459123,10.137931 10.4827586,9.67477733 10.4827586,9.10344828 L10.4827586,7.72413793 Z M26,12.5517241 L23.5862069,12.5517241 C23.3957639,12.5517241 23.2413793,12.7061087 23.2413793,12.8965517 C23.2413793,13.0869947 23.3957639,13.2413793 23.5862069,13.2413793 L26,13.2413793 L26,24.2758621 C26,24.8471911 25.5368463,25.3103448 24.9655172,25.3103448 L7.72413793,25.3103448 C7.15280888,25.3103448 6.68965517,24.8471911 6.68965517,24.2758621 L6.68965517,13.2413793 L21.5172414,13.2413793 C21.7076844,13.2413793 21.862069,13.0869947 21.862069,12.8965517 C21.862069,12.7061087 21.7076844,12.5517241 21.5172414,12.5517241 L6.68965517,12.5517241 L6.68965517,9.79310345 C6.68965517,9.2217744 7.15280888,8.75862069 7.72413793,8.75862069 L9.79310345,8.75862069 L9.79310345,9.10344828 C9.79310345,10.0556634 10.5650263,10.8275862 11.5172414,10.8275862 C12.4694565,10.8275862 13.2413793,10.0556634 13.2413793,9.10344828 L13.2413793,8.75862069 L19.4482759,8.75862069 L19.4482759,9.10344828 C19.4482759,10.0556634 20.2201987,10.8275862 21.1724138,10.8275862 C22.1246289,10.8275862 22.8965517,10.0556634 22.8965517,9.10344828 L22.8965517,8.75862069 L24.9655172,8.75862069 C25.5368463,8.75862069 26,9.2217744 26,9.79310345 L26,12.5517241 Z"/>
</svg>
