<svg height="32" viewBox="0 0 32 32" width="32" xmlns="http://www.w3.org/2000/svg"><g fill="#fff" transform="translate(4 6)"><path d="m.87906977 17.872093h5.77209302c.98684466.002059 1.92592974.4250703 2.58139535 1.1627907l.08139535.0860465c.10522711.1086539.21874793.2089565.33953488.3.04883721.0348838.09534884.0697675.13953489.0976745.10660605.0707005.21769274.1344006.33255814.1906976l.0581395.027907c.0604651.0302326.1232558.055814.1860465.0790698.0799781.02989.1614884.0555076.2441861.0767442.0558139.016279.1302325.0372093.2186046.0534883.1258649.0249849.2532961.0413023.3813954.0488372l.1813953.0046512c.1921529-.0003786.3837925-.0198542.5720931-.0581395.0744186-.0139535.1372093-.0302326.1697674-.0418605.0961963-.0239699.1909277-.0534764.2837209-.0883721h.027907l.1465116-.0627907.0418605-.0209302h.0139535c.1240607-.0596783.2437398-.1280663.3581395-.2046512l.1209303-.0837209c.1287811-.1036792.2485858-.2180382.3581395-.3418605l.027907-.027907.0488372-.0534883c.6484512-.731302 1.5807653-1.1474531 2.5581395-1.1418605h5.7883721c.2335473.0000008.4574953-.0929344.6224199-.2582952.1649245-.1653609.2572677-.3895537.256653-.6231001v-13.80000004c-.0063654-.48094979-.398081-.86748395-.8790729-.86744186h-1.7348837v-1.73953489c.00124-.15499993-.0594661-.30407781-.1686336-.41411862-.1091674-.11004081-.2577569-.17192789-.4127618-.17192789h-3.6186046c-1.7003148.00326829-3.3366485.64866488-4.5813954 1.80697674-1.2447468-1.15831186-2.88108051-1.80370845-4.58139531-1.80697674h-3.61860465c-.32109579 0-.58139535.26029956-.58139535.58139535v1.74418605h-1.73488372c-.48099186-.00004209-.87270745.38649207-.87906977.86744186v13.80000004c0 .2331438.09261601.4567386.25747357.6215961.16485756.1648576.3884524.2574736.6215962.2574736zm15.09767443-16.7093023h3.0372093v12.9209302h-3.0372093c-1.4403289.000949-2.8423619.463946-4 1.3209303v-12.53720934c1.0470048-1.08713191 2.4906725-1.70236936 4-1.70465116zm-12.20000001 0h3.0372093c1.5086421.00106371 2.9522094.61457981 4.00000001 1.7v12.5418605c-1.15763815-.8569843-2.55967115-1.3199813-4.00000001-1.3209303h-3.0372093zm-2.61395349 2.32558139h1.45116279v11.18604651c0 .3210958.26029956.5813954.58139535.5813954h3.61860465c1.58395242.001802 3.09208814.6784754 4.14651161 1.8604651.1103067.1235667.2680819.1942174.4337209.1942174.1656391 0 .3234143-.0706507.433721-.1942174 1.0544235-1.1819897 2.5625592-1.8586631 4.1465116-1.8604651h3.6209302c.3210958 0 .5813954-.2602996.5813954-.5813954v-11.18604651h1.4511628v13.23255811h-5.4883721c-1.3165869-.0086097-2.5725196.5527863-3.4441861 1.5395349l-.0186046.0209302-.0209302.0209303c-.0718016.0716347-.1496052.1369896-.2325582.1953488l-.0697674.0488372c-.0669143.045058-.1368466.0854633-.2093024.1209303h-.0139534l-.0348838.016279-.0930232.0395349c-.0570717.0211419-.1153064.0390005-.1744186.0534884l-.1.0232558c-.1093948.02309-.2207654.0355511-.3325582.0372093h-.1023255c-.0781194-.0047488-.1558212-.0148501-.2325582-.0302326-.0488372 0-.0883721-.0209302-.1348837-.0348837-.0488382-.0120652-.0969734-.0268163-.1441861-.044186l-.1023255-.0441861-.0441861-.0209302c-.0707059-.0342056-.1390722-.07305-.2046511-.1162791l-.0813954-.0558139c-.074517-.0564568-.1444984-.1186625-.2093023-.1860465l-.0441861-.0465117c-.87543223-.9827602-2.12805847-1.5460614-3.44418601-1.5488372h-5.48837209z"/><path d="m5.42093023 4.11395349h.96511628c.85022483.00155649 1.68876978.1980656 2.45116279.5744186.28493633.12574452.61835194.00462017.75613778-.27469231.13778584-.27931247.03099575-.61759188-.24218429-.76716815-.9248251-.4576526-1.94255347-.69636918-2.9744186-.69767442h-.95581396c-.32109578 0-.58139535.26029956-.58139535.58139535 0 .32109578.26029957.58139535.58139535.58139535zm0 2.57209302h.96511628c.85022483.00155649 1.68876978.1980656 2.45116279.57441861.28493633.12574452.61835194.00462016.75613778-.27469232.13778584-.27931247.03099575-.61759187-.24218429-.76716815-.9248251-.4576526-1.94255347-.69636918-2.9744186-.69767442h-.95581396c-.32109578 0-.58139535.26029957-.58139535.58139535 0 .32109579.26029957.58139535.58139535.58139535zm0 2.57209302h.96511628c.85022483.00155649 1.68876978.1980656 2.45116279.57441861.28493633.12574452.61835194.00462016.75613778-.27469231.13778584-.27931248.03099575-.61759188-.24218429-.76716816-.9248251-.45765259-1.94255347-.69636918-2.9744186-.69767441h-.95581396c-.32109578 0-.58139535.26029956-.58139535.58139534 0 .32109579.26029957.58139535.58139535.58139535zm3.41627907 3.14883717c.1873834.1025995.41594098.094168.59525562-.0219588s.28049793-.3212404.26352186-.5341982c-.01697606-.2129577-.14937656-.399451-.34482399-.4857034-.92479676-.4577315-1.94254378-.6964524-2.9744186-.6976744h-.95581396c-.32109578 0-.58139535.2602995-.58139535.5813953s.26029957.5813954.58139535.5813954h.96511628c.85040753.0022797 1.6889618.1995866 2.45116279.5767441zm4.8162791-7.65813949c.0887789-.00027865.1763051-.02096665.2558139-.06046512.7659718-.37793024 1.6086572-.57447725 2.4627907-.5744186h.9651163c.3210958 0 .5813954-.26029957.5813954-.58139535 0-.32109579-.2602996-.58140778-.5813954-.58140778h-.9651163c-.7934478-.00151595-1.5808638.13785669-2.3255814.41164034-.2250097.08284693-.4454735.17755323-.6604651.28372093-.241934.11990154-.3694758.39059028-.3079099.65349347s.2960338.44883211.5660494.44883211zm0 2.57209302c.0887789-.00027865.1763051-.02096665.2558139-.06046511.7659718-.37793024 1.6086572-.57447725 2.4627907-.57441861h.9651163c.3210958 0 .5813954-.26029956.5813954-.58139535 0-.32109578-.2602996-.58140778-.5813954-.58140778h-.9651163c-.7934478-.00151595-1.5808638.13785669-2.3255814.41164034-.2250097.08284693-.4454735.17755323-.6604651.28372093-.241934.11990154-.3694758.39059028-.3079099.65349347s.2960338.44883211.5660494.44883211zm0 2.57209303c.0887789-.00027865.1763051-.02096666.2558139-.06046512.7659718-.37793024 1.6086572-.57447725 2.4627907-.57441861h.9651163c.3210958 0 .5813954-.26029956.5813954-.58139534 0-.32109579-.2602996-.58140779-.5813954-.58140779h-.9651163c-.7934478-.00151594-1.5808638.13785669-2.3255814.41164034-.2250097.08284694-.4454735.17755323-.6604651.28372093-.241934.11990155-.3694758.39059029-.3079099.65349348s.2960338.44883211.5660494.44883211zm0 2.57209304c.0887789-.0002787.1763051-.0209667.2558139-.0604651.7661925-.3770471 1.6088499-.5727919 2.4627907-.5720931h.9651163c.3210958 0 .5813954-.2602995.5813954-.5813953s-.2602996-.5814094-.5813954-.5814094h-.9651163c-.7934563-.001613-1.5808896.1377627-2.3255814.4116419-.2250097.082847-.4454735.1775533-.6604651.283721-.241934.1199015-.3694758.3905903-.3079099.6534935.0615659.2629031.2960338.4488321.5660494.4488321z"/></g></svg>