<svg height="32" viewBox="0 0 32 32" width="32" xmlns="http://www.w3.org/2000/svg"><path d="m.49431818.09877636c-.28110305.02649315-.49553565.26310843-.49432334.54545455v2.18181818c0 .30123376.24422595.54542444.54545971.54545455h.54545454v11.45454546h-.54545454c-.01703609-.0007994-.03410028-.0007994-.05113637 0-.28110305.0264931-.49553565.2631084-.49432334.5454545v2.1818182c0 .3012338.24422595.5454546.54545971.5454546h22.90909095c.3012337 0 .5454493-.2442208.5454493-.5454546v-2.1818182c0-.3012337-.2442156-.5454244-.5454493-.5454545h-.5454546v-9.81818183c.0033839-.15708883-.061132-.30800818-.1770253-.41410766-.1158933-.10609947-.2719078-.15707422-.4280883-.13986961-.2810161.03088092-.4918758.27133493-.4857955.55397727v9.81818183h-1.6363636v-2.7272727c-.0000301-.3012338-.2442208-.5454245-.5454546-.5454546h-5.4545454c-.0170361-.0007993-.0341003-.0007993-.0511364 0-.281103.0264932-.4955356.2631085-.4943182.5454546v2.7272727h-11.45454542v-11.45454546h21.27272732c.3012337-.00003011.5454493-.24422079.5454493-.54545455v-2.18181818c0-.30123376-.2442156-.54542444-.5454493-.54545455h-22.90909095c-.01703609-.00079936-.03410028-.00079936-.05113637 0zm.59659091 1.09090909h21.81818181v1.0909091h-21.81818181zm13.63636361 11.45454545h4.3636364v2.1818182h-4.3636364zm-13.63636361 3.2727273h21.81818181v1.0909091h-21.81818181z" fill="#1e1169" transform="translate(4 7.174)"/></svg>