<?xml version="1.0" encoding="UTF-8"?>
<svg width="32px" height="32px" viewBox="0 0 32 32" version="1.1" xmlns="http://www.w3.org/2000/svg" xmlns:xlink="http://www.w3.org/1999/xlink">
    <title>icone/32x32/group_deepgreen</title>
    <g id="icone/32x32/group_deepgreen" stroke="none" stroke-width="1" fill="none" fill-rule="evenodd">
        <g id="users" transform="translate(4.000000, 8.000000)" fill="#0B554B" fill-rule="nonzero">
            <path d="M20.4,7.2 C22.0575,7.2 23.4,5.8575 23.4,4.2 C23.4,2.5425 22.0575,1.2 20.4,1.2 C18.7425,1.2 17.4,2.5425 17.4,4.2 C17.4,5.8575 18.7425,7.2 20.4,7.2 Z M20.4,2.4 C21.39375,2.4 22.2,3.20625 22.2,4.2 C22.2,5.19375 21.39375,6 20.4,6 C19.40625,6 18.6,5.19375 18.6,4.2 C18.6,3.20625 19.40625,2.4 20.4,2.4 Z M12,8.4 C14.32125,8.4 16.2,6.52125 16.2,4.2 C16.2,1.87875 14.32125,0 12,0 C9.67875,0 7.8,1.87875 7.8,4.2 C7.8,6.52125 9.67875,8.4 12,8.4 Z M12,1.2 C13.65375,1.2 15,2.54625 15,4.2 C15,5.85375 13.65375,7.2 12,7.2 C10.34625,7.2 9,5.85375 9,4.2 C9,2.54625 10.34625,1.2 12,1.2 Z M21.15,8.4 L19.65,8.4 C19.08,8.4 18.55125,8.58 18.10875,8.88375 C18.46125,9.12375 18.78,9.405 19.06125,9.72375 C19.245,9.645 19.44375,9.6 19.65,9.6 L21.15,9.6 C22.0575,9.6 22.8,10.40625 22.8,11.4 C22.8,11.73 23.07,12 23.4,12 C23.73,12 24,11.73 24,11.4 C24,9.74625 22.72125,8.4 21.15,8.4 L21.15,8.4 Z M3.6,7.2 C5.2575,7.2 6.6,5.8575 6.6,4.2 C6.6,2.5425 5.2575,1.2 3.6,1.2 C1.9425,1.2 0.6,2.5425 0.6,4.2 C0.6,5.8575 1.9425,7.2 3.6,7.2 Z M3.6,2.4 C4.59375,2.4 5.4,3.20625 5.4,4.2 C5.4,5.19375 4.59375,6 3.6,6 C2.60625,6 1.8,5.19375 1.8,4.2 C1.8,3.20625 2.60625,2.4 3.6,2.4 Z M15.00375,9.15 C13.75125,9.15 13.44,9.6 12,9.6 C10.56,9.6 10.24875,9.15 8.99625,9.15 C7.635,9.15 6.31125,9.7575 5.535,10.90875 C5.07,11.59875 4.8,12.4275 4.8,13.32 L4.8,15 C4.8,15.99375 5.60625,16.8 6.6,16.8 L17.4,16.8 C18.39375,16.8 19.2,15.99375 19.2,15 L19.2,13.32 C19.2,12.4275 18.93,11.59875 18.465,10.90875 C17.68875,9.7575 16.365,9.15 15.00375,9.15 L15.00375,9.15 Z M18,15 C18,15.33 17.73,15.6 17.4,15.6 L6.6,15.6 C6.27,15.6 6,15.33 6,15 L6,13.32 C6,12.6975 6.18375,12.09375 6.52875,11.58 C7.04625,10.81125 7.96875,10.35 8.9925,10.35 C10.02,10.35 10.3875,10.8 12,10.8 C13.6125,10.8 13.98,10.35 15.00375,10.35 C16.0275,10.35 16.95,10.81125 17.4675,11.58 C17.8125,12.09375 17.99625,12.6975 17.99625,13.32 L17.99625,15 L18,15 Z M5.89125,8.88375 C5.445,8.58 4.91625,8.4 4.35,8.4 L2.85,8.4 C1.27875,8.4 0,9.74625 0,11.4 C0,11.73 0.27,12 0.6,12 C0.93,12 1.2,11.73 1.2,11.4 C1.2,10.40625 1.9425,9.6 2.85,9.6 L4.35,9.6 C4.55625,9.6 4.755,9.645 4.93875,9.72375 C5.22,9.405 5.5425,9.12375 5.89125,8.88375 L5.89125,8.88375 Z" id="Shape"></path>
        </g>
    </g>
</svg>