<?xml version="1.0" encoding="UTF-8"?>
<svg width="32px" height="32px" viewBox="0 0 32 32" version="1.1" xmlns="http://www.w3.org/2000/svg" xmlns:xlink="http://www.w3.org/1999/xlink">
    <title>icone/32x32/books_deepgreen</title>
    <g id="icone/32x32/books_deepgreen" stroke="none" stroke-width="1" fill="none" fill-rule="evenodd">
        <g id="books" transform="translate(4.000000, 5.000000)" fill="#0B554B" fill-rule="nonzero">
            <path d="M23.972046,19.017887 L16.6249741,0.334166146 C16.5533075,0.129166465 16.3587245,0 16.1520582,0 C16.0266417,0 15.9449752,0.0429165998 15.6733089,0.137916452 C15.4041427,0.232082972 15.2641429,0.48124925 15.4120593,0.903748592 C14.7262271,1.30749796 12.9474798,1.90749703 12.2662309,2.00458021 C12.2108143,1.84708046 12.1841477,1.72874731 11.9995646,1.61999748 L11.9995646,1.33333126 C11.9995646,0.597082403 11.4024822,0 10.6662334,0 L6.66623962,0 C6.41790667,0 6.19874034,0.0862498656 5.99957399,0.204166349 C5.8008243,0.0862498656 5.58165797,0 5.33332503,0 L1.33333126,0 C0.597082403,0 0,0.597082403 0,1.33333126 L0,19.9999688 C0,20.7362177 0.597082403,21.3333001 1.33333126,21.3333001 L5.33332503,21.3333001 C5.58165797,21.3333001 5.8008243,21.2470502 6,21.1291338 C6.19915701,21.2474669 6.41832333,21.3333001 6.66665628,21.3333001 L10.6666501,21.3333001 C11.4028989,21.3333001 11.9999813,20.7362177 11.9999813,19.9999688 L11.9999813,4.95332562 L18.3095548,20.999134 C18.381638,21.2041336 18.5762211,21.3333001 18.7824707,21.3333001 C18.9074705,21.3333001 18.9891371,21.2903835 19.26122,21.1953836 C19.5295529,21.1016338 19.6708027,20.8524675 19.5224696,20.4295515 C20.2083019,20.0258021 21.9870491,19.4258031 22.668298,19.3287199 C22.8203811,19.7620525 23.0903807,19.8558024 23.350797,19.7645525 L23.6653798,19.6545527 C23.9249627,19.5633029 24.0628792,19.2766366 23.972046,19.017887 L23.972046,19.017887 Z M5.33333126,19.9999688 L1.33333126,19.9999688 L1.33333126,17.3333063 L5.33333126,17.3333063 L5.33333126,19.9999688 Z M5.33333126,15.9999751 L1.33333126,15.9999751 L1.33333126,5.33332503 L5.33333126,5.33332503 L5.33333126,15.9999751 Z M5.33333126,3.99999377 L1.33333126,3.99999377 L1.33333126,1.33333126 L5.33333126,1.33333126 L5.33333126,3.99999377 Z M10.6666563,19.9999688 L6.66665628,19.9999688 L6.66665628,17.3333063 L10.6666563,17.3333063 L10.6666563,19.9999688 Z M10.6666563,15.9999751 L6.66665628,15.9999751 L6.66665628,5.33332503 L10.6666563,5.33332503 L10.6666563,15.9999751 Z M10.6666563,3.99999377 L6.66665628,3.99999377 L6.66665628,1.33333126 L10.6666563,1.33333126 L10.6666563,3.99999377 Z M19.1312202,19.3141366 L12.6578969,3.11999514 C13.7087286,2.92249545 15.3249761,2.27291313 15.8037254,2.01916352 L22.2770486,18.2128883 C21.2258003,18.4108047 19.6099695,19.0599703 19.1312202,19.3141366 L19.1312202,19.3141366 Z" id="Shape"></path>
        </g>
    </g>
</svg>