<?xml version="1.0" encoding="UTF-8"?>
<svg width="32px" height="32px" viewBox="0 0 32 32" version="1.1" xmlns="http://www.w3.org/2000/svg" xmlns:xlink="http://www.w3.org/1999/xlink">
    <title>icone/32x32/home_purple</title>
    <g id="icone/32x32/home_purple" stroke="none" stroke-width="1" fill="none" fill-rule="evenodd">
        <g id="noun_Home_2476998" transform="translate(5.240272, 7.170217)" fill="#1E1169" fill-rule="nonzero">
            <path d="M21.1353805,7.85934783 L11.5536413,0.291521739 C11.0605979,-0.097173913 10.3719022,-0.097173913 9.87885873,0.291521739 L0.297119597,7.85934783 C-0.0420108378,8.12804348 -0.0994021421,8.61847826 0.16929351,8.9576087 C0.437989162,9.29673913 0.928423945,9.35413043 1.26755438,9.08543478 L2.3971196,8.19326087 L2.3971196,16.4863043 C2.3971196,17.2193478 2.99190221,17.8141304 3.72494568,17.8141304 L8.36842394,17.8141304 C8.80146742,17.8141304 9.15103264,17.4645652 9.15103264,17.0315217 C9.15103264,16.5984783 8.80146742,16.248913 8.36842394,16.248913 L3.96233699,16.248913 L3.96233699,7.19673913 C3.96233699,7.12108696 3.94929351,7.05065217 3.92842394,6.98282609 L10.71625,1.62456522 L17.5014674,6.98543478 C17.4832066,7.05326087 17.4675544,7.12369565 17.4675544,7.19934783 L17.4675544,16.2541304 L13.8466848,16.2619565 L13.8466848,11.355 C13.8466848,10.608913 13.2414674,10.0036957 12.4953805,10.0036957 L8.93972829,10.0036957 C8.5771196,10.0036957 8.23798916,10.1445652 7.98233699,10.4028261 C7.72668481,10.661087 7.58842394,11.0002174 7.58842394,11.3654348 L7.61190221,14.1697826 C7.6145109,14.6002174 7.96407612,14.9445652 8.3945109,14.9445652 C8.3971196,14.9445652 8.39972829,14.9445652 8.40233699,14.9445652 C8.83538047,14.9419565 9.18233699,14.5871739 9.1771196,14.1541304 L9.15625003,11.568913 L12.2814674,11.568913 L12.2814674,16.4758696 C12.2814674,16.8384783 12.422337,17.1776087 12.6779892,17.4332609 C12.9336413,17.688913 13.2727718,17.8271739 13.6327718,17.8271739 C13.6327718,17.8271739 13.6353805,17.8271739 13.6353805,17.8271739 L17.6840761,17.8167391 C18.4275544,17.8141304 19.0327718,17.208913 19.0327718,16.4654348 L19.0327718,8.19586957 L20.162337,9.08804348 C20.3058152,9.20282609 20.4779892,9.2576087 20.6475544,9.2576087 C20.8797283,9.2576087 21.1066848,9.15586957 21.2632066,8.96021739 C21.5319022,8.61847826 21.4745109,8.12804348 21.1353805,7.85934783 Z" id="Path"></path>
        </g>
    </g>
</svg>