<?xml version="1.0" encoding="UTF-8"?>
<svg width="32px" height="32px" viewBox="0 0 32 32" version="1.1" xmlns="http://www.w3.org/2000/svg" xmlns:xlink="http://www.w3.org/1999/xlink">
    <title>icone/32x32/home_white</title>
    <g id="icone/32x32/home_white" stroke="none" stroke-width="1" fill="none" fill-rule="evenodd">
        <g id="noun_Home_2476998" transform="translate(5.000000, 7.000000)" fill="#FFFFFF" fill-rule="nonzero">
            <path d="M21.3756522,8.02956522 L11.793913,0.46173913 C11.3008696,0.0730434783 10.6121739,0.0730434783 10.1191304,0.46173913 L0.537391304,8.02956522 C0.19826087,8.29826087 0.140869565,8.78869565 0.409565217,9.12782609 C0.67826087,9.46695652 1.16869565,9.52434783 1.50782609,9.25565217 L2.6373913,8.36347826 L2.6373913,16.6565217 C2.6373913,17.3895652 3.23217391,17.9843478 3.96521739,17.9843478 L8.60869565,17.9843478 C9.04173913,17.9843478 9.39130435,17.6347826 9.39130435,17.2017391 C9.39130435,16.7686957 9.04173913,16.4191304 8.60869565,16.4191304 L4.2026087,16.4191304 L4.2026087,7.36695652 C4.2026087,7.29130435 4.18956522,7.22086957 4.16869565,7.15304348 L10.9565217,1.79478261 L17.7417391,7.15565217 C17.7234783,7.22347826 17.7078261,7.29391304 17.7078261,7.36956522 L17.7078261,16.4243478 L14.0869565,16.4321739 L14.0869565,11.5252174 C14.0869565,10.7791304 13.4817391,10.173913 12.7356522,10.173913 L9.18,10.173913 C8.8173913,10.173913 8.47826087,10.3147826 8.2226087,10.5730435 C7.96695652,10.8313043 7.82869565,11.1704348 7.82869565,11.5356522 L7.85217391,14.34 C7.85478261,14.7704348 8.20434783,15.1147826 8.63478261,15.1147826 C8.6373913,15.1147826 8.64,15.1147826 8.6426087,15.1147826 C9.07565217,15.1121739 9.4226087,14.7573913 9.4173913,14.3243478 L9.39652174,11.7391304 L12.5217391,11.7391304 L12.5217391,16.646087 C12.5217391,17.0086957 12.6626087,17.3478261 12.9182609,17.6034783 C13.173913,17.8591304 13.5130435,17.9973913 13.8730435,17.9973913 C13.8730435,17.9973913 13.8756522,17.9973913 13.8756522,17.9973913 L17.9243478,17.9869565 C18.6678261,17.9843478 19.2730435,17.3791304 19.2730435,16.6356522 L19.2730435,8.36608696 L20.4026087,9.25826087 C20.546087,9.37304348 20.7182609,9.42782609 20.8878261,9.42782609 C21.12,9.42782609 21.3469565,9.32608696 21.5034783,9.13043478 C21.7721739,8.78869565 21.7147826,8.29826087 21.3756522,8.02956522 Z" id="Path"></path>
        </g>
    </g>
</svg>