<?xml version="1.0" encoding="utf-8"?>
<!-- Generator: Adobe Illustrator 16.0.0, SVG Export Plug-In . SVG Version: 6.00 Build 0)  -->
<!DOCTYPE svg PUBLIC "-//W3C//DTD SVG 1.1//EN" "http://www.w3.org/Graphics/SVG/1.1/DTD/svg11.dtd">
<svg version="1.1" id="Calque_1" xmlns="http://www.w3.org/2000/svg" xmlns:xlink="http://www.w3.org/1999/xlink" x="0px" y="0px"
	 width="32px" height="32px" viewBox="0 0 32 32" enable-background="new 0 0 32 32" xml:space="preserve">
<g>
	<g>
		<path fill="#156064" d="M14.648,9.003c0-0.704,0.594-1.298,1.32-1.298s1.298,0.594,1.298,1.298c0,0.726-0.572,1.32-1.298,1.32
			S14.648,9.729,14.648,9.003z M15.022,13.206h1.871v11.089h-1.871V13.206z"/>
	</g>
	<path fill="#156064" d="M15.957,31.384c-8.482,0-15.384-6.899-15.384-15.383c0-8.483,6.901-15.385,15.384-15.385
		c8.482,0,15.384,6.901,15.384,15.385C31.341,24.482,24.439,31.384,15.957,31.384z M15.957,1.616
		c-7.932,0-14.384,6.453-14.384,14.385c0,7.931,6.452,14.383,14.384,14.383c7.932,0,14.384-6.452,14.384-14.383
		C30.341,8.069,23.889,1.616,15.957,1.616z"/>
</g>
</svg>
