<svg xmlns="http://www.w3.org/2000/svg" width="32" height="32" viewBox="0 0 32 32">
  <g fill="#1E1169" transform="translate(4.5 6)">
    <path d="M0.879069767,17.872093 L6.65116279,17.872093 C7.63800745,17.874152 8.57709253,18.2971633 9.23255814,19.0348837 L9.31395349,19.1209302 C9.4191806,19.2295841 9.53270142,19.3298867 9.65348837,19.4209302 C9.70232558,19.455814 9.74883721,19.4906977 9.79302326,19.5186047 C9.89962931,19.5893052 10.010716,19.6530053 10.1255814,19.7093023 L10.1837209,19.7372093 C10.244186,19.7674419 10.3069767,19.7930233 10.3697674,19.8162791 C10.4497455,19.8461691 10.5312558,19.8717867 10.6139535,19.8930233 C10.6697674,19.9093023 10.744186,19.9302326 10.8325581,19.9465116 C10.958423,19.9714965 11.0858542,19.9878139 11.2139535,19.9953488 L11.3953488,20 C11.5875017,19.9996214 11.7791413,19.9801458 11.9674419,19.9418605 C12.0418605,19.927907 12.1046512,19.9116279 12.1372093,19.9 C12.2334056,19.8760301 12.328137,19.8465236 12.4209302,19.8116279 L12.4488372,19.8116279 L12.5953488,19.7488372 L12.6372093,19.727907 L12.6511628,19.727907 C12.7752235,19.6682287 12.8949026,19.5998407 13.0093023,19.5232558 L13.1302326,19.4395349 C13.2590137,19.3358557 13.3788184,19.2214967 13.4883721,19.0976744 L13.5162791,19.0697674 L13.5651163,19.0162791 C14.2135675,18.2849771 15.1458816,17.868826 16.1232558,17.8744186 L21.9116279,17.8744186 C22.1451752,17.8744194 22.3691232,17.7814842 22.5340478,17.6161234 C22.6989723,17.4507625 22.7913155,17.2265697 22.7907008,16.9930233 L22.7907008,3.19302326 C22.7843354,2.71207347 22.3926198,2.32553931 21.9116279,2.3255814 L20.1767442,2.3255814 L20.1767442,0.586046512 C20.1779842,0.431046579 20.1172781,0.281968698 20.0081106,0.171927887 C19.8989432,0.0618870764 19.7503537,0 19.5953488,0 L15.9767442,0 C14.2764294,0.00326829422 12.6400957,0.648664882 11.3953488,1.80697674 C10.150602,0.648664882 8.51426829,0.00326829422 6.81395349,0 L3.19534884,0 C2.87425305,0 2.61395349,0.260299564 2.61395349,0.581395349 L2.61395349,2.3255814 L0.879069767,2.3255814 C0.398077906,2.32553931 0.0063623244,2.71207347 0,3.19302326 L0,16.9930233 C0,17.2261671 0.0926160132,17.4497619 0.257473574,17.6146194 C0.422331134,17.779477 0.645925969,17.872093 0.879069767,17.872093 Z M15.9767442,1.1627907 L19.0139535,1.1627907 L19.0139535,14.0837209 L15.9767442,14.0837209 C14.5364153,14.0846699 13.1343823,14.5476669 11.9767442,15.4046512 L11.9767442,2.86744186 C13.023749,1.78030995 14.4674167,1.1650725 15.9767442,1.1627907 Z M3.77674419,1.1627907 L6.81395349,1.1627907 C8.32259559,1.16385441 9.76616289,1.77737051 10.8139535,2.8627907 C10.8139535,2.8627907 10.8139535,2.8627907 10.8139535,2.8627907 L10.8139535,15.4046512 C9.65631535,14.5476669 8.25428235,14.0846699 6.81395349,14.0837209 L3.77674419,14.0837209 L3.77674419,1.1627907 Z M1.1627907,3.48837209 L2.61395349,3.48837209 L2.61395349,14.6744186 C2.61395349,14.9955144 2.87425305,15.255814 3.19534884,15.255814 L6.81395349,15.255814 C8.39790591,15.257616 9.90604163,15.9342894 10.9604651,17.1162791 C11.0707718,17.2398458 11.228547,17.3104965 11.394186,17.3104965 C11.5598251,17.3104965 11.7176003,17.2398458 11.827907,17.1162791 C12.8823305,15.9342894 14.3904662,15.257616 15.9744186,15.255814 L19.5953488,15.255814 C19.9164446,15.255814 20.1767442,14.9955144 20.1767442,14.6744186 L20.1767442,3.48837209 L21.627907,3.48837209 L21.627907,16.7209302 L16.1395349,16.7209302 C14.822948,16.7123205 13.5670153,17.2737165 12.6953488,18.2604651 L12.6767442,18.2813953 L12.655814,18.3023256 C12.5840124,18.3739603 12.5062088,18.4393152 12.4232558,18.4976744 L12.3534884,18.5465116 C12.2865741,18.5915696 12.2166418,18.6319749 12.144186,18.6674419 L12.1302326,18.6674419 L12.0953488,18.6837209 L12.0023256,18.7232558 C11.9452539,18.7443977 11.8870192,18.7622563 11.827907,18.7767442 L11.727907,18.8 C11.6185122,18.82309 11.5071416,18.8355511 11.3953488,18.8372093 L11.2930233,18.8372093 C11.2149039,18.8324605 11.1372021,18.8223592 11.0604651,18.8069767 C11.0116279,18.8069767 10.972093,18.7860465 10.9255814,18.772093 C10.8767432,18.7600278 10.828608,18.7452767 10.7813953,18.727907 L10.6790698,18.6837209 L10.6348837,18.6627907 C10.5641778,18.6285851 10.4958115,18.5897407 10.4302326,18.5465116 L10.3488372,18.4906977 C10.2743202,18.4342409 10.2043388,18.3720352 10.1395349,18.3046512 L10.0953488,18.2581395 C9.21991657,17.2753793 7.96729033,16.7120781 6.65116279,16.7093023 L1.1627907,16.7093023 L1.1627907,3.48837209 Z"/>
    <path d="M5.42093023 4.11395349L6.38604651 4.11395349C7.23627134 4.11550998 8.07481629 4.31201909 8.8372093 4.68837209 9.12214563 4.81411661 9.45556124 4.69299226 9.59334708 4.41367978 9.73113292 4.13436731 9.62434283 3.7960879 9.35116279 3.64651163 8.42633769 3.18885903 7.40860932 2.95014245 6.37674419 2.94883721L5.42093023 2.94883721C5.09983445 2.94883721 4.83953488 3.20913677 4.83953488 3.53023256 4.83953488 3.85132834 5.09983445 4.11162791 5.42093023 4.11162791L5.42093023 4.11395349zM5.42093023 6.68604651L6.38604651 6.68604651C7.23627134 6.687603 8.07481629 6.88411211 8.8372093 7.26046512 9.12214563 7.38620964 9.45556124 7.26508528 9.59334708 6.9857728 9.73113292 6.70646033 9.62434283 6.36818093 9.35116279 6.21860465 8.42633769 5.76095205 7.40860932 5.52223547 6.37674419 5.52093023L5.42093023 5.52093023C5.09983445 5.52093023 4.83953488 5.7812298 4.83953488 6.10232558 4.83953488 6.42342137 5.09983445 6.68372093 5.42093023 6.68372093L5.42093023 6.68604651zM5.42093023 9.25813953L6.38604651 9.25813953C7.23627134 9.25969602 8.07481629 9.45620513 8.8372093 9.83255814 9.12214563 9.95830266 9.45556124 9.8371783 9.59334708 9.55786583 9.73113292 9.27855335 9.62434283 8.94027395 9.35116279 8.79069767 8.42633769 8.33304508 7.40860932 8.09432849 6.37674419 8.09302326L5.42093023 8.09302326C5.09983445 8.09302326 4.83953488 8.35332282 4.83953488 8.6744186 4.83953488 8.99551439 5.09983445 9.25581395 5.42093023 9.25581395L5.42093023 9.25813953zM8.8372093 12.4069767C9.0245927 12.5095762 9.25315028 12.5011447 9.43246492 12.3850179 9.61177956 12.2688911 9.71296285 12.0637775 9.69598678 11.8508197 9.67901072 11.637862 9.54661022 11.4513687 9.35116279 11.3651163 8.42636603 10.9073848 7.40861901 10.6686639 6.37674419 10.6674419L5.42093023 10.6674419C5.09983445 10.6674419 4.83953488 10.9277414 4.83953488 11.2488372 4.83953488 11.569933 5.09983445 11.8302326 5.42093023 11.8302326L6.38604651 11.8302326C7.23645404 11.8325123 8.07500831 12.0298192 8.8372093 12.4069767zM13.6534884 4.74883721C13.7422673 4.74855856 13.8297935 4.72787056 13.9093023 4.68837209 14.6752741 4.31044185 15.5179595 4.11389484 16.372093 4.11395349L17.3372093 4.11395349C17.6583051 4.11395349 17.9186047 3.85365392 17.9186047 3.53255814 17.9186047 3.21146235 17.6583051 2.95115036 17.3372093 2.95115036L16.372093 2.95115036C15.5786452 2.94963441 14.7912292 3.08900705 14.0465116 3.3627907 13.8215019 3.44563763 13.6010381 3.54034393 13.3860465 3.64651163 13.1441125 3.76641317 13.0165707 4.03710191 13.0781366 4.3000051 13.1397025 4.56290829 13.3741704 4.74883721 13.644186 4.74883721L13.6534884 4.74883721zM13.6534884 7.32093023C13.7422673 7.32065158 13.8297935 7.29996358 13.9093023 7.26046512 14.6752741 6.88253488 15.5179595 6.68598787 16.372093 6.68604651L17.3372093 6.68604651C17.6583051 6.68604651 17.9186047 6.42574695 17.9186047 6.10465116 17.9186047 5.78355538 17.6583051 5.52324338 17.3372093 5.52324338L16.372093 5.52324338C15.5786452 5.52172743 14.7912292 5.66110007 14.0465116 5.93488372 13.8215019 6.01773065 13.6010381 6.11243695 13.3860465 6.21860465 13.1441125 6.33850619 13.0165707 6.60919493 13.0781366 6.87209812 13.1397025 7.13500131 13.3741704 7.32093023 13.644186 7.32093023L13.6534884 7.32093023zM13.6534884 9.89302326C13.7422673 9.89274461 13.8297935 9.8720566 13.9093023 9.83255814 14.6752741 9.4546279 15.5179595 9.25808089 16.372093 9.25813953L17.3372093 9.25813953C17.6583051 9.25813953 17.9186047 8.99783997 17.9186047 8.67674419 17.9186047 8.3556484 17.6583051 8.0953364 17.3372093 8.0953364L16.372093 8.0953364C15.5786452 8.09382046 14.7912292 8.23319309 14.0465116 8.50697674 13.8215019 8.58982368 13.6010381 8.68452997 13.3860465 8.79069767 13.1441125 8.91059922 13.0165707 9.18128796 13.0781366 9.44419115 13.1397025 9.70709434 13.3741704 9.89302326 13.644186 9.89302326L13.6534884 9.89302326zM13.6534884 12.4651163C13.7422673 12.4648376 13.8297935 12.4441496 13.9093023 12.4046512 14.6754948 12.0276041 15.5181522 11.8318593 16.372093 11.8325581L17.3372093 11.8325581C17.6583051 11.8325581 17.9186047 11.5722586 17.9186047 11.2511628 17.9186047 10.930067 17.6583051 10.6697534 17.3372093 10.6697534L16.372093 10.6697534C15.5786367 10.6681404 14.7912034 10.8075161 14.0465116 11.0813953 13.8215019 11.1642423 13.6010381 11.2589486 13.3860465 11.3651163 13.1441125 11.4850178 13.0165707 11.7557066 13.0781366 12.0186098 13.1397025 12.2815129 13.3741704 12.4674419 13.644186 12.4674419L13.6534884 12.4651163z"/>
  </g>
</svg>
