<svg height="32" viewBox="0 0 32 32" width="32" xmlns="http://www.w3.org/2000/svg"><g fill="#1e1169" stroke="#1e1169" stroke-width=".4" transform="translate(4.368 4.368)"><path d="m18.4475252 7.27829447c-.1353846-.06769231-.3046153-.03384616-.4061538.06769231l-10.66153847 10.69538462c-.10153846.1015385-.13538462.2707692-.06769231.4061538.06769231.1353847.20307692.2369231.33846154.2369231h10.66153844c.2030769 0 .3723077-.1692308.3723077-.3723077v-10.69538459c0-.13538462-.1015384-.27076923-.2369231-.33846154zm-.5076923 10.66153843h-9.40923074l9.40923074-9.40923074z"/><path d="m21.4259868.03521754c-.1353846-.0676923-.3046154-.03384615-.4061539.06769231l-20.91692305 20.91692305c-.10153846.1015385-.13538461.2707693-.06769231.4061539.06769231.1353846.20307693.2369231.33846154.2369231h20.91692312c.2030769 0 .3723077-.1692308.3723077-.3723077v-20.91692312c0-.13538461-.1015385-.27076923-.2369231-.33846154zm-2.7415385 20.88307696v-1.1169231c0-.2030769-.1692308-.3723077-.3723077-.3723077s-.3723077.1692308-.3723077.3723077v1.1169231h-1.4892307v-1.1169231c0-.2030769-.1692308-.3723077-.3723077-.3723077-.203077 0-.3723077.1692308-.3723077.3723077v1.1169231h-1.4892308v-1.1169231c0-.2030769-.1692308-.3723077-.3723077-.3723077s-.3723077.1692308-.3723077.3723077v1.1169231h-1.4892307v-1.1169231c0-.2030769-.1692308-.3723077-.3723077-.3723077-.203077 0-.3723077.1692308-.3723077.3723077v1.1169231h-1.4892308v-1.1169231c0-.2030769-.16923077-.3723077-.37230769-.3723077-.20307693 0-.3723077.1692308-.3723077.3723077v1.1169231h-1.48923077v-1.1169231c0-.2030769-.16923076-.3723077-.37230769-.3723077-.20307692 0-.37230769.1692308-.37230769.3723077v1.1169231h-1.48923077v-1.1169231c0-.2030769-.16923077-.3723077-.37230769-.3723077s-.37230769.1692308-.37230769.3723077v1.1169231h-3.24923077l19.63076926-19.63076926v3.21538461h-1.1169231c-.2030769 0-.3723077.16923077-.3723077.37230769 0 .20307693.1692308.3723077.3723077.3723077h1.1169231v1.48923077h-1.1169231c-.2030769 0-.3723077.16923077-.3723077.37230769s.1692308.37230769.3723077.37230769h1.1169231v1.48923077h-1.1169231c-.2030769 0-.3723077.16923077-.3723077.37230769 0 .20307693.1692308.37230769.3723077.37230769h1.1169231v1.48923076h-1.1169231c-.2030769 0-.3723077.1692308-.3723077.3723077s.1692308.3723077.3723077.3723077h1.1169231v1.4892308h-1.1169231c-.2030769 0-.3723077.1692307-.3723077.3723077 0 .2030769.1692308.3723077.3723077.3723077h1.1169231v1.4892307h-1.1169231c-.2030769 0-.3723077.1692308-.3723077.3723077s.1692308.3723077.3723077.3723077h1.1169231v1.5230769h-1.1169231c-.2030769 0-.3723077.1692308-.3723077.3723077s.1692308.3723077.3723077.3723077h1.1169231v2.2338462z"/></g></svg>