<?xml version="1.0" encoding="UTF-8"?>
<svg width="32px" height="32px" viewBox="0 0 32 32" version="1.1" xmlns="http://www.w3.org/2000/svg" xmlns:xlink="http://www.w3.org/1999/xlink">
    <title>icone/32x32/message_32_purple</title>
    <g id="icone/32x32/message_32_purple" stroke="none" stroke-width="1" fill="none" fill-rule="evenodd">
        <g id="noun_Mail_2392580" transform="translate(5.000000, 8.000000)" fill="#1E1169" fill-rule="nonzero">
            <path d="M19.1319443,0 L2.20138904,0 C0.98615376,0.00137745078 0.00134684077,1.00856635 0,2.25142061 L0,13.7485794 C0.00134684077,14.9914337 0.98615376,15.9986225 2.20138904,16 L19.1319443,16 C20.3471796,15.9986225 21.3319865,14.9914337 21.3333333,13.7485794 L21.3333333,2.25142061 C21.3319865,1.00856635 20.3471796,0.00137745078 19.1319443,0 Z M20.1481481,2.25142061 L20.1481481,13.7485794 C20.1470637,13.8041214 20.1415869,13.8594827 20.1317713,13.9141212 L14.3491603,8.0000897 L20.1317926,2.08587879 C20.1416011,2.14051794 20.1470708,2.19587917 20.1481481,2.25142061 Z M19.1319443,1.21212121 C19.1862562,1.21322314 19.2403919,1.21881714 19.2938216,1.22884848 L11.6153932,9.08191273 C11.0910364,9.61671338 10.2424131,9.61671338 9.7180563,9.08191273 L2.0395117,1.22884848 C2.09294154,1.21881783 2.14707719,1.21322383 2.20138904,1.21212121 L19.1319443,1.21212121 Z M1.20156207,13.9141212 C1.19174646,13.8594827 1.18626963,13.8041214 1.18518519,13.7485794 L1.18518519,2.25142061 C1.18626258,2.19587917 1.19173228,2.14051794 1.20154074,2.08587879 L6.9842157,8.00004364 L1.20156207,13.9141212 Z M2.20138904,14.7878788 C2.14707719,14.7867762 2.09294154,14.7811822 2.0395117,14.7711515 L7.82217956,8.85705212 L8.8799763,9.93892121 C9.86743681,10.946495 11.4660127,10.946495 12.4534732,9.93892121 L13.511213,8.85705212 L19.2938216,14.7711515 C19.2403918,14.7811822 19.1862561,14.7867762 19.1319443,14.7878788 L2.20138904,14.7878788 Z" id="Shape"></path>
        </g>
    </g>
</svg>