<svg height="32" viewBox="0 0 32 32" width="32" xmlns="http://www.w3.org/2000/svg"><path d="m14.3489582 0h-12.69791642c-.91142646.00103309-1.65003165.75642476-1.65104178 1.68856545v8.62286905c.00101013.9321407.73961532 1.6875324 1.65104178 1.6885655h12.69791642c.9114265-.0010331 1.6500317-.7564248 1.6510418-1.6885655v-8.62286905c-.0010101-.93214069-.7396153-1.68753236-1.6510418-1.68856545zm.7621529 1.68856545v8.62286905c-.0008133.0416566-.0049209.0831775-.0122827.1241564l-4.3369582-4.43552363 4.3369742-4.43565818c.0073564.04097936.0114587.08250029.0122667.12415636zm-.7621529-.77947454c.0407339.00082644.0813357.00502195.121408.01254545l-5.75882131 5.88979819c-.39326757.40110049-1.0297351.40110049-1.42300267 0l-5.75890844-5.88979819c.04007237-.00752298.08067411-.01171848.121408-.01254545zm-13.44778664 9.52649999c-.00736171-.0409789-.01146934-.0824998-.01228267-.1241564v-8.62286905c.00080805-.04165607.00491032-.083177.01226667-.12415636l4.33700622 4.43562364zm.74987022.6553182c-.04073389-.000827-.08133563-.0050225-.121408-.0125455l4.33700089-4.43557451.79334755.81140182c.74059539.75568037 1.93952728.75568037 2.68012267 0l.79330491-.81140182 4.3369564 4.43557451c-.0400724.007523-.0806741.0117185-.121408.0125455z" fill="#fff" transform="translate(8 10)"/></svg>