<svg height="32" viewBox="0 0 32 32" width="32" xmlns="http://www.w3.org/2000/svg"><g fill="none" fill-rule="evenodd" transform="translate(7 7)"><circle cx="9" cy="9" r="9" stroke="#fff"/><path d="m13.6763636 8.33818182c.2327285 0 .4290901.07636287.5890909.22909091.1600008.15272803.24.34545338.24.57818182 0 .23272843-.0799992.42545378-.24.57818181-.1600008.15272804-.3563624.22909091-.5890909.22909091h-3.68727269v3.68727273c0 .2327284-.07636287.4290901-.22909091.5890909s-.34545338.24-.57818182.24c-.23272843 0-.42545378-.0799992-.57818182-.24-.15272803-.1600008-.22909091-.3563625-.22909091-.5890909v-3.68727273h-3.68727272c-.23272844 0-.42909011-.0799992-.58909091-.24s-.24-.34908982-.24-.56727272c0-.23272844.0799992-.42545379.24-.57818182.1600008-.15272804.35636247-.22909091.58909091-.22909091h3.68727272v-3.68727273c0-.23272844.07636288-.42909011.22909091-.58909091.15272804-.1600008.34545339-.24.57818182-.24.23272844 0 .42545378.0799992.57818182.24s.22909091.35636247.22909091.58909091v3.68727273z" fill="#fff" fill-rule="nonzero"/></g></svg>