<svg height="32" viewBox="0 0 32 32" width="32" xmlns="http://www.w3.org/2000/svg"><path d="m10 14c.2765 0 .5.2235.5.5 0 .2765-.2235.5-.5.5h-9.501c-.2755 0-.499-.2235-.499-.5 0-.2765.2235-.5.499-.5zm9.5-10.4995c.2765 0 .5.2235.5.5 0 .2765-.2235.5-.5.5h-12c-.2755 0-.499-.2235-.499-.5 0-.2765.2235-.5.499-.5zm0 3.4995c.2765 0 .5.224.5.5 0 .276-.2235.5-.5.5l-19.001.0005c-.2755 0-.499-.224-.499-.5005 0-.2765.2235-.5.499-.5zm0-7c.2765 0 .5.224.5.5005 0 .276-.2235.5-.5.5h-12c-.2755 0-.499-.224-.499-.5 0-.2765.2235-.5005.499-.5005zm0 10.5c.2765 0 .5.2235.5.5 0 .2765-.2235.5-.5.5l-19.001.0005c-.2755 0-.499-.224-.499-.5 0-.2765.2235-.5005.499-.5005zm-15-6.45c0 .2485-.201.45-.45.45h-3.6c-.249 0-.45-.2015-.45-.45v-3.6c0-.2485.201-.45.45-.45h3.6c.249 0 .45.2015.45.45z" fill="#fff" transform="translate(6 9)"/></svg>