<?xml version="1.0" encoding="UTF-8"?>
<svg width="32px" height="32px" viewBox="0 0 32 32" version="1.1" xmlns="http://www.w3.org/2000/svg" xmlns:xlink="http://www.w3.org/1999/xlink">
    <title>icone/32x32/newsletter_32_deepgreen</title>
    <g id="icone/32x32/newsletter_32_deepgreen" stroke="none" stroke-width="1" fill="none" fill-rule="evenodd">
        <g id="noun_article_891460" transform="translate(6.000000, 9.000000)" fill="#0B554B" fill-rule="nonzero">
            <g id="Group-2">
                <path d="M10,14 C10.2765,14 10.5,14.2235 10.5,14.5 L10.5,14.5 C10.5,14.7765 10.2765,15 10,15 L10,15 L0.499,15 C0.2235,15 0,14.7765 0,14.5 L0,14.5 C0,14.2235 0.2235,14 0.499,14 L0.499,14 L10,14 L10,14 Z" id="Path"></path>
                <path d="M19.5,3.5005 C19.7765,3.5005 20,3.724 20,4.0005 L20,4.0005 C20,4.277 19.7765,4.5005 19.5,4.5005 L19.5,4.5005 L7.5,4.5005 C7.2245,4.5005 7.001,4.277 7.001,4.0005 L7.001,4.0005 C7.001,3.724 7.2245,3.5005 7.5,3.5005 L7.5,3.5005 L19.5,3.5005 L19.5,3.5005 Z" id="Path"></path>
                <path d="M19.5,7 C19.7765,7 20,7.224 20,7.5 L20,7.5 C20,7.776 19.7765,8 19.5,8 L19.5,8 L0.499,8.0005 C0.2235,8.0005 0,7.7765 0,7.5 L0,7.5 C0,7.2235 0.2235,7 0.499,7 L0.499,7 L19.5,7 L19.5,7 Z" id="Path"></path>
                <path d="M19.5,0 C19.7765,0 20,0.224 20,0.5005 L20,0.5005 C20,0.7765 19.7765,1.0005 19.5,1.0005 L19.5,1.0005 L7.5,1.0005 C7.2245,1.0005 7.001,0.7765 7.001,0.5005 L7.001,0.5005 C7.001,0.224 7.2245,0 7.5,0 L7.5,0 L19.5,0 L19.5,0 Z" id="Path"></path>
                <path d="M19.5,10.5 C19.7765,10.5 20,10.7235 20,11 L20,11 C20,11.2765 19.7765,11.5 19.5,11.5 L19.5,11.5 L0.499,11.5005 C0.2235,11.5005 0,11.2765 0,11.0005 L0,11.0005 C0,10.724 0.2235,10.5 0.499,10.5 L0.499,10.5 L19.5,10.5 L19.5,10.5 Z" id="Path"></path>
                <path d="M4.5,4.05 C4.5,4.2985 4.299,4.5 4.05,4.5 L0.45,4.5 C0.201,4.5 0,4.2985 0,4.05 L0,0.45 C0,0.2015 0.201,0 0.45,0 L4.05,0 C4.299,0 4.5,0.2015 4.5,0.45 L4.5,4.05 Z" id="Path"></path>
            </g>
        </g>
    </g>
</svg>