<svg height="32" viewBox="0 0 32 32" width="32" xmlns="http://www.w3.org/2000/svg"><g fill="#1e1169" fill-rule="evenodd" transform="translate(4 4)"><path d="m11.534528 4.8304c-3.821056 0-6.926528 3.105472-6.926528 6.926528 0 3.816 3.105472 6.926208 6.926528 6.926208 3.820736 0 6.926208-3.110208 6.926208-6.926208 0-3.821056-3.105472-6.926528-6.926208-6.926528zm0 12.676736c-3.168 0-5.750528-2.577472-5.750528-5.750208 0-3.168 2.577472-5.750528 5.750528-5.750528 3.172736 0 5.750208 2.582528 5.750208 5.750528s-2.582208 5.750208-5.750208 5.750208z"/><path d="m22.233472 12.131136c-.196736-.268736-.201472-.638208-.004736-.912l.408-.580736c.321792-.456.436736-1.032.307264-1.579264s-.484736-1.012736-.979264-1.276736l-.624-.336c-.297472-.158528-.456-.484736-.403264-.816l.12-.700736c.091264-.552-.057472-1.118528-.408-1.555264-.354944-.436736-.878208-.700736-1.434944-.724736l-.710528-.028736c-.336-.014528-.624-.24-.715264-.561792l-.206208-.676736c-.24-.830528-1.013056-1.411264-1.881792-1.411264-.264 0-.528.052736-.772736.158528l-.652736.278208c-.302528.129792-.672.048-.888-.196736l-.475264-.528c-.369472-.412736-.902528-.652736-1.454528-.652736-.566208 0-1.104.244736-1.478208.672l-.460736.537472c-.216.249792-.581056.336-.888.211264l-.657792-.268736c-.24-.096-.489472-.148736-.744-.148736-.878208 0-1.656.590208-1.886208 1.44l-.187264.686208c-.086528.321792-.374528.552-.710528.571264l-.705472.043264c-.556736.028736-1.08.302528-1.425792.744-.345472.441472-.484736 1.012736-.384 1.56l.129792.696c.062208.331264-.096.662528-.388736.825472l-.619264.345792c-.489792.273472-.84.744-.96 1.291264-.12.546944 0 1.122944.331264 1.574208l.417472.571264c.196736.268736.201472.638528.004736.912l-.408.580736c-.321472.456-.436736 1.032-.307264 1.579264.129792.547264.485056 1.012736.979264 1.276736l.624.336c.297792.158528.456.484736.403264.816l-.12.700736c-.091264.552.057472 1.118528.408 1.555264.355264.436736.878528.700736 1.435264.724736l.710208.029056c.336.014208.624.24.715264.561472l.196736.681472c.24.830528 1.013056 1.411264 1.881792 1.411264.264 0 .528-.052736.772736-.158208l.652736-.278528c.302528-.129472.672-.048.888.196736l.475264.528c.369472.412736.902528.652736 1.454528.652736.566208 0 1.104-.244736 1.478208-.672l.465792-.537472c.216-.249472.580736-.336.888-.211264l.657472.268736c.24.096.489472.149056.744.149056.878528 0 1.656-.590528 1.886528-1.44l.186944-.686528c.086528-.321472.374528-.552.710528-.571264l.710528-.043264c.561472-.033472 1.08-.302208 1.425472-.744.345472-.441472.484736-1.008.384-1.56l-.129472-.696c-.062528-.330944.096-.662208.388736-.825472l.619264-.345472c.489472-.273792.84-.744.96-1.291264s0-1.123264-.331264-1.574528zm-.398208 1.896c-.048.220736-.187264.403264-.384.513792l-.619264.345472c-.734528.408-1.128 1.238528-.974528 2.064l.129792.696c.043264.225472-.014528.446528-.153792.624-.138944.177472-.340736.283264-.570944.297472l-.705792.043264c-.84.048-1.555264.624-1.776 1.435264l-.187264.681472c-.090944.341056-.402944.576-.753472.576-.100736 0-.201472-.018944-.297472-.057472l-.657792-.268736c-.24-.096-.489472-.148736-.744-.148736-.566208 0-1.104.244736-1.478208.672l-.465792.532736c-.148736.172736-.36.268736-.590208.268736-.225792 0-.432-.091264-.581056-.259264l-.474944-.528c-.369792-.412736-.902528-.652736-1.459264-.652736-.268736 0-.528.052736-.772736.158528l-.653056.278208c-.100736.043264-.201472.062528-.306944.062528-.345792 0-.653056-.230528-.749056-.561792l-.196736-.681472c-.235264-.806528-.955264-1.372736-1.795264-1.411264l-.710208-.028736c-.225792-.009472-.432-.110528-.571264-.288-.144-.177472-.201472-.398528-.163264-.619264l.12-.700736c.139264-.830528-.264-1.651264-1.008-2.049472l-.624-.336c-.201472-.105792-.340736-.288-.393472-.509056-.052736-.220736-.009792-.446208.124736-.628736l.408-.580736c.484736-.686528.48-1.603264-.019264-2.284736l-.417472-.571264c-.134528-.182528-.182528-.408-.129792-.628736.048-.220736.187264-.403264.384-.513792l.619264-.345472c.734528-.408 1.128-1.238528.974528-2.064l-.124736-.691264c-.043264-.225472.014208-.446208.153472-.624.139264-.177472.340736-.283264.571264-.297472l.705472-.043264c.84-.048 1.550528-.624 1.776-1.435264l.187264-.686208c.091264-.341056.403264-.576.753472-.576.101056 0 .201792.018944.297792.057472l.657472.268736c.24.096.489792.148736.744.148736.566528 0 1.104-.244736 1.478528-.672l.465472-.532736c.148736-.172736.36-.268736.590528-.268736.225472 0 .432.091264.580736.259264l.475264.528c.369472.412736.902208.652736 1.459264.652736.268736 0 .528-.052736.772736-.158528l.652736-.278208c.100736-.043264.201472-.062528.307264-.062528.345472 0 .652736.230528.748736.561792l.196736.681472c.235264.806528.955264 1.372736 1.795264 1.411264l.710528.028736c.225472.009472.432.110528.576.288s.201472.398528.162944.619264l-.12.700736c-.138944.830528.264 1.651264 1.008 2.049472l.624.336c.201792.105792.341056.288.393792.509056.052736.220736.009472.446208-.12.628736l-.408.580736c-.484736.686528-.48 1.603264.019264 2.284736l.417472.571264c.115264.182528.163264.408.115264.628736z"/><path d="m13.238528 9.851136-2.573056 2.558528-.834944-.84c-.230528-.230528-.6-.230528-.830528 0-.230528.230208-.230528.6-.004736.830208l1.252736 1.257792c.110528.110208.259264.172736.417472.172736.153792 0 .302528-.062528.413056-.172736l2.990208-2.971264c.230528-.230528.230528-.6.004736-.830528-.230208-.230208-.604736-.230208-.834944-.004736z"/></g></svg>