<svg height="32" viewBox="0 0 32 32" width="32" xmlns="http://www.w3.org/2000/svg"><g fill="#fff" stroke="#fff" transform="translate(7 5)"><path d="m15.125 18.3333333h-12.83333333c-1.28333334 0-2.29166667-1.0083333-2.29166667-2.2916666v-13.75000003c0-1.28333334 1.00833333-2.29166667 2.29166667-2.29166667h12.83333333c1.2833333 0 2.2916667 1.00833333 2.2916667 2.29166667v13.75000003c0 1.2833333-1.0083334 2.2916666-2.2916667 2.2916666zm-12.83333333-17.41666663c-.77916667 0-1.375.59583333-1.375 1.375v13.75000003c0 .7791666.59583333 1.375 1.375 1.375h12.83333333c.7791667 0 1.375-.5958334 1.375-1.375v-13.75000003c0-.77916667-.5958333-1.375-1.375-1.375z" stroke-width=".3"/><path d="m14.7666667 12h-12.13333337c-.56 0-.93333333-.4444444-.93333333-1.1111111v-7.77777779c0-.66666667.37333333-1.11111111.93333333-1.11111111h12.13333337c.56 0 .9333333.44444444.9333333 1.11111111v7.77777779c0 .6666667-.3733333 1.1111111-.9333333 1.1111111zm-12.0666667-9v8h11.954023.045977l-.045977-8z" stroke-width=".2"/><g stroke-width=".3"><circle cx="3.208" cy="14.75" r="1"/><path d="m14.2083333 15.2083333h-4.5833333c-.275 0-.45833333-.1833333-.45833333-.4583333s.18333333-.4583333.45833333-.4583333h4.5833333c.275 0 .4583334.1833333.4583334.4583333s-.1833334.4583333-.4583334.4583333zm.9166667 6.7916667h-12.83333333c-.77916667 0-1.375-.5958333-1.375-1.375v-3.2083333h15.58333333v3.2083333c0 .7791667-.5958333 1.375-1.375 1.375zm-13.29166667-3.6666667v2.2916667c0 .275.18333334.4583333.45833334.4583333h12.83333333c.275 0 .4583333-.1833333.4583333-.4583333v-2.2916667z"/><circle cx="14.208" cy="19.708" r="1"/></g></g></svg>