<?xml version="1.0" encoding="UTF-8"?>
<svg width="32px" height="32px" viewBox="0 0 32 32" version="1.1" xmlns="http://www.w3.org/2000/svg" xmlns:xlink="http://www.w3.org/1999/xlink">
    <title>icone/32x32/numerique_32_purple</title>
    <g id="icone/32x32/numerique_32_purple" stroke="none" stroke-width="1" fill="none" fill-rule="evenodd">
        <g id="noun_Classic-Mac_475647" transform="translate(7.000000, 5.000000)" fill="#1E1169" fill-rule="nonzero" stroke="#1E1169">
            <path d="M15.125,18.3333333 L2.29166667,18.3333333 C1.00833333,18.3333333 0,17.325 0,16.0416667 L0,2.29166667 C0,1.00833333 1.00833333,0 2.29166667,0 L15.125,0 C16.4083333,0 17.4166667,1.00833333 17.4166667,2.29166667 L17.4166667,16.0416667 C17.4166667,17.325 16.4083333,18.3333333 15.125,18.3333333 Z M2.29166667,0.916666667 C1.5125,0.916666667 0.916666667,1.5125 0.916666667,2.29166667 L0.916666667,16.0416667 C0.916666667,16.8208333 1.5125,17.4166667 2.29166667,17.4166667 L15.125,17.4166667 C15.9041667,17.4166667 16.5,16.8208333 16.5,16.0416667 L16.5,2.29166667 C16.5,1.5125 15.9041667,0.916666667 15.125,0.916666667 L2.29166667,0.916666667 Z" id="Shape" stroke-width="0.3"></path>
            <path d="M14.7666667,12 L2.63333333,12 C2.07333333,12 1.7,11.5555556 1.7,10.8888889 L1.7,3.11111111 C1.7,2.44444444 2.07333333,2 2.63333333,2 L14.7666667,2 C15.3266667,2 15.7,2.44444444 15.7,3.11111111 L15.7,10.8888889 C15.7,11.5555556 15.3266667,12 14.7666667,12 Z M2.7,3 L2.7,11 L14.654023,11 C14.654023,11 14.7,11 14.7,11 L14.654023,3 L2.7,3 Z" id="Shape" stroke-width="0.2"></path>
            <circle id="Oval" stroke-width="0.3" cx="3.20833333" cy="14.75" r="1"></circle>
            <path d="M14.2083333,15.2083333 L9.625,15.2083333 C9.35,15.2083333 9.16666667,15.025 9.16666667,14.75 C9.16666667,14.475 9.35,14.2916667 9.625,14.2916667 L14.2083333,14.2916667 C14.4833333,14.2916667 14.6666667,14.475 14.6666667,14.75 C14.6666667,15.025 14.4833333,15.2083333 14.2083333,15.2083333 Z" id="Path" stroke-width="0.3"></path>
            <path d="M15.125,22 L2.29166667,22 C1.5125,22 0.916666667,21.4041667 0.916666667,20.625 L0.916666667,17.4166667 L16.5,17.4166667 L16.5,20.625 C16.5,21.4041667 15.9041667,22 15.125,22 Z M1.83333333,18.3333333 L1.83333333,20.625 C1.83333333,20.9 2.01666667,21.0833333 2.29166667,21.0833333 L15.125,21.0833333 C15.4,21.0833333 15.5833333,20.9 15.5833333,20.625 L15.5833333,18.3333333 L1.83333333,18.3333333 Z" id="Shape" stroke-width="0.3"></path>
            <circle id="Oval" stroke-width="0.3" cx="14.2083333" cy="19.7083333" r="1"></circle>
        </g>
    </g>
</svg>