<svg height="32" viewBox="0 0 32 32" width="32" xmlns="http://www.w3.org/2000/svg"><path d="m21.84 16.8552c.2143594.0197211.4229566-.0764153.5472152-.2521954.1242587-.1757801.1453008-.4044988.0552-.6-.0901007-.1955012-.2776558-.3280835-.4920152-.3478046l-1.596-.2952c-.2109296-.0394421-.4268787.0366415-.5665014.1995908s-.1817069.3880085-.1104.5904.2451718.3513671.4561014.3908092l1.5984.2976c.0354218.0088353.0715682.0144581.108.0168zm-2.7024 2.4792c.185337.2434683.5241942.3084674.7864652.1508585.262271-.1576088.3639261-.4873289.2359348-.7652585l-.7608-1.2552c-.1716501-.2836534-.5407466-.3744501-.8244-.2028s-.3744501.5407466-.2028.8244zm.5976-4.9344c.1320485-.0001535.2603279-.0440385.3648-.1248l1.164-.8976c.2650967-.2021362.3161362-.5809033.114-.846s-.5809033-.3161362-.846-.114l-1.164.8976c-.2120582.1544817-.299155.4288264-.2150355.6773364.0841195.2485099.3199451.4135468.5822355.4074636zm-.8256-4.5096c-.1793636-.26673092-.4283773-.47922262-.72-.6144-.9693974-.4941279-1.6002447-1.46924016-1.6536-2.556-.0128759-.32152252-.0441269-.6420457-.0936-.96-.4176-2.58-2.0424-5.64-7.368-5.64h-.0984c-4.7616 0-8.4696 3.1608-8.8296 7.5336-.14886601 1.73464551.25704627 3.4717484 1.1592 4.9608 1.47841865 2.369479 1.6546195 5.3269424.468 7.8552-.11286642.2338479-.06250134.5137615.1248.6936 1.97151462 1.729666 4.49820478 2.6945262 7.1208 2.7192.78157532-.0007075 1.5606875-.0876332 2.3232-.2592.2785183-.0568502.4789206-.3013409.48-.5856v-2.4648c.1728.0256.3488.0464.528.0624 1.0174031.0932345 2.0427518.0480222 3.048-.1344.5966114-.1160745 1.1144193-.4832777 1.4212993-1.0079139s.3731501-1.1559614.1819007-1.7328861c-.0059419-.1954077.0142364-.3907338.06-.5808l.0744-.2976c.0691921-.2739383.021376-.5643122-.132-.8016-.149956-.2312144-.3888132-.390163-.66-.4392-.732-.1296-1.2264-.4416-1.44-.9024.7950721.0074551 1.5866127-.1066627 2.3472-.3384.2533785-.0864086.4188578-.3302214.4056-.5976l-.0696-1.4112c.4439844-.1670694.8426413-.4358545 1.164-.7848.4270101-.4737955.4914638-1.1720438.1584-1.716zm-1.0536.924c-.2884556.291609-.655257.4933498-1.056.5808-.2656057.0783122-.4431197.3282201-.4296.6048l.0672 1.38c-.5513562.1212195-1.1158599.1720248-1.68.1512-.3457044-.0132349-.6764899.1414297-.888.4152-.2154389.2806983-.2807982.6486805-.1752.9864.1704.5496.6864 1.5 2.2296 1.8456l-.0264.1032c-.0942053.3765599-.1137734.7679212-.0576 1.152.0055292.0252549.0127453.0501106.0216.0744.0915537.2534357.0669767.5343157-.0672.768-.1315105.2345746-.3615089.3976003-.6264.444-.8991582.1634072-1.8163622.2037771-2.7264.12-.9036581-.0672614-1.7836634-.3205591-2.5848-.744-.5079312-.2494553-.94710331-.6194146-1.2792-1.0776-.18092848-.2776888-.55271123-.3561285-.8304-.1752s-.35612848.5527112-.1752.8304c.43979555.6257294 1.02769076 1.13282 1.7112 1.476.42263212.2289585.8672832.4146988 1.3272.5544v2.2416c-3.7896.648-6.6432-1.2576-7.5648-1.9824 1.14864074-2.806904.88085213-5.9944811-.72-8.5704-.76895495-1.2736715-1.11351802-2.75865429-.984-4.2408.3072-3.732 3.5136-6.432 7.6392-6.432h.0912c3.648 0 5.6808 1.5144 6.1848 4.6248.0427972.27821111.0692426.55869257.0792.84.0732584 1.5043198.9419578 2.85583327 2.28 3.5472.0972662.0441032.1864914.1041274.264.1776.0591531.096004.0494497.2192372-.024.3048z" fill="#fff" transform="translate(5 4)"/></svg>