<svg xmlns="http://www.w3.org/2000/svg" width="32" height="32" viewBox="0 0 32 32">
  <path fill="#1E1169" d="M21.7237023 16.7352C21.9380616 16.7549211 22.1466589 16.6587847 22.2709175 16.4830046 22.3951761 16.3072245 22.4162183 16.0785058 22.3261175 15.8830046 22.2360168 15.6875034 22.0484616 15.5549211 21.8341023 15.5352L20.2381023 15.24C20.0271727 15.2005579 19.8112236 15.2766415 19.6716009 15.4395908 19.5319782 15.6025401 19.489894 15.8275993 19.5612009 16.0299908 19.6325078 16.2323823 19.8063727 16.3813579 20.0173023 16.4208L21.6157023 16.7184C21.651124 16.7272353 21.6872704 16.7328581 21.7237023 16.7352zM19.0213023 19.2144C19.2066393 19.4578683 19.5454965 19.5228674 19.8077675 19.3652585 20.0700385 19.2076497 20.1716936 18.8779296 20.0437023 18.6L19.2829023 17.3448C19.1112522 17.0611466 18.7421557 16.9703499 18.4585023 17.142 18.1748488 17.3136501 18.0840522 17.6827466 18.2557023 17.9664L19.0213023 19.2144zM19.6189023 14.28C19.7509508 14.2798465 19.8792302 14.2359615 19.9837023 14.1552L21.1477023 13.2576C21.412799 13.0554638 21.4638385 12.6766967 21.2617023 12.4116 21.0595661 12.1465033 20.680799 12.0954638 20.4157023 12.2976L19.2517023 13.1952C19.0396441 13.3496817 18.9525472 13.6240264 19.0366667 13.8725364 19.1207863 14.1210463 19.3566118 14.2860832 19.6189023 14.28L19.6189023 14.28zM18.7933023 9.7704C18.6139386 9.50366908 18.3649249 9.29117738 18.0733023 9.156 17.1039049 8.6618721 16.4730576 7.68675984 16.4197023 6.6 16.4068264 6.27847748 16.3755753 5.9579543 16.3261023 5.64 15.9085023 3.06 14.2837023 0 8.95810228 0L8.85970228 0C4.09810228 0 .390102282 3.1608.0301022819 7.5336-.118763729 9.26824551.287148548 11.0053484 1.18930228 12.4944 2.66772094 14.863879 2.84392178 17.8213424 1.65730228 20.3496 1.54443587 20.5834479 1.59480094 20.8633615 1.78210228 21.0432 3.7536169 22.772866 6.28030706 23.7377262 8.90290228 23.7624 9.6844776 23.7616925 10.4635898 23.6747668 11.2261023 23.5032 11.5046206 23.4463498 11.7050228 23.2018591 11.7061023 22.9176L11.7061023 20.4528C11.8789023 20.4784 12.0549023 20.4992 12.2341023 20.5152 13.2515054 20.6084345 14.2768541 20.5632222 15.2821023 20.3808 15.8787137 20.2647255 16.3965216 19.8975223 16.7034016 19.3728861 17.0102816 18.8482499 17.0765517 18.2169247 16.8853023 17.64 16.8793604 17.4445923 16.8995387 17.2492662 16.9453023 17.0592L17.0197023 16.7616C17.0888944 16.4876617 17.0410783 16.1972878 16.8877023 15.96 16.7377462 15.7287856 16.4988891 15.569837 16.2277023 15.5208 15.4957023 15.3912 15.0013023 15.0792 14.7877023 14.6184 15.5827744 14.6258551 16.374315 14.5117373 17.1349023 14.28 17.3882807 14.1935914 17.5537601 13.9497786 17.5405023 13.6824L17.4709023 12.2712C17.9148867 12.1041306 18.3135436 11.8353455 18.6349023 11.4864 19.0619124 11.0126045 19.1263661 10.3143562 18.7933023 9.7704zM17.7397023 10.6944C17.4512467 10.986009 17.0844452 11.1877498 16.6837023 11.2752 16.4180966 11.3535122 16.2405826 11.6034201 16.2541023 11.88L16.3213023 13.26C15.7699461 13.3812195 15.2054424 13.4320248 14.6413023 13.4112 14.2955978 13.3979651 13.9648124 13.5526297 13.7533023 13.8264 13.5378634 14.1070983 13.472504 14.4750805 13.5781023 14.8128 13.7485023 15.3624 14.2645023 16.3128 15.8077023 16.6584L15.7813023 16.7616C15.687097 17.1381599 15.6675289 17.5295212 15.7237023 17.9136 15.7292314 17.9388549 15.7364476 17.9637106 15.7453023 17.988 15.836856 18.2414357 15.812279 18.5223157 15.6781023 18.756 15.5465918 18.9905746 15.3165934 19.1536003 15.0517023 19.2 14.1525441 19.3634072 13.2353401 19.4037771 12.3253023 19.32 11.4216442 19.2527386 10.5416389 18.9994409 9.74050228 18.576 9.23257108 18.3265447 8.79339897 17.9565854 8.46130228 17.4984 8.2803738 17.2207112 7.90859105 17.1422715 7.63090228 17.3232 7.35321351 17.5041285 7.2747738 17.8759112 7.45570228 18.1536 7.89549783 18.7793294 8.48339304 19.28642 9.16690228 19.6296 9.58953441 19.8585585 10.0341854 20.0442988 10.4941023 20.184L10.4941023 22.4256C6.70450228 23.0736 3.85090228 21.168 2.92930228 20.4432 4.07794302 17.636296 3.81015441 14.4487189 2.20930228 11.8728 1.44034733 10.5991285 1.09578426 9.11414571 1.22530228 7.632 1.53250228 3.9 4.73890228 1.2 8.86450228 1.2L8.95570228 1.2C12.6037023 1.2 14.6365023 2.7144 15.1405023 5.8248 15.1832995 6.10301111 15.2097449 6.38349257 15.2197023 6.6648 15.2929606 8.1691198 16.1616601 9.52063327 17.4997023 10.212 17.5969685 10.2561032 17.6861937 10.3161274 17.7637023 10.3896 17.8228554 10.485604 17.813152 10.6088372 17.7397023 10.6944L17.7397023 10.6944z" transform="translate(5.116 4.12)"/>
</svg>
