<svg height="32" viewBox="0 0 32 32" width="32" xmlns="http://www.w3.org/2000/svg"><path d="m6.29401661.59562127c.24682736.00725418.51375305.04039258.80044485.09974493.32522744.07122282.60560737.17624351.8411398.3148972.19865783.11375868.35363086.30137806.464753.56269327.13188487.30434567.22440361.72294462.27788841 1.25579685.05514581.56648523.00880339 1.33213057-.13869505 2.29660629-.14766456.96447572-.45694621 2.56220807-.92834328 4.79319704-.47139707 2.23098895-.8052618 3.49766705-1.0015942 3.80019925-.19616629.3023672-.45362417.5152113-.77237363.637708-.16959.0633092-.45163095.1025477-.84595676.1185398-.39449191.0156625-.78931602-.0133542-1.18447234-.0875447-.39532242-.0741904-.733838-.195533-1.01521455-.3638629-.28170875-.1683298-.39714954-.4118393-.34582406-.7310231.0357119-.1612406.45246146-1.7109964 1.25008257-4.64926759.36276646-1.35405796.64032266-2.57704615.83233641-3.66863483-.57604124.33369212-1.25423512.72624198-2.03424944 1.17830906-.82585843.15299718-1.46086583-.19685197-1.9053544-1.04971229l-.38087156-.73085827c-.46940385-.91600464-.1431798-1.66977951.97833994-2.26132462.8408076-.54999846 1.73842203-.9793138 2.6930094-1.2876163.86921102-.27335056 1.67414061-.34935454 2.41495489-.22784709m15.41227569 9.71914553c.14019.2685694.2597833.6566678.3589461 1.164625.0989967.5081221.1202578.911883.063617 1.2114475-.0137864.137005-.0732509.2825831-.1783934.4370641l-.0043186.0309951-.0059797.0212679c-.006478.001319-.0124576.0059353-.0176068.0135192l-.0157797.0232463c-.0064779.0011541-.0124576.0057704-.0176068.0133543l-.0157796.0232463c-.0131221.0024731-.0182712.010057-.0157797.0230815-.0066441.0013189-.0093017.0051109-.0079729.0115407-.3900072.1152425-1.0422891.2740101-1.9565138.4766324-.9142246.2022926-2.0148155.403596-3.3012744.6039102-1.286791.2001493-2.4960126.3368246-3.6283289.4098609-1.1321503.0732013-1.8734629-.0075839-2.2236056-.2425203-.75775665-.4853703-.83881435-1.3444956-.2436714-2.5765515.595143-1.2322208 1.7266288-2.55726204 3.3947897-3.97545352 1.6679949-1.41802662 2.3438633-2.46246314 2.026941-3.13347446-.3167562-.67068158-.8864856-.96414598-1.7086898-.88006349-.2122782-.01302454-.469736.044844-.7727058.17344077-.3029698.12876163-.8394788.41299345-1.6091948.85286032-.7698821.44003175-1.3980794.36781972-1.88376118-.21713069-.48618013-.58462066-.48584793-1.34663892.00049831-2.28605476.48651237-.93941584 1.79057797-1.71000721 3.91186487-2.31226871.6481294-.14458893 1.2828046-.20262234 1.9038594-.17442997 1.1150418-.03940337 2.2559955.42618286 3.422861 1.39692355 1.1665333.97090556 1.6027168 2.13256299 1.3085504 3.48480741-.2944986 1.35240929-1.1750045 2.68272631-2.6410195 3.99161054-1.4663472 1.30888421-2.3795752 2.13223321-2.7398501 2.46988221l6.0462737-1.2520049c.0247491-.0113759.0594644-.0247302.1038136-.0400629.0455119-.0087379.081556-.0156624.107634-.0207733.0416916.0056055.073417.0128597.0955086.0219274l.079895.0451738c.0388678.0262139.0679356.0540765.0873696.0839176.0257458.028687.0509932.0707282.0754102.1264535" fill="#fff" fill-rule="evenodd" transform="translate(5 9)"/></svg>