<svg xmlns="http://www.w3.org/2000/svg" width="23" height="20" viewBox="0 0 23 20">
  <g fill="none" fill-rule="evenodd" transform="translate(-29 -533)">
    <rect width="304" height="624" fill="#FFF" rx="8"/>
    <path fill="#1E1169" fill-rule="nonzero" d="M22.0882324,8.153125 L20.099707,6.13258929 C19.8360352,5.86473214 19.4783203,5.71428571 19.1052246,5.71428571 L16.875,5.71428571 L16.875,2.14285714 C16.875,0.961160714 15.9288574,0 14.765625,0 L7.734375,0 C6.57114258,0 5.625,0.961160714 5.625,2.14285714 L5.625,5.71428571 L3.39477539,5.71428571 C3.02167969,5.71428571 2.6644043,5.86473214 2.40029297,6.13258929 L0.411767578,8.153125 C0.148095703,8.42098214 0,8.784375 0,9.16339286 L0,18.5714286 C0,19.3602679 0.629736328,20 1.40625,20 L21.09375,20 C21.8702637,20 22.5,19.3602679 22.5,18.5714286 L22.5,9.16294643 C22.5,8.784375 22.3519043,8.42098214 22.0882324,8.153125 Z M7.03125,2.14285714 C7.03125,1.74866071 7.3472168,1.42857143 7.734375,1.42857143 L14.765625,1.42857143 C15.1527832,1.42857143 15.46875,1.74866071 15.46875,2.14285714 L15.46875,5.71428571 L7.03125,5.71428571 L7.03125,2.14285714 Z M21.09375,18.5714286 L1.40625,18.5714286 L1.40625,14.2857143 L5.625,14.2857143 L5.625,15.3571429 C5.625,15.5544643 5.78232422,15.7142857 5.9765625,15.7142857 L6.6796875,15.7142857 C6.87392578,15.7142857 7.03125,15.5544643 7.03125,15.3571429 L7.03125,14.2857143 L15.46875,14.2857143 L15.46875,15.3571429 C15.46875,15.5544643 15.6260742,15.7142857 15.8203125,15.7142857 L16.5234375,15.7142857 C16.7176758,15.7142857 16.875,15.5544643 16.875,15.3571429 L16.875,14.2857143 L21.09375,14.2857143 L21.09375,18.5714286 Z M16.875,12.8571429 L16.875,11.7857143 C16.875,11.5883929 16.7176758,11.4285714 16.5234375,11.4285714 L15.8203125,11.4285714 C15.6260742,11.4285714 15.46875,11.5883929 15.46875,11.7857143 L15.46875,12.8571429 L7.03125,12.8571429 L7.03125,11.7857143 C7.03125,11.5883929 6.87392578,11.4285714 6.6796875,11.4285714 L5.9765625,11.4285714 C5.78232422,11.4285714 5.625,11.5883929 5.625,11.7857143 L5.625,12.8571429 L1.40625,12.8571429 L1.40625,9.16294643 L3.39477539,7.14285714 L19.1047852,7.14285714 L21.09375,9.16294643 L21.09375,12.8571429 L16.875,12.8571429 Z" transform="translate(29 533)"/>
  </g>
</svg>
