<?xml version="1.0" encoding="utf-8"?>
<!-- Generator: Adobe Illustrator 16.0.0, SVG Export Plug-In . SVG Version: 6.00 Build 0)  -->
<!DOCTYPE svg PUBLIC "-//W3C//DTD SVG 1.1//EN" "http://www.w3.org/Graphics/SVG/1.1/DTD/svg11.dtd">
<svg version="1.1" id="Calque_1" xmlns="http://www.w3.org/2000/svg" xmlns:xlink="http://www.w3.org/1999/xlink" x="0px" y="0px"
	 width="32px" height="32px" viewBox="0 0 32 32" enable-background="new 0 0 32 32" xml:space="preserve">
<path fill="#FFFFFF" d="M16,31.438c-8.482,0-15.384-6.9-15.384-15.383C0.616,7.572,7.518,0.671,16,0.671s15.384,6.901,15.384,15.385
	C31.384,24.538,24.482,31.438,16,31.438z M16,1.671c-7.932,0-14.384,6.453-14.384,14.385c0,7.931,6.452,14.383,14.384,14.383
	s14.384-6.452,14.384-14.383C30.384,8.124,23.932,1.671,16,1.671z"/>
<g>
	<path fill="#FFFFFF" d="M19,14.68h-0.107c1.141-0.875,1.889-2.236,1.889-3.781c0-2.637-2.145-4.781-4.781-4.781
		s-4.781,2.145-4.781,4.781c0,1.545,0.748,2.906,1.889,3.781H13c-2.481,0-4.5,2.019-4.5,4.5v6.057c0.322,0.243,0.654,0.472,1,0.684
		v-6.74c0-1.93,1.57-3.5,3.5-3.5h3h3c1.93,0,3.5,1.57,3.5,3.5v6.74c0.346-0.212,0.678-0.44,1-0.684V19.18
		C23.5,16.698,21.481,14.68,19,14.68z M12.219,10.898c0-2.085,1.696-3.781,3.781-3.781s3.781,1.696,3.781,3.781
		S18.085,14.68,16,14.68S12.219,12.983,12.219,10.898z"/>
</g>
</svg>
