<?xml version="1.0" encoding="UTF-8"?>
<svg width="32px" height="32px" viewBox="0 0 32 32" version="1.1" xmlns="http://www.w3.org/2000/svg" xmlns:xlink="http://www.w3.org/1999/xlink">
    <title>icone/32x32/profil_purple</title>
    <g id="icone/32x32/profil_purple" stroke="none" stroke-width="1" fill="none" fill-rule="evenodd">
        <g id="Group-9" transform="translate(6.000000, 6.000000)" stroke="#1E1169" stroke-width="1.5">
            <path d="M19.9115044,10 C19.9115044,4.5260177 15.4739823,0.0884955752 10,0.0884955752 C4.5260177,0.0884955752 0.0884955752,4.5260177 0.0884955752,10 C0.0884955752,15.4739823 4.5260177,19.9115044 10,19.9115044 C15.4739823,19.9115044 19.9115044,15.4739823 19.9115044,10 Z" id="Stroke-1"></path>
            <path d="M14.8672566,8.31858407 C14.8672566,5.67929204 12.7277876,3.53982301 10.0884956,3.53982301 C7.44920354,3.53982301 5.30973451,5.67929204 5.30973451,8.31858407 C5.30973451,10.9578761 7.44920354,13.0973451 10.0884956,13.0973451 C12.7277876,13.0973451 14.8672566,10.9578761 14.8672566,8.31858407 Z" id="Stroke-3"></path>
            <path d="M17.6339469,16.3215575 C16.3502301,14.4875752 14.4148319,13.1431504 12.1638584,12.6242124" id="Stroke-5"></path>
            <path d="M7.72486726,12.6956637 C5.55053097,13.2717699 3.6919469,14.6238053 2.46345133,16.4374336" id="Stroke-7"></path>
        </g>
    </g>
</svg>