<svg height="32" viewBox="0 0 32 32" width="32" xmlns="http://www.w3.org/2000/svg"><g fill="#1e1169" stroke="#1e1169" stroke-width=".3" transform="translate(6 5.956)"><path d="m0 12.6572076c.00038479 5.1640336 4.23710901 9.418313 9.62721994 9.6671109 5.39011096.248798 10.03504686-3.5955197 10.55481006-8.7355442.5197633-5.14002446-3.2687226-9.76528212-8.6086761-10.51009468.3119415-.33536699.4849023-.7683512.4862753-1.21732555 0-1.02799747-.8708516-1.86135407-1.9451014-1.86135407-1.07424994 0-1.94510154.8333566-1.94510154 1.86135407.00137303.44897435.17433379.88195856.48627537 1.21732555-4.96607933.70071751-8.64773258 4.77488969-8.65570163 9.57852798zm8.94746686-10.79585353c0-.61679848.52251096-1.11681244 1.16706094-1.11681244.6445499 0 1.1670608.50001396 1.1670608 1.11681244 0 .61679847-.5225109 1.11681243-1.1670608 1.11681243-.64454998 0-1.16706094-.50001396-1.16706094-1.11681243zm1.16706094 1.86135406c5.1563994 0 9.3364871 4.00011169 9.3364871 8.93449947 0 4.9343879-4.1800877 8.9344996-9.3364871 8.9344996-5.15639952 0-9.3364872-4.0001117-9.3364872-8.9344996 0-4.93438778 4.18008768-8.93449947 9.3364872-8.93449947z"/><path d="m10.1145278 20.4748947c4.5118495 0 8.1694262-3.5000977 8.1694262-7.8176871 0-4.31758931-3.6575767-7.81768703-8.1694262-7.81768703-4.51184959 0-8.16942631 3.50009772-8.16942631 7.81768703 0 4.3175894 3.65757672 7.8176871 8.16942631 7.8176871zm-5.48518625-12.54180367.92975851.89344995.55240882-.52862456-.93364871-.88972724c1.25434936-1.08355948 2.86012292-1.721086 4.54764728-1.80551344v1.47046971h.77804055v-1.47046971c1.6875244.08442744 3.293298.72195396 4.5476473 1.80551344l-.5446284.51745643.5524088.52862456.5407383-.52117914c1.1393848 1.19772909 1.8125852 2.73464307 1.9061994 4.35184577h-1.5560812v.7445417h1.5560812c-.0936142 1.6172027-.7668146 3.1541167-1.9061994 4.3518458l-.9297586-.89345-.5524088.5286246.9336487.8897272c-1.2516182 1.090328-2.8576821 1.7345434-4.5476473 1.824127v-1.4890833h-.77804055v1.4890833c-1.68996517-.0895836-3.29602907-.733799-4.54764728-1.824127l.54462842-.5174564-.55240883-.5286246-.54073821.5211792c-1.1323118-1.2003427-1.79852238-2.7369788-1.88674845-4.3518458h1.53663018v-.7445417h-1.53663018c.08822607-1.614867.75443665-3.15150312 1.88674845-4.35184577z"/><path d="m6.22432477 16.7521928c.06385414-.0003115.12664799-.0156537.18283954-.0446787l5.05726389-2.6058957c.0693055-.0326463.1253831-.0863095.1594983-.152631l2.7231421-4.8395206c.0790348-.14425378.0508959-.32092542-.0694584-.43609778-.1203543-.11517235-.3049749-.14209975-.455719-.06646782l-5.05726388 2.6058957c-.06930549.0326463-.12538313.0863095-.15949833.152631l-2.72314208 4.8395206c-.08154658.1443694-.05468257.3228088.06613345.4392796.07341545.069684.17280165.1085306.27620441.1079647zm4.96389903-3.5961423-1.59498325-1.5263103 3.45450025-1.77945449zm-2.14739207-.9976857 1.59498327 1.5263103-3.4545003 1.7794545z"/></g></svg>