<?xml version="1.0" encoding="UTF-8"?>
<svg width="20px" height="21px" viewBox="0 0 20 21" version="1.1" xmlns="http://www.w3.org/2000/svg" xmlns:xlink="http://www.w3.org/1999/xlink">
    <title>rocket_white</title>
    <g id="Page-1" stroke="none" stroke-width="1" fill="none" fill-rule="evenodd">
        <g id="rocket_white" transform="translate(0.217056, 1.000124)" fill="#0B554B" fill-rule="nonzero" stroke="#0B554B" stroke-width="0.3">
            <g id="noun_Rocket_881941" transform="translate(9.782927, 9.782547) scale(-1, 1) translate(-9.782927, -9.782547) ">
                <path d="M5.56377987,3.31770239 C4.96399726,3.31770239 4.39986682,3.55118065 3.975519,3.97552847 C3.10008421,4.85118065 3.10008421,6.27618065 3.975519,7.15183282 C4.39986682,7.57596326 4.96377987,7.80944152 5.56356247,7.80944152 C6.16356247,7.80944152 6.72747552,7.57574587 7.15160595,7.15161543 C8.02725813,6.27596326 8.02725813,4.85118065 7.15160595,3.97552847 C6.72769291,3.55139804 6.16356247,3.31770239 5.56377987,3.31770239 Z M6.53704073,6.53683282 C6.27704073,6.79683282 5.93138856,6.9398763 5.56377987,6.9398763 C5.19617117,6.9398763 4.850519,6.79683282 4.590519,6.53683282 C4.05399726,6.00009369 4.05399726,5.12705021 4.590519,4.59031108 C4.850519,4.33031108 5.19617117,4.1872676 5.56377987,4.1872676 C5.93138856,4.1872676 6.27704073,4.33031108 6.53704073,4.59031108 C7.07356247,5.12705021 7.07356247,6.00009369 6.53704073,6.53683282 Z" id="Shape"></path>
                <path d="M15.4259538,12.6900937 L14.9653016,12.2294415 L15.0737799,12.1209633 C15.4463886,11.7483546 15.5253016,11.1690067 15.2657364,10.7116154 C15.1687799,10.5407459 15.0457364,10.3277024 14.9011712,10.0833546 L16.8446494,9.7398763 C16.9757364,9.71683282 17.0889973,9.6348763 17.1518233,9.51770239 C17.2148668,9.40052847 17.2207364,9.26096326 17.1679103,9.13900673 L16.499432,7.59574587 C16.2787799,7.08661543 15.7998668,6.72552847 15.2496494,6.65357195 L12.3981277,6.28074587 C10.9683451,4.33639804 9.19660595,2.31118065 7.40095378,1.23205021 C6.00356247,0.392484998 2.94399726,0.100963259 1.24443204,0.00205021475 C0.894649435,-0.0186019592 0.557258131,0.117702389 0.320519001,0.368789345 C0.096171175,0.606398041 -0.016872304,0.917267606 0.00204073998,1.24422413 C0.101171175,2.94378934 0.392475522,6.00335456 1.23204073,7.40074587 C2.31095378,9.19639804 4.33638856,10.9683546 6.28073639,12.3979198 L6.65356247,15.2494415 C6.725519,15.7996589 7.08660595,16.278572 7.59573639,16.4992241 L9.13899726,17.1679198 C9.19421465,17.1918328 9.25312769,17.2037893 9.31182334,17.2037893 C9.3829103,17.2037893 9.45356247,17.186398 9.51769291,17.1518328 C9.63486682,17.0887893 9.71682334,16.9755285 9.73986682,16.8446589 L10.0833451,14.9011806 C10.3276929,15.0455285 10.5409538,15.1687893 10.7118233,15.2657459 C10.8881277,15.3657459 11.0879103,15.418572 11.2900842,15.418572 C11.6035625,15.418572 11.8987799,15.2961806 12.1211712,15.0737893 L12.2296494,14.9653111 L12.690519,15.4261806 C12.915519,15.6511806 13.2146494,15.7748763 13.5329103,15.7748763 C13.8509538,15.7748763 14.1500842,15.6509633 14.3750842,15.4259633 L15.4263886,14.3748763 C15.8903016,13.9100937 15.8903016,13.1544415 15.4259538,12.6900937 L15.4259538,12.6900937 Z M15.1370407,7.51552847 C15.3857364,7.54813717 15.6020407,7.71118065 15.701606,7.94118065 L16.1513886,8.97922413 L14.4189973,9.28552847 C14.0487799,8.68596326 13.5989973,7.98683282 13.0879103,7.24770239 L15.1370407,7.51552847 Z M8.97943204,16.1511806 L7.94138856,15.701398 C7.71138856,15.6018328 7.54834508,15.3855285 7.51573639,15.1368328 L7.2479103,13.0877024 C7.98704073,13.5987893 8.68595378,14.0483546 9.28573639,14.4187893 L8.97943204,16.1511806 Z M11.2898668,14.5487893 C11.2379103,14.5487893 11.1863886,14.5350937 11.1409538,14.5092241 C9.49464943,13.5744415 3.96856247,10.2666154 1.97747552,6.95270239 C1.20617117,5.66878934 0.946171175,2.497485 0.870084215,1.19357195 C0.865084215,1.10813717 0.894432045,1.02705021 0.952692915,0.965311085 C1.01073639,0.904006737 1.08877987,0.869876302 1.19138856,0.869876302 L1.19377987,0.869876302 C2.49769291,0.945963259 5.66899726,1.20574587 6.9529103,1.9772676 C10.2668233,3.96835456 13.574432,9.49444152 14.509432,11.1407459 C14.576606,11.2587893 14.555519,11.4090067 14.4587799,11.5059633 L14.0433451,11.921398 C14.0431277,11.9216154 14.0429103,11.9216154 14.0426929,11.9218328 L11.9218233,14.0427024 C11.921606,14.0429198 11.921606,14.0431372 11.9213886,14.0433546 L11.5059538,14.4587893 C11.4479103,14.5168328 11.3711712,14.5487893 11.2898668,14.5487893 L11.2898668,14.5487893 Z M14.8111712,13.7598763 L13.7600842,14.8109633 C13.6385625,14.932485 13.426606,14.932485 13.3053016,14.8109633 L12.8446494,14.3500937 L14.350519,12.8442241 L14.8111712,13.3048763 C14.9363886,13.4303111 14.9363886,13.6344415 14.8111712,13.7598763 L14.8111712,13.7598763 Z" id="Shape"></path>
                <path d="M18.7033451,15.3022676 C18.2492146,14.8481372 17.6453016,14.5979198 17.0029103,14.5979198 C16.360519,14.5979198 15.756606,14.8481372 15.3024755,15.3022676 C14.8483451,15.756398 14.5981277,16.3603111 14.5981277,17.0027024 C14.5981277,17.6450937 14.8483451,18.2490067 15.3024755,18.7031372 C16.0803016,19.4811806 18.2000842,19.5650937 19.0750842,19.5650937 L19.1357364,19.5648763 C19.3713886,19.5616154 19.5618233,19.371398 19.5650842,19.1355285 C19.5713886,18.6457459 19.5592146,16.1579198 18.7033451,15.3022676 L18.7033451,15.3022676 Z M15.9172581,18.088572 C15.6272581,17.798572 15.4676929,17.4131372 15.4676929,17.0029198 C15.4676929,16.5927024 15.6272581,16.2072676 15.9172581,15.9172676 C16.2072581,15.6272676 16.5926929,15.4677024 17.0029103,15.4677024 C17.4131277,15.4677024 17.7985625,15.6272676 18.0885625,15.9172676 C18.4726929,16.301398 18.6585625,17.6448763 18.6909538,18.6896589 C17.5487799,18.6544415 16.2918233,18.4629198 15.9172581,18.088572 Z" id="Shape"></path>
            </g>
        </g>
    </g>
</svg>