<svg height="32" viewBox="0 0 32 32" width="32" xmlns="http://www.w3.org/2000/svg"><g fill="#1e1169" stroke="#1e1169" stroke-width=".3" transform="matrix(-1 0 0 1 26 6)"><path d="m5.78086957 3.31782609c-.59978261 0-1.16391305.23347826-1.58826087.65782608-.87543479.87565218-.87543479 2.30065218 0 3.17630435.42434782.42413044.98826087.6576087 1.58804347.6576087.6 0 1.16391305-.23369565 1.58804348-.65782609.87565218-.87565217.87565218-2.30043478 0-3.17608696-.42391304-.42413043-.98804348-.65782608-1.58782608-.65782608zm.97326086 3.21913043c-.26.26-.60565217.40304348-.97326086.40304348-.3676087 0-.71326087-.14304348-.97326087-.40304348-.53652174-.53673913-.53652174-1.40978261 0-1.94652174.26-.26.60565217-.40304348.97326087-.40304348.36760869 0 .71326086.14304348.97326086.40304348.53652174.53673913.53652174 1.40978261 0 1.94652174z"/><path d="m15.6430435 12.6902174-.4606522-.4606522.1084783-.1084782c.3726087-.3726087.4515217-.9519566.1919565-1.4093479-.0969565-.1708695-.22-.383913-.3645652-.6282608l1.9434782-.3434783c.131087-.02304348.2443479-.105.3071739-.22217391.0630435-.11717392.0689131-.25673913.016087-.37869566l-.6684783-1.54326086c-.2206521-.50913044-.6995652-.8702174-1.2497826-.94217392l-2.8515217-.37282608c-1.4297826-1.94434783-3.20152175-3.96956522-4.99717392-5.04869566-1.39739131-.83956521-4.45695652-1.13108695-6.15652174-1.23-.34978261-.02065217-.68717391.11565218-.92391304.36673913-.22434783.2376087-.33739131.54847826-.31847826.87543479.09913043 1.69956521.39043478 4.75913043 1.22999999 6.15652174 1.07891305 1.79565217 3.10434783 3.56760873 5.04869566 4.99717393l.37282608 2.8515217c.07195653.5502174.43304348 1.0291305.94217392 1.2497826l1.54326087.6686957c.05521739.023913.11413043.0358695.17282608.0358695.07108696 0 .14173913-.0173913.20586957-.0519565.11717391-.0630435.19913043-.1763043.22217391-.3071739l.34347828-1.9434783c.2443478.1443479.4576087.2676087.6284782.3645653.1763044.1.376087.1528261.5782609.1528261.3134783 0 .6086957-.1223914.831087-.3447827l.1084782-.1084782.4608696.4608695c.225.225.5241304.3486957.8423913.3486957.3180435 0 .6171739-.123913.8421739-.348913l1.0513044-1.051087c.463913-.4647826.463913-1.2204348-.0004348-1.6847826zm-.2889131-5.17456523c.2486957.0326087.465.19565218.5645653.42565218l.4497826 1.03804348-1.7323913.30630434c-.3702174-.59956521-.82-1.29869565-1.331087-2.03782608zm-6.15760866 8.63565213-1.03804348-.4497826c-.23-.0995652-.39304348-.3158695-.42565217-.5645652l-.26782609-2.0491304c.73913043.5110869 1.43804348.9606522 2.03782609 1.3310869zm2.31043476-1.6023913c-.0519565 0-.1034782-.0136956-.148913-.0395652-1.64630437-.9347826-7.17239133-4.2426087-9.16347828-7.55652171-.77130435-1.28391305-1.03130435-4.45521739-1.10739131-5.75913044-.005-.08543478.02434783-.16652174.0826087-.22826087.05804348-.06130434.13608696-.09543478.23869565-.09543478h.00239131c1.30391304.07608696 4.47521739.33586957 5.75913043 1.1073913 3.313913 1.99108696 6.6215217 7.51717392 7.5565217 9.1634783.067174.1180434.046087.2682608-.0506521.3652174l-.4154348.4154347c-.0002174.0002174-.0004348.0002174-.0006522.0004348l-2.1208696 2.1208696c-.0002173.0002174-.0002173.0004348-.0004347.0006522l-.4154348.4154347c-.0580435.0580435-.1347826.09-.216087.09zm3.5213044-.788913-1.051087 1.051087c-.1215217.1215217-.3334782.1215217-.4547826 0l-.4606522-.4608696 1.5058696-1.5058696.4606522.4606522c.1252174.1254348.1252174.3295652 0 .455zm3.8921739 1.5423913c-.4541305-.4541304-1.0580435-.7043478-1.7004348-.7043478s-1.2463043.2502174-1.7004348.7043478c-.4541304.4541304-.7043478 1.0580435-.7043478 1.7004348s.2502174 1.2463043.7043478 1.7004348c.7778261.7780434 2.8976087.8619565 3.7726087.8619565l.0606522-.0002174c.2356522-.0032609.4260869-.1934783.4293478-.4293478.0063044-.4897826-.0058696-2.9776087-.8617391-3.8332609zm-2.786087 2.7863044c-.29-.29-.4495652-.6754348-.4495652-1.0856522s.1595652-.7956522.4495652-1.0856522.6754348-.4495652 1.0856522-.4495652.7956522.1595652 1.0856522.4495652c.3841304.3841304.57 1.7276087.6023913 2.7723913-1.1421739-.0352174-2.3991305-.2267391-2.7736957-.6010869z"/></g></svg>