<svg height="32" viewBox="0 0 32 32" width="32" xmlns="http://www.w3.org/2000/svg"><g fill="none" fill-rule="evenodd" stroke="#1e1169" stroke-width="1.5" transform="translate(6 6)"><path d="m19.9115044 10c0-5.4739823-4.4375221-9.91150442-9.9115044-9.91150442s-9.91150442 4.43752212-9.91150442 9.91150442 4.43752212 9.9115044 9.91150442 9.9115044 9.9115044-4.4375221 9.9115044-9.9115044z"/><path d="m14.8672566 8.31858407c0-2.63929203-2.139469-4.77876106-4.778761-4.77876106-2.63929206 0-4.77876109 2.13946903-4.77876109 4.77876106s2.13946903 4.77876103 4.77876109 4.77876103c2.639292 0 4.778761-2.139469 4.778761-4.77876103zm2.7666903 8.00297343c-1.2837168-1.8339823-3.219115-3.1784071-5.4700885-3.6973451m-4.43899114.0714513c-2.17433629.5761062-4.03292036 1.9281416-5.26141593 3.7417699"/></g></svg>