<?xml version="1.0" encoding="UTF-8"?>
<svg width="32px" height="32px" viewBox="0 0 32 32" version="1.1" xmlns="http://www.w3.org/2000/svg" xmlns:xlink="http://www.w3.org/1999/xlink">
    <title>icone/32x32/profil_deepgreen</title>
    <g id="icone/32x32/profil_deepgreen" stroke="none" stroke-width="1" fill="none" fill-rule="evenodd">
        <g id="Group-9" transform="translate(6.088496, 6.088496)" stroke="#0B554B" stroke-width="1.5">
            <path d="M19.8230088,9.91150442 C19.8230088,4.43752212 15.3854867,0 9.91150442,0 C4.43752212,0 0,4.43752212 0,9.91150442 C0,15.3854867 4.43752212,19.8230088 9.91150442,19.8230088 C15.3854867,19.8230088 19.8230088,15.3854867 19.8230088,9.91150442 Z" id="Stroke-1"></path>
            <path d="M14.7787611,8.2300885 C14.7787611,5.59079646 12.639292,3.45132743 10,3.45132743 C7.36070796,3.45132743 5.22123894,5.59079646 5.22123894,8.2300885 C5.22123894,10.8693805 7.36070796,13.0088496 10,13.0088496 C12.639292,13.0088496 14.7787611,10.8693805 14.7787611,8.2300885 Z" id="Stroke-3"></path>
            <path d="M17.5454513,16.2330619 C16.2617345,14.3990796 14.3263363,13.0546549 12.0753628,12.5357168" id="Stroke-5"></path>
            <path d="M7.63637168,12.6071681 C5.4620354,13.1832743 3.60345133,14.5353097 2.37495575,16.3489381" id="Stroke-7"></path>
        </g>
    </g>
</svg>