<svg height="32" viewBox="0 0 32 32" width="32" xmlns="http://www.w3.org/2000/svg"><g fill="#fff" transform="translate(8 3)"><path d="m13.3553333 9.34266667c0-.31909786-.2586799-.57777778-.5777777-.57777778h-9.53333338c-.31909785 0-.57777778.25867992-.57777778.57777778 0 .31909785.25867993.57777777.57777778.57777777h1.53977778v12.67066666c.05219312 1.7437894 1.48087412 3.1303486 3.22544444 3.1303486 1.74457033 0 3.17325136-1.3865592 3.22544446-3.1303486v-12.67066666h1.5397778c.1537361.00076869.3014394-.05976463.4104193-.16820241.10898-.10843778.1702473-.25583732.1702473-.40957536zm-3.2731111 13.24844443c-.041591 1.1130937-.95601844 1.9939915-2.06988887 1.9939915-1.11387042 0-2.02829788-.8808978-2.06988889-1.9939915v-1.2595555h1.85755556c.31909786 0 .57777778-.25868.57777778-.5777778 0-.3190979-.25867992-.5777778-.57777778-.5777778h-1.86044444v-2.6h1.86044444c.31909786 0 .57777778-.2586799.57777778-.5777778 0-.3190978-.25867992-.5777778-.57777778-.5777778h-1.86044444v-2.6h1.86044444c.31909786 0 .57777778-.2586799.57777778-.5777777 0-.3190979-.25867992-.5777778-.57777778-.5777778h-1.86044444v-2.74444446h4.14266664zm-6.18800171-16.86244443c-.00116703.9794202.58792202 1.86305037 1.49245306 2.23866837.90453104.37561801 1.946272.16921072 2.6392405-.52293085s.90061951-1.73363533.52608181-2.63861422c-.3745377-.9049789-1.25746385-1.4951233-2.23688475-1.4951233-1.33589264 0-2.41929474 1.0821083-2.42089062 2.418zm3.68333838 0c.001165.51230346-.30669454.97475815-.7797786 1.17134827-.47308405.19659012-1.01802634.0885173-1.38028054-.27373689-.36225419-.3622542-.47032701-.90719649-.27373689-1.38028055s.65904481-.78094359 1.17134827-.77977859c.69656976.00159185 1.26085591.565878 1.26244776 1.26244776zm3.86244113-2.86288889c-1.0625959 0-1.924.86140414-1.924 1.924s.8614041 1.924 1.924 1.924 1.924-.86140414 1.924-1.924c0-.51027653-.2027066-.99965346-.5635266-1.36047345-.3608199-.36081999-.8501969-.56352655-1.3604734-.56352655zm0 2.68955555c-.4244001 0-.7684444-.34404429-.7684444-.76844444s.3440443-.76844445.7684444-.76844445.7684499.3440443.7684499.76844445c.0007626.20430421-.0798591.40050405-.2240537.54524075-.1441946.14473671-.3400905.22609258-.5443962.22609258zm-9.53333333.43333334c-.50827422 0-.96650049.306177-1.16100862.77576115-.19450812.46958415-.08699305 1.01009889.27241109 1.36950304.35940415.35940414.89991889.46691921 1.36950304.27241109.46958415-.19450813.77576115-.6527344.77576115-1.16100862 0-.69403783-.56262883-1.25666666-1.25666666-1.25666666zm0 1.35488889c-.04115494-.00001681-.07819327-.02497608-.09365888-.06311456-.01546562-.03813849-.00627221-.08184529.02324738-.11052146s.07347446-.03659912.11114874-.02003477c.03767427.01656435.06154972.05431043.06037387.09544856.00001149.0265585-.01073251.05198969-.02978238.07049527-.01904986.01850558-.04478172.02850809-.07132873.02772696z"/><path d="m14.6553333 9.72977778c-1.0641913 0-1.9268889.86269752-1.9268889 1.92688892 0 1.0641913.8626976 1.9268889 1.9268889 1.9268889 1.0641914 0 1.9268889-.8626976 1.9268889-1.9268889 0-.5110427-.2030109-1.0011545-.5643727-1.3625162-.3613617-.3613618-.8514735-.56437272-1.3625162-.56437272zm0 2.69533332c-.4259956 0-.7713333-.3453377-.7713333-.7713333 0-.4259957.3453377-.7713334.7713333-.7713334.4259957 0 .7713334.3453377.7713334.7713334-.0015913.424867-.3464634.7684474-.7713334.7684444zm-4.70311108-10.76977777c0-.81369953-.6596338-1.47333333-1.47333333-1.47333333s-1.47333333.6596338-1.47333333 1.47333333.6596338 1.47333334 1.47333333 1.47333334c.81304022-.00158953 1.47174381-.66029312 1.47333333-1.47333334zm-1.79111111 0c0-.17550382.14227396-.31777777.31777778-.31777777s.31777778.14227395.31777778.31777777-.14227396.31777778-.31777778.31777778-.31777778-.14227396-.31777778-.31777778zm-5.09888889 9.95799997c0-.7977446-.6466998-1.4444444-1.44444444-1.4444444s-1.44444445.6466998-1.44444445 1.4444444c0 .7977447.64669981 1.4444445 1.44444445 1.4444445s1.44444444-.6466998 1.44444444-1.4444445zm-1.73333333 0c0-.1595489.12933996-.2888889.28888889-.2888889s.28888889.12934.28888889.2888889c0 .159549-.12933996.2888889-.28888889.2888889s-.28888889-.1293399-.28888889-.2888889z"/></g></svg>