<?xml version="1.0" encoding="UTF-8"?>
<svg width="32px" height="32px" viewBox="0 0 32 32" version="1.1" xmlns="http://www.w3.org/2000/svg" xmlns:xlink="http://www.w3.org/1999/xlink">
    <title>icone/32x32/science_32_white</title>
    <g id="icone/32x32/science_32_white" stroke="none" stroke-width="1" fill="none" fill-rule="evenodd">
        <g id="noun_Science_1105633" transform="translate(8.000000, 3.000000)" fill="#FFFFFF" fill-rule="nonzero">
            <path d="M13.3553333,9.34266667 C13.3553333,9.02356881 13.0966534,8.76488889 12.7775556,8.76488889 L3.24422222,8.76488889 C2.92512437,8.76488889 2.66644444,9.02356881 2.66644444,9.34266667 C2.66644444,9.66176452 2.92512437,9.92044444 3.24422222,9.92044444 L4.784,9.92044444 L4.784,22.5911111 C4.83619312,24.3349005 6.26487412,25.7214597 8.00944444,25.7214597 C9.75401477,25.7214597 11.1826958,24.3349005 11.2348889,22.5911111 L11.2348889,9.92044444 L12.7746667,9.92044444 C12.9284028,9.92121313 13.0761061,9.86067981 13.185086,9.75224203 C13.294066,9.64380425 13.3553333,9.49640471 13.3553333,9.34266667 Z M10.0822222,22.5911111 C10.0406312,23.7042048 9.12620376,24.5851026 8.01233333,24.5851026 C6.89846291,24.5851026 5.98403545,23.7042048 5.94244444,22.5911111 L5.94244444,21.3315556 L7.8,21.3315556 C8.11909786,21.3315556 8.37777778,21.0728756 8.37777778,20.7537778 C8.37777778,20.4346799 8.11909786,20.176 7.8,20.176 L5.93955556,20.176 L5.93955556,17.576 L7.8,17.576 C8.11909786,17.576 8.37777778,17.3173201 8.37777778,16.9982222 C8.37777778,16.6791244 8.11909786,16.4204444 7.8,16.4204444 L5.93955556,16.4204444 L5.93955556,13.8204444 L7.8,13.8204444 C8.11909786,13.8204444 8.37777778,13.5617645 8.37777778,13.2426667 C8.37777778,12.9235688 8.11909786,12.6648889 7.8,12.6648889 L5.93955556,12.6648889 L5.93955556,9.92044444 L10.0822222,9.92044444 L10.0822222,22.5911111 Z" id="Shape"></path>
            <path d="M3.89422049,5.72866667 C3.89305346,6.70808687 4.48214251,7.59171704 5.38667355,7.96733504 C6.29120459,8.34295305 7.33294555,8.13654576 8.02591405,7.44440419 C8.71888255,6.75226262 8.92653356,5.71076886 8.55199586,4.80578997 C8.17745816,3.90081107 7.29453201,3.31066667 6.31511111,3.31066667 C4.97921847,3.31066667 3.89581637,4.39277497 3.89422049,5.72866667 L3.89422049,5.72866667 Z M7.57755887,5.72866667 C7.57872387,6.24097013 7.27086433,6.70342482 6.79778027,6.90001494 C6.32469622,7.09660506 5.77975393,6.98853224 5.41749973,6.62627805 C5.05524554,6.26402385 4.94717272,5.71908156 5.14376284,5.2459975 C5.34035296,4.77291344 5.80280765,4.46505391 6.31511111,4.46621891 C7.01168087,4.46781076 7.57596702,5.03209691 7.57755887,5.72866667 Z" id="Shape"></path>
            <path d="M11.44,2.86577778 C10.3774041,2.86577778 9.516,3.72718192 9.516,4.78977778 C9.516,5.85237364 10.3774041,6.71377778 11.44,6.71377778 C12.5025959,6.71377778 13.364,5.85237364 13.364,4.78977778 C13.364,4.27950125 13.1612934,3.79012432 12.8004734,3.42930433 C12.4396535,3.06848434 11.9502765,2.86577778 11.44,2.86577778 Z M11.44,5.55533333 C11.0155999,5.55533333 10.6715556,5.21128904 10.6715556,4.78688889 C10.6715556,4.36248874 11.0155999,4.01844444 11.44,4.01844444 C11.8644001,4.01844444 12.2084499,4.36248874 12.2084499,4.78688889 C12.2092125,4.9911931 12.1285908,5.18739294 11.9843962,5.33212964 C11.8402016,5.47686635 11.6443057,5.55822222 11.44,5.55822222 L11.44,5.55533333 Z" id="Shape"></path>
            <path d="M1.90666667,5.98866667 C1.39839245,5.98866667 0.940166178,6.29484367 0.745658054,6.76442782 C0.551149931,7.23401197 0.658664997,7.77452671 1.01806914,8.13393086 C1.37747329,8.493335 1.91798803,8.60085007 2.38757218,8.40634195 C2.85715633,8.21183382 3.16333333,7.75360755 3.16333333,7.24533333 C3.16333333,6.5512955 2.6007045,5.98866667 1.90666667,5.98866667 Z M1.90666667,7.34355556 C1.86551173,7.34353875 1.8284734,7.31857948 1.81300779,7.280441 C1.79754217,7.24230251 1.80673558,7.19859571 1.83625517,7.16991954 C1.86577476,7.14124337 1.90972963,7.13332042 1.94740391,7.14988477 C1.98507818,7.16644912 2.00895363,7.2041952 2.00777778,7.24533333 C2.00778927,7.27189183 1.99704527,7.29732302 1.9779954,7.3158286 C1.95894554,7.33433418 1.93321368,7.34433669 1.90666667,7.34355556 Z" id="Shape"></path>
            <path d="M14.6553333,9.72977778 C13.591142,9.72977778 12.7284444,10.5924753 12.7284444,11.6566667 C12.7284444,12.720858 13.591142,13.5835556 14.6553333,13.5835556 C15.7195247,13.5835556 16.5822222,12.720858 16.5822222,11.6566667 C16.5822222,11.145624 16.3792113,10.6555122 16.0178495,10.2941505 C15.6564878,9.9327887 15.166376,9.72977778 14.6553333,9.72977778 L14.6553333,9.72977778 Z M14.6553333,12.4251111 C14.2293377,12.4251111 13.884,12.0797734 13.884,11.6537778 C13.884,11.2277821 14.2293377,10.8824444 14.6553333,10.8824444 C15.081329,10.8824444 15.4266667,11.2277821 15.4266667,11.6537778 C15.4250754,12.0786448 15.0802033,12.4222252 14.6553333,12.4222222 L14.6553333,12.4251111 Z" id="Shape"></path>
            <path d="M9.95222222,1.65533333 C9.95222222,0.841633802 9.29258842,0.182 8.47888889,0.182 C7.66518936,0.182 7.00555556,0.841633802 7.00555556,1.65533333 C7.00555556,2.46903286 7.66518936,3.12866667 8.47888889,3.12866667 C9.29192911,3.12707714 9.9506327,2.46837355 9.95222222,1.65533333 L9.95222222,1.65533333 Z M8.16111111,1.65533333 C8.16111111,1.47982951 8.30338507,1.33755556 8.47888889,1.33755556 C8.65439271,1.33755556 8.79666667,1.47982951 8.79666667,1.65533333 C8.79666667,1.83083715 8.65439271,1.97311111 8.47888889,1.97311111 C8.30338507,1.97311111 8.16111111,1.83083715 8.16111111,1.65533333 L8.16111111,1.65533333 Z" id="Shape"></path>
            <path d="M3.06222222,11.6133333 C3.06222222,10.8155887 2.41552242,10.1688889 1.61777778,10.1688889 C0.820033139,10.1688889 0.173333333,10.8155887 0.173333333,11.6133333 C0.173333333,12.411078 0.820033139,13.0577778 1.61777778,13.0577778 C2.41552242,13.0577778 3.06222222,12.411078 3.06222222,11.6133333 Z M1.32888889,11.6133333 C1.32888889,11.4537844 1.45822885,11.3244444 1.61777778,11.3244444 C1.77732671,11.3244444 1.90666667,11.4537844 1.90666667,11.6133333 C1.90666667,11.7728823 1.77732671,11.9022222 1.61777778,11.9022222 C1.45822885,11.9022222 1.32888889,11.7728823 1.32888889,11.6133333 Z" id="Shape"></path>
        </g>
    </g>
</svg>