<svg xmlns="http://www.w3.org/2000/svg" width="32" height="32" viewBox="0 0 32 32">
  <g fill="#1E1169" transform="translate(8.173 3.182)">
    <path d="M13.182 9.16066667C13.182 8.84156881 12.9233201 8.58288889 12.6042222 8.58288889L3.07088889 8.58288889C2.75179103 8.58288889 2.49311111 8.84156881 2.49311111 9.16066667 2.49311111 9.47976452 2.75179103 9.73844444 3.07088889 9.73844444L4.61066667 9.73844444 4.61066667 22.4091111C4.66285979 24.1529005 6.09154079 25.5394597 7.83611111 25.5394597 9.58068144 25.5394597 11.0093624 24.1529005 11.0615556 22.4091111L11.0615556 9.73844444 12.6013333 9.73844444C12.7550695 9.73921313 12.9027727 9.67867981 13.0117527 9.57024203 13.1207327 9.46180425 13.182 9.31440471 13.182 9.16066667zM9.90888889 22.4091111C9.86729789 23.5222048 8.95287043 24.4031026 7.839 24.4031026 6.72512957 24.4031026 5.81070211 23.5222048 5.76911111 22.4091111L5.76911111 21.1495556 7.62666667 21.1495556C7.94576452 21.1495556 8.20444444 20.8908756 8.20444444 20.5717778 8.20444444 20.2526799 7.94576452 19.994 7.62666667 19.994L5.76622222 19.994 5.76622222 17.394 7.62666667 17.394C7.94576452 17.394 8.20444444 17.1353201 8.20444444 16.8162222 8.20444444 16.4971244 7.94576452 16.2384444 7.62666667 16.2384444L5.76622222 16.2384444 5.76622222 13.6384444 7.62666667 13.6384444C7.94576452 13.6384444 8.20444444 13.3797645 8.20444444 13.0606667 8.20444444 12.7415688 7.94576452 12.4828889 7.62666667 12.4828889L5.76622222 12.4828889 5.76622222 9.73844444 9.90888889 9.73844444 9.90888889 22.4091111zM3.72088715 5.54666667C3.71972013 6.52608687 4.30880918 7.40971704 5.21334022 7.78533504 6.11787126 8.16095305 7.15961221 7.95454576 7.85258071 7.26240419 8.54554921 6.57026262 8.75320023 5.52876886 8.37866253 4.62378997 8.00412482 3.71881107 7.12119867 3.12866667 6.14177778 3.12866667 4.80588513 3.12866667 3.72248303 4.21077497 3.72088715 5.54666667L3.72088715 5.54666667zM7.40422554 5.54666667C7.40539054 6.05897013 7.097531 6.52142482 6.62444694 6.71801494 6.15136288 6.91460506 5.60642059 6.80653224 5.2441664 6.44427805 4.8819122 6.08202385 4.77383939 5.53708156 4.97042951 5.0639975 5.16701963 4.59091344 5.62947432 4.28305391 6.14177778 4.28421891 6.83834754 4.28581076 7.40263369 4.85009691 7.40422554 5.54666667zM11.2666667 2.68377778C10.2040708 2.68377778 9.34266667 3.54518192 9.34266667 4.60777778 9.34266667 5.67037364 10.2040708 6.53177778 11.2666667 6.53177778 12.3292625 6.53177778 13.1906667 5.67037364 13.1906667 4.60777778 13.1906667 4.09750125 12.9879601 3.60812432 12.6271401 3.24730433 12.2663201 2.88648434 11.7769432 2.68377778 11.2666667 2.68377778zM11.2666667 5.37333333C10.8422665 5.37333333 10.4982222 5.02928904 10.4982222 4.60488889 10.4982222 4.18048874 10.8422665 3.83644444 11.2666667 3.83644444 11.6910668 3.83644444 12.0351165 4.18048874 12.0351165 4.60488889 12.0358792 4.8091931 11.9552575 5.00539294 11.8110629 5.15012964 11.6668683 5.29486635 11.4709723 5.37622222 11.2666667 5.37622222L11.2666667 5.37333333zM1.73333333 5.80666667C1.22505911 5.80666667.766832844 6.11284367.572324721 6.58242782.377816597 7.05201197.485331663 7.59252671.844735812 7.95193086 1.20413996 8.311335 1.7446547 8.41885007 2.21423885 8.22434195 2.683823 8.02983382 2.99 7.57160755 2.99 7.06333333 2.99 6.3692955 2.42737117 5.80666667 1.73333333 5.80666667zM1.73333333 7.16155556C1.6921784 7.16153875 1.65514007 7.13657948 1.63967445 7.098441 1.62420884 7.06030251 1.63340225 7.01659571 1.66292184 6.98791954 1.69244142 6.95924337 1.73639629 6.95132042 1.77407057 6.96788477 1.81174485 6.98444912 1.8356203 7.0221952 1.83444444 7.06333333 1.83445593 7.08989183 1.82371193 7.11532302 1.80466207 7.1338286 1.7856122 7.15233418 1.75988034 7.16233669 1.73333333 7.16155556z"/>
    <path d="M14.482 9.54777778C13.4178087 9.54777778 12.5551111 10.4104753 12.5551111 11.4746667 12.5551111 12.538858 13.4178087 13.4015556 14.482 13.4015556 15.5461913 13.4015556 16.4088889 12.538858 16.4088889 11.4746667 16.4088889 10.963624 16.205878 10.4735122 15.8445162 10.1121505 15.4831544 9.7507887 14.9930427 9.54777778 14.482 9.54777778L14.482 9.54777778zM14.482 12.2431111C14.0560044 12.2431111 13.7106667 11.8977734 13.7106667 11.4717778 13.7106667 11.0457821 14.0560044 10.7004444 14.482 10.7004444 14.9079956 10.7004444 15.2533333 11.0457821 15.2533333 11.4717778 15.2517421 11.8966448 14.90687 12.2402252 14.482 12.2402222L14.482 12.2431111zM9.77888889 1.47333333C9.77888889.659633802 9.11925509 0 8.30555556 0 7.49185602 0 6.83222222.659633802 6.83222222 1.47333333 6.83222222 2.28703286 7.49185602 2.94666667 8.30555556 2.94666667 9.11859577 2.94507714 9.77729936 2.28637355 9.77888889 1.47333333L9.77888889 1.47333333zM7.98777778 1.47333333C7.98777778 1.29782951 8.13005174 1.15555556 8.30555556 1.15555556 8.48105938 1.15555556 8.62333333 1.29782951 8.62333333 1.47333333 8.62333333 1.64883715 8.48105938 1.79111111 8.30555556 1.79111111 8.13005174 1.79111111 7.98777778 1.64883715 7.98777778 1.47333333L7.98777778 1.47333333zM2.88888889 11.4313333C2.88888889 10.6335887 2.24218908 9.98688889 1.44444444 9.98688889.646699806 9.98688889 0 10.6335887 0 11.4313333 0 12.229078.646699806 12.8757778 1.44444444 12.8757778 2.24218908 12.8757778 2.88888889 12.229078 2.88888889 11.4313333zM1.15555556 11.4313333C1.15555556 11.2717844 1.28489552 11.1424444 1.44444444 11.1424444 1.60399337 11.1424444 1.73333333 11.2717844 1.73333333 11.4313333 1.73333333 11.5908823 1.60399337 11.7202222 1.44444444 11.7202222 1.28489552 11.7202222 1.15555556 11.5908823 1.15555556 11.4313333z"/>
  </g>
</svg>
