<?xml version="1.0" encoding="UTF-8"?>
<svg width="32px" height="32px" viewBox="0 0 32 32" version="1.1" xmlns="http://www.w3.org/2000/svg" xmlns:xlink="http://www.w3.org/1999/xlink">
    <title>icone/32x32/science_32_blue</title>
    <g id="icone/32x32/science_32_blue" stroke="none" stroke-width="1" fill="none" fill-rule="evenodd">
        <g id="noun_Science_1105633" transform="translate(8.173333, 3.182000)" fill="#1E1169" fill-rule="nonzero">
            <path d="M13.182,9.16066667 C13.182,8.84156881 12.9233201,8.58288889 12.6042222,8.58288889 L3.07088889,8.58288889 C2.75179103,8.58288889 2.49311111,8.84156881 2.49311111,9.16066667 C2.49311111,9.47976452 2.75179103,9.73844444 3.07088889,9.73844444 L4.61066667,9.73844444 L4.61066667,22.4091111 C4.66285979,24.1529005 6.09154079,25.5394597 7.83611111,25.5394597 C9.58068144,25.5394597 11.0093624,24.1529005 11.0615556,22.4091111 L11.0615556,9.73844444 L12.6013333,9.73844444 C12.7550695,9.73921313 12.9027727,9.67867981 13.0117527,9.57024203 C13.1207327,9.46180425 13.182,9.31440471 13.182,9.16066667 Z M9.90888889,22.4091111 C9.86729789,23.5222048 8.95287043,24.4031026 7.839,24.4031026 C6.72512957,24.4031026 5.81070211,23.5222048 5.76911111,22.4091111 L5.76911111,21.1495556 L7.62666667,21.1495556 C7.94576452,21.1495556 8.20444444,20.8908756 8.20444444,20.5717778 C8.20444444,20.2526799 7.94576452,19.994 7.62666667,19.994 L5.76622222,19.994 L5.76622222,17.394 L7.62666667,17.394 C7.94576452,17.394 8.20444444,17.1353201 8.20444444,16.8162222 C8.20444444,16.4971244 7.94576452,16.2384444 7.62666667,16.2384444 L5.76622222,16.2384444 L5.76622222,13.6384444 L7.62666667,13.6384444 C7.94576452,13.6384444 8.20444444,13.3797645 8.20444444,13.0606667 C8.20444444,12.7415688 7.94576452,12.4828889 7.62666667,12.4828889 L5.76622222,12.4828889 L5.76622222,9.73844444 L9.90888889,9.73844444 L9.90888889,22.4091111 Z" id="Shape"></path>
            <path d="M3.72088715,5.54666667 C3.71972013,6.52608687 4.30880918,7.40971704 5.21334022,7.78533504 C6.11787126,8.16095305 7.15961221,7.95454576 7.85258071,7.26240419 C8.54554921,6.57026262 8.75320023,5.52876886 8.37866253,4.62378997 C8.00412482,3.71881107 7.12119867,3.12866667 6.14177778,3.12866667 C4.80588513,3.12866667 3.72248303,4.21077497 3.72088715,5.54666667 L3.72088715,5.54666667 Z M7.40422554,5.54666667 C7.40539054,6.05897013 7.097531,6.52142482 6.62444694,6.71801494 C6.15136288,6.91460506 5.60642059,6.80653224 5.2441664,6.44427805 C4.8819122,6.08202385 4.77383939,5.53708156 4.97042951,5.0639975 C5.16701963,4.59091344 5.62947432,4.28305391 6.14177778,4.28421891 C6.83834754,4.28581076 7.40263369,4.85009691 7.40422554,5.54666667 Z" id="Shape"></path>
            <path d="M11.2666667,2.68377778 C10.2040708,2.68377778 9.34266667,3.54518192 9.34266667,4.60777778 C9.34266667,5.67037364 10.2040708,6.53177778 11.2666667,6.53177778 C12.3292625,6.53177778 13.1906667,5.67037364 13.1906667,4.60777778 C13.1906667,4.09750125 12.9879601,3.60812432 12.6271401,3.24730433 C12.2663201,2.88648434 11.7769432,2.68377778 11.2666667,2.68377778 Z M11.2666667,5.37333333 C10.8422665,5.37333333 10.4982222,5.02928904 10.4982222,4.60488889 C10.4982222,4.18048874 10.8422665,3.83644444 11.2666667,3.83644444 C11.6910668,3.83644444 12.0351165,4.18048874 12.0351165,4.60488889 C12.0358792,4.8091931 11.9552575,5.00539294 11.8110629,5.15012964 C11.6668683,5.29486635 11.4709723,5.37622222 11.2666667,5.37622222 L11.2666667,5.37333333 Z" id="Shape"></path>
            <path d="M1.73333333,5.80666667 C1.22505911,5.80666667 0.766832844,6.11284367 0.572324721,6.58242782 C0.377816597,7.05201197 0.485331663,7.59252671 0.844735812,7.95193086 C1.20413996,8.311335 1.7446547,8.41885007 2.21423885,8.22434195 C2.683823,8.02983382 2.99,7.57160755 2.99,7.06333333 C2.99,6.3692955 2.42737117,5.80666667 1.73333333,5.80666667 Z M1.73333333,7.16155556 C1.6921784,7.16153875 1.65514007,7.13657948 1.63967445,7.098441 C1.62420884,7.06030251 1.63340225,7.01659571 1.66292184,6.98791954 C1.69244142,6.95924337 1.73639629,6.95132042 1.77407057,6.96788477 C1.81174485,6.98444912 1.8356203,7.0221952 1.83444444,7.06333333 C1.83445593,7.08989183 1.82371193,7.11532302 1.80466207,7.1338286 C1.7856122,7.15233418 1.75988034,7.16233669 1.73333333,7.16155556 Z" id="Shape"></path>
            <path d="M14.482,9.54777778 C13.4178087,9.54777778 12.5551111,10.4104753 12.5551111,11.4746667 C12.5551111,12.538858 13.4178087,13.4015556 14.482,13.4015556 C15.5461913,13.4015556 16.4088889,12.538858 16.4088889,11.4746667 C16.4088889,10.963624 16.205878,10.4735122 15.8445162,10.1121505 C15.4831544,9.7507887 14.9930427,9.54777778 14.482,9.54777778 L14.482,9.54777778 Z M14.482,12.2431111 C14.0560044,12.2431111 13.7106667,11.8977734 13.7106667,11.4717778 C13.7106667,11.0457821 14.0560044,10.7004444 14.482,10.7004444 C14.9079956,10.7004444 15.2533333,11.0457821 15.2533333,11.4717778 C15.2517421,11.8966448 14.90687,12.2402252 14.482,12.2402222 L14.482,12.2431111 Z" id="Shape"></path>
            <path d="M9.77888889,1.47333333 C9.77888889,0.659633802 9.11925509,0 8.30555556,0 C7.49185602,0 6.83222222,0.659633802 6.83222222,1.47333333 C6.83222222,2.28703286 7.49185602,2.94666667 8.30555556,2.94666667 C9.11859577,2.94507714 9.77729936,2.28637355 9.77888889,1.47333333 L9.77888889,1.47333333 Z M7.98777778,1.47333333 C7.98777778,1.29782951 8.13005174,1.15555556 8.30555556,1.15555556 C8.48105938,1.15555556 8.62333333,1.29782951 8.62333333,1.47333333 C8.62333333,1.64883715 8.48105938,1.79111111 8.30555556,1.79111111 C8.13005174,1.79111111 7.98777778,1.64883715 7.98777778,1.47333333 L7.98777778,1.47333333 Z" id="Shape"></path>
            <path d="M2.88888889,11.4313333 C2.88888889,10.6335887 2.24218908,9.98688889 1.44444444,9.98688889 C0.646699806,9.98688889 0,10.6335887 0,11.4313333 C0,12.229078 0.646699806,12.8757778 1.44444444,12.8757778 C2.24218908,12.8757778 2.88888889,12.229078 2.88888889,11.4313333 Z M1.15555556,11.4313333 C1.15555556,11.2717844 1.28489552,11.1424444 1.44444444,11.1424444 C1.60399337,11.1424444 1.73333333,11.2717844 1.73333333,11.4313333 C1.73333333,11.5908823 1.60399337,11.7202222 1.44444444,11.7202222 C1.28489552,11.7202222 1.15555556,11.5908823 1.15555556,11.4313333 Z" id="Shape"></path>
        </g>
    </g>
</svg>