<?xml version="1.0" encoding="utf-8"?>
<!-- Generator: Adobe Illustrator 16.0.0, SVG Export Plug-In . SVG Version: 6.00 Build 0)  -->
<!DOCTYPE svg PUBLIC "-//W3C//DTD SVG 1.1//EN" "http://www.w3.org/Graphics/SVG/1.1/DTD/svg11.dtd">
<svg version="1.1" id="Calque_1" xmlns="http://www.w3.org/2000/svg" xmlns:xlink="http://www.w3.org/1999/xlink" x="0px" y="0px"
	 width="32px" height="32px" viewBox="0 0 32 32" enable-background="new 0 0 32 32" xml:space="preserve">
<path fill="#156064" d="M18.167,17.141c2.008-1.268,3.349-3.5,3.349-6.047c0-3.945-3.211-7.155-7.156-7.155
	s-7.155,3.209-7.155,7.155c0,3.946,3.209,7.155,7.155,7.155c1.043,0,2.032-0.229,2.927-0.633l6.927,11.944l0.865-0.502
	L18.167,17.141z M8.205,11.094c0-3.394,2.761-6.155,6.155-6.155s6.156,2.761,6.156,6.155c0,3.394-2.763,6.155-6.156,6.155
	S8.205,14.488,8.205,11.094z"/>
</svg>
