<svg height="32" viewBox="0 0 32 32" width="32" xmlns="http://www.w3.org/2000/svg"><path d="m21.7541899 20.7113594c1.3035382-1.5642458 2.1229051-3.575419 2.1229051-5.7728119 0-4.9162011-4.0223464-8.9385475-8.9385475-8.9385475s-8.9385475 4.0223464-8.9385475 8.9385475 4.0223464 8.9385475 8.9385475 8.9385475c2.1973929 0 4.2085661-.7821229 5.7728119-2.1229051l4.0223464 4.0223464c.1489758.1489758.3351955.2234637.5214152.2234637.1862198 0 .3724395-.0744879.5214153-.2234637.2979516-.2979516.2979516-.7448789 0-1.0428305zm-6.8156424 1.7132216c-4.0968343 0-7.44878959-3.3519553-7.44878959-7.4487896 0-4.0968342 3.35195529-7.44878954 7.44878959-7.44878954s7.4487896 3.35195534 7.4487896 7.44878954c0 4.0968343-3.3519553 7.4487896-7.4487896 7.4487896z" fill="#1e1169" fill-rule="evenodd"/></svg>