<?xml version="1.0" encoding="UTF-8"?>
<svg width="32px" height="32px" viewBox="0 0 32 32" version="1.1" xmlns="http://www.w3.org/2000/svg" xmlns:xlink="http://www.w3.org/1999/xlink">
    <title>icone/32x32/search_32_white</title>
    <g id="icone/32x32/search_32_white" stroke="none" stroke-width="1" fill="none" fill-rule="evenodd">
        <path d="M21.7541899,20.7113594 C23.0577281,19.1471136 23.877095,17.1359404 23.877095,14.9385475 C23.877095,10.0223464 19.8547486,6 14.9385475,6 C10.0223464,6 6,10.0223464 6,14.9385475 C6,19.8547486 10.0223464,23.877095 14.9385475,23.877095 C17.1359404,23.877095 19.1471136,23.0949721 20.7113594,21.7541899 L24.7337058,25.7765363 C24.8826816,25.9255121 25.0689013,26 25.255121,26 C25.4413408,26 25.6275605,25.9255121 25.7765363,25.7765363 C26.0744879,25.4785847 26.0744879,25.0316574 25.7765363,24.7337058 L21.7541899,20.7113594 Z M14.9385475,22.424581 C10.8417132,22.424581 7.48975791,19.0726257 7.48975791,14.9757914 C7.48975791,10.8789572 10.8417132,7.52700186 14.9385475,7.52700186 C19.0353818,7.52700186 22.3873371,10.8789572 22.3873371,14.9757914 C22.3873371,19.0726257 19.0353818,22.424581 14.9385475,22.424581 Z" id="Page-1" stroke="#FFFFFF" stroke-width="0.5" fill="#FFFFFF"></path>
    </g>
</svg>