<?xml version="1.0" encoding="utf-8"?>
<!-- Generator: Adobe Illustrator 16.0.0, SVG Export Plug-In . SVG Version: 6.00 Build 0)  -->
<!DOCTYPE svg PUBLIC "-//W3C//DTD SVG 1.1//EN" "http://www.w3.org/Graphics/SVG/1.1/DTD/svg11.dtd">
<svg version="1.1" id="Calque_1" xmlns="http://www.w3.org/2000/svg" xmlns:xlink="http://www.w3.org/1999/xlink" x="0px" y="0px"
	 width="32px" height="32px" viewBox="0 0 32 32" enable-background="new 0 0 32 32" xml:space="preserve">
<path fill="#FFFFFF" d="M18.167,17.141c2.008-1.268,3.348-3.501,3.348-6.047c0-3.945-3.21-7.155-7.155-7.155
	s-7.155,3.209-7.155,7.155s3.209,7.155,7.155,7.155c1.043,0,2.032-0.229,2.927-0.633l6.927,11.945l0.865-0.502L18.167,17.141z
	 M8.205,11.094c0-3.394,2.761-6.155,6.155-6.155s6.155,2.761,6.155,6.155c0,3.394-2.762,6.155-6.155,6.155
	S8.205,14.488,8.205,11.094z"/>
</svg>
