<svg height="32" viewBox="0 0 32 32" width="32" xmlns="http://www.w3.org/2000/svg"><g fill="#1e1169" stroke="#1e1169" stroke-width=".5" transform="translate(3 6)"><path d="m15.7446809 20h-6.38297877v-3.606383h6.38297877zm-5.7021277-.6808511h5.0319149v-2.2446808h-5.0319149z"/><path d="m22.9787234 17.0744681h-20.85106383c-1.14893617 0-2.08510638-.9361702-2.08510638-2.0851064v-12.91489361c.0106383-1.13829788.93617021-2.07446809 2.08510638-2.07446809h20.85106383c1.1489362 0 2.0851064.93617021 2.0851064 2.08510638v12.91489362c-.0106383 1.1382979-.9361702 2.0744681-2.0851064 2.0744681zm-20.85106383-16.39361704c-.77659574 0-1.40425531.62765958-1.40425531 1.40425532v12.91489362c0 .7765957.62765957 1.4042553 1.40425531 1.4042553h20.85106383c.7765957 0 1.4042553-.6276596 1.4042553-1.4042553v-12.92553191c0-.77659575-.6276596-1.40425532-1.4042553-1.40425532h-20.85106383zm16.30851063 19.31914894h-11.76595743c-.19148937 0-.34042554-.1489362-.34042554-.3404255 0-.1914894.14893617-.3404256.34042554-.3404256h11.75531913c.1914894 0 .3404255.1489362.3404255.3404256 0 .1914893-.1489361.3404255-.3297872.3404255z"/><path d="m12.5531915 15.7234043c.3617021 0 .6595745-.2978724.6595745-.6595745 0-.3723404-.2978724-.6702128-.6595745-.6702128-.3723404 0-.6702128.2978724-.6702128.6702128.0106383.3723404.3085107.6595745.6702128.6595745zm12.1595745-1.8829788h-24.31914898c-.19148936 0-.34042553-.1489361-.34042553-.3404255s.14893617-.3404255.34042553-.3404255h24.32978728c.1914893 0 .3404255.1489361.3404255.3404255s-.1595745.3404255-.3510638.3404255z"/></g></svg>