<?xml version="1.0" encoding="UTF-8"?>
<svg width="32px" height="32px" viewBox="0 0 32 32" version="1.1" xmlns="http://www.w3.org/2000/svg" xmlns:xlink="http://www.w3.org/1999/xlink">
    <title>icone/32x32/site_32_purple</title>
    <g id="icone/32x32/site_32_purple" stroke="none" stroke-width="1" fill="none" fill-rule="evenodd">
        <g id="noun_Computer_2383849" transform="translate(3.000000, 6.000000)" fill="#1E1169" fill-rule="nonzero" stroke="#1E1169" stroke-width="0.5">
            <path d="M15.7446809,20 L9.36170213,20 L9.36170213,16.393617 L15.7446809,16.393617 L15.7446809,20 Z M10.0425532,19.3191489 L15.0744681,19.3191489 L15.0744681,17.0744681 L10.0425532,17.0744681 L10.0425532,19.3191489 Z" id="Shape"></path>
            <path d="M22.9787234,17.0744681 L2.12765957,17.0744681 C0.978723404,17.0744681 0.0425531915,16.1382979 0.0425531915,14.9893617 L0.0425531915,2.07446809 C0.0531914894,0.936170213 0.978723404,0 2.12765957,0 L22.9787234,0 C24.1276596,0 25.0638298,0.936170213 25.0638298,2.08510638 L25.0638298,15 C25.0531915,16.1382979 24.1276596,17.0744681 22.9787234,17.0744681 Z M2.12765957,0.680851064 C1.35106383,0.680851064 0.723404255,1.30851064 0.723404255,2.08510638 L0.723404255,15 C0.723404255,15.7765957 1.35106383,16.4042553 2.12765957,16.4042553 L22.9787234,16.4042553 C23.7553191,16.4042553 24.3829787,15.7765957 24.3829787,15 L24.3829787,2.07446809 C24.3829787,1.29787234 23.7553191,0.670212766 22.9787234,0.670212766 L2.12765957,0.670212766 L2.12765957,0.680851064 Z" id="Shape"></path>
            <path d="M18.4361702,20 L6.67021277,20 C6.4787234,20 6.32978723,19.8510638 6.32978723,19.6595745 C6.32978723,19.4680851 6.4787234,19.3191489 6.67021277,19.3191489 L18.4255319,19.3191489 C18.6170213,19.3191489 18.7659574,19.4680851 18.7659574,19.6595745 C18.7659574,19.8510638 18.6170213,20 18.4361702,20 Z" id="Path"></path>
            <path d="M12.5531915,15.7234043 C12.9148936,15.7234043 13.212766,15.4255319 13.212766,15.0638298 C13.212766,14.6914894 12.9148936,14.393617 12.5531915,14.393617 C12.1808511,14.393617 11.8829787,14.6914894 11.8829787,15.0638298 C11.893617,15.4361702 12.1914894,15.7234043 12.5531915,15.7234043 L12.5531915,15.7234043 Z" id="Path"></path>
            <path d="M24.712766,13.8404255 L0.393617021,13.8404255 C0.20212766,13.8404255 0.0531914894,13.6914894 0.0531914894,13.5 C0.0531914894,13.3085106 0.20212766,13.1595745 0.393617021,13.1595745 L24.7234043,13.1595745 C24.9148936,13.1595745 25.0638298,13.3085106 25.0638298,13.5 C25.0638298,13.6914894 24.9042553,13.8404255 24.712766,13.8404255 Z" id="Path"></path>
        </g>
    </g>
</svg>