<?xml version="1.0" encoding="UTF-8"?>
<svg width="32px" height="32px" viewBox="0 0 32 32" version="1.1" xmlns="http://www.w3.org/2000/svg" xmlns:xlink="http://www.w3.org/1999/xlink">
    <title>icone/32x32/sport_32_purple</title>
    <g id="icone/32x32/sport_32_purple" stroke="none" stroke-width="1" fill="none" fill-rule="evenodd">
        <g id="noun_Ball_2398556(1)" transform="translate(6.038145, 6.060308)" fill="#1E1169" fill-rule="nonzero" stroke="#1E1169" stroke-width="0.3">
            <g id="Group">
                <path d="M9.9618552,19.9237104 C8.07520362,19.9237104 6.23633484,19.389638 4.64411765,18.3792308 C4.43312217,18.2453394 4.37058824,17.9657014 4.50452489,17.7547059 C4.63841629,17.5437104 4.9180543,17.4812217 5.12900452,17.6151131 C6.5760181,18.5333484 8.24719457,19.018733 9.96190045,19.018733 C14.9558824,19.018733 19.0187783,14.9558371 19.0187783,9.9618552 C19.0187783,7.47131222 18.0215837,5.14705882 16.210905,3.41714932 C16.0302262,3.24457014 16.0236652,2.95809955 16.1963348,2.77742081 C16.3689593,2.59669683 16.6554299,2.590181 16.8361086,2.76280543 C17.8006787,3.68438914 18.559819,4.76782805 19.0923077,5.98298643 C19.6439819,7.24208145 19.9237557,8.58072398 19.9237557,9.9618552 C19.9237557,15.4548869 15.4548416,19.9237104 9.9618552,19.9237104 Z M3.13696833,17.0247511 C3.01846154,17.0247511 2.900181,16.978552 2.81140271,16.8865158 L2.77932127,16.8533032 C2.60615385,16.6731674 2.61180995,16.3866968 2.79190045,16.2134842 C2.97208145,16.0402715 3.25850679,16.0459729 3.43171946,16.2260633 L3.46248869,16.2579638 C3.63606335,16.4377828 3.63104072,16.7242534 3.45122172,16.8977828 C3.36339367,16.9825792 3.2500905,17.0247511 3.13696833,17.0247511 Z M1.74533937,15.1915837 C1.58977376,15.1915837 1.43841629,15.1113575 1.35420814,14.9673303 C0.468235294,13.4513122 0,11.7204525 0,9.9618552 C0,4.46882353 4.46886878,0 9.9618552,0 C10.9023982,0 11.8341629,0.132126697 12.7311765,0.392760181 C12.9711765,0.462488688 13.1091855,0.713574661 13.039457,0.953574661 C12.9697738,1.19352941 12.7186425,1.33153846 12.4786878,1.2618552 C11.6637557,1.02511312 10.8169231,0.905022624 9.9618552,0.905022624 C4.9678733,0.905022624 0.904977376,4.96791855 0.904977376,9.96190045 C0.904977376,11.560181 1.33049774,13.1331674 2.13556561,14.5107692 C2.26167421,14.7265611 2.18900452,15.0036652 1.97321267,15.1297738 C1.90144796,15.1716742 1.82285068,15.1915837 1.74533937,15.1915837 Z M14.7197285,2.18647059 C14.6424887,2.18647059 14.5642081,2.16665158 14.4926697,2.12506787 L14.4556561,2.10366516 C14.2390045,1.97918552 14.1642986,1.70257919 14.2887783,1.4859276 C14.4133032,1.26918552 14.6897738,1.19457014 14.9065611,1.31904977 L14.9476471,1.34280543 C15.1636652,1.46841629 15.2369683,1.74538462 15.1113122,1.96144796 C15.0272851,2.1058371 14.8756561,2.18647059 14.7197285,2.18647059 Z" id="Shape"></path>
                <path d="M9.96149321,10.4143439 C9.86606335,10.4143439 9.76986425,10.3842986 9.68800905,10.3220814 C8.27484163,9.24791855 7.30723982,7.76742081 6.81221719,5.9218552 C6.5381448,4.90375566 6.39914027,3.83117647 6.39914027,2.73429864 C6.39914027,1.7039819 6.52497738,1.03524887 6.53031674,1.00728507 C6.57737557,0.761809955 6.81461538,0.600950226 7.05986425,0.648054299 C7.30511312,0.695067873 7.4659276,0.931809955 7.41923077,1.17705882 L7.41923077,1.17705882 C7.41809955,1.18316742 7.3040724,1.79687783 7.3040724,2.73429864 C7.3040724,3.75176471 7.43262443,4.74515837 7.6861086,5.68701357 C8.12809955,7.33475113 8.98579186,8.65167421 10.2355656,9.60162896 C10.4344796,9.75289593 10.4732127,10.0367421 10.321991,10.2357014 C10.2330317,10.3528054 10.0980543,10.4143439 9.96149321,10.4143439 Z" id="Path"></path>
                <path d="M19.19181,12.4046154 C19.0831222,12.4046154 18.9740724,12.3657466 18.8873756,12.2867873 C18.8494118,12.2524887 16.1482805,9.84375566 12.7919005,9.84375566 C11.8760633,9.84375566 10.9828507,10.0238009 10.1369683,10.3790045 C9.90642534,10.4757466 9.64135747,10.3673756 9.54457014,10.1369683 C9.44782805,9.90656109 9.5561991,9.64135747 9.78660633,9.54457014 C10.7439367,9.14257919 11.7551131,8.93873303 12.7919005,8.93873303 C16.5127149,8.93873303 19.3765611,11.5081448 19.4966063,11.6175566 C19.6813575,11.7858371 19.6947511,12.0720362 19.5264253,12.2567873 C19.4371946,12.3548869 19.3147059,12.4046154 19.19181,12.4046154 Z" id="Path"></path>
                <path d="M3.80723982,17.3821267 C3.61638009,17.3821267 3.43891403,17.2604525 3.37687783,17.0690498 C3.2999095,16.8314932 3.4299095,16.5764706 3.66733032,16.4992308 L3.66733032,16.4992308 C3.68058824,16.4948869 5.00719457,16.0547511 6.38769231,15.0119005 C8.20452489,13.6393213 9.25606335,11.9209955 9.51294118,9.90466063 C9.54452489,9.65674208 9.77117647,9.48131222 10.0190045,9.51298643 C10.2669231,9.54457014 10.4422624,9.77113122 10.4106335,10.0190498 C10.1246154,12.2639819 8.91361991,14.2466516 6.90850679,15.7526244 C5.40932127,16.8785973 4.00588235,17.3408597 3.94687783,17.3599548 C3.90054299,17.3749774 3.85348416,17.3821267 3.80723982,17.3821267 Z" id="Path"></path>
                <path d="M18.6410407,6.52615385 C18.5770588,6.52615385 18.5120362,6.51248869 18.4502262,6.48371041 C16.6886425,5.66276018 14.7694118,5.24656109 12.7458824,5.24656109 C9.68348416,5.24656109 7.45321267,6.20923077 7.43104072,6.21895928 C7.20221719,6.31936652 6.93529412,6.21520362 6.83493213,5.98633484 C6.73452489,5.75746606 6.83868778,5.49058824 7.06755656,5.390181 C7.16515837,5.34737557 9.49570136,4.34153846 12.7458824,4.34153846 C14.9024887,4.34153846 16.9503167,4.78624434 18.8324887,5.66339367 C19.0590045,5.76891403 19.1570588,6.0381448 19.0515385,6.26466063 C18.9747511,6.42936652 18.811448,6.5261086 18.6410407,6.52615385 Z" id="Path"></path>
                <path d="M8.98628959,19.8738009 C8.84371041,19.8738009 8.70334842,19.8065611 8.61529412,19.6808597 C8.4719457,19.4761991 8.52162896,19.1940271 8.72628959,19.0506335 C11.3547059,17.2094118 12.7758371,14.7433937 13.5051584,12.9988688 C14.2955204,11.108371 14.4630317,9.6538009 14.4646154,9.63932127 C14.4920814,9.39095023 14.7161086,9.21171946 14.9640724,9.23927602 C15.2124434,9.26674208 15.3915385,9.49036199 15.3641176,9.73873303 C15.3570136,9.80312217 15.180181,11.3384615 14.3400905,13.3479638 C13.5646154,15.2027602 12.0513122,17.8263801 9.24547511,19.7918552 C9.16651584,19.8472398 9.07597285,19.8738009 8.98628959,19.8738009 Z" id="Path"></path>
                <path d="M7.71742081,14.8404977 C7.62443439,14.8404977 7.53067873,14.8119005 7.45,14.7526244 C7.39782805,14.7142534 6.15669683,13.7931674 4.83665158,12.0606335 C3.6181448,10.461448 2.10289593,7.83882353 1.80366516,4.42638009 C1.7818552,4.17742081 1.96597285,3.9578733 2.21493213,3.93606335 C2.4638914,3.91420814 2.68339367,4.09837104 2.70520362,4.34733032 C2.98438914,7.53131222 4.39963801,9.98760181 5.53778281,11.4875566 C6.78045249,13.1252036 7.97447964,14.0149321 7.98638009,14.0237557 C8.18728507,14.1720362 8.23027149,14.4552036 8.0821267,14.6562896 C7.99343891,14.7766968 7.85633484,14.8404977 7.71742081,14.8404977 Z" id="Path"></path>
            </g>
        </g>
    </g>
</svg>