<svg height="32" viewBox="0 0 32 32" width="32" xmlns="http://www.w3.org/2000/svg"><g fill="#fff" stroke="#fff" stroke-width=".3" transform="translate(6 6.022)"><path d="m10 19.9618552c-1.88665158 0-3.72552036-.5340724-5.31773756-1.5444796-.21099547-.1338914-.27352941-.4135294-.13959276-.6245249.13389141-.2109955.41352942-.2734842.62447964-.1395928 1.44701358.9182353 3.11819005 1.4036199 4.83289588 1.4036199 4.9939819 0 9.0568779-4.0628959 9.0568779-9.0568778 0-2.49054299-.9971946-4.81479638-2.8078733-6.54470588-.1806788-.17257919-.1872398-.45904978-.0145702-.63972851.1726245-.18072398.4590951-.18723982.6397738-.01461538.9645701.92158371 1.7237104 2.00502262 2.2561991 3.22018099.5516742 1.25909502.831448 2.59773756.831448 3.97886878 0 5.4930317-4.4689141 9.9618552-9.9619005 9.9618552zm-6.82488688-2.8989593c-.11850679 0-.23678733-.0461991-.32556561-.1382353l-.03208145-.0332126c-.17316742-.1801358-.16751131-.4666064.01257919-.639819.18018099-.1732127.46660633-.1675114.639819.0125791l.03076923.0319005c.17357466.179819.16855204.4662896-.01126696.639819-.08782806.0847964-.20113123.1269683-.3142534.1269683zm-1.39162896-1.8331674c-.15556561 0-.30692307-.0802262-.39113122-.2242534-.88597285-1.5160181-1.35420814-3.2468778-1.35420814-5.0054751 0-5.49303167 4.46886877-9.9618552 9.9618552-9.9618552.940543 0 1.8723077.13212669 2.7693213.39276018.24.0697285.378009.32081448.3082805.56081448-.0696832.23995475-.3208145.3779638-.5607692.30828054-.8149321-.23674208-1.6617647-.35683258-2.5168326-.35683258-4.9939819 0-9.05687783 4.06289593-9.05687783 9.05687778 0 1.5982806.42552036 3.171267 1.23058824 4.5488688.12610859.2157919.05343891.492896-.16235294.6190046-.07176471.0419004-.15036199.0618099-.22787331.0618099zm12.97438914-13.00511312c-.0772398 0-.1555204-.019819-.2270588-.06140271l-.0370136-.02140272c-.2166516-.12447963-.2913575-.40108597-.1668778-.61773755.1245249-.21674208.4009955-.29135747.6177828-.16687783l.041086.02375566c.2160181.12561086.2893212.40257918.1636651.61864253-.0840271.14438914-.2356561.22502262-.3915837.22502262z"/><path d="m9.99963801 10.4524887c-.09542987 0-.19162896-.0300453-.27348416-.0922625-1.41316742-1.07416285-2.38076923-2.55466059-2.87579186-4.4002262-.2740724-1.01809955-.41307692-2.09067873-.41307692-3.18755656 0-1.03031674.1258371-1.69904977.13117647-1.72701358.04705882-.24547511.28429864-.40633484.52954751-.35923076.24524887.04701357.40606335.28375565.35936652.52900452-.00113123.0061086-.11515838.619819-.11515838 1.55723982 0 1.01746606.12855204 2.01085973.3820362 2.95271493.44199095 1.64773756 1.29968326 2.96466063 2.54945701 3.91461539.198914.15126696.2376471.43511314.0864253.63407244-.0889592.117104-.2239366.1786425-.36049769.1786425z"/><path d="m19.2299548 12.4427602c-.1086878 0-.2177376-.0388688-.3044344-.1178281-.0379638-.0342986-2.7390951-2.44303165-6.0954752-2.44303165-.9158371 0-1.8090497.18004525-2.6549321.53524885-.23054296.0967421-.49561084-.0116289-.59239817-.2420362-.09674208-.23040722.01162896-.49561084.2420362-.59239817.95733027-.40199095 1.96850677-.6058371 3.00529407-.6058371 3.7208145 0 6.5846607 2.56941177 6.7047059 2.67882357.1847512.1682805.1981448.4544796.029819.6392307-.0892307.0980996-.2117194.1478281-.3346153.1478281z"/><path d="m3.84538462 17.4202715c-.19085973 0-.3683258-.1216742-.430362-.3130769-.07696832-.2375566.05303168-.4925792.29045249-.569819.01325792-.0043439 1.33986426-.4444797 2.72036199-1.4873304 1.81683258-1.3725791 2.86837104-3.0909049 3.12524887-5.10723977.03158371-.24791855.2582353-.42334842.50606333-.39167421.2479186.03158371.4232579.2581448.391629.50606338-.2860181 2.2449321-1.49701359 4.2276018-3.50212672 5.7335746-1.49918552 1.1259729-2.90262443 1.5882353-2.96162896 1.6073303-.04633484.0150227-.09339366.022172-.139638.022172zm14.83380088-10.85597286c-.0639819 0-.1290045-.01366516-.1908145-.04244344-1.7615837-.82095022-3.6808144-1.23714932-5.7043439-1.23714932-3.06239814 0-5.29266963.96266969-5.31484158.97239819-.22882353.10040724-.49574661-.00375565-.5961086-.23262443-.10040724-.22886878.00375566-.49574661.23262444-.59615385.09760181-.04280543 2.42814479-1.04864253 5.67832574-1.04864253 2.1566064 0 4.2044344.44470588 6.0866064 1.3218552.2265158.10552036.3245701.37475113.2190498.60126697-.0767874.16470588-.2400905.26144796-.4104978.26149321zm-9.65475111 13.34764706c-.14257919 0-.28294118-.0672398-.37099548-.1929412-.14334841-.2046606-.09366515-.4868326.11099548-.6302262 2.62841631-1.8412217 4.04954751-4.3072398 4.77886881-6.0517647.790362-1.8904978.9578733-3.3450679.959457-3.35954754.027466-.24837104.2514932-.42760181.499457-.40004525.248371.02746607.4274661.25108598.4000452.49945702-.007104.06438914-.1839366 1.59972847-1.0240271 3.60923077-.7754751 1.8547964-2.2887783 4.4784163-5.09461539 6.4438914-.07895928.0553846-.16950226.0819457-.25918552.0819457z"/><path d="m7.75556561 14.8786425c-.09298642 0-.18674208-.0285973-.26742081-.0878733-.05217195-.038371-1.29330317-.959457-2.61334842-2.6919909-1.21850679-1.5991855-2.73375566-4.22180997-3.03298643-7.63425341-.02180995-.24895928.1623077-.46850679.41126697-.49031675.24895928-.0218552.46846154.1623077.4902715.41126697.27918552 3.1839819 1.69443439 5.64027149 2.83257918 7.14022629 1.24266969 1.637647 2.43669683 2.5273755 2.44859729 2.5361991.20090497.1482805.2438914.4314479.0957466.6325339-.08868778.1204072-.22579185.1842081-.36470588.1842081z"/></g></svg>