<?xml version="1.0" encoding="utf-8"?>
<!-- Generator: Adobe Illustrator 16.0.0, SVG Export Plug-In . SVG Version: 6.00 Build 0)  -->
<!DOCTYPE svg PUBLIC "-//W3C//DTD SVG 1.1//EN" "http://www.w3.org/Graphics/SVG/1.1/DTD/svg11.dtd">
<svg version="1.1" id="Calque_1" xmlns="http://www.w3.org/2000/svg" xmlns:xlink="http://www.w3.org/1999/xlink" x="0px" y="0px"
	 width="32px" height="32px" viewBox="0 0 32 32" enable-background="new 0 0 32 32" xml:space="preserve">
<path fill="#156064" d="M21.075,2.032c-4.278,0-7.759,3.48-7.759,7.759c0,1.421,0.391,2.75,1.061,3.896l0.267-0.552
	c-0.522-1.002-0.823-2.138-0.823-3.344c0-4,3.255-7.255,7.255-7.255s7.255,3.254,7.255,7.255c0,4-3.255,7.254-7.255,7.254
	c-1.785,0-3.419-0.651-4.684-1.724l-0.229,0.47c1.339,1.098,3.05,1.758,4.912,1.758c4.278,0,7.759-3.479,7.759-7.758
	S25.354,2.032,21.075,2.032z"/>
<g>
	<g>
		<path fill="#156064" d="M23.332,8.746l-3.025-3.024c-0.031-0.037-0.147-0.155-0.311-0.155l-0.124,0.024
			c-0.154,0.063-0.213,0.218-0.218,0.339v7.546c0.005,0.112,0.063,0.266,0.218,0.329l0.124,0.025c0.162,0,0.277-0.118,0.3-0.143
			l3.036-3.045C23.855,10.119,23.855,9.269,23.332,8.746z M22.977,10.285L20.16,13.11V6.286l2.816,2.816
			C23.302,9.428,23.302,9.959,22.977,10.285z"/>
	</g>
	<path fill="#156064" d="M19.907,13.711"/>
</g>
<g>
	<path fill="#156064" d="M19.996,13.83L19.996,13.83l-0.124-0.025c-0.154-0.063-0.213-0.217-0.218-0.329V5.93
		c0.005-0.121,0.063-0.275,0.218-0.339l0.124-0.024c0.162,0,0.277,0.118,0.311,0.155l3.025,3.024c0.523,0.523,0.523,1.373,0,1.896
		l-3.036,3.045C20.273,13.712,20.158,13.83,19.996,13.83z M20.159,6.286v6.824l2.815-2.825c0.326-0.326,0.326-0.857,0-1.183
		L20.159,6.286z"/>
	<path fill="#156064" stroke="#1D1D1B" stroke-miterlimit="10" d="M19.907,13.711"/>
</g>
<g>
	<path fill="#156064" d="M10.275,30.469h-0.158c-0.153,0-3.787-0.033-7.083-2.888l-0.07-0.074c-0.766-0.999,0.169-5.091,0.278-5.554
		c0.365-1.551,1.396-5.245,3.08-6.068c0.414-0.202,0.899-0.304,1.442-0.304c1.584,0,3.354,0.868,4.19,1.334l2.333-4.829
		c0.208-0.427,0.794-1.145,1.672-1.145c0.248,0,0.501,0.058,0.752,0.171c1.2,0.542,1.068,1.8,0.831,2.389l-2.403,6.991
		c0.158,0.785,0.759,4.015,0.249,5.328c-0.551,1.418-4.532,4.24-4.984,4.558L10.275,30.469z M3.748,26.876
		c2.639,2.253,5.534,2.549,6.219,2.587c1.622-1.15,4.166-3.172,4.489-4.004c0.333-0.857-0.021-3.459-0.323-4.896l-0.028-0.136
		l2.5-7.274c0.062-0.158,0.295-0.857-0.306-1.129c-0.666-0.297-1.11,0.496-1.114,0.503l-2.812,5.819l-0.475-0.304
		c-0.023-0.015-2.311-1.461-4.135-1.461c-0.39,0-0.727,0.067-1.003,0.203c-0.72,0.352-1.539,1.868-2.189,4.057
		C3.693,23.797,3.542,26.402,3.748,26.876z"/>
	
		<rect x="13.423" y="18.804" transform="matrix(-0.9285 -0.3712 0.3712 -0.9285 18.6853 47.5918)" fill="#156064" width="1" height="6.387"/>
</g>
</svg>
