<?xml version="1.0" encoding="UTF-8"?>
<svg width="32px" height="32px" viewBox="0 0 32 32" version="1.1" xmlns="http://www.w3.org/2000/svg" xmlns:xlink="http://www.w3.org/1999/xlink">
    <title>icone/32x32/support_32_white</title>
    <g id="icone/32x32/support_32_white" stroke="none" stroke-width="1" fill="none" fill-rule="evenodd">
        <g id="noun_sheets_2044145_000000" transform="translate(6.000000, 4.000000)" fill="#FFFFFF" fill-rule="nonzero">
            <path d="M16.6,3.425 L16.6,3.425 C16.6,1.6 15.125,0.125 13.3,0.125 L3.4,0.125 C1.575,0.125 0.1,1.6 0.1,3.425 L0.1,17.3 C0.1,18.175 0.45,19 1.075,19.625 C1.7,20.25 2.525,20.6 3.4,20.6 C3.4,20.6 3.4,20.6 3.4,20.6 C3.4,21.475 3.75,22.3 4.375,22.925 C5,23.55 5.825,23.9 6.7,23.9 C6.7,23.9 6.7,23.9 6.7,23.9 L14.3,23.9 C15.175,23.9 16,23.55 16.625,22.925 L18.95,20.6 C19.575,19.975 19.925,19.15 19.925,18.275 L19.925,6.7 C19.9,4.9 18.425,3.425 16.6,3.425 Z M3.4,6.7 L3.4,19.475 L3.4,19.475 C2.8,19.475 2.275,19.25 1.85,18.825 C1.425,18.4 1.2,17.85 1.2,17.275 L1.2,3.425 C1.2,2.2 2.2,1.225 3.4,1.225 L13.3,1.225 C14.525,1.225 15.5,2.2 15.5,3.425 L6.7,3.425 C4.875,3.425 3.4,4.9 3.4,6.7 Z M6.7,22.775 C6.7,22.775 6.7,22.775 6.7,22.775 C6.1,22.775 5.55,22.55 5.15,22.125 C4.725,21.7 4.5,21.15 4.5,20.575 L4.5,6.7 C4.5,5.5 5.475,4.5 6.7,4.5 L16.6,4.5 C17.8,4.5 18.8,5.475 18.8,6.7 L18.8,17.9 L15.9,17.9 C14.825,17.9 13.95,18.775 13.95,19.85 L13.95,22.75 L6.7,22.775 Z M15.825,22.125 C15.6,22.35 15.325,22.525 15.025,22.625 L15.025,19.875 C15.025,19.4 15.4,19.025 15.875,19.025 L18.625,19.025 C18.525,19.325 18.35,19.6 18.125,19.825 L15.825,22.125 Z" id="Shape"></path>
            <path d="M7.9,12.025 L15.425,12.025 C15.725,12.025 15.975,11.775 15.975,11.475 C15.975,11.175 15.725,10.925 15.425,10.925 L7.9,10.925 C7.6,10.925 7.35,11.175 7.35,11.475 C7.35,11.775 7.6,12.025 7.9,12.025 Z" id="Path"></path>
            <path d="M15.425,15.55 C15.725,15.55 15.975,15.3 15.975,15 C15.975,14.7 15.725,14.45 15.425,14.45 L7.9,14.45 C7.6,14.45 7.35,14.7 7.35,15 C7.35,15.3 7.6,15.55 7.9,15.55 L15.425,15.55 Z" id="Path"></path>
            <path d="M7.9,8.525 L15.425,8.525 C15.725,8.525 15.975,8.275 15.975,7.975 C15.975,7.675 15.725,7.425 15.425,7.425 L7.9,7.425 C7.6,7.425 7.35,7.675 7.35,7.975 C7.35,8.275 7.6,8.525 7.9,8.525 Z" id="Path"></path>
        </g>
    </g>
</svg>