<?xml version="1.0" encoding="UTF-8"?>
<svg width="32px" height="32px" viewBox="0 0 32 32" version="1.1" xmlns="http://www.w3.org/2000/svg" xmlns:xlink="http://www.w3.org/1999/xlink">
    <title>icone/32x32/support_32_deepgreen</title>
    <g id="icone/32x32/support_32_deepgreen" stroke="none" stroke-width="1" fill="none" fill-rule="evenodd">
        <g id="noun_sheets_2044145_000000" transform="translate(6.100000, 4.125000)" fill="#0B554B" fill-rule="nonzero">
            <path d="M16.5,3.3 L16.5,3.3 C16.5,1.475 15.025,0 13.2,0 L3.3,0 C1.475,0 0,1.475 0,3.3 L0,17.175 C0,18.05 0.35,18.875 0.975,19.5 C1.6,20.125 2.425,20.475 3.3,20.475 C3.3,20.475 3.3,20.475 3.3,20.475 C3.3,21.35 3.65,22.175 4.275,22.8 C4.9,23.425 5.725,23.775 6.6,23.775 C6.6,23.775 6.6,23.775 6.6,23.775 L14.2,23.775 C15.075,23.775 15.9,23.425 16.525,22.8 L18.85,20.475 C19.475,19.85 19.825,19.025 19.825,18.15 L19.825,6.575 C19.8,4.775 18.325,3.3 16.5,3.3 Z M3.3,6.575 L3.3,19.35 L3.3,19.35 C2.7,19.35 2.175,19.125 1.75,18.7 C1.325,18.275 1.1,17.725 1.1,17.15 L1.1,3.3 C1.1,2.075 2.1,1.1 3.3,1.1 L13.2,1.1 C14.425,1.1 15.4,2.075 15.4,3.3 L6.6,3.3 C4.775,3.3 3.3,4.775 3.3,6.575 Z M6.6,22.65 C6.6,22.65 6.6,22.65 6.6,22.65 C6,22.65 5.45,22.425 5.05,22 C4.625,21.575 4.4,21.025 4.4,20.45 L4.4,6.575 C4.4,5.375 5.375,4.375 6.6,4.375 L16.5,4.375 C17.7,4.375 18.7,5.35 18.7,6.575 L18.7,17.775 L15.8,17.775 C14.725,17.775 13.85,18.65 13.85,19.725 L13.85,22.625 L6.6,22.65 Z M15.725,22 C15.5,22.225 15.225,22.4 14.925,22.5 L14.925,19.75 C14.925,19.275 15.3,18.9 15.775,18.9 L18.525,18.9 C18.425,19.2 18.25,19.475 18.025,19.7 L15.725,22 Z" id="Shape"></path>
            <path d="M7.8,11.9 L15.325,11.9 C15.625,11.9 15.875,11.65 15.875,11.35 C15.875,11.05 15.625,10.8 15.325,10.8 L7.8,10.8 C7.5,10.8 7.25,11.05 7.25,11.35 C7.25,11.65 7.5,11.9 7.8,11.9 Z" id="Path"></path>
            <path d="M15.325,15.425 C15.625,15.425 15.875,15.175 15.875,14.875 C15.875,14.575 15.625,14.325 15.325,14.325 L7.8,14.325 C7.5,14.325 7.25,14.575 7.25,14.875 C7.25,15.175 7.5,15.425 7.8,15.425 L15.325,15.425 Z" id="Path"></path>
            <path d="M7.8,8.4 L15.325,8.4 C15.625,8.4 15.875,8.15 15.875,7.85 C15.875,7.55 15.625,7.3 15.325,7.3 L7.8,7.3 C7.5,7.3 7.25,7.55 7.25,7.85 C7.25,8.15 7.5,8.4 7.8,8.4 Z" id="Path"></path>
        </g>
    </g>
</svg>