<svg height="32" viewBox="0 0 32 32" width="32" xmlns="http://www.w3.org/2000/svg"><g fill="#1e1169" transform="translate(6 4)"><path d="m16.6 3.425c0-1.825-1.475-3.3-3.3-3.3h-9.9c-1.825 0-3.3 1.475-3.3 3.3v13.875c0 .875.35 1.7.975 2.325s1.45.975 2.325.975c0 .875.35 1.7.975 2.325s1.45.975 2.325.975h7.6c.875 0 1.7-.35 2.325-.975l2.325-2.325c.625-.625.975-1.45.975-2.325v-11.575c-.025-1.8-1.5-3.275-3.325-3.275zm-13.2 3.275v12.775c-.6 0-1.125-.225-1.55-.65s-.65-.975-.65-1.55v-13.85c0-1.225 1-2.2 2.2-2.2h9.9c1.225 0 2.2.975 2.2 2.2h-8.8c-1.825 0-3.3 1.475-3.3 3.275zm3.3 16.075c-.6 0-1.15-.225-1.55-.65-.425-.425-.65-.975-.65-1.55v-13.875c0-1.2.975-2.2 2.2-2.2h9.9c1.2 0 2.2.975 2.2 2.2v11.2h-2.9c-1.075 0-1.95.875-1.95 1.95v2.9zm9.125-.65c-.225.225-.5.4-.8.5v-2.75c0-.475.375-.85.85-.85h2.75c-.1.3-.275.575-.5.8z"/><path d="m7.9 12.025h7.525c.3 0 .55-.25.55-.55s-.25-.55-.55-.55h-7.525c-.3 0-.55.25-.55.55s.25.55.55.55zm7.525 3.525c.3 0 .55-.25.55-.55s-.25-.55-.55-.55h-7.525c-.3 0-.55.25-.55.55s.25.55.55.55zm-7.525-7.025h7.525c.3 0 .55-.25.55-.55s-.25-.55-.55-.55h-7.525c-.3 0-.55.25-.55.55s.25.55.55.55z"/></g></svg>