<svg xmlns="http://www.w3.org/2000/svg" width="32" height="32" viewBox="0 0 32 32">
  <g fill="#FFF" fill-rule="evenodd" stroke="#FFF" stroke-width=".1" transform="translate(5 4)">
    <path d="M17.4548326,20.0985481 L19.1433244,20.0985481 C19.3251259,20.0985481 19.4918696,19.9977067 19.5761541,19.8367644 C19.6606993,19.6756267 19.6487704,19.4810489 19.5451259,19.3315793 L15.1906904,13.0417304 C15.0993007,12.9098607 14.9490489,12.8311822 14.7886281,12.8311822 C14.6282074,12.8311822 14.4779556,12.9098607 14.3868267,13.0417304 L13.1004622,14.8997689 L13.1004622,7.27720889 L14.7886281,7.27720889 C14.9704296,7.27720889 15.1372385,7.17636741 15.2217837,7.01516444 C15.3060681,6.85422222 15.2940741,6.65944889 15.1906904,6.50997926 L10.8362548,0.22013037 C10.7448652,0.0882607407 10.5946133,0.00951703704 10.4341926,0.00951703704 C10.2737719,0.00951703704 10.1235852,0.0882607407 10.0323911,0.22013037 L5.67795556,6.50997926 C5.5743763,6.65944889 5.56238222,6.85422222 5.64666667,7.01516444 C5.73121185,7.17636741 5.89795556,7.27720889 6.07982222,7.27720889 L7.76824889,7.27720889 L7.76824889,10.3034311 L6.48188444,8.44519704 C6.39042963,8.31352296 6.24017778,8.2345837 6.07982222,8.2345837 C5.91940148,8.2345837 5.76914963,8.31326222 5.67776,8.44519704 L1.32332444,14.7350459 C1.21994074,14.8845156 1.20794667,15.0792889 1.29223111,15.2402311 C1.3767763,15.4013689 1.54358519,15.5022104 1.72538667,15.5022104 L3.41355259,15.5022104 L3.41355259,22.7494993 L0.273712593,22.7494993 L0.273712593,23.727277 L20.5946726,23.727277 L20.5946726,22.7494993 L17.4548326,22.7494993 L17.4548326,20.0985481 Z M7.76824889,15.0133215 L7.76824889,22.74976 L4.39133037,22.74976 L4.39133037,15.0133215 C4.39133037,14.7434548 4.17263407,14.5244326 3.90244148,14.5244326 L2.65831704,14.5244326 L6.07982222,9.58261333 L9.50126222,14.5244326 L8.25713778,14.5244326 C7.98694519,14.5244326 7.76824889,14.7434548 7.76824889,15.0133215 Z M12.1226844,22.74976 L8.74602667,22.74976 L8.74602667,15.5022104 L10.4341926,15.5022104 C10.6159941,15.5022104 10.7830637,15.4013689 10.8673481,15.2402311 C10.9516326,15.0792889 10.9396385,14.8847763 10.8362548,14.7350459 L8.74602667,11.7158637 L8.74602667,6.78832 C8.74602667,6.51838815 8.52700444,6.29943111 8.25713778,6.29943111 L7.01301333,6.29943111 L10.4341926,1.35728593 L13.8556978,6.29943111 L12.6115733,6.29943111 C12.3416415,6.29943111 12.1226844,6.51838815 12.1226844,6.78832 L12.1226844,16.3122015 L10.0323911,19.3315793 C9.92874667,19.4810489 9.91681778,19.6756267 10.001363,19.8367644 C10.0856474,19.9977067 10.2523911,20.0985481 10.4341926,20.0985481 L12.1226844,20.0985481 L12.1226844,22.74976 Z M16.4770548,19.6096593 L16.4770548,22.74976 L13.1004622,22.74976 L13.1004622,19.6096593 C13.1004622,19.3397274 12.88144,19.1207704 12.6115733,19.1207704 L11.3674489,19.1207704 L14.7886281,14.1789511 L18.2100681,19.1207704 L16.9659437,19.1207704 C16.696077,19.1207704 16.4770548,19.3397274 16.4770548,19.6096593 Z"/>
    <polygon points="15.031 10.422 15.751 10.422 15.751 11.143 16.729 11.143 16.729 10.422 17.45 10.422 17.45 9.444 16.729 9.444 16.729 8.723 15.751 8.723 15.751 9.444 15.031 9.444"/>
    <polygon points="16.719 4.853 17.697 4.853 17.697 4.132 18.418 4.132 18.418 3.155 17.697 3.155 17.697 2.434 16.719 2.434 16.719 3.155 15.998 3.155 15.998 4.132 16.719 4.132"/>
    <polygon points="4.865 3.401 5.843 3.401 5.843 2.681 6.564 2.681 6.564 1.703 5.843 1.703 5.843 .982 4.865 .982 4.865 1.703 4.144 1.703 4.144 2.681 4.865 2.681"/>
    <polygon points=".995 9.691 1.972 9.691 1.972 8.97 2.693 8.97 2.693 7.993 1.972 7.993 1.972 7.272 .995 7.272 .995 7.993 .274 7.993 .274 8.97 .995 8.97"/>
    <polygon points=".753 19.852 1.73 19.852 1.73 19.131 2.451 19.131 2.451 18.153 1.73 18.153 1.73 17.433 .753 17.433 .753 18.153 .032 18.153 .032 19.131 .753 19.131"/>
    <polygon points="20.358 14.041 20.358 13.32 19.38 13.32 19.38 14.041 18.66 14.041 18.66 15.018 19.38 15.018 19.38 15.739 20.358 15.739 20.358 15.018 21.078 15.018 21.078 14.041"/>
  </g>
</svg>
