<svg height="32" viewBox="0 0 32 32" width="32" xmlns="http://www.w3.org/2000/svg"><path d="m5.66064 13.9409591c6.79248 0 10.50768-5.36392153 10.50768-10.01549016 0-.15235294 0-.3040196-.0108-.455.7227586-.49829647 1.3466559-1.11527884 1.84248-1.82205882-.6740071.28466788-1.3890029.47135299-2.12112.55382353.7709357-.43991428 1.3479289-1.13182315 1.6236-1.94696078-.7249266.41001835-1.5180148.69897883-2.34504.85441176-1.1447404-1.16021961-2.9637221-1.44418744-4.4369645-.69267064-1.47324248.75151681-2.23435751 2.35161967-1.8565555 3.9030628-2.96935507-.14188758-5.73589744-1.47869972-7.61112-3.6777451-.98019161 1.60838363-.47952872 3.66598199 1.14336 4.69892157-.58770634-.01660267-1.16259885-.16771645-1.67616-.44058824v.04460784c.00048106 1.67560303 1.23966107 3.11879865 2.9628 3.45058824-.54369389.14133141-1.11414198.16199118-1.66752.06039216.48380251 1.43391762 1.87025368 2.41622424 3.45024 2.44450984-1.30771077.9796101-2.92315715 1.5114013-4.5864 1.5098039-.29382943-.0005377-.58737307-.0174949-.87912-.0507843 1.68885788 1.0330329 3.65393765 1.5809822 5.66064 1.5784313" fill="#fff" transform="translate(7 9)"/></svg>