<svg height="32" viewBox="0 0 32 32" width="32" xmlns="http://www.w3.org/2000/svg"><path d="m4.2000006.108645c-2.3163897 0-4.1999997 1.883598-4.1999997 4.199988v9.599997c0 2.31642 1.88361 4.20003 4.1999997 4.20003h15.6c2.3163903 0 4.2000003-1.88361 4.2000003-4.20003v-9.599997c0-2.31639-1.88361-4.199988-4.2000003-4.199988zm.0000003 1.199988h15.5999997c1.67235 0 2.9999988 1.32765 2.9999988 3v9.599997c0 1.67238-1.3276488 3.00003-2.9999988 3.00003h-15.5999997c-1.6723503 0-3-1.32765-3-3.00003v-9.599997c0-1.67235 1.3276497-3 3-3zm5.0624997 3.3c-.31662867.01985739-.56309031.28274982-.56251063.6v7.799997c-.00180409.3073423.22889872.5663696.53440093.6.11958608.0133939.24043682-.009476.3468597-.06564l7.2-3.9c.1957622-.10421477.3180828-.30790636.3180828-.52968s-.1223206-.42546523-.3180828-.52968l-7.2-3.899997c-.09724204-.05406765-.20760154-.08003459-.31875-.075zm.6375 1.6125 5.34375 2.887497-5.34375 2.89686z" fill="#fff" transform="translate(4 7.191)"/></svg>