<svg xmlns="http://www.w3.org/2000/svg" width="32" height="32" viewBox="0 0 32 32">
  <path fill="#FFF" d="M4.2000006,0.108645 C1.8836109,0.108645 8.99999999e-07,1.992243 8.99999999e-07,4.308633 L8.99999999e-07,13.90863 C8.99999999e-07,16.22505 1.8836109,18.10866 4.2000006,18.10866 L19.8000006,18.10866 C22.1163909,18.10866 23.9999994,16.22505 23.9999994,13.90863 L23.9999994,4.308633 C23.9999994,1.992243 22.1163909,0.108645 19.8000006,0.108645 L4.2000006,0.108645 Z M4.2000009,1.308633 L19.8000006,1.308633 C21.4723506,1.308633 22.7999994,2.636283 22.7999994,4.308633 L22.7999994,13.90863 C22.7999994,15.58101 21.4723506,16.90866 19.8000006,16.90866 L4.2000006,16.90866 C2.5276506,16.90866 1.2000009,15.58101 1.2000009,13.90863 L1.2000009,4.308633 C1.2000009,2.636283 2.5276506,1.308633 4.2000009,1.308633 Z M9.2625006,4.608633 C8.94587193,4.62849039 8.69941029,4.89138282 8.7000006,5.208633 L8.7000006,13.00863 C8.69818588,13.3159723 8.92888869,13.5749996 9.2343909,13.60863 C9.35397698,13.6220239 9.47482772,13.599154 9.5812506,13.54299 L16.7812506,9.64299 C16.9770128,9.53877523 17.0993334,9.33508364 17.0993334,9.11331 C17.0993334,8.89153636 16.9770128,8.68784477 16.7812506,8.58363 L9.5812506,4.683633 C9.48400856,4.62956535 9.37364906,4.60359841 9.2625006,4.608633 L9.2625006,4.608633 Z M9.9000006,6.221133 L15.2437506,9.10863 L9.9000006,12.00549 L9.9000006,6.221133 Z" transform="translate(4 7.191)"/>
</svg>
