<?xml version="1.0" encoding="UTF-8"?>
<svg width="32px" height="32px" viewBox="0 0 32 32" version="1.1" xmlns="http://www.w3.org/2000/svg" xmlns:xlink="http://www.w3.org/1999/xlink">
    <title>icone/32x32/whatsapp_32_deepgreen</title>
    <defs>
        <polygon id="path-1" points="0 0 17.9940716 0 17.9940716 17.994647 0 17.994647"></polygon>
    </defs>
    <g id="icone/32x32/whatsapp_32_deepgreen" stroke="none" stroke-width="1" fill="none" fill-rule="evenodd">
        <g id="Group-3" transform="translate(7.000000, 7.000009)">
            <mask id="mask-2" fill="white">
                <use xlink:href="#path-1"></use>
            </mask>
            <g id="Clip-2"></g>
            <path d="M13.1193365,10.7833682 C12.8954749,10.671905 11.7948974,10.1329311 11.5896802,10.0585368 C11.384463,9.98418527 11.235222,9.94703088 11.0859809,10.17 C10.9367399,10.3930546 10.507747,10.8949169 10.3771074,11.0436627 C10.2465537,11.1922803 10.115957,11.2109644 9.89213842,11.0994157 C9.66823389,10.987867 8.94690215,10.7526271 8.09183771,9.99350594 C7.42631026,9.40275534 6.97704057,8.67317815 6.84644391,8.45008076 C6.71589021,8.22706888 6.83256802,8.10649881 6.94464916,7.99537767 C7.04534606,7.89554394 7.16851074,7.73512589 7.28042005,7.60506413 C7.39237232,7.47495962 7.4296611,7.38196675 7.50428162,7.23339192 C7.57890215,7.08464608 7.54161337,6.95454157 7.48563723,6.84303563 C7.4296611,6.73152969 6.98193795,5.63481235 6.79540811,5.18866033 C6.61368974,4.75430879 6.42913604,4.81314014 6.29170883,4.80621378 C6.16128401,4.79975772 6.01187112,4.79838955 5.86267303,4.79838955 C5.71343198,4.79838955 5.47088305,4.85414252 5.26570883,5.07715439 C5.06049165,5.30025178 4.48217184,5.83926841 4.48217184,6.93590024 C4.48217184,8.03257482 5.28435322,9.09196675 5.39630549,9.24066983 C5.5082148,9.38941568 6.97484964,11.6398005 9.2205537,12.6049169 C9.75466826,12.8344703 10.1716754,12.9715867 10.4967494,13.0741995 C11.0330549,13.2438527 11.521074,13.2199097 11.9067637,13.1625321 C12.3368735,13.0985701 13.2312458,12.6235582 13.4178186,12.1031401 C13.6043484,11.5826366 13.6043484,11.1365701 13.5483723,11.0436627 C13.4924391,10.9507126 13.3431981,10.8949169 13.1193365,10.7833682 M9.03466826,16.3340808 L9.0316611,16.3340808 C7.69545107,16.3335677 6.38484487,15.976304 5.24147971,15.3010261 L4.9695895,15.1403943 L2.15115036,15.8762138 L2.90341289,13.1413254 L2.72637709,12.8609359 C1.98094511,11.6809311 1.58726492,10.3171639 1.5878228,8.91675534 C1.58945585,4.83045606 4.93006683,1.5059715 9.03763246,1.5059715 C11.0266539,1.50665558 12.8963771,2.27860333 14.3023532,3.67948219 C15.7082864,5.08031829 16.4821146,6.94244181 16.4813848,8.92269834 C16.4797088,13.0093397 13.1390979,16.3340808 9.03466826,16.3340808 M15.3723866,2.61500238 C13.6808592,0.929543943 11.4313317,0.000940617577 9.03458234,0 C4.0962673,0 0.0770692124,3.99980523 0.0750930788,8.91615677 C0.0744486874,10.4877577 0.486988067,12.021734 1.27104057,13.3740428 L0,17.9946556 L4.74950835,16.7546651 C6.05813842,17.4650451 7.5315179,17.8394964 9.03101671,17.8400095 L9.03466826,17.8400095 L9.03471122,17.8400095 C13.9725107,17.8400095 17.9920955,13.8397767 17.9940723,8.92329691 C17.9949737,6.54075534 17.0639141,4.30041805 15.3723866,2.61500238" id="Fill-1" fill="#0B554B" mask="url(#mask-2)"></path>
        </g>
    </g>
</svg>