<svg xmlns="http://www.w3.org/2000/svg" xmlns:xlink="http://www.w3.org/1999/xlink" width="32" height="32" viewBox="0 0 32 32">
  <defs>
    <polygon id="whatsapp_32_purple-a" points="0 0 17.994 0 17.994 17.995 0 17.995"/>
  </defs>
  <g fill="none" fill-rule="evenodd" transform="translate(7 7)">
    <mask id="whatsapp_32_purple-b" fill="#fff">
      <use xlink:href="#whatsapp_32_purple-a"/>
    </mask>
    <path fill="#1E1169" d="M13.1193365,10.7833767 C12.8954749,10.6719135 11.7948974,10.1329397 11.5896802,10.0585454 C11.384463,9.98419382 11.235222,9.94703943 11.0859809,10.1700086 C10.9367399,10.3930632 10.507747,10.8949254 10.3771074,11.0436713 C10.2465537,11.1922888 10.115957,11.2109729 9.89213842,11.0994242 C9.66823389,10.9878755 8.94690215,10.7526356 8.09183771,9.99351449 C7.42631026,9.4027639 6.97704057,8.6731867 6.84644391,8.45008931 C6.71589021,8.22707743 6.83256802,8.10650736 6.94464916,7.99538622 C7.04534606,7.89555249 7.16851074,7.73513444 7.28042005,7.60507268 C7.39237232,7.47496817 7.4296611,7.3819753 7.50428162,7.23340048 C7.57890215,7.08465463 7.54161337,6.95455012 7.48563723,6.84304418 C7.4296611,6.73153824 6.98193795,5.6348209 6.79540811,5.18866888 C6.61368974,4.75431734 6.42913604,4.81314869 6.29170883,4.80622233 C6.16128401,4.79976627 6.01187112,4.7983981 5.86267303,4.7983981 C5.71343198,4.7983981 5.47088305,4.85415107 5.26570883,5.07716295 C5.06049165,5.30026033 4.48217184,5.83927696 4.48217184,6.93590879 C4.48217184,8.03258337 5.28435322,9.0919753 5.39630549,9.24067838 C5.5082148,9.38942423 6.97484964,11.639809 9.2205537,12.6049254 C9.75466826,12.8344789 10.1716754,12.9715952 10.4967494,13.0742081 C11.0330549,13.2438613 11.521074,13.2199183 11.9067637,13.1625406 C12.3368735,13.0985786 13.2312458,12.6235667 13.4178186,12.1031487 C13.6043484,11.5826451 13.6043484,11.1365786 13.5483723,11.0436713 C13.4924391,10.9507211 13.3431981,10.8949254 13.1193365,10.7833767 M9.03466826,16.3340893 L9.0316611,16.3340893 C7.69545107,16.3335762 6.38484487,15.9763126 5.24147971,15.3010347 L4.9695895,15.1404029 L2.15115036,15.8762223 L2.90341289,13.141334 L2.72637709,12.8609444 C1.98094511,11.6809397 1.58726492,10.3171724 1.58782339,8.9167639 C1.58945585,4.83046461 4.93006683,1.50598005 9.03763246,1.50598005 C11.0266539,1.50666413 12.8963771,2.27861188 14.3023532,3.67949074 C15.7082864,5.08032684 16.4821146,6.94245036 16.4813842,8.92270689 C16.4797088,13.0093482 13.1390979,16.3340893 9.03466826,16.3340893 M15.3723866,2.61501093 C13.6808592,0.929552494 11.4313317,0.000949168646 9.03458234,8.55106888e-06 C4.0962673,8.55106888e-06 0.0770692124,3.99981378 0.0750930788,8.91616532 C0.0744486874,10.4877663 0.486988067,12.0217425 1.27104057,13.3740513 L0,17.9946641 L4.74950835,16.7546736 C6.05813842,17.4650537 7.5315179,17.839505 9.03101671,17.8400181 L9.03466826,17.8400181 L9.03471122,17.8400181 C13.9725107,17.8400181 17.9920955,13.8397853 17.9940716,8.92330546 C17.9949737,6.5407639 17.0639141,4.3004266 15.3723866,2.61501093" mask="url(#whatsapp_32_purple-b)"/>
  </g>
</svg>
