<svg xmlns="http://www.w3.org/2000/svg" width="255" height="268" viewBox="0 0 255 268">
  <g fill="none" fill-rule="evenodd" transform="translate(-2 -3)">
    <path fill="#1E1169" d="M89.292463,184.563242 L127.383176,219.606478 L194.508567,156.920879 C199.428552,149.255548 199.428552,143.005882 194.508567,138.171881 C189.588583,133.33788 154.516548,98.8490847 89.292463,34.7054952 L26.7628591,89.4001536 L89.292463,184.563242 Z" opacity=".8"/>
    <rect width="13" height="117" x="232.249" y="9.792" fill="#1E1169" rx="6.5" transform="rotate(12 238.749 68.292)"/>
    <g fill-rule="nonzero" transform="rotate(13 120.448 1057.162)">
      <rect width="10" height="121" x="7.149" y="1.785" fill="#5AD7AF" rx="5"/>
      <path fill="#49B08F" d="M11.1952347,1.07837839 L11.1952347,1.07837839 C10.9199557,1.07837839 10.6451235,1.0994596 10.3733169,1.14091069 C12.8835463,1.52470636 14.7294294,3.58488423 14.7294813,6.00279699 L14.7294813,117.15396 C14.728742,119.571632 12.8831873,121.631443 10.3733169,122.015846 C10.6451235,122.057297 10.9199557,122.078378 11.1952347,122.078378 L11.1952347,122.078378 C14.0550105,122.078378 16.3733169,119.873641 16.3733169,117.15396 L16.3733169,6.00279699 C16.3733169,3.28311569 14.0550105,1.07837839 11.1952347,1.07837839 Z"/>
      <path fill="#A9F9DF" d="M11.4288767,122.009028 L11.4288767,122.009028 C11.7041558,122.009028 11.978988,121.987947 12.2507945,121.946496 C9.7405651,121.5627 7.89468206,119.502522 7.89463015,117.084609 L7.89463015,5.93344664 C7.89536941,3.51577466 9.74092416,1.45596318 12.2507945,1.07156033 C11.978988,1.03010925 11.7041558,1.00902803 11.4288767,1.00902803 L11.4288767,1.00902803 C8.5691009,1.00902803 6.25079454,3.21376534 6.25079454,5.93344664 L6.25079454,117.084609 C6.25079454,119.804291 8.5691009,122.009028 11.4288767,122.009028 Z"/>
      <path fill="#385868" d="M11.7950186,122.673113 C8.75890925,122.669665 6.29853265,120.255743 6.29501863,117.276959 L6.29501863,6.06926658 C6.29501863,3.0890531 8.7574525,0.673112731 11.7950186,0.673112731 C14.8325848,0.673112731 17.2950186,3.0890531 17.2950186,6.06926658 L17.2950186,117.276959 C17.2915046,120.255743 14.831128,122.669665 11.7950186,122.673113 Z M11.7950186,1.61157427 C9.28681757,1.61416055 7.25417642,3.60842316 7.25154037,6.06926658 L7.25154037,117.276959 C7.25154037,119.738874 9.28572491,121.734651 11.7950186,121.734651 C14.3043123,121.734651 16.3384969,119.738874 16.3384969,117.276959 L16.3384969,6.06926658 C16.3358608,3.60842316 14.3032197,1.61416055 11.7950186,1.61157427 Z"/>
      <path fill="#385868" d="M6.75122337,46.4418608 L6.10257472,46.4418608 C3.14710498,46.4418608 0.751223368,44.1255035 0.751223368,41.268132 L0.751223368,14.6155896 C0.751223368,11.7582181 3.14710498,9.44186079 6.10257472,9.44186079 L6.75122337,9.44186079 L6.75122337,46.4418608 Z M5.45392607,10.7462676 C3.49080243,11.053905 2.04835563,12.6928556 2.04852067,14.6155896 L2.04852067,41.268132 C2.04835563,43.190866 3.49080243,44.8298166 5.45392607,45.137454 L5.45392607,10.7462676 Z"/>
      <rect width="9" height="1" x="7.291" y="10.961" fill="#385868"/>
      <rect width="10" height="1" x="6.012" y="42.846" fill="#385868"/>
    </g>
    <g fill-rule="nonzero" transform="translate(0 25.554)">
      <polyline fill="#5AD7AF" points="166.943 222.696 166.943 244.442 173.199 244.442 173.199 221.92" transform="rotate(-44 170.07 233.181)"/>
      <polygon fill="#463E3B" points="171.948 226.925 171.948 236.935 165.691 236.238 165.691 227.708" opacity=".2" transform="rotate(-44 168.82 231.93)"/>
      <path fill="#FF507D" d="M64.0912436,231.547636 L171.308098,231.547636 C180.147824,231.547636 187.313838,224.34322 187.313838,215.456122 L187.313838,31.1718143 C187.313838,26.9040793 185.627524,22.8111396 182.625865,19.7933952 C179.624207,16.7756508 175.553084,15.0802997 171.308098,15.0802997 L64.0912436,15.0802997 C60.9670779,15.0802997 58.4344413,17.6265086 58.4344413,20.7674165 L58.4344413,225.86052 C58.4344413,229.001427 60.9670779,231.547636 64.0912436,231.547636 L64.0912436,231.547636 Z" transform="rotate(-44 122.874 123.314)"/>
      <path fill="#AC3553" d="M171.192229,16.331556 L63.1994023,16.331556 C61.2771259,16.331556 59.4848656,17.2988464 58.4344413,18.9029135 C58.9710526,18.7394053 59.5289871,18.6558875 60.0901292,18.6550718 L168.082956,18.6550718 C176.986659,18.6550718 184.204537,25.8468289 184.204537,34.718311 L184.204537,218.678801 C184.215287,223.067202 182.416689,227.26741 179.2297,230.29638 C184.23956,227.43108 187.324601,222.110908 187.313838,216.355285 L187.313838,32.3947952 C187.313838,23.5233131 180.095932,16.331556 171.192229,16.331556 L171.192229,16.331556 Z" opacity=".5" transform="rotate(-44 122.874 123.314)"/>
      <path fill="#463E3B" d="M85.9620795,57.6230133 L83.0398273,57.6230133 C79.8163943,57.6230133 77.2032855,60.1692222 77.2032855,63.31013 L77.2032855,268.403233 C77.2032855,269.91155 77.8182051,271.358091 78.912769,272.424632 C80.0073329,273.491173 81.4918802,274.09035 83.0398273,274.09035 L85.9620795,274.09035 L85.9620795,57.6230133 Z" opacity=".2" transform="rotate(-44 81.583 165.857)"/>
      <path fill="#B22F50" d="M171.377249,232.798893 L64.007316,232.798893 C60.2402181,232.794638 57.187444,229.744957 57.183185,225.981676 L57.183185,21.8975166 C57.187444,18.1342355 60.2402181,15.0845544 64.007316,15.0802997 L171.377249,15.0802997 C180.866302,15.0888129 188.556573,22.771292 188.565095,32.2507306 L188.565095,215.628462 C188.556573,225.1079 180.866302,232.790379 171.377249,232.798893 L171.377249,232.798893 Z M64.007316,17.396455 C61.5189271,17.396455 59.5016893,19.4116489 59.5016893,21.8975166 L59.5016893,225.981676 C59.5016893,228.467543 61.5189271,230.482737 64.007316,230.482737 L171.377249,230.482737 C179.585828,230.474227 186.238071,223.828724 186.24659,215.628462 L186.24659,32.2507306 C186.238071,24.0504686 179.585828,17.4049659 171.377249,17.396455 L64.007316,17.396455 Z" transform="rotate(-44 122.874 123.94)"/>
      <path fill="#463E3B" d="M152.080688,114.189043 L147.043103,98.5815056 L138.931738,73.5001928 L138.75321,72.9461252 C138.06455,70.8150881 135.790764,69.6459125 133.669053,70.3318626 L133.117946,70.5113493 L55.5282724,95.8501865 L54.9771652,96.0296732 C53.9554963,96.3620481 53.1072611,97.0892973 52.6194746,98.0510801 C52.1316882,99.0128629 52.0444058,100.130201 52.3768711,101.156749 L59.0444911,121.78211 L65.5335834,141.853403 L65.7121111,142.407471 C66.4040386,144.535381 68.6768143,145.700549 70.7962684,145.01393 L149.472632,119.316119 C150.495727,118.985353 151.345792,118.258771 151.835127,117.296806 C152.324463,116.33484 152.412819,115.216616 152.080688,114.189043 L152.080688,114.189043 Z" opacity=".2" transform="rotate(-44 102.228 107.673)"/>
      <path fill="#FFF" d="M61.2047432,77.2211271 L140.570285,77.1333829 C143.8619,77.1297438 146.533232,79.795175 146.536871,83.0867901 C146.536875,83.091113 146.536876,83.095436 146.536871,83.099759 L146.493485,123.631579 C146.489967,126.91813 143.826629,129.581562 140.540077,129.585195 L61.1745354,129.67294 C57.8829203,129.676579 55.2115889,127.011148 55.2079498,123.719532 C55.2079451,123.715209 55.207945,123.710887 55.2079496,123.706564 L55.2513358,83.1747437 C55.2548538,79.888192 57.9181916,77.2247606 61.2047432,77.2211271 Z" transform="rotate(-56.81 100.872 103.403)"/>
      <path fill="#59598D" d="M104.730924,150.634552 L84.568296,155.114332 C82.0898776,155.646634 79.6333592,154.135605 79.0539295,151.72239 L69.7730882,111.880299 C69.7360458,111.731251 69.7101969,111.57976 69.6957478,111.427033 C74.003605,114.841638 79.2859505,117.395037 84.3904132,119.570714 C87.1602517,120.64112 89.8219529,121.961298 92.3410006,123.51413 C98.737047,127.752168 102.44165,135.049752 103.872446,142.460653 C104.380383,145.158693 104.66745,147.891973 104.730924,150.634552 L104.730924,150.634552 Z" opacity=".05" transform="rotate(-44 87.213 133.324)"/>
      <path fill="#C6C6DD" d="M65.61514,138.954672 C63.1988937,138.946396 61.1079839,137.25152 60.5722495,134.866941 L51.0502219,92.5124272 C50.4352572,89.6957897 52.1798031,86.9042999 54.9578829,86.2596848 L135.211663,67.7593831 C137.995471,67.1324412 140.756586,68.8999406 141.389783,71.7142427 L150.904088,114.068757 C151.519053,116.885394 149.774507,119.676884 146.996427,120.321499 L66.7735376,138.821801 C66.393496,138.909595 66.0049557,138.954672 65.61514,138.954672 Z M136.362338,69.9790984 C136.149321,69.9790984 135.936915,70.0021858 135.72908,70.04945 L55.4675778,88.518488 C53.925813,88.8755988 52.9592533,90.4267988 53.3052358,91.98876 L62.8195407,134.343274 C63.1723897,135.903661 64.7050771,136.881895 66.2483974,136.531734 L146.517623,118.062696 C148.059387,117.705585 149.025947,116.154385 148.679965,114.592424 L139.157937,72.230094 C138.856357,70.9133009 137.69791,69.9805314 136.362338,69.9790984 L136.362338,69.9790984 Z" transform="rotate(-44 100.977 103.294)"/>
      <path fill="#463E3B" d="M148.524894,0.314265221 C148.524894,-1.08460245 147.97472,-2.42572531 146.996211,-3.41193898 C146.017702,-4.39815265 144.691682,-4.94802208 143.311968,-4.93980079 L139.053846,-4.93980079 C136.556127,-4.93980079 134.412913,-3.13566688 133.956421,-0.645970572 C133.661645,0.0247872426 133.509476,0.750958108 133.509818,1.48528448 L133.509818,215.032357 C133.509818,216.425797 134.055791,217.762166 135.027628,218.747477 C135.999465,219.732788 137.317559,220.28633 138.691945,220.28633 L142.950066,220.28633 C146.039607,219.699391 148.330961,217.043934 148.494093,213.861338 L148.524894,0.314265221 Z" opacity=".2" transform="rotate(-44 141.017 107.673)"/>
      <path fill="#D1AB0D" d="M142.742331,-8.69356964 L143.04615,-8.69356964 C146.763026,-8.69356964 149.77615,-5.680446 149.77615,-1.96356964 L149.77615,209.802561 C149.77615,213.519437 146.763026,216.532561 143.04615,216.532561 L142.742331,216.532561 C139.025454,216.532561 136.012331,213.519437 136.012331,209.802561 L136.012331,-1.96356964 C136.012331,-5.680446 139.025454,-8.69356964 142.742331,-8.69356964 Z" transform="rotate(-44 142.894 103.92)"/>
      <polygon fill="#FFD214" points="147.656 -9.57 147.656 211.879 145.153 211.879 145.153 -9.594 147.08 -9.594" transform="rotate(-44 146.404 101.143)"/>
      <path fill="#A0830D" d="M65.29226,22.9124358 L66.5435163,22.9124358 L65.29226,22.9124358 Z" transform="rotate(-44 65.918 22.912)"/>
      <path fill="#88700A" d="M145.211466,216.866241 L141.120843,216.866241 C137.760304,216.861938 135.037065,213.986869 135.032989,210.438969 L135.032989,-3.18387392 C135.037054,-6.72873196 137.755796,-9.60254454 141.113446,-9.61114597 L145.204069,-9.61114597 C148.567497,-9.61114597 151.295239,-6.73482115 151.29932,-3.18387392 L151.29932,210.438969 C151.295245,213.986869 148.572006,216.861938 145.211466,216.866241 Z M141.218843,-7.10863341 C139.186197,-7.10434221 137.539377,-5.28083672 137.535501,-3.03011069 L137.535501,210.285206 C137.539377,212.535932 139.186197,214.359437 141.218843,214.363728 L145.113466,214.363728 C147.146112,214.359437 148.792933,212.535932 148.796808,210.285206 L148.796808,-3.03011069 C148.792949,-5.27780299 147.150404,-7.10005847 145.120509,-7.10863341 L141.218843,-7.10863341 Z" transform="rotate(-44 143.166 103.628)"/>
    </g>
  </g>
</svg>
