<svg height="381" viewBox="0 0 587 381" width="587" xmlns="http://www.w3.org/2000/svg"><g fill="none" transform="translate(-4.594)"><g transform="matrix(.22495105 .97437006 -.97437006 .22495105 317.512888 290.199592)"><rect fill="#ffd214" height="128" rx="5" width="10" x="5.88" y=".587"/><path d="m10.6970101.01796707c-.2293992.00018165-.458426.02230079-.6849315.06614987 2.0918579.40599873 3.6300937 2.58536044 3.630137 5.14315245v117.58139561c-.0006161 2.557537-1.5385783 4.736511-3.630137 5.143152.2265055.043849.4555323.065968.6849315.06615 2.3831465 0 4.3150685-2.332284 4.3150685-5.209302v-117.58139561c0-2.87701823-1.931922-5.20930232-4.3150685-5.20930232z" fill="#c49e00"/><path d="m9.892611 128.596664c.2293992-.000182.458426-.022301.6849315-.06615-2.09185786-.405999-3.63009372-2.585361-3.63013698-5.143153v-117.58139514c.00061605-2.5575373 1.53857834-4.73651142 3.63013698-5.14315245-.2265055-.04384908-.4555323-.06596822-.6849315-.06614987-2.38314652 0-4.31506849 2.33228409-4.31506849 5.20930232v117.58139514c0 2.877018 1.93192197 5.209303 4.31506849 5.209303z" fill="#fee88a"/><g fill="#7d6708"><path d="m10.574407 129.221834c-3.03610937-.003645-5.49648597-2.556071-5.49999999-5.705769v-117.58846168c0-3.15120933 2.46243387-5.70576923 5.49999999-5.70576923 3.0375661 0 5.5 2.5545599 5.5 5.70576923v117.58846168c-.003514 3.149698-2.4638906 5.702124-5.5 5.705769zm0-128.00769222c-2.50820105.00273467-4.5408422 2.11142219-4.54347825 4.71346154v117.58846168c.00000005 2.603173 2.03418454 4.713461 4.54347825 4.713461 2.5092937 0 4.5434782-2.110288 4.5434783-4.713461v-117.58846168c-.0026361-2.60203935-2.0352772-4.71072687-4.5434783-4.71346154z"/><path d="m5.66837431 48.205856h-.54054054c-2.46289146 0-4.45945946-2.4415658-4.45945946-5.4533899v-28.0932203c0-3.011824 1.996568-5.45338983 4.45945946-5.45338983h.54054054zm-1.08108109-37.6250848c-1.63593636.3242665-2.83797536 2.051809-2.83783783 4.0784746v28.0932203c-.00013753 2.0266656 1.20190147 3.7542081 2.83783783 4.0784746z"/><path d="m5.422 11.304h10v1h-10z"/><path d="m5.124 43.204h10v1h-10z"/></g></g><path d="m63.4335392-29.1423761 25.6470712-.0717944c1.6568478-.0046381 3.0037481 1.3347425 3.0083862 2.9915903.0000157.0056122.0000157.0112245-.0000001.0168367l-.4024377 143.0661315c-.0046421 1.650277-1.3413137 2.98693-2.9915902 2.99155l-25.6470711.071794c-1.6568478.004638-3.0037481-1.334742-3.0083862-2.99159-.0000157-.005612-.0000157-.011225.0000001-.016837l.4024376-143.0661316c.0046422-1.6502764 1.3413138-2.9869298 2.9915902-2.9915495z" fill="#ffd214" transform="matrix(.3583679493 -.93358042713 .93358042713 .3583679493 80.59345810823 305.80536828071)"/><g fill="#463e3b" transform="matrix(.3583679493 -.93358042713 .93358042713 .3583679493 74.83827775529 239.31190996496)"><path d="m27.459136 0h-4.7189655c2.4990684 0 4.5249636 2.07835373 4.5249636 4.64213299v140.79164401c0 2.563779-2.0258952 4.642133-4.5249636 4.642133h4.7189655c2.4990684 0 4.5249636-2.078354 4.5249636-4.642133v-140.79164401c0-2.56377926-2.0258952-4.64213299-4.5249636-4.64213299z" opacity=".4"/><path d="m27.459136 0h-22.9341724c-2.49906839 0-4.5249636 2.07835373-4.5249636 4.64213299v5.37906491c0-2.5637793 2.02589521-4.64213303 4.5249636-4.64213303h22.9289291c1.2010032-.00142769 2.3532929.48702242 3.2030225 1.35774602.8497297.8707236 1.3271852 2.0522842 1.3271844 3.28438701v-5.37906491c0-2.56377926-2.0258952-4.64213299-4.5249636-4.64213299z" opacity=".2"/><path d="m26.216 11.296h5.244v1.614h-5.244z"/><path d="m26.216 15.599h5.244v1.614h-5.244z"/><path d="m26.216 19.903h5.244v1.613h-5.244z"/><path d="m20.973 24.206h10.487v1.614h-10.487z"/><path d="m26.741 27.509h5.243v1.613h-5.243z"/><path d="m26.741 31.812h5.243v1.614h-5.243z"/><path d="m26.741 36.115h5.243v1.614h-5.243z"/><path d="m21.498 40.418h10.486v1.614h-10.486z"/><path d="m27.265 43.726h5.243v1.614h-5.243z"/><path d="m27.265 48.03h5.243v1.613h-5.243z"/><path d="m27.265 52.333h5.243v1.614h-5.243z"/><path d="m22.022 56.636h10.486v1.614h-10.486z"/><path d="m26.741 59.939h5.243v1.614h-5.243z"/><path d="m26.741 64.242h5.243v1.614h-5.243z"/><path d="m26.741 68.545h5.243v1.614h-5.243z"/><path d="m21.498 72.849h10.486v1.613h-10.486z"/><path d="m26.741 76.151h5.243v1.614h-5.243z"/><path d="m26.741 80.455h5.243v1.613h-5.243z"/><path d="m26.741 84.758h5.243v1.614h-5.243z"/><path d="m21.498 89.061h10.486v1.614h-10.486z"/><path d="m27.265 92.364h5.243v1.614h-5.243z"/><path d="m27.265 96.667h5.243v1.614h-5.243z"/><path d="m27.265 100.97h5.243v1.614h-5.243z"/><path d="m22.022 105.274h10.486v1.613h-10.486z"/><path d="m27.265 108.582h5.243v1.614h-5.243z"/><path d="m27.265 112.885h5.243v1.614h-5.243z"/><path d="m27.265 117.188h5.243v1.614h-5.243z"/><path d="m22.022 121.492h10.486v1.613h-10.486z"/><path d="m27.265 124.794h5.243v1.614h-5.243z"/><path d="m27.265 129.098h5.243v1.613h-5.243z"/><path d="m27.265 133.401h5.243v1.614h-5.243z"/><path d="m22.022 137.704h10.486v1.614h-10.486z"/></g><path d="m73.123-21.793 1.056-.003-.417 148.038-1.055.003z" fill="#655307" transform="matrix(.3583679493 -.93358042713 .93358042713 .3583679493 72.74029734977 307.85311109906)"/><path d="m69.972-15.454 2.111-.006-.413 146.988-2.111.006z" fill="#ffd214" transform="matrix(.3583679493 -.93358042713 .93358042713 .3583679493 65.83550382401 309.22303646513)"/><path d="m71.021-16.511 2.111-.005-.414 146.987-2.111.006z" fill="#ffd214" transform="matrix(.3583679493 -.93358042713 .93358042713 .3583679493 67.45784188148 309.4881912044)"/><path d="m71.021-17.567 2.111-.006-.414 146.987-2.111.006z" fill="#ffd214" transform="matrix(.3583679493 -.93358042713 .93358042713 .3583679493 68.40684881645 308.81127097339)"/><ellipse cx="138.498" cy="71.479" fill="#1e1169" rx="2.639" ry="2.625" transform="matrix(.3583679493 -.93358042713 .93358042713 .3583679493 97.13794018113 378.65969525312)"/><path d="m138.983794 74.9472138c-1.737475 0-3.145977-1.4195339-3.145977-3.1706178s1.408502-3.1706178 3.145977-3.1706178 3.145977 1.4195339 3.145977 3.1706178-1.408502 3.1706178-3.145977 3.1706178zm0-4.7559267c-.868737 0-1.572988.709767-1.572988 1.5853089s.704251 1.5853089 1.572988 1.5853089c.868738 0 1.572989-.709767 1.572989-1.5853089s-.704251-1.5853089-1.572989-1.5853089z" fill="#463e3b" transform="matrix(.3583679493 -.93358042713 .93358042713 .3583679493 97.18167014272 379.28747852995)"/><circle cx="13.73" cy="19.638" fill="#1e1169" r="2.5" transform="matrix(.3583679493 -.93358042713 .93358042713 .3583679493 63.74731477621 233.30180581274)"/><path d="m14.1933727 23.1604561c-1.7374751 0-3.145977-1.4195339-3.145977-3.1706178 0-1.7510838 1.4085019-3.1706178 3.145977-3.1706178s3.145977 1.419534 3.145977 3.1706178c0 1.7510839-1.4085019 3.1706178-3.145977 3.1706178zm0-4.7559267c-.8687375 0-1.5729885.709767-1.5729885 1.5853089 0 .875542.704251 1.5853089 1.5729885 1.5853089.8687376 0 1.5729885-.7097669 1.5729885-1.5853089 0-.8755419-.7042509-1.5853089-1.5729885-1.5853089z" fill="#463e3b" transform="matrix(.3583679493 -.93358042713 .93358042713 .3583679493 63.72777289035 233.94353474076)"/><path d="m88.8834375 121.102555h-24.766875c-2.5484434-.002945-4.6136349-2.08063-4.6165625-4.644489v-141.4297721c.0029276-2.5638595 2.0681191-4.6415438 4.6165625-4.6444891h24.7721875c2.5463685.0058875 4.6083299 2.082712 4.61125 4.6444891v141.4297721c-.0029276 2.563859-2.0681191 4.641544-4.6165625 4.644489zm-24.9648383-149.1116802c-1.6371892 0-2.9643932 1.3648968-2.9643932 3.0485823v141.7778309c0 1.683685 1.327204 3.048582 2.9643932 3.048582h24.293436c.7862059 0 1.5402109-.321189 2.0961424-.892909.5559316-.57172.8682507-1.347139.8682507-2.155673v-141.7778309c.0000012-.8094634-.313033-1.5856953-.8700918-2.1575697-.5570589-.5718743-1.312403-.8924352-2.0995112-.8910126z" fill="#655307" transform="matrix(.3583679493 -.93358042713 .93358042713 .3583679493 80.52425552395 306.44590961882)"/><g fill="#000"><path d="m45.5513055 40.0175782c-.606713-1.9410364-.9293853-3.952959-.9590415-5.9798058-.0659599-1.6407401.1890675-3.280597.75225-4.8370585.5832517-1.5933116 1.7077773-2.96151 3.1973411-3.8901709l.2845336.4327175c-1.3858901.8696942-2.4304407 2.1478829-2.9701774 3.6345271-.5420504 1.5025129-.7859683 3.0853978-.7194271 4.6686613.0366489 1.9740551.3576357 3.9326583.9540949 5.8217145z" opacity=".1" transform="matrix(.3583679493 -.93358042713 .93358042713 .3583679493 73.17818593604 271.2848745076)"/><path d="m45.7250026 56.9277939c-.3887891.0021469-.7769647-.0265223-1.1608869-.0857387l.0851585-.5236944c4.0660155.5104891 7.8668763-2.1703452 8.7624627-6.1803661.2174198-1.3445749.2000401-2.7154178-.051364-4.0514066-.3129954-2.4345456-1.1834833-4.7608256-2.543723-6.7978108-1.3658507-2.0281723-3.484372-3.4251807-5.8888595-3.8832679l.0851585-.5236944c2.5437032.4797859 4.7864638 1.9538331 6.2334585 4.0969205 1.4088473 2.1067272 2.3096677 4.5138833 2.6319761 7.0331191.2621291 1.3947758.2793405 2.8259426.0508633 4.2293831-.7272066 3.7866228-4.4017813 6.6759149-8.2042442 6.6865562z" opacity=".1" transform="matrix(.3583679493 -.93358042713 .93358042713 .3583679493 62.95951352106 282.12900004636)"/><path d="m45.5970434 54.8231856-.143175-.5508619c2.3774705-.557916 4.0726419-2.9441145 3.7778611-5.3357694-.4074539-2.3594717-2.1771013-4.3271919-4.6287755-5.1468643l.2185316-.5132858c2.6582644.8927027 4.5733589 3.0314937 5.007425 5.5923274.3241409 2.6727166-1.5708044 5.3351055-4.2318672 5.954454z" opacity=".1" transform="matrix(.3583679493 -.93358042713 .93358042713 .3583679493 58.79214235227 282.26497604891)"/><path d="m92.9108268 85.4181886c-.3967227.001644-.7914329-.0529592-1.1727906-.1622409l.1429217-.534345c1.2551749.3213138 2.5887623.044664 3.6266125-.7523329 2.6239389-1.806738 4.6312856-5.9931455 5.1263806-10.6932476.22433-2.4992321.210355-5.0133971-.04173-7.5071509-.425728-5.0606078-1.2885186-9.2923776-2.583479-12.5725158-1.5132183-3.8935641-3.648112-6.4985809-5.8880518-7.1383859l.1429217-.5343451c2.3864616.68745 4.6572214 3.4042151 6.2328419 7.4577881 1.2895875 3.3282083 2.1627182 7.6080042 2.5830592 12.7220216.255443 2.5274677.269323 5.0756319.041443 7.6086012-.537296 4.8070093-2.6184527 9.1644857-5.3578626 11.0569782-.8280711.6319883-1.8215949.9974452-2.8522666 1.049175z" opacity=".1" transform="matrix(.3583679493 -.93358042713 .93358042713 .3583679493 75.62284480268 337.07397328819)"/><path d="m92.8718614 78.0413693-.2428205-.4951646c2.3436102-.9710027 4.0834692-5.4112244 3.7917549-9.6986422-.2687317-3.9877961-2.1225769-7.7259586-4.6198367-9.3045812l.3407766-.4477583c2.6815887 1.6925324 4.5947839 5.5068125 4.8748 9.7179793.3087865 4.5707095-1.5506161 9.1583844-4.1446743 10.228167z" opacity=".1" transform="matrix(.3583679493 -.93358042713 .93358042713 .3583679493 71.9521800164 336.86650026548)"/><path d="m81.9526637 46.3158915c-2.5450614-.4802097-4.7890184-1.9555534-6.2367838-4.1005241-1.4095977-2.1085785-2.3108969-4.5178493-2.6333751-7.0392976-.2624808-1.3959785-.2797005-2.8284392-.0508863-4.2330971.9569288-4.2872427 5.0194526-7.1532009 9.3649062-6.6065902l-.0852044.5241542c-4.0702786-.5171624-7.8789468 2.1646364-8.7776004 6.1805748-.2176434 1.3457482-.2002555 2.7178133.0513876 4.0549643.3129761 2.4367305 1.1839419 4.7650948 2.545075 6.8037827 1.3665783 2.0299546 3.4862297 3.4281917 5.892001 3.8866836z" opacity=".1" transform="matrix(.3583679493 -.93358042713 .93358042713 .3583679493 90.64239158454 300.76632486378)"/><path d="m82.133411 37.9212841c-2.6636786-.8969808-4.578272-3.0471798-5.001718-5.6172185-.3238189-2.6549119 1.5750282-5.316044 4.2330905-5.9295823l.1430133.5505994c-2.3748035.5576456-4.0680769 2.9427026-3.7736313 5.3332169.4069924 2.3583468 2.1746504 4.3251314 4.6235718 5.1444171z" opacity=".1" transform="matrix(.3583679493 -.93358042713 .93358042713 .3583679493 94.81040348989 300.631247047)"/><path d="m130.044796 73.7533289c-3.436471-.5187815-6.723791-2.6601643-9.017493-5.8452731-1.898973-2.6366789-3.196066-6.0253682-3.827286-10.0711353-.379781-1.9934404-.40483-4.0388256-.074027-6.0446733 1.157357-5.9477237 7.477961-10.3458368 13.526505-9.4063623l-.087168.5286425c-5.775584-.8873985-11.790369 3.3037834-12.920192 8.9819467-.319593 1.9464185-.294374 3.9309288.074532 5.8650163.626089 3.9665217 1.880549 7.2813545 3.720809 9.8495059 2.213703 3.0690849 5.372754 5.1209989 8.670024 5.6296021z" opacity=".1" transform="matrix(.3583679493 -.93358042713 .93358042713 .3583679493 99.80744741126 356.79101590747)"/><path d="m130.410614 61.1603265c-3.28345-1.3027458-5.708921-4.3803432-6.084587-7.6564511-.39029-3.6241313 1.908412-7.250433 5.125073-8.0894344l.123322.5351384c-2.972025.7740588-5.093164 4.1428315-4.733358 7.5100159.334598 3.0834488 2.646141 5.9846555 5.752948 7.2182828z" opacity=".1" transform="matrix(.3583679493 -.93358042713 .93358042713 .3583679493 106.3970300157 357.05879589598)"/></g><path d="m72.062-16.528 2.111-.006-.399 141.738-2.111.006z" fill="#655307" transform="matrix(.3583679493 -.93358042713 .93358042713 .3583679493 70.50394928971 308.73642662248)"/><path d="m91.3756898 68.5044703c-1.1626962-1.4014029-2.617457-3.1410436-3.2899866-5.1842557-.443133-1.6122646-.6432265-3.2819693-.5937956-4.9550008.0026198-.9310633-.0380949-1.8889146-.149442-2.8142772-.69425-5.2757469-4.2091399-9.7523769-9.1916504-11.7066593l.1967541-.5010605c5.1712495 2.0244013 8.8208283 6.6677136 9.5431315 12.1416037.1112714.9522719.1302356 1.9263295.1492906 2.8680959-.0468646 1.6201367.1460307 3.2369997.5725297 4.7989872.6402445 1.9464296 2.0571274 3.6485035 3.1927982 5.0123093z" fill="#000" opacity=".1" transform="matrix(.3583679493 -.93358042713 .93358042713 .3583679493 76.80937740312 320.59118096942)"/><path d="m26.3588315 44.1964004c-1.1626961-1.401403-2.6174569-3.1410437-3.2899865-5.1842557-.4431331-1.6122646-.6432265-3.2819693-.5937956-4.9550008.0026198-.9310633-.0380949-1.8889146-.149442-2.8142772-.69425-5.2757469-4.2091399-9.7523769-9.1916504-11.7066593l.1967541-.5010605c5.1712494 2.0244013 8.8208283 6.6677136 9.5431315 12.1416036.1112714.952272.1302355 1.9263296.1492906 2.8680959-.0468646 1.6201367.1460307 3.2369998.5725296 4.7989873.6402446 1.9464296 2.0571275 3.6485035 3.1927982 5.0123093z" fill="#000" opacity=".1" transform="matrix(.3583679493 -.93358042713 .93358042713 .3583679493 56.97712795655 246.57965849783)"/><path d="m37.8940806 30.4570565c-1.1626962-1.4014029-2.617457-3.1410436-3.2899866-5.1842557-.443133-1.6122646-.6432265-3.2819693-.5937956-4.9550007.0026198-.9310634-.0380949-1.8889146-.1494419-2.8142773-.6942501-5.2757468-4.20914-9.7523769-9.1916505-11.70665925l.1967541-.50106051c5.1712495 2.02440128 8.8208283 6.66771356 9.5431316 12.14160366.1112713.9522719.1302355 1.9263295.1492905 2.8680959-.0468646 1.6201367.1460307 3.2369997.5725297 4.7989872.6402445 1.9464296 2.0571274 3.6485035 3.1927982 5.0123093z" fill="#000" opacity=".1" transform="matrix(.3583679493 -.93358042713 .93358042713 .3583679493 76.71920376317 248.1382884077)"/><path d="m135.712867 90.702074-.530613-.1135793c.419207-1.8055903-.350735-3.6601547-1.099735-5.4101738-.195137-.4649412-.390288-.9246522-.564202-1.3844226-.557621-1.586103-1.005384-3.2081786-1.340217-4.8551001-.713244-3.1361207-1.389749-6.1206686-3.464706-8.3586153-1.497944-1.6328588-3.608143-2.6677621-5.469332-3.5150752l.224333-.4765755c1.908914.8681003 4.077427 1.9342216 5.644172 3.6453408 2.170173 2.3632048 2.893918 5.5411377 3.591396 8.6197704.329661 1.6237609.770387 3.2231218 1.31917 4.7871665.173929.4545402.363786.9090358.558952 1.3635166.785959 1.8231383 1.59292 3.7299011 1.130782 5.6977475z" fill="#000" opacity=".1" transform="matrix(.3583679493 -.93358042713 .93358042713 .3583679493 84.9595554982 375.20827326265)"/><g transform="matrix(.9998477 -.01745241 .01745241 .9998477 336.594353 85.380547)"><ellipse cx="9.977" cy="174.916" fill="#fff" rx="1.238" ry="1.248" transform="matrix(.99995393 -.00959916 .00959916 .99995393 -1.678588 .10383)"/><ellipse cx="10.013" cy="178.667" fill="#fff" rx="1.238" ry="1.248" transform="matrix(.99995393 -.00959916 .00959916 .99995393 -1.714592 .104348)"/><ellipse cx="10.049" cy="182.418" fill="#fff" rx="1.238" ry="1.248" transform="matrix(.99995393 -.00959916 .00959916 .99995393 -1.750597 .104867)"/><ellipse cx="6.493" cy="170.522" fill="#fff" rx="1.238" ry="1.248" transform="matrix(.99995393 -.00959916 .00959916 .99995393 -1.636569 .070184)"/><ellipse cx="6.52" cy="174.273" fill="#fff" rx="1.238" ry="1.248" transform="matrix(.99995393 -.00959916 .00959916 .99995393 -1.672575 .070616)"/><ellipse cx="6.556" cy="178.024" fill="#fff" rx="1.238" ry="1.248" transform="matrix(.99995393 -.00959916 .00959916 .99995393 -1.708579 .071134)"/><ellipse cx="14.369" cy="181.304" fill="#fff" rx="1.238" ry="1.248" transform="matrix(.99995393 -.00959916 .00959916 .99995393 -1.739705 .146293)"/><ellipse cx="14.405" cy="185.055" fill="#fff" rx="1.238" ry="1.248" transform="matrix(.99995393 -.00959916 .00959916 .99995393 -1.77571 .146802)"/><path d="m31 227v26.249679c0 12.564655 9.8203581 22.750321 21.9343838 22.750321h147.1312322c12.114026 0 21.934384-10.185666 21.934384-22.750321v-26.249679" fill="#32adaa"/><path d="m201.26639 277h-147.5240833c-13.1051464-.009955-23.7279195-11.037299-23.7423067-24.646538v-26.353462h3.4787263v26.353462c.0143739 11.610569 9.0743795 21.019074 20.2548835 21.034h147.5327802c11.180504-.014926 20.24051-9.423431 20.254884-21.034v-26.353462h3.478726v26.353462c-.014379 13.605717-10.63186 24.631606-23.73361 24.646538z" fill="#264575"/><path d="m216 140h6.487601c15.194678 0 27.512399 12.049077 27.512399 26.912367l-1.561786 18.730647-32.438214 7.356986" fill="#32adaa"/><path d="m237 188.744806v24.810924c0 10.738774-8.523219 19.44427-19.037143 19.44427h-1.962857v-67zm-208.4876011-48.744806c-15.1946784 0-27.5123989 12.218039-27.5123989 27.289755l.57122814 18.323811 11.70285176 3.886528v24.948117c0 10.798155 8.8250507 19.551789 19.7113025 19.551789h2.0146176v-94z" fill="#32adaa"/><path d="m22.1490473 215.448211v-24.948117l-12.27407981-2.394456v-19.815883c.00141219-14.152848 10.91053811-25.956015 25.12503251-27.184117v-.105638h-6.4876011c-15.1946783 0-27.51239874 12.218039-27.51239874 27.289755v15.115002c-.00064288 2.731589 1.96527949 4.101326 4.66759171 4.627441l7.62183203 1.588842-.0012048 25.065789c0 10.798155 8.8229367 19.871688 19.7091884 19.871688l2.0025925.441483v-1.214834c-7.7260519-2.847834-12.8515591-10.161392-12.8509527-18.336955zm206.7129407-.006971v-24.945782l12.267675-2.394231v-19.814028c-.001411-14.151523-10.904845-25.953584-25.111922-27.181571v-.105628h6.484216c15.18675 0 27.498043 12.216895 27.498043 27.287199v13.326716c-.011075 3.769327-2.665056 5.720338-6.39019 6.457438l-5.845551 1.144301-.031934 26.234388c0 10.797144-8.814604 19.215238-19.695175 19.215238l-2.03715.33472v-1.21472c7.732054-2.842886 12.863552-10.161537 12.861988-18.34404z" fill="#0fcbc9"/><path d="m163 30h-7.958339c-28.987325-26.03821961-54.698205 0-54.698205 0h-7.343456s32.922575-67.5 70 0z" fill="#0fdad7"/><path d="m155.041661 26.6138135c-28.987325-23.88108036-54.698205 0-54.698205 0h-5.3231272c-1.3176057 2.0571083-2.0203288 3.3861865-2.0203288 3.3861865h7.343456s25.719664-23.88108035 54.698205 0h7.958339c-.702723-1.1766998-1.405446-2.2941414-2.108169-3.3861865z" fill="#0fcbc9"/><path d="m160.364789 30h2.635211c-37.077425-67.5-70 0-70 0h2.5649391c8.2218599-13.5959934 34.9165519-49.5566115 64.7998499 0z" fill="#6ef9f2"/><path d="m217 105-.00001 117.004981c.007735 11.40276-4.481301 22.340436-12.477365 30.401489-7.988708 8.065953-18.829668 12.596676-30.133357 12.593525h-95.7611668c-11.3066989.005478-22.1512099-4.525422-30.1420459-12.593525-7.9971191-8.05747-12.4891779-18.991743-12.4860537-30.392725l-.0000016-117.013745" fill="#0fdad7"/><path d="m204.732557 41c9.342594 15.7891926 14.267879 33.7655832 14.267443 52.0735651v12.9264349h-185v-12.9264349c.0129473-18.3120209 4.9535461-36.2886848 14.3115873-52.0735651" fill="#0fdad7"/><path d="m74 267c-4.4983279-.341209-8.9138687-1.401914-13.0804447-3.142197-15.9782511-6.67151-26.3968575-22.366561-26.4050578-39.777751v-115.980409h-.5144975v-12.9549778c.0035326-18.3340293 4.8682462-36.3349429 14.0919991-52.1446652h15.1820362l-.5406584 1.0971357c-10.9284045 24.3812359-16.5763652 50.8242612-16.5685633 77.5718823v46.465891c-.0042717 34.914662 9.6327487 69.143458 27.8351864 98.865091zm103.339558-.821936c4.498328-.341209 8.649503-1.510468 12.816079-3.250751 15.978251-6.67151 26.321665-21.436071 26.329866-38.847261v-115.980409h.514497v-12.9549778c-.003533-18.3340293-4.868246-36.3349429-14.091999-52.1446652h-15.182036l.514497 1.1410211c10.928405 24.3812359 16.576365 50.8242613 16.568564 77.5718819v46.465891c.004056 34.897216-9.283991 68.28761-27.469468 97.99927z" fill="#0fcbc9"/><path d="m203 46.3240204-3.571351 3.9520281c-19.389247 21.473678-46.931046 33.7239515-75.820207 33.7239515-28.8891608 0-56.4309592-12.2502735-75.8202067-33.7239515l-2.7882353-3.0718821c1.044154-2.1054473 2.1600218-4.1735028 3.3476035-6.2041664h151.7522875c1.021206 1.7487868 1.987909 3.5234603 2.900109 5.3240204z" fill="#0fcbc9"/><path d="m34.5023697 194-30.13719135-5.939394c-2.53252111-.500575-4.35986367-2.723265-4.36517835-5.309591v-16.322399c.01924125-15.692699 12.7112969-28.409337 28.3736593-28.428616h6.3818907v2.62418h-6.3818907c-14.2178623.014465-25.74011546 11.559035-25.75455229 25.804436v16.322399c.00306099 1.331051.94121977 2.475847 2.24370167 2.737895l30.13719132 5.939394z" fill="#264575"/><path d="m35 235h-1.9222479c-11.0828336-.01429-20.0637557-9.183442-20.0777521-20.498559l.0082283-24.972841 2.5321874.4714v24.501441c.0093363 9.884652 7.8556028 17.895367 17.5373364 17.904899h1.9222479zm181.506234-41-.506234-2.571696 28.38404-5.598251c2.319024-.458768 3.992316-2.494544 3.997506-4.86348v-14.537957c-.014433-14.245401-11.533813-25.789971-25.74813-25.804436h-6.380299v-2.62418h6.380299c15.658457.019279 28.347348 12.735917 28.366584 28.428616v14.537957c-.005861 3.623576-2.563084 6.739228-6.109726 7.443924z" fill="#264575"/><path d="m217.922248 235-3.125695-.054559.678349-2.58182 2.447346.042719c9.681733-.009532 17.528-8.020247 17.537336-17.904899v-24.501441l2.548617-.469806-.008201 24.971247c-.013996 11.315117-8.994919 20.484269-20.077752 20.498559zm-53.922248-204h-74l.9782814-1.9025725c2.7526963-5.0963488 6.0566938-9.8755545 9.8526916-14.2518386 8.23678-9.48668015 17.189801-14.60966196 25.854579-14.83657427 12.708924-.34909587 24.858829 9.44304313 36.161473 29.01859377zm-69.6326723-2.618219h65.0731823c-10.437913-17.3675192-21.399906-26.02509668-32.658876-25.75454739-16.263929.41018764-28.7806897 19.55809579-32.4143063 25.75454739z" fill="#264575"/><path d="m150.301182 31c-11.55196-9.7577983-23.88799-12.7324223-36.668326-8.8464973-5.84038 1.7997756-11.231029 4.7935558-15.8207838 8.786317l-1.8120722-1.8569906c.2613566-.2493182 26.710641-24.7770703 56-.0515831zm69.698818 76h-187v-14.5399456c.0054579-18.4437166 4.9760062-36.5524261 14.3994379-52.4600544l3.0217799 1.735077c-9.1082367 15.3763682-13.9124827 32.8801098-13.9177049 50.7076266v11.0697914h179.9929741v-11.0524406c-.011449-17.8157427-4.815477-35.3067126-13.917705-50.672925l3.02178-1.7350771c9.423432 15.9076284 14.39398 34.0163378 14.399438 52.4600544z" fill="#264575"/><path d="m172.29689 267h-96.5937797c-24.6888461 0-44.7031103-19.921909-44.7031103-44.49683v-116.50317h3.5061263v116.50317c0 22.647476 18.444518 41.006883 41.196984 41.006883h96.5937797c22.752466 0 41.196984-18.359407 41.196984-41.006883v-116.50317h3.506126v116.50317c0 24.574921-20.014264 44.49683-44.70311 44.49683zm51.304261-93.319734 19.165437-23.025363c.777901-.932099-.572741-2.275665-1.359191-1.335169l-19.173985 23.025363c-.777901.932099.572741 2.275665 1.359191 1.335169zm6.976321-12.035099 11.184118-14.787047c.783225-1.04001-.547415-2.552751-1.339062-1.503287l-11.184118 14.787047c-.783225 1.04001.547415 2.552751 1.339062 1.503287z" fill="#264575"/><path d="m178.530201 189h-109.0604023c-5.7823102 0-10.4697987 4.645123-10.4697987 10.375174v1.928053c1.6575059-3.791666 5.4274864-6.247176 9.5973154-6.251042h109.0604026c5.78231 0 10.469799 4.645123 10.469799 10.375173v39.572642c.575315-1.300187.872393-2.704442.872483-4.124132v-41.500694c0-2.751667-1.103065-5.390633-3.066533-7.336356-1.963468-1.945722-4.626502-3.038818-7.403266-3.038818z" fill="#6ef9f2"/><path d="m178.966443 242.608833h-109.0604027c-5.7823102 0-10.4697987-4.745499-10.4697987-10.599369v-37.009464c-.2882991.974383-.4352475 1.985998-.4362416 3.003155v42.397476c0 5.85387 4.6874885 10.599369 10.4697987 10.599369h109.0604023c5.78231 0 10.469799-4.745499 10.469799-10.599369v-5.388013c-1.313847 4.502125-5.396448 7.592984-10.033557 7.596215z" fill="#0fcbc9"/><rect fill="#fff" height="18" opacity=".35" rx="6" width="12" x="173" y="207"/><path d="m181.1875 253h-109.375c-6.5198674-.009693-11.8028623-5.322876-11.8125-11.88v-42.24c.0096377-6.557124 5.2926326-11.870307 11.8125-11.88h109.375c6.519867.009693 11.802862 5.322876 11.8125 11.88v42.24c-.009638 6.557124-5.292633 11.870307-11.8125 11.88zm-109.375-63.36c-5.0721168.004851-9.1826763 4.1389-9.1875 9.24v42.24c.0048237 5.1011 4.1153832 9.235149 9.1875 9.24h109.375c5.072117-.004851 9.182676-4.1389 9.1875-9.24v-42.24c-.004824-5.1011-4.115383-9.235149-9.1875-9.24z" fill="#264575"/><path d="m79.2593559 205-3.9573011 10.958909c-.4815034 1.329053-.3825977 2.86718.2627978 4.086887.6453955 1.219708 1.7495424 1.955184 2.9337794 1.954199 1.093776.001953 2.1252672-.624995 2.7875525-1.694295.6622852-1.0693.8790362-2.457716.5857585-3.752122z" fill="#fff"/><path d="m81.8024431 215c-.4861175 1.20985-1.8154208 2.02234-3.3099041 2.023063-1.4811993.008137-2.807491-.784028-3.3099041-1.976935-.3587351.913441-.1827572 1.918825.4729682 2.702126.6557253.783301 1.7112682 1.249039 2.8369359 1.251743 1.0956794.001363 2.1289656-.436328 2.7924033-1.182838.6634377-.746509.8805659-1.715803.5867778-2.619466z" fill="#e8efef"/><path d="m176 203h-3.508772v-2h3.508772zm-7.894737 0h-4.385965v-2h4.385965zm-8.77193 0h-4.385965v-2h4.385965zm-8.771929 0h-4.385965v-2h4.385965zm-8.77193 0h-4.385965v-2h4.385965zm-8.77193 0h-4.385965v-2h4.385965zm-8.77193 0h-4.385965v-2h4.385965zm-8.77193 0h-4.385965v-2h4.385965zm-8.77193 0h-4.385965v-2h4.385965zm-8.7719294 0h-4.385965v-2h4.385965zm-8.7719299 0h-4.3859649v-2h4.3859649zm-8.7719298 0h-4.3859649v-2h4.3859649z" fill="#264575"/><path d="m136 89v98h23v-98" fill="#db9464"/><path d="m161 110v78h-6z" fill="#e4ae88"/><path d="m136 90v4h23v-4" fill="#c68254"/><path d="m163 187h-28v-99h2.703v96.383h22.594v-96.383h2.703z" fill="#264575"/><path d="m133 87h32v1h-32z" fill="#6ef9f2"/><path d="m140 178h-1v-4.408602h1zm0-9.698925h-1v-4.408602h1zm0-9.698924h-1v-4.408603h1zm0-9.698925h-1v-4.408602h1zm0-9.698925h-1v-4.408602h1zm0-9.698925h-1v-4.408602h1zm0-9.698924h-1v-4.408603h1zm0-9.698925h-1v-4.408602h1zm0-9.698925h-1v-4.408602h1zm18 77.591398h-1v-4.408602h1zm0-9.698925h-1v-4.408602h1zm0-9.698924h-1v-4.408603h1zm0-9.698925h-1v-4.408602h1zm0-9.698925h-1v-4.408602h1zm0-9.698925h-1v-4.408602h1zm0-9.698924h-1v-4.408603h1zm0-9.698925h-1v-4.408602h1zm0-9.698925h-1v-4.408602h1z" fill="#bc754d"/><path d="m144 171h1v17h-1z" fill="#264575"/><path d="m148 164h1v17h-1z" fill="#264575"/><path d="m133 87h32v2h-32z" fill="#264575"/><circle cx="149" cy="151" fill="#264575" r="2"/><circle cx="149" cy="139" fill="#264575" r="2"/><circle cx="149" cy="128" fill="#264575" r="2"/><path d="m164 114.391425v16.286307c0 2.221646-.832571 4.080221-3.038 4.322268.248-.535961-.504857-1.132434-.504857-1.728907v-14.5574c-.00971-2.42138-2.018496-4.381948-4.499429-4.391425h-14.915428c-2.480933.009477-4.489719 1.970045-4.499429 4.391425v14.5574c.0017.595953.131445 1.184934.380857 1.728907-2.23107-.280865-3.90677-2.126776-3.923714-4.322268v-16.286307c.00971-2.421381 2.018496-4.381948 4.499429-4.391425h22.001142c2.480933.009477 4.489719 1.970044 4.499429 4.391425z" fill="#fff"/><path d="m164 114.370024v16.303219c-.016235 2.197773-1.621824 4.0456-3.759547 4.326757.238977-.544538.363294-1.13413.364922-1.730703v-14.572516c-.00406-1.753086-1.027289-3.336816-2.605375-4.032537.885016-1.461662 1.591795-3.027987 2.104668-4.664244 2.205637.221989 3.888633 2.110078 3.895332 4.370024z" fill="#e8efef"/><path d="m138.258378 137-1.53081-.205224c-2.594595-.345149-3.727568-3.535448-3.727568-6.529851v-17.593283c.004762-3.130232 2.356231-5.666506 5.258378-5.671642h21.483244c2.902147.005136 5.253616 2.54141 5.258378 5.671642v17.574627c0 3.013059-1.15027 6.203358-3.727568 6.52985l-1.53081.205224.605405-1.445895c-.051833-.371453-.135804-.736854-.250811-1.091418-.156151-.455913-.252222-.933202-.285405-1.417911v-15.690298c0-2.101979-1.57983-3.80597-3.528649-3.80597h-14.555676c-1.948818 0-3.528648 1.703991-3.528648 3.80597v15.708955c-.033183.484708-.129255.961998-.285406 1.417911-.115007.354563-.198977.719965-.25081 1.091417zm3.476757-25.363806h14.564324c2.902148.005136 5.253617 2.54141 5.258379 5.671642v15.708955c.050405.294961.12271.585074.216216.867537.060541.214553.121081.419776.172973.625.916757-.802238 1.340541-2.630597 1.340541-4.291044v-17.546642c0-1.009406-.371768-1.97747-1.033518-2.691228-.66175-.713757-1.559275-1.114742-2.495131-1.114742h-21.491892c-.935856 0-1.833381.400985-2.495131 1.114742-.66175.713758-1.033518 1.681822-1.033518 2.691228v17.574627c0 1.669776.423784 3.488806 1.340541 4.291044.051892-.205223.112432-.410447.172973-.625.093506-.282463.165811-.572576.216216-.867537v-15.708955c.004762-3.130232 2.356231-5.666506 5.258378-5.671642z" fill="#264575"/><path d="m149 117.630435v-18.2608698c0-.75639-.447715-1.3695652-1-1.3695652s-1 .6131752-1 1.3695652v18.2608698c0 .75639.447715 1.369565 1 1.369565s1-.613175 1-1.369565z" fill="#264575"/><path d="m82 89v98h23v-98" fill="#db9464"/><path d="m105 110v78h-6z" fill="#e4ae88"/><path d="m82 90v4h23v-4" fill="#c68254"/><path d="m109 187h-28v-99h2.703v96.383h22.594v-96.383h2.703z" fill="#264575"/><path d="m77 87h32v1h-32z" fill="#6ef9f2"/><path d="m86 178h-1v-4.408602h1zm0-9.698925h-1v-4.408602h1zm0-9.698924h-1v-4.408603h1zm0-9.698925h-1v-4.408602h1zm0-9.698925h-1v-4.408602h1zm0-9.698925h-1v-4.408602h1zm0-9.698924h-1v-4.408603h1zm0-9.698925h-1v-4.408602h1zm0-9.698925h-1v-4.408602h1zm17 77.591398h-1v-4.408602h1zm0-9.698925h-1v-4.408602h1zm0-9.698924h-1v-4.408603h1zm0-9.698925h-1v-4.408602h1zm0-9.698925h-1v-4.408602h1zm0-9.698925h-1v-4.408602h1zm0-9.698924h-1v-4.408603h1zm0-9.698925h-1v-4.408602h1zm0-9.698925h-1v-4.408602h1z" fill="#bc754d"/><path d="m89 171h1v17h-1z" fill="#264575"/><path d="m93 164h1v17h-1z" fill="#264575"/><path d="m77 87h32v2h-32z" fill="#264575"/><circle cx="95" cy="151" fill="#264575" r="2"/><circle cx="95" cy="139" fill="#264575" r="2"/><circle cx="95" cy="128" fill="#264575" r="2"/><path d="m107 114.391425v16.286307c0 2.221646-.832571 4.080221-3.038 4.322268.248-.535961-.504857-1.132434-.504857-1.728907v-14.5574c-.00971-2.42138-2.018496-4.381948-4.4994287-4.391425h-14.9154286c-2.4809325.009477-4.4897183 1.970045-4.4994286 4.391425v14.5574c.0016995.595953.1314447 1.184934.3808572 1.728907-2.2310705-.280865-3.9067708-2.126776-3.9237143-4.322268v-16.286307c.0097102-2.421381 2.018496-4.381948 4.4994286-4.391425h22.0011424c2.480933.009477 4.489719 1.970044 4.499429 4.391425z" fill="#fff"/><path d="m110 114.370024v16.303219c-.016235 2.197773-1.621824 4.0456-3.759547 4.326757.238977-.544538.363294-1.13413.364922-1.730703v-14.572516c-.00406-1.753086-1.027289-3.336816-2.605375-4.032537.885016-1.461662 1.591795-3.027987 2.104668-4.664244 2.205637.221989 3.888633 2.110078 3.895332 4.370024z" fill="#e8efef"/><path d="m82.2583784 137-1.5308108-.205224c-2.5945946-.345149-3.7275676-3.535448-3.7275676-6.529851v-17.593283c.0047615-3.130232 2.3562308-5.666506 5.2583784-5.671642h21.4832436c2.902147.005136 5.253616 2.54141 5.258378 5.671642v17.574627c0 3.013059-1.15027 6.203358-3.727568 6.52985l-1.53081.205224.605405-1.445895c-.051833-.371453-.135804-.736854-.250811-1.091418-.156151-.455913-.252222-.933202-.285405-1.417911v-15.690298c0-2.101979-1.57983-3.80597-3.528649-3.80597h-14.5556755c-1.9488188 0-3.5286487 1.703991-3.5286487 3.80597v15.708955c-.0331828.484708-.1292544.961998-.2854054 1.417911-.1150072.354563-.1989774.719965-.2508108 1.091417zm3.4767567-25.363806h14.5643239c2.902148.005136 5.253617 2.54141 5.258379 5.671642v15.708955c.050405.294961.12271.585074.216216.867537.060541.214553.121081.419776.172973.625.916757-.802238 1.340541-2.630597 1.340541-4.291044v-17.546642c0-2.101979-1.57983-3.80597-3.528649-3.80597h-21.491892c-.9358558 0-1.8333814.400985-2.4951314 1.114742-.6617499.713758-1.0335172 1.681822-1.0335172 2.691228v17.574627c0 1.669776.4237838 3.488806 1.3405405 4.291044.0518919-.205223.1124325-.410447.172973-.625.0935064-.282463.1658113-.572576.2162162-.867537v-15.708955c.0047615-3.130232 2.3562308-5.666506 5.2583784-5.671642z" fill="#264575"/><path d="m95 117.630435v-18.2608698c0-.75639-.4477153-1.3695652-1-1.3695652s-1 .6131752-1 1.3695652v18.2608698c0 .75639.4477153 1.369565 1 1.369565s1-.613175 1-1.369565zm-18.4894779 105.369556c-1.8647326.003225-3.6043121-.819174-4.6210641-2.184643-1.0167519-1.365469-1.1721553-3.087979-.4128176-4.575719l6.2328969-12.239629 4.1024154 12.906144c.4427607 1.442354.0939743 2.982532-.9441042 4.168995-1.0380785 1.186462-2.6478333 1.884781-4.3573264 1.890227zm.7630097-13.849652-3.9636865 7.790429c-.4877226.952082-.3892595 2.05528.261494 2.929826s1.764937 1.401021 2.9590013 1.39819c1.1014748.000615 2.1396909-.449482 2.8052371-1.216152.6655463-.76667.8815786-1.761392.5837147-2.687718z" fill="#264575"/><ellipse cx="43.092" cy="92.334" fill="#fff" rx="1.238" ry="1.248" transform="matrix(.99995393 -.00959916 .00959916 .99995393 -.884344 .417901)"/><ellipse cx="43.127" cy="96.085" fill="#fff" rx="1.238" ry="1.248" transform="matrix(.99995393 -.00959916 .00959916 .99995393 -.920349 .41841)"/><ellipse cx="43.163" cy="99.836" fill="#fff" rx="1.238" ry="1.248" transform="matrix(.99995393 -.00959916 .00959916 .99995393 -.956353 .418928)"/><ellipse cx="39.607" cy="87.941" fill="#fff" rx="1.238" ry="1.248" transform="matrix(.99995393 -.00959916 .00959916 .99995393 -.842326 .384246)"/><ellipse cx="39.643" cy="91.691" fill="#fff" rx="1.238" ry="1.248" transform="matrix(.99995393 -.00959916 .00959916 .99995393 -.87833 .384764)"/><ellipse cx="39.679" cy="95.442" fill="#fff" rx="1.238" ry="1.248" transform="matrix(.99995393 -.00959916 .00959916 .99995393 -.914335 .385283)"/><ellipse cx="176.441" cy="217.081" fill="#fff" rx="1.238" ry="1.248" transform="matrix(.99995393 -.00959916 .00959916 .99995393 -2.075657 1.703678)"/><ellipse cx="176.476" cy="220.831" fill="#fff" rx="1.238" ry="1.248" transform="matrix(.99995393 -.00959916 .00959916 .99995393 -2.111662 1.704196)"/><ellipse cx="176.512" cy="224.582" fill="#fff" rx="1.238" ry="1.248" transform="matrix(.99995393 -.00959916 .00959916 .99995393 -2.147667 1.704715)"/><ellipse cx="172.948" cy="212.687" fill="#fff" rx="1.238" ry="1.248" transform="matrix(.99995393 -.00959916 .00959916 .99995393 -2.033649 1.669955)"/><ellipse cx="172.983" cy="216.437" fill="#fff" rx="1.238" ry="1.248" transform="matrix(.99995393 -.00959916 .00959916 .99995393 -2.069644 1.670464)"/><ellipse cx="173.019" cy="220.188" fill="#fff" rx="1.238" ry="1.248" transform="matrix(.99995393 -.00959916 .00959916 .99995393 -2.105649 1.670992)"/><ellipse cx="239.189" cy="168.763" fill="#fff" rx="1.238" ry="1.248" transform="matrix(.99995393 -.00959916 .00959916 .99995393 -1.608963 2.303799)"/><ellipse cx="239.225" cy="172.514" fill="#fff" rx="1.238" ry="1.248" transform="matrix(.99995393 -.00959916 .00959916 .99995393 -1.644968 2.304308)"/><ellipse cx="239.261" cy="176.264" fill="#fff" rx="1.238" ry="1.248" transform="matrix(.99995393 -.00959916 .00959916 .99995393 -1.680964 2.304817)"/><ellipse cx="61.431" cy="67.972" fill="#fff" rx="1.238" ry="1.248" transform="matrix(.99995393 -.00959916 .00959916 .99995393 -.649644 .592818)"/><ellipse cx="61.458" cy="71.723" fill="#fff" rx="1.238" ry="1.248" transform="matrix(.99995393 -.00959916 .00959916 .99995393 -.685649 .59325)"/><g fill="#32adaa"><ellipse cx="201.712" cy="67.731" rx="1.238" ry="1.248" transform="matrix(.99995393 -.00959916 .00959916 .99995393 -.640858 1.939387)"/><ellipse cx="201.739" cy="71.481" rx="1.238" ry="1.248" transform="matrix(.99995393 -.00959916 .00959916 .99995393 -.676863 1.939829)"/><ellipse cx="201.775" cy="75.232" rx="1.238" ry="1.248" transform="matrix(.99995393 -.00959916 .00959916 .99995393 -.712868 1.940337)"/><ellipse cx="201.708" cy="55.432" rx="1.238" ry="1.248" transform="matrix(.99995393 -.00959916 .00959916 .99995393 -.522808 1.938782)"/><ellipse cx="201.744" cy="59.183" rx="1.238" ry="1.248" transform="matrix(.99995393 -.00959916 .00959916 .99995393 -.558812 1.9393)"/><ellipse cx="201.78" cy="62.933" rx="1.238" ry="1.248" transform="matrix(.99995393 -.00959916 .00959916 .99995393 -.594817 1.939819)"/><ellipse cx="199.967" cy="181.942" rx="1.238" ry="1.248" transform="matrix(.99995393 -.00959916 .00959916 .99995393 -1.737278 1.927899)"/><ellipse cx="200.003" cy="185.693" rx="1.238" ry="1.248" transform="matrix(.99995393 -.00959916 .00959916 .99995393 -1.773283 1.928417)"/><ellipse cx="200.039" cy="189.443" rx="1.238" ry="1.248" transform="matrix(.99995393 -.00959916 .00959916 .99995393 -1.809278 1.928935)"/><ellipse cx="196.483" cy="177.548" rx="1.238" ry="1.248" transform="matrix(.99995393 -.00959916 .00959916 .99995393 -1.69526 1.894253)"/><ellipse cx="196.519" cy="181.299" rx="1.238" ry="1.248" transform="matrix(.99995393 -.00959916 .00959916 .99995393 -1.731265 1.894771)"/><ellipse cx="196.555" cy="185.05" rx="1.238" ry="1.248" transform="matrix(.99995393 -.00959916 .00959916 .99995393 -1.767269 1.895289)"/><ellipse cx="210.426" cy="202.142" rx="1.238" ry="1.248" transform="matrix(.99995393 -.00959916 .00959916 .99995393 -1.930699 2.029227)"/><ellipse cx="210.462" cy="205.893" rx="1.238" ry="1.248" transform="matrix(.99995393 -.00959916 .00959916 .99995393 -1.966704 2.029745)"/><ellipse cx="210.497" cy="209.644" rx="1.238" ry="1.248" transform="matrix(.99995393 -.00959916 .00959916 .99995393 -2.002709 2.030254)"/><ellipse cx="206.942" cy="197.749" rx="1.238" ry="1.248" transform="matrix(.99995393 -.00959916 .00959916 .99995393 -1.888691 1.995581)"/><ellipse cx="206.977" cy="201.499" rx="1.238" ry="1.248" transform="matrix(.99995393 -.00959916 .00959916 .99995393 -1.924695 1.99609)"/><ellipse cx="207.013" cy="205.25" rx="1.238" ry="1.248" transform="matrix(.99995393 -.00959916 .00959916 .99995393 -1.960691 1.996608)"/><ellipse cx="185.157" cy="235.532" rx="1.238" ry="1.248" transform="matrix(.99995393 -.00959916 .00959916 .99995393 -2.252379 1.788204)"/><ellipse cx="185.193" cy="239.283" rx="1.238" ry="1.248" transform="matrix(.99995393 -.00959916 .00959916 .99995393 -2.288384 1.788722)"/><ellipse cx="185.22" cy="243.034" rx="1.238" ry="1.248" transform="matrix(.99995393 -.00959916 .00959916 .99995393 -2.324389 1.789154)"/><ellipse cx="181.664" cy="231.138" rx="1.238" ry="1.248" transform="matrix(.99995393 -.00959916 .00959916 .99995393 -2.210362 1.754472)"/><ellipse cx="181.7" cy="234.889" rx="1.238" ry="1.248" transform="matrix(.99995393 -.00959916 .00959916 .99995393 -2.246376 1.75499)"/><ellipse cx="181.735" cy="238.64" rx="1.238" ry="1.248" transform="matrix(.99995393 -.00959916 .00959916 .99995393 -2.282371 1.755499)"/><ellipse cx="207.813" cy="87.938" rx="1.238" ry="1.248" transform="matrix(.99995393 -.00959916 .00959916 .99995393 -.834557 1.998883)"/><ellipse cx="207.84" cy="91.689" rx="1.238" ry="1.248" transform="matrix(.99995393 -.00959916 .00959916 .99995393 -.870571 1.999315)"/><ellipse cx="207.876" cy="95.44" rx="1.238" ry="1.248" transform="matrix(.99995393 -.00959916 .00959916 .99995393 -.906567 1.999833)"/><ellipse cx="204.32" cy="83.544" rx="1.238" ry="1.248" transform="matrix(.99995393 -.00959916 .00959916 .99995393 -.792539 1.96515)"/><ellipse cx="204.356" cy="87.295" rx="1.238" ry="1.248" transform="matrix(.99995393 -.00959916 .00959916 .99995393 -.828544 1.965669)"/><ellipse cx="204.392" cy="91.046" rx="1.238" ry="1.248" transform="matrix(.99995393 -.00959916 .00959916 .99995393 -.864548 1.966187)"/><ellipse cx="223.498" cy="180.177" rx="1.238" ry="1.248" transform="matrix(.99995393 -.00959916 .00959916 .99995393 -1.719251 2.153695)"/><ellipse cx="223.534" cy="183.928" rx="1.238" ry="1.248" transform="matrix(.99995393 -.00959916 .00959916 .99995393 -1.755256 2.154214)"/><ellipse cx="223.57" cy="187.687" rx="1.238" ry="1.248" transform="matrix(.99995393 -.00959916 .00959916 .99995393 -1.791338 2.154732)"/><ellipse cx="220.014" cy="175.792" rx="1.238" ry="1.248" transform="matrix(.99995393 -.00959916 .00959916 .99995393 -1.677319 2.12005)"/><ellipse cx="220.05" cy="179.543" rx="1.238" ry="1.248" transform="matrix(.99995393 -.00959916 .00959916 .99995393 -1.713324 2.120568)"/><ellipse cx="220.085" cy="183.293" rx="1.238" ry="1.248" transform="matrix(.99995393 -.00959916 .00959916 .99995393 -1.749319 2.121077)"/></g><path d="m48.3803015 24.0000105h155.1883485c2.937715-.0049455 5.601624 1.7323171 6.793354 4.4302707 1.19173 2.6979535.686776 5.8483459-1.287704 8.0339555l-6.804153 7.5411612c-19.50576 21.6460902-47.21224 33.9946021-76.27403 33.9946021-29.0617891 0-56.7682693-12.3485119-76.2740297-33.9946021l-6.8041525-7.5498592c-1.9634717-2.1802413-2.4679278-5.3165125-1.2879254-8.0072057 1.1800024-2.6906931 3.8239643-4.433017 6.7502921-4.4483225z" fill="#0fdad7"/><path d="m209.067423 32.8183422-6.803271 7.5972705c-19.503234 21.7820221-47.206126 34.2080795-76.264152 34.2080795-29.0580257 0-56.7609177-12.4260574-76.264152-34.2080795l-6.8032713-7.5972705c-.7310502-.8098071-1.277641-1.771838-1.6012788-2.8183422-.7765489 2.5152382-.1660269 5.2583535 1.6012788 7.1946501l6.8032713 7.5972704c19.5032343 21.7820221 47.2061263 34.2080795 76.264152 34.2080795 29.058026 0 56.760918-12.4260574 76.264152-34.2080795l6.803271-7.5972704c1.767306-1.9362966 2.377828-4.6794119 1.601279-7.1946501-.323638 1.0465042-.870228 2.0085351-1.601279 2.8183422z" fill="#0fcbc9"/><path d="m49.4219182 30.9478908h155.1561638c2.938229-.0279061 5.606408 1.9612299 6.776777 5.0521092 1.025272-2.6353286.818588-5.6865621-.549265-8.1086926-1.367853-2.4221304-3.711214-3.886397-6.227512-3.8913074h-155.1561638c-2.5162979.0049104-4.8596587 1.469177-6.2275118 3.8913074-1.3678532 2.4221305-1.574537 5.473364-.5492649 8.1086926 1.1703687-3.0908793 3.8385474-5.0800153 6.7767767-5.0521092z" fill="#6ef9f2"/><path d="m123.500029 82c-29.8069793-.0234788-58.2195631-12.6879474-78.2427007-34.8754705l-6.8644673-7.6174908c-2.4486472-2.7136275-3.0787796-6.6211335-1.6082565-9.9729394 1.4705231-3.351806 4.7662754-5.5201246 8.4115899-5.5340954h156.5640016c3.653232-.0033414 6.964749 2.1585331 8.446363 5.5140811s.854561 7.2734287-1.599362 9.9929537l-6.864467 7.6174908c-20.023138 22.1875231-48.435722 34.8519917-78.242701 34.8754705zm-78.3038346-54.4896317c-2.2762852-.0063431-4.3410643 1.3400561-5.2625693 3.4316113s-.5254672 4.5327259 1.0093943 6.2218908l6.8732007 7.6087149c19.3626829 21.4521745 46.8363806 33.695914 75.6576089 33.7170503 28.821228-.0211363 56.294925-12.2648758 75.657608-33.7170503l6.881935-7.6087149c1.534861-1.6891649 1.930899-4.1303356 1.009394-6.2218908s-2.986284-3.4379544-5.26257-3.4316113z" fill="#264575"/><path d="m197.982 35.08 3.064-.013-.011 2.624-3.064.013z" fill="#264575" transform="matrix(.67107386 -.7413905 .7413905 .67107386 38.648232 159.882055)"/><path d="m129.186711 75-.078508-2.6715558c2.041203-.0623363 4.108575-.1870089 6.106162-.3918282l.25297 2.6715558c-2.03248.24044-4.160913.3294919-6.280624.3918282zm-5.425761 0c-2.102264-.0623363-4.221974-.1959141-6.315516-.4007334l.25297-2.6715558c2.032479.1959141 4.108574.3294919 6.106162.3918282zm17.149592-1.0419068-.383816-2.6715557c2.023757-.3116816 4.056236-.7035097 6.053823-1.1576742l.567001 2.6092195c-2.067372.4541644-4.160913.8548978-6.237008 1.2200104zm-28.83853 0c-2.076095-.3294918-4.169636-.7302252-6.219562-1.1932949l.567001-2.6092195c1.997587.4541645 4.030066.8459927 6.053823 1.1576742zm-11.479584-2.5557883c-2.0237569-.5877423-4.0562365-1.2467261-6.0276544-1.9769513l.8723088-2.5112625c1.9190794.7035097 3.8904974 1.3446831 5.8619156 1.914615zm51.806421 0-.715293-2.5735988c1.971418-.5699319 3.942836-1.2200104 5.861915-1.9235201l.872309 2.5112624c-1.962695.7035097-3.995174 1.3624935-6.018931 1.9502357zm-62.8934667-3.9895233c-1.9365256-.8370875-3.8643281-1.7810372-5.7397921-2.7249869l1.18634-2.3865899c1.8144024.9439497 3.6985895 1.8344683 5.5827766 2.6715558zm73.9805127 0-1.020602-2.4578314c1.875464-.8103719 3.759651-1.7097957 5.582777-2.6715558l1.18634 2.3865899c-1.884187.9528549-3.820713 1.870089-5.748515 2.7071765zm-84.483111-5.3431116c-1.8144024-1.0775275-3.6200817-2.2352017-5.3559763-3.4374018l1.4567558-2.2797276c1.6922791 1.1665794 3.4892353 2.297538 5.233853 3.3572551zm94.994432 0-1.317186-2.3598743c1.744617-1.0508119 3.489235-2.1728654 5.233853-3.3483499l1.465479 2.2084861c-1.762064 1.1843897-3.567744 2.3420639-5.382146 3.4284966zm-104.7555679-6.7412258c-1.6661099-1.3001571-3.3147736-2.6715558-4.8936526-4.0963855l1.7446177-2.0125721c1.5352636 1.3803039 3.1403118 2.7160818 4.7628063 3.9806182zm114.5254269 0-1.587602-2.1194342c1.622494-1.2645365 3.227543-2.6092195 4.762806-3.9895234l1.744618 2.0036669c-1.605048 1.3624934-3.253712 2.7873232-4.919822 4.0874803zm-123.4055308-7.8632792c-1.3171864-1.3268727-2.6169265-2.6715558-3.8643282-4.1141959l-.497216-.5610267 1.9365256-1.7810372.488493.5521215c1.2125092 1.3713987 2.477357 2.6715558 3.759651 3.9984285zm132.2769118 0-1.831849-1.9057098c1.273571-1.2823468 2.529696-2.6181247 3.742205-3.9806181l.514662-.5788371 1.936526 1.7810372-.514662.5788371c-1.247402 1.389209-2.538419 2.7695128-3.846882 4.0785751z" fill="#264575"/><path d="m50.026 34.858 2.624-.01-.012 3.064-2.624.01z" fill="#264575" transform="matrix(.74115621 -.67133261 .67133261 .74115621 -11.139468 43.878877)"/><rect fill="#fff" height="18" rx="4.31" width="32" x="112" y="36"/><path d="m144 38h-32c.513815-1.1870382 1.97746-1.9927552 3.633149-2h24.751381c1.650975.0088324 3.108387.8150411 3.61547 2z" fill="#e8efef"/><path d="m140.014134 56h-24.028268c-2.751659-.0049191-4.981142-2.3265395-4.985866-5.1919149v-10.6161702c.004724-2.8653754 2.234207-5.1869958 4.985866-5.1919149h24.028268c2.751659.0049191 4.981142 2.3265395 4.985866 5.1919149v10.6161702c-.004724 2.8653754-2.234207 5.1869958-4.985866 5.1919149zm-24.028268-18.3191489c-1.32983.0049019-2.406701 1.1262771-2.411409 2.5110638v10.6161702c.004708 1.3847867 1.081579 2.5061619 2.411409 2.5110638h24.028268c1.32983-.0049019 2.406701-1.1262771 2.411409-2.5110638v-10.6161702c-.004708-1.3847867-1.081579-2.5061619-2.411409-2.5110638z" fill="#264575"/><rect fill="#fff" height="18" opacity=".35" rx="5.5" width="11" x="79" y="34"/><ellipse cx="67.296" cy="37.65" fill="#fff" rx="1.248" ry="1.238" transform="matrix(.00942464 -.99995559 .99995559 .00942464 29.013432 104.588174)"/><ellipse cx="63.574" cy="37.614" fill="#fff" rx="1.248" ry="1.238" transform="matrix(.00942464 -.99995559 .99995559 .00942464 25.362509 100.830678)"/><ellipse cx="59.852" cy="37.587" fill="#fff" rx="1.248" ry="1.238" transform="matrix(.00942464 -.99995559 .99995559 .00942464 21.702586 97.082098)"/><ellipse cx="71.721" cy="34.227" fill="#fff" rx="1.248" ry="1.238" transform="matrix(.00942464 -.99995559 .99995559 .00942464 36.819576 105.622238)"/><ellipse cx="68" cy="34.191" fill="#fff" rx="1.248" ry="1.238" transform="matrix(.00942464 -.99995559 .99995559 .00942464 33.170643 101.864752)"/><ellipse cx="64.269" cy="34.155" fill="#fff" rx="1.248" ry="1.238" transform="matrix(.00942464 -.99995559 .99995559 .00942464 29.510795 98.100247)"/><ellipse cx="101.283" cy="38.529" fill="#fff" rx="1.248" ry="1.238" transform="matrix(.00942464 -.99995559 .99995559 .00942464 61.800156 139.44537)"/><ellipse cx="97.562" cy="38.494" fill="#fff" rx="1.248" ry="1.238" transform="matrix(.00942464 -.99995559 .99995559 .00942464 58.150223 135.688875)"/><ellipse cx="93.84" cy="38.467" fill="#fff" rx="1.248" ry="1.238" transform="matrix(.00942464 -.99995559 .99995559 .00942464 54.4903 131.940295)"/><ellipse cx="105.709" cy="35.106" fill="#fff" rx="1.248" ry="1.238" transform="matrix(.00942464 -.99995559 .99995559 .00942464 69.60829 140.479444)"/><ellipse cx="101.987" cy="35.07" fill="#fff" rx="1.248" ry="1.238" transform="matrix(.00942464 -.99995559 .99995559 .00942464 65.957367 136.721948)"/><ellipse cx="98.257" cy="35.026" fill="#fff" rx="1.248" ry="1.238" transform="matrix(.00942464 -.99995559 .99995559 .00942464 62.306519 132.948529)"/></g><g transform="translate(51.594)"><ellipse cx="63.5" cy="65" fill="#28dcf0" rx="62.5" ry="63.5"/><path d="m6.91073374 65.0032756c.00020236-33.8450782 26.43131346-61.74186312 60.08926626-63.42137231-1.0349722-.05240894-2.0786416-.07861341-3.1310082-.07861341-22.7406142-.2319863-43.8533493 11.81942542-55.29085928 31.56070982-11.43751003 19.7412845-11.43751003 44.1307161 0 63.8720006 11.43750998 19.7412847 32.55024508 31.7926957 55.29085928 31.5607097 1.048018 0 2.0916874-.026204 3.1310082-.078613-33.6554343-1.679384-60.08558748-29.5722759-60.08926626-63.4148214z" fill="#92ceff"/><path d="m63.5 128.5c-35.0700816 0-63.5-28.653776-63.5-64s28.4299184-64 63.5-64 63.5 28.653776 63.5 64c-.039109 35.3298842-28.4461305 63.960583-63.5 64zm0-126.04287311c-34.0011977 0-61.56461445 27.78045151-61.56461445 62.04937521 0 34.2689236 27.56341675 62.0493749 61.56461445 62.0493749s61.564614-27.7804513 61.564614-62.0493749c-.035558-34.254068-27.5781559-62.01353707-61.564614-62.04937521z" fill="#3d3634"/><ellipse cx="64" cy="64" fill="#e8e8e8" rx="52" ry="52.5"/><path d="m16.1533994 70.0202828c.0082977-22.7864895 14.2907014-42.9888932 35.4066123-50.0825131 21.1159108-7.0936199 44.2861904.5270342 57.4399883 18.8918862-8.937481-17.5590926-26.7169037-28.5006156-46.0309757-28.3276346s-36.9044302 11.4312834-45.5414882 29.1477774c-8.63705789 17.716494-6.8637083 38.9023342 4.5912071 54.8502013-3.8652688-7.5501263-5.8784432-15.9523513-5.8653438-24.4797172z" fill="#dadada"/><path d="m61.5 27.5c2 0 2-3 0-3s-2 3 0 3zm5 83c2 0 2-3 0-3s-2 3 0 3zm39-41c2 0 2-3 0-3s-2 3 0 3zm-84-1c2 0 2-3 0-3s-2 3 0 3z" fill="#3d3634"/><rect fill="#e8e8e8" height="23" rx="3" width="6" x="61" y="44.5"/><rect fill="#3d3634" height="23" rx="3" width="6" x="61" y="44.5"/><circle cx="63" cy="67.5" fill="#e8e8e8" r="6"/><circle cx="63" cy="66.5" fill="#3d3634" r="6"/><path d="m40.4036881 84.2277597 45.4070597-29.5030593 6.4398331-4.181738c1.7527375-1.1352264.1115975-3.918776-1.654269-2.7707221l-45.4070597 29.5030593-6.4398331 4.181738c-1.7527375 1.1352264-.1115975 3.918776 1.654269 2.7707221z" fill="#3d3634"/><g opacity=".4" transform="translate(12 11.5)"><ellipse cx="52.402" cy="51.712" fill="#55e0ff" opacity=".1" rx="52.363" ry="51.627"/><path d="m62.6086957.75874214-52.98913048 80.91069186c-2.8837104-4.916749-4.97677916-10.2585922-6.20217392-15.8289309l42.626087-65.0686792c5.4896233-.900413 11.0886375-.900413 16.5782608 0zm14.7521739 5.7363522-57.9913044 84.75018866c-1.755497-1.5647032-3.4027814-3.2474172-4.9304348-5.036478l56.3413044-82.33660374c2.2504994.72291328 4.4491013 1.59925319 6.5804348 2.62289308zm26.1521734 33.18842766-43.2717387 63.243774c-4.7054086.677865-9.4797193.726255-14.197826.143899l52.2847826-76.4105661c2.3207001 4.0794697 4.0656091 8.4622495 5.1847821 13.0228931z" fill="#fff"/></g><path d="m64.5 118.5c-28.9949494 0-52.5-23.7289083-52.5-53s23.5050506-53 52.5-53 52.5 23.7289083 52.5 53c-.031838 29.2577679-23.5182488 52.967858-52.5 53zm0-104.0559971c-27.9314349 0-50.5743367 22.8585485-50.5743367 51.0559971s22.6429018 51.055997 50.5743367 51.055997 50.574337-22.8585484 50.574337-51.055997c-.028299-28.186656-22.6535967-51.0303313-50.574337-51.0624771z" fill="#3d3634"/></g><path d="m85.968 191.133-.046 17.989 9.267-.101.048-18.632" fill="#5ad7af" transform="matrix(.89879403693 -.43837114972 .43837114972 .89879403693 -67.4754055265 230.47676430558)"/><path d="m95.009 195.895.082 7.504-8.984-.641.018-6.946z" fill="#463e3b" opacity=".2" transform="matrix(.89879403693 -.43837114972 .43837114972 .89879403693 -67.41511779862 230.46941001066)"/><path d="m35.2875085 191.825549 89.5041905-.223591c7.379367-.018434 13.376771-5.924345 13.395575-13.191222l.389934-150.6871245c.00903-3.4896771-1.390038-6.8329094-3.889425-9.294224-2.499387-2.4613147-5.894356-3.8390935-9.438054-3.830241l-89.5041899.2235905c-2.6080407.0065151-4.727663 2.093802-4.7343089 4.6620856l-.4339635 167.7022344c-.0066459 2.568283 2.1022012 4.645007 4.7102418 4.638492z" fill="#ff507d" transform="matrix(.89879403693 -.43837114972 .43837114972 .89879403693 -30.80533642635 218.52087794358)"/><path d="m34.5080372 15.9052407c-1.6112805.0041045-2.631911 1.0027372-3.5157945 2.3144352.4501423-.1346017.4342685-.4092733.9046277-.4111095l90.5211696-.2252087c7.463214-.0185678 13.49809 5.8374934 13.479272 13.0798788l-.390211 150.1792785c-.000297 3.582523-1.516818 7.015186-4.194624 9.494583 4.205416-2.349584 6.802628-6.69923 6.805791-11.397909l.390211-150.1792783c.018818-7.2423854-6.016058-13.0984466-13.479272-13.0798788z" fill="#ac3553" opacity=".5" transform="matrix(.89879403693 -.43837114972 .43837114972 .89879403693 -30.7096998212 218.56739546044)"/><path d="m44.1834772 34.692379-2.825101.0058786c-3.116269.0064845-5.6489352 2.0818815-5.6568684 4.635529l-.5180123 166.7465304c-.0038096 1.226305.5870132 2.401147 1.6424942 3.266073 1.055481.864927 2.4891607 1.349088 3.9856459 1.345974l2.825101-.005879z" fill="#463e3b" opacity=".2" transform="matrix(.89879403693 -.43837114972 .43837114972 .89879403693 -42.80731688008 203.13500938683)"/><path d="m124.155447 192.541286h-87.9759391c-3.0866553-.003486-5.5880135-2.501841-5.5915032-5.584791v-167.1895343c.0034897-3.0829499 2.5048479-5.5813052 5.5915032-5.5847908h87.9759391c7.775066.0069742 14.07626 6.3006038 14.083243 14.066336v150.2264441c-.006983 7.765732-6.308177 14.059362-14.083243 14.066336zm-87.9759391-176.4616787c-2.0389167 0-3.6917853 1.6508844-3.6917853 3.6873534v167.1895343c0 2.036469 1.6528686 3.687354 3.6917853 3.687354h87.9759391c6.725881-.006973 12.176544-5.451092 12.183525-12.168899v-150.2264441c-.006981-6.717807-5.457644-12.1619263-12.183525-12.1688986z" fill="#b22f50" transform="matrix(.89879403693 -.43837114972 .43837114972 .89879403693 -30.87961487061 218.47254313634)"/><path d="m114.956204 89.9618618-4.107916-12.8201164-6.614545-20.6018935-.145579-.4551148c-.561576-1.7504437-2.427993-2.7068382-4.173286-2.1384865l-.4533365.1487071-63.8248229 20.9931311-.4533365.1487072c-.8404164.2753795-1.5391086.8750146-1.9420322 1.6667004-.4029235.7916858-.4769918 1.7104119-.2058745 2.5536218l5.4372018 16.9417619 5.2916227 16.4866469.145579.455115c.5642678 1.747866 2.4298631 2.700968 4.1733024 2.132071l64.7187367-21.2905128c.841585-.2740599 1.541779-.8731506 1.945976-1.6649897s.479151-1.7112955.20831-2.5553487z" fill="#463e3b" opacity=".2" transform="matrix(.89879403693 -.43837114972 .43837114972 .89879403693 -24.71927291717 212.58908267077)"/><path d="m42.5663862 60.2567436 63.1270798-.1503799c3.291608-.0078412 5.966339 2.6541776 5.974181 5.9457854.000022.0093903.000022.0187806 0 .028171l-.072517 30.9304435c-.007691 3.2806124-2.665174 5.9381944-5.945786 5.9460094l-63.1270791.15038c-3.2916078.007842-5.9663396-2.654177-5.9741808-5.945785-.0000224-.0093903-.0000226-.0187807-.0000005-.028171l.0725167-30.9304435c.0076914-3.280612 2.6651742-5.9381949 5.9457859-5.9460099z" fill="#fff" transform="matrix(.77922858193 -.62673981869 .62673981869 .77922858193 -30.02166977027 236.03953362925)"/><path d="m68.7744506 115.2587-16.6813309 3.735164c-2.0504542.443998-4.0785278-.796362-4.5525984-2.784347l-7.5907966-32.8221748c-.0303178-.1227819-.0513749-.2476016-.0630032-.3734631 3.5549191 2.8055711 7.9174183 4.8991989 12.1336205 6.6818465 2.2880713.8764953 4.4862044 1.9591053 6.5658947 3.2337912 5.2798683 3.4799243 8.3278534 9.4874972 9.4954491 15.5932682.4143594 2.222918.6460138 4.475348.6927648 6.735915z" fill="#59598d" opacity=".05" transform="matrix(.89879403693 -.43837114972 .43837114972 .89879403693 -32.99006612883 206.62852686867)"/><path d="m44.9624702 110.939076c-1.9837966-.006763-3.7004841-1.391894-4.140335-3.340681l-7.8178147-34.6140535c-.5049009-2.3018855.9274134-4.5832191 3.2082841-5.1100282l65.8902924-15.1192959c2.285574-.5123658 4.552516.9321159 5.072386 3.2320928l7.811474 34.6140536c.504901 2.3018854-.927413 4.5832191-3.208284 5.1100282l-65.8649304 15.119296c-.3120233.071749-.6310243.108171-.9510724.108588zm58.0851588-56.3699986c-.174892-.0004211-.349282.0188613-.519919.0574878l-65.8966336 15.0937458c-1.2658262.2918474-2.059395 1.5595592-1.775335 2.8360657l7.8114742 34.6140533c.2896975 1.27522 1.548071 2.074678 2.8151742 1.78851l65.9029732-15.0937457c1.265827-.2918474 2.059395-1.5595593 1.775335-2.8360657l-7.817814-34.6204411c-.247605-1.0761438-1.198718-1.8384458-2.295255-1.8396101z" fill="#c6c6dd" transform="matrix(.89879403693 -.43837114972 .43837114972 .89879403693 -23.5939805638 212.29806258298)"/><path d="m109.529667 9.23110483c.002919-1.14275082-.46138-2.23713873-1.290016-3.0406706-.828637-.80353186-1.953189-1.24985728-3.12448-1.24008001l-3.614824.00921331c-2.1203723.0043733-3.9435398 1.48378301-4.3362258 3.5186317-.2516327.54858743-.3823167 1.14213384-.3835474 1.74201257l-.4424501 174.4490102c-.0028871 1.138317.4578335 2.228831 1.2808085 3.03164.8229749.802809 1.9407905 1.252151 3.1075398 1.249178l3.614824-.009214c2.624004-.486161 4.574692-2.660392 4.719774-5.260644z" fill="#463e3b" opacity=".2" transform="matrix(.89879403693 -.43837114972 .43837114972 .89879403693 -26.55530376479 224.98215533027)"/><path d="m106.061055 2.62375154c3.183674-.00811441 5.77113 2.56618538 5.779244 5.74985952.000025.00977096.000025.01954196 0 .02931292l-.437258 172.40188502c-.008128 3.20466-2.603975 5.80054-5.808634 5.808707-3.183674.008115-5.7711303-2.566185-5.7792447-5.749859-.0000249-.009771-.000025-.019542-.0000002-.029313l.4372579-172.40188533c.008128-3.20465935 2.603975-5.80053923 5.808635-5.80870713z" fill="#d1ab0d" transform="matrix(.89879403693 -.43837114972 .43837114972 .89879403693 -25.36653203249 225.86662495091)"/><path d="m110.688 2.638-.458 180.477-2.317.006.458-180.496 1.784-.005z" fill="#ffd214" transform="matrix(.89879403693 -.43837114972 .43837114972 .89879403693 -24.34472753307 227.03232738063)"/><path d="m71.1010765 10.1035362 1.1587879-.0029535z" fill="#a0830d" transform="matrix(.89879403693 -.43837114972 .43837114972 .89879403693 3.85082115967 204.24649917178)"/><path d="m107.574297 186.712557h-3.493132c-2.869687-.003522-5.1951593-2.356535-5.1986398-5.260207v-174.83317741c.0034712-2.90118222 2.3251038-5.2531675 5.1923228-5.26020709h3.493132c2.872153-.00000214 5.201471 2.35404136 5.204956 5.26020709v174.83317741c-.00348 2.903672-2.328953 5.256685-5.198639 5.260207zm-3.409446-183.30548552c-1.735751.003512-3.14203 1.49590511-3.145339 3.33794399v174.58149153c.003309 1.842039 1.409588 3.334432 3.145339 3.337944h3.32576c1.73575-.003512 3.14203-1.495905 3.145339-3.337944v-174.58149153c-.003296-1.83955601-1.405924-3.33092609-3.139325-3.33794399z" fill="#88700a" transform="matrix(.89879403693 -.43837114972 .43837114972 .89879403693 -25.14147378247 225.80842054437)"/><g transform="matrix(.88294759 .46947156 -.46947156 .88294759 348.835735 136.406287)"><rect fill="#2d415b" height="8.519" rx=".843" width="1.685" x="6.61"/><path d="m2.228 11.99 2.191-6.942h6.236l2.023 6.942" fill="#59598d"/><path d="m10.149 4.89h-1.853l2.022 6.942h1.854z" fill="#4b4b77"/><path d="m6.94719101 4.41720991-2.19101123 6.94132989h-2.86516854l1.45280898-4.0669883c.53764045-1.70378097 1.70393259-2.87434159 3.60337079-2.87434159z" fill="#e9ffff" opacity=".15"/><path d="m12.6775281 11.2007823h-10.49157304l-1.51685394 6.1525423 1.51685394 97.2527644c0 2.63455 1.70561797 4.844732 4.00955056 5.458409.07584269.020509.15168539.039439.22921348.056793.19051017.041203.38358217.071235.57808989.089922.13258427.01262.26741573.019456.40449438.020508h.04550562c.13707865 0 .27191011-.006836.40449438-.020508.19450772-.018687.38757972-.048719.57808989-.089922.07752809-.017354.15337078-.036284.22921348-.056793 2.30393256-.613677 4.00955056-2.823859 4.00955056-5.458409l1.5202247-97.2527644z" fill="#59598d"/><path d="m8.78764045 120.121291c-.07752809-.017354-.15337079-.036284-.22921348-.056793-2.30393259-.613677-4.00955057-2.823859-4.00955057-5.458409l-1.51685393-97.2527644 1.51685393-6.1525423h-1.85393258l-1.51685393 6.1525423 1.51685393 97.2527644c0 2.63455 1.70561798 4.844732 4.00955056 5.458409.0758427.020509.1516854.039439.22921349.056793.19051016.041203.38358216.071235.57808988.089922.13258427.01262.26741573.019456.40449438.020508h.04213484c.13707865 0 .27191011-.006836.40449438-.020508.1698792-.016658.33866693-.041936.50561798-.075724z" fill="#e9ffff" opacity=".15"/><path d="m12.5089888 11.2007823h-2.52808992l1.51685392 6.1525423-1.51685392 97.2527644c0 2.623507-1.68539326 4.825801-3.98089888 5.450521l.02865169.007888c.07584269.020509.15168539.039439.22921348.056793.19051016.041203.38358217.071235.57808989.089922.13258427.01262.26741573.019456.40449438.020508h.04382022c.13707865 0 .27191012-.006836.40449438-.020508.19450773-.018687.38757973-.048719.57808989-.089922.07752809-.017354.15337079-.036284.22921349-.056793 2.30393258-.613677 4.00955058-2.823859 4.00955058-5.458409l1.5202247-97.2527644z" fill="#4b4b77"/><path d="m2.8752809 11.3790482-1.29269663-.3581095 1.31966292-4.19477182c.60629682-1.89229646 2.46358779-3.19070872 4.5741573-3.19774445h.0522472c2.14801409.00351789 4.02929701 1.34874687 4.59775281 3.28766623l1.2 4.11904824-1.3011236.3328683-1.2016854-4.1206258c-.4074079-1.38894235-1.75448287-2.35300789-3.29325842-2.356897h-.05224719c-1.5123703.00605666-2.84292261.93645026-3.27808989 2.29221643z" fill="#2d415b"/><path d="m.801 24.982h13.247v1.578h-13.247z" fill="#5ad7af"/><path d="m7.45280899 120.864329h-.71629214v-.048905c-.12977528-.017354-.25786516-.037862-.38258427-.063103l-.08089887-.017354c-.08764045-.01893-.16853933-.041017-.25955056-.06468-2.64606742-.705176-4.49662922-3.199322-4.49662922-6.064198l-1.51685393-97.3206001 1.65-6.7157366h11.5634831l1.6550562 6.7157366-1.5168539 97.3363751c0 2.856989-1.8539326 5.351135-4.49831461 6.056311-.08426967.022086-.16853933.044172-.25786517.063103l-.08426966.017353c-.1264045.025241-.25449439.047327-.38258427.063103v.047327zm-.91011236-1.36618h.03707865c.16329802.035351.3287856.061168.49550562.077301.10955056.011043.2241573.015776.33707865.017353h.04044944c.11797753 0 .23258427 0 .33707865-.017353.16672352-.016109.3322127-.041926.49550562-.077301l.05561798-.012621.14157303-.036284c2.07471913-.552151 3.52247193-2.547784 3.52247193-4.852621l1.5168539-97.1786178-1.3803371-5.5861929h-9.41966289l-1.37865168 5.5893481 1.51685393 97.1786176c0 2.314303 1.44775281 4.308358 3.52078652 4.860509z" fill="#2d415b"/><path d="m4.80337079 75.4869622.18370786 10.626545.29325843 16.9463098.06741573 3.899766c0 .304472.50561798.304472.50561798 0l-.18370787-10.6265452-.29325843-16.9463103-.06741573-3.8997653c0-.304472-.50561797-.304472-.50561797 0zm-.30337079-17.5110821.2241573 12.9361147c0 .304472.50561798.304472.50561798 0l-.2241573-12.9361147c0-.304472-.50561798-.304472-.50561798 0zm-.32359551-18.7715646.24606742 14.245502.03539326 2.0019426c0 .304472.50561798.304472.50561798 0l-.24606742-14.245502-.03539326-2.0019426c0-.304472-.50561798-.304472-.50561798 0zm-.17865168-10.3346936.13314607 7.7301173c0 .304472.50561797.304472.50561797 0l-.13314606-7.7301173c0-.304472-.50561798-.304472-.50561798 0z" fill="#fff"/></g><g transform="matrix(.8480481 .52991926 -.52991926 .8480481 304.49391 100.94754)"><rect fill="#ff507d" height="128" rx="5" width="10" x="5.88" y=".587"/><path d="m10.6970101 1.01796707c-.2293992.00018023-.458426.02212656-.6849315.06563307 2.0918579.40282687 3.6300937 2.56516232 3.630137 5.10297158v116.66279028c-.0006161 2.537557-1.5385783 4.699508-3.630137 5.102972.2265055.043506.4555323.065453.6849315.065633 2.3831465 0 4.3150685-2.314063 4.3150685-5.168605v-116.66279028c0-2.85454153-1.931922-5.16860465-4.3150685-5.16860465z" fill="#d3325b"/><path d="m9.892611 128.596664c.2293992-.000182.458426-.022301.6849315-.06615-2.09185786-.405999-3.63009372-2.585361-3.63013698-5.143153v-117.58139514c.00061605-2.5575373 1.53857834-4.73651142 3.63013698-5.14315245-.2265055-.04384908-.4555323-.06596822-.6849315-.06614987-2.38314652 0-4.31506849 2.33228409-4.31506849 5.20930232v117.58139514c0 2.877018 1.93192197 5.209303 4.31506849 5.209303z" fill="#fdaabf"/><g fill="#621e2f"><path d="m10.574407 129.221834c-3.03610937-.003645-5.49648597-2.556071-5.49999999-5.705769v-117.58846168c0-3.15120933 2.46243387-5.70576923 5.49999999-5.70576923 3.0375661 0 5.5 2.5545599 5.5 5.70576923v117.58846168c-.003514 3.149698-2.4638906 5.702124-5.5 5.705769zm0-128.00769222c-2.50820105.00273467-4.5408422 2.11142219-4.54347825 4.71346154v117.58846168c.00000005 2.603173 2.03418454 4.713461 4.54347825 4.713461 2.5092937 0 4.5434782-2.110288 4.5434783-4.713461v-117.58846168c-.0026361-2.60203935-2.0352772-4.71072687-4.5434783-4.71346154z"/><path d="m5.66837431 48.205856h-.54054054c-2.46289146 0-4.45945946-2.4415658-4.45945946-5.4533899v-28.0932203c0-3.011824 1.996568-5.45338983 4.45945946-5.45338983h.54054054zm-1.08108109-37.6250848c-1.63593636.3242665-2.83797536 2.051809-2.83783783 4.0784746v28.0932203c-.00013753 2.0266656 1.20190147 3.7542081 2.83783783 4.0784746z"/><path d="m5.512 11.528h9v1h-9z"/><path d="m5.646 43.701h10v1h-10z"/></g></g><g transform="matrix(.9781476 -.20791169 .20791169 .9781476 233.780465 118.512544)"><rect fill="#5ad7af" height="128" rx="5" width="10" x="5.88" y=".587"/><path d="m10.6970101 1.01796707c-.2293992.00018023-.458426.02212656-.6849315.06563307 2.0918579.40282687 3.6300937 2.56516232 3.630137 5.10297158v116.66279028c-.0006161 2.537557-1.5385783 4.699508-3.630137 5.102972.2265055.043506.4555323.065453.6849315.065633 2.3831465 0 4.3150685-2.314063 4.3150685-5.168605v-116.66279028c0-2.85454153-1.931922-5.16860465-4.3150685-5.16860465z" fill="#49b08f"/><path d="m9.892611 128.596664c.2293992-.000182.458426-.022301.6849315-.06615-2.09185786-.405999-3.63009372-2.585361-3.63013698-5.143153v-117.58139514c.00061605-2.5575373 1.53857834-4.73651142 3.63013698-5.14315245-.2265055-.04384908-.4555323-.06596822-.6849315-.06614987-2.38314652 0-4.31506849 2.33228409-4.31506849 5.20930232v117.58139514c0 2.877018 1.93192197 5.209303 4.31506849 5.209303z" fill="#a9f9df"/><g fill="#385868"><path d="m10.574407 129.221834c-3.03610937-.003645-5.49648597-2.556071-5.49999999-5.705769v-117.58846168c0-3.15120933 2.46243387-5.70576923 5.49999999-5.70576923 3.0375661 0 5.5 2.5545599 5.5 5.70576923v117.58846168c-.003514 3.149698-2.4638906 5.702124-5.5 5.705769zm0-128.00769222c-2.50820105.00273467-4.5408422 2.11142219-4.54347825 4.71346154v117.58846168c.00000005 2.603173 2.03418454 4.713461 4.54347825 4.713461 2.5092937 0 4.5434782-2.110288 4.5434783-4.713461v-117.58846168c-.0026361-2.60203935-2.0352772-4.71072687-4.5434783-4.71346154z"/><path d="m5.66837431 48.205856h-.54054054c-2.46289146 0-4.45945946-2.4415658-4.45945946-5.4533899v-28.0932203c0-3.011824 1.996568-5.45338983 4.45945946-5.45338983h.54054054zm-1.08108109-37.6250848c-1.63593636.3242665-2.83797536 2.051809-2.83783783 4.0784746v28.0932203c-.00013753 2.0266656 1.20190147 3.7542081 2.83783783 4.0784746z"/><path d="m5.512 11.528h10v1h-10z"/><path d="m5.214 43.428h10v1h-10z"/></g></g></g></svg>