<svg height="48" viewBox="0 0 48 48" width="48" xmlns="http://www.w3.org/2000/svg"><g fill="none" fill-rule="evenodd" stroke-width=".5" transform="translate(4 4)"><g transform="translate(0 3.321)"><path d="m39.871546 13.3272966-4.4746771-11.93442268c-.4008611-1.07003635-1.6297456-1.62611407-2.739726-1.23896562-.9488063.3308387-1.5068494 1.24515516-1.3982779 2.17245457l-2.4620744.8580822c-.3084931.1075622-.46818.43606094-.3568689.73353648.1116243.29785295.4522897.45176125.7607828.34412357l2.4067319-.83913615 4.0038356 10.67983223-10.3422309 3.6057115c-1.2879061-2.1040676-3.9899804-3.1000559-6.4576125-2.2396338-1.1288454.393338-2.0376517 1.1157032-2.6531507 2.0140929l-2.1667319-5.7779397c-.3910763-1.0437685.171272-2.20015651 1.2540117-2.57786967l10.0234834-3.42512698c.3088063-.10763768.4684149-.43606094.3564775-.73361196-.1112329-.29747554-.4522114-.45138384-.7607045-.34374616l-10.0234834 3.42512698c-1.6988649.59261112-2.5810567 2.40712889-1.967045 4.04501819l.2051664.5475482-9.05761257 3.1572715c-.49534247-.8830669-1.60133072-1.3093906-2.60947162-.9582472-1.10966732.3871485-1.68571429 1.5721443-1.28485323 2.6421806l1.95726027 5.2200503c.31459883.8394381 1.13808219 1.3619262 2.01440313 1.3619262.24062623 0 .48618396-.0391752.7253229-.1226586.53753425-.1874979.96712329-.565513 1.20994129-1.0646771.19686888-.4051132.25166341-.850383.16109589-1.2811602l9.05729944-3.1572715.2021918.5393207c-.2840705.9971205-.264501 2.0848952.1268884 3.129494.4241096 1.1307995 1.2227789 2.0642885 2.2770254 2.6755437l-2.9317416 6.1216858h-2.5116243c-1.2429746 0-2.2538552.9747778-2.2538552 2.1730584 0 1.1985826 1.0111938 2.1736623 2.2538552 2.1736623h.4745988c.3277495 0 .5941292-.2564887.5941292-.5729102 0-.3166481-.2663797-.5728348-.5941292-.5728348h-.4745988c-.5876321 0-1.06591-.4608946-1.06591-1.0279173 0-.5664188.4782779-1.0272379 1.06591-1.0272379h2.8880626c.0012525 0 .0024266.000302.0036791.000302h10.6647358c.0012524 0 .0024266-.000302.0036791-.000302h2.8876712c.5877104 0 1.065362.4608191 1.065362 1.0272379 0 .5670227-.4776516 1.0279173-1.065362 1.0279173h-12.5967906c-.3280626 0-.5941292.2561867-.5941292.5728348 0 .3164215.2660666.5729102.5941292.5729102h12.5967906c1.2429745 0 2.2541683-.9750797 2.2541683-2.1736623 0-1.1982806-1.0115069-2.1730584-2.2541683-2.1730584h-2.511546l-2.93182-6.1216858c2.0985519-1.2210008 3.1113112-3.7122169 2.3370646-6.0274084l10.3131116-3.5954459c.397182.5832513 1.076634.931149 1.7909197.931149.2409394 0 .486184-.0397791.7252446-.1229606.5376126-.1874979.9672016-.5652111 1.2099413-1.0643752.242818-.4991641.2694325-1.0593933.0752251-1.5778054zm-34.91311156 9.0643612c-.10763209.2220688-.29878669.3903942-.53784736.4735756-.49354207.1718731-1.04023483-.0751803-1.21823874-.5507939l-1.95726028-5.2200503c-.17823874-.4759156.07796478-1.0030836.57119374-1.1753341.10669276-.0368354.2155773-.0544982.32258317-.0544982.38990215 0 .75585127.2326363.89620352.605896l1.95694717 5.2197484c.08657534.2305983.0746771.4797652-.03358122.7014565zm.85526419-1.8796589-1.3653229-3.6423204 9.03499017-3.1495723 1.3655578 3.6423204zm10.42254407 10.3941319 2.7015264-5.6413922c.5518591.1789684 1.1243053.2691697 1.6982387.2691697.5729942 0 1.1472407-.0905032 1.7046576-.2700755l2.7024657 5.6419961h-8.8068884zm5.8277103-6.7612468c-1.0445401.3641263-2.1728375.3169499-3.1806653-.131792 0 0-.0003131-.000302-.000548-.000302-.0003131 0-.0006262-.0003019-.0012524-.0006038-.007045-.0029438-.01409-.0055857-.0208219-.0088314-1.0129942-.4581773-1.7805088-1.2696114-2.1611742-2.2842438-.7852055-2.0949343.3434051-4.4154096 2.5156164-5.1728739.468728-.1633436.9484932-.240562 1.420274-.240562 1.7153816 0 3.3283757 1.0236903 3.9441879 2.6666369.7852055 2.0946324-.3434051 4.4154096-2.5156165 5.172572zm16.6563601-9.726265c-.1076321.2219932-.2987084.3900922-.5378473.4731982-.4934638.171873-1.0402349-.0751804-1.2184736-.550794l-4.474364-11.93472463c-.178317-.47591557.0782779-1.00278166.5714286-1.17473022.1064579-.03743919.2152641-.05480011.3223483-.05480011.3898239 0 .7561644.23263629.8962035.60559407l4.4740509 11.93480009c.0865753.2302209.0749119.4796897-.0333464.7014566z" fill="#1e1169" stroke="#1e1169"/><path d="m19.6761644 17.7760693c-.711546.2479592-1.2808611.748633-1.6021918 1.4097065-.321409.6604697-.3562427 1.4023092-.0990998 2.0887447.2571429.6863601.7763601 1.2351161 1.4616047 1.5449707.3822309.1727789.790998.2598099 1.2010959.2598099.3250098 0 .6506458-.0545737.9653229-.1642494.7114677-.2479592 1.280861-.7486329 1.6021918-1.4094045.3210959-.6604697.3562426-1.4023092.0990998-2.0890467-.5314286-1.4167263-2.1587476-2.1529801-3.6280235-1.6405312zm2.4526027 3.2430948c-.1862231.3836008-.5163992.6742829-.9301761.8182276-.4130724.1441711-.8598043.1243947-1.2576125-.0557814-.3978082-.1794968-.6993347-.4979564-.8485323-.8968801-.1495108-.3983953-.129002-.8291725.0575342-1.2127733.186458-.3836007.5170255-.6742829.930411-.8182275.1837965-.0642354.3721331-.0946548.5574168-.0946548.6736595 0 1.3072407.4022449 1.5488063 1.0473162.1495107.3983953.1290019.8291725-.0578474 1.2127733z" fill="#1e1169" stroke="#1e1169"/><path d="m1.44571429 8.98117976-.25534247 1.43506854c-.07616438.429041.10332681.8547609.46841487 1.1107212.36540118.2559603.84093934.289248 1.24054795.0863517l1.33651663-.6775286 1.3362818.6775286c.17362035.0881633.36203523.1318675.54911938.1318675.24313111 0 .48500978-.0737462.69103718-.2182192.36540117-.2559603.54520548-.6813782.46849315-1.1107212l-.25502936-1.43506854 1.08117417-1.01606654c.3232094-.30396701.43726028-.75006709.29784736-1.16431367-.13941291-.41402013-.50387475-.71028795-.95060665-.77286273l-1.49401174-.2096142-.66818004-1.30531451c-.19992173-.39039419-.60446184-.63337154-1.05612525-.63337154-.45158513 0-.85643835.24267542-1.05612524.63306961l-.66841488 1.30561644-1.49401174.20931227c-.44704501.06287671-.81119373.35884261-.95060665.77316466-.13980431.41394465-.02544031.86004473.29808219 1.16408723zm1.24203522-2.02941571c.3837182-.05396981.71522505-.28600224.8867319-.62129438l.66136986-1.29172771.66113503 1.29172771c.17181996.33529214.50293542.56732457.8867319.62129438l1.47835616.20697232-1.06990215 1.00572547c-.27757338.26094213-.404227.63691921-.33847358 1.00512161l.25228963 1.42004755-1.32219178-.67050883c-.17150685-.08695555-.35953034-.13058429-.54794521-.13058429-.18833659 0-.37667319.04362874-.54825832.13058429l-1.3221135.67020683.25221135-1.419972c.06575343-.36827788-.06082192-.74425496-.33878669-1.00489516l-1.06958904-1.0060274z" fill="#28dcf0" stroke="#28dcf0"/></g><path d="m36.3331507 25.9420408-1.4943249-.2096897-.6684148-1.3053145c-.1993738-.3906206-.6044619-.6329941-1.0558122-.6329941-.4515851 0-.8564383.2423735-1.0561252.6329941l-.6684149 1.3053145-1.4936986.2096897c-.447045.0621974-.8115069.3585407-.9509981.7730892-.1394129.4139446-.025362.8600447.2981605 1.1640872l1.0809393 1.0160666-.2550293 1.434993c-.0764775.4290411.1030137.8548364.4684149 1.1107212.2064187.1444731.4479843.2182192.6910371.2182192.1871625 0 .3754991-.0436287.5495108-.131792l1.3362035-.6776041 1.3365167.6776041c.3996868.2025189.8751467.1695331 1.2402348-.0867291.3650881-.2555829.5448924-.6813782.4684149-1.1104193l-.2552642-1.434993 1.0811741-1.0163685c.3232094-.3037406.4375734-.7498407.2978474-1.1640872-.1394129-.4142466-.5036399-.710288-.9503718-.7727873zm-1.2619178 2.1367515c-.2779648.2606402-.4045401.6363153-.3387867 1.0051971l.2526027 1.419972-1.3221918-.6705088c-.1718199-.0869555-.3599217-.1305843-.5482583-.1305843s-.3764383.0436288-.5479452.1305843l-1.3224266.6702069.2522114-1.4196701c.0657534-.3688818-.060822-.7445569-.3381605-1.0051971l-1.0699022-1.0060274 1.4784345-.2069723c.3837182-.0536679.7148336-.2860023.8867319-.6212944l.6610567-1.2920297.6613699 1.2920297c.1715851.3352921.5033268.5676265.8867319.6212944l1.4784344.2069723zm-19.8376517-22.90176686-.2552642 1.43476656c-.0761644.42926755.1030137.85476098.4684149 1.11094773.2067319.1445485.4479843.21793575.6913503.21793575.1874755 0 .3751859-.04334532.5491976-.13181051l1.3365167-.67730221 1.3362035.67730221c.4.20289628.8751468.16953313 1.2402348-.08612524.3654012-.25618675.5452055-.68168018.4684149-1.11094773l-.2549511-1.43476656 1.0811742-1.01667039c.3235225-.30396702.4372603-.7500671.2978474-1.16408723-.1394912-.41394464-.5039531-.71028795-.950685-.77308918l-1.4940117-.20901034-.6681018-1.30591837c-.2-.39039418-.6045401-.63306961-1.0561252-.63306961-.4516634 0-.8567515.24267543-1.0564384.63306961l-.6681017 1.30591837-1.4940118.20901034c-.447045.06280123-.8115068.35884261-.950998.77308918-.1394129.41402013-.0250489.86012021.2978473 1.16408723zm1.2421135-2.02979312c.3837182-.05396981.7151468-.28600224.8867319-.6212189l.6613699-1.29172771.6607436 1.29172771c.1718983.33521666.5033268.56724909.887045.6212189l1.4784345.20727425-1.0699022 1.00549902c-.2773385.26094213-.4039139.6365418-.3387867 1.00512161l.2526028 1.42004753-1.3221918-.67050881c-.1715851-.0867291-.3599217-.13035784-.5479452-.13035784-.1883366 0-.3767515.04362874-.5482583.13035784l-1.3221918.67050881.2522896-1.42004753c.0654403-.36827788-.061135-.74417948-.3387867-1.00512161l-1.069589-1.00549902z" fill="#28dcf0" stroke="#28dcf0"/></g></svg>