<?xml version="1.0" encoding="UTF-8"?>
<svg width="48px" height="48px" viewBox="0 0 48 48" version="1.1" xmlns="http://www.w3.org/2000/svg" xmlns:xlink="http://www.w3.org/1999/xlink">
    <title>icone/48x48/alaune_48_bicolore</title>
    <g id="icone/48x48/alaune_48_bicolore" stroke="none" stroke-width="1" fill="none" fill-rule="evenodd">
        <g id="003-telescope-1" transform="translate(4.000000, 4.000000)" stroke-width="0.5">
            <g id="Group-6">
                <g id="Group-5" transform="translate(0.000000, 3.321219)">
                    <path d="M39.871546,13.3272966 L35.3968689,1.39287392 C34.9960078,0.322837573 33.7671233,-0.233240145 32.6571429,0.153908303 C31.7083366,0.484746995 31.1502935,1.39906346 31.258865,2.32636287 L28.7967906,3.18444507 C28.4882975,3.29200727 28.3286106,3.62050601 28.4399217,3.91798155 C28.551546,4.2158345 28.8922114,4.3697428 29.2007045,4.26210512 L31.6074364,3.42296897 L35.611272,14.1028012 L25.2690411,17.7085127 C23.981135,15.6044451 21.2790607,14.6084568 18.8114286,15.4688789 C17.6825832,15.8622169 16.7737769,16.5845821 16.1582779,17.4829718 L13.991546,11.7050321 C13.6004697,10.6612636 14.162818,9.50487559 15.2455577,9.12716243 L25.2690411,5.70203545 C25.5778474,5.59439777 25.737456,5.26597451 25.6255186,4.96842349 C25.5142857,4.67094795 25.1733072,4.51703965 24.8648141,4.62467733 L14.8413307,8.04980431 C13.1424658,8.64241543 12.260274,10.4569332 12.8742857,12.0948225 L13.0794521,12.6423707 L4.02183953,15.7996422 C3.52649706,14.9165753 2.42050881,14.4902516 1.41236791,14.841395 C0.302700587,15.2285435 -0.27334638,16.4135393 0.127514677,17.4835756 L2.08477495,22.7036259 C2.39937378,23.543064 3.22285714,24.0655521 4.09917808,24.0655521 C4.33980431,24.0655521 4.58536204,24.0263769 4.82450098,23.9428935 C5.36203523,23.7553956 5.79162427,23.3773805 6.03444227,22.8782164 C6.23131115,22.4731032 6.28610568,22.0278334 6.19553816,21.5970562 L15.2528376,18.4397847 L15.4550294,18.9791054 C15.1709589,19.9762259 15.1905284,21.0640006 15.5819178,22.1085994 C16.0060274,23.2393989 16.8046967,24.1728879 17.8589432,24.7841431 L14.9272016,30.9058289 L12.4155773,30.9058289 C11.1726027,30.9058289 10.1617221,31.8806067 10.1617221,33.0788873 C10.1617221,34.2774699 11.1729159,35.2525496 12.4155773,35.2525496 L12.8901761,35.2525496 C13.2179256,35.2525496 13.4843053,34.9960609 13.4843053,34.6796394 C13.4843053,34.3629913 13.2179256,34.1068046 12.8901761,34.1068046 L12.4155773,34.1068046 C11.8279452,34.1068046 11.3496673,33.64591 11.3496673,33.0788873 C11.3496673,32.5124685 11.8279452,32.0516494 12.4155773,32.0516494 L15.3036399,32.0516494 C15.3048924,32.0516494 15.3060665,32.0519514 15.307319,32.0519514 L25.9720548,32.0519514 C25.9733072,32.0519514 25.9744814,32.0516494 25.9757339,32.0516494 L28.8634051,32.0516494 C29.4511155,32.0516494 29.9287671,32.5124685 29.9287671,33.0788873 C29.9287671,33.64591 29.4511155,34.1068046 28.8634051,34.1068046 L16.2666145,34.1068046 C15.9385519,34.1068046 15.6724853,34.3629913 15.6724853,34.6796394 C15.6724853,34.9960609 15.9385519,35.2525496 16.2666145,35.2525496 L28.8634051,35.2525496 C30.1063796,35.2525496 31.1175734,34.2774699 31.1175734,33.0788873 C31.1175734,31.8806067 30.1060665,30.9058289 28.8634051,30.9058289 L26.3518591,30.9058289 L23.4200391,24.7841431 C25.518591,23.5631423 26.5313503,21.0719262 25.7571037,18.7567347 L36.0702153,15.1612888 C36.4673973,15.7445401 37.1468493,16.0924378 37.861135,16.0924378 C38.1020744,16.0924378 38.347319,16.0526587 38.5863796,15.9694772 C39.1239922,15.7819793 39.5535812,15.4042661 39.7963209,14.905102 C40.0391389,14.4059379 40.0657534,13.8457087 39.871546,13.3272966 Z M4.95843444,22.3916578 C4.85080235,22.6137266 4.65964775,22.782052 4.42058708,22.8652334 C3.92704501,23.0371065 3.38035225,22.7900531 3.20234834,22.3144395 L1.24508806,17.0943892 C1.06684932,16.6184736 1.32305284,16.0913056 1.8162818,15.9190551 C1.92297456,15.8822197 2.0318591,15.8645569 2.13886497,15.8645569 C2.52876712,15.8645569 2.89471624,16.0971932 3.03506849,16.4704529 L4.99201566,21.6902013 C5.078591,21.9207996 5.06669276,22.1699665 4.95843444,22.3916578 Z M5.81369863,20.5119989 L4.44837573,16.8696785 L13.4833659,13.7201062 L14.8489237,17.3624266 L5.81369863,20.5119989 Z M16.2362427,30.9061308 L18.9377691,25.2647386 C19.4896282,25.443707 20.0620744,25.5339083 20.6360078,25.5339083 C21.209002,25.5339083 21.7832485,25.4434051 22.3406654,25.2638328 L25.0431311,30.9058289 L16.2362427,30.9058289 L16.2362427,30.9061308 Z M22.063953,24.144884 C21.0194129,24.5090103 19.8911155,24.4618339 18.8832877,24.013092 C18.8832877,24.013092 18.8829746,24.01279 18.8827397,24.01279 C18.8824266,24.01279 18.8821135,24.0124881 18.8814873,24.0121862 C18.8744423,24.0092424 18.8673973,24.0066005 18.8606654,24.0033548 C17.8476712,23.5451775 17.0801566,22.7337434 16.6994912,21.719111 C15.9142857,19.6241767 17.0428963,17.3037014 19.2151076,16.5462371 C19.6838356,16.3828935 20.1636008,16.3056751 20.6353816,16.3056751 C22.3507632,16.3056751 23.9637573,17.3293654 24.5795695,18.972312 C25.364775,21.0669444 24.2361644,23.3877216 22.063953,24.144884 Z M38.7203131,14.418619 C38.612681,14.6406122 38.4216047,14.8087112 38.1824658,14.8918172 C37.689002,15.0636902 37.1422309,14.8166368 36.9639922,14.3410232 L32.4896282,2.40629857 C32.3113112,1.930383 32.5679061,1.40351691 33.0610568,1.23156835 C33.1675147,1.19412916 33.2763209,1.17676824 33.3834051,1.17676824 C33.773229,1.17676824 34.1395695,1.40940453 34.2796086,1.78236231 L38.7536595,13.7171624 C38.8402348,13.9473833 38.8285714,14.1968521 38.7203131,14.418619 Z" id="Fill-1" stroke="#1E1169" fill="#1E1169"></path>
                    <path d="M19.6761644,17.7760693 C18.9646184,18.0240285 18.3953033,18.5247023 18.0739726,19.1857758 C17.7525636,19.8462455 17.7177299,20.588085 17.9748728,21.2745205 C18.2320157,21.9608806 18.7512329,22.5096366 19.4364775,22.8194912 C19.8187084,22.9922701 20.2274755,23.0793011 20.6375734,23.0793011 C20.9625832,23.0793011 21.2882192,23.0247274 21.6028963,22.9150517 C22.314364,22.6670925 22.8837573,22.1664188 23.2050881,21.5056472 C23.526184,20.8451775 23.5613307,20.103338 23.3041879,19.4166005 C22.7727593,17.9998742 21.1454403,17.2636204 19.6761644,17.7760693 Z M22.1287671,21.0191641 C21.942544,21.4027649 21.6123679,21.693447 21.198591,21.8373917 C20.7855186,21.9815628 20.3387867,21.9617864 19.9409785,21.7816103 C19.5431703,21.6021135 19.2416438,21.2836539 19.0924462,20.8847302 C18.9429354,20.4863349 18.9634442,20.0555577 19.1499804,19.6719569 C19.3364384,19.2883562 19.6670059,18.997674 20.0803914,18.8537294 C20.2641879,18.789494 20.4525245,18.7590746 20.6378082,18.7590746 C21.3114677,18.7590746 21.9450489,19.1613195 22.1866145,19.8063908 C22.3361252,20.2047861 22.3156164,20.6355633 22.1287671,21.0191641 Z" id="Fill-3" stroke="#1E1169" fill="#1E1169"></path>
                    <path d="M1.44571429,8.98117976 L1.19037182,10.4162483 C1.11420744,10.8452893 1.29369863,11.2710092 1.65878669,11.5269695 C2.02418787,11.7829298 2.49972603,11.8162175 2.89933464,11.6133212 L4.23585127,10.9357926 L5.57213307,11.6133212 C5.74575342,11.7014845 5.9341683,11.7451887 6.12125245,11.7451887 C6.36438356,11.7451887 6.60626223,11.6714425 6.81228963,11.5269695 C7.1776908,11.2710092 7.35749511,10.8455913 7.28078278,10.4162483 L7.02575342,8.98117976 L8.10692759,7.96511322 C8.43013699,7.66114621 8.54418787,7.21504613 8.40477495,6.80079955 C8.26536204,6.38677942 7.9009002,6.0905116 7.4541683,6.02793682 L5.96015656,5.81832262 L5.29197652,4.51300811 C5.09205479,4.12261392 4.68751468,3.87963657 4.23585127,3.87963657 C3.78426614,3.87963657 3.37941292,4.12231199 3.17972603,4.51270618 L2.51131115,5.81832262 L1.01729941,6.02763489 C0.570254403,6.0905116 0.206105675,6.3864775 0.0666927593,6.80079955 C-0.073111546,7.2147442 0.0412524462,7.66084428 0.364774951,7.96488678 L1.44571429,8.98117976 Z M2.68774951,6.95176405 C3.07146771,6.89779424 3.40297456,6.66576181 3.57448141,6.33046967 L4.23585127,5.03874196 L4.8969863,6.33046967 C5.06880626,6.66576181 5.39992172,6.89779424 5.7837182,6.95176405 L7.26207436,7.15873637 L6.19217221,8.16446184 C5.91459883,8.42540397 5.78794521,8.80138105 5.85369863,9.16958345 L6.10598826,10.589631 L4.78379648,9.91912217 C4.61228963,9.83216662 4.42426614,9.78853788 4.23585127,9.78853788 C4.04751468,9.78853788 3.85917808,9.83216662 3.68759295,9.91912217 L2.36547945,10.589329 L2.6176908,9.169357 C2.68344423,8.80107912 2.55686888,8.42510204 2.27890411,8.16446184 L1.20931507,7.15843444 L2.68774951,6.95176405 Z" id="Fill-4" stroke="#28DCF0" fill="#28DCF0"></path>
                </g>
                <path d="M36.3331507,25.9420408 L34.8388258,25.7323511 L34.170411,24.4270366 C33.9710372,24.036416 33.5659491,23.7940425 33.1145988,23.7940425 C32.6630137,23.7940425 32.2581605,24.036416 32.0584736,24.4270366 L31.3900587,25.7323511 L29.8963601,25.9420408 C29.4493151,26.0042382 29.0848532,26.3005815 28.945362,26.71513 C28.8059491,27.1290746 28.92,27.5751747 29.2435225,27.8792172 L30.3244618,28.8952838 L30.0694325,30.3302768 C29.992955,30.7593179 30.1724462,31.1851132 30.5378474,31.440998 C30.7442661,31.5854711 30.9858317,31.6592172 31.2288845,31.6592172 C31.416047,31.6592172 31.6043836,31.6155885 31.7783953,31.5274252 L33.1145988,30.8498211 L34.4511155,31.5274252 C34.8508023,31.7299441 35.3262622,31.6969583 35.6913503,31.4406961 C36.0564384,31.1851132 36.2362427,30.7593179 36.1597652,30.3302768 L35.904501,28.8952838 L36.9856751,27.8789153 C37.3088845,27.5751747 37.4232485,27.1290746 37.2835225,26.7148281 C37.1441096,26.3005815 36.7798826,26.0045401 36.3331507,25.9420408 Z M35.0712329,28.0787923 C34.7932681,28.3394325 34.6666928,28.7151076 34.7324462,29.0839894 L34.9850489,30.5039614 L33.6628571,29.8334526 C33.4910372,29.7464971 33.3029354,29.7028683 33.1145988,29.7028683 C32.9262622,29.7028683 32.7381605,29.7464971 32.5666536,29.8334526 L31.244227,30.5036595 L31.4964384,29.0839894 C31.5621918,28.7151076 31.4356164,28.3394325 31.1582779,28.0787923 L30.0883757,27.0727649 L31.5668102,26.8657926 C31.9505284,26.8121247 32.2816438,26.5797903 32.4535421,26.2444982 L33.1145988,24.9524685 L33.7759687,26.2444982 C33.9475538,26.5797903 34.2792955,26.8121247 34.6627006,26.8657926 L36.141135,27.0727649 L35.0712329,28.0787923 Z" id="Fill-6" stroke="#28DCF0" fill="#28DCF0"></path>
                <path d="M15.2335812,5.17702544 L14.978317,6.611792 C14.9021526,7.04105955 15.0813307,7.46655298 15.4467319,7.72273973 C15.6534638,7.86728823 15.8947162,7.94067548 16.1380822,7.94067548 C16.3255577,7.94067548 16.5132681,7.89733016 16.6872798,7.80886497 L18.0237965,7.13156276 L19.36,7.80886497 C19.76,8.01176125 20.2351468,7.9783981 20.6002348,7.72273973 C20.965636,7.46655298 21.1454403,7.04105955 21.0686497,6.611792 L20.8136986,5.17702544 L21.8948728,4.16035505 C22.2183953,3.85638803 22.3321331,3.41028795 22.1927202,2.99626782 C22.053229,2.58232318 21.6887671,2.28597987 21.2420352,2.22317864 L19.7480235,2.0141683 L19.0799217,0.70824993 C18.8799217,0.317855745 18.4753816,0.0751803187 18.0237965,0.0751803187 C17.5721331,0.0751803187 17.167045,0.317855745 16.9673581,0.70824993 L16.2992564,2.0141683 L14.8052446,2.22317864 C14.3581996,2.28597987 13.9937378,2.58202125 13.8542466,2.99626782 C13.7148337,3.41028795 13.8291977,3.85638803 14.1520939,4.16035505 L15.2335812,5.17702544 Z M16.4756947,3.14723232 C16.8594129,3.09326251 17.1908415,2.86123008 17.3624266,2.52601342 L18.0237965,1.23428571 L18.6845401,2.52601342 C18.8564384,2.86123008 19.1878669,3.09326251 19.5715851,3.14723232 L21.0500196,3.35450657 L19.9801174,4.36000559 C19.7027789,4.62094772 19.5762035,4.99654739 19.6413307,5.3651272 L19.8939335,6.78517473 L18.5717417,6.11466592 C18.4001566,6.02793682 18.21182,5.98430808 18.0237965,5.98430808 C17.8354599,5.98430808 17.647045,6.02793682 17.4755382,6.11466592 L16.1533464,6.78517473 L16.405636,5.3651272 C16.4710763,4.99684932 16.344501,4.62094772 16.0668493,4.36000559 L14.9972603,3.35450657 L16.4756947,3.14723232 Z" id="Fill-7" stroke="#28DCF0" fill="#28DCF0"></path>
            </g>
        </g>
    </g>
</svg>