<?xml version="1.0" encoding="UTF-8"?>
<svg width="48px" height="48px" viewBox="0 0 48 48" version="1.1" xmlns="http://www.w3.org/2000/svg" xmlns:xlink="http://www.w3.org/1999/xlink">
    <title>icone/48x48/alaune_48_bicolore</title>
    <g id="icone/48x48/alaune_48_bicolore" stroke="none" stroke-width="1" fill="none" fill-rule="evenodd">
        <g id="Group-6" transform="translate(4.000025, 2.075180)">
            <g id="Group-5" transform="translate(0.000000, 5.276770)">
                <path d="M39.8715209,13.2965651 L35.3968438,1.36214243 C34.9959828,0.292106091 33.7670982,-0.263971628 32.6571178,0.12317682 C31.7083115,0.454015512 31.1502685,1.36833198 31.2588399,2.29563139 L28.7967655,3.15371358 C28.4882724,3.26127579 28.3285855,3.58977453 28.4398967,3.88725007 C28.5515209,4.18510302 28.8921863,4.33901132 29.2006794,4.23137363 L31.6074113,3.39223749 L35.611247,14.0720697 L25.269016,17.6777812 C23.98111,15.5737136 21.2790356,14.5777253 18.8114035,15.4381475 C17.6825581,15.8314855 16.7737518,16.5538506 16.1582528,17.4522403 L13.9915209,11.6743007 C13.6004446,10.6305321 14.1627929,9.47414411 15.2455327,9.09643094 L25.269016,5.67130397 C25.5778223,5.56366629 25.7374309,5.23524303 25.6254935,4.93769201 C25.5142607,4.64021647 25.1732822,4.48630817 24.864789,4.59394585 L14.8413057,8.01907282 C13.1424407,8.61168395 12.2602489,10.4262017 12.8742607,12.064091 L13.079427,12.6116392 L4.02181447,15.7689107 C3.52647201,14.8858439 2.42048375,14.4595201 1.41234285,14.8106635 C0.302675528,15.197812 -0.273371439,16.3828078 0.127489618,17.4528441 L2.08474989,22.6728945 C2.39934872,23.5123325 3.22283208,24.0348207 4.09915302,24.0348207 C4.33977925,24.0348207 4.58533698,23.9956454 4.82447592,23.912162 C5.36201017,23.7246641 5.79159921,23.346649 6.03441721,22.8474849 C6.2312861,22.4423717 6.28608062,21.9971019 6.1955131,21.5663247 L15.2528125,18.4090533 L15.4550043,18.9483739 C15.1709338,19.9454944 15.1905033,21.0332691 15.5818927,22.0778679 C16.0060023,23.2086675 16.8046716,24.1421564 17.8589182,24.7534117 L14.9271765,30.8750974 L12.4155522,30.8750974 C11.1725777,30.8750974 10.1616971,31.8498752 10.1616971,33.0481559 C10.1616971,34.2467385 11.1728908,35.2218181 12.4155522,35.2218181 L12.8901511,35.2218181 C13.2179006,35.2218181 13.4842802,34.9653295 13.4842802,34.6489079 C13.4842802,34.3322599 13.2179006,34.0760731 12.8901511,34.0760731 L12.4155522,34.0760731 C11.8279201,34.0760731 11.3496423,33.6151785 11.3496423,33.0481559 C11.3496423,32.4817371 11.8279201,32.0209179 12.4155522,32.0209179 L15.3036149,32.0209179 C15.3048673,32.0209179 15.3060415,32.0212199 15.3072939,32.0212199 L25.9720297,32.0212199 C25.9732822,32.0212199 25.9744563,32.0209179 25.9757088,32.0209179 L28.86338,32.0209179 C29.4510904,32.0209179 29.9287421,32.4817371 29.9287421,33.0481559 C29.9287421,33.6151785 29.4510904,34.0760731 28.86338,34.0760731 L16.2665894,34.0760731 C15.9385268,34.0760731 15.6724603,34.3322599 15.6724603,34.6489079 C15.6724603,34.9653295 15.9385268,35.2218181 16.2665894,35.2218181 L28.86338,35.2218181 C30.1063546,35.2218181 31.1175483,34.2467385 31.1175483,33.0481559 C31.1175483,31.8498752 30.1060415,30.8750974 28.86338,30.8750974 L26.351834,30.8750974 L23.4200141,24.7534117 C25.5185659,23.5324108 26.5313252,21.0411947 25.7570787,18.7260032 L36.0701902,15.1305573 C36.4673722,15.7138086 37.1468243,16.0617063 37.86111,16.0617063 C38.1020493,16.0617063 38.3472939,16.0219272 38.5863546,15.9387457 C39.1239671,15.7512478 39.5535562,15.3735347 39.7962959,14.8743706 C40.0391139,14.3752065 40.0657284,13.8149772 39.8715209,13.2965651 Z M4.95840938,22.3609263 C4.85077729,22.5829951 4.65962269,22.7513205 4.42056203,22.834502 C3.92701995,23.006375 3.38032719,22.7593216 3.20232328,22.283708 L1.245063,17.0636577 C1.06682426,16.5877421 1.32302778,16.0605741 1.81625674,15.8883236 C1.9229495,15.8514883 2.03183404,15.8338254 2.13883991,15.8338254 C2.52874206,15.8338254 2.89469118,16.0664617 3.03504343,16.4397214 L4.9919906,21.6594698 C5.07856594,21.8900681 5.0666677,22.139235 4.95840938,22.3609263 Z M5.81367357,20.4812674 L4.44835067,16.838947 L13.4833409,13.6893748 L14.8488986,17.3316951 L5.81367357,20.4812674 Z M16.2362176,30.8753994 L18.937744,25.2340071 C19.4896031,25.4129755 20.0620493,25.5031768 20.6359828,25.5031768 C21.2089769,25.5031768 21.7832235,25.4126736 22.3406403,25.2331013 L25.0431061,30.8750974 L16.2362176,30.8750974 L16.2362176,30.8753994 Z M22.063928,24.1141525 C21.0193879,24.4782789 19.8910904,24.4311025 18.8832626,23.9823605 C18.8832626,23.9823605 18.8829495,23.9820586 18.8827147,23.9820586 C18.8824016,23.9820586 18.8820884,23.9817566 18.8814622,23.9814547 C18.8744172,23.9785109 18.8673722,23.975869 18.8606403,23.9726233 C17.8476462,23.514446 17.0801315,22.7030119 16.6994661,21.6883795 C15.9142607,19.5934452 17.0428712,17.2729699 19.2150826,16.5155056 C19.6838106,16.352162 20.1635757,16.2749437 20.6353565,16.2749437 C22.3507382,16.2749437 23.9637323,17.2986339 24.5795444,18.9415805 C25.3647499,21.0362129 24.2361393,23.3569901 22.063928,24.1141525 Z M38.7202881,14.3878875 C38.612656,14.6098808 38.4215796,14.7779797 38.1824407,14.8610857 C37.6889769,15.0329588 37.1422059,14.7859054 36.9639671,14.3102917 L32.4896031,2.37556709 C32.3112861,1.89965152 32.567881,1.37278543 33.0610317,1.20083687 C33.1674896,1.16339768 33.2762959,1.14603676 33.38338,1.14603676 C33.7732039,1.14603676 34.1395444,1.37867305 34.2795836,1.75163083 L38.7536344,13.6864309 C38.8402098,13.9166518 38.8285464,14.1661206 38.7202881,14.3878875 Z" id="Fill-1" stroke="#1E1169" stroke-width="0.5" fill="#1E1169"></path>
                <path d="M19.6761393,17.7453378 C18.9645933,17.993297 18.3952783,18.4939708 18.0739475,19.1550443 C17.7525385,19.815514 17.7177049,20.5573535 17.9748477,21.2437891 C18.2319906,21.9301491 18.7512078,22.4789051 19.4364524,22.7887597 C19.8186834,22.9615386 20.2274505,23.0485696 20.6375483,23.0485696 C20.9625581,23.0485696 21.2881941,22.9939959 21.6028712,22.8843202 C22.3143389,22.6363611 22.8837323,22.1356873 23.205063,21.4749157 C23.5261589,20.814446 23.5613057,20.0726065 23.3041628,19.385869 C22.7727342,17.9691427 21.1454153,17.2328889 19.6761393,17.7453378 Z M22.1287421,20.9884326 C21.942519,21.3720334 21.6123428,21.6627155 21.1985659,21.8066602 C20.7854935,21.9508313 20.3387616,21.9310549 19.9409534,21.7508788 C19.5431452,21.571382 19.2416188,21.2529224 19.0924211,20.8539987 C18.9429104,20.4556034 18.9634192,20.0248262 19.1499554,19.6412255 C19.3364133,19.2576247 19.6669808,18.9669425 20.0803663,18.8229979 C20.2641628,18.7587625 20.4524994,18.7283432 20.6377832,18.7283432 C21.3114427,18.7283432 21.9450239,19.1305881 22.1865894,19.7756593 C22.3361002,20.1740547 22.3155914,20.6048318 22.1287421,20.9884326 Z" id="Fill-3" stroke="#1E1169" stroke-width="0.5" fill="#1E1169"></path>
                <path d="M1.44568923,8.95044828 L1.19034676,10.3855168 C1.11418238,10.8145579 1.29367357,11.2402777 1.65876163,11.496238 C2.02416281,11.7521983 2.49970097,11.785486 2.89930958,11.5825897 L4.23582621,10.9050611 L5.57210801,11.5825897 C5.74572837,11.670753 5.93414324,11.7144572 6.12122739,11.7144572 C6.3643585,11.7144572 6.60623717,11.6407111 6.81226457,11.496238 C7.17766574,11.2402777 7.35747005,10.8148598 7.28075772,10.3855168 L7.02572837,8.95044828 L8.10690253,7.93438174 C8.43011193,7.63041473 8.54416281,7.18431465 8.40474989,6.77006807 C8.26533698,6.35604794 7.90087514,6.05978012 7.45414324,5.99720534 L5.9601315,5.78759113 L5.29195146,4.48227662 C5.09202974,4.09188244 4.68748962,3.84890508 4.23582621,3.84890508 C3.78424109,3.84890508 3.37938786,4.09158051 3.17970097,4.4819747 L2.5112861,5.78759113 L1.01727435,5.99690341 C0.570229344,6.05978012 0.206080616,6.35574601 0.0666677002,6.77006807 C-0.0731366051,7.18401272 0.0412273871,7.6301128 0.364749892,7.93415529 L1.44568923,8.95044828 Z M2.68772445,6.92103257 C3.07144265,6.86706276 3.4029495,6.63503033 3.57445635,6.29973818 L4.23582621,5.00801048 L4.89696124,6.29973818 C5.0687812,6.63503033 5.39989666,6.86706276 5.78369314,6.92103257 L7.2620493,7.12800489 L6.19214715,8.13373036 C5.91457377,8.39467249 5.78792015,8.77064956 5.85367357,9.13885197 L6.1059632,10.5588995 L4.78377142,9.88839069 C4.61226457,9.80143514 4.42424109,9.7578064 4.23582621,9.7578064 C4.04748962,9.7578064 3.85915302,9.80143514 3.6875679,9.88839069 L2.36545439,10.5585976 L2.61766574,9.13862552 C2.68341917,8.77034763 2.55684383,8.39437056 2.27887905,8.13373036 L1.20929001,7.12770296 L2.68772445,6.92103257 Z" id="Fill-4" stroke="#28DCF0" stroke-width="0.2" fill="#28DCF0"></path>
            </g>
            <path d="M36.3331256,27.8668605 L34.8388008,27.6571708 L34.1703859,26.3518563 C33.9710121,25.9612357 33.5659241,25.7188622 33.1145738,25.7188622 C32.6629886,25.7188622 32.2581354,25.9612357 32.0584485,26.3518563 L31.3900336,27.6571708 L29.896335,27.8668605 C29.44929,27.9290579 29.0848282,28.2254012 28.945337,28.6399497 C28.8059241,29.0538943 28.9199749,29.4999944 29.2434974,29.8040369 L30.3244368,30.8201034 L30.0694074,32.2550964 C29.9929299,32.6841375 30.1724211,33.1099329 30.5378223,33.3658177 C30.7442411,33.5102907 30.9858066,33.5840369 31.2288595,33.5840369 C31.4160219,33.5840369 31.6043585,33.5404082 31.7783702,33.4522449 L33.1145738,32.7746408 L34.4510904,33.4522449 C34.8507773,33.6547638 35.3262372,33.621778 35.6913252,33.3655158 C36.0564133,33.1099329 36.2362176,32.6841375 36.1597401,32.2550964 L35.9044759,30.8201034 L36.9856501,29.803735 C37.3088595,29.4999944 37.4232235,29.0538943 37.2834974,28.6396477 C37.1440845,28.2254012 36.7798575,27.9293598 36.3331256,27.8668605 Z M35.0712078,30.003612 C34.793243,30.2642522 34.6666677,30.6399273 34.7324211,31.0088091 L34.9850239,32.4287811 L33.6628321,31.7582723 C33.4910121,31.6713167 33.3029104,31.627688 33.1145738,31.627688 C32.9262372,31.627688 32.7381354,31.6713167 32.5666286,31.7582723 L31.2442019,32.4284792 L31.4964133,31.0088091 C31.5621667,30.6399273 31.4355914,30.2642522 31.1582528,30.003612 L30.0883507,28.9975846 L31.5667851,28.7906122 C31.9505033,28.7369444 32.2816188,28.50461 32.453517,28.1693179 L33.1145738,26.8772882 L33.7759436,28.1693179 C33.9475288,28.50461 34.2792704,28.7369444 34.6626755,28.7906122 L36.14111,28.9975846 L35.0712078,30.003612 Z" id="Fill-6" stroke="#28DCF0" stroke-width="0.2" fill="#28DCF0"></path>
            <path d="M16.2335562,5.10184512 L15.978292,6.53661169 C15.9021276,6.96587923 16.0813057,7.39137266 16.4467068,7.64755941 C16.6534387,7.79210791 16.8946912,7.86549516 17.1380571,7.86549516 C17.3255327,7.86549516 17.513243,7.82214985 17.6872548,7.73368465 L19.0237714,7.05638244 L20.3599749,7.73368465 C20.7599749,7.93658093 21.2351217,7.90321778 21.6002098,7.64755941 C21.9656109,7.39137266 22.1454153,6.96587923 22.0686246,6.53661169 L21.8136736,5.10184512 L22.8948477,4.08517473 C23.2183702,3.78120772 23.332108,3.33510763 23.1926951,2.9210875 C23.0532039,2.50714286 22.6887421,2.21079955 22.2420102,2.14799832 L20.7479984,1.93898798 L20.0798967,0.633069611 C19.8798967,0.242675426 19.4753565,0 19.0237714,0 C18.572108,0 18.16702,0.242675426 17.9673331,0.633069611 L17.2992313,1.93898798 L15.8052196,2.14799832 C15.3581745,2.21079955 14.9937127,2.50684093 14.8542215,2.9210875 C14.7148086,3.33510763 14.8291726,3.78120772 15.1520689,4.08517473 L16.2335562,5.10184512 Z M17.4756697,3.072052 C17.8593879,3.01808219 18.1908164,2.78604976 18.3624016,2.4508331 L19.0237714,1.1591054 L19.6845151,2.4508331 C19.8564133,2.78604976 20.1878419,3.01808219 20.5715601,3.072052 L22.0499945,3.27932625 L20.9800924,4.28482527 C20.7027538,4.5457674 20.5761785,4.92136707 20.6413057,5.28994688 L20.8939084,6.70999441 L19.5717166,6.0394856 C19.4001315,5.9527565 19.2117949,5.90912776 19.0237714,5.90912776 C18.8354348,5.90912776 18.64702,5.9527565 18.4755131,6.0394856 L17.1533213,6.70999441 L17.4056109,5.28994688 C17.4710513,4.921669 17.3444759,4.5457674 17.0668243,4.28482527 L15.9972352,3.27932625 L17.4756697,3.072052 Z" id="Fill-7" stroke="#28DCF0" stroke-width="0.2" fill="#28DCF0"></path>
        </g>
    </g>
</svg>