<?xml version="1.0" encoding="UTF-8"?>
<svg width="48px" height="48px" viewBox="0 0 48 48" version="1.1" xmlns="http://www.w3.org/2000/svg" xmlns:xlink="http://www.w3.org/1999/xlink">
    <title>icone/48x48/art_48_bicolore</title>
    <g id="icone/48x48/art_48_bicolore" stroke="none" stroke-width="1" fill="none" fill-rule="evenodd">
        <g id="noun_Brush_50478" transform="translate(6.000000, 5.999995)" fill="#1E1169" fill-rule="nonzero">
            <path d="M2.5352,27.5660054 C0.56,29.5392054 0.17,33.8408054 0.1312,34.3244054 L0,36 L1.6752,35.8680054 C2.1604,35.8288054 6.4696,35.4324054 8.4332,33.4700054 C9.7372,32.1656054 10.4364,30.5908054 10.4732,29.1736054 L11.0756,28.7032054 C13.984,26.4408054 18.5168,22.2948054 23.1988,17.6164054 C26.7436,14.0720054 30.0592,10.4216054 32.5356,7.33800544 C35.6268,3.48640544 36.7244,1.68320544 35.526,0.484405439 C34.3128,-0.729994561 32.5096,0.367605439 28.6572,3.45520544 C25.568,5.93200544 21.916,9.24560544 18.3736,12.7856054 C13.686,17.4708054 9.5384,22.0004054 7.278,24.9032054 L6.7872,25.5296054 C5.3828,25.5780054 3.8248,26.2756054 2.5352,27.5660054 Z M12.0744,21.9416054 L14.0408,23.9088054 C12.6,25.1948054 11.3016,26.3000054 10.2184,27.1528054 L8.8264,25.7600054 C9.6812,24.6788054 10.7856,23.3816054 12.0744,21.9416054 Z M21.9624,16.3796054 C19.4576,18.8828054 17.0012,21.2276054 14.8204,23.2056054 L12.7776,21.1620054 C14.7564,18.9832054 17.1024,16.5280054 19.6088,14.0224054 C23.1072,10.5260054 26.7088,7.25760544 29.75,4.81960544 C32.6996,2.45600544 33.8216,1.89200544 34.2284,1.76640544 C34.1028,2.17320544 33.5392,3.29440544 31.1728,6.24360544 C28.7348,9.27920544 25.4644,12.8792054 21.9624,16.3796054 Z M3.7704,28.8032054 C5.2964,27.2768054 7.308,26.8056054 8.2528,27.7508054 C9.1972,28.6952054 8.7236,30.7072054 7.1972,32.2332054 C6.0592,33.3700054 3.4288,33.9192054 1.9108,34.0892054 C2.0672,32.7352054 2.5996,29.9728054 3.7704,28.8032054 Z" id="Shape"></path>
        </g>
        <path d="M44,21.0001214 C44,19.895526 43.1045283,19 42,19 C40.8954717,19 40,19.895526 40,21.0001214 C40,22.1047168 40.8954717,23 42,23 C43.1045283,23 44,22.1047168 44,21.0001214 Z" id="Stroke-1-Copy-3" stroke="#28DCF0" stroke-width="2" stroke-linecap="round" stroke-linejoin="round"></path>
        <g id="Group-8-Copy-2" transform="translate(27.750000, 43.208333) rotate(-19.000000) translate(-27.750000, -43.208333) translate(25.833333, 41.291667)" stroke="#28DCF0" stroke-linecap="round" stroke-linejoin="round" stroke-width="2">
            <line x1="1.91666667" y1="4.54747766e-13" x2="1.91666667" y2="3.83333333" id="Stroke-1"></line>
            <line x1="3.83333333" y1="1.91666667" x2="0" y2="1.91666667" id="Stroke-3"></line>
        </g>
        <path d="M9.08253547,4.15877982 C9.2247716,4.00189057 9.52743477,3.95297907 9.75855259,4.04953294 C11.390114,4.73114877 11.4110315,6.32907888 9.83575907,7.02770526 L9.75632001,7.06201014 C8.74545188,7.48427119 8.72771735,8.47178919 9.68520612,8.90689194 L9.73743299,8.92966619 L9.75855259,8.93801018 C11.390114,9.61962602 11.4110315,11.2175561 9.83575907,11.9161825 L9.77136601,11.9439434 C9.54556503,12.0461301 9.24048527,12.0047107 9.08995128,11.8514307 C8.946944,11.7058147 8.99486053,11.5116291 9.19360582,11.4049623 L9.22623423,11.3888673 L9.24352564,11.3813083 C10.2545903,10.9590425 10.2723283,9.97156131 9.31461742,9.53644174 L9.26237844,9.51366654 L9.24122461,9.50530824 C7.60995077,8.82368767 7.58903701,7.22579473 9.16406212,6.52715093 L9.24352564,6.49283104 C10.272645,6.06302482 10.272645,5.04763665 9.24347002,4.61767919 C9.0123522,4.52112533 8.94029935,4.31566908 9.08253547,4.15877982 Z" id="Stroke-1-Copy-4" stroke="#28DCF0" fill="#28DCF0" fill-rule="nonzero" transform="translate(9.500000, 8.000000) rotate(-132.000000) translate(-9.500000, -8.000000) "></path>
    </g>
</svg>