<?xml version="1.0" encoding="UTF-8"?>
<svg width="48px" height="48px" viewBox="0 0 48 48" version="1.1" xmlns="http://www.w3.org/2000/svg" xmlns:xlink="http://www.w3.org/1999/xlink">
    <title>icone/48x48/challenge_48_bicolore</title>
    <g id="icone/48x48/challenge_48_bicolore" stroke="none" stroke-width="1" fill="none" fill-rule="evenodd">
        <g id="002-trendy" transform="translate(4.500000, 6.863449)" fill="#0B554B" stroke="#0B554B" stroke-width="0.1">
            <path d="M30.27168,30.1335467 L32.8044178,30.1335467 C33.07712,30.1335467 33.3272356,29.9822844 33.4536622,29.7408711 C33.58048,29.4991644 33.5625867,29.2072978 33.40712,28.9830933 L26.8754667,19.54832 C26.7383822,19.3505156 26.5130044,19.2324978 26.2723733,19.2324978 C26.0317422,19.2324978 25.8063644,19.3505156 25.6696711,19.54832 L23.7401244,22.3353778 L23.7401244,10.9015378 L26.2723733,10.9015378 C26.5450756,10.9015378 26.7952889,10.7502756 26.9221067,10.5084711 C27.0485333,10.2670578 27.0305422,9.97489778 26.8754667,9.75069333 L20.3438133,0.31592 C20.2067289,0.118115556 19.9813511,0 19.74072,0 C19.5000889,0 19.2748089,0.118115556 19.1380178,0.31592 L12.6063644,9.75069333 C12.4509956,9.97489778 12.4330044,10.2670578 12.5594311,10.5084711 C12.6862489,10.7502756 12.9363644,10.9015378 13.2091644,10.9015378 L15.7418044,10.9015378 L15.7418044,15.4408711 L13.8122578,12.65352 C13.6750756,12.4560089 13.4496978,12.3376 13.2091644,12.3376 C12.9685333,12.3376 12.7431556,12.4556178 12.6060711,12.65352 L6.07441778,22.0882933 C5.91934222,22.3124978 5.90135111,22.6046578 6.02777778,22.8460711 C6.15459556,23.0877778 6.40480889,23.23904 6.67751111,23.23904 L9.20976,23.23904 L9.20976,34.1099733 L0.733333333,34.1099733 C0.328324517,34.1099733 -4.95992751e-17,34.4382979 0,34.8433067 C4.95992751e-17,35.2483155 0.328324517,35.57664 0.733333333,35.57664 L38.7481067,35.57664 C39.1531155,35.57664 39.48144,35.2483155 39.48144,34.8433067 C39.48144,34.4382979 39.1531155,34.1099733 38.7481067,34.1099733 L30.27168,34.1099733 L30.27168,34.1099733 L30.27168,30.1335467 Z M15.7418044,22.5057067 L15.7418044,34.1103644 L10.6764267,34.1103644 L10.6764267,22.5057067 C10.6764267,22.1009067 10.3483822,21.7723733 9.94309333,21.7723733 L8.07690667,21.7723733 L13.2091644,14.3596444 L18.3413244,21.7723733 L16.4751378,21.7723733 C16.0698489,21.7723733 15.7418044,22.1009067 15.7418044,22.5057067 Z M22.2734578,34.1103644 L17.2084711,34.1103644 L17.2084711,23.23904 L19.74072,23.23904 C20.0134222,23.23904 20.2640267,23.0877778 20.3904533,22.8460711 C20.51688,22.6046578 20.4988889,22.3128889 20.3438133,22.0882933 L17.2084711,17.55952 L17.2084711,10.1682044 C17.2084711,9.76330667 16.8799378,9.43487111 16.4751378,9.43487111 L14.6089511,9.43487111 L19.74072,2.02165333 L24.8729778,9.43487111 L23.0067911,9.43487111 C22.6018933,9.43487111 22.2734578,9.76330667 22.2734578,10.1682044 L22.2734578,24.4540267 L19.1380178,28.9830933 C18.9825511,29.2072978 18.9646578,29.4991644 19.0914756,29.7408711 C19.2179022,29.9822844 19.4680178,30.1335467 19.74072,30.1335467 L22.2734578,30.1335467 L22.2734578,34.1103644 Z M28.8050133,29.4002133 L28.8050133,34.1103644 L23.7401244,34.1103644 L23.7401244,29.4002133 C23.7401244,28.9953156 23.4115911,28.66688 23.0067911,28.66688 L21.1406044,28.66688 L26.2723733,21.2541511 L31.4045333,28.66688 L29.5383467,28.66688 C29.1335467,28.66688 28.8050133,28.9953156 28.8050133,29.4002133 Z" id="Fill-1"></path>
        </g>
        <circle id="Oval" stroke="#FFCE00" stroke-width="1.5" cx="40.5" cy="7.5" r="2.75"></circle>
        <rect id="Rectangle" stroke="#FFCE00" stroke-width="1.5" transform="translate(6.000000, 17.000000) rotate(29.000000) translate(-6.000000, -17.000000) " x="4.25" y="15.25" width="3.5" height="3.5" rx="0.5"></rect>
        <path d="M41.2140132,28.0180411 L43.7760929,31.5543408 L38.9668029,31.6164581 L41.2140132,28.0180411 Z" id="Triangle" stroke="#FFCE00" stroke-width="1.5" transform="translate(41.369511, 29.373557) rotate(-41.000000) translate(-41.369511, -29.373557) "></path>
    </g>
</svg>