<?xml version="1.0" encoding="UTF-8"?>
<svg width="48px" height="48px" viewBox="0 0 48 48" version="1.1" xmlns="http://www.w3.org/2000/svg" xmlns:xlink="http://www.w3.org/1999/xlink">
    <title>icone/48x48/challenge_48_bicolore</title>
    <g id="icone/48x48/challenge_48_bicolore" stroke="none" stroke-width="1" fill="none" fill-rule="evenodd">
        <g id="002-trendy" transform="translate(4.500000, 4.500000)" stroke-width="0.1">
            <path d="M30.27168,32.4969956 L32.8044178,32.4969956 C33.07712,32.4969956 33.3272356,32.3457333 33.4536622,32.10432 C33.58048,31.8626133 33.5625867,31.5707467 33.40712,31.3465422 L26.8754667,21.9117689 C26.7383822,21.7139644 26.5130044,21.5959467 26.2723733,21.5959467 C26.0317422,21.5959467 25.8063644,21.7139644 25.6696711,21.9117689 L23.7401244,24.6988267 L23.7401244,13.2649867 L26.2723733,13.2649867 C26.5450756,13.2649867 26.7952889,13.1137244 26.9221067,12.87192 C27.0485333,12.6305067 27.0305422,12.3383467 26.8754667,12.1141422 L20.3438133,2.67936889 C20.2067289,2.48156444 19.9813511,2.36344889 19.74072,2.36344889 C19.5000889,2.36344889 19.2748089,2.48156444 19.1380178,2.67936889 L12.6063644,12.1141422 C12.4509956,12.3383467 12.4330044,12.6305067 12.5594311,12.87192 C12.6862489,13.1137244 12.9363644,13.2649867 13.2091644,13.2649867 L15.7418044,13.2649867 L15.7418044,17.80432 L13.8122578,15.0169689 C13.6750756,14.8194578 13.4496978,14.7010489 13.2091644,14.7010489 C12.9685333,14.7010489 12.7431556,14.8190667 12.6060711,15.0169689 L6.07441778,24.4517422 C5.91934222,24.6759467 5.90135111,24.9681067 6.02777778,25.20952 C6.15459556,25.4512267 6.40480889,25.6024889 6.67751111,25.6024889 L9.20976,25.6024889 L9.20976,36.4734222 L0.733333333,36.4734222 C0.328324517,36.4734222 -4.95992751e-17,36.8017467 0,37.2067556 C4.95992751e-17,37.6117644 0.328324517,37.9400889 0.733333333,37.9400889 L38.7481067,37.9400889 C39.1531155,37.9400889 39.48144,37.6117644 39.48144,37.2067556 C39.48144,36.8017467 39.1531155,36.4734222 38.7481067,36.4734222 L30.27168,36.4734222 L30.27168,36.4734222 L30.27168,32.4969956 Z M15.7418044,24.8691556 L15.7418044,36.4738133 L10.6764267,36.4738133 L10.6764267,24.8691556 C10.6764267,24.4643556 10.3483822,24.1358222 9.94309333,24.1358222 L8.07690667,24.1358222 L13.2091644,16.7230933 L18.3413244,24.1358222 L16.4751378,24.1358222 C16.0698489,24.1358222 15.7418044,24.4643556 15.7418044,24.8691556 Z M22.2734578,36.4738133 L17.2084711,36.4738133 L17.2084711,25.6024889 L19.74072,25.6024889 C20.0134222,25.6024889 20.2640267,25.4512267 20.3904533,25.20952 C20.51688,24.9681067 20.4988889,24.6763378 20.3438133,24.4517422 L17.2084711,19.9229689 L17.2084711,12.5316533 C17.2084711,12.1267556 16.8799378,11.79832 16.4751378,11.79832 L14.6089511,11.79832 L19.74072,4.38510222 L24.8729778,11.79832 L23.0067911,11.79832 C22.6018933,11.79832 22.2734578,12.1267556 22.2734578,12.5316533 L22.2734578,26.8174756 L19.1380178,31.3465422 C18.9825511,31.5707467 18.9646578,31.8626133 19.0914756,32.10432 C19.2179022,32.3457333 19.4680178,32.4969956 19.74072,32.4969956 L22.2734578,32.4969956 L22.2734578,36.4738133 Z M28.8050133,31.7636622 L28.8050133,36.4738133 L23.7401244,36.4738133 L23.7401244,31.7636622 C23.7401244,31.3587644 23.4115911,31.0303289 23.0067911,31.0303289 L21.1406044,31.0303289 L26.2723733,23.6176 L31.4045333,31.0303289 L29.5383467,31.0303289 C29.1335467,31.0303289 28.8050133,31.3587644 28.8050133,31.7636622 Z" id="Fill-1" stroke="#1E1169" fill="#1E1169"></path>
            <path d="M30.3689511,17.9823733 L30.7165511,17.9823733 L30.7165511,17.9823733 L30.7165511,18.3298756 C30.7165511,18.7348844 31.0448756,19.0632089 31.4498844,19.0632089 C31.8548933,19.0632089 32.1832178,18.7348844 32.1832178,18.3298756 L32.1832178,17.9823733 L32.1832178,17.9823733 L32.53072,17.9823733 C32.9357288,17.9823733 33.2640533,17.6540488 33.2640533,17.24904 C33.2640533,16.8440312 32.9357288,16.5157067 32.53072,16.5157067 L32.1832178,16.5157067 L32.1832178,16.5157067 L32.1832178,16.1677156 C32.1832178,15.7627067 31.8548933,15.4343822 31.4498844,15.4343822 C31.0448756,15.4343822 30.7165511,15.7627067 30.7165511,16.1677156 L30.7165511,16.5157067 L30.7165511,16.5157067 L30.3689511,16.5157067 C29.9639423,16.5157067 29.6356178,16.8440312 29.6356178,17.24904 C29.6356178,17.6540488 29.9639423,17.9823733 30.3689511,17.9823733 Z" id="Fill-2" stroke="#28DCF0" fill="#28DCF0"></path>
            <path d="M28.4012,3.62843556 C28.8062088,3.62843556 29.1345333,3.30011104 29.1345333,2.89510222 L29.1345333,2.5476 L29.1345333,2.5476 L29.4825244,2.5476 C29.8875333,2.5476 30.2158578,2.21927548 30.2158578,1.81426667 C30.2158578,1.40925785 29.8875333,1.08093333 29.4825244,1.08093333 L29.1345333,1.08093333 L29.1345333,1.08093333 L29.1345333,0.733333333 C29.1345333,0.328324517 28.8062088,-7.43989126e-17 28.4012,0 C27.9961912,7.43989126e-17 27.6678667,0.328324517 27.6678667,0.733333333 L27.6678667,1.08093333 L27.6678667,1.08093333 L27.3203644,1.08093333 C26.9153556,1.08093333 26.5870311,1.40925785 26.5870311,1.81426667 C26.5870311,2.21927548 26.9153556,2.5476 27.3203644,2.5476 L27.6678667,2.5476 L27.6678667,2.5476 L27.6678667,2.89510222 C27.6678667,3.30011104 27.9961912,3.62843556 28.4012,3.62843556 Z" id="Fill-3" stroke="#28DCF0" fill="#28DCF0"></path>
            <path d="M10.6206044,7.45141333 C11.0256133,7.45141333 11.3539378,7.12308882 11.3539378,6.71808 L11.3539378,6.37048 L11.3539378,6.37048 L11.70144,6.37048 C12.1064488,6.37048 12.4347733,6.04215548 12.4347733,5.63714667 C12.4347733,5.23213785 12.1064488,4.90381333 11.70144,4.90381333 L11.3539378,4.90381333 L11.3539378,4.90381333 L11.3539378,4.55582222 C11.3539378,4.15081341 11.0256133,3.82248889 10.6206044,3.82248889 C10.2155956,3.82248889 9.88727111,4.15081341 9.88727111,4.55582222 L9.88727111,4.90381333 L9.88727111,4.90381333 L9.53928,4.90381333 C9.13427118,4.90381333 8.80594667,5.23213785 8.80594667,5.63714667 C8.80594667,6.04215548 9.13427118,6.37048 9.53928,6.37048 L9.88727111,6.37048 L9.88727111,6.37048 L9.88727111,6.71808 C9.88727111,7.12308882 10.2155956,7.45141333 10.6206044,7.45141333 Z" id="Fill-4" stroke="#28DCF0" fill="#28DCF0"></path>
            <path d="M3.31465778,16.8861867 C3.71966659,16.8861867 4.04799111,16.5578621 4.04799111,16.1528533 L4.04799111,15.8048622 L4.04799111,15.8048622 L4.39549333,15.8048622 C4.80050215,15.8048622 5.12882667,15.4765377 5.12882667,15.0715289 C5.12882667,14.6665201 4.80050215,14.3381956 4.39549333,14.3381956 L4.04799111,14.3381956 L4.04799111,14.3381956 L4.04799111,13.9906933 C4.04799111,13.5856845 3.71966659,13.25736 3.31465778,13.25736 C2.90964896,13.25736 2.58132444,13.5856845 2.58132444,13.9906933 L2.58132444,14.3381956 L2.58132444,14.3381956 L2.23333333,14.3381956 C1.82832452,14.3381956 1.5,14.6665201 1.5,15.0715289 C1.5,15.4765377 1.82832452,15.8048622 2.23333333,15.8048622 L2.58132444,15.8048622 L2.58132444,15.8048622 L2.58132444,16.1528533 C2.58132444,16.5578621 2.90964896,16.8861867 3.31465778,16.8861867 Z" id="Fill-5" stroke="#28DCF0" fill="#28DCF0"></path>
            <path d="M4.45180444,32.1265156 C4.85681326,32.1265156 5.18513778,31.798191 5.18513778,31.3931822 L5.18513778,31.0455822 L5.18513778,31.0455822 L5.53273778,31.0455822 C5.93774659,31.0455822 6.26607111,30.7172577 6.26607111,30.3122489 C6.26607111,29.9072401 5.93774659,29.5789156 5.53273778,29.5789156 L5.18513778,29.5789156 L5.18513778,29.5789156 L5.18513778,29.2314133 C5.18513778,28.8264045 4.85681326,28.49808 4.45180444,28.49808 C4.04679563,28.49808 3.71847111,28.8264045 3.71847111,29.2314133 L3.71847111,29.5789156 L3.71847111,29.5789156 L3.37048,29.5789156 C2.96547118,29.5789156 2.63714667,29.9072401 2.63714667,30.3122489 C2.63714667,30.7172577 2.96547118,31.0455822 3.37048,31.0455822 L3.71847111,31.0455822 L3.71847111,31.0455822 L3.71847111,31.3931822 C3.71847111,31.798191 4.04679563,32.1265156 4.45180444,32.1265156 Z" id="Fill-6" stroke="#28DCF0" fill="#28DCF0"></path>
            <path d="M36.1263111,24.9101156 L36.1263111,24.5626133 C36.1263111,24.1576045 35.7979866,23.82928 35.3929778,23.82928 C34.987969,23.82928 34.6596444,24.1576045 34.6596444,24.5626133 L34.6596444,24.9101156 L34.6596444,24.9101156 L34.3120444,24.9101156 C33.9070356,24.9101156 33.5787111,25.2384401 33.5787111,25.6434489 C33.5787111,26.0484577 33.9070356,26.3767822 34.3120444,26.3767822 L34.6596444,26.3767822 L34.6596444,26.3767822 L34.6596444,26.7243822 C34.6596444,27.129391 34.987969,27.4577156 35.3929778,27.4577156 C35.7979866,27.4577156 36.1263111,27.129391 36.1263111,26.7243822 L36.1263111,26.3767822 L36.1263111,26.3767822 L36.4738133,26.3767822 C36.8788221,26.3767822 37.2071467,26.0484577 37.2071467,25.6434489 C37.2071467,25.2384401 36.8788221,24.9101156 36.4738133,24.9101156 L36.1263111,24.9101156 L36.1263111,24.9101156 Z" id="Fill-7" stroke="#28DCF0" fill="#28DCF0"></path>
        </g>
    </g>
</svg>