<?xml version="1.0" encoding="UTF-8"?>
<svg width="48px" height="48px" viewBox="0 0 48 48" version="1.1" xmlns="http://www.w3.org/2000/svg" xmlns:xlink="http://www.w3.org/1999/xlink">
    <title>icone/48x48/cointervention_48_bicolore</title>
    <g id="icone/48x48/cointervention_48_bicolore" stroke="none" stroke-width="1" fill="none" fill-rule="evenodd">
        <circle id="Oval" stroke="#FFCE00" stroke-width="1.5" cx="4.5" cy="42.5" r="2.75"></circle>
        <rect id="Rectangle" stroke="#FFCE00" stroke-width="1.5" transform="translate(5.000000, 7.000000) rotate(29.000000) translate(-5.000000, -7.000000) " x="3.25" y="5.25" width="3.5" height="3.5" rx="0.5"></rect>
        <path d="M43.2140132,18.0180411 L45.7760929,21.5543408 L40.9668029,21.6164581 L43.2140132,18.0180411 Z" id="Triangle" stroke="#FFCE00" stroke-width="1.5" transform="translate(43.369511, 19.373557) rotate(-41.000000) translate(-43.369511, -19.373557) "></path>
        <g id="Group" transform="translate(8.000000, 9.000000)" stroke="#0B554B" stroke-width="2">
            <circle id="Oval" cx="4.92307692" cy="4.92307692" r="3.92307692"></circle>
            <circle id="Oval-Copy-2" cx="27.0769231" cy="14.7692308" r="3.92307692"></circle>
            <circle id="Oval-Copy" cx="4.92307692" cy="24.6153846" r="3.92307692"></circle>
            <path d="M22.1538462,14.7692308 L20.9230769,14.7692308 C18.2041366,14.7692308 16,12.5650942 16,9.84615385 C16,7.12721354 13.7958634,4.92307692 11.0769231,4.92307692 L9.84615385,4.92307692 L9.84615385,4.92307692" id="Path-7" stroke-linecap="round"></path>
            <path d="M22.1538462,24.6153846 L20.9230769,24.6153846 C18.2041366,24.6153846 16,22.411248 16,19.6923077 C16,16.9733674 13.7958634,14.7692308 11.0769231,14.7692308 L9.84615385,14.7692308 L9.84615385,14.7692308" id="Path-7-Copy" stroke-linecap="round" transform="translate(16.000000, 19.692308) scale(1, -1) translate(-16.000000, -19.692308) "></path>
        </g>
    </g>
</svg>