<?xml version="1.0" encoding="UTF-8"?>
<svg width="48px" height="48px" viewBox="0 0 48 48" version="1.1" xmlns="http://www.w3.org/2000/svg" xmlns:xlink="http://www.w3.org/1999/xlink">
    <title>icone/48x48/coinlecture_48_bicolore</title>
    <g id="icone/48x48/coinlecture_48_bicolore" stroke="none" stroke-width="1" fill="none" fill-rule="evenodd">
        <g id="noun_Book_1195058" transform="translate(8.000000, 13.000000)" fill="#1E1169" fill-rule="nonzero">
            <path d="M1.27285697,26.8081395 L9.63061094,26.8081395 C11.0595215,26.811228 12.4192782,27.4457449 13.3683655,28.5523256 L13.4862227,28.6813953 C13.6385872,28.8443761 13.8029607,28.9948301 13.9778553,29.1313953 C14.0485695,29.1837209 14.1159165,29.2360465 14.179896,29.277907 C14.3342572,29.3839579 14.4951062,29.4795079 14.6614266,29.5639535 L14.7456103,29.605814 C14.8331613,29.6511628 14.9240796,29.6895349 15.014998,29.7244186 C15.1308029,29.7692537 15.2488265,29.80768 15.3685694,29.8395349 C15.4493857,29.8639535 15.5571408,29.8953488 15.6850999,29.9197674 C15.8673471,29.9572447 16.0518622,29.9817208 16.2373447,29.9930233 L16.5,30 C16.7782273,29.9994321 17.0557135,29.9702187 17.328365,29.9127907 C17.4361201,29.8918605 17.5270384,29.8674419 17.5741813,29.85 C17.7134696,29.8140451 17.8506368,29.7697854 17.9849976,29.7174419 L18.0254057,29.7174419 L18.2375486,29.6232558 L18.2981608,29.5918605 L18.3183649,29.5918605 C18.4979996,29.5023431 18.6712901,29.399761 18.8369362,29.2848837 L19.0120382,29.1593023 C19.1985081,29.0037835 19.3719803,28.832245 19.5306096,28.6465116 L19.5710178,28.6046512 L19.641732,28.5244186 C20.5806629,27.4274656 21.9306154,26.803239 23.3458132,26.8116279 L31.7271386,26.8116279 C32.0653055,26.8116291 32.389573,26.6722264 32.628377,26.424185 C32.867181,26.1761437 33.0008902,25.8398546 33,25.4895349 L33,4.78953488 C32.9907832,4.06811021 32.4235951,3.48830897 31.7271386,3.48837209 L29.2150981,3.48837209 L29.2150981,0.879069767 C29.2168936,0.646569868 29.1289937,0.422953047 28.9709236,0.257891831 C28.8128536,0.0928306147 28.5977022,0 28.3732615,0 L23.1336703,0 C20.6716842,0.00490244134 18.3023402,0.972997323 16.5,2.71046512 C14.6976554,0.972997323 12.3283113,0.00490244134 9.8663252,0 L4.62673407,0 C4.16180054,0 3.78489745,0.390449346 3.78489745,0.872093023 L3.78489745,3.48837209 L1.27285697,3.48837209 C0.576400482,3.48830897 0.00921238479,4.06811021 0,4.78953488 L0,25.4895349 C0,25.8392506 0.134104189,26.1746428 0.372811175,26.4219292 C0.611518162,26.6692155 0.935274313,26.8081395 1.27285697,26.8081395 Z M23.1336703,1.74418605 L27.5314249,1.74418605 L27.5314249,21.1255814 L23.1336703,21.1255814 C21.0481332,21.1270049 19.0180469,21.8215003 17.3418344,23.1069767 L17.3418344,4.30116279 C18.8578544,2.67046492 20.948226,1.74760875 23.1336703,1.74418605 Z M5.46857069,1.74418605 L9.8663252,1.74418605 C12.0507771,1.74578161 14.1410033,2.66605576 15.6581611,4.29418605 C15.6581611,4.29418605 15.6581611,4.29418605 15.6581611,4.29418605 L15.6581611,23.1069767 C13.9819486,21.8215003 11.9518623,21.1270049 9.8663252,21.1255814 L5.46857069,21.1255814 L5.46857069,1.74418605 Z M1.68367324,5.23255814 L3.78489745,5.23255814 L3.78489745,22.0116279 C3.78489745,22.4932716 4.16180054,22.8837209 4.62673407,22.8837209 L9.8663252,22.8837209 C12.1598233,22.886424 14.343542,23.9014341 15.870304,25.6744186 C16.0300235,25.8597687 16.2584755,25.9657448 16.4983141,25.9657448 C16.7381527,25.9657448 16.9666047,25.8597687 17.1263242,25.6744186 C18.6530862,23.9014341 20.8368048,22.886424 23.130303,22.8837209 L28.3732615,22.8837209 C28.838195,22.8837209 29.2150981,22.4932716 29.2150981,22.0116279 L29.2150981,5.23255814 L31.3163223,5.23255814 L31.3163223,25.0813953 L23.3693846,25.0813953 C21.4630208,25.0684808 19.6444817,25.9105748 18.3823445,27.3906977 L18.3554057,27.422093 L18.3250996,27.4534884 C18.2211338,27.5609404 18.1084775,27.6589729 17.9883649,27.7465116 L17.8873445,27.8197674 C17.7904553,27.8873544 17.6891963,27.9479623 17.5842833,28.0011628 L17.5640793,28.0011628 L17.5135691,28.0255814 L17.3788752,28.0848837 C17.2962378,28.1165965 17.2119163,28.1433845 17.1263242,28.1651163 L16.9815283,28.2 C16.8231292,28.234635 16.661869,28.2533266 16.4999978,28.255814 L16.3518345,28.255814 C16.2387208,28.2486907 16.1262119,28.2335388 16.0150999,28.2104651 C15.9443856,28.2104651 15.8871407,28.1790698 15.8197938,28.1581395 C15.7490781,28.1400416 15.6793803,28.117915 15.6110183,28.0918605 L15.4628551,28.0255814 L15.3988755,27.994186 C15.2964962,27.9428777 15.1975046,27.884611 15.102549,27.8197674 L14.9846919,27.7360465 C14.8767942,27.6513613 14.7754641,27.5580528 14.6816307,27.4569767 L14.6176511,27.3872093 C13.3500611,25.9130689 11.5363096,25.0681171 9.63061094,25.0639535 L1.68367324,25.0639535 L1.68367324,5.23255814 Z" id="Shape"></path>
            <path d="M7.8454187,5.95363951 L9.24881375,5.95363951 C10.4851428,5.95624939 11.7044879,6.28575123 12.813099,6.91681108 C13.2274307,7.12765653 13.712257,6.92455806 13.9126142,6.45621349 C14.1129714,5.98786891 13.9576857,5.42064999 13.5604491,5.16984402 C12.2156423,4.40246293 10.735743,4.00218859 9.23528705,4 L7.8454187,4 C7.37850685,4 7,4.43646417 7,4.97487001 C7,5.51327585 7.37850685,5.94974003 7.8454187,5.94974003 L7.8454187,5.95363951 Z" id="Path"></path>
            <path d="M7.8454187,9.95363951 L9.24881375,9.95363951 C10.4851428,9.95624939 11.7044879,10.2857512 12.813099,10.9168111 C13.2274307,11.1276565 13.712257,10.9245581 13.9126142,10.4562135 C14.1129714,9.98786891 13.9576857,9.42064999 13.5604491,9.16984402 C12.2156423,8.40246293 10.735743,8.00218859 9.23528705,8 L7.8454187,8 C7.37850685,8 7,8.43646417 7,8.97487001 C7,9.51327585 7.37850685,9.94974003 7.8454187,9.94974003 L7.8454187,9.95363951 Z" id="Path"></path>
            <path d="M7.8454187,13.9536395 L9.24881375,13.9536395 C10.4851428,13.9562494 11.7044879,14.2857512 12.813099,14.9168111 C13.2274307,15.1276565 13.712257,14.9245581 13.9126142,14.4562135 C14.1129714,13.9878689 13.9576857,13.42065 13.5604491,13.169844 C12.2156423,12.4024629 10.735743,12.0021886 9.23528705,12 L7.8454187,12 C7.37850685,12 7,12.4364642 7,12.97487 C7,13.5132759 7.37850685,13.94974 7.8454187,13.94974 L7.8454187,13.9536395 Z" id="Path"></path>
            <path d="M12.7599865,18.8816571 C13.029975,19.0516199 13.3592886,19.0376527 13.6176513,18.8452808 C13.876014,18.6529089 14.0218023,18.3131243 13.9973426,17.9603454 C13.9728829,17.6075666 13.7821157,17.2986278 13.5005084,17.1557448 C12.1680294,16.3974817 10.7016246,16.0020243 9.21486393,16 L7.83769438,16 C7.37504855,16 7,16.4312038 7,16.9631207 C7,17.4950375 7.37504855,17.9262414 7.83769438,17.9262414 L9.22826704,17.9262414 C10.4535634,17.9300179 11.6617812,18.2568701 12.7599865,18.8816571 Z" id="Path"></path>
            <path d="M19.8515649,7 C19.9795454,6.99953499 20.1057199,6.96501061 20.2203369,6.89909514 C21.3245338,6.26840091 22.5393181,5.94040105 23.7706056,5.94049892 L25.1618818,5.94049892 C25.6247617,5.94049892 26,5.50610809 26,4.97025984 C26,4.43441159 25.6247617,4 25.1618818,4 L23.7706056,4 C22.6268004,3.99747017 21.4916903,4.23005679 20.4181328,4.68695002 C20.0937671,4.82520592 19.7759545,4.98325284 19.4660305,5.1604267 C19.1172673,5.36051974 18.9334077,5.81224814 19.0221589,6.25098394 C19.1109101,6.68971973 19.4489104,7 19.838155,7 L19.8515649,7 Z" id="Path"></path>
            <path d="M19.8515649,11 C19.9795454,10.999535 20.1057199,10.9650106 20.2203369,10.8990951 C21.3245338,10.2684009 22.5393181,9.94040105 23.7706056,9.94049892 L25.1618818,9.94049892 C25.6247617,9.94049892 26,9.50610809 26,8.97025984 C26,8.43441159 25.6247617,8 25.1618818,8 L23.7706056,8 C22.6268004,7.99747017 21.4916903,8.23005679 20.4181328,8.68695002 C20.0937671,8.82520592 19.7759545,8.98325284 19.4660305,9.1604267 C19.1172673,9.36051974 18.9334077,9.81224814 19.0221589,10.2509839 C19.1109101,10.6897197 19.4489104,11 19.838155,11 L19.8515649,11 Z" id="Path"></path>
            <path d="M19.8515649,15 C19.9795454,14.999535 20.1057199,14.9650106 20.2203369,14.8990951 C21.3245338,14.2684009 22.5393181,13.9404011 23.7706056,13.9404989 L25.1618818,13.9404989 C25.6247617,13.9404989 26,13.5061081 26,12.9702598 C26,12.4344116 25.6247617,12 25.1618818,12 L23.7706056,12 C22.6268004,11.9974702 21.4916903,12.2300568 20.4181328,12.68695 C20.0937671,12.8252059 19.7759545,12.9832528 19.4660305,13.1604267 C19.1172673,13.3605197 18.9334077,13.8122481 19.0221589,14.2509839 C19.1109101,14.6897197 19.4489104,15 19.838155,15 L19.8515649,15 Z" id="Path"></path>
            <path d="M19.8515649,18.996119 C19.9795454,18.995654 20.1057199,18.9611297 20.2203369,18.8952143 C21.3248519,18.2659945 22.5395959,17.9393337 23.7706056,17.9404999 L25.1618818,17.9404999 C25.6247617,17.9404999 26,17.5061095 26,16.9702617 C26,16.4344139 25.6247617,16 25.1618818,16 L23.7706056,16 C22.626788,15.9973083 21.4916531,16.2298998 20.4181328,16.6869521 C20.0937671,16.8252079 19.7759545,16.9832547 19.4660305,17.1604284 C19.1172673,17.3605212 18.9334077,17.8122492 19.0221589,18.2509846 C19.1109101,18.68972 19.4489104,19 19.838155,19 L19.8515649,18.996119 Z" id="Path"></path>
        </g>
        <path d="M45,9.00012141 C45,7.89552601 44.1045283,7 43,7 C41.8954717,7 41,7.89552601 41,9.00012141 C41,10.1047168 41.8954717,11 43,11 C44.1045283,11 45,10.1047168 45,9.00012141 Z" id="Stroke-1" stroke="#28DCF0" stroke-width="2" stroke-linecap="round" stroke-linejoin="round"></path>
        <g id="Group-8" transform="translate(5.750000, 44.208333) rotate(-19.000000) translate(-5.750000, -44.208333) translate(3.833333, 42.291667)" stroke="#28DCF0" stroke-linecap="round" stroke-linejoin="round" stroke-width="2">
            <line x1="1.91666667" y1="4.54747766e-13" x2="1.91666667" y2="3.83333333" id="Stroke-1"></line>
            <line x1="3.83333333" y1="1.91666667" x2="0" y2="1.91666667" id="Stroke-3"></line>
        </g>
        <path d="M6.08253547,5.15877982 C6.2247716,5.00189057 6.52743477,4.95297907 6.75855259,5.04953294 C8.39011402,5.73114877 8.41103147,7.32907888 6.83575907,8.02770526 L6.75632001,8.06201014 C5.74545188,8.48427119 5.72771735,9.47178919 6.68520612,9.90689194 L6.73743299,9.92966619 L6.75855259,9.93801018 C8.39011402,10.619626 8.41103147,12.2175561 6.83575907,12.9161825 L6.77136601,12.9439434 C6.54556503,13.0461301 6.24048527,13.0047107 6.08995128,12.8514307 C5.946944,12.7058147 5.99486053,12.5116291 6.19360582,12.4049623 L6.22623423,12.3888673 L6.24352564,12.3813083 C7.25459032,11.9590425 7.2723283,10.9715613 6.31461742,10.5364417 L6.26237844,10.5136665 L6.24122461,10.5053082 C4.60995077,9.82368767 4.58903701,8.22579473 6.16406212,7.52715093 L6.24352564,7.49283104 C7.27264505,7.06302482 7.27264505,6.04763665 6.24347002,5.61767919 C6.0123522,5.52112533 5.94029935,5.31566908 6.08253547,5.15877982 Z" id="Stroke-1" stroke="#28DCF0" fill="#28DCF0" fill-rule="nonzero" transform="translate(6.500000, 9.000000) rotate(-315.000000) translate(-6.500000, -9.000000) "></path>
    </g>
</svg>