<svg height="48" viewBox="0 0 48 48" width="48" xmlns="http://www.w3.org/2000/svg"><g fill="none" fill-rule="nonzero"><g fill="#1e1169" transform="translate(8 13)"><path d="m1.27285697 26.8081395h8.35775397c1.42891056.0030885 2.78866726.6376054 3.73775456 1.7441861l.1178572.1290697c.1523645.1629808.316738.3134348.4916326.45.0707142.0523256.1380612.1046512.2020407.1465117.1543612.1060509.3152102.2016009.4815306.2860465l.0841837.0418605c.087551.0453488.1784693.0837209.2693877.1186046.1158049.0448351.2338285.0832614.3535714.1151163.0808163.0244186.1885714.0558139.3165305.0802325.1822472.0374773.3667623.0619534.5522448.0732559l.2626553.0069767c.2782273-.0005679.5557135-.0297813.828365-.0872093.1077551-.0209302.1986734-.0453488.2458163-.0627907.1392883-.0359549.2764555-.0802146.4108163-.1325581h.0404081l.2121429-.0941861.0606122-.0313953h.0202041c.1796347-.0895174.3529252-.1920995.5185713-.3069768l.175102-.1255814c.1864699-.1555188.3599421-.3270573.5185714-.5127907l.0404082-.0418604.0707142-.0802326c.9389309-1.096953 2.2888834-1.7211796 3.7040812-1.7127907h8.3813254c.3381669.0000012.6624344-.1394015.9012384-.3874429.238804-.2480413.3725132-.5843304.371623-.9346501v-20.70000002c-.0092168-.72142467-.5764049-1.30122591-1.2728614-1.30116279h-2.5120405v-2.60930232c.0017955-.2324999-.0861044-.45611672-.2441745-.62117794-.15807-.16506122-.3732214-.25789183-.5976621-.25789183h-5.2395912c-2.4619861.00490244-4.8313301.97299732-6.6336703 2.71046512-1.8023446-1.7374678-4.1716887-2.70556268-6.6336748-2.71046512h-5.23959113c-.46493353 0-.84183662.39044935-.84183662.87209302v2.61627907h-2.51204048c-.69645649-.00006312-1.26364459.57973812-1.27285697 1.30116279v20.70000002c0 .3497157.13410419.6851079.37281118.9323943.23870698.2472863.56246313.3862103.90004579.3862103zm21.86081333-25.06395345h4.3977546v19.38139535h-4.3977546c-2.0855371.0014235-4.1156234.6959189-5.7918359 1.9813953v-18.80581391c1.51602-1.63069787 3.6063916-2.55355404 5.7918359-2.55697674zm-17.66509961 0h4.39775451c2.1844519.00159556 4.2746781.92186971 5.7918359 2.55v18.81279065c-1.6762125-1.2854764-3.7062988-1.9799718-5.7918359-1.9813953h-4.39775451zm-3.78489745 3.48837209h2.10122421v16.77906976c0 .4816437.37690309.872093.84183662.872093h5.23959113c2.2934981.0027031 4.4772168 1.0177132 6.0039788 2.7906977.1597195.1853501.3881715.2913262.6280101.2913262s.4682906-.1059761.6280101-.2913262c1.526762-1.7729845 3.7104806-2.7879946 6.0039788-2.7906977h5.2429585c.4649335 0 .8418366-.3904493.8418366-.872093v-16.77906976h2.1012242v19.84883716h-7.9469377c-1.9063638-.0129145-3.7249029.8291795-4.9870401 2.3093024l-.0269388.0313953-.0303061.0313954c-.1039658.107452-.2166221.2054845-.3367347.2930232l-.1010204.0732558c-.0968892.067587-.1981482.1281949-.3030612.1813954h-.020204l-.0505102.0244186-.1346939.0593023c-.0826374.0317128-.1669589.0585008-.252551.0802326l-.1447959.0348837c-.1583991.034635-.3196593.0533266-.4815305.055814h-.1481633c-.1131137-.0071233-.2256226-.0222752-.3367346-.0453489-.0707143 0-.1279592-.0313953-.1953061-.0523256-.0707157-.0180979-.1404135-.0402245-.2087755-.066279l-.1481632-.0662791-.0639796-.0313954c-.1023793-.0513083-.2013709-.109575-.2963265-.1744186l-.1178571-.0837209c-.1078977-.0846852-.2092278-.1779937-.3030612-.2790698l-.0639796-.0697674c-1.26759-1.4741404-3.0813415-2.3190922-4.98704016-2.3232558h-7.9469377z"/><path d="m7.8454187 5.95363951h1.40339505c1.23632905.00260988 2.45567415.33211172 3.56428525.96317157.4143317.21084545.899158.00774698 1.0995152-.46059759.2003572-.46834458.0450715-1.0355635-.3521651-1.28636947-1.3448068-.76738109-2.8247061-1.16765543-4.32516205-1.16984402h-1.38986835c-.46691185 0-.8454187.43646417-.8454187.97487001s.37850685.97487002.8454187.97487002zm0 4h1.40339505c1.23632905.00260988 2.45567415.33211169 3.56428525.96317159.4143317.2108454.899158.007747 1.0995152-.4605976.2003572-.46834459.0450715-1.03556351-.3521651-1.28636948-1.3448068-.76738109-2.8247061-1.16765543-4.32516205-1.16984402h-1.38986835c-.46691185 0-.8454187.43646417-.8454187.97487001s.37850685.97487002.8454187.97487002zm0 3.99999999h1.40339505c1.23632905.0026099 2.45567415.3321117 3.56428525.9631716.4143317.2108454.899158.007747 1.0995152-.4605976s.0450715-1.0355635-.3521651-1.2863695c-1.3448068-.7673811-2.8247061-1.1676554-4.32516205-1.169844h-1.38986835c-.46691185 0-.8454187.4364642-.8454187.97487 0 .5384059.37850685.97487.8454187.97487zm4.9145678 4.9280176c.2699885.1699628.5993021.1559956.8576648-.0363763s.404151-.5321565.3796913-.8849354c-.0244597-.3527788-.2152269-.6617176-.4968342-.8046006-1.332479-.7582631-2.7988838-1.1537205-4.28564447-1.1557448h-1.37716955c-.46264583 0-.83769438.4312038-.83769438.9631207 0 .5319168.37504855.9631207.83769438.9631207h1.39057266c1.22529636.0037765 2.43351416.3306287 3.53171946.9554157zm7.0915784-11.8816571c.1279805-.00046501.254155-.03498939.368772-.10090486 1.1041969-.63069423 2.3189812-.95869409 3.5502687-.95859622h1.3912762c.4628799 0 .8381182-.43439083.8381182-.97023908s-.3752383-.97025984-.8381182-.97025984h-1.3912762c-1.1438052-.00252983-2.2789153.23005679-3.3524728.68695002-.3243657.1382559-.6421783.29630282-.9521023.47347668-.3487632.20009304-.5326228.65182144-.4438716 1.09055724.0887512.43873579.4267515.74901606.8159961.74901606zm0 4c.1279805-.000465.254155-.0349894.368772-.1009049 1.1041969-.6306942 2.3189812-.95869405 3.5502687-.95859618h1.3912762c.4628799 0 .8381182-.43439083.8381182-.97023908s-.3752383-.97025984-.8381182-.97025984h-1.3912762c-1.1438052-.00252983-2.2789153.23005679-3.3524728.68695002-.3243657.1382559-.6421783.29630282-.9521023.47347668-.3487632.20009304-.5326228.65182144-.4438716 1.0905572.0887512.4387358.4267515.7490161.8159961.7490161zm0 4c.1279805-.000465.254155-.0349894.368772-.1009049 1.1041969-.6306942 2.3189812-.958694 3.5502687-.9585962h1.3912762c.4628799 0 .8381182-.4343908.8381182-.9702391 0-.5358482-.3752383-.9702598-.8381182-.9702598h-1.3912762c-1.1438052-.0025298-2.2789153.2300568-3.3524728.68695-.3243657.1382559-.6421783.2963028-.9521023.4734767-.3487632.200093-.5326228.6518214-.4438716 1.0905572s.4267515.7490161.8159961.7490161zm0 3.996119c.1279805-.000465.254155-.0349893.368772-.1009047 1.104515-.6292198 2.319259-.9558806 3.5502687-.9547144h1.3912762c.4628799 0 .8381182-.4343904.8381182-.9702382s-.3752383-.9702617-.8381182-.9702617h-1.3912762c-1.1438176-.0026917-2.2789525.2298998-3.3524728.6869521-.3243657.1382558-.6421783.2963026-.9521023.4734763-.3487632.2000928-.5326228.6518208-.4438716 1.0905562s.4267515.7490154.8159961.7490154z"/></g><g fill="#28dcf0"><path d="m40.5980762 10.0979216c.1111117.5774562.407405.86618.8888889.86618h.1319444c.6527811-.1622068.9791667-.4995919.9791667-1.01216543v-.12165451c-.1250006-.57745625-.3796277-.86618004-.7638889-.86618004h-.2152778c-.4351873 0-.7754617.31792058-1.0208333.95377128zm.0316395-1.67500812c.0842693-.04419047.1720484-.08838028.26334-.13257074.3019647-.1167891.6197251-.17518277.9532907-.17518277 1.1832802 0 1.9978704.62970473 2.443795 1.88913303.0386234.2903946.0579348.4639974.0579348.5208137 0 .7007346-.3458497 1.3115008-1.0375595 1.832317-.5617948.3093333-1.0129794.4639976-1.3535675.4639976h-.3423419c-.3757003 0-.7584172-.1120527-1.1481623-.3361615-.1053366.3819319-.3792074.5634258-.8216208.544487l-.4634783-.0189387c-.5758396-.0220952-.8532216-.3456277-.8321543-.9706072.0245785-.8206801.0737348-1.960935.1474703-3.42079864.0737356-1.45986369.3195171-2.31446297.737352-2.56382347.3195207-.04734693.6416701-.02604113.9664577.06391804s.4836678.2911806.4766453.60367034c-.017556.60288425-.0333563 1.16946069-.0474012 1.69974631z" transform="matrix(.8660254 .5 -.5 .8660254 10.305082 -19.397088)"/><path d="m5.69448807 10.0265153c.3144547.0319012.65396953.148111 1.01855469.3486328.36458515.2005218.46940181.5821912.31445312 1.1450195-.15494869.5628284-.48079178.7986659-.97753906.7075196-.49674727-.0911463-.93310359-.108236-1.30908203-.0512696-.37597844.0569665-.65397045.1538079-.83398438.2905274-.18001392.1367194-.33723891.3714176-.47167968.7041015-.13444078.332684-.07177865.7542293.18798828 1.2646485.24153766.2552096.49560413.4226884.76220703.5024414s.60953566.0740564 1.02880859-.0170899c.3144547-.0683597.59814327-.2529281.85107422-.5537109.25293095-.3007827.62548582-.3509125 1.11767578-.1503906.49218996.2005218.61067836.522947.35546875.9672851-.25520961.4443382-.45344981.732584-.59472656.8647461-.10026092.0911463-.20052033.1708981-.30078125.2392578-.27343887.1959646-.55826675.3235675-.85449219.3828125-.29622544.0592451-.59700368.0911459-.90234375.0957032-.40104367.0091146-.79524546-.0387365-1.18261718-.1435547-.30989739-.0820317-.61181494-.2027987-.90576172-.3623047s-.55940637-.3668607-.79638672-.6220703c-.45117413-.4648461-.78613172-1.0003225-1.00488281-1.6064453-.3463559-.9342495-.23470337-1.759111.33496093-2.4746094.2825535-.3600278.62092902-.6448557 1.01513672-.8544922s.78271293-.3691401 1.16552735-.4785156c.32356932-.0911463.65624829-.1560871.99804687-.1948242.34179859-.03873721.6699203-.03987652.984375-.003418z" transform="matrix(.91354546 -.40673664 .40673664 .91354546 -5.060337 2.960985)"/><path d="m21.6437392 5.96010205c.1093756.565107.3987607.84765625.8681641.84765625h.1230469c.638024-.15494869.9570312-.48534903.9570312-.99121093v-.11621094c-.1230475-.56966431-.3714174-.85449219-.7451172-.85449219h-.211914c-.4192729 0-.7496733.31217136-.991211.93652344zm4.4091797-1.34667968c.1048183.70638374.169759 1.46174728.1948242 2.26611328.0250653.804366-.1765929 1.24869749-.6049804 1.33300781-.4283876.08431032-.8146142.10595724-1.1586914.06494141-.3440773-.04101583-.6163727-.24381329-.8168946-.60839844-.7793007.32356932-1.3307275.48535156-1.6542968.48535156h-.3417969c-.6699252 0-1.2692031-.32356447-1.7978516-.97070312-.30534-.42838756-.4580078-.9160129-.4580078-1.46289063.0546878-.62890939.3133115-1.11653473.7758789-1.46289062.4625674-.3463559 1.0458949-.54459611 1.75-.59472657s1.3045223.06152207 1.8012696.33496094c.0319012-.30078275-.0979804-.56054578-.3896485-.77929687-.2916681-.2187511-.6539692-.30306015-1.086914-.25292969-.4329449.05013046-.8590474.17659404-1.2783204.37939453-.4192729.20280049-.7918278.13102387-1.1176757-.21533203-.325848-.3463559-.2540714-.70068178.215332-1.06298828s1.1712193-.58219363 2.1054687-.65966797c.9342495-.07747435 1.6770806.00797402 2.2285157.25634765.551435.24837364.935383.62548576 1.1518554 1.13134766.2164725.5058619.3771154 1.11197564.4819336 1.81835938z" transform="matrix(.77714596 -.62932039 .62932039 .77714596 2.043145 15.447663)"/></g></g></svg>