<svg height="48" viewBox="0 0 48 48" width="48" xmlns="http://www.w3.org/2000/svg"><g fill="none" fill-rule="nonzero"><g fill="#1e1169" stroke="#1e1169" stroke-width=".4" transform="translate(4.56 10.56)"><path d="m28.072321 11.0756655c-.2060201-.10301-.4635451-.051505-.6180602.10301l-16.2240803 16.2755853c-.154515.1545151-.20602.4120401-.10301.6180602s.3090301.3605351.5150502.3605351h16.2240802c.3090301 0 .5665552-.2575251.5665552-.5665552v-16.2755852c0-.2060201-.154515-.4120402-.3605351-.5150502zm-.7725752 16.2240803h-14.3183947l14.3183947-14.3183947z"/><path d="m32.6047625.05359192c-.2060201-.10301004-.4635452-.05150502-.6180602.10301003l-31.83010035 31.83010035c-.15451505.154515-.20602007.4120401-.10301003.6180602.10301003.2060201.3090301.3605351.51505016.3605351h31.83010032c.3090301 0 .5665552-.2575251.5665552-.5665552v-31.83010032c0-.20602006-.154515-.41204013-.3605351-.51505016zm-4.1719064 31.77859528v-1.6996655c0-.3090301-.2575251-.5665552-.5665552-.5665552s-.5665551.2575251-.5665551.5665552v1.6996655h-2.2662208v-1.6996655c0-.3090301-.2575251-.5665552-.5665552-.5665552s-.5665551.2575251-.5665551.5665552v1.6996655h-2.2662208v-1.6996655c0-.3090301-.2575251-.5665552-.5665552-.5665552s-.5665551.2575251-.5665551.5665552v1.6996655h-2.2662208v-1.6996655c0-.3090301-.2575251-.5665552-.5665552-.5665552s-.5665551.2575251-.5665551.5665552v1.6996655h-2.2662208v-1.6996655c0-.3090301-.2575251-.5665552-.5665552-.5665552s-.5665552.2575251-.5665552.5665552v1.6996655h-2.2662207v-1.6996655c0-.3090301-.2575251-.5665552-.5665552-.5665552s-.5665552.2575251-.5665552.5665552v1.6996655h-2.26622069v-1.6996655c0-.3090301-.25752509-.5665552-.56655519-.5665552s-.56655518.2575251-.56655518.5665552v1.6996655h-4.94448161l29.87290967-29.87290967v4.89297659h-1.6996655c-.3090301 0-.5665552.25752509-.5665552.56655519s.2575251.56655518.5665552.56655518h1.6996655v2.26622071h-1.6996655c-.3090301 0-.5665552.2575251-.5665552.5665552s.2575251.5665552.5665552.5665552h1.6996655v2.2662207h-1.6996655c-.3090301 0-.5665552.2575251-.5665552.5665552s.2575251.5665552.5665552.5665552h1.6996655v2.2662207h-1.6996655c-.3090301 0-.5665552.2575251-.5665552.5665552s.2575251.5665552.5665552.5665552h1.6996655v2.2662207h-1.6996655c-.3090301 0-.5665552.2575251-.5665552.5665552s.2575251.5665552.5665552.5665552h1.6996655v2.2662207h-1.6996655c-.3090301 0-.5665552.2575251-.5665552.5665552s.2575251.5665552.5665552.5665552h1.6996655v2.3177258h-1.6996655c-.3090301 0-.5665552.257525-.5665552.5665551s.2575251.5665552.5665552.5665552h1.6996655v3.3993311z"/></g><path d="m13.1201172 29.1513672c.086589.7291703-.0911436 1.3990855-.5332031 2.0097656-.4466169.6289094-1.0162726.9752601-1.7089844 1.0390625-.6881545.0820317-1.30110409-.1276016-1.8388672-.6289062-.54232042-.5013046-.85449178-1.1370405-.93652344-1.9072266-.08658897-.7519569.09342225-1.4218721.54003907-2.0097656.4420595-.5833363 1.025387-.9182939 1.74999997-1.0048828.7884154-.086589 1.4674451.2597617 2.0371094 1.0390625.4147156.5559923.6448565 1.0436177.6904297 1.4628906zm-4.32031251-4.1220703-.44433594 1.1347656-.44433594 1.1279297-.44433593 1.1347656-.4375 1.1210938-.45117188 1.1416015-.44433594 1.1347657c-.11849017.2962254-.19824198.5628243-.23925781.7998046-.04101583.2369804-.2164698.3281253-.52636719.2734375l-.109375-.0273437-.09570312-.0205078c-.33724127-.0638024-.43750069-.2335598-.30078125-.5092774.13671943-.2757175.24837196-.5571274.33496093-.8442382l1.39453126-5.1953126.36230468-1.2988281.34863282-1.2988281c.11393286-.4238302.17659499-.766763.18798828-1.0288086.01139328-.2620456.19710106-.2267269.5571289.105957l.19824219.1845703.20507813.1914063.19140624.1845703.19824219.1777344c.30989739.2916681.4204106.5115552.33154297.659668-.08886763.1481127-.21305259.4318012-.37255859.8510742zm-2.69335938.3828125c.08203166.7337276-.09797956 1.4104786-.54003906 2.0302734-.4420595.6152375-1.01399389.9615882-1.71582031 1.0390625-.67448254.0774744-1.28515352-.132159-1.83203125-.6289062-.53320579-.5013046-.84537715-1.1415977-.93652344-1.9208985-.07747435-.7428422.10253687-1.4059215.54003906-1.9892578.43750219-.5833362 1.01627244-.9160152 1.73632813-.9980469.79753003-.0911463 1.48111694.2438113 2.05078125 1.0048828.41927293.5696644.65169248 1.0572897.69726562 1.4628907zm5.84472659 4.149414c-.0227866-.2005218-.086588-.3759758-.1914063-.5263672-.2050791-.2369803-.4785139-.3372397-.8203125-.3007812-.3372412.0364585-.6015615.148111-.7929687.3349609-.20052186.1868499-.28483091.4033191-.25292971.6494141.0319012.2552096.18001171.4580071.44433591.6083984.2779962.159506.5263661.2210289.7451172.1845703.2962255-.0364585.5240878-.1503896.6835938-.3417968.145834-.1822926.2073568-.3850901.1845703-.6083985zm-7.64941409-3.9853515c-.04557314-.3828144-.15950429-.6835927-.34179687-.9023438s-.41015489-.3121746-.68359375-.2802734c-.31901201.0410158-.5742178.1891263-.765625.4443359-.20052184.2643243-.28027365.5582666-.23925781.881836.03645851.3509132.19140488.6334624.46484374.8476562.28711082.2415377.5423166.3395185.765625.2939453.29166813-.0546877.50813732-.2096341.64941407-.4648437.1276048-.2369804.17773451-.5104151.15039062-.8203125zm37.46191409 4.8066406c.3782571.6425813.8225886 1.2783172 1.3330078 1.9072266.3964863-.724613.7200508-1.4287076.9707031-2.1123047.1002609-.2597669.4466116-.3680015 1.0390625-.3247071.5924509.0432945.8750001.3657197.8476563.9672852.0045573.2050792-.0296221.4420559-.1025391.7109375-.0820317.3053401-.2255849.6813129-.4306641 1.1279297-.2050791.4466168-.4397773.9023414-.7041015 1.3671875.3736998.3417986.7405581.6334623 1.1005859.875.0774744.0546878.1583655.1093747.2426758.1640625s.1583656.1162106.222168.1845703c.1139328.1367194.1276046.2882479.0410156.4545898-.086589.166342-.2141919.3224277-.3828125.4682618-.1686206.145834-.3497712.2734369-.543457.3828125-.1936859.1093755-.3406571.1708983-.440918.1845703-.1868499.0364585-.3714184.0102543-.5537109-.0786133-.1822926-.0888676-.3463535-.1834305-.4921876-.2836914-.1822925-.1321621-.3417961-.2620436-.4785156-.3896485-.1640633.2050792-.2985021.3600256-.4033203.4648438-.1276048.1276048-.2734367.2506504-.4375.3691406s-.3395173.1777344-.5263672.1777344c-.1048182 0-.2631825-.0353187-.4750976-.105957-.2119152-.0706384-.4135733-.1652013-.6049805-.2836914-.1914072-.1184902-.344075-.2506503-.4580078-.3964844-.1139329-.1458341-.125326-.2916659-.0341797-.4375.0501305-.0820317.1127926-.1572262.1879883-.225586.0751957-.0683597.1469723-.1367184.215332-.2050781.2962255-.2916681.6038396-.6471333.9228516-1.0664062-.3463559-.405601-.6596666-.8111959-.9399414-1.2167969-.2802749-.405601-.4887689-.7496731-.6254883-1.0322266-.0455732-.1048182-.0911456-.2141921-.1367188-.328125-.0455731-.1139328-.0751952-.2324212-.0888671-.3554687-.0683598-.6744826.168617-1.0629878.7109374-1.1655274.5423205-.1025395.8841139-.0353202 1.0253907.2016602zm-20.9404297-24.66308594c-.0227866-.0957036-.0341797-.17545541-.0341797-.23925781-.0045573-.06835972.0045572-.13216116.0273437-.19140625.0045574-.05013046.0387367-.10253879.1025391-.15722656.0455732-.04101583.1184891-.08203105.21875-.12304688.3645852-.13216212.7815732-.15494835 1.2509766-.06835937.2005218.03645851.3736972.18456901.5195312.44433593.086589.15950601.1549477.33040274.2050781.51269532.0592451.1914072.1093748.38053292.1503907.56738281.0273439.1276048.0592446.31900914.0957031.57421875.0045573.05924509.0102539.11507135.0170898.16748047.006836.05240911.0148112.10367813.0239258.15380859.4420595-.05013046.8408186-.06835944 1.1962891-.0546875.3281266.02278657.6083973.08658802.8408203.19140625.159506.07747435.3007806.23242072.4238281.46484375.1139329.22330841.1891274.46484245.225586.72460938.0410158.28711081.0364585.51953036-.0136719.69726562-.0501305.20963647-.1481113.32584624-.2939453.34863282-.0410159.00455731-.1139318.00683593-.21875.00683593-.0501305 0-.1344395-.00455724-.2529297-.01367187-.2643243-.02278657-.5480128-.02620451-.8510742-.01025391s-.6072576.04899064-.9125977.09912109c0 .32356938-.0068359.64599448-.0205078.96728518s-.0478513.6391586-.1025391.9536133c-.0820316.3509132-.1845697.6220693-.3076172.8134765-.1093755.1503914-.2871081.2666012-.5332031.3486328-.2369803.0683598-.4899075.1025391-.758789.1025391-.2871108 0-.5126945-.0341793-.6767579-.1025391-.1959645-.0774743-.2985025-.1936841-.3076171-.3486328 0-.0592451.0068358-.1298824.0205078-.211914.0136719-.0501305.0341795-.1344395.0615234-.2529297.0683597-.2734389.1139322-.5742171.1367188-.9023438.0227865-.3281266.0387369-.6608056.0478515-.9980468-.7701861.1412767-1.4651661.3281238-2.0849609.5605468-.0820317.0364585-.1572262.0592448-.2255859.0683594-.086589.0227866-.1503905.0250652-.1914063.0068359-.0592451-.0045573-.1184893-.0319008-.1777344-.0820312-.0501304-.0410158-.0979815-.1093745-.1435547-.2050781-.1868499-.3281267-.2734375-.7360002-.2597656-1.22363285.0045573-.20507915.1253243-.39420486.3623047-.56738281.1276048-.09570361.2871084-.19140577.4785156-.28710938.1276048-.05924509.3076161-.13443965.5400391-.22558594.1230475-.04101583.3053373-.10253865.546875-.18457031.1640633-.04557314.3486318-.09570285.5537109-.15039062.0820317-.02278657.1686194-.04443349.2597657-.06494141.0911462-.02050791.1777339-.04215483.2597656-.0649414.0136719-.00455732.0296223-.00683594.0478515-.00683594-.0319012-.75195689-.1139316-1.43098656-.2460937-2.03710938z" fill="#28dcf0"/></g></svg>