<?xml version="1.0" encoding="UTF-8"?>
<svg width="48px" height="48px" viewBox="0 0 48 48" version="1.1" xmlns="http://www.w3.org/2000/svg" xmlns:xlink="http://www.w3.org/1999/xlink">
    <title>icone/48x48/communication_48_bicolore</title>
    <g id="icone/48x48/communication_48_bicolore" stroke="none" stroke-width="1" fill="none" fill-rule="evenodd">
        <circle id="Oval" stroke="#FFCE00" stroke-width="1.5" cx="4.5" cy="42.5" r="2.75"></circle>
        <rect id="Rectangle" stroke="#FFCE00" stroke-width="1.5" transform="translate(5.000000, 7.000000) rotate(29.000000) translate(-5.000000, -7.000000) " x="3.25" y="5.25" width="3.5" height="3.5" rx="0.5"></rect>
        <path d="M40.2140132,13.0180411 L42.7760929,16.5543408 L37.9668029,16.6164581 L40.2140132,13.0180411 Z" id="Triangle" stroke="#FFCE00" stroke-width="1.5" transform="translate(40.369511, 14.373557) rotate(-41.000000) translate(-40.369511, -14.373557) "></path>
        <g id="comments-alt" transform="translate(8.000000, 10.000000)" fill="#0B554B" fill-rule="nonzero">
            <path d="M28.4444444,8.88888889 L23.1111111,8.88888889 L23.1111111,3.55555556 C23.1111111,1.59444444 21.5166667,0 19.5555556,0 L3.55555556,0 C1.59444444,0 0,1.59444444 0,3.55555556 L0,12.4444444 C0,14.4055556 1.59444444,16 3.55555556,16 L5.33333333,16 L5.33333333,18.8888889 C5.33333333,19.2833333 5.65555556,19.5555556 6,19.5555556 C6.13333333,19.5555556 6.27222222,19.5166667 6.39444444,19.4222222 L10.6666667,17.0055556 L10.6666667,21.3333333 C10.6666667,23.2944444 12.2611111,24.8888889 14.2222222,24.8888889 L19.5555556,24.8888889 L25.6055556,28.3111111 C25.7277778,28.4 25.8666667,28.4444444 26,28.4444444 C26.3444444,28.4444444 26.6666667,28.1722222 26.6666667,27.7777778 L26.6666667,24.8888889 L28.4444444,24.8888889 C30.4055556,24.8888889 32,23.2944444 32,21.3333333 L32,12.4444444 C32,10.4833333 30.4055556,8.88888889 28.4444444,8.88888889 Z M3.55555556,14.2222222 C2.57777778,14.2222222 1.77777778,13.4222222 1.77777778,12.4444444 L1.77777778,3.55555556 C1.77777778,2.57777778 2.57777778,1.77777778 3.55555556,1.77777778 L19.5555556,1.77777778 C20.5333333,1.77777778 21.3333333,2.57777778 21.3333333,3.55555556 L21.3333333,12.4444444 C21.3333333,13.4222222 20.5333333,14.2222222 19.5555556,14.2222222 L11.9777778,14.2222222 L11.5722222,14.4555556 L7.11111111,16.9777778 L7.11111111,14.2222222 L3.55555556,14.2222222 Z M30.2222222,21.3333333 C30.2222222,22.3111111 29.4222222,23.1111111 28.4444444,23.1111111 L24.8888889,23.1111111 L24.8888889,25.8666667 L20.4333333,23.3444444 L20.0277778,23.1111111 L14.2222222,23.1111111 C13.2444444,23.1111111 12.4444444,22.3111111 12.4444444,21.3333333 L12.4444444,16 L19.5555556,16 C21.5166667,16 23.1111111,14.4055556 23.1111111,12.4444444 L23.1111111,10.6666667 L28.4444444,10.6666667 C29.4222222,10.6666667 30.2222222,11.4666667 30.2222222,12.4444444 L30.2222222,21.3333333 Z" id="Shape"></path>
        </g>
    </g>
</svg>