<?xml version="1.0" encoding="UTF-8"?>
<svg width="48px" height="48px" viewBox="0 0 48 48" version="1.1" xmlns="http://www.w3.org/2000/svg" xmlns:xlink="http://www.w3.org/1999/xlink">
    <title>icone/48x48/profil_48_bicolore</title>
    <g id="icone/48x48/profil_48_bicolore" stroke="none" stroke-width="1" fill="none" fill-rule="evenodd">
        <circle id="Oval" stroke="#FFCE00" stroke-width="1.5" cx="40.5" cy="7.5" r="2.75"></circle>
        <g id="Group-9" transform="translate(11.000000, 11.000000)" stroke="#0B554B" stroke-width="1.5">
            <path d="M26,13 C26,5.82028571 20.1797143,0 13,0 C5.82028571,0 0,5.82028571 0,13 C0,20.1797143 5.82028571,26 13,26 C20.1797143,26 26,20.1797143 26,13 Z" id="Stroke-1"></path>
            <path d="M19.3839286,10.7946429 C19.3839286,7.33292857 16.5777857,4.52678571 13.1160714,4.52678571 C9.65435714,4.52678571 6.84821429,7.33292857 6.84821429,10.7946429 C6.84821429,14.2563571 9.65435714,17.0625 13.1160714,17.0625 C16.5777857,17.0625 19.3839286,14.2563571 19.3839286,10.7946429 Z" id="Stroke-3"></path>
            <path d="M23.0127393,21.2914 C21.3290071,18.8859357 18.790525,17.1225786 15.8381321,16.4419357" id="Stroke-5"></path>
            <path d="M10.0159196,16.5356518 C7.16404464,17.2912768 4.7263125,19.0646161 3.11500893,21.4433839" id="Stroke-7"></path>
        </g>
        <rect id="Rectangle" stroke="#FFCE00" stroke-width="1.5" transform="translate(4.000000, 29.000000) rotate(29.000000) translate(-4.000000, -29.000000) " x="2.25" y="27.25" width="3.5" height="3.5" rx="0.5"></rect>
        <path d="M39.2140132,38.0180411 L41.7760929,41.5543408 L36.9668029,41.6164581 L39.2140132,38.0180411 Z" id="Triangle" stroke="#FFCE00" stroke-width="1.5" transform="translate(39.369511, 39.373557) rotate(-41.000000) translate(-39.369511, -39.373557) "></path>
    </g>
</svg>