<?xml version="1.0" encoding="UTF-8"?>
<svg width="46px" height="46px" viewBox="0 0 46 46" version="1.1" xmlns="http://www.w3.org/2000/svg" xmlns:xlink="http://www.w3.org/1999/xlink">
    <title>icone/48x48/compte_48_bicolore</title>
    <g id="icone/48x48/compte_48_bicolore" stroke="none" stroke-width="1" fill="none" fill-rule="evenodd">
        <path d="M10,41.0001214 C10,39.895526 9.10452835,39 8,39 C6.89547165,39 6,39.895526 6,41.0001214 C6,42.1047168 6.89547165,43 8,43 C9.10452835,43 10,42.1047168 10,41.0001214 Z" id="Stroke-1" stroke="#28DCF0" stroke-width="2" stroke-linecap="round" stroke-linejoin="round"></path>
        <g id="Group-8" transform="translate(41.750000, 21.208333) rotate(-19.000000) translate(-41.750000, -21.208333) translate(39.833333, 19.291667)" stroke="#28DCF0" stroke-linecap="round" stroke-linejoin="round" stroke-width="2">
            <line x1="1.91666667" y1="4.54747766e-13" x2="1.91666667" y2="3.83333333" id="Stroke-1"></line>
            <line x1="3.83333333" y1="1.91666667" x2="0" y2="1.91666667" id="Stroke-3"></line>
        </g>
        <path d="M8.08253547,2.15877982 C8.2247716,2.00189057 8.52743477,1.95297907 8.75855259,2.04953294 C10.390114,2.73114877 10.4110315,4.32907888 8.83575907,5.02770526 L8.75632001,5.06201014 C7.74545188,5.48427119 7.72771735,6.47178919 8.68520612,6.90689194 L8.73743299,6.92966619 L8.75855259,6.93801018 C10.390114,7.61962602 10.4110315,9.21755612 8.83575907,9.9161825 L8.77136601,9.94394338 C8.54556503,10.0461301 8.24048527,10.0047107 8.08995128,9.85143069 C7.946944,9.70581466 7.99486053,9.51162909 8.19360582,9.40496226 L8.22623423,9.38886727 L8.24352564,9.38130829 C9.25459032,8.95904252 9.2723283,7.97156131 8.31461742,7.53644174 L8.26237844,7.51366654 L8.24122461,7.50530824 C6.60995077,6.82368767 6.58903701,5.22579473 8.16406212,4.52715093 L8.24352564,4.49283104 C9.27264505,4.06302482 9.27264505,3.04763665 8.24347002,2.61767919 C8.0123522,2.52112533 7.94029935,2.31566908 8.08253547,2.15877982 Z" id="Stroke-1" stroke="#28DCF0" fill="#28DCF0" fill-rule="nonzero" transform="translate(8.500000, 6.000000) rotate(-232.000000) translate(-8.500000, -6.000000) "></path>
        <g id="Group-9" transform="translate(10.000000, 10.000000)" stroke="#1E1169" stroke-width="1.5">
            <path d="M26,13 C26,5.82028571 20.1797143,0 13,0 C5.82028571,0 0,5.82028571 0,13 C0,20.1797143 5.82028571,26 13,26 C20.1797143,26 26,20.1797143 26,13 Z" id="Stroke-1"></path>
            <path d="M19.3839286,10.7946429 C19.3839286,7.33292857 16.5777857,4.52678571 13.1160714,4.52678571 C9.65435714,4.52678571 6.84821429,7.33292857 6.84821429,10.7946429 C6.84821429,14.2563571 9.65435714,17.0625 13.1160714,17.0625 C16.5777857,17.0625 19.3839286,14.2563571 19.3839286,10.7946429 Z" id="Stroke-3"></path>
            <path d="M23.0127393,21.2914 C21.3290071,18.8859357 18.790525,17.1225786 15.8381321,16.4419357" id="Stroke-5"></path>
            <path d="M10.0159196,16.5356518 C7.16404464,17.2912768 4.7263125,19.0646161 3.11500893,21.4433839" id="Stroke-7"></path>
        </g>
    </g>
</svg>