<?xml version="1.0" encoding="UTF-8"?>
<svg width="48px" height="48px" viewBox="0 0 48 48" version="1.1" xmlns="http://www.w3.org/2000/svg" xmlns:xlink="http://www.w3.org/1999/xlink">
    <title>icone/48x48/coordonateur_48_bicolore</title>
    <g id="icone/48x48/coordonateur_48_bicolore" stroke="none" stroke-width="1" fill="none" fill-rule="evenodd">
        <circle id="Oval" stroke="#FFCE00" stroke-width="1.5" cx="4.5" cy="39.5" r="2.75"></circle>
        <rect id="Rectangle" stroke="#FFCE00" stroke-width="1.5" transform="translate(11.000000, 7.000000) rotate(29.000000) translate(-11.000000, -7.000000) " x="9.25" y="5.25" width="3.5" height="3.5" rx="0.5"></rect>
        <path d="M40.2140132,30.0180411 L42.7760929,33.5543408 L37.9668029,33.6164581 L40.2140132,30.0180411 Z" id="Triangle" stroke="#FFCE00" stroke-width="1.5" transform="translate(40.369511, 31.373557) rotate(-41.000000) translate(-40.369511, -31.373557) "></path>
        <g id="location-arrow" transform="translate(9.000000, 8.000000)" fill="#0B554B" fill-rule="nonzero" stroke="#0B554B" stroke-width="0.2">
            <path d="M28.8685798,0 C28.5104518,0 28.1441988,0.06875 27.7816959,0.22 L1.79585787,12.213125 C-1.2022917,13.6125 -0.202908507,18.01 2.9952427,18.01 L13.9897078,18.01 L13.9897078,29.004375 C13.9897078,30.88 15.5028452,32 17.0359828,32 C18.1172416,32 19.2078756,31.44375 19.7866303,30.20375 L31.7804786,4.2175 C32.6286106,2.180625 30.8835963,0 28.8685798,0 Z M29.9654637,3.38 L17.9747405,29.35875 C17.7759888,29.785 17.4597363,30.00125 17.0353578,30.00125 C16.6728548,30.00125 15.9878492,29.793125 15.9878492,29.005 L15.9878492,16.01125 L2.9952427,16.01125 C2.27961184,16.01125 2.08023521,15.459375 2.02710977,15.221875 C1.95835921,14.91375 1.94773412,14.348125 2.63336474,14.028125 L28.5510772,2.065 C28.657953,2.020625 28.7617039,1.999375 28.8692048,1.999375 C29.2079575,1.999375 29.5873356,2.2275 29.8135875,2.566875 C29.9504636,2.7725 30.0835897,3.0925 29.9654637,3.38 Z" id="Shape"></path>
        </g>
    </g>
</svg>