<?xml version="1.0" encoding="UTF-8"?>
<svg width="48px" height="48px" viewBox="0 0 48 48" version="1.1" xmlns="http://www.w3.org/2000/svg" xmlns:xlink="http://www.w3.org/1999/xlink">
    <title>icone/48x48/civique_48_bicolore</title>
    <g id="icone/48x48/civique_48_bicolore" stroke="none" stroke-width="1" fill="none" fill-rule="evenodd">
        <g id="noun_Flag_25841-Copy" transform="translate(6.000000, 9.000000)" fill="#1E1169" fill-rule="nonzero">
            <g id="Group">
                <path d="M6.19168295,20.9910334 C5.70384743,20.9910334 5.25210565,20.6886091 5.10203164,20.218414 C4.91814348,19.641588 5.25666486,19.0312805 5.85848065,18.8547754 C10.9518787,17.3630341 16.1094856,16.9063043 21.5657208,17.4693011 L16.9612981,6.20827346 C15.8370728,3.45952442 6.77336223,4.96509503 3.79467802,5.45894548 C3.53252341,5.50261685 3.29240499,5.54228502 3.07850203,5.57685819 C2.46034907,5.67439092 1.86955137,5.27552571 1.7654494,4.68086717 C1.66134743,4.08620864 2.08003493,3.52284792 2.70084743,3.42313161 L3.40524545,3.30740247 C7.90898559,2.5595302 17.2812027,1.00300966 19.0839905,5.41199875 L24.3912915,18.391131 C24.5398458,18.7543312 24.4744971,19.1659339 24.2203211,19.4705418 C23.9665251,19.7751496 23.5649346,19.930183 23.1591649,19.8686791 C17.3237553,19.0221823 11.8830974,19.3733729 6.52602506,20.9429949 C6.4143244,20.9753845 6.30224381,20.9910334 6.19168295,20.9910334 Z" id="Path"></path>
                <path d="M17.4742093,24.906536 C17.0604609,24.906536 16.6698885,24.6899988 16.4685234,24.3278903 C16.2219461,23.8842619 16.3230086,23.336914 16.7139609,23.0013723 L22.569507,17.975889 C23.0375859,17.5737484 23.758701,17.611597 24.1789083,18.0603203 C24.5987356,18.5094076 24.5596024,19.1997792 24.0907635,19.6019198 L21.3233228,21.9769147 C23.256808,21.7156143 25.2013112,21.5980655 27.143155,21.6199012 C29.0363672,21.6424647 30.9831501,21.802957 32.9523491,22.0973749 L28.9178277,10.6361868 C28.5918441,9.71108155 26.8635234,8.26119195 18.9631714,8.9453768 C18.3400793,8.99814638 17.781956,8.5570655 17.7249658,7.95622019 C17.6687356,7.3557388 18.1307356,6.82476769 18.757627,6.77017847 C23.4251188,6.36767398 29.7806583,6.25449233 31.0781336,9.93817269 L35.7273885,23.1473075 C35.857706,23.5166945 35.7718408,23.9246579 35.5028474,24.2172561 C35.2334741,24.5094904 34.8223853,24.6423242 34.4226945,24.5662632 C31.9390645,24.0887895 29.4797504,23.8318563 27.1139001,23.8034699 C23.9342307,23.7619821 20.8757603,24.1142645 17.7546007,24.8726907 C17.6611369,24.8952542 17.5669132,24.906536 17.4742093,24.906536 Z" id="Path"></path>
                <path d="M17.4742093,24.9068999 C17.0300662,24.9068999 16.6083392,24.6565174 16.4240711,24.2401836 L14.0240267,18.8081926 C13.7785892,18.2532022 14.0494823,17.6123248 14.6296418,17.3772272 C15.2071418,17.1432215 15.8777257,17.4012465 16.1235432,17.9573287 L18.5235876,23.3893197 C18.7690251,23.94431 18.498132,24.5851875 17.9179724,24.820285 C17.7735974,24.8785135 17.6227635,24.9068999 17.4742093,24.9068999 Z" id="Path"></path>
                <path d="M8.36300697,29.6321425 C7.85313526,29.6321425 7.38885565,29.3020597 7.25853822,28.8067536 L0.0348490723,1.35856743 C-0.119024283,0.774098879 0.251031638,0.180532127 0.861585914,0.0331412412 C1.47290006,-0.113521788 2.09181289,0.240216337 2.24568624,0.825048815 L9.46937539,28.273235 C9.62324874,28.8577035 9.25319282,29.4512703 8.64263855,29.5990251 C8.5487948,29.6212247 8.45495105,29.6321425 8.36300697,29.6321425 Z" id="Path"></path>
            </g>
        </g>
        <path d="M37,7.00012141 C37,5.89552601 36.1045283,5 35,5 C33.8954717,5 33,5.89552601 33,7.00012141 C33,8.10471681 33.8954717,9 35,9 C36.1045283,9 37,8.10471681 37,7.00012141 Z" id="Stroke-1" stroke="#28DCF0" stroke-width="2" stroke-linecap="round" stroke-linejoin="round"></path>
        <g id="Group-8" transform="translate(7.750000, 43.208333) rotate(-19.000000) translate(-7.750000, -43.208333) translate(5.833333, 41.291667)" stroke="#28DCF0" stroke-linecap="round" stroke-linejoin="round" stroke-width="2">
            <line x1="1.91666667" y1="4.54747766e-13" x2="1.91666667" y2="3.83333333" id="Stroke-1"></line>
            <line x1="3.83333333" y1="1.91666667" x2="0" y2="1.91666667" id="Stroke-3"></line>
        </g>
        <path d="M36.0825355,37.1587798 C36.2247716,37.0018906 36.5274348,36.9529791 36.7585526,37.0495329 C38.390114,37.7311488 38.4110315,39.3290789 36.8357591,40.0277053 L36.75632,40.0620101 C35.7454519,40.4842712 35.7277173,41.4717892 36.6852061,41.9068919 L36.737433,41.9296662 L36.7585526,41.9380102 C38.390114,42.619626 38.4110315,44.2175561 36.8357591,44.9161825 L36.771366,44.9439434 C36.545565,45.0461301 36.2404853,45.0047107 36.0899513,44.8514307 C35.946944,44.7058147 35.9948605,44.5116291 36.1936058,44.4049623 L36.2262342,44.3888673 L36.2435256,44.3813083 C37.2545903,43.9590425 37.2723283,42.9715613 36.3146174,42.5364417 L36.2623784,42.5136665 L36.2412246,42.5053082 C34.6099508,41.8236877 34.589037,40.2257947 36.1640621,39.5271509 L36.2435256,39.492831 C37.272645,39.0630248 37.272645,38.0476366 36.24347,37.6176792 C36.0123522,37.5211253 35.9402994,37.3156691 36.0825355,37.1587798 Z" id="Stroke-1" stroke="#28DCF0" fill="#28DCF0" fill-rule="nonzero" transform="translate(36.500000, 41.000000) rotate(-232.000000) translate(-36.500000, -41.000000) "></path>
    </g>
</svg>