<?xml version="1.0" encoding="UTF-8"?>
<svg width="48px" height="48px" viewBox="0 0 48 48" version="1.1" xmlns="http://www.w3.org/2000/svg" xmlns:xlink="http://www.w3.org/1999/xlink">
    <title>icone/48x48/event__48_bicolore</title>
    <g id="icone/48x48/event__48_bicolore" stroke="none" stroke-width="1" fill="none" fill-rule="evenodd">
        <path d="M37.4482759,12.1034483 L34.3448276,12.1034483 L34.3448276,11.5862069 C34.3448276,10.1578843 33.1869433,9 31.7586207,9 C30.3302981,9 29.1724138,10.1578843 29.1724138,11.5862069 L29.1724138,12.1034483 L19.862069,12.1034483 L19.862069,11.5862069 C19.862069,10.1578843 18.7041847,9 17.2758621,9 C15.8475394,9 14.6896552,10.1578843 14.6896552,11.5862069 L14.6896552,12.1034483 L11.5862069,12.1034483 C10.1585932,12.1051583 9.00171006,13.2620415 9,14.6896552 L9,36.4137931 C9.00171006,37.8414068 10.1585932,38.9982899 11.5862069,39 L37.4482759,39 C38.8758896,38.9982899 40.0327727,37.8414068 40.0344828,36.4137931 L40.0344828,14.6896552 C40.0327727,13.2620415 38.8758896,12.1051583 37.4482759,12.1034483 Z M30.2068966,11.5862069 C30.2068966,10.7292133 30.9016271,10.0344828 31.7586207,10.0344828 C32.6156143,10.0344828 33.3103448,10.7292133 33.3103448,11.5862069 L33.3103448,13.6551724 C33.3103448,14.512166 32.6156143,15.2068966 31.7586207,15.2068966 C30.9016271,15.2068966 30.2068966,14.512166 30.2068966,13.6551724 L30.2068966,11.5862069 Z M15.7241379,11.5862069 C15.7241379,10.7292133 16.4188685,10.0344828 17.2758621,10.0344828 C18.1328556,10.0344828 18.8275862,10.7292133 18.8275862,11.5862069 L18.8275862,13.6551724 C18.8275862,14.512166 18.1328556,15.2068966 17.2758621,15.2068966 C16.4188685,15.2068966 15.7241379,14.512166 15.7241379,13.6551724 L15.7241379,11.5862069 Z M39,18.8275862 L35.3793103,18.8275862 C35.0936458,18.8275862 34.862069,19.0591631 34.862069,19.3448276 C34.862069,19.6304921 35.0936458,19.862069 35.3793103,19.862069 L39,19.862069 L39,36.4137931 C39,37.2707867 38.3052694,37.9655172 37.4482759,37.9655172 L11.5862069,37.9655172 C10.7292133,37.9655172 10.0344828,37.2707867 10.0344828,36.4137931 L10.0344828,19.862069 L32.2758621,19.862069 C32.5615266,19.862069 32.7931034,19.6304921 32.7931034,19.3448276 C32.7931034,19.0591631 32.5615266,18.8275862 32.2758621,18.8275862 L10.0344828,18.8275862 L10.0344828,14.6896552 C10.0344828,13.8326616 10.7292133,13.137931 11.5862069,13.137931 L14.6896552,13.137931 L14.6896552,13.6551724 C14.6896552,15.083495 15.8475394,16.2413793 17.2758621,16.2413793 C18.7041847,16.2413793 19.862069,15.083495 19.862069,13.6551724 L19.862069,13.137931 L29.1724138,13.137931 L29.1724138,13.6551724 C29.1724138,15.083495 30.3302981,16.2413793 31.7586207,16.2413793 C33.1869433,16.2413793 34.3448276,15.083495 34.3448276,13.6551724 L34.3448276,13.137931 L37.4482759,13.137931 C38.3052694,13.137931 39,13.8326616 39,14.6896552 L39,18.8275862 Z" id="Shape" stroke="#1E1169" stroke-width="0.5" fill="#1E1169" fill-rule="nonzero"></path>
        <path d="M8,44.0001214 C8,42.895526 7.10452835,42 6,42 C4.89547165,42 4,42.895526 4,44.0001214 C4,45.1047168 4.89547165,46 6,46 C7.10452835,46 8,45.1047168 8,44.0001214 Z" id="Stroke-1" stroke="#28DCF0" stroke-width="2" stroke-linecap="round" stroke-linejoin="round"></path>
        <g id="Group-8" transform="translate(43.750000, 17.208333) rotate(-19.000000) translate(-43.750000, -17.208333) translate(41.833333, 15.291667)" stroke="#28DCF0" stroke-linecap="round" stroke-linejoin="round" stroke-width="2">
            <line x1="1.91666667" y1="4.54747766e-13" x2="1.91666667" y2="3.83333333" id="Stroke-1"></line>
            <line x1="3.83333333" y1="1.91666667" x2="0" y2="1.91666667" id="Stroke-3"></line>
        </g>
        <path d="M8.08253547,2.15877982 C8.2247716,2.00189057 8.52743477,1.95297907 8.75855259,2.04953294 C10.390114,2.73114877 10.4110315,4.32907888 8.83575907,5.02770526 L8.75632001,5.06201014 C7.74545188,5.48427119 7.72771735,6.47178919 8.68520612,6.90689194 L8.73743299,6.92966619 L8.75855259,6.93801018 C10.390114,7.61962602 10.4110315,9.21755612 8.83575907,9.9161825 L8.77136601,9.94394338 C8.54556503,10.0461301 8.24048527,10.0047107 8.08995128,9.85143069 C7.946944,9.70581466 7.99486053,9.51162909 8.19360582,9.40496226 L8.22623423,9.38886727 L8.24352564,9.38130829 C9.25459032,8.95904252 9.2723283,7.97156131 8.31461742,7.53644174 L8.26237844,7.51366654 L8.24122461,7.50530824 C6.60995077,6.82368767 6.58903701,5.22579473 8.16406212,4.52715093 L8.24352564,4.49283104 C9.27264505,4.06302482 9.27264505,3.04763665 8.24347002,2.61767919 C8.0123522,2.52112533 7.94029935,2.31566908 8.08253547,2.15877982 Z" id="Stroke-1" stroke="#28DCF0" fill="#28DCF0" fill-rule="nonzero" transform="translate(8.500000, 6.000000) rotate(-232.000000) translate(-8.500000, -6.000000) "></path>
    </g>
</svg>