<?xml version="1.0" encoding="UTF-8"?>
<svg width="46px" height="46px" viewBox="0 0 46 46" version="1.1" xmlns="http://www.w3.org/2000/svg" xmlns:xlink="http://www.w3.org/1999/xlink">
    <title>icone/48x48/classroom_48_bicolore</title>
    <g id="icone/48x48/classroom_48_bicolore" stroke="none" stroke-width="1" fill="none" fill-rule="evenodd">
        <g id="noun_blackboard_1445800" transform="translate(4.000000, 10.000000)" fill="#0B554B" fill-rule="nonzero">
            <g id="Group">
                <path d="M0.741492207,0.000899255772 C0.3198379,0.0406376456 -0.00181079794,0.395548753 7.67228812e-06,0.819053824 L7.67228812e-06,4.0916721 C7.67228812e-06,4.54350768 0.366346358,4.90978151 0.818196703,4.90982666 L1.636378,4.90982666 L1.636378,22.0910726 L0.818196703,22.0910726 C0.792642596,22.0898736 0.767046315,22.0898736 0.741492207,22.0910726 C0.3198379,22.130811 -0.00181079794,22.4857221 7.67228812e-06,22.9092272 L7.67228812e-06,26.1818454 C7.67228812e-06,26.633681 0.366346358,27 0.818196703,27 L35.181811,27 C35.6336614,27 35.9999923,26.633681 35.9999923,26.1818454 L35.9999923,22.9092272 C35.9999923,22.4573916 35.6336614,22.0911177 35.181811,22.0910726 L34.3636297,22.0910726 L34.3636297,7.36429037 C34.3687056,7.12866497 34.2719317,6.90229349 34.0980919,6.74314957 C33.9242521,6.58400565 33.6902305,6.50754608 33.4559599,6.53335213 C33.034436,6.57967197 32.7181467,6.94034098 32.7272672,7.36429037 L32.7272672,22.0910726 L30.2727233,22.0910726 L30.2727233,18.0002998 C30.2726781,17.5484642 29.9063923,17.1821904 29.454542,17.1821452 L21.272729,17.1821452 C21.2471749,17.1809462 21.2215787,17.1809462 21.1960245,17.1821452 C20.7743702,17.2218836 20.4527216,17.5767947 20.4545477,18.0002998 L20.4545477,22.0910726 L3.27274058,22.0910726 L3.27274058,4.90982666 L35.181811,4.90982666 C35.6336614,4.90978151 35.9999923,4.54350768 35.9999923,4.0916721 L35.9999923,0.819053824 C35.9999923,0.367218238 35.6336614,0.000944409969 35.181811,0.000899255772 L0.818196703,0.000899255772 C0.792642596,-0.000299751924 0.767046315,-0.000299751924 0.741492207,0.000899255772 Z M1.636378,1.63720839 L34.3636297,1.63720839 L34.3636297,3.27351753 L1.636378,3.27351753 L1.636378,1.63720839 Z M22.0909103,18.8184543 L28.6363607,18.8184543 L28.6363607,22.0910726 L22.0909103,22.0910726 L22.0909103,18.8184543 Z M1.636378,23.7273817 L34.3636297,23.7273817 L34.3636297,25.3636909 L1.636378,25.3636909 L1.636378,23.7273817 Z" id="Shape"></path>
            </g>
        </g>
        <circle id="Oval" stroke="#FFCE00" stroke-width="1.5" cx="40.8985733" cy="4.5" r="2.75"></circle>
        <rect id="Rectangle" stroke="#FFCE00" stroke-width="1.5" transform="translate(5.398573, 5.000000) rotate(29.000000) translate(-5.398573, -5.000000) " x="3.64857332" y="3.25" width="3.5" height="3.5" rx="0.5"></rect>
        <path d="M39.6125865,39.0180411 L42.1746662,42.5543408 L37.3653763,42.6164581 L39.6125865,39.0180411 Z" id="Triangle" stroke="#FFCE00" stroke-width="1.5" transform="translate(39.768084, 40.373557) rotate(-41.000000) translate(-39.768084, -40.373557) "></path>
    </g>
</svg>