<?xml version="1.0" encoding="UTF-8"?>
<svg width="48px" height="48px" viewBox="0 0 48 48" version="1.1" xmlns="http://www.w3.org/2000/svg" xmlns:xlink="http://www.w3.org/1999/xlink">
    <title>icone/48x48/groupe_48_bicolore</title>
    <g id="icone/48x48/groupe_48_bicolore" stroke="none" stroke-width="1" fill="none" fill-rule="evenodd">
        <circle id="Oval" stroke="#FFCE00" stroke-width="1.5" cx="4.5" cy="42.5" r="2.75"></circle>
        <rect id="Rectangle" stroke="#FFCE00" stroke-width="1.5" transform="translate(5.000000, 7.000000) rotate(29.000000) translate(-5.000000, -7.000000) " x="3.25" y="5.25" width="3.5" height="3.5" rx="0.5"></rect>
        <path d="M43.2140132,18.0180411 L45.7760929,21.5543408 L40.9668029,21.6164581 L43.2140132,18.0180411 Z" id="Triangle" stroke="#FFCE00" stroke-width="1.5" transform="translate(43.369511, 19.373557) rotate(-41.000000) translate(-43.369511, -19.373557) "></path>
        <g id="users" transform="translate(8.000000, 13.000000)" fill="#0B554B" fill-rule="nonzero" stroke="#0B554B" stroke-width="0.2">
            <path d="M27.2,9.6 C29.41,9.6 31.2,7.81 31.2,5.6 C31.2,3.39 29.41,1.6 27.2,1.6 C24.99,1.6 23.2,3.39 23.2,5.6 C23.2,7.81 24.99,9.6 27.2,9.6 Z M27.2,3.2 C28.525,3.2 29.6,4.275 29.6,5.6 C29.6,6.925 28.525,8 27.2,8 C25.875,8 24.8,6.925 24.8,5.6 C24.8,4.275 25.875,3.2 27.2,3.2 Z M16,11.2 C19.095,11.2 21.6,8.695 21.6,5.6 C21.6,2.505 19.095,0 16,0 C12.905,0 10.4,2.505 10.4,5.6 C10.4,8.695 12.905,11.2 16,11.2 Z M16,1.6 C18.205,1.6 20,3.395 20,5.6 C20,7.805 18.205,9.6 16,9.6 C13.795,9.6 12,7.805 12,5.6 C12,3.395 13.795,1.6 16,1.6 Z M28.2,11.2 L26.2,11.2 C25.44,11.2 24.735,11.44 24.145,11.845 C24.615,12.165 25.04,12.54 25.415,12.965 C25.66,12.86 25.925,12.8 26.2,12.8 L28.2,12.8 C29.41,12.8 30.4,13.875 30.4,15.2 C30.4,15.64 30.76,16 31.2,16 C31.64,16 32,15.64 32,15.2 C32,12.995 30.295,11.2 28.2,11.2 L28.2,11.2 Z M4.8,9.6 C7.01,9.6 8.8,7.81 8.8,5.6 C8.8,3.39 7.01,1.6 4.8,1.6 C2.59,1.6 0.8,3.39 0.8,5.6 C0.8,7.81 2.59,9.6 4.8,9.6 Z M4.8,3.2 C6.125,3.2 7.2,4.275 7.2,5.6 C7.2,6.925 6.125,8 4.8,8 C3.475,8 2.4,6.925 2.4,5.6 C2.4,4.275 3.475,3.2 4.8,3.2 Z M20.005,12.2 C18.335,12.2 17.92,12.8 16,12.8 C14.08,12.8 13.665,12.2 11.995,12.2 C10.18,12.2 8.415,13.01 7.38,14.545 C6.76,15.465 6.4,16.57 6.4,17.76 L6.4,20 C6.4,21.325 7.475,22.4 8.8,22.4 L23.2,22.4 C24.525,22.4 25.6,21.325 25.6,20 L25.6,17.76 C25.6,16.57 25.24,15.465 24.62,14.545 C23.585,13.01 21.82,12.2 20.005,12.2 L20.005,12.2 Z M24,20 C24,20.44 23.64,20.8 23.2,20.8 L8.8,20.8 C8.36,20.8 8,20.44 8,20 L8,17.76 C8,16.93 8.245,16.125 8.705,15.44 C9.395,14.415 10.625,13.8 11.99,13.8 C13.36,13.8 13.85,14.4 16,14.4 C18.15,14.4 18.64,13.8 20.005,13.8 C21.37,13.8 22.6,14.415 23.29,15.44 C23.75,16.125 23.995,16.93 23.995,17.76 L23.995,20 L24,20 Z M7.855,11.845 C7.26,11.44 6.555,11.2 5.8,11.2 L3.8,11.2 C1.705,11.2 0,12.995 0,15.2 C0,15.64 0.36,16 0.8,16 C1.24,16 1.6,15.64 1.6,15.2 C1.6,13.875 2.59,12.8 3.8,12.8 L5.8,12.8 C6.075,12.8 6.34,12.86 6.585,12.965 C6.96,12.54 7.39,12.165 7.855,11.845 L7.855,11.845 Z" id="Shape"></path>
        </g>
    </g>
</svg>