<?xml version="1.0" encoding="UTF-8"?>
<svg width="46px" height="46px" viewBox="0 0 46 46" version="1.1" xmlns="http://www.w3.org/2000/svg" xmlns:xlink="http://www.w3.org/1999/xlink">
    <title>icone/48x48/classroom_48_bicolore</title>
    <g id="icone/48x48/classroom_48_bicolore" stroke="none" stroke-width="1" fill="none" fill-rule="evenodd">
        <g id="noun_blackboard_1445800" transform="translate(4.000000, 10.000000)" fill="#1E1169" fill-rule="nonzero">
            <g id="Group">
                <path d="M0.741492207,0.000899255772 C0.3198379,0.0406376456 -0.00181079794,0.395548753 7.67228812e-06,0.819053824 L7.67228812e-06,4.0916721 C7.67228812e-06,4.54350768 0.366346358,4.90978151 0.818196703,4.90982666 L1.636378,4.90982666 L1.636378,22.0910726 L0.818196703,22.0910726 C0.792642596,22.0898736 0.767046315,22.0898736 0.741492207,22.0910726 C0.3198379,22.130811 -0.00181079794,22.4857221 7.67228812e-06,22.9092272 L7.67228812e-06,26.1818454 C7.67228812e-06,26.633681 0.366346358,27 0.818196703,27 L35.181811,27 C35.6336614,27 35.9999923,26.633681 35.9999923,26.1818454 L35.9999923,22.9092272 C35.9999923,22.4573916 35.6336614,22.0911177 35.181811,22.0910726 L34.3636297,22.0910726 L34.3636297,7.36429037 C34.3687056,7.12866497 34.2719317,6.90229349 34.0980919,6.74314957 C33.9242521,6.58400565 33.6902305,6.50754608 33.4559599,6.53335213 C33.034436,6.57967197 32.7181467,6.94034098 32.7272672,7.36429037 L32.7272672,22.0910726 L30.2727233,22.0910726 L30.2727233,18.0002998 C30.2726781,17.5484642 29.9063923,17.1821904 29.454542,17.1821452 L21.272729,17.1821452 C21.2471749,17.1809462 21.2215787,17.1809462 21.1960245,17.1821452 C20.7743702,17.2218836 20.4527216,17.5767947 20.4545477,18.0002998 L20.4545477,22.0910726 L3.27274058,22.0910726 L3.27274058,4.90982666 L35.181811,4.90982666 C35.6336614,4.90978151 35.9999923,4.54350768 35.9999923,4.0916721 L35.9999923,0.819053824 C35.9999923,0.367218238 35.6336614,0.000944409969 35.181811,0.000899255772 L0.818196703,0.000899255772 C0.792642596,-0.000299751924 0.767046315,-0.000299751924 0.741492207,0.000899255772 Z M1.636378,1.63720839 L34.3636297,1.63720839 L34.3636297,3.27351753 L1.636378,3.27351753 L1.636378,1.63720839 Z M22.0909103,18.8184543 L28.6363607,18.8184543 L28.6363607,22.0910726 L22.0909103,22.0910726 L22.0909103,18.8184543 Z M1.636378,23.7273817 L34.3636297,23.7273817 L34.3636297,25.3636909 L1.636378,25.3636909 L1.636378,23.7273817 Z" id="Shape"></path>
            </g>
        </g>
        <path d="M45,23.0001214 C45,21.895526 44.1045283,21 43,21 C41.8954717,21 41,21.895526 41,23.0001214 C41,24.1047168 41.8954717,25 43,25 C44.1045283,25 45,24.1047168 45,23.0001214 Z" id="Stroke-1" stroke="#28DCF0" stroke-width="2" stroke-linecap="round" stroke-linejoin="round"></path>
        <g id="Group-8" transform="translate(12.750000, 42.208333) rotate(-19.000000) translate(-12.750000, -42.208333) translate(10.833333, 40.291667)" stroke="#28DCF0" stroke-linecap="round" stroke-linejoin="round" stroke-width="2">
            <line x1="1.91666667" y1="4.54747766e-13" x2="1.91666667" y2="3.83333333" id="Stroke-1"></line>
            <line x1="3.83333333" y1="1.91666667" x2="0" y2="1.91666667" id="Stroke-3"></line>
        </g>
        <path d="M14.0825355,1.15877982 C14.2247716,1.00189057 14.5274348,0.95297907 14.7585526,1.04953294 C16.390114,1.73114877 16.4110315,3.32907888 14.8357591,4.02770526 L14.75632,4.06201014 C13.7454519,4.48427119 13.7277173,5.47178919 14.6852061,5.90689194 L14.737433,5.92966619 L14.7585526,5.93801018 C16.390114,6.61962602 16.4110315,8.21755612 14.8357591,8.9161825 L14.771366,8.94394338 C14.545565,9.04613007 14.2404853,9.00471073 14.0899513,8.85143069 C13.946944,8.70581466 13.9948605,8.51162909 14.1936058,8.40496226 L14.2262342,8.38886727 L14.2435256,8.38130829 C15.2545903,7.95904252 15.2723283,6.97156131 14.3146174,6.53644174 L14.2623784,6.51366654 L14.2412246,6.50530824 C12.6099508,5.82368767 12.589037,4.22579473 14.1640621,3.52715093 L14.2435256,3.49283104 C15.272645,3.06302482 15.272645,2.04763665 14.24347,1.61767919 C14.0123522,1.52112533 13.9402994,1.31566908 14.0825355,1.15877982 Z" id="Stroke-1" stroke="#28DCF0" fill="#28DCF0" fill-rule="nonzero" transform="translate(14.500000, 5.000000) rotate(-315.000000) translate(-14.500000, -5.000000) "></path>
    </g>
</svg>