<?xml version="1.0" encoding="UTF-8"?>
<svg width="48px" height="48px" viewBox="0 0 48 48" version="1.1" xmlns="http://www.w3.org/2000/svg" xmlns:xlink="http://www.w3.org/1999/xlink">
    <title>icone/48x48/books_48_bicolore</title>
    <g id="icone/48x48/books_48_bicolore" stroke="none" stroke-width="1" fill="none" fill-rule="evenodd">
        <circle id="Oval" stroke="#FFCE00" stroke-width="1.5" cx="3.5" cy="44.5" r="2.75"></circle>
        <rect id="Rectangle" stroke="#FFCE00" stroke-width="1.5" transform="translate(4.000000, 3.000000) rotate(29.000000) translate(-4.000000, -3.000000) " x="2.25" y="1.25" width="3.5" height="3.5" rx="0.5"></rect>
        <path d="M41.2140132,15.0180411 L43.7760929,18.5543408 L38.9668029,18.6164581 L41.2140132,15.0180411 Z" id="Triangle" stroke="#FFCE00" stroke-width="1.5" transform="translate(41.369511, 16.373557) rotate(-41.000000) translate(-41.369511, -16.373557) "></path>
        <g id="books" transform="translate(6.000000, 8.000000)" fill="#0B554B" fill-rule="nonzero">
            <path d="M35.958125,28.526875 L24.9375,0.50125 C24.83,0.19375 24.538125,0 24.228125,0 C24.04,0 23.9175,0.064375 23.51,0.206875 C23.10625,0.348125 22.89625,0.721875 23.118125,1.355625 C22.089375,1.96125 19.42125,2.86125 18.399375,3.006875 C18.31625,2.770625 18.27625,2.593125 17.999375,2.43 L17.999375,2 C17.999375,0.895625 17.10375,0 15.999375,0 L9.999375,0 C9.626875,0 9.298125,0.129375 8.999375,0.30625 C8.70125,0.129375 8.3725,0 8,0 L2,0 C0.895625,0 0,0.895625 0,2 L0,30 C0,31.104375 0.895625,32 2,32 L8,32 C8.3725,32 8.70125,31.870625 9,31.69375 C9.29875,31.87125 9.6275,32 10,32 L16,32 C17.104375,32 18,31.104375 18,30 L18,7.43 L27.464375,31.49875 C27.5725,31.80625 27.864375,32 28.17375,32 C28.36125,32 28.48375,31.935625 28.891875,31.793125 C29.294375,31.6525 29.50625,31.27875 29.28375,30.644375 C30.3125,30.03875 32.980625,29.13875 34.0025,28.993125 C34.230625,29.643125 34.635625,29.78375 35.02625,29.646875 L35.498125,29.481875 C35.8875,29.345 36.094375,28.915 35.958125,28.526875 L35.958125,28.526875 Z M8,30 L2,30 L2,26 L8,26 L8,30 Z M8,24 L2,24 L2,8 L8,8 L8,24 Z M8,6 L2,6 L2,2 L8,2 L8,6 Z M16,30 L10,30 L10,26 L16,26 L16,30 Z M16,24 L10,24 L10,8 L16,8 L16,24 Z M16,6 L10,6 L10,2 L16,2 L16,6 Z M28.696875,28.97125 L18.986875,4.68 C20.563125,4.38375 22.9875,3.409375 23.705625,3.02875 L33.415625,27.319375 C31.83875,27.61625 29.415,28.59 28.696875,28.97125 L28.696875,28.97125 Z" id="Shape"></path>
        </g>
    </g>
</svg>