<?xml version="1.0" encoding="UTF-8"?>
<svg width="48px" height="48px" viewBox="0 0 48 48" version="1.1" xmlns="http://www.w3.org/2000/svg" xmlns:xlink="http://www.w3.org/1999/xlink">
    <title>icone/48x48/infocircle_48_bicolore</title>
    <g id="icone/48x48/infocircle_48_bicolore" stroke="none" stroke-width="1" fill="none" fill-rule="evenodd">
        <g id="Group" transform="translate(7.000000, 7.000000)">
            <path d="M18.7,9.5033908 C18.7,10.4413218 17.9262069,11.1916667 16.9882759,11.1916667 C16.0503448,11.1916667 15.3,10.4413218 15.3,9.5033908 C15.3,8.56545977 16.0503448,7.79166667 16.9882759,7.79166667 C17.9262069,7.79166667 18.7,8.56545977 18.7,9.5033908 Z M19.8333333,24.7916667 L14.1666667,24.7916667 L14.1666667,22.7645664 L15.7514124,22.7645664 L15.7514124,15.4854336 L14.1666667,15.4854336 L14.1666667,13.4583333 L18.3686441,13.4583333 L18.3686441,22.7645664 L19.8333333,22.7645664 L19.8333333,24.7916667 Z" id="i" fill="#0B554B" fill-rule="nonzero"></path>
            <circle id="Oval" stroke="#0B554B" stroke-width="2" cx="17" cy="17" r="16"></circle>
        </g>
        <circle id="Oval" stroke="#FFCE00" stroke-width="1.5" cx="40.5" cy="7.5" r="2.75"></circle>
        <rect id="Rectangle" stroke="#FFCE00" stroke-width="1.5" transform="translate(4.000000, 9.000000) rotate(29.000000) translate(-4.000000, -9.000000) " x="2.25" y="7.25" width="3.5" height="3.5" rx="0.5"></rect>
        <path d="M41.2140132,41.0180411 L43.7760929,44.5543408 L38.9668029,44.6164581 L41.2140132,41.0180411 Z" id="Triangle" stroke="#FFCE00" stroke-width="1.5" transform="translate(41.369511, 42.373557) rotate(-41.000000) translate(-41.369511, -42.373557) "></path>
    </g>
</svg>