<?xml version="1.0" encoding="UTF-8"?>
<svg width="48px" height="48px" viewBox="0 0 48 48" version="1.1" xmlns="http://www.w3.org/2000/svg" xmlns:xlink="http://www.w3.org/1999/xlink">
    <title>icone/48x48/infocircle_48_bicolore</title>
    <g id="icone/48x48/infocircle_48_bicolore" stroke="none" stroke-width="1" fill="none" fill-rule="evenodd">
        <g id="Group" transform="translate(7.000000, 7.000000)">
            <path d="M18.7,9.5033908 C18.7,10.4413218 17.9262069,11.1916667 16.9882759,11.1916667 C16.0503448,11.1916667 15.3,10.4413218 15.3,9.5033908 C15.3,8.56545977 16.0503448,7.79166667 16.9882759,7.79166667 C17.9262069,7.79166667 18.7,8.56545977 18.7,9.5033908 Z M19.8333333,24.7916667 L14.1666667,24.7916667 L14.1666667,22.7645664 L15.7514124,22.7645664 L15.7514124,15.4854336 L14.1666667,15.4854336 L14.1666667,13.4583333 L18.3686441,13.4583333 L18.3686441,22.7645664 L19.8333333,22.7645664 L19.8333333,24.7916667 Z" id="i" fill="#1E1169" fill-rule="nonzero"></path>
            <circle id="Oval" stroke="#1E1169" stroke-width="2" cx="17" cy="17" r="16"></circle>
        </g>
        <path d="M37,43.0001214 C37,41.895526 36.1045283,41 35,41 C33.8954717,41 33,41.895526 33,43.0001214 C33,44.1047168 33.8954717,45 35,45 C36.1045283,45 37,44.1047168 37,43.0001214 Z" id="Stroke-1-Copy" stroke="#28DCF0" stroke-width="2" stroke-linecap="round" stroke-linejoin="round"></path>
        <g id="Group-8-Copy" transform="translate(39.750000, 7.208333) rotate(-19.000000) translate(-39.750000, -7.208333) translate(37.833333, 5.291667)" stroke="#28DCF0" stroke-linecap="round" stroke-linejoin="round" stroke-width="2">
            <line x1="1.91666667" y1="4.54747766e-13" x2="1.91666667" y2="3.83333333" id="Stroke-1"></line>
            <line x1="3.83333333" y1="1.91666667" x2="0" y2="1.91666667" id="Stroke-3"></line>
        </g>
        <path d="M5.08253547,2.15877982 C5.2247716,2.00189057 5.52743477,1.95297907 5.75855259,2.04953294 C7.39011402,2.73114877 7.41103147,4.32907888 5.83575907,5.02770526 L5.75632001,5.06201014 C4.74545188,5.48427119 4.72771735,6.47178919 5.68520612,6.90689194 L5.73743299,6.92966619 L5.75855259,6.93801018 C7.39011402,7.61962602 7.41103147,9.21755612 5.83575907,9.9161825 L5.77136601,9.94394338 C5.54556503,10.0461301 5.24048527,10.0047107 5.08995128,9.85143069 C4.946944,9.70581466 4.99486053,9.51162909 5.19360582,9.40496226 L5.22623423,9.38886727 L5.24352564,9.38130829 C6.25459032,8.95904252 6.2723283,7.97156131 5.31461742,7.53644174 L5.26237844,7.51366654 L5.24122461,7.50530824 C3.60995077,6.82368767 3.58903701,5.22579473 5.16406212,4.52715093 L5.24352564,4.49283104 C6.27264505,4.06302482 6.27264505,3.04763665 5.24347002,2.61767919 C5.0123522,2.52112533 4.94029935,2.31566908 5.08253547,2.15877982 Z" id="Stroke-1-Copy-2" stroke="#28DCF0" fill="#28DCF0" fill-rule="nonzero" transform="translate(5.500000, 6.000000) rotate(-232.000000) translate(-5.500000, -6.000000) "></path>
    </g>
</svg>