<?xml version="1.0" encoding="UTF-8"?>
<svg width="48px" height="48px" viewBox="0 0 48 48" version="1.1" xmlns="http://www.w3.org/2000/svg" xmlns:xlink="http://www.w3.org/1999/xlink">
    <title>icone/48x48/coinmath_48_bicolore</title>
    <g id="icone/48x48/coinmath_48_bicolore" stroke="none" stroke-width="1" fill="none" fill-rule="evenodd">
        <g id="noun_Ruler_2376504" transform="translate(4.000000, 6.000000)" fill="#1E1169" fill-rule="nonzero" stroke="#1E1169" stroke-width="0.4">
            <g id="Group-2" transform="translate(0.559596, 0.559596)">
                <path d="M28.072321,11.0756655 C27.8663009,10.9726555 27.6087759,11.0241605 27.4542608,11.1786755 L11.2301805,27.4542608 C11.0756655,27.6087759 11.0241605,27.8663009 11.1271705,28.072321 C11.2301805,28.2783411 11.4362006,28.4328561 11.6422207,28.4328561 L27.8663009,28.4328561 C28.175331,28.4328561 28.4328561,28.175331 28.4328561,27.8663009 L28.4328561,11.5907157 C28.4328561,11.3846956 28.2783411,11.1786755 28.072321,11.0756655 Z M27.2997458,27.2997458 L12.9813511,27.2997458 L27.2997458,12.9813511 L27.2997458,27.2997458 Z" id="Shape"></path>
                <path d="M32.6047625,0.0535919153 C32.3987424,-0.0494181182 32.1412173,0.00208689855 31.9867023,0.156601949 L0.156601949,31.9867023 C0.00208689855,32.1412173 -0.0494181182,32.3987424 0.0535919153,32.6047625 C0.156601949,32.8107826 0.362622016,32.9652976 0.568642082,32.9652976 L32.3987424,32.9652976 C32.7077725,32.9652976 32.9652976,32.7077725 32.9652976,32.3987424 L32.9652976,0.568642082 C32.9652976,0.362622016 32.8107826,0.156601949 32.6047625,0.0535919153 Z M28.4328561,31.8321872 L28.4328561,30.1325217 C28.4328561,29.8234916 28.175331,29.5659665 27.8663009,29.5659665 C27.5572708,29.5659665 27.2997458,29.8234916 27.2997458,30.1325217 L27.2997458,31.8321872 L25.033525,31.8321872 L25.033525,30.1325217 C25.033525,29.8234916 24.7759999,29.5659665 24.4669698,29.5659665 C24.1579397,29.5659665 23.9004147,29.8234916 23.9004147,30.1325217 L23.9004147,31.8321872 L21.6341939,31.8321872 L21.6341939,30.1325217 C21.6341939,29.8234916 21.3766688,29.5659665 21.0676387,29.5659665 C20.7586086,29.5659665 20.5010836,29.8234916 20.5010836,30.1325217 L20.5010836,31.8321872 L18.2348628,31.8321872 L18.2348628,30.1325217 C18.2348628,29.8234916 17.9773377,29.5659665 17.6683076,29.5659665 C17.3592775,29.5659665 17.1017525,29.8234916 17.1017525,30.1325217 L17.1017525,31.8321872 L14.8355317,31.8321872 L14.8355317,30.1325217 C14.8355317,29.8234916 14.5780066,29.5659665 14.2689765,29.5659665 C13.9599464,29.5659665 13.7024213,29.8234916 13.7024213,30.1325217 L13.7024213,31.8321872 L11.4362006,31.8321872 L11.4362006,30.1325217 C11.4362006,29.8234916 11.1786755,29.5659665 10.8696454,29.5659665 C10.5606153,29.5659665 10.3030902,29.8234916 10.3030902,30.1325217 L10.3030902,31.8321872 L8.03686951,31.8321872 L8.03686951,30.1325217 C8.03686951,29.8234916 7.77934442,29.5659665 7.47031432,29.5659665 C7.16128422,29.5659665 6.90375914,29.8234916 6.90375914,30.1325217 L6.90375914,31.8321872 L1.95927753,31.8321872 L31.8321872,1.95927753 L31.8321872,6.85225412 L30.1325217,6.85225412 C29.8234916,6.85225412 29.5659665,7.10977921 29.5659665,7.41880931 C29.5659665,7.72783941 29.8234916,7.98536449 30.1325217,7.98536449 L31.8321872,7.98536449 L31.8321872,10.2515852 L30.1325217,10.2515852 C29.8234916,10.2515852 29.5659665,10.5091103 29.5659665,10.8181404 C29.5659665,11.1271705 29.8234916,11.3846956 30.1325217,11.3846956 L31.8321872,11.3846956 L31.8321872,13.6509163 L30.1325217,13.6509163 C29.8234916,13.6509163 29.5659665,13.9084414 29.5659665,14.2174715 C29.5659665,14.5265016 29.8234916,14.7840267 30.1325217,14.7840267 L31.8321872,14.7840267 L31.8321872,17.0502474 L30.1325217,17.0502474 C29.8234916,17.0502474 29.5659665,17.3077725 29.5659665,17.6168026 C29.5659665,17.9258327 29.8234916,18.1833578 30.1325217,18.1833578 L31.8321872,18.1833578 L31.8321872,20.4495785 L30.1325217,20.4495785 C29.8234916,20.4495785 29.5659665,20.7071036 29.5659665,21.0161337 C29.5659665,21.3251638 29.8234916,21.5826889 30.1325217,21.5826889 L31.8321872,21.5826889 L31.8321872,23.8489096 L30.1325217,23.8489096 C29.8234916,23.8489096 29.5659665,24.1064347 29.5659665,24.4154648 C29.5659665,24.7244949 29.8234916,24.98202 30.1325217,24.98202 L31.8321872,24.98202 L31.8321872,27.2997458 L30.1325217,27.2997458 C29.8234916,27.2997458 29.5659665,27.5572708 29.5659665,27.8663009 C29.5659665,28.175331 29.8234916,28.4328561 30.1325217,28.4328561 L31.8321872,28.4328561 L31.8321872,31.8321872 L28.4328561,31.8321872 Z" id="Shape"></path>
            </g>
        </g>
        <path d="M45,23.0001214 C45,21.895526 44.1045283,21 43,21 C41.8954717,21 41,21.895526 41,23.0001214 C41,24.1047168 41.8954717,25 43,25 C44.1045283,25 45,24.1047168 45,23.0001214 Z" id="Stroke-1" stroke="#28DCF0" stroke-width="2" stroke-linecap="round" stroke-linejoin="round"></path>
        <g id="Group-8" transform="translate(21.750000, 44.208333) rotate(-19.000000) translate(-21.750000, -44.208333) translate(19.833333, 42.291667)" stroke="#28DCF0" stroke-linecap="round" stroke-linejoin="round" stroke-width="2">
            <line x1="1.91666667" y1="4.54747766e-13" x2="1.91666667" y2="3.83333333" id="Stroke-1"></line>
            <line x1="3.83333333" y1="1.91666667" x2="0" y2="1.91666667" id="Stroke-3"></line>
        </g>
        <path d="M7.08253547,10.1587798 C7.2247716,10.0018906 7.52743477,9.95297907 7.75855259,10.0495329 C9.39011402,10.7311488 9.41103147,12.3290789 7.83575907,13.0277053 L7.75632001,13.0620101 C6.74545188,13.4842712 6.72771735,14.4717892 7.68520612,14.9068919 L7.73743299,14.9296662 L7.75855259,14.9380102 C9.39011402,15.619626 9.41103147,17.2175561 7.83575907,17.9161825 L7.77136601,17.9439434 C7.54556503,18.0461301 7.24048527,18.0047107 7.08995128,17.8514307 C6.946944,17.7058147 6.99486053,17.5116291 7.19360582,17.4049623 L7.22623423,17.3888673 L7.24352564,17.3813083 C8.25459032,16.9590425 8.2723283,15.9715613 7.31461742,15.5364417 L7.26237844,15.5136665 L7.24122461,15.5053082 C5.60995077,14.8236877 5.58903701,13.2257947 7.16406212,12.5271509 L7.24352564,12.492831 C8.27264505,12.0630248 8.27264505,11.0476366 7.24347002,10.6176792 C7.0123522,10.5211253 6.94029935,10.3156691 7.08253547,10.1587798 Z" id="Stroke-1" stroke="#28DCF0" fill="#28DCF0" fill-rule="nonzero" transform="translate(7.500000, 14.000000) rotate(-241.000000) translate(-7.500000, -14.000000) "></path>
    </g>
</svg>