<?xml version="1.0" encoding="UTF-8"?>
<svg width="48px" height="48px" viewBox="0 0 48 48" version="1.1" xmlns="http://www.w3.org/2000/svg" xmlns:xlink="http://www.w3.org/1999/xlink">
    <title>icone/48x48/new_48_bicolore</title>
    <g id="icone/48x48/new_48_bicolore" stroke="none" stroke-width="1" fill="none" fill-rule="evenodd">
        <g id="004-sticker" transform="translate(7.500000, 6.000000)" fill="#0B554B">
            <g id="Group-4">
                <path d="M17.2330851,7.2 C11.5015011,7.2 6.84329309,11.858208 6.84329309,17.589792 C6.84329309,23.313792 11.5015011,27.979104 17.2330851,27.979104 C22.9641891,27.979104 27.6223971,23.313792 27.6223971,17.589792 C27.6223971,11.858208 22.9641891,7.2 17.2330851,7.2 Z M17.2330851,26.215104 C12.4810851,26.215104 8.60729309,22.348896 8.60729309,17.589792 C8.60729309,12.837792 12.4735011,8.964 17.2330851,8.964 C21.9921891,8.964 25.8583971,12.837792 25.8583971,17.589792 C25.8583971,22.341792 21.9850851,26.215104 17.2330851,26.215104 Z" id="Fill-1"></path>
                <path d="M33.2815011,18.151104 C32.9863971,17.748 32.9792931,17.193792 33.2743971,16.783104 L33.8863971,15.912 C34.3690851,15.228 34.5415011,14.364 34.3472931,13.543104 C34.1530851,12.722208 33.6201891,12.024 32.8783971,11.628 L31.9423971,11.124 C31.4961891,10.886208 31.2583971,10.396896 31.3375011,9.9 L31.5175011,8.848896 C31.6543971,8.020896 31.4312931,7.171104 30.9055011,6.516 C30.3730851,5.860896 29.5881891,5.464896 28.7530851,5.428896 L27.6872931,5.385792 C27.1832931,5.364 26.7512931,5.025792 26.6143971,4.543104 L26.3050851,3.528 C25.9450851,2.282208 24.7855011,1.411104 23.4823971,1.411104 C23.0863971,1.411104 22.6903971,1.490208 22.3232931,1.648896 L21.3441891,2.066208 C20.8903971,2.260896 20.3361891,2.138208 20.0121891,1.771104 L19.2992931,0.979104 C18.7450851,0.36 17.9455011,0 17.1175011,0 C16.2681891,0 15.4615011,0.367104 14.9001891,1.008 L14.2090851,1.814208 C13.8850851,2.188896 13.3375011,2.318208 12.8770851,2.131104 L11.8903971,1.728 C11.5303971,1.584 11.1561891,1.504896 10.7743971,1.504896 C9.45708509,1.504896 8.29039709,2.390208 7.94508509,3.664896 L7.66418909,4.694208 C7.53439709,5.176896 7.10239709,5.522208 6.59839709,5.551104 L5.54018909,5.616 C4.70508509,5.659104 3.92018909,6.069792 3.40150109,6.732 C2.88329309,7.394208 2.67439709,8.251104 2.82550109,9.072 L3.02018909,10.116 C3.11350109,10.612896 2.87618909,11.109792 2.43708509,11.354208 L1.50818909,11.872896 C0.773501089,12.283104 0.248189089,12.988896 0.0681890891,13.809792 C-0.111810911,14.630208 0.0681890891,15.494208 0.565085089,16.171104 L1.19129309,17.028 C1.48639709,17.431104 1.49350109,17.985792 1.19839709,18.396 L0.586397089,19.267104 C0.104189089,19.951104 -0.0687069109,20.815104 0.125501089,21.636 C0.320189089,22.456896 0.853085089,23.155104 1.59439709,23.551104 L2.53039709,24.055104 C2.97708509,24.292896 3.21439709,24.782208 3.13529309,25.279104 L2.95529309,26.330208 C2.81839709,27.158208 3.04150109,28.008 3.56729309,28.663104 C4.10018909,29.318208 4.88508509,29.714208 5.72018909,29.750208 L6.78550109,29.793792 C7.28950109,29.815104 7.72150109,30.153792 7.85839709,30.636 L8.15350109,31.658208 C8.51350109,32.904 9.67308509,33.775104 10.9761891,33.775104 C11.3721891,33.775104 11.7681891,33.696 12.1352931,33.537792 L13.1143971,33.12 C13.5681891,32.925792 14.1223971,33.048 14.4463971,33.415104 L15.1592931,34.207104 C15.7135011,34.826208 16.5130851,35.186208 17.3410851,35.186208 C18.1903971,35.186208 18.9970851,34.819104 19.5583971,34.178208 L20.2570851,33.372 C20.5810851,32.997792 21.1281891,32.868 21.5890851,33.055104 L22.5752931,33.458208 C22.9352931,33.602208 23.3095011,33.681792 23.6912931,33.681792 C25.0090851,33.681792 26.1752931,32.796 26.5210851,31.521792 L26.8015011,30.492 C26.9312931,30.009792 27.3632931,29.664 27.8672931,29.635104 L28.9330851,29.570208 C29.7752931,29.52 30.5530851,29.116896 31.0712931,28.454208 C31.5895011,27.792 31.7983971,26.942208 31.6472931,26.114208 L31.4530851,25.070208 C31.3592931,24.573792 31.5970851,24.076896 32.0361891,23.832 L32.9650851,23.313792 C33.6992931,22.903104 34.2250851,22.197792 34.4050851,21.376896 C34.5850851,20.556 34.4050851,19.692 33.9081891,19.015104 L33.2815011,18.151104 Z M32.6841891,20.995104 C32.6121891,21.326208 32.4032931,21.6 32.1081891,21.765792 L31.1792931,22.284 C30.0775011,22.896 29.4872931,24.141792 29.7175011,25.38 L29.9121891,26.424 C29.9770851,26.762208 29.8903971,27.093792 29.6815011,27.36 C29.4730851,27.626208 29.1703971,27.784896 28.8250851,27.806208 L27.7663971,27.871104 C26.5063971,27.943104 25.4335011,28.807104 25.1023971,30.024 L24.8215011,31.046208 C24.6850851,31.557792 24.2170851,31.910208 23.6912931,31.910208 C23.5401891,31.910208 23.3890851,31.881792 23.2450851,31.824 L22.2583971,31.420896 C21.8983971,31.276896 21.5241891,31.197792 21.1423971,31.197792 C20.2930851,31.197792 19.4863971,31.564896 18.9250851,32.205792 L18.2263971,33.004896 C18.0032931,33.264 17.6863971,33.408 17.3410851,33.408 C17.0023971,33.408 16.6930851,33.271104 16.4695011,33.019104 L15.7570851,32.227104 C15.2023971,31.608 14.4032931,31.248 13.5681891,31.248 C13.1650851,31.248 12.7761891,31.327104 12.4090851,31.485792 L11.4295011,31.903104 C11.2783971,31.968 11.1272931,31.996896 10.9690851,31.996896 C10.4503971,31.996896 9.98950109,31.651104 9.84550109,31.154208 L9.55039709,30.132 C9.19750109,28.922208 8.11750109,28.072896 6.85750109,28.015104 L5.79218909,27.972 C5.45350109,27.957792 5.14418909,27.806208 4.93529309,27.54 C4.71929309,27.273792 4.63308509,26.942208 4.69039709,26.611104 L4.87039709,25.56 C5.07929309,24.314208 4.47439709,23.083104 3.35839709,22.485792 L2.42239709,21.981792 C2.12018909,21.823104 1.91129309,21.549792 1.83218909,21.218208 C1.75308509,20.887104 1.81750109,20.548896 2.01929309,20.275104 L2.63129309,19.404 C3.35839709,18.374208 3.35129309,16.999104 2.60239709,15.976896 L1.97618909,15.12 C1.77439709,14.846208 1.70239709,14.508 1.78150109,14.176896 C1.85350109,13.845792 2.06239709,13.572 2.35750109,13.406208 L3.28639709,12.888 C4.38818909,12.276 4.97839709,11.030208 4.74818909,9.792 L4.56108509,8.755104 C4.49618909,8.416896 4.58239709,8.085792 4.79129309,7.819104 C5.00018909,7.552896 5.30239709,7.394208 5.64818909,7.372896 L6.70639709,7.308 C7.96639709,7.236 9.03218909,6.372 9.37039709,5.155104 L9.65129309,4.125792 C9.78818909,3.614208 10.2561891,3.261792 10.7815011,3.261792 C10.9330851,3.261792 11.0841891,3.290208 11.2281891,3.348 L12.2143971,3.751104 C12.5743971,3.895104 12.9490851,3.974208 13.3303971,3.974208 C14.1801891,3.974208 14.9863971,3.607104 15.5481891,2.966208 L16.2463971,2.167104 C16.4695011,1.908 16.7863971,1.764 17.1321891,1.764 C17.4703971,1.764 17.7801891,1.900896 18.0032931,2.152896 L18.7161891,2.944896 C19.2703971,3.564 20.0695011,3.924 20.9050851,3.924 C21.3081891,3.924 21.6970851,3.844896 22.0641891,3.686208 L23.0432931,3.268896 C23.1943971,3.204 23.3455011,3.175104 23.5041891,3.175104 C24.0223971,3.175104 24.4832931,3.520896 24.6272931,4.017792 L24.9223971,5.04 C25.2752931,6.249792 26.3552931,7.099104 27.6152931,7.156896 L28.6810851,7.2 C29.0192931,7.214208 29.3290851,7.365792 29.5450851,7.632 C29.7610851,7.898208 29.8472931,8.229792 29.7895011,8.560896 L29.6095011,9.612 C29.4010851,10.857792 30.0055011,12.088896 31.1215011,12.686208 L32.0575011,13.190208 C32.3601891,13.348896 32.5690851,13.622208 32.6481891,13.953792 C32.7272931,14.284896 32.6623971,14.623104 32.4681891,14.896896 L31.8561891,15.768 C31.1290851,16.797792 31.1361891,18.172896 31.8850851,19.195104 L32.5112931,20.052 C32.6841891,20.325792 32.7561891,20.664 32.6841891,20.995104 Z" id="Fill-3"></path>
            </g>
            <path d="M19.7890851,14.731104 L15.9295011,18.568896 L14.6770851,17.308896 C14.3312931,16.963104 13.7770851,16.963104 13.4312931,17.308896 C13.0855011,17.654208 13.0855011,18.208896 13.4241891,18.554208 L15.3032931,20.440896 C15.4690851,20.606208 15.6921891,20.7 15.9295011,20.7 C16.1601891,20.7 16.3832931,20.606208 16.5490851,20.440896 L21.0343971,15.984 C21.3801891,15.638208 21.3801891,15.084 21.0415011,14.738208 C20.6961891,14.392896 20.1343971,14.392896 19.7890851,14.731104 Z" id="Fill-5"></path>
        </g>
        <circle id="Oval" stroke="#FFCE00" stroke-width="1.5" cx="4.5" cy="42.5" r="2.75"></circle>
        <rect id="Rectangle" stroke="#FFCE00" stroke-width="1.5" transform="translate(5.000000, 7.000000) rotate(29.000000) translate(-5.000000, -7.000000) " x="3.25" y="5.25" width="3.5" height="3.5" rx="0.5"></rect>
        <path d="M40.2140132,4.01804115 L42.7760929,7.55434079 L37.9668029,7.61645811 L40.2140132,4.01804115 Z" id="Triangle" stroke="#FFCE00" stroke-width="1.5" transform="translate(40.369511, 5.373557) rotate(-41.000000) translate(-40.369511, -5.373557) "></path>
    </g>
</svg>