<?xml version="1.0" encoding="UTF-8"?>
<svg width="48px" height="48px" viewBox="0 0 48 48" version="1.1" xmlns="http://www.w3.org/2000/svg" xmlns:xlink="http://www.w3.org/1999/xlink">
    <title>icone/48x48/newsletter_48_bicolore</title>
    <g id="icone/48x48/newsletter_48_bicolore" stroke="none" stroke-width="1" fill="none" fill-rule="evenodd">
        <g id="noun_article_891460" transform="translate(9.000000, 13.500000)" fill="#1E1169" fill-rule="nonzero">
            <g id="Group-2">
                <path d="M15,21 C15.41475,21 15.75,21.33525 15.75,21.75 L15.75,21.75 C15.75,22.16475 15.41475,22.5 15,22.5 L15,22.5 L0.7485,22.5 C0.33525,22.5 0,22.16475 0,21.75 L0,21.75 C0,21.33525 0.33525,21 0.7485,21 L0.7485,21 L15,21 L15,21 Z" id="Path"></path>
                <path d="M29.25,5.25075 C29.66475,5.25075 30,5.586 30,6.00075 L30,6.00075 C30,6.4155 29.66475,6.75075 29.25,6.75075 L29.25,6.75075 L11.25,6.75075 C10.83675,6.75075 10.5015,6.4155 10.5015,6.00075 L10.5015,6.00075 C10.5015,5.586 10.83675,5.25075 11.25,5.25075 L11.25,5.25075 L29.25,5.25075 L29.25,5.25075 Z" id="Path"></path>
                <path d="M29.25,10.5 C29.66475,10.5 30,10.836 30,11.25 L30,11.25 C30,11.664 29.66475,12 29.25,12 L29.25,12 L0.7485,12.00075 C0.33525,12.00075 0,11.66475 0,11.25 L0,11.25 C0,10.83525 0.33525,10.5 0.7485,10.5 L0.7485,10.5 L29.25,10.5 L29.25,10.5 Z" id="Path"></path>
                <path d="M29.25,0 C29.66475,0 30,0.336 30,0.75075 L30,0.75075 C30,1.16475 29.66475,1.50075 29.25,1.50075 L29.25,1.50075 L11.25,1.50075 C10.83675,1.50075 10.5015,1.16475 10.5015,0.75075 L10.5015,0.75075 C10.5015,0.336 10.83675,0 11.25,0 L11.25,0 L29.25,0 L29.25,0 Z" id="Path"></path>
                <path d="M29.25,15.75 C29.66475,15.75 30,16.08525 30,16.5 L30,16.5 C30,16.91475 29.66475,17.25 29.25,17.25 L29.25,17.25 L0.7485,17.25075 C0.33525,17.25075 0,16.91475 0,16.50075 L0,16.50075 C0,16.086 0.33525,15.75 0.7485,15.75 L0.7485,15.75 L29.25,15.75 L29.25,15.75 Z" id="Path"></path>
                <path d="M6.75,6.075 C6.75,6.44775 6.4485,6.75 6.075,6.75 L0.675,6.75 C0.3015,6.75 0,6.44775 0,6.075 L0,0.675 C0,0.30225 0.3015,0 0.675,0 L6.075,0 C6.4485,0 6.75,0.30225 6.75,0.675 L6.75,6.075 Z" id="Path"></path>
            </g>
        </g>
        <path d="M47,25.0001214 C47,23.895526 46.1045283,23 45,23 C43.8954717,23 43,23.895526 43,25.0001214 C43,26.1047168 43.8954717,27 45,27 C46.1045283,27 47,26.1047168 47,25.0001214 Z" id="Stroke-1" stroke="#28DCF0" stroke-width="2" stroke-linecap="round" stroke-linejoin="round"></path>
        <g id="Group-8" transform="translate(8.750000, 5.208333) rotate(-19.000000) translate(-8.750000, -5.208333) translate(6.833333, 3.291667)" stroke="#28DCF0" stroke-linecap="round" stroke-linejoin="round" stroke-width="2">
            <line x1="1.91666667" y1="4.54747766e-13" x2="1.91666667" y2="3.83333333" id="Stroke-1"></line>
            <line x1="3.83333333" y1="1.91666667" x2="0" y2="1.91666667" id="Stroke-3"></line>
        </g>
        <path d="M8.08253547,37.1587798 C8.2247716,37.0018906 8.52743477,36.9529791 8.75855259,37.0495329 C10.390114,37.7311488 10.4110315,39.3290789 8.83575907,40.0277053 L8.75632001,40.0620101 C7.74545188,40.4842712 7.72771735,41.4717892 8.68520612,41.9068919 L8.73743299,41.9296662 L8.75855259,41.9380102 C10.390114,42.619626 10.4110315,44.2175561 8.83575907,44.9161825 L8.77136601,44.9439434 C8.54556503,45.0461301 8.24048527,45.0047107 8.08995128,44.8514307 C7.946944,44.7058147 7.99486053,44.5116291 8.19360582,44.4049623 L8.22623423,44.3888673 L8.24352564,44.3813083 C9.25459032,43.9590425 9.2723283,42.9715613 8.31461742,42.5364417 L8.26237844,42.5136665 L8.24122461,42.5053082 C6.60995077,41.8236877 6.58903701,40.2257947 8.16406212,39.5271509 L8.24352564,39.492831 C9.27264505,39.0630248 9.27264505,38.0476366 8.24347002,37.6176792 C8.0123522,37.5211253 7.94029935,37.3156691 8.08253547,37.1587798 Z" id="Stroke-1" stroke="#28DCF0" fill="#28DCF0" fill-rule="nonzero" transform="translate(8.500000, 41.000000) rotate(-232.000000) translate(-8.500000, -41.000000) "></path>
    </g>
</svg>