<?xml version="1.0" encoding="UTF-8"?>
<svg width="48px" height="48px" viewBox="0 0 48 48" version="1.1" xmlns="http://www.w3.org/2000/svg" xmlns:xlink="http://www.w3.org/1999/xlink">
    <title>icone/48x48/news_48_bicolore</title>
    <g id="icone/48x48/news_48_bicolore" stroke="none" stroke-width="1" fill="none" fill-rule="evenodd">
        <g id="noun_news_1153028" transform="translate(9.000000, 10.000000)" fill="#1E1169" fill-rule="nonzero">
            <g id="Group">
                <path d="M6,0 C5.604825,0.0128648614 5.259225,0.415867996 5.25,0.756756552 L5.25,9.08107863 L0.75,9.08107863 C0.3442875,9.09091646 0.009225,9.49695419 0,9.83783518 L0,24.5945955 C0,26.4680977 1.518225,28 3.375,28 L26.625,28 C28.481775,28 30,26.4680977 30,24.5945955 L30,0.756756552 C30,0.360530173 29.6427,0 29.25,0 L6,0 Z M6.75,1.5135131 L28.5,1.5135131 L28.5,24.5945955 C28.5,25.6557952 27.676725,26.4864869 26.625,26.4864869 L6.09375,26.4864869 C6.4731,25.9359087 6.75,25.3123791 6.75,24.5945955 L6.75,1.5135131 Z M9.75,3.78378276 C9.35295,3.7849179 9.009225,4.19965076 9,4.54053931 L9,9.83783518 C9,10.2340729 9.3573,10.5945917 9.75,10.5945917 L17.25,10.5945917 C17.6427,10.5945917 18,10.2340729 18,9.83783518 L18,4.54053931 C18,4.14431293 17.6427,3.78378276 17.25,3.78378276 L9.75,3.78378276 Z M20.25,4.54053931 C19.835775,4.54053931 19.5,4.87933922 19.5,5.29729587 C19.5,5.71525251 19.835775,6.05405242 20.25,6.05405242 L25.5,6.05405242 C25.914225,6.05405242 26.25,5.71525251 26.25,5.29729587 C26.25,4.87933922 25.914225,4.54053931 25.5,4.54053931 L20.25,4.54053931 Z M10.5,5.29729587 L16.5,5.29729587 L16.5,9.08107863 L10.5,9.08107863 L10.5,5.29729587 Z M20.25,8.32432207 C19.835775,8.32432207 19.5,8.66312198 19.5,9.08107863 C19.5,9.49903527 19.835775,9.83783518 20.25,9.83783518 L25.5,9.83783518 C25.914225,9.83783518 26.25,9.49903527 26.25,9.08107863 C26.25,8.66312198 25.914225,8.32432207 25.5,8.32432207 L20.25,8.32432207 Z M1.5,10.5945917 L5.25,10.5945917 L5.25,24.5945917 C5.25,25.6557952 4.426725,26.4864869 3.375,26.4864869 C2.323275,26.4864869 1.5,25.6557952 1.5,24.5945917 L1.5,10.5945917 Z M9.75,12.8648614 C9.335775,12.8648614 9,13.2036689 9,13.6216255 C9,14.0395822 9.335775,14.3783821 9.75,14.3783821 L25.5,14.3783821 C25.914225,14.3783821 26.25,14.0395822 26.25,13.6216255 C26.25,13.2036689 25.914225,12.8648614 25.5,12.8648614 L9.75,12.8648614 Z M9.75,17.02703 C9.335775,17.02703 9,17.3658299 9,17.7837865 C9,18.2017432 9.335775,18.5405431 9.75,18.5405431 L25.5,18.5405431 C25.914225,18.5405431 26.25,18.2017432 26.25,17.7837865 C26.25,17.3658299 25.914225,17.02703 25.5,17.02703 L9.75,17.02703 Z M9.75,21.189191 C9.335775,21.189191 9,21.5279909 9,21.9459476 C9,22.3639042 9.335775,22.7027041 9.75,22.7027041 L25.5,22.7027041 C25.914225,22.7027041 26.25,22.3639042 26.25,21.9459476 C26.25,21.5279909 25.914225,21.189191 25.5,21.189191 L9.75,21.189191 Z" id="Shape"></path>
            </g>
        </g>
        <path d="M9,43.0001214 C9,41.895526 8.10452835,41 7,41 C5.89547165,41 5,41.895526 5,43.0001214 C5,44.1047168 5.89547165,45 7,45 C8.10452835,45 9,44.1047168 9,43.0001214 Z" id="Stroke-1" stroke="#28DCF0" stroke-width="2" stroke-linecap="round" stroke-linejoin="round"></path>
        <g id="Group-8" transform="translate(43.750000, 23.208333) rotate(-19.000000) translate(-43.750000, -23.208333) translate(41.833333, 21.291667)" stroke="#28DCF0" stroke-linecap="round" stroke-linejoin="round" stroke-width="2">
            <line x1="1.91666667" y1="4.54747766e-13" x2="1.91666667" y2="3.83333333" id="Stroke-1"></line>
            <line x1="3.83333333" y1="1.91666667" x2="0" y2="1.91666667" id="Stroke-3"></line>
        </g>
        <path d="M8.08253547,2.15877982 C8.2247716,2.00189057 8.52743477,1.95297907 8.75855259,2.04953294 C10.390114,2.73114877 10.4110315,4.32907888 8.83575907,5.02770526 L8.75632001,5.06201014 C7.74545188,5.48427119 7.72771735,6.47178919 8.68520612,6.90689194 L8.73743299,6.92966619 L8.75855259,6.93801018 C10.390114,7.61962602 10.4110315,9.21755612 8.83575907,9.9161825 L8.77136601,9.94394338 C8.54556503,10.0461301 8.24048527,10.0047107 8.08995128,9.85143069 C7.946944,9.70581466 7.99486053,9.51162909 8.19360582,9.40496226 L8.22623423,9.38886727 L8.24352564,9.38130829 C9.25459032,8.95904252 9.2723283,7.97156131 8.31461742,7.53644174 L8.26237844,7.51366654 L8.24122461,7.50530824 C6.60995077,6.82368767 6.58903701,5.22579473 8.16406212,4.52715093 L8.24352564,4.49283104 C9.27264505,4.06302482 9.27264505,3.04763665 8.24347002,2.61767919 C8.0123522,2.52112533 7.94029935,2.31566908 8.08253547,2.15877982 Z" id="Stroke-1" stroke="#28DCF0" fill="#28DCF0" fill-rule="nonzero" transform="translate(8.500000, 6.000000) rotate(-232.000000) translate(-8.500000, -6.000000) "></path>
    </g>
</svg>