<?xml version="1.0" encoding="UTF-8"?>
<svg width="48px" height="48px" viewBox="0 0 48 48" version="1.1" xmlns="http://www.w3.org/2000/svg" xmlns:xlink="http://www.w3.org/1999/xlink">
    <title>icone/48x48/numerique_48_bicolore</title>
    <g id="icone/48x48/numerique_48_bicolore" stroke="none" stroke-width="1" fill="none" fill-rule="evenodd">
        <g id="noun_Classic-Mac_475647" transform="translate(10.500000, 7.500000)" fill="#1E1169" fill-rule="nonzero" stroke="#1E1169">
            <path d="M22.6875,27.5 L3.4375,27.5 C1.5125,27.5 0,25.9875 0,24.0625 L0,3.4375 C0,1.5125 1.5125,0 3.4375,0 L22.6875,0 C24.6125,0 26.125,1.5125 26.125,3.4375 L26.125,24.0625 C26.125,25.9875 24.6125,27.5 22.6875,27.5 Z M3.4375,1.375 C2.26875,1.375 1.375,2.26875 1.375,3.4375 L1.375,24.0625 C1.375,25.23125 2.26875,26.125 3.4375,26.125 L22.6875,26.125 C23.85625,26.125 24.75,25.23125 24.75,24.0625 L24.75,3.4375 C24.75,2.26875 23.85625,1.375 22.6875,1.375 L3.4375,1.375 Z" id="Shape" stroke-width="0.3"></path>
            <path d="M22.15,18 L3.95,18 C3.11,18 2.55,17.3333333 2.55,16.3333333 L2.55,4.66666667 C2.55,3.66666667 3.11,3 3.95,3 L22.15,3 C22.99,3 23.55,3.66666667 23.55,4.66666667 L23.55,16.3333333 C23.55,17.3333333 22.99,18 22.15,18 Z M4.05,4.5 L4.05,16.5 L21.9810345,16.5 C21.9810345,16.5 22.05,16.5 22.05,16.5 L21.9810345,4.5 L4.05,4.5 Z" id="Shape" stroke-width="0.2"></path>
            <circle id="Oval" stroke-width="0.3" cx="4.8125" cy="22.125" r="1"></circle>
            <path d="M21.3125,22.8125 L14.4375,22.8125 C14.025,22.8125 13.75,22.5375 13.75,22.125 C13.75,21.7125 14.025,21.4375 14.4375,21.4375 L21.3125,21.4375 C21.725,21.4375 22,21.7125 22,22.125 C22,22.5375 21.725,22.8125 21.3125,22.8125 Z" id="Path" stroke-width="0.3"></path>
            <path d="M22.6875,33 L3.4375,33 C2.26875,33 1.375,32.10625 1.375,30.9375 L1.375,26.125 L24.75,26.125 L24.75,30.9375 C24.75,32.10625 23.85625,33 22.6875,33 Z M2.75,27.5 L2.75,30.9375 C2.75,31.35 3.025,31.625 3.4375,31.625 L22.6875,31.625 C23.1,31.625 23.375,31.35 23.375,30.9375 L23.375,27.5 L2.75,27.5 Z" id="Shape" stroke-width="0.3"></path>
            <circle id="Oval" stroke-width="0.3" cx="21.3125" cy="29.5625" r="1"></circle>
        </g>
        <path d="M44,42.0001214 C44,40.895526 43.1045283,40 42,40 C40.8954717,40 40,40.895526 40,42.0001214 C40,43.1047168 40.8954717,44 42,44 C43.1045283,44 44,43.1047168 44,42.0001214 Z" id="Stroke-1" stroke="#28DCF0" stroke-width="2" stroke-linecap="round" stroke-linejoin="round"></path>
        <g id="Group-8" transform="translate(5.750000, 42.208333) rotate(-19.000000) translate(-5.750000, -42.208333) translate(3.833333, 40.291667)" stroke="#28DCF0" stroke-linecap="round" stroke-linejoin="round" stroke-width="2">
            <line x1="1.91666667" y1="4.54747766e-13" x2="1.91666667" y2="3.83333333" id="Stroke-1"></line>
            <line x1="3.83333333" y1="1.91666667" x2="0" y2="1.91666667" id="Stroke-3"></line>
        </g>
        <path d="M41.0825355,2.15877982 C41.2247716,2.00189057 41.5274348,1.95297907 41.7585526,2.04953294 C43.390114,2.73114877 43.4110315,4.32907888 41.8357591,5.02770526 L41.75632,5.06201014 C40.7454519,5.48427119 40.7277173,6.47178919 41.6852061,6.90689194 L41.737433,6.92966619 L41.7585526,6.93801018 C43.390114,7.61962602 43.4110315,9.21755612 41.8357591,9.9161825 L41.771366,9.94394338 C41.545565,10.0461301 41.2404853,10.0047107 41.0899513,9.85143069 C40.946944,9.70581466 40.9948605,9.51162909 41.1936058,9.40496226 L41.2262342,9.38886727 L41.2435256,9.38130829 C42.2545903,8.95904252 42.2723283,7.97156131 41.3146174,7.53644174 L41.2623784,7.51366654 L41.2412246,7.50530824 C39.6099508,6.82368767 39.589037,5.22579473 41.1640621,4.52715093 L41.2435256,4.49283104 C42.272645,4.06302482 42.272645,3.04763665 41.24347,2.61767919 C41.0123522,2.52112533 40.9402994,2.31566908 41.0825355,2.15877982 Z" id="Stroke-1" stroke="#28DCF0" fill="#28DCF0" fill-rule="nonzero" transform="translate(41.500000, 6.000000) rotate(-313.000000) translate(-41.500000, -6.000000) "></path>
    </g>
</svg>