<?xml version="1.0" encoding="UTF-8"?>
<svg width="48px" height="48px" viewBox="0 0 48 48" version="1.1" xmlns="http://www.w3.org/2000/svg" xmlns:xlink="http://www.w3.org/1999/xlink">
    <title>icone/48x48/tool_48_bicolore</title>
    <g id="icone/48x48/tool_48_bicolore" stroke="none" stroke-width="1" fill="none" fill-rule="evenodd">
        <g id="toolbox" transform="translate(7.500000, 7.500000)" fill="#1E1169" fill-rule="nonzero">
            <path d="M33.1323486,12.2296875 L30.1495605,9.19888393 C29.7540527,8.79709821 29.2174805,8.57142857 28.6578369,8.57142857 L25.3125,8.57142857 L25.3125,3.21428571 C25.3125,1.44174107 23.8932861,0 22.1484375,0 L11.6015625,0 C9.85671387,0 8.4375,1.44174107 8.4375,3.21428571 L8.4375,8.57142857 L5.09216309,8.57142857 C4.53251953,8.57142857 3.99660645,8.79709821 3.60043945,9.19888393 L0.617651367,12.2296875 C0.222143555,12.6314732 0,13.1765625 0,13.7450893 L0,27.8571429 C0,29.0404018 0.944604492,30 2.109375,30 L31.640625,30 C32.8053955,30 33.75,29.0404018 33.75,27.8571429 L33.75,13.7444196 C33.75,13.1765625 33.5278564,12.6314732 33.1323486,12.2296875 Z M10.546875,3.21428571 C10.546875,2.62299107 11.0208252,2.14285714 11.6015625,2.14285714 L22.1484375,2.14285714 C22.7291748,2.14285714 23.203125,2.62299107 23.203125,3.21428571 L23.203125,8.57142857 L10.546875,8.57142857 L10.546875,3.21428571 Z M31.640625,27.8571429 L2.109375,27.8571429 L2.109375,21.4285714 L8.4375,21.4285714 L8.4375,23.0357143 C8.4375,23.3316964 8.67348633,23.5714286 8.96484375,23.5714286 L10.0195312,23.5714286 C10.3108887,23.5714286 10.546875,23.3316964 10.546875,23.0357143 L10.546875,21.4285714 L23.203125,21.4285714 L23.203125,23.0357143 C23.203125,23.3316964 23.4391113,23.5714286 23.7304688,23.5714286 L24.7851562,23.5714286 C25.0765137,23.5714286 25.3125,23.3316964 25.3125,23.0357143 L25.3125,21.4285714 L31.640625,21.4285714 L31.640625,27.8571429 Z M25.3125,19.2857143 L25.3125,17.6785714 C25.3125,17.3825893 25.0765137,17.1428571 24.7851562,17.1428571 L23.7304688,17.1428571 C23.4391113,17.1428571 23.203125,17.3825893 23.203125,17.6785714 L23.203125,19.2857143 L10.546875,19.2857143 L10.546875,17.6785714 C10.546875,17.3825893 10.3108887,17.1428571 10.0195312,17.1428571 L8.96484375,17.1428571 C8.67348633,17.1428571 8.4375,17.3825893 8.4375,17.6785714 L8.4375,19.2857143 L2.109375,19.2857143 L2.109375,13.7444196 L5.09216309,10.7142857 L28.6571777,10.7142857 L31.640625,13.7444196 L31.640625,19.2857143 L25.3125,19.2857143 Z" id="Shape"></path>
        </g>
        <path d="M8,43.0001214 C8,41.895526 7.10452835,41 6,41 C4.89547165,41 4,41.895526 4,43.0001214 C4,44.1047168 4.89547165,45 6,45 C7.10452835,45 8,44.1047168 8,43.0001214 Z" id="Stroke-1" stroke="#28DCF0" stroke-width="2" stroke-linecap="round" stroke-linejoin="round"></path>
        <g id="Group-8" transform="translate(43.750000, 15.208333) rotate(-19.000000) translate(-43.750000, -15.208333) translate(41.833333, 13.291667)" stroke="#28DCF0" stroke-linecap="round" stroke-linejoin="round" stroke-width="2">
            <line x1="1.91666667" y1="4.54747766e-13" x2="1.91666667" y2="3.83333333" id="Stroke-1"></line>
            <line x1="3.83333333" y1="1.91666667" x2="0" y2="1.91666667" id="Stroke-3"></line>
        </g>
        <path d="M8.08253547,2.15877982 C8.2247716,2.00189057 8.52743477,1.95297907 8.75855259,2.04953294 C10.390114,2.73114877 10.4110315,4.32907888 8.83575907,5.02770526 L8.75632001,5.06201014 C7.74545188,5.48427119 7.72771735,6.47178919 8.68520612,6.90689194 L8.73743299,6.92966619 L8.75855259,6.93801018 C10.390114,7.61962602 10.4110315,9.21755612 8.83575907,9.9161825 L8.77136601,9.94394338 C8.54556503,10.0461301 8.24048527,10.0047107 8.08995128,9.85143069 C7.946944,9.70581466 7.99486053,9.51162909 8.19360582,9.40496226 L8.22623423,9.38886727 L8.24352564,9.38130829 C9.25459032,8.95904252 9.2723283,7.97156131 8.31461742,7.53644174 L8.26237844,7.51366654 L8.24122461,7.50530824 C6.60995077,6.82368767 6.58903701,5.22579473 8.16406212,4.52715093 L8.24352564,4.49283104 C9.27264505,4.06302482 9.27264505,3.04763665 8.24347002,2.61767919 C8.0123522,2.52112533 7.94029935,2.31566908 8.08253547,2.15877982 Z" id="Stroke-1" stroke="#28DCF0" fill="#28DCF0" fill-rule="nonzero" transform="translate(8.500000, 6.000000) rotate(-232.000000) translate(-8.500000, -6.000000) "></path>
    </g>
</svg>