<?xml version="1.0" encoding="UTF-8"?>
<svg width="48px" height="48px" viewBox="0 0 48 48" version="1.1" xmlns="http://www.w3.org/2000/svg" xmlns:xlink="http://www.w3.org/1999/xlink">
    <title>icone/48x48/playlist_48_bicolore</title>
    <g id="icone/48x48/playlist_48_bicolore" stroke="none" stroke-width="1" fill="none" fill-rule="evenodd">
        <g id="Group" transform="translate(6.000000, 10.500000)">
            <rect id="Rectangle" stroke="#1E1169" stroke-width="1.5" x="0.75" y="0.75" width="34.5" height="21" rx="1"></rect>
            <line x1="7.84" y1="26.84" x2="28.16" y2="26.84" id="Line" stroke="#1E1169" stroke-width="1.5" stroke-linecap="round"></line>
            <path d="M15.56,6 C15.68,6.08 15.84,6.16 16,6.24 C18.4,7.64 20.84,9 23.24,10.4 C24,10.84 24,11.16 23.2,11.6 C20.8,13 18.44,14.36 16.04,15.72 C15.28,16.16 15,16 15,15.12 C15,12.32 15,9.56 15,6.76 C15,6.4 15,6.04 15.56,6 Z" id="Path" fill="#1E1169" fill-rule="nonzero"></path>
        </g>
        <path d="M8,43.0001214 C8,41.895526 7.10452835,41 6,41 C4.89547165,41 4,41.895526 4,43.0001214 C4,44.1047168 4.89547165,45 6,45 C7.10452835,45 8,44.1047168 8,43.0001214 Z" id="Stroke-1" stroke="#28DCF0" stroke-width="2" stroke-linecap="round" stroke-linejoin="round"></path>
        <g id="Group-8" transform="translate(42.750000, 40.208333) rotate(-19.000000) translate(-42.750000, -40.208333) translate(40.833333, 38.291667)" stroke="#28DCF0" stroke-linecap="round" stroke-linejoin="round" stroke-width="2">
            <line x1="1.91666667" y1="4.54747766e-13" x2="1.91666667" y2="3.83333333" id="Stroke-1"></line>
            <line x1="3.83333333" y1="1.91666667" x2="0" y2="1.91666667" id="Stroke-3"></line>
        </g>
        <path d="M30.0825355,1.15877982 C30.2247716,1.00189057 30.5274348,0.95297907 30.7585526,1.04953294 C32.390114,1.73114877 32.4110315,3.32907888 30.8357591,4.02770526 L30.75632,4.06201014 C29.7454519,4.48427119 29.7277173,5.47178919 30.6852061,5.90689194 L30.737433,5.92966619 L30.7585526,5.93801018 C32.390114,6.61962602 32.4110315,8.21755612 30.8357591,8.9161825 L30.771366,8.94394338 C30.545565,9.04613007 30.2404853,9.00471073 30.0899513,8.85143069 C29.946944,8.70581466 29.9948605,8.51162909 30.1936058,8.40496226 L30.2262342,8.38886727 L30.2435256,8.38130829 C31.2545903,7.95904252 31.2723283,6.97156131 30.3146174,6.53644174 L30.2623784,6.51366654 L30.2412246,6.50530824 C28.6099508,5.82368767 28.589037,4.22579473 30.1640621,3.52715093 L30.2435256,3.49283104 C31.272645,3.06302482 31.272645,2.04763665 30.24347,1.61767919 C30.0123522,1.52112533 29.9402994,1.31566908 30.0825355,1.15877982 Z" id="Stroke-1" stroke="#28DCF0" fill="#28DCF0" fill-rule="nonzero" transform="translate(30.500000, 5.000000) rotate(-132.000000) translate(-30.500000, -5.000000) "></path>
    </g>
</svg>