<?xml version="1.0" encoding="UTF-8"?>
<svg width="48px" height="48px" viewBox="0 0 48 48" version="1.1" xmlns="http://www.w3.org/2000/svg" xmlns:xlink="http://www.w3.org/1999/xlink">
    <title>icone/48x48/monde_48_bicolore copy</title>
    <g id="icone/48x48/monde_48_bicolore-copy" stroke="none" stroke-width="1" fill="none" fill-rule="evenodd">
        <g id="noun_Compass_1942991" transform="translate(9.000000, 7.500000)" fill="#1E1169" fill-rule="nonzero" stroke="#1E1169" stroke-width="0.3">
            <g id="Group">
                <path d="M0,18.9858115 C0.000577187267,26.7318619 6.35566352,33.1132809 14.4408299,33.4864778 C22.5259963,33.8596747 29.4934002,28.0931982 30.2730451,20.3831615 C31.05269,12.6731248 25.3699611,5.73523827 17.3600308,4.61801944 C17.8279432,4.11496894 18.0873843,3.46549263 18.0894439,2.7920311 C18.0894439,1.2500349 16.7831665,0 15.1717916,0 C13.5604168,0 12.2541394,1.2500349 12.2541394,2.7920311 C12.2561989,3.46549263 12.5156401,4.11496894 12.9835525,4.61801944 C5.53443345,5.66909569 0.0119535777,11.780354 0,18.9858115 L0,18.9858115 Z M13.4212003,2.7920311 C13.4212003,1.86683338 14.2049667,1.11681244 15.1717916,1.11681244 C16.1386165,1.11681244 16.922383,1.86683338 16.922383,2.7920311 C16.922383,3.71722882 16.1386165,4.46724976 15.1717916,4.46724976 C14.2049667,4.46724976 13.4212003,3.71722882 13.4212003,2.7920311 Z M15.1717916,5.5840622 C22.9063908,5.5840622 29.1765224,11.5842297 29.1765224,18.9858115 C29.1765224,26.3873932 22.9063908,32.3875607 15.1717916,32.3875607 C7.43719242,32.3875607 1.16706089,26.3873932 1.16706089,18.9858115 C1.16706089,11.5842297 7.43719242,5.5840622 15.1717916,5.5840622 Z" id="Shape"></path>
                <path d="M15.1717916,30.7123421 C21.9395659,30.7123421 27.425931,25.4621955 27.425931,18.9858115 C27.425931,12.5094274 21.9395659,7.25928086 15.1717916,7.25928086 C8.40401732,7.25928086 2.91765224,12.5094274 2.91765224,18.9858115 C2.91765224,25.4621955 8.40401732,30.7123421 15.1717916,30.7123421 L15.1717916,30.7123421 Z M6.94401232,11.8996365 L8.33865009,13.2398115 L9.16726333,12.4468746 L7.76679025,11.1122838 C9.6483143,9.48694455 12.0569746,8.53065477 14.5882612,8.40401361 L14.5882612,10.6097182 L15.7553221,10.6097182 L15.7553221,8.40401361 C18.2866086,8.53065477 20.695269,9.48694455 22.576793,11.1122838 L21.7598504,11.8884684 L22.5884636,12.6814052 L23.3995709,11.8996365 C25.1086482,13.6962302 26.1184488,16.0016011 26.2588701,18.4274052 L23.9247483,18.4274052 L23.9247483,19.5442177 L26.2588701,19.5442177 C26.1184488,21.9700219 25.1086482,24.2753928 23.3995709,26.0719864 L22.0049332,24.7318115 L21.1763199,25.5247483 L22.576793,26.8593392 C20.6993657,28.4948311 18.2902698,29.4611542 15.7553221,29.5955296 L15.7553221,27.3619048 L14.5882612,27.3619048 L14.5882612,29.5955296 C12.0533134,29.4611542 9.64421756,28.4948311 7.76679025,26.8593392 L8.58373288,26.0831545 L7.75511964,25.2902177 L6.94401232,26.0719864 C5.24554463,24.2714724 4.24622875,21.9665183 4.11388965,19.5442177 L6.41883492,19.5442177 L6.41883492,18.4274052 L4.11388965,18.4274052 C4.24622875,16.0051046 5.24554463,13.7001505 6.94401232,11.8996365 Z" id="Shape"></path>
                <path d="M9.33648716,25.1282892 C9.43226837,25.1278219 9.52645914,25.1048086 9.61074647,25.0612711 L17.1966423,21.1524276 C17.3006005,21.1034581 17.384717,21.0229633 17.4358898,20.923481 L21.5206029,13.6642002 C21.6391551,13.4478195 21.5969467,13.1828121 21.4164153,13.0100535 C21.2358839,12.837295 20.958953,12.7969039 20.7328368,12.9103518 L13.146941,16.8191953 C13.0429827,16.8681649 12.9588663,16.9486596 12.9076935,17.0481419 L8.82298036,24.3074227 C8.70066049,24.5239769 8.7409565,24.791636 8.92218054,24.9663421 C9.03230372,25.0708682 9.18138302,25.129138 9.33648716,25.1282892 Z M16.7823357,19.7340758 L14.3898608,17.4446103 L19.5716112,14.7754286 L16.7823357,19.7340758 Z M13.5612476,18.2375471 L15.9537224,20.5270126 L10.7719721,23.1961944 L13.5612476,18.2375471 Z" id="Shape"></path>
            </g>
        </g>
        <path d="M9,43.0001214 C9,41.895526 8.10452835,41 7,41 C5.89547165,41 5,41.895526 5,43.0001214 C5,44.1047168 5.89547165,45 7,45 C8.10452835,45 9,44.1047168 9,43.0001214 Z" id="Stroke-1-Copy" stroke="#28DCF0" stroke-width="2" stroke-linecap="round" stroke-linejoin="round"></path>
        <g id="Group-8-Copy" transform="translate(45.750000, 26.208333) rotate(-19.000000) translate(-45.750000, -26.208333) translate(43.833333, 24.291667)" stroke="#28DCF0" stroke-linecap="round" stroke-linejoin="round" stroke-width="2">
            <line x1="1.91666667" y1="4.54747766e-13" x2="1.91666667" y2="3.83333333" id="Stroke-1"></line>
            <line x1="3.83333333" y1="1.91666667" x2="0" y2="1.91666667" id="Stroke-3"></line>
        </g>
        <path d="M7.08253547,1.15877982 C7.2247716,1.00189057 7.52743477,0.95297907 7.75855259,1.04953294 C9.39011402,1.73114877 9.41103147,3.32907888 7.83575907,4.02770526 L7.75632001,4.06201014 C6.74545188,4.48427119 6.72771735,5.47178919 7.68520612,5.90689194 L7.73743299,5.92966619 L7.75855259,5.93801018 C9.39011402,6.61962602 9.41103147,8.21755612 7.83575907,8.9161825 L7.77136601,8.94394338 C7.54556503,9.04613007 7.24048527,9.00471073 7.08995128,8.85143069 C6.946944,8.70581466 6.99486053,8.51162909 7.19360582,8.40496226 L7.22623423,8.38886727 L7.24352564,8.38130829 C8.25459032,7.95904252 8.2723283,6.97156131 7.31461742,6.53644174 L7.26237844,6.51366654 L7.24122461,6.50530824 C5.60995077,5.82368767 5.58903701,4.22579473 7.16406212,3.52715093 L7.24352564,3.49283104 C8.27264505,3.06302482 8.27264505,2.04763665 7.24347002,1.61767919 C7.0123522,1.52112533 6.94029935,1.31566908 7.08253547,1.15877982 Z" id="Stroke-1-Copy-2" stroke="#28DCF0" fill="#28DCF0" fill-rule="nonzero" transform="translate(7.500000, 5.000000) rotate(-132.000000) translate(-7.500000, -5.000000) "></path>
    </g>
</svg>