<?xml version="1.0" encoding="UTF-8"?>
<svg width="48px" height="48px" viewBox="0 0 48 48" version="1.1" xmlns="http://www.w3.org/2000/svg" xmlns:xlink="http://www.w3.org/1999/xlink">
    <title>icone/48x48/tool_48_bicolore</title>
    <g id="icone/48x48/tool_48_bicolore" stroke="none" stroke-width="1" fill="none" fill-rule="evenodd">
        <circle id="Oval" stroke="#FFCE00" stroke-width="1.5" cx="4.5" cy="42.5" r="2.75"></circle>
        <g id="toolbox" transform="translate(7.500000, 7.500000)" fill="#0B554B" fill-rule="nonzero">
            <path d="M33.1323486,12.2296875 L30.1495605,9.19888393 C29.7540527,8.79709821 29.2174805,8.57142857 28.6578369,8.57142857 L25.3125,8.57142857 L25.3125,3.21428571 C25.3125,1.44174107 23.8932861,0 22.1484375,0 L11.6015625,0 C9.85671387,0 8.4375,1.44174107 8.4375,3.21428571 L8.4375,8.57142857 L5.09216309,8.57142857 C4.53251953,8.57142857 3.99660645,8.79709821 3.60043945,9.19888393 L0.617651367,12.2296875 C0.222143555,12.6314732 0,13.1765625 0,13.7450893 L0,27.8571429 C0,29.0404018 0.944604492,30 2.109375,30 L31.640625,30 C32.8053955,30 33.75,29.0404018 33.75,27.8571429 L33.75,13.7444196 C33.75,13.1765625 33.5278564,12.6314732 33.1323486,12.2296875 Z M10.546875,3.21428571 C10.546875,2.62299107 11.0208252,2.14285714 11.6015625,2.14285714 L22.1484375,2.14285714 C22.7291748,2.14285714 23.203125,2.62299107 23.203125,3.21428571 L23.203125,8.57142857 L10.546875,8.57142857 L10.546875,3.21428571 Z M31.640625,27.8571429 L2.109375,27.8571429 L2.109375,21.4285714 L8.4375,21.4285714 L8.4375,23.0357143 C8.4375,23.3316964 8.67348633,23.5714286 8.96484375,23.5714286 L10.0195312,23.5714286 C10.3108887,23.5714286 10.546875,23.3316964 10.546875,23.0357143 L10.546875,21.4285714 L23.203125,21.4285714 L23.203125,23.0357143 C23.203125,23.3316964 23.4391113,23.5714286 23.7304688,23.5714286 L24.7851562,23.5714286 C25.0765137,23.5714286 25.3125,23.3316964 25.3125,23.0357143 L25.3125,21.4285714 L31.640625,21.4285714 L31.640625,27.8571429 Z M25.3125,19.2857143 L25.3125,17.6785714 C25.3125,17.3825893 25.0765137,17.1428571 24.7851562,17.1428571 L23.7304688,17.1428571 C23.4391113,17.1428571 23.203125,17.3825893 23.203125,17.6785714 L23.203125,19.2857143 L10.546875,19.2857143 L10.546875,17.6785714 C10.546875,17.3825893 10.3108887,17.1428571 10.0195312,17.1428571 L8.96484375,17.1428571 C8.67348633,17.1428571 8.4375,17.3825893 8.4375,17.6785714 L8.4375,19.2857143 L2.109375,19.2857143 L2.109375,13.7444196 L5.09216309,10.7142857 L28.6571777,10.7142857 L31.640625,13.7444196 L31.640625,19.2857143 L25.3125,19.2857143 Z" id="Shape"></path>
        </g>
        <rect id="Rectangle" stroke="#FFCE00" stroke-width="1.5" transform="translate(5.000000, 7.000000) rotate(29.000000) translate(-5.000000, -7.000000) " x="3.25" y="5.25" width="3.5" height="3.5" rx="0.5"></rect>
        <path d="M40.2140132,4.01804115 L42.7760929,7.55434079 L37.9668029,7.61645811 L40.2140132,4.01804115 Z" id="Triangle" stroke="#FFCE00" stroke-width="1.5" transform="translate(40.369511, 5.373557) rotate(-41.000000) translate(-40.369511, -5.373557) "></path>
    </g>
</svg>