<?xml version="1.0" encoding="UTF-8"?>
<svg width="48px" height="48px" viewBox="0 0 48 48" version="1.1" xmlns="http://www.w3.org/2000/svg" xmlns:xlink="http://www.w3.org/1999/xlink">
    <title>icone/48x48/rocket_48_bicolore</title>
    <g id="icone/48x48/rocket_48_bicolore" stroke="none" stroke-width="1" fill="none" fill-rule="evenodd">
        <g id="noun_Rocket_881941" transform="translate(24.000000, 24.000000) scale(-1, 1) translate(-24.000000, -24.000000) translate(9.000000, 9.000000)" fill="#1E1169" fill-rule="nonzero" stroke="#1E1169" stroke-width="0.3">
            <path d="M8.67130435,4.97673913 C7.77163043,4.97673913 6.92543478,5.32695652 6.28891304,5.96347826 C4.97576087,7.27695652 4.97576087,9.41445652 6.28891304,10.7279348 C6.92543478,11.3641304 7.77130435,11.7143478 8.67097826,11.7143478 C9.57097826,11.7143478 10.4168478,11.3638043 11.0530435,10.7276087 C12.3665217,9.41413043 12.3665217,7.27695652 11.0530435,5.96347826 C10.4171739,5.32728261 9.57097826,4.97673913 8.67130435,4.97673913 Z M10.1311957,9.80543478 C9.74119565,10.1954348 9.22271739,10.41 8.67130435,10.41 C8.1198913,10.41 7.60141304,10.1954348 7.21141304,9.80543478 C6.40663043,9.00032609 6.40663043,7.69076087 7.21141304,6.88565217 C7.60141304,6.49565217 8.1198913,6.28108696 8.67130435,6.28108696 C9.22271739,6.28108696 9.74119565,6.49565217 10.1311957,6.88565217 C10.9359783,7.69076087 10.9359783,9.00032609 10.1311957,9.80543478 Z" id="Shape"></path>
            <path d="M23.4645652,19.0353261 L22.773587,18.3443478 L22.9363043,18.1816304 C23.4952174,17.6227174 23.613587,16.7536957 23.2242391,16.0676087 C23.0788043,15.8113043 22.8942391,15.4917391 22.6773913,15.1252174 L25.5926087,14.61 C25.7892391,14.5754348 25.9591304,14.4525 26.0533696,14.2767391 C26.1479348,14.1009783 26.1567391,13.8916304 26.0775,13.7086957 L25.0747826,11.3938043 C24.7438043,10.6301087 24.0254348,10.0884783 23.2001087,9.98054348 L18.9228261,9.42130435 C16.7781522,6.50478261 14.1205435,3.46695652 11.4270652,1.84826087 C9.33097826,0.588913043 4.74163043,0.151630435 2.19228261,0.00326086957 C1.6676087,-0.0277173913 1.16152174,0.17673913 0.806413043,0.553369565 C0.469891304,0.909782609 0.300326087,1.37608696 0.328695652,1.86652174 C0.477391304,4.41586957 0.914347826,9.00521739 2.17369565,11.1013043 C3.79206522,13.7947826 6.83021739,16.4527174 9.74673913,18.5970652 L10.3059783,22.8743478 C10.413913,23.6996739 10.9555435,24.4180435 11.7192391,24.7490217 L14.0341304,25.7520652 C14.1169565,25.7879348 14.2053261,25.8058696 14.2933696,25.8058696 C14.4,25.8058696 14.5059783,25.7797826 14.6021739,25.7279348 C14.7779348,25.6333696 14.9008696,25.4634783 14.9354348,25.2671739 L15.4506522,22.3519565 C15.8171739,22.5684783 16.1370652,22.7533696 16.3933696,22.8988043 C16.6578261,23.0488043 16.9575,23.1280435 17.2607609,23.1280435 C17.7309783,23.1280435 18.1738043,22.9444565 18.5073913,22.6108696 L18.6701087,22.4481522 L19.361413,23.1394565 C19.698913,23.4769565 20.1476087,23.6625 20.625,23.6625 C21.1020652,23.6625 21.5507609,23.4766304 21.8882609,23.1391304 L23.4652174,21.5625 C24.161087,20.8653261 24.161087,19.7318478 23.4645652,19.0353261 L23.4645652,19.0353261 Z M23.0311957,11.2734783 C23.4042391,11.3223913 23.7286957,11.5669565 23.8780435,11.9119565 L24.5527174,13.4690217 L21.9541304,13.9284783 C21.3988043,13.0291304 20.7241304,11.9804348 19.9575,10.8717391 L23.0311957,11.2734783 Z M13.7947826,24.2269565 L12.2377174,23.5522826 C11.8927174,23.4029348 11.6481522,23.0784783 11.5992391,22.7054348 L11.1975,19.6317391 C12.3061957,20.3983696 13.3545652,21.0727174 14.2542391,21.6283696 L13.7947826,24.2269565 Z M17.2604348,21.8233696 C17.1825,21.8233696 17.1052174,21.8028261 17.0370652,21.7640217 C14.5676087,20.3618478 6.27847826,15.4001087 3.29184783,10.4292391 C2.1348913,8.50336957 1.7448913,3.74641304 1.63076087,1.79054348 C1.62326087,1.6623913 1.66728261,1.54076087 1.75467391,1.44815217 C1.84173913,1.35619565 1.95880435,1.305 2.11271739,1.305 L2.11630435,1.305 C4.07217391,1.41913043 8.82913043,1.80880435 10.755,2.96608696 C15.7258696,5.95271739 20.6872826,14.2418478 22.0897826,16.7113043 C22.1905435,16.8883696 22.158913,17.1136957 22.0138043,17.2591304 L21.3906522,17.8822826 C21.3903261,17.8826087 21.39,17.8826087 21.3896739,17.8829348 L18.2083696,21.0642391 C18.2080435,21.0645652 18.2080435,21.0648913 18.2077174,21.0652174 L17.5845652,21.6883696 C17.4975,21.7754348 17.3823913,21.8233696 17.2604348,21.8233696 L17.2604348,21.8233696 Z M22.5423913,20.64 L20.9657609,22.2166304 C20.7834783,22.398913 20.4655435,22.398913 20.283587,22.2166304 L19.5926087,21.5253261 L21.851413,19.2665217 L22.5423913,19.9575 C22.7302174,20.1456522 22.7302174,20.4518478 22.5423913,20.64 L22.5423913,20.64 Z" id="Shape"></path>
            <path d="M28.3806522,22.953587 C27.6994565,22.2723913 26.793587,21.8970652 25.83,21.8970652 C24.866413,21.8970652 23.9605435,22.2723913 23.2793478,22.953587 C22.5981522,23.6347826 22.2228261,24.5406522 22.2228261,25.5042391 C22.2228261,26.4678261 22.5981522,27.3736957 23.2793478,28.0548913 C24.446087,29.2219565 27.6257609,29.3478261 28.9382609,29.3478261 L29.0292391,29.3475 C29.3827174,29.3426087 29.6683696,29.0572826 29.6732609,28.7034783 C29.6827174,27.9688043 29.6644565,24.2370652 28.3806522,22.953587 L28.3806522,22.953587 Z M24.2015217,27.1330435 C23.7665217,26.6980435 23.5271739,26.1198913 23.5271739,25.5045652 C23.5271739,24.8892391 23.7665217,24.311087 24.2015217,23.876087 C24.6365217,23.441087 25.2146739,23.2017391 25.83,23.2017391 C26.4453261,23.2017391 27.0234783,23.441087 27.4584783,23.876087 C28.0346739,24.4522826 28.3134783,26.4675 28.3620652,28.0346739 C26.6488043,27.9818478 24.7633696,27.6945652 24.2015217,27.1330435 Z" id="Shape"></path>
        </g>
        <path d="M25,43.0001214 C25,41.895526 24.1045283,41 23,41 C21.8954717,41 21,41.895526 21,43.0001214 C21,44.1047168 21.8954717,45 23,45 C24.1045283,45 25,44.1047168 25,43.0001214 Z" id="Stroke-1" stroke="#28DCF0" stroke-width="2" stroke-linecap="round" stroke-linejoin="round"></path>
        <g id="Group-8" transform="translate(41.750000, 21.208333) rotate(-19.000000) translate(-41.750000, -21.208333) translate(39.833333, 19.291667)" stroke="#28DCF0" stroke-linecap="round" stroke-linejoin="round" stroke-width="2">
            <line x1="1.91666667" y1="4.54747766e-13" x2="1.91666667" y2="3.83333333" id="Stroke-1"></line>
            <line x1="3.83333333" y1="1.91666667" x2="0" y2="1.91666667" id="Stroke-3"></line>
        </g>
        <path d="M8.08253547,2.15877982 C8.2247716,2.00189057 8.52743477,1.95297907 8.75855259,2.04953294 C10.390114,2.73114877 10.4110315,4.32907888 8.83575907,5.02770526 L8.75632001,5.06201014 C7.74545188,5.48427119 7.72771735,6.47178919 8.68520612,6.90689194 L8.73743299,6.92966619 L8.75855259,6.93801018 C10.390114,7.61962602 10.4110315,9.21755612 8.83575907,9.9161825 L8.77136601,9.94394338 C8.54556503,10.0461301 8.24048527,10.0047107 8.08995128,9.85143069 C7.946944,9.70581466 7.99486053,9.51162909 8.19360582,9.40496226 L8.22623423,9.38886727 L8.24352564,9.38130829 C9.25459032,8.95904252 9.2723283,7.97156131 8.31461742,7.53644174 L8.26237844,7.51366654 L8.24122461,7.50530824 C6.60995077,6.82368767 6.58903701,5.22579473 8.16406212,4.52715093 L8.24352564,4.49283104 C9.27264505,4.06302482 9.27264505,3.04763665 8.24347002,2.61767919 C8.0123522,2.52112533 7.94029935,2.31566908 8.08253547,2.15877982 Z" id="Stroke-1" stroke="#28DCF0" fill="#28DCF0" fill-rule="nonzero" transform="translate(8.500000, 6.000000) rotate(-232.000000) translate(-8.500000, -6.000000) "></path>
    </g>
</svg>