<?xml version="1.0" encoding="UTF-8"?>
<svg width="46px" height="46px" viewBox="0 0 46 46" version="1.1" xmlns="http://www.w3.org/2000/svg" xmlns:xlink="http://www.w3.org/1999/xlink">
    <title>icone/48x48/share_48_bicolore</title>
    <g id="icone/48x48/share_48_bicolore" stroke="none" stroke-width="1" fill="none" fill-rule="evenodd">
        <path d="M13,39.0001214 C13,37.895526 12.1045283,37 11,37 C9.89547165,37 9,37.895526 9,39.0001214 C9,40.1047168 9.89547165,41 11,41 C12.1045283,41 13,40.1047168 13,39.0001214 Z" id="Stroke-1" stroke="#28DCF0" stroke-width="2" stroke-linecap="round" stroke-linejoin="round"></path>
        <g id="Group-8" transform="translate(36.750000, 16.208333) rotate(-19.000000) translate(-36.750000, -16.208333) translate(34.833333, 14.291667)" stroke="#28DCF0" stroke-linecap="round" stroke-linejoin="round" stroke-width="2">
            <line x1="1.91666667" y1="4.54747766e-13" x2="1.91666667" y2="3.83333333" id="Stroke-1"></line>
            <line x1="3.83333333" y1="1.91666667" x2="0" y2="1.91666667" id="Stroke-3"></line>
        </g>
        <path d="M8.08253547,2.15877982 C8.2247716,2.00189057 8.52743477,1.95297907 8.75855259,2.04953294 C10.390114,2.73114877 10.4110315,4.32907888 8.83575907,5.02770526 L8.75632001,5.06201014 C7.74545188,5.48427119 7.72771735,6.47178919 8.68520612,6.90689194 L8.73743299,6.92966619 L8.75855259,6.93801018 C10.390114,7.61962602 10.4110315,9.21755612 8.83575907,9.9161825 L8.77136601,9.94394338 C8.54556503,10.0461301 8.24048527,10.0047107 8.08995128,9.85143069 C7.946944,9.70581466 7.99486053,9.51162909 8.19360582,9.40496226 L8.22623423,9.38886727 L8.24352564,9.38130829 C9.25459032,8.95904252 9.2723283,7.97156131 8.31461742,7.53644174 L8.26237844,7.51366654 L8.24122461,7.50530824 C6.60995077,6.82368767 6.58903701,5.22579473 8.16406212,4.52715093 L8.24352564,4.49283104 C9.27264505,4.06302482 9.27264505,3.04763665 8.24347002,2.61767919 C8.0123522,2.52112533 7.94029935,2.31566908 8.08253547,2.15877982 Z" id="Stroke-1" stroke="#28DCF0" fill="#28DCF0" fill-rule="nonzero" transform="translate(8.500000, 6.000000) rotate(-232.000000) translate(-8.500000, -6.000000) "></path>
        <g id="Group" transform="translate(6.000000, 13.000000)" stroke="#1E1169" stroke-width="1.5">
            <path d="M31.3725889,10.5956593 C31.7177668,10.5956593 32.0302668,10.7355703 32.2564723,10.9617758 C32.4826778,11.1879813 32.6225889,11.5004813 32.6225889,11.8456593 L32.6225889,11.8456593 L32.6225889,20.6812704 C32.6225889,21.0264483 32.4826778,21.3389483 32.2564723,21.5651538 C32.0302668,21.7913593 31.7177668,21.9312704 31.3725889,21.9312704 L31.3725889,21.9312704 L27.473822,21.9312704 L27.473822,24.834625 L24.2004545,22.5877778 C23.7029461,22.1640098 23.0707824,21.9312704 22.4172582,21.9312704 L22.4172582,21.9312704 L14.8356111,21.9312704 C14.4904331,21.9312704 14.1779331,21.7913593 13.9517276,21.5651538 C13.7255221,21.3389483 13.5856111,21.0264483 13.5856111,20.6812704 L13.5856111,20.6812704 L13.5856111,11.8456593 C13.5856111,11.5004813 13.7255221,11.1879813 13.9517276,10.9617758 C14.1779331,10.7355703 14.4904331,10.5956593 14.8356111,10.5956593 L14.8356111,10.5956593 Z" id="Rectangle"></path>
            <path d="M0,8.03546856 L0,2 C-1.3527075e-16,0.8954305 0.8954305,2.02906125e-16 2,0 L18.5369778,0 C19.6415473,-2.02906125e-16 20.5369778,0.8954305 20.5369778,2 L20.5369778,10.8356111 C20.5369778,11.9401806 19.6415473,12.8356111 18.5369778,12.8356111 L15.3882109,12.8356111 L15.3882109,12.8356111 L15.3882109,16.0716533 C15.3882109,16.3477956 15.1643533,16.5716533 14.8882109,16.5716533 C14.7693883,16.5716533 14.6544495,16.529337 14.5639934,16.4522883 L10.5248421,13.0118175 C10.3875605,12.8948838 10.2350948,12.797054 10.0715903,12.7209882" id="Rectangle-Copy" stroke-linecap="round" transform="translate(10.268489, 8.577170) scale(-1, 1) translate(-10.268489, -8.577170) "></path>
        </g>
    </g>
</svg>