<?xml version="1.0" encoding="UTF-8"?>
<svg width="48px" height="48px" viewBox="0 0 48 48" version="1.1" xmlns="http://www.w3.org/2000/svg" xmlns:xlink="http://www.w3.org/1999/xlink">
    <title>icone/48x48/vidéo_48_bicolore</title>
    <g id="icone/48x48/vidéo_48_bicolore" stroke="none" stroke-width="1" fill="none" fill-rule="evenodd">
        <g id="noun_Video_1737180" transform="translate(6.000001, 10.949987)" fill="#1E1169" fill-rule="nonzero">
            <g id="Group">
                <path d="M6.29999955,0 C2.825415,0 0,2.825397 0,6.299982 L0,20.6999775 C0,24.1746075 2.825415,27.0000225 6.29999955,27.0000225 L29.6999996,27.0000225 C33.174585,27.0000225 36,24.1746075 36,20.6999775 L36,6.299982 C36,2.825397 33.174585,0 29.6999996,0 L6.29999955,0 Z M6.3,1.799982 L29.6999996,1.799982 C32.2085246,1.799982 34.1999978,3.791457 34.1999978,6.299982 L34.1999978,20.6999775 C34.1999978,23.2085475 32.2085246,25.2000225 29.6999996,25.2000225 L6.3,25.2000225 C3.79147455,25.2000225 1.8,23.2085475 1.8,20.6999775 L1.8,6.299982 C1.8,3.791457 3.79147455,1.799982 6.3,1.799982 Z M13.8937496,6.749982 C13.4188066,6.77976809 13.0491141,7.17410672 13.0499836,7.649982 L13.0499836,19.3499775 C13.0472775,19.810991 13.3933317,20.199532 13.851585,20.2499775 C14.0309641,20.2700684 14.2122402,20.2357636 14.3718746,20.1515175 L25.1718746,14.3015175 C25.4655178,14.1451953 25.6489988,13.839658 25.6489988,13.5069975 C25.6489988,13.174337 25.4655178,12.8687997 25.1718746,12.7124775 L14.3718746,6.862482 C14.2260115,6.78138052 14.0604722,6.74243011 13.8937496,6.749982 L13.8937496,6.749982 Z M14.8499996,9.168732 L22.8656245,13.4999775 L14.8499996,17.8452675 L14.8499996,9.168732 Z" id="Shape"></path>
            </g>
        </g>
        <path d="M9,42.0001214 C9,40.895526 8.10452835,40 7,40 C5.89547165,40 5,40.895526 5,42.0001214 C5,43.1047168 5.89547165,44 7,44 C8.10452835,44 9,43.1047168 9,42.0001214 Z" id="Stroke-1" stroke="#28DCF0" stroke-width="2" stroke-linecap="round" stroke-linejoin="round"></path>
        <g id="Group-8" transform="translate(44.750000, 8.208333) rotate(-19.000000) translate(-44.750000, -8.208333) translate(42.833333, 6.291667)" stroke="#28DCF0" stroke-linecap="round" stroke-linejoin="round" stroke-width="2">
            <line x1="1.91666667" y1="4.54747766e-13" x2="1.91666667" y2="3.83333333" id="Stroke-1"></line>
            <line x1="3.83333333" y1="1.91666667" x2="0" y2="1.91666667" id="Stroke-3"></line>
        </g>
        <path d="M8.08253547,2.15877982 C8.2247716,2.00189057 8.52743477,1.95297907 8.75855259,2.04953294 C10.390114,2.73114877 10.4110315,4.32907888 8.83575907,5.02770526 L8.75632001,5.06201014 C7.74545188,5.48427119 7.72771735,6.47178919 8.68520612,6.90689194 L8.73743299,6.92966619 L8.75855259,6.93801018 C10.390114,7.61962602 10.4110315,9.21755612 8.83575907,9.9161825 L8.77136601,9.94394338 C8.54556503,10.0461301 8.24048527,10.0047107 8.08995128,9.85143069 C7.946944,9.70581466 7.99486053,9.51162909 8.19360582,9.40496226 L8.22623423,9.38886727 L8.24352564,9.38130829 C9.25459032,8.95904252 9.2723283,7.97156131 8.31461742,7.53644174 L8.26237844,7.51366654 L8.24122461,7.50530824 C6.60995077,6.82368767 6.58903701,5.22579473 8.16406212,4.52715093 L8.24352564,4.49283104 C9.27264505,4.06302482 9.27264505,3.04763665 8.24347002,2.61767919 C8.0123522,2.52112533 7.94029935,2.31566908 8.08253547,2.15877982 Z" id="Stroke-1" stroke="#28DCF0" fill="#28DCF0" fill-rule="nonzero" transform="translate(8.500000, 6.000000) rotate(-232.000000) translate(-8.500000, -6.000000) "></path>
    </g>
</svg>