<svg height="16" viewBox="0 0 16 16" width="16" xmlns="http://www.w3.org/2000/svg"><g fill="#1e1169" fill-rule="evenodd" stroke="#1e1169" stroke-width=".1" transform="translate(1.75 2.15)"><path d="m12.4215201 4.30574198-1.394034-3.85573656c-.1248837-.34570405-.5077285-.52535993-.8535301-.4002812-.2955896.10688635-.46944147.4022809-.4356173.70186994l-.76703086.27722655c-.09610748.03475087-.14585609.14088123-.11117838.23698871.03477525.09622942.14090561.14595364.2370131.11117839l.74978955-.27110553 1.24734879 3.45040735-3.22200271 1.16492217c-.40123228-.6797757-1.24303237-1.00155652-2.01179467-.72357399-.35167876.12707843-.63480687.36045793-.82655849.65070691l-.67502032-1.86671895c-.12183531-.33721752.05335782-.71081981.39067289-.83285022l3.34171639-1.22962509c.09620503-.03477526.14592925-.14088123.11105645-.2370131-.03465332-.09610748-.14088122-.1458317-.23698871-.11105645l-3.34171639 1.2296251c-.52926178.19145898-.80409845.77768779-.61281018 1.30685202l.06391721.1769002-2.82179467 1.02004154c-.15431823-.28529851-.49887611-.42303387-.81295077-.30958753-.34570405.12507873-.52516484.50792353-.4002812.85362758l.60976185 1.68647779c.09800964.27120307.35455638.44000693.62756405.44000693.07496433 0 .151465-.01265663.22596598-.03962818.16746259-.06057625.3012961-.1827042.37694325-.34397261.06133223-.13088273.07840283-.27473912.05018757-.41391329l2.82169712-1.02004155.06299052.17424206c-.08849887.32214662-.08240223.67358152.03953063 1.01106729.13212645.36533524.38094265.66692398.709381.86440645l-.91335029 1.9777754h-.78246756c-.38723438 0-.70216258.31492819-.70216258.70206499 0 .3872344.31502575.7022602.70216258.7022602h.14785579c.10210658 0 .18509408-.0828656.18509408-.1850941 0-.1023017-.0829875-.1850697-.18509408-.1850697h-.14785579c-.18307 0-.33207195-.1489044-.33207195-.3320964 0-.1829968.14900195-.3318768.33207195-.3318768h.89974259l3.32362155.0000975.90076683-.0000975c.18309438 0 .33190125.14888.33190125.3318768 0 .183192-.14880687.3320964-.33190125.3320964h-3.59736764c-.10220413 0-.18509408.082768-.18509408.1850697 0 .1022285.08288995.1850941.18509408.1850941h3.59736764c.38723438 0 .70226012-.3150258.70226012-.7022602 0-.3871368-.31512329-.70206499-.70226012-.70206499h-.78244318l-.91337468-1.9777754c.65377962-.3944772.96929309-1.19933163.72808551-1.94731658l3.21293093-1.1616056c.1237374.18843505.3354129.30083276.5579404.30083276.0750618 0 .151465-.01285173.2259416-.03972573.1674869-.06057624.3013204-.18260665.3769432-.34387505.0756471-.16126841.0839386-.34226555.0234355-.50975253zm-10.87677706 2.92848593c-.03353154.07174529-.09308355.12612735-.16756014.15300135-.15375734.05552823-.32407316-.02428902-.37952823-.17794881l-.60976185-1.6864778c-.05552823-.15375734.02428903-.32407316.17794882-.37972332.0332389-.01190065.06716062-.0176071.10049706-.0176071.12146952 0 .23547675.07515941.27920187.19575101l.60966431 1.68638025c.02697155.07450098.02326479.15500106-.01046184.22662442zm.26644769-.60727443-.4253506-1.17674966 2.81474695-1.01755411.42542376 1.17674966zm3.24702333 3.35810417.84162938-1.82260364c.17192534.05782056.35026434.08696252.52906669.08696252.17850971 0 .35740961-.0292395.53106639-.08725516l.84192202 1.82279874h-2.74368448zm1.81555592-2.18440283c-.32541442.11764083-.67692247.10239922-.99089959-.04257895 0 0-.00009755-.00009755-.00017071-.00009755-.00009754 0-.00019509-.00009754-.00039018-.00019509-.00219479-.00095108-.00438958-.00180461-.00648683-.00285323-.31558663-.14802649-.55469697-.41018215-.67328888-.73798645-.2446217-.67682493.1069839-1.42651694.78371128-1.67123619.1460268-.05277254.2954921-.07772.44246997-.07772.53440734 0 1.03691705.33073069 1.22876622.86152882.24462171.67672738-.10698389 1.42651694-.78371128 1.67113864zm5.18909682-3.14233177c-.0335316.07172091-.0930592.1260298-.1675602.15287942-.1537329.05552822-.3240731-.02428903-.3796013-.17794882l-1.3939365-3.85583411c-.0555526-.15375734.0243866-.32397561.178022-.37952823.0331657-.01209574.067063-.01770465.1004239-.01770465.1214451 0 .2355743.07515942.2792018.19565347l1.393839 3.8558585c.0269715.07437905.0233379.15497667-.0103887.22662442z"/><path d="m6.12988198 5.74303778c-.22167394.08010989-.39903748.24186603-.49914436.45544363-.10013127.21338251-.11098329.45305374-.0308734.67482523.08010989.2217471.24186602.39903748.45534608.49914436.11907963.05582087.24642631.08393858.37418756.08393858.10125305 0 .20270119-.01763149.30073521-.05306518.22164956-.08010989.39903749-.24186602.49914436-.45534608.10003372-.2133825.1109833-.45305374.03087341-.67492277-.16556044-.45771158-.6725329-.69557821-1.13026886-.53001777zm.76408009 1.04776908c-.05801566.12393256-.16087822.21784526-.28978564.26435045-.12868795.04657835-.26786211.04018907-.39179467-.01802168-.12393257-.05799127-.21786964-.16087822-.26435045-.28976125-.04657835-.12871233-.04018907-.2678865.01792413-.39181906.05808882-.12393256.16107331-.21784525.2898588-.26435044.05725967-.02075298.11593377-.03058076.17365678-.03058076.20987084 0 .40725576.12995604.48251272.33836369.04657836.12871233.04018907.26788649-.01802167.39181905z"/></g></svg>