<?xml version="1.0" encoding="UTF-8"?>
<svg width="16px" height="16px" viewBox="0 0 16 16" version="1.1" xmlns="http://www.w3.org/2000/svg" xmlns:xlink="http://www.w3.org/1999/xlink">
    <title>icone/16x16/decouvrir_16_deepgreen</title>
    <g id="icone/16x16/decouvrir_16_deepgreen" stroke="none" stroke-width="1" fill="none" fill-rule="evenodd">
        <g id="003-telescope-1" transform="translate(1.750008, 2.159861)" fill="#0B554B" stroke="#0B554B" stroke-width="0.1">
            <g id="Group-5">
                <path d="M12.4215123,4.29581335 L11.0274783,0.440076786 C10.9025946,0.0943727369 10.5197498,-0.0852831414 10.1739482,0.0397955881 C9.87835859,0.146681935 9.70450672,0.442076485 9.7383309,0.741665526 L8.97130004,1.01889208 C8.87519255,1.05364295 8.82544395,1.15977331 8.86012165,1.25588079 C8.8948969,1.3521102 9.00102727,1.40183443 9.09713475,1.36705917 L9.8469243,1.09595365 L11.0942731,4.546361 L7.87227038,5.71128317 C7.47103811,5.03150747 6.62923802,4.70972664 5.86047571,4.98770918 C5.50879695,5.11478761 5.22566885,5.34816711 5.03391723,5.63841609 L4.3588969,3.77169714 C4.23706159,3.43447962 4.41225473,3.06087733 4.74956979,2.93884692 L8.09128619,1.70922182 C8.18749121,1.67444657 8.23721544,1.56834059 8.20234264,1.47220873 C8.16768932,1.37610124 8.06146141,1.32637702 7.96535393,1.36115228 L4.62363753,2.59077737 C4.09437575,2.78223635 3.81953908,3.36846517 4.01082736,3.8976294 L4.07474456,4.07452959 L1.25294989,5.09457114 C1.09863166,4.80927263 0.754073783,4.67153727 0.439999118,4.78498361 C0.0942950683,4.91006234 -0.0851657175,5.29290713 0.0397179195,5.63861118 L0.649479774,7.32508898 C0.747489408,7.59629205 1.00403615,7.7650959 1.27704383,7.7650959 C1.35200815,7.7650959 1.42850883,7.75243927 1.50300981,7.72546772 C1.6704724,7.66489148 1.80430591,7.54276352 1.87995305,7.38149512 C1.94128528,7.25061239 1.95835588,7.106756 1.93014062,6.96758183 L4.75183774,5.94754028 L4.81482826,6.12178234 C4.72632939,6.44392896 4.73242603,6.79536386 4.85435889,7.13284963 C4.98648534,7.49818487 5.23530154,7.79977361 5.5637399,7.99725607 L4.6503896,9.97503148 L3.86792204,9.97503148 C3.48068766,9.97503148 3.16575947,10.2899597 3.16575947,10.6770965 C3.16575947,11.0643309 3.48078521,11.3793566 3.86792204,11.3793566 L4.01577783,11.3793566 C4.11788441,11.3793566 4.20087192,11.2964911 4.20087192,11.1942625 C4.20087192,11.0919609 4.11788441,11.0091928 4.01577783,11.0091928 L3.86792204,11.0091928 C3.68485205,11.0091928 3.53585009,10.8602884 3.53585009,10.6770965 C3.53585009,10.4940997 3.68485205,10.3452196 3.86792204,10.3452196 L4.76766463,10.3452196 L8.09128619,10.3453172 L8.99205301,10.3452196 C9.17514739,10.3452196 9.32395426,10.4940997 9.32395426,10.6770965 C9.32395426,10.8602884 9.17514739,11.0091928 8.99205301,11.0091928 L5.39468537,11.0091928 C5.29248125,11.0091928 5.20959129,11.0919609 5.20959129,11.1942625 C5.20959129,11.2964911 5.29248125,11.3793566 5.39468537,11.3793566 L8.99205301,11.3793566 C9.37928739,11.3793566 9.69431313,11.0643309 9.69431313,10.6770965 C9.69431313,10.2899597 9.37918984,9.97503148 8.99205301,9.97503148 L8.20960984,9.97503148 L7.29623516,7.99725607 C7.95001477,7.60277888 8.26552825,6.79792445 8.02432066,6.0499395 L11.2372516,4.8883339 C11.360989,5.07676894 11.5726645,5.18916666 11.795192,5.18916666 C11.8702538,5.18916666 11.946657,5.17631493 12.0211335,5.14944093 C12.1886205,5.08886468 12.322454,4.96683428 12.3980768,4.80556587 C12.4737239,4.64429747 12.4820154,4.46330033 12.4215123,4.29581335 Z M1.54473523,7.22429928 C1.51120369,7.29604457 1.45165168,7.35042663 1.37717509,7.37730063 C1.22341775,7.43282886 1.05310193,7.3530116 0.997646867,7.19935181 L0.387885013,5.51287402 C0.332356787,5.35911668 0.412174039,5.18880086 0.565833831,5.1331507 C0.599072729,5.12125005 0.632994451,5.11554359 0.666330896,5.11554359 C0.787800412,5.11554359 0.901807638,5.19070301 0.945532762,5.31129461 L1.55519707,6.99767486 C1.58216862,7.07217584 1.57846186,7.15267591 1.54473523,7.22429928 Z M1.81118292,6.61702485 L1.38583233,5.44027519 L4.20057928,4.42272107 L4.62600303,5.59947073 L1.81118292,6.61702485 Z M5.05820625,9.97512902 L5.89983564,8.15252538 C6.07176097,8.21034594 6.25009998,8.2394879 6.42890232,8.2394879 C6.60741203,8.2394879 6.78631193,8.2102484 6.95996871,8.15223274 L7.80189073,9.97503148 L5.05820625,9.97503148 L5.05820625,9.97512902 Z M6.87376218,7.79072619 C6.54834776,7.90836702 6.1968397,7.89312541 5.88286258,7.74814724 C5.88286258,7.74814724 5.88276504,7.74804969 5.88269188,7.74804969 C5.88259433,7.74804969 5.88249678,7.74795214 5.88230169,7.7478546 C5.8801069,7.74690352 5.87791211,7.74604999 5.87581486,7.74500137 C5.56022823,7.59697487 5.32111789,7.33481922 5.20252599,7.00701492 C4.95790428,6.33018999 5.30950988,5.58049798 5.98623726,5.33577873 C6.13226406,5.28300619 6.28172936,5.25805872 6.42870723,5.25805872 C6.96311458,5.25805872 7.46562429,5.58878942 7.65747345,6.11958755 C7.90209516,6.79631493 7.55048956,7.54610448 6.87376218,7.79072619 Z M12.062859,4.64839441 C12.0293274,4.72011532 11.9697998,4.77442422 11.8952988,4.80127384 C11.7415659,4.85680206 11.5712257,4.77698481 11.5156974,4.62332502 L10.121761,0.767490906 C10.0662084,0.613733568 10.1461475,0.443515293 10.299783,0.387962681 C10.3329487,0.375866941 10.366846,0.37025803 10.4002069,0.37025803 C10.521652,0.37025803 10.6357811,0.445417446 10.6794087,0.5659115 L12.0732476,4.42177 C12.1002192,4.49614904 12.0965856,4.57674666 12.062859,4.64839441 Z" id="Fill-1"></path>
                <path d="M6.12987417,5.73310915 C5.90820023,5.81321904 5.73083669,5.97497518 5.63072981,6.18855278 C5.53059855,6.40193528 5.51974652,6.64160652 5.59985641,6.86337801 C5.6799663,7.08512511 5.84172244,7.26241549 6.05520249,7.36252237 C6.17428212,7.41834323 6.3016288,7.44646095 6.42939006,7.44646095 C6.5306431,7.44646095 6.63209124,7.42882946 6.73012527,7.39339577 C6.95177482,7.31328588 7.12916275,7.15152974 7.22926963,6.93804969 C7.32930335,6.72466718 7.34025292,6.48499595 7.26014303,6.26312691 C7.09458259,5.80541534 6.58761014,5.56754871 6.12987417,5.73310915 Z M6.89395426,6.78087823 C6.8359386,6.90481079 6.73307604,6.99872348 6.60416862,7.04522868 C6.47548068,7.09180703 6.33630651,7.08541775 6.21237395,7.027207 C6.08844139,6.96921573 5.99450431,6.86632878 5.9480235,6.73744575 C5.90144515,6.60873342 5.90783443,6.46955925 5.96594763,6.34562669 C6.02403645,6.22169413 6.12702095,6.12778144 6.25580643,6.08127624 C6.31306611,6.06052327 6.3717402,6.05069548 6.42946322,6.05069548 C6.63933406,6.05069548 6.83671897,6.18065153 6.91197594,6.38905917 C6.95855429,6.5177715 6.95216501,6.65694567 6.89395426,6.78087823 Z" id="Fill-3"></path>
            </g>
        </g>
    </g>
</svg>