<?xml version="1.0" encoding="UTF-8"?>
<svg width="16px" height="16px" viewBox="0 0 16 16" version="1.1" xmlns="http://www.w3.org/2000/svg" xmlns:xlink="http://www.w3.org/1999/xlink">
    <title>icone/16x16/like_16_white</title>
    <g id="icone/16x16/like_16_white" stroke="none" stroke-width="1" fill="none" fill-rule="evenodd">
        <path d="M5.35219066,3.75 C5.87828826,3.75 6.35961828,3.91464429 6.78363863,4.23722678 C7.01031097,4.4095761 7.21488309,4.62140964 7.39585247,4.86742273 L7.39585247,4.86742273 L8.00015307,5.68892004 L8.60425499,4.86727661 C8.78515981,4.62122664 8.98959414,4.40953687 9.21630046,4.23716171 C9.64030378,3.91467674 10.1216445,3.75 10.6478093,3.75 C11.3624073,3.75 12.0212206,4.02901277 12.5007785,4.5405428 C12.9896651,5.0620477 13.25,5.7769517 13.25,6.54675452 C13.25,7.38231343 12.9118786,8.13732858 12.2362767,8.93897585 C11.5331281,9.77347456 10.5190835,10.616759 9.34899146,11.5973631 C9.01373059,11.8784753 8.65914232,12.175807 8.29220917,12.488286 C7.34025662,12.1669163 6.97493816,11.8690466 6.65129366,11.5977759 C5.48011905,10.6161127 4.46655711,9.77310095 3.76370186,8.9389504 C3.08821711,8.13735541 2.75,7.38234043 2.75,6.54686977 C2.75,5.7769697 3.01021503,5.06204416 3.4990631,4.54055549 C3.97864157,4.02900355 4.63749348,3.75 5.35219066,3.75 Z" id="Fill-1" stroke="#FFFFFF" stroke-width="1.5"></path>
    </g>
</svg>