<?xml version="1.0" encoding="UTF-8"?>
<svg width="16px" height="16px" viewBox="0 0 16 16" version="1.1" xmlns="http://www.w3.org/2000/svg" xmlns:xlink="http://www.w3.org/1999/xlink">
    <title>icone/16x16/heart_16_purple</title>
    <g id="icone/16x16/heart_16_purple" stroke="none" stroke-width="1" fill="none" fill-rule="evenodd">
        <path d="M11.5304124,1.75 C12.5538858,1.75 13.4968091,2.15068208 14.1834266,2.88307629 C14.8769411,3.62286177 15.25,4.63599389 15.25,5.72900602 C15.25,6.89731148 14.7858343,7.95689369 13.8395501,9.07972373 C12.8942957,10.2015543 11.532297,11.3364442 9.95928342,12.6547196 C9.38520409,13.1360782 8.76856327,13.6531468 8.12878021,14.2033703 C7.22012925,13.6435373 6.59370966,13.1184564 6.04113062,12.6552984 C4.46661947,11.3355638 3.10527641,10.2010465 2.16042844,9.07969829 C1.21429071,7.95692052 0.75,6.89733848 0.75,5.72915969 C0.75,4.63601189 1.12290002,3.62285823 1.81636624,2.88308898 C2.50300424,2.15067287 3.44597586,1.75 4.46958755,1.75 C5.22658246,1.75 5.91936653,1.98645684 6.52949924,2.4506283 C6.85012621,2.6944156 7.13984439,2.99373617 7.39585247,3.34175824 L7.39585247,3.34175824 L8.00015307,4.16325555 L8.60425499,3.34161212 C8.86018874,2.99351475 9.14973008,2.69437637 9.47039102,2.45056323 C10.0805555,1.98648929 10.7733405,1.75 11.5304124,1.75 Z" id="Fill-1" stroke="#1E1169" stroke-width="1.5" fill="#1E1169"></path>
    </g>
</svg>
