<svg height="16" viewBox="0 0 16 16" width="16" xmlns="http://www.w3.org/2000/svg"><path d="m13.9915147 2.08290118c-.6385728-.70060316-1.5066395-1.08290118-2.4611023-1.08290118-.6987447 0-1.3279634.2197607-1.89800523.66570581-.29856999.23350256-.5730648.52348542-.81887659.86736813l-.81332449 1.13781455-.81359724-1.13761954c-.24595578-.34390984-.52067613-.63408779-.81942531-.86773053-.56967096-.4457719-1.19887702-.66553842-1.89759599-.66553842-.95461888 0-1.82272922.38229829-2.46127381 1.08287507-.64623184.70907762-1.00831374 1.69472406-1.00831374 2.78140347 0 1.12244462.4165241 2.15746956 1.36047956 3.309663.76378545.93236161 1.59132554 1.69932831 3.85183138 3.64818986.84087097.7249341 1.26818544 1.0957391 1.7876217 1.5548441.51578858-.4558951.92440306-.8104813 1.78808255-1.5553638 2.25907071-1.94732268 3.08762641-2.71519451 3.85156681-3.64774535.9439427-1.15205314 1.360418-2.18704624 1.360418-3.30974587 0-1.08642128-.3621713-2.0720807-1.0084853-2.7812193zm-5.94724603 11.33327722c.00000813.0000072.00001627.0000144.00002441.0000216-.00000813-.0000072-.00001627-.0000144-.00002441-.0000216zm-.0885037-.0001482c-.00001626.0000143-.00003251.0000287-.00004875.0000431.00001626-.0000144.00003251-.0000287.00004877-.0000431zm6.03574973-11.33312902c-.0000026-.00000285-.0000051-.0000057-.0000077-.00000855l.0000155.0000171c-.0000026-.00000285-.0000052-.0000057-.0000078-.00000855z" fill="none" stroke="#fff" stroke-width="2"/></svg>