<?xml version="1.0" encoding="UTF-8"?>
<svg width="16px" height="16px" viewBox="0 0 16 16" version="1.1" xmlns="http://www.w3.org/2000/svg" xmlns:xlink="http://www.w3.org/1999/xlink">
    <title>icone/16x16/like_16_deepgreen</title>
    <g id="icone/16x16/like_16_deepgreen" stroke="none" stroke-width="1" fill="none" fill-rule="evenodd">
        <path d="M10.6478093,3.6 C11.4048129,3.6 12.1023296,3.8962118 12.6102116,4.43795433 C13.1240977,4.9861266 13.4,5.73698668 13.4,6.54675452 C13.4,7.41484957 13.0538763,8.20160193 12.3509854,9.03562941 C11.643203,9.8756275 10.6231949,10.7252183 9.44536834,11.7123043 C9.09082113,12.0095879 8.71463483,12.3250279 8.32493137,12.6572797 C7.28317692,12.3160738 6.89680159,11.9992765 6.5549371,11.7127342 C5.37599549,10.7245608 4.35647727,9.87524807 3.64899744,9.03560905 C2.94621785,8.2016234 2.6,7.41487118 2.6,6.54686977 C2.6,5.73700108 2.87578302,4.98612377 3.38963236,4.43796448 C3.89753086,3.89620443 4.59508422,3.6 5.35219066,3.6 C5.91160713,3.6 6.42354357,3.77480296 6.87442727,4.11782234 C7.11213792,4.29856458 7.32688325,4.52052363 7.51668198,4.77853949 L7.51668198,4.77853949 L8.00012246,5.43573734 L8.48340399,4.77842259 C8.67314521,4.52035418 8.88775687,4.2985332 9.1254947,4.11777028 C9.57639408,3.77482892 10.0883332,3.6 10.6478093,3.6 Z" id="Fill-1" stroke="#0B554B" stroke-width="1.2"></path>
    </g>
</svg>