<svg xmlns="http://www.w3.org/2000/svg" width="16" height="16" viewBox="0 0 16 16">
  <path fill="none" stroke="#FFF" stroke-width="2" d="M11.5304124,2 C12.4832097,2 13.3616275,2.37201703 14.001038,3.05405706 C14.6528869,3.74939693 15,4.70260227 15,5.72900602 C15,6.84308457 14.5491715,7.84977145 13.6483689,8.91863446 C12.7108374,10.0312994 11.358778,11.1556787 9.79865529,12.4631508 C9.23393152,12.9366648 8.62807946,13.4446937 7.99985278,13.9843863 C7.36070936,13.4351709 6.74551077,12.919489 6.20172488,12.4637012 C4.64015874,11.1548169 3.28874282,10.0308013 2.35160248,8.91860053 C1.45095614,7.84980722 1,6.84312058 1,5.72915969 C1,4.70262627 1.34695337,3.74939221 1.9987508,3.05407398 C2.63818876,2.37200474 3.51665798,2 4.46958755,2 C5.17105102,2 5.81282438,2.21952572 6.37818484,2.64963571 C6.68041463,2.8794348 6.95317745,3.16187952 7.19446996,3.48989697 L7.19446996,3.48989697 L8.0002041,4.58522672 L8.80567332,3.48970215 C9.04687975,3.16163552 9.31945885,2.8793825 9.62173395,2.64954895 C10.1870717,2.21956898 10.8288593,2 11.5304124,2 Z"/>
</svg>
