<?xml version="1.0" encoding="UTF-8"?>
<svg width="16px" height="16px" viewBox="0 0 16 16" version="1.1" xmlns="http://www.w3.org/2000/svg" xmlns:xlink="http://www.w3.org/1999/xlink">
    <title>icone/16x16/message_alert_16_red</title>
    <g id="icone/16x16/message_alert_16_red" stroke="none" stroke-width="1" fill="none" fill-rule="evenodd">
        <g id="message-alert" transform="translate(1.000000, 1.500000)">
            <path d="M5.92041667,1.1375 L0.362916667,10.51375 C0.129567165,10.9198639 0.127577439,11.4189105 0.357681176,11.8268722 C0.587784914,12.2348339 1.015901,12.4912867 1.48416667,12.5016667 L12.5991667,12.5016667 C13.0674323,12.4912867 13.4955484,12.2348339 13.7256522,11.8268722 C13.9557559,11.4189105 13.9537662,10.9198639 13.7204167,10.51375 L8.16291667,1.1375 C7.9274293,0.742534207 7.50150607,0.50059744 7.04166667,0.50059744 C6.58182727,0.50059744 6.15590403,0.742534207 5.92041667,1.1375 Z" id="Path" stroke="#D20019" stroke-linecap="round" stroke-linejoin="round"></path>
            <path d="M7.72958333,9.80958333 C7.72958333,10.1895092 7.42159255,10.4975 7.04166667,10.4975 C6.66174078,10.4975 6.35375,10.1895092 6.35375,9.80958333 C6.35375,9.42965745 6.66174078,9.12166667 7.04166667,9.12166667 C7.22455639,9.12020931 7.40037871,9.19221795 7.52970538,9.32154462 C7.65903205,9.45087129 7.73104069,9.62669361 7.72958333,9.80958333 Z M7.04166667,8.46083499 L7.04166667,8.46083499 C6.75671523,8.46153226 6.5199458,8.2413367 6.5,7.95708333 L6.41875,4.60416667 C6.41566531,4.43900775 6.48066735,4.2798545 6.59849279,4.16407821 C6.71631822,4.04830191 6.87658727,3.98610182 7.04166667,3.99208333 L7.04166667,3.99208333 C7.37372787,3.99208333 7.64291667,4.26127213 7.64291667,4.59333333 L7.64291667,4.59333333 L7.56166667,7.94625 C7.54784332,8.22660055 7.32214659,8.44994628 7.04166667,8.46083499 L7.04166667,8.46083499 Z" id="Shape" fill="#D20019"></path>
        </g>
    </g>
</svg>