<svg xmlns="http://www.w3.org/2000/svg" width="15" height="16" viewBox="0 0 15 16">
  <g fill="#1E1169" transform="translate(2 2)">
    <path d="M0,6.71824104 C0,9.76384365 2.4723127,12.218241 5.5,12.218241 C8.5276873,12.218241 11,9.74592834 11,6.71824104 C11,5.21335505 10.3908795,3.83387622 9.38762215,2.83061889 L9.81758958,2.40065147 L10.014658,2.59771987 C10.1042345,2.68729642 10.2117264,2.72312704 10.3192182,2.72312704 C10.4267101,2.72312704 10.534202,2.68729642 10.6237785,2.59771987 C10.7850163,2.43648208 10.7850163,2.14983713 10.6237785,1.98859935 L9.62052117,0.98534202 C9.45928339,0.824104235 9.17263844,0.824104235 9.01140065,0.98534202 C8.85016287,1.1465798 8.85016287,1.43322476 9.01140065,1.59446254 L9.20846906,1.79153094 L8.7247557,2.2752443 C7.91856678,1.68403909 6.95114007,1.30781759 5.91205212,1.23615635 L5.91205212,0.859934853 L6.86156352,0.859934853 C7.09446254,0.859934853 7.29153094,0.66286645 7.29153094,0.429967427 C7.29153094,0.197068404 7.09446254,0 6.86156352,0 L4.04885993,0 C3.81596091,0 3.61889251,0.197068404 3.61889251,0.429967427 C3.61889251,0.66286645 3.81596091,0.859934853 4.04885993,0.859934853 L5.07003257,0.859934853 L5.07003257,1.23615635 C2.23941368,1.45114007 0,3.81596091 0,6.71824104 Z M5.5,11.3583062 C2.93811075,11.3583062 0.859934853,9.28013029 0.859934853,6.71824104 C0.859934853,4.15635179 2.93811075,2.0781759 5.5,2.0781759 C8.06188925,2.0781759 10.1400651,4.15635179 10.1400651,6.71824104 C10.1400651,9.28013029 8.06188925,11.3583062 5.5,11.3583062 Z"/>
    <path d="M7.34527687,6.21661238 L5.92996743,6.21661238 L5.92996743,3.9771987 C5.92996743,3.74429967 5.73289902,3.54723127 5.5,3.54723127 C5.26710098,3.54723127 5.07003257,3.74429967 5.07003257,3.9771987 L5.07003257,6.6465798 C5.07003257,6.87947883 5.26710098,7.07654723 5.5,7.07654723 L7.34527687,7.07654723 C7.5781759,7.07654723 7.7752443,6.87947883 7.7752443,6.6465798 C7.7752443,6.41368078 7.5781759,6.21661238 7.34527687,6.21661238 Z"/>
  </g>
</svg>
