<svg height="16" viewBox="0 0 15 16" width="15" xmlns="http://www.w3.org/2000/svg"><g fill="#59598d" transform="translate(2 2)"><path d="m.13094629 6.20358056c0 2.7826087 2.25882353 5.02506394 5.02506394 5.02506394s5.02506397-2.25882353 5.02506397-5.02506394c0-1.37493606-.55652177-2.63529411-1.47314581-3.55191816l.39283887-.39283887.18005115.18005115c.08184144.08184143.18005116.11457801.27826087.11457801.09820972 0 .19641944-.03273658.27826087-.11457801.14731458-.14731458.14731458-.40920716 0-.55652174l-.91662404-.91662404c-.14731458-.14731458-.40920716-.14731458-.55652174 0-.14731457.14731458-.14731457.40920716 0 .55652174l.18005115.18005115-.44194373.44194373c-.73657289-.54015345-1.62046036-.88388746-2.56982097-.94936061v-.34373401h.86751918c.21278772 0 .39283887-.18005116.39283887-.39283888s-.18005115-.39283887-.39283887-.39283887h-2.56982097c-.21278773 0-.39283888.18005115-.39283888.39283887s.18005115.39283888.39283888.39283888h.93299233v.34373401c-2.58618926.19641944-4.63222507 2.35703325-4.63222507 5.00869565zm5.02506394 4.23938624c-2.34066496 0-4.23938619-1.89872128-4.23938619-4.23938624s1.89872123-4.23938619 4.23938619-4.23938619 4.23938619 1.89872123 4.23938619 4.23938619-1.89872123 4.23938624-4.23938619 4.23938624z"/><path d="m6.84194373 5.74526854h-1.29309463v-2.0460358c0-.21278773-.18005115-.39283888-.39283887-.39283888s-.39283887.18005115-.39283887.39283888v2.43887468c0 .21278772.18005115.39283887.39283887.39283887h1.6859335c.21278773 0 .39283888-.18005115.39283888-.39283887 0-.21278773-.18005115-.39283888-.39283888-.39283888z"/></g></svg>